<svg width="260" height="130" viewBox="0 0 260 130" fill="none" xmlns="http://www.w3.org/2000/svg">
<g clip-path="url(#clip0_3945_8775)">
<path d="M57.0728 63.5845C56.7328 63.4776 56.136 63.3338 55.7815 63.2527C55.7815 63.2527 54.0092 66.5854 49.8496 68.9891C46.9596 70.6591 42.7783 71.8536 36.9043 71.1015C36.5968 71.0462 36.2966 70.9836 36 70.9135V72.4066C44.6158 73.2914 53.1628 69.5384 57.0728 63.5845Z" fill="#0071BB"/>
<path d="M54.7615 63.0718C54.3203 63.0128 53.8754 62.976 53.4341 62.9575C53.4341 62.9575 50.6237 66.8211 45.5092 67.8718C43.8345 68.1889 42.0549 68.2183 40.2934 67.9013C38.6513 67.6027 37.2009 67.0386 36 66.2755V68.4248C36.4811 68.5538 36.9766 68.6681 37.4902 68.7603C44.2649 69.9806 50.9239 67.9124 54.7652 63.0718H54.7615Z" fill="#0071BB"/>
<path d="M53.5534 69.5494C50.3126 72.5503 44.8039 75.5439 36 74.8029V77.0001H60.3498V65.2434C59.6626 64.7273 58.8741 64.2812 57.9988 63.9199C57.9988 63.9199 56.4724 66.8471 53.5534 69.5531V69.5494Z" fill="#0071BB"/>
<path d="M50.5657 60.7419C45.6863 62.5152 43.9827 65.918 43.9827 65.918C45.3463 66.0507 48.7137 66.047 52.3959 63.0129C50.2365 63.153 48.1784 63.8203 46.4857 64.8931C46.388 64.9558 46.3157 64.8894 46.4205 64.7383C46.8691 64.1152 47.9433 62.9355 50.3016 61.9696C52.3923 61.1143 54.841 60.93 57.2282 61.3834C58.3748 61.6009 59.4202 61.9659 60.3461 62.4415V60.082C60.1761 60.0452 60.0097 60.0046 59.8361 59.9714C56.6531 59.3668 53.4231 59.7097 50.5657 60.7419Z" fill="#808184"/>
<path d="M41.4509 65.4055C41.8814 65.5419 42.3335 65.6525 42.8001 65.741C42.8507 65.752 42.9014 65.7594 42.952 65.7668C45.7335 60.2811 53.152 57.0221 60.3499 58.3419V56.4285C52.5371 56.0009 44.9739 59.7023 41.4509 65.4055Z" fill="#808184"/>
<path d="M38.1594 53.3982V63.7171C38.8213 64.2295 39.5773 64.6756 40.4165 65.0295C40.4165 65.0295 45.4441 54.6148 60.3499 54.6111V53.3982H38.1594Z" fill="#808184"/>
<path d="M69.9025 56.9705H73.8343V65.5825H73.9753L76.0587 53H79.9904L77.2053 66.5853L79.589 77H75.6572L73.9717 67.7871H73.8306V77H69.8989V56.9705H69.9025Z" fill="#231F20"/>
<path d="M102.694 77H98.7085L97.6415 61.6635H97.4751L96.4081 77H92.4221L94.6683 56.9705H100.452L102.698 77H102.694Z" fill="#231F20"/>
<path d="M113.39 73.4239C113.39 74.8248 113.224 77 110.471 77H107.216C104.463 77 104.297 74.8285 104.297 73.4239V69.8184C104.297 69.8184 106.746 69.929 108.229 72.2811V74.1391C108.229 74.6553 108.623 74.7953 108.847 74.7953C109.212 74.7953 109.466 74.482 109.466 74.1391V69.2175H107.219C104.467 69.2175 104.3 67.0423 104.3 65.6414V56.9705H108.232V66.0138C108.232 66.6442 108.54 67.0129 108.963 67.0129H109.469V56.9705H113.401V73.4239H113.39Z" fill="#231F20"/>
<path d="M135.436 56.9705H144.529V77H140.601V59.1751H139.364V77H135.436V56.9705Z" fill="#231F20"/>
<path d="M158.4 56.9705H162.332V66.9576H162.473L164.101 56.9705H168.033V77H164.101V67.0129H163.96L162.332 77H158.4V56.9705Z" fill="#231F20"/>
<path d="M170.503 56.9705H179.206V59.1751H174.431V63.4921H176.677C179.43 63.4921 179.596 65.6672 179.596 67.0682V73.4239C179.596 74.8248 179.43 77 176.677 77H170.5V56.9705H170.503ZM174.938 74.7953C175.357 74.7953 175.668 74.423 175.668 73.7926V66.6921C175.668 66.0617 175.361 65.6894 174.938 65.6894H174.431V74.7917H174.938V74.7953Z" fill="#231F20"/>
<path d="M181.705 60.5465C181.705 59.1419 181.875 56.9705 184.624 56.9705H187.883C190.635 56.9705 190.802 59.1456 190.802 60.5465V73.4239C190.802 74.8248 190.635 77 187.883 77H184.624C181.871 77 181.705 74.8285 181.705 73.4239V60.5465ZM186.874 59.8313C186.874 59.4884 186.62 59.1751 186.255 59.1751C186.031 59.1751 185.64 59.3188 185.64 59.8313V74.1391C185.64 74.6553 186.034 74.7953 186.255 74.7953C186.62 74.7953 186.874 74.482 186.874 74.1391V59.8313Z" fill="#231F20"/>
<path d="M192.907 56.9705H199.081C201.834 56.9705 202 59.1456 202 60.5465V68.1041C202 69.505 201.834 71.6801 199.081 71.6801H196.835V76.9963H192.907V56.9705ZM197.341 69.4792C197.765 69.4792 198.072 69.1069 198.072 68.4764V60.1741C198.072 59.5474 197.765 59.1751 197.341 59.1751H196.835V69.4792H197.341Z" fill="#231F20"/>
<path d="M147.003 56.9705H153.177C155.93 56.9705 156.096 59.1456 156.096 60.5465V68.1041C156.096 69.505 155.926 71.6801 153.177 71.6801H150.931V76.9963H147.003V56.9705ZM151.438 69.4792C151.857 69.4792 152.168 69.1069 152.168 68.4764V60.1741C152.168 59.5474 151.857 59.1751 151.438 59.1751H150.931V69.4792H151.438Z" fill="#231F20"/>
<path d="M131.417 56.9705H125.24L124.053 68.5612C124.321 68.4027 124.589 68.2479 124.871 68.0967C125.789 67.6101 126.744 67.2193 127.714 66.8949L128.216 59.4294H128.441L128.918 66.5373C130.043 66.246 131.186 66.0506 132.336 65.9622L131.417 56.9705Z" fill="#0071BB"/>
<path d="M87.1991 77H91.044L88.9932 56.9705H82.8153L80.7681 77H84.613L84.9747 71.6027H86.8338L87.1955 77H87.1991ZM85.123 69.446L85.7957 59.4294H86.02L86.6928 69.446H85.123Z" fill="#231F20"/>
<path d="M133.779 69.9695L133.501 67.0239C130.542 67.0866 127.576 67.7907 124.878 69.2175C121.89 70.799 119.64 73.0442 118.219 75.6175C118.175 75.6949 118.074 75.846 117.937 75.8387C117.756 75.8018 117.662 75.6359 117.792 75.3299C118.316 74.2202 118.986 73.1622 119.799 72.1815V59.1751H123.362V56.9705H115.868V77H119.799V75.9788C119.799 75.9788 119.745 75.3889 120.157 74.9723C121.17 73.9953 122.346 73.1216 123.67 72.3806L123.196 77.0036H127.041L127.457 70.7769C128.025 70.6073 128.6 70.4672 129.175 70.3493L129.623 77.0036H133.468L132.748 69.9695C133.092 69.9622 133.436 69.9659 133.779 69.9769V69.9695Z" fill="#231F20"/>
</g>
<defs>
<clipPath id="clip0_3945_8775">
<rect width="166" height="24" fill="white" transform="translate(36 53)"/>
</clipPath>
</defs>
</svg>
