<?xml version="1.0" encoding="UTF-8"?>
<svg id="Layer_2" data-name="Layer 2" xmlns="http://www.w3.org/2000/svg" xmlns:xlink="http://www.w3.org/1999/xlink" viewBox="0 0 153.8 45.15">
  <defs>
    <style>
      .cls-1 {
        fill: url(#linear-gradient-12);
      }

      .cls-1, .cls-2, .cls-3, .cls-4, .cls-5, .cls-6, .cls-7, .cls-8, .cls-9, .cls-10, .cls-11, .cls-12, .cls-13 {
        stroke-width: 0px;
      }

      .cls-2 {
        fill: url(#linear-gradient);
      }

      .cls-3 {
        fill: #6d6e71;
      }

      .cls-4 {
        fill: url(#linear-gradient-6);
      }

      .cls-5 {
        fill: url(#linear-gradient-11);
      }

      .cls-6 {
        fill: url(#linear-gradient-5);
      }

      .cls-7 {
        fill: url(#linear-gradient-2);
      }

      .cls-8 {
        fill: url(#linear-gradient-7);
      }

      .cls-9 {
        fill: url(#linear-gradient-3);
      }

      .cls-10 {
        fill: url(#linear-gradient-9);
      }

      .cls-11 {
        fill: url(#linear-gradient-8);
      }

      .cls-12 {
        fill: url(#linear-gradient-10);
      }

      .cls-13 {
        fill: url(#linear-gradient-4);
      }
    </style>
    <linearGradient id="linear-gradient" x1="4.01" y1="34.35" x2="140.71" y2="-7.65" gradientUnits="userSpaceOnUse">
      <stop offset="0" stop-color="#74c044"/>
      <stop offset=".08" stop-color="#6cbb43"/>
      <stop offset=".19" stop-color="#57ad43"/>
      <stop offset=".33" stop-color="#359741"/>
      <stop offset=".49" stop-color="#067840"/>
      <stop offset=".51" stop-color="#007440"/>
      <stop offset=".63" stop-color="#027540"/>
      <stop offset=".72" stop-color="#0c7c40"/>
      <stop offset=".79" stop-color="#1c8640"/>
      <stop offset=".87" stop-color="#339541"/>
      <stop offset=".93" stop-color="#50a842"/>
      <stop offset="1" stop-color="#73bf43"/>
      <stop offset="1" stop-color="#74c044"/>
    </linearGradient>
    <linearGradient id="linear-gradient-2" x1="6.19" y1="41.42" x2="142.88" y2="-.58" xlink:href="#linear-gradient"/>
    <linearGradient id="linear-gradient-3" x1="7.16" y1="44.6" x2="143.86" y2="2.6" xlink:href="#linear-gradient"/>
    <linearGradient id="linear-gradient-4" x1="7.86" y1="46.87" x2="144.56" y2="4.87" xlink:href="#linear-gradient"/>
    <linearGradient id="linear-gradient-5" x1="9.14" y1="51.05" x2="145.84" y2="9.05" xlink:href="#linear-gradient"/>
    <linearGradient id="linear-gradient-6" x1="9.78" y1="53.12" x2="146.48" y2="11.12" xlink:href="#linear-gradient"/>
    <linearGradient id="linear-gradient-7" x1="10.09" y1="54.12" x2="146.78" y2="12.12" xlink:href="#linear-gradient"/>
    <linearGradient id="linear-gradient-8" x1="11.27" y1="57.99" x2="147.97" y2="15.99" xlink:href="#linear-gradient"/>
    <linearGradient id="linear-gradient-9" x1="12.49" y1="61.95" x2="149.19" y2="19.95" xlink:href="#linear-gradient"/>
    <linearGradient id="linear-gradient-10" x1="5.29" y1="38.51" x2="141.99" y2="-3.49" xlink:href="#linear-gradient"/>
    <linearGradient id="linear-gradient-11" x1="-2.43" y1="13.38" x2="134.26" y2="-28.62" xlink:href="#linear-gradient"/>
    <linearGradient id="linear-gradient-12" x1="3.14" y1="31.51" x2="139.83" y2="-10.49" xlink:href="#linear-gradient"/>
  </defs>
  <g id="Layer_1-2" data-name="Layer 1">
    <g>
      <g>
        <path class="cls-2" d="m63.99,15.12c-.21-1.01-.6-1.78-1.16-2.32-.56-.54-1.3-.81-2.22-.81-.51,0-.99.08-1.43.25-.44.17-.83.45-1.16.86-.33.4-.59.94-.78,1.61-.19.67-.28,1.51-.28,2.52,0,.63.07,1.24.2,1.84.13.59.35,1.12.64,1.57.29.45.67.82,1.13,1.09.46.27,1.02.41,1.69.41.77,0,1.47-.2,2.13-.61.65-.4,1.18-1,1.58-1.77l.58.45c-.52.92-1.16,1.6-1.91,2.03-.75.43-1.71.65-2.88.65-.88,0-1.66-.14-2.34-.43-.68-.29-1.26-.69-1.72-1.2-.47-.51-.82-1.11-1.06-1.8-.24-.69-.37-1.43-.37-2.23,0-.84.14-1.63.42-2.35.28-.73.66-1.36,1.15-1.9.49-.54,1.07-.96,1.74-1.27s1.4-.47,2.19-.47c1.04,0,1.88.14,2.52.41.64.27,1.11.58,1.42.94.22.29.35.66.38,1.11.03.45.05.93.05,1.41h-.5Z"/>
        <path class="cls-7" d="m79.48,14.57c1.09,0,1.93.29,2.52.87.59.58.89,1.45.89,2.63v4.49h-1.41l-.58-.75h-.08c-.12.18-.28.33-.47.47-.16.12-.36.23-.62.32-.25.09-.56.13-.91.13-.92,0-1.62-.21-2.1-.62-.48-.42-.72-.96-.72-1.62,0-.4.07-.75.2-1.06.13-.31.37-.57.71-.78.34-.22.8-.38,1.37-.49.58-.11,1.31-.17,2.21-.17h.25c0-1-.14-1.69-.42-2.08-.28-.39-.67-.58-1.16-.58-.19,0-.37.02-.54.06-.17.04-.33.11-.47.22-.14.11-.27.26-.38.46-.11.19-.2.45-.27.76h-.92c0-.29.02-.58.06-.88.04-.3.16-.56.36-.78.2-.22.53-.37.99-.46.46-.08.96-.12,1.51-.12Zm1.25,4.16h-.25c-.8,0-1.37.15-1.72.44s-.52.73-.52,1.33c0,.47.1.83.29,1.07.19.24.46.36.79.36.25,0,.47-.06.64-.17s.32-.24.44-.37c.13-.16.24-.34.33-.55v-2.1Z"/>
        <path class="cls-9" d="m90.07,14.57c.58,0,1.08.11,1.52.32.44.21.8.5,1.1.87.29.37.51.8.66,1.3.14.5.22,1.03.22,1.6s-.07,1.1-.22,1.6c-.14.5-.37.93-.67,1.3-.3.37-.67.65-1.12.87-.45.21-.97.32-1.57.32-.28,0-.52-.03-.73-.07-.21-.05-.39-.11-.55-.17-.18-.07-.33-.15-.47-.25v3.49h-2.16v-8.82c0-.24-.01-.47-.04-.67-.03-.2-.08-.38-.16-.53-.08-.15-.19-.26-.35-.34-.16-.08-.36-.12-.6-.12h-.17v-.5h1.65c.38,0,.67.05.89.15.22.1.38.28.51.55.1-.09.22-.18.36-.28.14-.1.3-.19.48-.28.18-.09.39-.16.63-.22.24-.06.5-.08.79-.08Zm-.33.75c-.42,0-.76.08-1.01.23-.25.16-.45.31-.6.45.01.08.03.16.05.23.02.08.04.16.05.25.01.09.02.19.02.32v4.67c.12.1.25.18.4.25.12.07.27.12.44.17.17.05.36.07.57.07.31,0,.57-.08.78-.25.21-.17.38-.4.52-.7.13-.3.23-.65.28-1.06s.08-.85.08-1.32-.03-.92-.08-1.32c-.06-.4-.15-.76-.27-1.06-.13-.3-.29-.53-.49-.7-.2-.17-.44-.25-.73-.25Z"/>
        <path class="cls-13" d="m95.75,18.64c0-.57.09-1.1.27-1.6.18-.5.45-.93.79-1.3s.76-.65,1.26-.87c.49-.21,1.05-.32,1.67-.32s1.18.11,1.67.32.91.5,1.26.87c.34.37.61.8.79,1.3.18.5.27,1.03.27,1.6s-.09,1.1-.27,1.6c-.18.5-.45.93-.79,1.3-.34.37-.76.65-1.26.87-.49.21-1.05.32-1.67.32s-1.18-.11-1.67-.32c-.49-.21-.91-.5-1.26-.87s-.61-.8-.79-1.3c-.18-.5-.27-1.03-.27-1.6Zm5.74,0c0-.48-.04-.92-.11-1.32-.07-.4-.18-.76-.32-1.06-.14-.3-.33-.53-.55-.7s-.48-.25-.77-.25-.54.08-.76.25c-.22.17-.41.4-.55.7-.14.3-.25.65-.32,1.06-.07.41-.11.85-.11,1.32s.04.92.11,1.32.18.76.32,1.06c.14.3.33.53.55.7.22.17.48.25.76.25s.54-.08.77-.25c.22-.17.4-.4.55-.7.14-.3.25-.65.32-1.06.07-.4.11-.85.11-1.32Z"/>
        <path class="cls-6" d="m107.81,22.55c-.27,0-.5.04-.72.11-.21.07-.39.21-.55.41-.16.2-.28.47-.38.81s-.17.79-.22,1.33h-.83v-2.83c0-.17.06-.3.17-.42s.25-.17.42-.17h.6c.38-.83.64-1.7.78-2.6.14-.9.22-1.72.22-2.48,0-.21-.01-.41-.04-.59-.03-.18-.09-.34-.17-.47-.09-.13-.22-.24-.38-.32-.17-.08-.38-.12-.65-.12v-.5h7.4v7.07h.5c.17,0,.3.06.42.17s.17.25.17.42v2.83h-.83c-.04-.54-.12-.99-.22-1.33-.1-.34-.23-.62-.38-.81-.16-.2-.34-.34-.55-.41-.21-.07-.45-.11-.72-.11h-4.03Zm3.48-.75v-6.32h-2.35c0,.71-.02,1.36-.05,1.95-.03.59-.09,1.14-.16,1.65-.07.5-.17.98-.28,1.43s-.26.88-.42,1.29h3.26Z"/>
        <path class="cls-4" d="m120.48,23.63c-.17.45-.34.83-.53,1.11s-.39.52-.6.68c-.21.17-.44.28-.69.35-.25.07-.52.1-.81.1h-.67v-.58c.29,0,.55-.03.79-.07.24-.05.46-.14.66-.26.2-.12.38-.29.53-.49.16-.21.29-.47.42-.79l.35-.9-2.99-6.55c-.37-.81-.88-1.25-1.55-1.33v-.33h1.46c.5,0,.94.12,1.31.36.38.24.66.56.85.97l1.91,4.19,2.03-5.36h.88l-3.36,8.9Z"/>
        <path class="cls-8" d="m129.23,14.02c-.33.08-.65.2-.94.37-.29.17-.55.39-.78.66s-.41.6-.55.99c-.14.39-.22.84-.24,1.36h.08c.25-.67.62-1.19,1.09-1.58.47-.39,1.11-.58,1.9-.58.5,0,.96.07,1.39.22.43.15.8.38,1.11.68s.55.69.73,1.16c.18.47.27,1.03.27,1.67,0,1.29-.35,2.23-1.04,2.84-.69.6-1.62.91-2.79.91s-2.09-.36-2.79-1.08c-.69-.72-1.04-1.75-1.04-3.08v-.5c0-1.06.07-1.94.21-2.63.14-.69.34-1.24.6-1.66.26-.42.57-.74.93-.95s.76-.37,1.19-.47l2.31-.53c.47-.11.83-.22,1.11-.34s.43-.28.47-.49h.5v1.33c0,.21-.06.42-.19.63-.13.21-.4.36-.81.45l-2.73.62Zm.23,1.96c-.17,0-.34.05-.52.14-.18.09-.35.26-.52.48-.16.23-.29.54-.39.92-.1.39-.15.87-.15,1.45s.05,1.09.15,1.48c.1.39.23.7.39.92.16.23.33.38.52.47.18.08.36.12.52.12s.34-.04.52-.12c.18-.08.35-.24.52-.47.16-.23.29-.53.39-.92.1-.39.15-.88.15-1.48s-.05-1.06-.15-1.45c-.1-.39-.23-.7-.39-.92-.16-.23-.33-.39-.52-.48-.18-.09-.36-.14-.52-.14Z"/>
        <path class="cls-11" d="m139.64,21.97c.58,0,1.05-.13,1.41-.4.36-.27.68-.59.97-.98l.52.38c-.12.19-.27.39-.44.59s-.38.39-.63.57-.54.31-.88.42c-.34.11-.73.17-1.19.17-.59,0-1.12-.1-1.59-.31-.47-.21-.87-.49-1.21-.86-.33-.37-.59-.8-.77-1.29-.18-.49-.27-1.03-.27-1.62,0-.67.09-1.25.28-1.76.19-.51.45-.93.77-1.27.33-.34.71-.6,1.16-.77.44-.18.93-.27,1.45-.27s1,.08,1.45.24.83.39,1.16.67.58.64.77,1.05c.19.41.28.87.28,1.36,0,.12,0,.25,0,.37,0,.13-.01.24-.03.34-.01.12-.02.23-.03.33h-5.01c0,1.1.17,1.88.51,2.34.34.46.78.69,1.32.69Zm1-3.78c0-.55-.04-1.01-.11-1.38-.07-.37-.17-.66-.29-.88-.12-.22-.27-.38-.44-.47s-.36-.14-.57-.14c-.19,0-.37.05-.54.14s-.32.25-.45.47c-.13.22-.23.52-.31.88-.08.37-.12.83-.12,1.38h2.83Z"/>
        <path class="cls-10" d="m145.73,22.55v-5.66c0-.5-.07-.9-.21-1.21s-.46-.46-.96-.46h-.17v-.5h2c.29,0,.53.04.72.11s.35.19.47.36.2.39.24.67.07.62.07,1.03v4.91h2.66v-7.07h2.16v7.07h.5c.17,0,.31.06.42.17.11.11.17.25.17.42v2.83h-.75c-.04-.54-.12-.99-.22-1.33s-.23-.62-.38-.81c-.16-.2-.34-.34-.55-.41-.21-.07-.45-.11-.72-.11h-5.46Z"/>
        <path class="cls-12" d="m74.61,16.06c0-.17-.02-.33-.06-.49s-.1-.3-.19-.42c-.09-.12-.21-.22-.37-.3s-.37-.12-.62-.12h-5.01c-.26,0-.46.04-.62.12s-.29.18-.37.3c-.09.12-.15.26-.19.42s-.06.32-.06.49v.69h.53c.06-.39.18-.68.38-.87.28-.27.67-.4,1.16-.4h.5v7.07h2.16v-7.07h.69c.5,0,.89.13,1.16.4.2.19.33.49.38.87h.53v-.69Z"/>
      </g>
      <g>
        <path class="cls-3" d="m58.1,33.48c-.3.25-.72.38-1.26.4v.34h-.55v-.34c-.55-.03-.97-.16-1.26-.41-.3-.24-.45-.58-.45-1s.15-.76.45-1.01c.3-.24.72-.38,1.26-.41v-.33h.55v.33c.55.03.97.16,1.26.41.3.25.44.58.44,1.01s-.15.76-.44,1.01Zm-2.65-.35c.19.16.47.25.83.28v-1.88c-.75.06-1.12.37-1.12.94,0,.28.1.5.29.66Zm2.23,0c.19-.16.29-.38.29-.66s-.1-.5-.29-.66c-.19-.16-.47-.25-.84-.27v1.88c.37-.03.65-.12.84-.28Z"/>
        <path class="cls-3" d="m62.43,33.59v.5h-2.43v-3.23h2.36v.5h-1.76v.84h1.56v.49h-1.56v.89h1.83Z"/>
        <path class="cls-3" d="m66,30.99c.21.09.37.22.48.4.11.17.17.38.17.61s-.06.44-.17.61c-.11.17-.27.31-.48.4-.21.09-.45.14-.73.14h-.73v.93h-.6v-3.23h1.33c.28,0,.52.05.73.14Zm-.16,1.49c.14-.11.2-.27.2-.48s-.07-.37-.2-.48c-.14-.11-.33-.17-.6-.17h-.7v1.28h.7c.26,0,.46-.06.6-.17Z"/>
        <path class="cls-3" d="m71.01,34.09v-2.14s-1.07,1.77-1.07,1.77h-.27l-1.06-1.75v2.12h-.57v-3.23h.49l1.28,2.14,1.27-2.14h.49v3.23s-.56,0-.56,0Z"/>
        <path class="cls-3" d="m75.75,33.59v.5h-2.43v-3.23h2.36v.5h-1.76v.84h1.56v.49h-1.56v.89h1.83Z"/>
        <path class="cls-3" d="m79.32,30.99c.21.09.37.22.48.4.11.17.17.38.17.61s-.06.44-.17.61c-.11.17-.27.31-.48.4-.21.09-.45.14-.73.14h-.73v.93h-.6v-3.23h1.33c.28,0,.52.05.73.14Zm-.16,1.49c.14-.11.2-.27.2-.48s-.07-.37-.2-.48c-.14-.11-.33-.17-.6-.17h-.7v1.28h.7c.26,0,.46-.06.6-.17Z"/>
        <path class="cls-3" d="m82.01,33.92c-.26-.14-.47-.34-.62-.59-.15-.25-.22-.54-.22-.85s.08-.6.23-.85c.15-.25.36-.45.62-.59.26-.14.56-.22.88-.22.26,0,.51.05.73.14.22.09.4.23.55.4l-.39.37c-.23-.25-.52-.38-.86-.38-.22,0-.42.05-.6.15-.18.1-.31.23-.41.4-.1.17-.15.37-.15.59s.05.41.15.59c.1.17.24.31.41.4.18.1.37.15.6.15.34,0,.63-.13.86-.38l.39.37c-.15.18-.34.31-.56.4-.22.09-.46.14-.73.14-.33,0-.62-.07-.88-.22Z"/>
        <path class="cls-3" d="m86.76,32.73h-.6v1.36h-.59v-3.23h.59v1.35h.62l.93-1.35h.64l-1.1,1.57,1.15,1.67h-.68l-.95-1.36Z"/>
        <path class="cls-3" d="m90.23,33.92c-.26-.14-.47-.34-.62-.6-.15-.25-.23-.54-.23-.85s.08-.6.23-.85c.15-.25.36-.45.62-.6.26-.14.56-.22.89-.22s.63.07.89.22c.26.14.47.34.62.59.15.25.23.54.23.85s-.08.6-.23.85c-.15.25-.36.45-.62.59-.27.14-.56.22-.89.22s-.63-.07-.89-.22Zm1.47-.46c.17-.1.31-.23.41-.41.1-.17.15-.37.15-.58s-.05-.41-.15-.58c-.1-.17-.23-.31-.41-.41-.17-.1-.37-.15-.58-.15s-.41.05-.58.15-.31.23-.41.41c-.1.17-.15.37-.15.58s.05.41.15.58c.1.17.23.31.41.41s.37.15.58.15.41-.05.58-.15Z"/>
        <path class="cls-3" d="m96.78,33.59v.5h-2.43v-3.23h2.36v.5h-1.76v.84h1.56v.49h-1.56v.89h1.83Z"/>
        <path class="cls-3" d="m100.77,30.86l.76,1.08.76-1.08h.7l-1.09,1.55,1.17,1.68h-.71l-.84-1.18-.84,1.18h-.69l1.17-1.66-1.1-1.58h.69Z"/>
        <path class="cls-3" d="m104.91,33.92c-.26-.14-.47-.34-.62-.6-.15-.25-.23-.54-.23-.85s.08-.6.23-.85c.15-.25.36-.45.62-.6.26-.14.56-.22.89-.22s.63.07.89.22c.26.14.47.34.62.59.15.25.23.54.23.85s-.08.6-.23.85c-.15.25-.36.45-.62.59-.27.14-.56.22-.89.22s-.63-.07-.89-.22Zm1.47-.46c.17-.1.31-.23.41-.41.1-.17.15-.37.15-.58s-.05-.41-.15-.58c-.1-.17-.23-.31-.41-.41-.17-.1-.37-.15-.58-.15s-.41.05-.58.15-.31.23-.41.41c-.1.17-.15.37-.15.58s.05.41.15.58c.1.17.23.31.41.41s.37.15.58.15.41-.05.58-.15Z"/>
        <path class="cls-3" d="m111.11,32.7c.11.14.16.3.16.48,0,.19-.06.36-.19.51-.13.14-.3.25-.51.33-.21.08-.44.12-.69.12-.22,0-.43-.03-.65-.09-.22-.06-.42-.15-.6-.27l.19-.44c.14.1.3.17.47.22.17.05.34.08.51.08.24,0,.45-.05.61-.14.16-.1.24-.23.24-.39,0-.14-.06-.25-.18-.32-.12-.07-.28-.11-.49-.11h-.75v-.47h.71c.18,0,.32-.04.42-.11.1-.07.15-.17.15-.3,0-.15-.07-.27-.21-.35-.14-.08-.31-.12-.52-.12-.14,0-.29.02-.45.06s-.3.1-.43.18l-.19-.49c.17-.09.34-.16.53-.2s.37-.07.56-.07c.24,0,.46.04.66.11.2.07.36.18.48.32.12.14.18.3.18.48,0,.16-.04.3-.13.42s-.2.21-.36.28c.19.06.35.16.45.3Z"/>
        <path class="cls-3" d="m115.21,30.86v3.23h-.59v-.9h-.86l-.6.9h-.63l.69-1c-.22-.08-.4-.21-.52-.4-.12-.18-.18-.4-.18-.65s.06-.46.17-.64c.11-.18.27-.31.47-.41.2-.09.44-.14.72-.14h1.34Zm-1.89.68c-.13.11-.2.28-.2.5s.06.38.19.49.31.17.55.17h.76v-1.34h-.73c-.25,0-.43.06-.57.17Z"/>
        <path class="cls-3" d="m116.95,30.86h.59v2.3l1.74-2.3h.56v3.23h-.59v-2.29l-1.74,2.29h-.56v-3.23Zm.81-.39c-.14-.11-.21-.28-.21-.5h.42c0,.11.04.2.11.26s.17.09.31.09.24-.03.31-.09c.08-.06.11-.15.12-.26h.42c0,.22-.08.38-.22.5-.14.12-.35.17-.63.17s-.49-.06-.63-.17Z"/>
        <path class="cls-3" d="m122.18,33.92c-.26-.14-.47-.34-.62-.59-.15-.25-.22-.54-.22-.85s.08-.6.23-.85c.15-.25.36-.45.62-.59.26-.14.56-.22.88-.22.26,0,.51.05.73.14.22.09.4.23.55.4l-.39.37c-.23-.25-.52-.38-.86-.38-.22,0-.42.05-.6.15-.18.1-.31.23-.41.4-.1.17-.15.37-.15.59s.05.41.15.59c.1.17.24.31.41.4.18.1.37.15.6.15.34,0,.63-.13.86-.38l.39.37c-.15.18-.34.31-.56.4-.22.09-.46.14-.73.14-.33,0-.62-.07-.88-.22Z"/>
        <path class="cls-3" d="m128.05,31.36h-1.07v2.73h-.6v-2.73h-1.07v-.51h2.74v.51Z"/>
        <path class="cls-3" d="m132,32.69c.11.13.16.3.16.5,0,.28-.1.5-.31.66-.21.16-.51.24-.91.24h-1.53v-3.23h1.45c.36,0,.65.07.85.22.2.14.31.35.31.61,0,.17-.04.32-.12.44-.08.12-.2.22-.35.28.21.06.36.15.47.28Zm-2.01-.46h.8c.19,0,.34-.04.44-.12.1-.08.15-.19.15-.34s-.05-.27-.15-.34c-.1-.08-.25-.12-.44-.12h-.8v.92Zm1.56.91c0-.31-.21-.47-.64-.47h-.92v.95h.92c.43,0,.64-.16.64-.48Z"/>
        <path class="cls-3" d="m134.28,33.92c-.26-.14-.47-.34-.62-.6-.15-.25-.23-.54-.23-.85s.08-.6.23-.85c.15-.25.36-.45.62-.6.26-.14.56-.22.89-.22s.63.07.89.22c.26.14.47.34.62.59.15.25.23.54.23.85s-.08.6-.23.85c-.15.25-.36.45-.62.59-.27.14-.56.22-.89.22s-.63-.07-.89-.22Zm1.47-.46c.17-.1.31-.23.41-.41.1-.17.15-.37.15-.58s-.05-.41-.15-.58c-.1-.17-.23-.31-.41-.41-.17-.1-.37-.15-.58-.15s-.41.05-.58.15-.31.23-.41.41c-.1.17-.15.37-.15.58s.05.41.15.58c.1.17.23.31.41.41s.37.15.58.15.41-.05.58-.15Z"/>
      </g>
      <g>
        <path class="cls-5" d="m22.33,2.83c4.58.17,9.23,1.48,12.54,4.57,1.97,1.84,3.7-.42,3.7-.42C34.27,2.77,27.91-.17,21.87,0c-5.53.16-10.51,2.11-14.24,5.96-1.32,1.41-3.95,4.77-4.36,10.32C5.47,6.6,15.27,2.57,22.33,2.83Z"/>
        <path class="cls-1" d="m39.6,36.66c-.72-.75-1.94-1.78-3.61-2.31-4.95-1.3-8.86,1.84-12.09,3.19-7.63,3.39-13.04,1.87-15.39-.27-.54-.51-1.05-1.06-1.52-1.63,2.79,1.26,6.95,1.64,9.95,1.14,5.29-.89,8.87-3.88,12.45-4.99h0s.03,0,.08-.02c.73-.22,1.47-.36,2.22-.39,1.57-.13,3.74,0,5.91,1.09-.11-.14-.22-.27-.33-.38-1.7-1.65-3.9-3.22-10.47-2.21-.97.15-1.85-.64-2.04-1.61-.11-.57-.3-2.85-.27-3.09.14-1.26.67-2.36,1.51-3.29.18-.2.45-.4.7-.44.71-.11,1.43-.21,2.13-.16.53.04,1.1.17,1.2.95.05.36.17.93.84.85.11-.01.26.22.36.36.35.47.57.44.85-.07.1-.18.25-.51.46-.44.75.22-.21,1.02.42,1.12.47.07.98-.16,1.33-.07.47.12.75.54,1.14.68.31.12.68.1,1.03.08.32-.02.64-.11.96-.18.17-.04.32-.14.49-.15.64-.03.95-.33.9-.96-.04-.45.05-.79.39-1.14.2-.2.24-.71.14-1-.17-.5-.91-.88-.78-1.42.38-1.63-.26-.84-.63-1.99-.09-.3.11-.67.3-.91.59-.74.37-1.5-.57-1.67-.4-.07-.64-.24-.77-.66-.17-.56-.79-1.12-1.18-.69-.66.73-.05,1.29-1.03,1.2.53-.59.57-1.06-.02-1.57-.24-.2-.25-.67-.36-1.02-.08-.26-.08-.61-.26-.78-.4-.39-.87-.73-1.34-1.04-.61-.4-1-1.05-1.67-1.42-.42-.23-.75-.51-1.2-.25-.37.22-.47.03-.66-.23-1.12-1.53-3.29-.94-3.47-1.55-.16-.52-.71-.79-1.25-.64-.59.17-1.12.56-1.8.39-.11-.03-.8-.48-2.15.08-.4.17-.64.41-1.12.4-.44-.01-1.34-.24-1.79.36-.4.52-.98.77-1.65.83-.2.02-1.27.06-1.65.74-.28.5-.75.58-1.26.57-.22,0-.45-.02-.64.05-.32.11-.71.22-.9.46-.41.52-.73,1.11-1.05,1.69-.11.21-.19.51-.14.73.13.61-.02.86-.63,1.06-.22.07-.5.29-.55.49-.4,1.7-2.34.41-1.97,2.03.09.37-.75.51-.88,1.14-.1.46.17.76.55,1.06.22.17.34.57.38.88.03.26-.12.55-.22.92-.33.16-.73.44-.49,1.02.27.65.81.44,1.36.28-.24.79-.87.58-1.27.78-.27.14.04.55.03.78-.01.4-.3.62-.09.89.19.24.72.31,1.08.27.43-.04.86-.23,1.28-.41.37-.15.8-.01,1.01.32.4.62,1.32.91,1.22.15-.07-.56-.66-1.47.08-1.37.7.1.54.85,1.13.56.21-.1.58.01.83.13.51.23.9.03,1.09-.49.16-.46.2-.75.69-.84,1.15-.23,1.94.15,2.86.36.29.06.56.18.8.36.49.36.92.8,1.43,1.13.37.24.45.92.49,1.58.03.42-.09,1.44-.17,1.84-.02.1-.08.38-.21.72-.71,1.94-3.49,3.19-4.93,3.38-2.91.37-5.94-.08-8.18-1.75-2.88-2.15-4-4.88-4.52-7.06-1.25-5.16-.17-9.44,1.07-12.38C1.25,14.35-.05,18.57,0,23.07c.15,12.2,10.12,22.08,22.36,22.08,6.72,0,13.01-2.98,17.28-8.17l.05-.05s-.03-.11-.08-.26Zm-4.15-16.19c.14-.1.5-.45.2-.74-.31-.31-.02-1.01.27-1.08.54-.14.51,1.41.12,1.91-.25.32-1.15,1.14-1.26.57-.06-.3.32-.4.67-.65Zm-26.5-1.21c-.26-.25.13-.78.14-1.21,0-.42-.17-1.07.03-1.26.27-.27.47-.3,1.06-.11.45.59-.53.44-.64.83-.06.22.18.32.19.54,0,.17-.19.23-.19.4,0,.45.58.31.53.82-.04.44-.81.29-1.12-.01Zm1.32,2.47c-.12-.24-.37-1.16.2-1.08.37.05.03.55.2.88.18.35.64.3.59.64-.09.63-.89-.23-1-.44Zm1.45-6.58c.16.65-.05.8-.26.8-.21,0-.28-.46-.22-.62.09-.22.55-1.2.89-.95.24.17-.5.38-.41.76Zm13.36,6.08c-.17.09-.34.2-.57.33-.05-.56.04-.93.43-1.31.44-.42.8-.96,1.06-1.51.32-.68,1.43-1.51,2.19-1.47.07,0,.15.04.21.08q.98.69,2.05.61c-.05.03-.1.07-.16.09-2.09.48-3.42,2.21-5.22,3.18Zm6.59-.76c-.15.09.12.52-.46.42-.58-.1-.96-.12-1.11.02-.15.13-1.56-.85-2.41-.66,0,0,1.71-1.65,2.76-1.71,0,0-.14.96.55,1.09.69.13.82.75.67.84Zm-1.53-4.86c.38.1.86.62.68,1.01s.17.68,0,.77-.66.11-1.11.11-1.13-.52-1.13-.52c.87-.02,1.06-1.5,1.56-1.37Zm-2.75-3.87c.57.18.69,1.14.3.96-.23-.11-.04-.57-.51-.51-.17.02-.21-.5-.47-.31-.2.15-.46,0-.46-.21,0-.29.9-.01,1.14.06Zm-1.94,3.96c0,.69.14,1.26.8,1.01.67-.25-.09-1.15.69-1.59.98-.55,1.64.83,1.82.36.17-.47.66-1.47,1.04-1.53.57-.08.08.91-.46,1.62-.55.74-.74,1.14-1.73,1.31-.99.17-2.27,1.36-2.99,2.59.21-1.82-.32-4.42.49-4.82.55-.27.33.32.34,1.05Zm-1.52-7.56c.15-.22.55-.24.76-.17.44.15.65,1.11.31.79-.38-.36-.21-.66-.79-.49-.32.09-.34-.05-.28-.13Zm-1.27,5.12c.11-.51.63-.64.93-.53.49.17.48-.22.68-.11.18.1.02.38-.01.45-.23.46-.73.08-1.1.41-.38.34-.19,1.07-.65,1.13-.21.03-.36-.3-.34-.58.02-.29.41-.44.49-.77Zm-1.5,2.49c.29,1,.77,1.29,1.81,1.2.33-.03.82-.16.97.21.09.22-.07,1.03-.11,1.27-.09.58-.07.67-.15.82-.46-.37-.36-1.33-1.7-1.96-1.17-.54-2.2-2.44-1.14-2.56.36-.04.22.69.32,1.03Zm-1.09-3.22c.04-.18.28-.82.63-.67.47.19-.39.38-.3,1.33.03.33-.47-.06-.33-.66Zm.06,5.75c.41-.28.33-.65.63-.75.27-.1.54.08.85.25,1.15.77,1.62,1.54,1.14,2.86-.11.3-.19.92-.41,1.04-.14.08-.39.05-.58-.12-.38-.34-.76-.76-1.04-1.17-1.25-1.78-2.54-1.06-3.63-1.66-.96-.52-1.36-2.34-.39-2.28.57.04.08.79.28,1.29.09.21.45.56.69.56.2,0,.6-.07.7-.29.35-.75.47-.45.41.03-.05.35.26.46.38.47.25.01.73-.09.96-.25Zm-2.51-8.26c.43-.44,1.96-.07,1.45.55-.5.62-1.53-.35-1.82.47-.08.22-.49,1.17-.83.77-.51-.59.72-1.31,1.2-1.79Zm-1.81,3.81c.36-.34,1.72.13,1.12.22-1.2.19-.28.55-.94.93-.57.33-.55-.8-.18-1.15Zm-2.68,3.78c.24-.68,2.77.02,2.77,1.09,0,.32-.97-.86-1.75-.55-.37.15-1.3.27-1.02-.54Zm2.87,4.24c-1.06-.18-1.84-.44-2.88-.34,0-.06-.45-.62,1.43-.4.15.02.37-.16.38-.26.17-1.49.17-1.49,1.67-1.31.08,0,.15.04.26.08-.14.56-1.16.53-.87,1.31.1.27.65.73,1.24.98-.02.06-.78.02-1.22-.05Zm4.28.75c-.43,0-.88-.16-1.25-.38-.63-.37-1.19-.85-1.8-1.26-.36-.24-.48-.45-.03-.71.41-.24.51-.49.36-.81.2.05.47.08.84.11.87.07,2.34,1.9,2.23,2.75-.02.12.06.3-.35.3Zm2.23,20.28c-2.81,0-4.97-.1-6.9-.85,1.97.33,5.73-.25,10.03-2.33,3.25-1.57,7.67-5.04,11.55-2.96-3.75,3.77-9.29,6.14-14.67,6.14Z"/>
      </g>
    </g>
  </g>
</svg>