<svg width="260" height="130" viewBox="0 0 260 130" fill="none" xmlns="http://www.w3.org/2000/svg">
<g clip-path="url(#clip0_3944_8547)">
<path d="M47.7556 90.1127C47.8555 87.0084 50.4619 84.5738 53.5767 84.6734C56.6916 84.7729 59.1344 87.3704 59.0346 90.4792C58.9347 93.5835 56.3283 96.018 53.2135 95.9185C50.0986 95.8189 47.6557 93.2215 47.7556 90.1172" fill="#134A96"/>
<path d="M46.1392 82.465L58.8892 69.7266L79.6898 90.3796L73.0741 97L60.3104 84.3249C57.2637 81.3066 53.495 80.9989 49.5537 81.5147C48.8 81.6143 47.9963 81.7681 46.1392 82.4605" fill="#134A96"/>
<path d="M79.4537 39.8874C79.3538 42.9917 76.7475 45.4263 73.6327 45.3267C70.5178 45.2271 68.0749 42.6297 68.1748 39.5209C68.2747 36.4166 70.881 33.982 73.9959 34.0816C77.1108 34.1811 79.5536 36.7786 79.4537 39.8829" fill="#134A96"/>
<path d="M83.8399 74.6862L82.0645 72.9214C80.5071 71.3738 80.5071 68.8577 82.06 67.3056L91.3047 58.0334L91.2911 46.5439L72.9833 64.8484C71.4304 66.4006 71.4304 68.9166 72.9833 70.4642L80.557 77.9489L77.3922 81.0577L83.1724 86.8092L91.2865 78.7725V67.2739L83.8354 74.6862H83.8399Z" fill="#C02026"/>
<path d="M46.7295 52.0058L50.1486 48.6029L44.2957 42.7744L36 51.0239V62.6627L43.4512 55.264L45.2265 57.0288C46.784 58.581 46.784 61.0925 45.2311 62.6446L36 71.8851V83.3746L54.3033 65.1063C55.8607 63.5542 55.8561 61.0382 54.3033 59.4905L46.7295 52.0058Z" fill="#C02026"/>
<path d="M81.0704 47.535L68.3203 60.2734L47.5151 39.6204L54.1354 33L66.8991 45.6751C69.8823 48.4988 73.7145 49.0011 77.6558 48.4853C78.4095 48.3857 79.2132 48.2318 81.0704 47.5395" fill="#134A96"/>
<path d="M109.935 78.9761H115.252V75.8854H109.935V78.9761ZM115.252 84.9177V81.6641H112.006L109.903 84.9177H106.643L108.745 81.6641H106.975V73.1838H118.403V84.9132H115.248L115.252 84.9177Z" fill="#134A96"/>
<path d="M134.781 84.9177V80.4015H128.851V84.9177H125.691V73.1884H128.851V77.709H134.781V73.1884H137.937V84.9177H134.781Z" fill="#134A96"/>
<path d="M148.499 78.8132H154.311V75.8854H148.499V78.8132ZM154.311 84.9177V81.5102H148.499V84.9177H145.343V73.1884H157.466V84.9177H154.311Z" fill="#134A96"/>
<path d="M168.218 75.8718H173.84V82.2433H168.218V75.8718ZM165.063 84.9177H177V73.1884H165.063V84.9177Z" fill="#134A96"/>
<path d="M107.342 49.0735H109.771V49.8699H110.466V48.4218H109.971V45.1094H107.451V45.7927C107.451 46.1275 107.438 46.4353 107.415 46.7203C107.392 47.0054 107.356 47.2679 107.306 47.5168C107.256 47.7657 107.197 47.9874 107.124 48.1956C107.097 48.277 107.065 48.3494 107.033 48.4218H106.647V49.8699H107.342V49.0735ZM107.864 48.2046C107.942 47.9784 108.005 47.743 108.051 47.4896C108.096 47.2362 108.132 46.9738 108.155 46.6887C108.178 46.4036 108.191 46.1049 108.191 45.7882V45.761H109.213V48.4218H107.774C107.805 48.3494 107.842 48.2815 107.869 48.2046H107.864Z" fill="#414042"/>
<path d="M113.762 48.4218H112.25V47.3086H113.454V46.666H112.25V45.761H113.708V45.1094H111.492V49.078H113.762V48.4218Z" fill="#414042"/>
<path d="M114.866 49.078H115.629V45.761H117.232V49.078H117.999V45.1094H114.866V49.078Z" fill="#414042"/>
<path d="M119.992 48.2047H121.523L121.859 49.078H122.667L121.059 45.0823H120.492L118.907 49.078H119.666L119.997 48.2047H119.992ZM120.755 46.2045L121.287 47.5847H120.229L120.755 46.2045Z" fill="#414042"/>
<path d="M126.199 46.3448C126.199 46.1502 126.167 45.9782 126.099 45.8244C126.031 45.6705 125.936 45.5438 125.813 45.4397C125.691 45.3311 125.541 45.2542 125.368 45.1954C125.196 45.1365 124.996 45.1094 124.778 45.1094H123.579V49.0735H124.342V47.6299H124.746C124.969 47.6299 125.173 47.5982 125.35 47.5349C125.532 47.4715 125.686 47.3856 125.813 47.2724C125.94 47.1593 126.036 47.0281 126.104 46.8697C126.172 46.7113 126.204 46.5348 126.204 46.3402L126.199 46.3448ZM125.382 46.6072C125.35 46.6796 125.309 46.743 125.25 46.8018C125.191 46.8561 125.119 46.9014 125.028 46.933C124.937 46.9647 124.828 46.9783 124.705 46.9783H124.347V45.7655H124.701C124.828 45.7655 124.942 45.7836 125.032 45.8153C125.123 45.847 125.2 45.8922 125.259 45.9465C125.318 46.0008 125.364 46.0642 125.391 46.1366C125.418 46.209 125.432 46.2905 125.432 46.3719C125.432 46.4579 125.418 46.5393 125.387 46.6117L125.382 46.6072Z" fill="#414042"/>
<path d="M127.825 49.0735H128.592V45.761H129.537V45.1094H126.876V45.761H127.825V49.0735Z" fill="#414042"/>
<path d="M132.506 48.2047L132.842 49.078H133.651L132.043 45.0823H131.476L129.891 49.078H130.649L130.981 48.2047H132.511H132.506ZM131.739 46.2045L132.27 47.5847H131.212L131.739 46.2045Z" fill="#414042"/>
<path d="M138.273 45.1094H137.66L136.597 47.7792L135.48 45.1094H134.858L134.35 49.078H135.067L135.39 46.5755L136.434 49.0825H136.72L137.746 46.5574L138.105 49.078H138.841L138.273 45.1094Z" fill="#414042"/>
<path d="M142.241 48.4218H140.729V47.3086H141.928V46.666H140.729V45.761H142.187V45.1094H139.967V49.078H142.241V48.4218Z" fill="#414042"/>
<path d="M146.591 49.0735V45.1094H145.828V46.6615H144.108V45.1094H143.345V49.0735H144.108V47.3177H145.828V49.0735H146.591Z" fill="#414042"/>
<path d="M149.275 49.0735V45.761H150.219V45.1094H147.559V45.761H148.508V49.0735H149.275Z" fill="#414042"/>
<path d="M107.41 54.1688H108.836V53.5172H106.647V57.4858H107.41V54.1688Z" fill="#414042"/>
<path d="M111.533 57.5312C111.851 57.5312 112.137 57.4814 112.396 57.3773C112.655 57.2732 112.873 57.1284 113.054 56.9519C113.236 56.7709 113.377 56.5537 113.476 56.3094C113.576 56.0605 113.626 55.7935 113.626 55.5084C113.626 55.2233 113.576 54.9337 113.476 54.6848C113.377 54.4314 113.231 54.2187 113.05 54.0377C112.868 53.8612 112.646 53.7209 112.387 53.6169C112.128 53.5173 111.842 53.4675 111.529 53.4675C111.215 53.4675 110.92 53.5218 110.661 53.6259C110.402 53.73 110.18 53.8748 109.998 54.0558C109.817 54.2368 109.676 54.454 109.581 54.7029C109.485 54.9518 109.435 55.2188 109.435 55.5039C109.435 55.789 109.485 56.074 109.581 56.3275C109.676 56.5763 109.817 56.789 110.003 56.9746C110.185 57.1556 110.407 57.2959 110.666 57.3954C110.925 57.495 111.211 57.5402 111.529 57.5402L111.533 57.5312ZM110.321 56.0695C110.257 55.9021 110.225 55.7075 110.225 55.4993C110.225 55.2912 110.257 55.0966 110.325 54.9292C110.393 54.7572 110.484 54.6124 110.598 54.4948C110.711 54.3771 110.852 54.2866 111.011 54.2187C111.174 54.1554 111.347 54.1237 111.533 54.1237C111.719 54.1237 111.896 54.1554 112.055 54.2187C112.214 54.2821 112.35 54.3771 112.473 54.4993C112.591 54.6215 112.682 54.7663 112.745 54.9337C112.809 55.1011 112.841 55.2912 112.841 55.4993C112.841 55.7075 112.809 55.9021 112.741 56.0695C112.673 56.2415 112.582 56.3863 112.468 56.5039C112.35 56.6261 112.214 56.7166 112.055 56.78C111.896 56.8433 111.719 56.875 111.533 56.875C111.347 56.875 111.165 56.8433 111.006 56.7755C110.843 56.7076 110.707 56.6171 110.593 56.4994C110.475 56.3818 110.389 56.237 110.321 56.065V56.0695Z" fill="#414042"/>
<path d="M115.593 57.3817C115.856 57.4813 116.151 57.5311 116.478 57.5311C116.632 57.5311 116.778 57.5175 116.914 57.4949C117.05 57.4722 117.177 57.4406 117.295 57.3998C117.413 57.3591 117.518 57.3093 117.613 57.255C117.704 57.2007 117.786 57.1419 117.863 57.0831L117.536 56.54C117.463 56.5989 117.391 56.6532 117.313 56.6939C117.236 56.7346 117.154 56.7663 117.073 56.7935C116.991 56.8161 116.905 56.8342 116.823 56.8432C116.741 56.8523 116.664 56.8568 116.587 56.8568C116.374 56.8568 116.178 56.8251 116.001 56.7618C115.824 56.6984 115.67 56.6079 115.543 56.4857C115.415 56.3681 115.316 56.2233 115.247 56.0513C115.179 55.8794 115.143 55.6938 115.143 55.4902C115.143 55.2866 115.179 55.1055 115.247 54.9381C115.32 54.7707 115.415 54.6259 115.543 54.5082C115.67 54.3906 115.815 54.3001 115.988 54.2322C116.16 54.1643 116.342 54.1326 116.537 54.1326C116.7 54.1326 116.859 54.1553 117.023 54.2005C117.182 54.2458 117.327 54.3182 117.468 54.4087L117.777 53.8611C117.609 53.7344 117.418 53.6349 117.204 53.5625C116.991 53.4946 116.746 53.4584 116.478 53.4584C116.16 53.4584 115.869 53.5082 115.606 53.6122C115.343 53.7163 115.12 53.8611 114.934 54.0376C114.748 54.2186 114.607 54.4358 114.503 54.6892C114.403 54.9381 114.348 55.2142 114.348 55.5083C114.348 55.8024 114.398 56.0739 114.494 56.3228C114.594 56.5717 114.734 56.7844 114.921 56.9609C115.107 57.1419 115.329 57.2822 115.593 57.3772V57.3817Z" fill="#414042"/>
<path d="M119.684 56.6352C119.647 56.6895 119.611 56.7302 119.57 56.7619C119.529 56.7936 119.484 56.8162 119.438 56.8298C119.388 56.8433 119.339 56.8479 119.28 56.8479C119.248 56.8479 119.22 56.8479 119.193 56.8433C119.166 56.8433 119.139 56.8343 119.112 56.8343V57.5085C119.152 57.5176 119.193 57.5221 119.234 57.5312C119.275 57.5357 119.316 57.5402 119.361 57.5402C119.448 57.5402 119.538 57.5312 119.629 57.5085C119.72 57.4859 119.806 57.4497 119.892 57.3954C119.979 57.3411 120.06 57.2642 120.142 57.1692C120.224 57.0741 120.292 56.9474 120.36 56.7981L121.713 53.644V53.5309H121.009L120.147 55.6034L119.102 53.5309H118.317V53.644L119.784 56.4723C119.756 56.5401 119.724 56.599 119.693 56.6442L119.684 56.6352Z" fill="#414042"/>
<path d="M125.273 53.5172H122.753V54.2005C122.753 54.5354 122.74 54.8431 122.717 55.1282C122.694 55.4133 122.658 55.6757 122.608 55.9246C122.562 56.169 122.499 56.3952 122.426 56.6034C122.399 56.6849 122.367 56.7573 122.335 56.8297H121.949V58.2777H122.644V57.4813H125.073V58.2777H125.768V56.8297H125.273V53.5172ZM123.166 56.6125C123.244 56.3862 123.307 56.1509 123.353 55.8975C123.398 55.6486 123.434 55.3816 123.457 55.0965C123.48 54.8114 123.493 54.5128 123.493 54.196V54.1688H124.515V56.8297H123.076C123.107 56.7573 123.144 56.6894 123.171 56.6125H123.166Z" fill="#414042"/>
<path d="M127.961 53.4901L126.376 57.4859H127.135L127.466 56.6125H128.996L129.332 57.4859H130.141L128.533 53.4901H127.966H127.961ZM127.702 55.9926L128.229 54.6124L128.76 55.9926H127.702Z" fill="#414042"/>
<path d="M133.287 53.8476C133.165 53.7389 133.015 53.662 132.842 53.6032C132.67 53.5444 132.47 53.5172 132.252 53.5172H131.053V57.4813H131.816V56.0378H132.22C132.443 56.0378 132.647 56.0061 132.824 55.9427C133.006 55.8794 133.16 55.7934 133.287 55.6803C133.414 55.5671 133.51 55.4359 133.578 55.2775C133.646 55.1191 133.678 54.9427 133.678 54.7481C133.678 54.5535 133.646 54.3815 133.578 54.2277C133.51 54.0738 133.414 53.9471 133.292 53.843L133.287 53.8476ZM132.851 55.0151C132.82 55.0875 132.779 55.1508 132.72 55.2096C132.661 55.2639 132.588 55.3092 132.497 55.3409C132.406 55.3725 132.297 55.3861 132.175 55.3861H131.816V54.1734H132.17C132.297 54.1734 132.411 54.1915 132.502 54.2231C132.597 54.2548 132.67 54.3001 132.729 54.3544C132.788 54.4087 132.833 54.472 132.86 54.5444C132.888 54.6168 132.901 54.6983 132.901 54.7797C132.901 54.8657 132.888 54.9472 132.856 55.0196L132.851 55.0151Z" fill="#414042"/>
<path d="M137.31 56.6939C137.233 56.7346 137.151 56.7663 137.07 56.7935C136.988 56.8161 136.902 56.8342 136.82 56.8432C136.738 56.8523 136.661 56.8568 136.584 56.8568C136.37 56.8568 136.175 56.8251 135.998 56.7618C135.821 56.6984 135.667 56.6079 135.539 56.4857C135.412 56.3681 135.312 56.2233 135.244 56.0513C135.176 55.8794 135.14 55.6938 135.14 55.4902C135.14 55.2866 135.176 55.1055 135.244 54.9381C135.317 54.7707 135.412 54.6259 135.539 54.5082C135.667 54.3906 135.812 54.3001 135.984 54.2322C136.157 54.1643 136.339 54.1326 136.534 54.1326C136.697 54.1326 136.856 54.1553 137.02 54.2005C137.179 54.2458 137.324 54.3182 137.465 54.4087L137.773 53.8611C137.605 53.7344 137.415 53.6349 137.201 53.5625C136.988 53.4946 136.743 53.4584 136.475 53.4584C136.157 53.4584 135.866 53.5082 135.603 53.6122C135.34 53.7163 135.117 53.8611 134.931 54.0376C134.745 54.2186 134.604 54.4358 134.5 54.6892C134.4 54.9381 134.345 55.2142 134.345 55.5083C134.345 55.8024 134.395 56.0739 134.495 56.3228C134.595 56.5717 134.736 56.7844 134.922 56.9609C135.108 57.1419 135.331 57.2822 135.594 57.3772C135.857 57.4768 136.152 57.5265 136.479 57.5265C136.634 57.5265 136.779 57.513 136.915 57.4903C137.051 57.4677 137.179 57.436 137.297 57.3953C137.415 57.3546 137.519 57.3048 137.61 57.2505C137.705 57.1962 137.787 57.1374 137.86 57.0785L137.533 56.5355C137.46 56.5943 137.387 56.6486 137.31 56.6894V56.6939Z" fill="#414042"/>
<path d="M138.477 54.1688H139.426V57.4858H140.194V54.1688H141.138V53.5172H138.477V54.1688Z" fill="#414042"/>
<path d="M144.575 55.54C144.48 55.454 144.362 55.3861 144.221 55.3363C144.176 55.3182 144.121 55.3092 144.071 55.3001C144.167 55.2549 144.258 55.1961 144.33 55.1237C144.412 55.0467 144.471 54.9517 144.521 54.8431C144.566 54.7345 144.589 54.6033 144.589 54.4584C144.589 54.3227 144.566 54.196 144.516 54.0829C144.466 53.9697 144.394 53.8702 144.289 53.7842C144.189 53.7027 144.067 53.6349 143.917 53.5896C143.772 53.5444 143.599 53.5217 143.399 53.5217H142.096V57.4858H143.445C143.658 57.4858 143.858 57.4541 144.035 57.3953C144.212 57.3365 144.362 57.255 144.489 57.1464C144.616 57.0423 144.712 56.9156 144.78 56.7663C144.848 56.617 144.884 56.4541 144.884 56.2821C144.884 56.1328 144.857 55.9925 144.802 55.8658C144.748 55.7391 144.671 55.6305 144.575 55.5445V55.54ZM143.694 54.2774C143.785 54.3498 143.835 54.463 143.835 54.6168C143.835 54.6983 143.822 54.7707 143.799 54.834C143.776 54.8974 143.735 54.9472 143.685 54.9879C143.635 55.0286 143.572 55.0558 143.499 55.0784C143.427 55.101 143.349 55.1146 143.259 55.1146H142.859V54.1688H143.268C143.458 54.1688 143.599 54.205 143.69 54.2774H143.694ZM144.044 56.4857C144.012 56.5581 143.967 56.617 143.899 56.6713C143.831 56.7211 143.749 56.7618 143.649 56.7889C143.549 56.8161 143.427 56.8297 143.281 56.8297H142.859V55.6938H143.395C143.504 55.6938 143.604 55.7074 143.685 55.73C143.772 55.7527 143.844 55.7889 143.903 55.8341C143.962 55.8794 144.008 55.9382 144.04 56.0061C144.071 56.0739 144.09 56.1554 144.09 56.2459C144.09 56.3364 144.076 56.4133 144.044 56.4857Z" fill="#414042"/>
<path d="M146.732 55.7165H147.931V55.0784H146.732V54.1688H148.19V53.5172H145.974V57.4858H148.244V56.8342H146.732V55.7165Z" fill="#414042"/>
<path d="M151.718 55.0694H149.997V53.5172H149.234V57.4858H149.997V55.73H151.718V57.4858H152.48V53.5172H151.718V55.0694Z" fill="#414042"/>
<path d="M156.181 55.0694H154.46V53.5172H153.698V57.4858H154.46V55.73H156.181V57.4858H156.944V53.5172H156.181V55.0694Z" fill="#414042"/>
<path d="M161.521 54.0332C161.339 53.8567 161.117 53.7164 160.858 53.6123C160.599 53.5128 160.313 53.463 160 53.463C159.686 53.463 159.391 53.5173 159.132 53.6214C158.874 53.7255 158.651 53.8703 158.47 54.0513C158.288 54.2323 158.147 54.4495 158.052 54.6984C157.956 54.9473 157.906 55.2143 157.906 55.4994C157.906 55.7844 157.956 56.0695 158.052 56.3229C158.147 56.5718 158.288 56.7845 158.474 56.97C158.66 57.1511 158.878 57.2913 159.137 57.3909C159.396 57.4904 159.682 57.5357 160 57.5357C160.318 57.5357 160.604 57.4859 160.862 57.3818C161.121 57.2778 161.339 57.133 161.521 56.9565C161.702 56.7755 161.843 56.5583 161.943 56.3139C162.043 56.065 162.093 55.798 162.093 55.5129C162.093 55.2278 162.043 54.9382 161.943 54.6893C161.843 54.4359 161.698 54.2232 161.516 54.0422L161.521 54.0332ZM161.208 56.0695C161.139 56.2415 161.049 56.3863 160.935 56.504C160.822 56.6261 160.681 56.7166 160.522 56.78C160.363 56.8433 160.186 56.875 160 56.875C159.814 56.875 159.632 56.8433 159.473 56.7755C159.314 56.7076 159.173 56.6171 159.06 56.4994C158.942 56.3818 158.855 56.237 158.787 56.065C158.724 55.8976 158.692 55.703 158.692 55.4948C158.692 55.2867 158.724 55.0921 158.792 54.9247C158.86 54.7527 158.951 54.6079 159.064 54.4902C159.178 54.3726 159.319 54.2821 159.482 54.2142C159.641 54.1508 159.818 54.1192 160 54.1192C160.181 54.1192 160.363 54.1508 160.522 54.2142C160.681 54.2775 160.817 54.3726 160.94 54.4948C161.058 54.6169 161.148 54.7617 161.212 54.9292C161.276 55.0966 161.307 55.2867 161.307 55.4948C161.307 55.703 161.276 55.8976 161.208 56.065V56.0695Z" fill="#414042"/>
<path d="M163.065 57.4858H163.828V54.1688H165.253V53.5172H163.065V57.4858Z" fill="#414042"/>
<path d="M169.898 54.6757C169.798 54.4222 169.653 54.2096 169.472 54.0286C169.29 53.8521 169.067 53.7118 168.809 53.6077C168.55 53.5082 168.264 53.4584 167.95 53.4584C167.637 53.4584 167.342 53.5127 167.083 53.6168C166.824 53.7208 166.602 53.8656 166.42 54.0467C166.239 54.2277 166.098 54.4449 166.002 54.6938C165.907 54.9426 165.857 55.2096 165.857 55.4947C165.857 55.7798 165.907 56.0649 166.002 56.3183C166.098 56.5672 166.239 56.7799 166.425 56.9654C166.611 57.1464 166.829 57.2867 167.088 57.3863C167.347 57.4858 167.633 57.5311 167.95 57.5311C168.268 57.5311 168.554 57.4813 168.813 57.3772C169.072 57.2731 169.29 57.1283 169.472 56.9518C169.653 56.7708 169.794 56.5536 169.894 56.3093C169.994 56.0604 170.044 55.7934 170.044 55.5083C170.044 55.2232 169.994 54.9336 169.894 54.6847L169.898 54.6757ZM169.158 56.0649C169.09 56.2369 168.999 56.3817 168.886 56.4993C168.772 56.6215 168.632 56.712 168.473 56.7754C168.314 56.8387 168.137 56.8704 167.95 56.8704C167.764 56.8704 167.583 56.8387 167.424 56.7708C167.26 56.7029 167.124 56.6124 167.011 56.4948C166.892 56.3771 166.806 56.2323 166.738 56.0604C166.674 55.8929 166.643 55.6984 166.643 55.4902C166.643 55.282 166.674 55.0874 166.743 54.92C166.811 54.7481 166.902 54.6033 167.015 54.4856C167.129 54.3679 167.269 54.2774 167.428 54.2096C167.592 54.1462 167.764 54.1145 167.95 54.1145C168.137 54.1145 168.314 54.1462 168.473 54.2096C168.632 54.2729 168.768 54.3679 168.89 54.4901C169.008 54.6123 169.099 54.7571 169.163 54.9245C169.226 55.092 169.258 55.282 169.258 55.4902C169.258 55.6984 169.226 55.8929 169.158 56.0604V56.0649Z" fill="#414042"/>
<path d="M109.213 63.9524C109.104 63.8665 108.977 63.8031 108.827 63.7579C108.813 63.7533 108.795 63.7533 108.777 63.7488C108.854 63.7081 108.931 63.6583 108.995 63.5995C109.09 63.5135 109.163 63.4139 109.222 63.2963C109.276 63.1786 109.304 63.0474 109.304 62.8981C109.304 62.7397 109.272 62.5994 109.213 62.4727C109.154 62.346 109.068 62.2374 108.959 62.1469C108.85 62.0564 108.718 61.9885 108.568 61.9433C108.414 61.898 108.246 61.8708 108.064 61.8708C107.928 61.8708 107.801 61.8844 107.683 61.9161C107.565 61.9433 107.451 61.9795 107.351 62.0292C107.251 62.0745 107.161 62.1333 107.079 62.1967C106.997 62.26 106.924 62.3324 106.865 62.4048L107.31 62.8664C107.36 62.8076 107.41 62.7623 107.465 62.7216C107.519 62.6809 107.574 62.6492 107.633 62.6266C107.687 62.6039 107.746 62.5858 107.81 62.5723C107.869 62.5587 107.937 62.5542 108.005 62.5542C108.091 62.5542 108.173 62.5632 108.246 62.5768C108.318 62.5949 108.377 62.622 108.427 62.6582C108.477 62.6944 108.514 62.7442 108.545 62.7985C108.577 62.8528 108.586 62.9252 108.586 63.0067C108.586 63.0836 108.573 63.1515 108.545 63.2103C108.518 63.2691 108.477 63.3234 108.427 63.3687C108.377 63.4139 108.314 63.4501 108.241 63.4728C108.169 63.4954 108.087 63.509 107.996 63.509H107.751V64.0973H107.996C108.137 64.0973 108.255 64.1108 108.359 64.138C108.459 64.1651 108.541 64.2059 108.604 64.2556C108.668 64.3054 108.718 64.3688 108.75 64.4412C108.782 64.5136 108.8 64.5905 108.8 64.6674C108.8 64.767 108.782 64.853 108.741 64.9299C108.7 65.0068 108.645 65.0702 108.577 65.12C108.509 65.1697 108.427 65.2059 108.337 65.2331C108.246 65.2602 108.141 65.2693 108.028 65.2693C107.923 65.2693 107.823 65.2557 107.733 65.2331C107.642 65.2059 107.556 65.1788 107.483 65.138C107.406 65.1018 107.338 65.0566 107.279 65.0068C107.22 64.957 107.165 64.9027 107.12 64.8439L106.656 65.3598C106.815 65.5408 107.011 65.6856 107.247 65.7852C107.483 65.8892 107.751 65.939 108.06 65.939C108.3 65.939 108.509 65.9119 108.691 65.853C108.872 65.7942 109.031 65.7082 109.158 65.5996C109.286 65.491 109.385 65.3598 109.454 65.2105C109.522 65.0611 109.558 64.8937 109.558 64.7082C109.558 64.5407 109.526 64.3959 109.467 64.2692C109.408 64.1425 109.322 64.0339 109.217 63.9479L109.213 63.9524Z" fill="#414042"/>
<path d="M111.638 61.9025L110.053 65.8982H110.811L111.143 65.0249H112.673L113.009 65.8982H113.817L112.21 61.9025H111.642H111.638ZM111.379 64.4049L111.906 63.0247L112.437 64.4049H111.379Z" fill="#414042"/>
<path d="M117.504 62.0427V61.9296H116.7L115.633 63.4817H115.375V61.9296H114.612V65.8936H115.375V64.1379H115.67L117.009 65.8936H117.89V65.7805L116.292 63.708L117.504 62.0427Z" fill="#414042"/>
<path d="M119.961 61.9025L118.376 65.8982H119.134L119.466 65.0249H120.996L121.332 65.8982H122.14L120.533 61.9025H119.965H119.961ZM119.702 64.4049L120.229 63.0247L120.76 64.4049H119.702Z" fill="#414042"/>
<path d="M125.151 63.9524C125.042 63.8665 124.914 63.8031 124.765 63.7579C124.751 63.7533 124.733 63.7533 124.715 63.7488C124.792 63.7081 124.869 63.6583 124.933 63.5995C125.028 63.5135 125.101 63.4139 125.16 63.2963C125.214 63.1786 125.241 63.0474 125.241 62.8981C125.241 62.7397 125.21 62.5994 125.151 62.4727C125.092 62.346 125.005 62.2374 124.896 62.1469C124.787 62.0564 124.656 61.9885 124.506 61.9433C124.351 61.898 124.183 61.8708 124.002 61.8708C123.866 61.8708 123.738 61.8844 123.62 61.9161C123.502 61.9433 123.389 61.9795 123.289 62.0292C123.189 62.0745 123.098 62.1333 123.017 62.1967C122.935 62.26 122.862 62.3324 122.803 62.4048L123.248 62.8664C123.298 62.8076 123.348 62.7623 123.402 62.7216C123.457 62.6809 123.511 62.6492 123.57 62.6266C123.625 62.6039 123.684 62.5858 123.748 62.5723C123.807 62.5587 123.875 62.5542 123.943 62.5542C124.029 62.5542 124.111 62.5632 124.183 62.5768C124.256 62.5949 124.315 62.622 124.365 62.6582C124.415 62.6944 124.451 62.7442 124.483 62.7985C124.515 62.8528 124.524 62.9252 124.524 63.0067C124.524 63.0836 124.51 63.1515 124.483 63.2103C124.456 63.2691 124.415 63.3234 124.365 63.3687C124.315 63.4139 124.252 63.4501 124.179 63.4728C124.106 63.4954 124.025 63.509 123.934 63.509H123.689V64.0973H123.934C124.074 64.0973 124.193 64.1108 124.297 64.138C124.397 64.1651 124.479 64.2059 124.542 64.2556C124.606 64.3054 124.656 64.3688 124.687 64.4412C124.719 64.5136 124.737 64.5905 124.737 64.6674C124.737 64.767 124.719 64.853 124.678 64.9299C124.638 65.0068 124.583 65.0702 124.515 65.12C124.447 65.1697 124.365 65.2059 124.274 65.2331C124.183 65.2602 124.079 65.2693 123.966 65.2693C123.861 65.2693 123.761 65.2557 123.67 65.2331C123.58 65.2059 123.493 65.1788 123.421 65.138C123.343 65.1018 123.275 65.0566 123.216 65.0068C123.157 64.957 123.103 64.9027 123.057 64.8439L122.594 65.3598C122.753 65.5408 122.948 65.6856 123.185 65.7852C123.421 65.8892 123.689 65.939 123.997 65.939C124.238 65.939 124.447 65.9119 124.628 65.853C124.81 65.7942 124.969 65.7082 125.096 65.5996C125.223 65.491 125.323 65.3598 125.391 65.2105C125.459 65.0611 125.496 64.8937 125.496 64.7082C125.496 64.5407 125.464 64.3959 125.405 64.2692C125.346 64.1425 125.26 64.0339 125.155 63.9479L125.151 63.9524Z" fill="#414042"/>
<path d="M127.58 61.9025L125.995 65.8982H126.753L127.085 65.0249H128.615L128.951 65.8982H129.759L128.152 61.9025H127.584H127.58ZM127.321 64.4049L127.848 63.0247L128.379 64.4049H127.321Z" fill="#414042"/>
</g>
<defs>
<clipPath id="clip0_3944_8547">
<rect width="141" height="64" fill="white" transform="translate(36 33)"/>
</clipPath>
</defs>
</svg>
