<svg width="260" height="130" viewBox="0 0 260 130" fill="none" xmlns="http://www.w3.org/2000/svg">
<path d="M121.76 60.0017H122.162L124.788 68.4203H119.129L121.755 60.0017H121.76ZM143.554 72.3658V60.0017H143.791C146.283 60.0017 148.306 60.071 149.954 60.9454C151.571 61.7824 152.847 63.3553 152.847 66.2877C152.847 69.2201 151.668 70.6916 149.985 71.5287C148.399 72.3338 146.448 72.3658 144.157 72.3658H143.549H143.554ZM42.5696 72.3658V60.0017H43.1411C45.633 60.0017 47.6564 60.071 49.304 60.9454C50.9206 61.7824 52.1975 63.3553 52.1975 66.2877C52.1975 69.2201 51.0185 70.6916 49.3349 71.5287C47.7491 72.3338 45.7978 72.3658 43.5067 72.3658H42.5645H42.5696ZM169.689 66.181C169.689 64.4696 170.363 62.8274 171.439 61.6385C172.551 60.4175 174.034 59.7884 175.718 59.7884C177.401 59.7884 178.915 60.4175 180.027 61.6385C181.072 62.7901 181.747 64.4003 181.747 66.213C181.747 68.0258 181.005 69.6733 180.027 70.7183C178.915 71.9072 177.432 72.5684 175.748 72.5684C174.065 72.5684 172.515 71.9019 171.439 70.7183C170.327 69.4973 169.689 67.8552 169.689 66.1757M85.8848 78.4012H92.4544V68.9002H94.7455L100.239 78.4012H107.921L100.105 65.7918L107.787 53.9502H99.9404L94.3851 63.206H92.4647V53.9556H85.8951V78.4065L85.8848 78.4012ZM62.8448 78.4012H81.5702V72.3551H69.4093V68.8948H78.5377V63.2006H69.4093V59.9857H81.2304V53.9556H62.8396V78.4065L62.8448 78.4012ZM127.923 78.4012H134.997L126.07 53.9502H117.852L108.925 78.4012H115.999L117.348 74.1039H126.579L127.928 78.4012H127.923ZM144.764 53.9556H136.985V78.4065H143.755C147.359 78.4065 150.021 78.3372 152.714 77.0789C156.956 75.0902 159.587 70.8249 159.587 66.0424C159.587 61.2599 157.198 57.7304 153.929 55.7737C151.37 54.2381 148.373 53.9556 144.764 53.9556ZM44.1193 53.9556H36V78.4065H43.1051C46.7091 78.4065 49.3709 78.3372 52.0636 77.0789C56.3061 75.0902 58.937 70.8249 58.937 66.0424C58.937 61.2599 56.5481 57.7304 53.2787 55.7737C50.7198 54.2381 47.7234 53.9556 44.1142 53.9556M162.918 66.181C162.918 69.7426 164.401 72.9576 166.589 75.1222C168.947 77.4628 172.216 78.7531 175.681 78.7531C179.146 78.7531 182.519 77.3882 184.81 75.1222C186.998 72.9576 188.481 69.7426 188.481 66.181C188.481 62.6195 186.998 59.4045 184.81 57.2399C182.519 54.9686 179.285 53.609 175.681 53.609C172.077 53.609 168.947 54.8993 166.589 57.2399C164.401 59.4045 162.918 62.6195 162.918 66.181Z" fill="#231F20"/>
<path d="M42.5696 73.2401H43.5118C45.9059 73.2401 47.9242 73.2028 49.7107 72.2964C51.662 71.3527 53.047 69.5026 53.047 66.2876C53.047 63.0726 51.6003 61.1905 49.6798 60.1722C47.8263 59.1965 45.7411 59.1272 43.1463 59.1272H36V60.876H43.1411C45.5301 60.876 47.4865 60.9453 48.9333 61.713C50.2822 62.4115 51.3583 63.7391 51.3583 66.2876C51.3583 68.6282 50.447 70.0251 48.9642 70.7609C47.5843 71.4593 45.6948 71.4966 43.5067 71.4966H42.5645V73.2454L42.5696 73.2401Z" fill="#F47D20"/>
<path d="M195.895 52.2066C197.635 52.2066 199.056 53.6942 199.056 55.5229C199.056 57.3517 197.64 58.8392 195.895 58.8392C194.149 58.8392 192.734 57.3517 192.734 55.5229C192.734 53.6942 194.149 52.2066 195.895 52.2066ZM195.895 51.2469C193.645 51.2469 191.822 53.161 191.822 55.5176C191.822 57.8742 193.645 59.7882 195.895 59.7882C198.145 59.7882 199.967 57.8742 199.967 55.5176C199.967 53.161 198.145 51.2469 195.895 51.2469Z" fill="#231F20"/>
<path d="M197.733 57.7462H196.832L195.694 55.8641H195.282V57.7462C195.282 57.7462 194.767 57.7462 194.427 57.7462C194.427 57.7462 194.427 53.5608 194.427 53.1876H195.951C197.094 53.1876 197.46 53.8754 197.46 54.5419C197.46 55.171 197.136 55.6828 196.616 55.8641L197.733 57.7462ZM195.931 53.998H195.287V55.059H195.967C196.348 55.059 196.611 54.8831 196.621 54.5419C196.626 54.2753 196.446 53.982 195.931 53.998Z" fill="#231F20"/>
</svg>
