<svg width="260" height="130" viewBox="0 0 260 130" fill="none" xmlns="http://www.w3.org/2000/svg">
<path fill-rule="evenodd" clip-rule="evenodd" d="M101.824 69.2457C100.192 69.5495 99.1129 69.7086 97.7796 69.7086C91.9373 69.7086 89.2557 66.4974 89.2557 61.7529V55.2581H95.8022V61.7529C95.8022 63.749 97.0456 64.2842 98.7384 64.2842C99.9518 64.2842 100.97 64.1251 101.839 63.8214V55.2581H108.281V75.8129H101.839V69.2457H101.824ZM120.88 68.7539L115.936 75.8129H110.453V60.9283H116.191V67.5533L120.82 60.9283H126.632V75.8129H120.895V68.7539H120.88ZM137.268 71.2853C138.482 71.2853 139.381 70.6633 139.86 69.9979L143.56 73.3827C142.691 74.6123 140.534 76.1889 137.014 76.1889C132.13 76.1889 128.37 73.1079 128.37 68.3634C128.37 63.6188 132.13 60.5667 137.014 60.5667C140.519 60.5667 142.691 62.1 143.56 63.3729L139.86 66.7288C139.381 66.02 138.482 65.4704 137.268 65.4704C135.635 65.4704 134.242 66.454 134.242 68.3634C134.242 70.2727 135.65 71.2853 137.268 71.2853ZM154.016 75.8129H148.279V65.7452H144.159V60.9428H158.076V65.7452H154.016V75.8129ZM167.304 65.4559C165.551 65.4559 164.563 66.7144 164.563 68.3489C164.563 69.9834 165.551 71.2708 167.304 71.2708C169.057 71.2708 170.076 70.0124 170.076 68.3489C170.076 66.6854 169.087 65.4559 167.304 65.4559ZM167.304 76.1745C161.851 76.1745 158.66 72.5148 158.66 68.3489C158.66 64.183 161.851 60.5523 167.304 60.5523C172.757 60.5523 175.978 64.183 175.978 68.3489C175.978 72.5148 172.787 76.1745 167.304 76.1745ZM198.958 57.153C197.55 57.153 196.516 57.5869 196.516 59.2504V60.8271H196.561C196.561 60.8271 196.561 60.856 196.576 60.856L198.209 60.8271H200.096V65.4125L196.906 65.427V74.0337C196.906 76.9267 194.928 77.6788 191.138 77.1581V65.4704H185.745V75.943H180.023V65.4704H176.952V60.885H180.023C180.187 60.8994 179.558 54.0864 187.078 54.0864C188.666 54.0864 189.685 54.5637 190.644 54.9254L189.131 58.5416C188.696 58.4548 188.412 58.2957 187.768 58.2812C184.981 58.2523 185.356 60.885 185.49 60.885L190.779 60.7982V60.8271H191.093V59.2504C191.093 55.3015 193.325 52.6399 198.179 52.6399C199.288 52.6399 200.201 52.7701 201.55 53.0304V57.5435C200.831 57.2832 199.992 57.153 198.973 57.153H198.958Z" fill="#E67639"/>
<path d="M53.3324 48.2278C44.6288 48.2278 36 47.5769 36 47.5769C36 47.5769 36 59.2646 36 68.0594C36 76.8541 43.3704 82.4231 52.4636 82.4231C61.5567 82.4231 71.369 82.4231 71.369 82.4231V47.5769C71.369 47.5769 62.2908 48.2278 53.3474 48.2278M64.2982 76.9264H57.1525V69.6361C55.3398 69.9832 54.1414 70.1568 52.6583 70.1568C46.1718 70.1568 43.2056 66.5984 43.2056 61.3187V54.1585C44.9134 54.3899 47.2803 54.5924 50.4712 54.6937V61.3187C50.4712 63.5463 51.8494 64.1249 53.7219 64.1249C55.0702 64.1249 56.1937 63.9513 57.1525 63.6041V54.6648C60.2385 54.5635 62.5904 54.361 64.2982 54.144V76.9264Z" fill="#E67639"/>
</svg>
