<svg width="108" height="100" viewBox="0 0 108 100" fill="none" xmlns="http://www.w3.org/2000/svg">
<g clip-path="url(#clip0_3953_9031)">
<path d="M67.9 15.8103C70.42 16.5603 72.82 17.5503 75.1 18.7703" stroke="black" stroke-width="2" stroke-miterlimit="10" stroke-linecap="round"/>
<path d="M25.64 30.3602C29.92 24.3702 35.87 19.6502 42.82 16.9102" stroke="black" stroke-width="2" stroke-miterlimit="10" stroke-linecap="round"/>
<path d="M95.34 54.1902C94.54 74.7002 77.65 91.0802 56.94 91.0802C46.34 91.0802 36.74 86.7802 29.78 79.8402" stroke="black" stroke-width="2" stroke-miterlimit="10"/>
<path d="M83.8001 8.25019C83.8001 8.25019 85.3601 3.48019 89.7301 1.85019C89.9301 1.77019 90.1501 1.94019 90.1201 2.16019C89.9801 3.46019 89.6901 7.09019 90.7701 7.44019C92.1001 7.87019 95.3101 9.02019 97.4501 10.7802C99.5901 12.5402 104.81 15.6202 104.64 19.5602C104.64 19.5602 104.25 20.9902 103.08 21.5102C101.91 22.0302 101.58 22.9202 101.58 22.9202C101.58 22.9202 100.53 24.2502 98.6301 23.1102C96.7301 21.9702 96.1701 20.9702 94.6501 21.7402C93.2301 22.4602 91.7801 22.9402 89.6401 22.4202C89.5301 22.3902 89.4601 22.5202 89.5401 22.5902C90.9401 23.7902 96.2001 28.4102 98.0101 31.5902C100.11 35.2702 100.19 37.2702 100.06 39.2502C99.9301 41.2302 99.5401 43.8602 103.01 46.1802C106.79 48.7102 106.72 52.0402 106.79 54.3602H69.7701C69.7701 54.3602 69.7001 51.8702 70.4701 50.5502C71.7301 48.4002 72.9701 47.5902 74.1201 46.5202C75.9101 44.8602 78.0201 43.2702 78.3201 37.7002C78.6201 32.1302 74.8101 31.1502 74.7201 23.6602C74.6301 16.1702 79.0401 12.8302 79.0401 12.8302C79.0401 12.8302 83.2201 9.55019 83.7901 8.25019H83.8001Z" stroke="black" stroke-width="2" stroke-miterlimit="10"/>
<path d="M27.1301 32.1403C30.7501 36.4603 28.0401 40.7603 26.7301 42.4003C26.4801 42.7103 26.6501 43.1803 27.0401 43.2603C27.9901 43.4603 29.3001 44.0203 29.2501 45.6103C29.2101 47.2903 27.9301 47.7403 27.0501 47.8503C26.5601 47.9103 26.2001 48.3203 26.2001 48.8203C26.2301 51.0703 26.5101 56.9603 28.4801 62.5103C29.2001 64.5503 30.5001 66.3403 32.2101 67.6703C33.5901 68.7403 35.2101 70.4603 35.3401 72.7403C35.3401 72.7403 40.0501 73.7903 39.2601 79.9303H20.1101H1.09006C0.300057 73.7903 5.01006 72.7403 5.01006 72.7403C5.14006 70.4603 6.76006 68.7403 8.14006 67.6703C9.85006 66.3503 11.1501 64.5503 11.8701 62.5103C13.8401 56.9603 14.1201 51.0703 14.1501 48.8203C14.1501 48.3303 13.7901 47.9103 13.3001 47.8503C12.4101 47.7403 11.1401 47.2903 11.1001 45.6103C11.0601 44.0203 12.3601 43.4603 13.3201 43.2603C13.7101 43.1803 13.8801 42.7103 13.6301 42.4003C12.3201 40.7603 9.82006 36.6303 13.2201 32.1303C15.6701 28.9003 18.9001 28.5403 21.2901 28.8603C23.5001 29.1603 25.5101 30.2503 26.9701 31.9203C27.0301 31.9903 27.0801 32.0503 27.1401 32.1203L27.1301 32.1403Z" stroke="black" stroke-width="2" stroke-miterlimit="10"/>
<path d="M55.9701 20.0901C59.2065 20.0901 61.8301 17.4665 61.8301 14.2301C61.8301 10.9937 59.2065 8.37012 55.9701 8.37012C52.7337 8.37012 50.1101 10.9937 50.1101 14.2301C50.1101 17.4665 52.7337 20.0901 55.9701 20.0901Z" fill="#A61E22"/>
<path d="M52.02 38.2703L55.97 34.3203L59.92 38.2703" stroke="black" stroke-width="2" stroke-miterlimit="10" stroke-linecap="round"/>
<path d="M55.9701 98.1702V34.7202" stroke="black" stroke-width="2" stroke-miterlimit="10" stroke-linecap="round"/>
</g>
<defs>
<clipPath id="clip0_3953_9031">
<rect width="107.84" height="98.34" fill="white" transform="translate(0 0.830078)"/>
</clipPath>
</defs>
</svg>
