<svg width="108" height="88" viewBox="0 0 108 88" fill="none" xmlns="http://www.w3.org/2000/svg">
<g clip-path="url(#clip0_3953_9052)">
<path d="M64.6607 50.3336C68.1613 50.3336 70.9991 47.4958 70.9991 43.9952C70.9991 40.4945 68.1613 37.6567 64.6607 37.6567C61.1601 37.6567 58.3223 40.4945 58.3223 43.9952C58.3223 47.4958 61.1601 50.3336 64.6607 50.3336Z" fill="#A61E22"/>
<path d="M8.01501 60.5552L13.4124 63.1187L10.8489 68.5161" stroke="black" stroke-width="2" stroke-miterlimit="10" stroke-linecap="round"/>
<path d="M14.7537 58.2402L20.1511 60.8037L17.5876 66.2011" stroke="black" stroke-width="2" stroke-miterlimit="10" stroke-linecap="round"/>
<path d="M1.08167 68.3211L64.3579 44.2437" stroke="black" stroke-width="2" stroke-miterlimit="10" stroke-linecap="round"/>
<path d="M64.6607 86.0927C87.9106 86.0927 106.758 67.2449 106.758 43.9951C106.758 20.7452 87.9106 1.89746 64.6607 1.89746C41.4109 1.89746 22.5631 20.7452 22.5631 43.9951C22.5631 67.2449 41.4109 86.0927 64.6607 86.0927Z" stroke="black" stroke-width="2" stroke-miterlimit="10"/>
<path d="M64.6607 73.4805C80.9451 73.4805 94.1463 60.2794 94.1463 43.9949C94.1463 27.7104 80.9451 14.5093 64.6607 14.5093C48.3762 14.5093 35.175 27.7104 35.175 43.9949C35.175 60.2794 48.3762 73.4805 64.6607 73.4805Z" stroke="black" stroke-width="2" stroke-miterlimit="10"/>
<path d="M64.6607 59.3545C73.1435 59.3545 80.0201 52.4778 80.0201 43.9951C80.0201 35.5124 73.1435 28.6357 64.6607 28.6357C56.178 28.6357 49.3014 35.5124 49.3014 43.9951C49.3014 52.4778 56.178 59.3545 64.6607 59.3545Z" stroke="black" stroke-width="2" stroke-miterlimit="10"/>
</g>
<defs>
<clipPath id="clip0_3953_9052">
<rect width="107.84" height="86.3693" fill="white" transform="translate(0 0.815918)"/>
</clipPath>
</defs>
</svg>
