<svg width="936" height="105" viewBox="0 0 936 105" fill="none" xmlns="http://www.w3.org/2000/svg">
<mask id="path-1-inside-1_3860_6452" fill="white">
<path d="M74.84 34.68C74.84 40.7 71.62 47.7 66.72 51.62C74.7 55.68 78.9 63.66 78.9 72.62C78.9 89.42 67.98 102.44 47.82 102.44H0.640001V4.58H43.9C62.1 4.58 74.84 16.48 74.84 34.68ZM42.08 26.84H26.26V43.22H42.08C46.98 43.22 49.5 39.44 49.64 35.52C49.78 31.18 47.26 26.84 42.08 26.84ZM45.86 63.94H26.26V80.18H46C50.9 80.18 53.14 76.54 53.56 72.62C53.84 68.14 50.9 63.94 45.86 63.94ZM152.119 90.82H115.439L109.839 103H83.0989V99.5L128.039 4.02H139.799L184.319 99.5V103H157.859L152.119 90.82ZM133.779 45.74L123.699 69.4H143.999L133.779 45.74ZM194.706 103V4.99999H220.326V79.9H243.986V4.99999H269.606V79.9H293.266V4.99999H318.886V103H194.706ZM376.198 4.99999H457.678V103C449.138 103 440.598 103 432.058 103V28.1H401.818V103C393.278 103 384.738 103 376.198 103V4.99999ZM505.897 102.86H480.277V4.86C494.837 4.86 508.977 4.72 523.537 4.86C547.057 4.86 559.097 23.2 558.677 41.68C558.677 59.6 546.777 77.52 523.537 77.52H505.897V102.86ZM505.477 55.26H523.537C530.257 55.26 534.177 48.12 534.177 40.98C534.177 33.98 530.537 27.12 523.537 27.12H505.477V55.26ZM669.025 54C669.025 83.96 648.305 104.82 618.625 104.82C592.725 104.82 568.505 88.02 568.505 54C568.505 20.12 593.565 3.03999 619.045 3.03999C644.105 3.03999 669.025 20.12 669.025 54ZM594.125 54C594.125 71.5 606.165 80.6 618.765 80.6C630.945 80.6 643.405 71.5 643.405 54C643.405 36.5 631.225 27.4 619.045 27.4C606.305 27.4 594.125 36.08 594.125 54ZM747.417 4.99999V27.26H711.857V41.26H744.617V63.66H711.857V79.62H748.677V103H686.237V4.99999H747.417ZM826.975 103L805.555 65.2C802.615 65.62 796.875 65.62 793.375 65.62V103H767.755V4.99999H793.375V43.36C797.435 43.36 804.155 43.64 807.655 41.82C812.135 39.58 813.675 33.7 816.475 21.94C819.415 10.04 828.935 0.379994 851.895 5.13999V22.36C845.735 21.94 841.535 23.34 839.995 29.36C836.775 41.12 833.415 49.38 827.955 55.4C837.335 69.96 846.435 84.66 855.955 99.22V103H826.975ZM886.567 27.4H862.487V4.99999H935.287V27.4H911.347V103H886.567V27.4Z"/>
</mask>
<path d="M66.72 51.62L65.4706 50.0583L63.0485 51.996L65.8131 53.4026L66.72 51.62ZM0.64 102.44H-1.36V104.44H0.64V102.44ZM0.64 4.58V2.58H-1.36V4.58H0.64ZM26.26 26.84V24.84H24.26V26.84H26.26ZM26.26 43.22H24.26V45.22H26.26V43.22ZM49.64 35.52L51.6387 35.5914L51.639 35.5845L49.64 35.52ZM26.26 63.94V61.94H24.26V63.94H26.26ZM26.26 80.18H24.26V82.18H26.26V80.18ZM53.56 72.62L55.5486 72.8331L55.5533 72.789L55.5561 72.7448L53.56 72.62ZM72.84 34.68C72.84 40.1093 69.8832 46.5282 65.4706 50.0583L67.9694 53.1817C73.3568 48.8718 76.84 41.2907 76.84 34.68H72.84ZM65.8131 53.4026C73.026 57.0723 76.9 64.2978 76.9 72.62H80.9C80.9 63.0221 76.374 54.2877 67.6269 49.8374L65.8131 53.4026ZM76.9 72.62C76.9 80.5866 74.3167 87.5085 69.4919 92.4299C64.6779 97.3401 57.4547 100.44 47.82 100.44V104.44C58.3453 104.44 66.6621 101.03 72.3482 95.2301C78.0233 89.4415 80.9 81.4534 80.9 72.62H76.9ZM47.82 100.44H0.64V104.44H47.82V100.44ZM2.64 102.44V4.58H-1.36V102.44H2.64ZM0.64 6.58H43.9V2.58H0.64V6.58ZM43.9 6.58C52.56 6.58 59.7733 9.40487 64.8088 14.2467C69.8359 19.0805 72.84 26.0649 72.84 34.68H76.84C76.84 25.0951 73.4741 17.0295 67.5812 11.3633C61.6967 5.70512 53.44 2.58 43.9 2.58V6.58ZM42.08 24.84H26.26V28.84H42.08V24.84ZM24.26 26.84V43.22H28.26V26.84H24.26ZM26.26 45.22H42.08V41.22H26.26V45.22ZM42.08 45.22C45.0942 45.22 47.5008 44.0355 49.1479 42.1596C50.7593 40.3243 51.555 37.9352 51.6387 35.5914L47.6413 35.4486C47.585 37.0248 47.0507 38.4857 46.1421 39.5204C45.2692 40.5145 43.9658 41.22 42.08 41.22V45.22ZM51.639 35.5845C51.7212 33.034 51.0292 30.3854 49.4365 28.3281C47.8016 26.2165 45.2952 24.84 42.08 24.84V28.84C44.0448 28.84 45.3884 29.6335 46.2736 30.7768C47.2008 31.9746 47.6988 33.666 47.641 35.4555L51.639 35.5845ZM45.86 61.94H26.26V65.94H45.86V61.94ZM24.26 63.94V80.18H28.26V63.94H24.26ZM26.26 82.18H46V78.18H26.26V82.18ZM46 82.18C49.0038 82.18 51.3455 81.038 52.9652 79.187C54.5353 77.3926 55.3086 75.0733 55.5486 72.8331L51.5714 72.4069C51.3914 74.0866 50.8348 75.5474 49.9548 76.553C49.1245 77.502 47.8962 78.18 46 78.18V82.18ZM55.5561 72.7448C55.8921 67.3684 52.2943 61.94 45.86 61.94V65.94C49.5057 65.94 51.7879 68.9116 51.5639 72.4952L55.5561 72.7448ZM152.119 90.82L153.928 89.9674L153.387 88.82H152.119V90.82ZM115.439 90.82V88.82H114.157L113.622 89.9845L115.439 90.82ZM109.839 103V105H111.121L111.656 103.835L109.839 103ZM83.0989 103H81.0989V105H83.0989V103ZM83.0989 99.5L81.2893 98.6483L81.0989 99.0528V99.5H83.0989ZM128.039 4.02V2.02H126.77L126.229 3.16828L128.039 4.02ZM139.799 4.02L141.612 3.17481L141.073 2.02H139.799V4.02ZM184.319 99.5H186.319V99.0566L186.132 98.6548L184.319 99.5ZM184.319 103V105H186.319V103H184.319ZM157.859 103L156.05 103.853L156.59 105H157.859V103ZM133.779 45.74L135.615 44.9469L133.766 40.667L131.939 44.9561L133.779 45.74ZM123.699 69.4L121.859 68.6161L120.673 71.4H123.699V69.4ZM143.999 69.4V71.4H147.041L145.835 68.6069L143.999 69.4ZM152.119 88.82H115.439V92.82H152.119V88.82ZM113.622 89.9845L108.022 102.165L111.656 103.835L117.256 91.6555L113.622 89.9845ZM109.839 101H83.0989V105H109.839V101ZM85.0989 103V99.5H81.0989V103H85.0989ZM84.9085 100.352L129.848 4.87172L126.229 3.16828L81.2893 98.6483L84.9085 100.352ZM128.039 6.02H139.799V2.02H128.039V6.02ZM137.986 4.86519L182.506 100.345L186.132 98.6548L141.612 3.17481L137.986 4.86519ZM182.319 99.5V103H186.319V99.5H182.319ZM184.319 101H157.859V105H184.319V101ZM159.668 102.147L153.928 89.9674L150.31 91.6726L156.05 103.853L159.668 102.147ZM131.939 44.9561L121.859 68.6161L125.539 70.1839L135.619 46.5239L131.939 44.9561ZM123.699 71.4H143.999V67.4H123.699V71.4ZM145.835 68.6069L135.615 44.9469L131.943 46.5331L142.163 70.1931L145.835 68.6069ZM194.706 103H192.706V105H194.706V103ZM194.706 4.99999V2.99999H192.706V4.99999H194.706ZM220.326 4.99999H222.326V2.99999H220.326V4.99999ZM220.326 79.9H218.326V81.9H220.326V79.9ZM243.986 79.9V81.9H245.986V79.9H243.986ZM243.986 4.99999V2.99999H241.986V4.99999H243.986ZM269.606 4.99999H271.606V2.99999H269.606V4.99999ZM269.606 79.9H267.606V81.9H269.606V79.9ZM293.266 79.9V81.9H295.266V79.9H293.266ZM293.266 4.99999V2.99999H291.266V4.99999H293.266ZM318.886 4.99999H320.886V2.99999H318.886V4.99999ZM318.886 103V105H320.886V103H318.886ZM196.706 103V4.99999H192.706V103H196.706ZM194.706 6.99999H220.326V2.99999H194.706V6.99999ZM218.326 4.99999V79.9H222.326V4.99999H218.326ZM220.326 81.9H243.986V77.9H220.326V81.9ZM245.986 79.9V4.99999H241.986V79.9H245.986ZM243.986 6.99999H269.606V2.99999H243.986V6.99999ZM267.606 4.99999V79.9H271.606V4.99999H267.606ZM269.606 81.9H293.266V77.9H269.606V81.9ZM295.266 79.9V4.99999H291.266V79.9H295.266ZM293.266 6.99999H318.886V2.99999H293.266V6.99999ZM316.886 4.99999V103H320.886V4.99999H316.886ZM318.886 101H194.706V105H318.886V101ZM376.198 4.99999V2.99999H374.198V4.99999H376.198ZM457.678 4.99999H459.678V2.99999H457.678V4.99999ZM457.678 103V105H459.678V103H457.678ZM432.058 103H430.058V105H432.058V103ZM432.058 28.1H434.058V26.1H432.058V28.1ZM401.818 28.1V26.1H399.818V28.1H401.818ZM401.818 103V105H403.818V103H401.818ZM376.198 103H374.198V105H376.198V103ZM376.198 6.99999H457.678V2.99999H376.198V6.99999ZM455.678 4.99999V103H459.678V4.99999H455.678ZM457.678 101C457.661 101 457.644 101 457.628 101C457.611 101 457.594 101 457.578 101C457.561 101 457.544 101 457.528 101C457.511 101 457.494 101 457.478 101C457.461 101 457.444 101 457.427 101C457.411 101 457.394 101 457.377 101C457.361 101 457.344 101 457.327 101C457.311 101 457.294 101 457.277 101C457.261 101 457.244 101 457.227 101C457.211 101 457.194 101 457.177 101C457.161 101 457.144 101 457.127 101C457.111 101 457.094 101 457.077 101C457.061 101 457.044 101 457.027 101C457.01 101 456.994 101 456.977 101C456.96 101 456.944 101 456.927 101C456.91 101 456.894 101 456.877 101C456.86 101 456.844 101 456.827 101C456.81 101 456.794 101 456.777 101C456.76 101 456.744 101 456.727 101C456.71 101 456.694 101 456.677 101C456.66 101 456.644 101 456.627 101C456.61 101 456.593 101 456.577 101C456.56 101 456.543 101 456.527 101C456.51 101 456.493 101 456.477 101C456.46 101 456.443 101 456.427 101C456.41 101 456.393 101 456.377 101C456.36 101 456.343 101 456.327 101C456.31 101 456.293 101 456.277 101C456.26 101 456.243 101 456.227 101C456.21 101 456.193 101 456.176 101C456.16 101 456.143 101 456.126 101C456.11 101 456.093 101 456.076 101C456.06 101 456.043 101 456.026 101C456.01 101 455.993 101 455.976 101C455.96 101 455.943 101 455.926 101C455.91 101 455.893 101 455.876 101C455.86 101 455.843 101 455.826 101C455.81 101 455.793 101 455.776 101C455.759 101 455.743 101 455.726 101C455.709 101 455.693 101 455.676 101C455.659 101 455.643 101 455.626 101C455.609 101 455.593 101 455.576 101C455.559 101 455.543 101 455.526 101C455.509 101 455.493 101 455.476 101C455.459 101 455.443 101 455.426 101C455.409 101 455.393 101 455.376 101C455.359 101 455.342 101 455.326 101C455.309 101 455.292 101 455.276 101C455.259 101 455.242 101 455.226 101C455.209 101 455.192 101 455.176 101C455.159 101 455.142 101 455.126 101C455.109 101 455.092 101 455.076 101C455.059 101 455.042 101 455.026 101C455.009 101 454.992 101 454.976 101C454.959 101 454.942 101 454.926 101C454.909 101 454.892 101 454.875 101C454.859 101 454.842 101 454.825 101C454.809 101 454.792 101 454.775 101C454.759 101 454.742 101 454.725 101C454.709 101 454.692 101 454.675 101C454.659 101 454.642 101 454.625 101C454.609 101 454.592 101 454.575 101C454.559 101 454.542 101 454.525 101C454.509 101 454.492 101 454.475 101C454.458 101 454.442 101 454.425 101C454.408 101 454.392 101 454.375 101C454.358 101 454.342 101 454.325 101C454.308 101 454.292 101 454.275 101C454.258 101 454.242 101 454.225 101C454.208 101 454.192 101 454.175 101C454.158 101 454.142 101 454.125 101C454.108 101 454.092 101 454.075 101C454.058 101 454.042 101 454.025 101C454.008 101 453.991 101 453.975 101C453.958 101 453.941 101 453.925 101C453.908 101 453.891 101 453.875 101C453.858 101 453.841 101 453.825 101C453.808 101 453.791 101 453.775 101C453.758 101 453.741 101 453.725 101C453.708 101 453.691 101 453.675 101C453.658 101 453.641 101 453.625 101C453.608 101 453.591 101 453.574 101C453.558 101 453.541 101 453.524 101C453.508 101 453.491 101 453.474 101C453.458 101 453.441 101 453.424 101C453.408 101 453.391 101 453.374 101C453.358 101 453.341 101 453.324 101C453.308 101 453.291 101 453.274 101C453.258 101 453.241 101 453.224 101C453.208 101 453.191 101 453.174 101C453.157 101 453.141 101 453.124 101C453.107 101 453.091 101 453.074 101C453.057 101 453.041 101 453.024 101C453.007 101 452.991 101 452.974 101C452.957 101 452.941 101 452.924 101C452.907 101 452.891 101 452.874 101C452.857 101 452.841 101 452.824 101C452.807 101 452.791 101 452.774 101C452.757 101 452.74 101 452.724 101C452.707 101 452.69 101 452.674 101C452.657 101 452.64 101 452.624 101C452.607 101 452.59 101 452.574 101C452.557 101 452.54 101 452.524 101C452.507 101 452.49 101 452.474 101C452.457 101 452.44 101 452.424 101C452.407 101 452.39 101 452.374 101C452.357 101 452.34 101 452.323 101C452.307 101 452.29 101 452.273 101C452.257 101 452.24 101 452.223 101C452.207 101 452.19 101 452.173 101C452.157 101 452.14 101 452.123 101C452.107 101 452.09 101 452.073 101C452.057 101 452.04 101 452.023 101C452.007 101 451.99 101 451.973 101C451.957 101 451.94 101 451.923 101C451.906 101 451.89 101 451.873 101C451.856 101 451.84 101 451.823 101C451.806 101 451.79 101 451.773 101C451.756 101 451.74 101 451.723 101C451.706 101 451.69 101 451.673 101C451.656 101 451.64 101 451.623 101C451.606 101 451.59 101 451.573 101C451.556 101 451.54 101 451.523 101C451.506 101 451.49 101 451.473 101C451.456 101 451.439 101 451.423 101C451.406 101 451.389 101 451.373 101C451.356 101 451.339 101 451.323 101C451.306 101 451.289 101 451.273 101C451.256 101 451.239 101 451.223 101C451.206 101 451.189 101 451.173 101C451.156 101 451.139 101 451.123 101C451.106 101 451.089 101 451.073 101C451.056 101 451.039 101 451.022 101C451.006 101 450.989 101 450.972 101C450.956 101 450.939 101 450.922 101C450.906 101 450.889 101 450.872 101C450.856 101 450.839 101 450.822 101C450.806 101 450.789 101 450.772 101C450.756 101 450.739 101 450.722 101C450.706 101 450.689 101 450.672 101C450.656 101 450.639 101 450.622 101C450.605 101 450.589 101 450.572 101C450.555 101 450.539 101 450.522 101C450.505 101 450.489 101 450.472 101C450.455 101 450.439 101 450.422 101C450.405 101 450.389 101 450.372 101C450.355 101 450.339 101 450.322 101C450.305 101 450.289 101 450.272 101C450.255 101 450.239 101 450.222 101C450.205 101 450.188 101 450.172 101C450.155 101 450.138 101 450.122 101C450.105 101 450.088 101 450.072 101C450.055 101 450.038 101 450.022 101C450.005 101 449.988 101 449.972 101C449.955 101 449.938 101 449.922 101C449.905 101 449.888 101 449.872 101C449.855 101 449.838 101 449.822 101C449.805 101 449.788 101 449.771 101C449.755 101 449.738 101 449.721 101C449.705 101 449.688 101 449.671 101C449.655 101 449.638 101 449.621 101C449.605 101 449.588 101 449.571 101C449.555 101 449.538 101 449.521 101C449.505 101 449.488 101 449.471 101C449.455 101 449.438 101 449.421 101C449.405 101 449.388 101 449.371 101C449.354 101 449.338 101 449.321 101C449.304 101 449.288 101 449.271 101C449.254 101 449.238 101 449.221 101C449.204 101 449.188 101 449.171 101C449.154 101 449.138 101 449.121 101C449.104 101 449.088 101 449.071 101C449.054 101 449.038 101 449.021 101C449.004 101 448.988 101 448.971 101C448.954 101 448.938 101 448.921 101C448.904 101 448.887 101 448.871 101C448.854 101 448.837 101 448.821 101C448.804 101 448.787 101 448.771 101C448.754 101 448.737 101 448.721 101C448.704 101 448.687 101 448.671 101C448.654 101 448.637 101 448.621 101C448.604 101 448.587 101 448.571 101C448.554 101 448.537 101 448.521 101C448.504 101 448.487 101 448.47 101C448.454 101 448.437 101 448.42 101C448.404 101 448.387 101 448.37 101C448.354 101 448.337 101 448.32 101C448.304 101 448.287 101 448.27 101C448.254 101 448.237 101 448.22 101C448.204 101 448.187 101 448.17 101C448.154 101 448.137 101 448.12 101C448.104 101 448.087 101 448.07 101C448.053 101 448.037 101 448.02 101C448.003 101 447.987 101 447.97 101C447.953 101 447.937 101 447.92 101C447.903 101 447.887 101 447.87 101C447.853 101 447.837 101 447.82 101C447.803 101 447.787 101 447.77 101C447.753 101 447.737 101 447.72 101C447.703 101 447.687 101 447.67 101C447.653 101 447.637 101 447.62 101C447.603 101 447.586 101 447.57 101C447.553 101 447.536 101 447.52 101C447.503 101 447.486 101 447.47 101C447.453 101 447.436 101 447.42 101C447.403 101 447.386 101 447.37 101C447.353 101 447.336 101 447.32 101C447.303 101 447.286 101 447.27 101C447.253 101 447.236 101 447.22 101C447.203 101 447.186 101 447.169 101C447.153 101 447.136 101 447.119 101C447.103 101 447.086 101 447.069 101C447.053 101 447.036 101 447.019 101C447.003 101 446.986 101 446.969 101C446.953 101 446.936 101 446.919 101C446.903 101 446.886 101 446.869 101C446.853 101 446.836 101 446.819 101C446.803 101 446.786 101 446.769 101C446.752 101 446.736 101 446.719 101C446.702 101 446.686 101 446.669 101C446.652 101 446.636 101 446.619 101C446.602 101 446.586 101 446.569 101C446.552 101 446.536 101 446.519 101C446.502 101 446.486 101 446.469 101C446.452 101 446.436 101 446.419 101C446.402 101 446.386 101 446.369 101C446.352 101 446.335 101 446.319 101C446.302 101 446.285 101 446.269 101C446.252 101 446.235 101 446.219 101C446.202 101 446.185 101 446.169 101C446.152 101 446.135 101 446.119 101C446.102 101 446.085 101 446.069 101C446.052 101 446.035 101 446.019 101C446.002 101 445.985 101 445.969 101C445.952 101 445.935 101 445.918 101C445.902 101 445.885 101 445.868 101C445.852 101 445.835 101 445.818 101C445.802 101 445.785 101 445.768 101C445.752 101 445.735 101 445.718 101C445.702 101 445.685 101 445.668 101C445.652 101 445.635 101 445.618 101C445.602 101 445.585 101 445.568 101C445.552 101 445.535 101 445.518 101C445.501 101 445.485 101 445.468 101C445.451 101 445.435 101 445.418 101C445.401 101 445.385 101 445.368 101C445.351 101 445.335 101 445.318 101C445.301 101 445.285 101 445.268 101C445.251 101 445.235 101 445.218 101C445.201 101 445.185 101 445.168 101C445.151 101 445.135 101 445.118 101C445.101 101 445.085 101 445.068 101C445.051 101 445.034 101 445.018 101C445.001 101 444.984 101 444.968 101C444.951 101 444.934 101 444.918 101C444.901 101 444.884 101 444.868 101C444.851 101 444.834 101 444.818 101C444.801 101 444.784 101 444.768 101C444.751 101 444.734 101 444.718 101C444.701 101 444.684 101 444.668 101C444.651 101 444.634 101 444.617 101C444.601 101 444.584 101 444.567 101C444.551 101 444.534 101 444.517 101C444.501 101 444.484 101 444.467 101C444.451 101 444.434 101 444.417 101C444.401 101 444.384 101 444.367 101C444.351 101 444.334 101 444.317 101C444.301 101 444.284 101 444.267 101C444.251 101 444.234 101 444.217 101C444.2 101 444.184 101 444.167 101C444.15 101 444.134 101 444.117 101C444.1 101 444.084 101 444.067 101C444.05 101 444.034 101 444.017 101C444 101 443.984 101 443.967 101C443.95 101 443.934 101 443.917 101C443.9 101 443.884 101 443.867 101C443.85 101 443.834 101 443.817 101C443.8 101 443.783 101 443.767 101C443.75 101 443.733 101 443.717 101C443.7 101 443.683 101 443.667 101C443.65 101 443.633 101 443.617 101C443.6 101 443.583 101 443.567 101C443.55 101 443.533 101 443.517 101C443.5 101 443.483 101 443.467 101C443.45 101 443.433 101 443.417 101C443.4 101 443.383 101 443.366 101C443.35 101 443.333 101 443.316 101C443.3 101 443.283 101 443.266 101C443.25 101 443.233 101 443.216 101C443.2 101 443.183 101 443.166 101C443.15 101 443.133 101 443.116 101C443.1 101 443.083 101 443.066 101C443.05 101 443.033 101 443.016 101C443 101 442.983 101 442.966 101C442.949 101 442.933 101 442.916 101C442.899 101 442.883 101 442.866 101C442.849 101 442.833 101 442.816 101C442.799 101 442.783 101 442.766 101C442.749 101 442.733 101 442.716 101C442.699 101 442.683 101 442.666 101C442.649 101 442.633 101 442.616 101C442.599 101 442.583 101 442.566 101C442.549 101 442.533 101 442.516 101C442.499 101 442.482 101 442.466 101C442.449 101 442.432 101 442.416 101C442.399 101 442.382 101 442.366 101C442.349 101 442.332 101 442.316 101C442.299 101 442.282 101 442.266 101C442.249 101 442.232 101 442.216 101C442.199 101 442.182 101 442.166 101C442.149 101 442.132 101 442.116 101C442.099 101 442.082 101 442.065 101C442.049 101 442.032 101 442.015 101C441.999 101 441.982 101 441.965 101C441.949 101 441.932 101 441.915 101C441.899 101 441.882 101 441.865 101C441.849 101 441.832 101 441.815 101C441.799 101 441.782 101 441.765 101C441.749 101 441.732 101 441.715 101C441.699 101 441.682 101 441.665 101C441.648 101 441.632 101 441.615 101C441.598 101 441.582 101 441.565 101C441.548 101 441.532 101 441.515 101C441.498 101 441.482 101 441.465 101C441.448 101 441.432 101 441.415 101C441.398 101 441.382 101 441.365 101C441.348 101 441.332 101 441.315 101C441.298 101 441.282 101 441.265 101C441.248 101 441.232 101 441.215 101C441.198 101 441.181 101 441.165 101C441.148 101 441.131 101 441.115 101C441.098 101 441.081 101 441.065 101C441.048 101 441.031 101 441.015 101C440.998 101 440.981 101 440.965 101C440.948 101 440.931 101 440.915 101C440.898 101 440.881 101 440.865 101C440.848 101 440.831 101 440.815 101C440.798 101 440.781 101 440.764 101C440.748 101 440.731 101 440.714 101C440.698 101 440.681 101 440.664 101C440.648 101 440.631 101 440.614 101C440.598 101 440.581 101 440.564 101C440.548 101 440.531 101 440.514 101C440.498 101 440.481 101 440.464 101C440.448 101 440.431 101 440.414 101C440.398 101 440.381 101 440.364 101C440.347 101 440.331 101 440.314 101C440.297 101 440.281 101 440.264 101C440.247 101 440.231 101 440.214 101C440.197 101 440.181 101 440.164 101C440.147 101 440.131 101 440.114 101C440.097 101 440.081 101 440.064 101C440.047 101 440.031 101 440.014 101C439.997 101 439.981 101 439.964 101C439.947 101 439.93 101 439.914 101C439.897 101 439.88 101 439.864 101C439.847 101 439.83 101 439.814 101C439.797 101 439.78 101 439.764 101C439.747 101 439.73 101 439.714 101C439.697 101 439.68 101 439.664 101C439.647 101 439.63 101 439.614 101C439.597 101 439.58 101 439.564 101C439.547 101 439.53 101 439.513 101C439.497 101 439.48 101 439.463 101C439.447 101 439.43 101 439.413 101C439.397 101 439.38 101 439.363 101C439.347 101 439.33 101 439.313 101C439.297 101 439.28 101 439.263 101C439.247 101 439.23 101 439.213 101C439.197 101 439.18 101 439.163 101C439.147 101 439.13 101 439.113 101C439.096 101 439.08 101 439.063 101C439.046 101 439.03 101 439.013 101C438.996 101 438.98 101 438.963 101C438.946 101 438.93 101 438.913 101C438.896 101 438.88 101 438.863 101C438.846 101 438.83 101 438.813 101C438.796 101 438.78 101 438.763 101C438.746 101 438.73 101 438.713 101C438.696 101 438.68 101 438.663 101C438.646 101 438.629 101 438.613 101C438.596 101 438.579 101 438.563 101C438.546 101 438.529 101 438.513 101C438.496 101 438.479 101 438.463 101C438.446 101 438.429 101 438.413 101C438.396 101 438.379 101 438.363 101C438.346 101 438.329 101 438.313 101C438.296 101 438.279 101 438.263 101C438.246 101 438.229 101 438.212 101C438.196 101 438.179 101 438.162 101C438.146 101 438.129 101 438.112 101C438.096 101 438.079 101 438.062 101C438.046 101 438.029 101 438.012 101C437.996 101 437.979 101 437.962 101C437.946 101 437.929 101 437.912 101C437.896 101 437.879 101 437.862 101C437.846 101 437.829 101 437.812 101C437.795 101 437.779 101 437.762 101C437.745 101 437.729 101 437.712 101C437.695 101 437.679 101 437.662 101C437.645 101 437.629 101 437.612 101C437.595 101 437.579 101 437.562 101C437.545 101 437.529 101 437.512 101C437.495 101 437.479 101 437.462 101C437.445 101 437.429 101 437.412 101C437.395 101 437.378 101 437.362 101C437.345 101 437.328 101 437.312 101C437.295 101 437.278 101 437.262 101C437.245 101 437.228 101 437.212 101C437.195 101 437.178 101 437.162 101C437.145 101 437.128 101 437.112 101C437.095 101 437.078 101 437.062 101C437.045 101 437.028 101 437.012 101C436.995 101 436.978 101 436.961 101C436.945 101 436.928 101 436.911 101C436.895 101 436.878 101 436.861 101C436.845 101 436.828 101 436.811 101C436.795 101 436.778 101 436.761 101C436.745 101 436.728 101 436.711 101C436.695 101 436.678 101 436.661 101C436.645 101 436.628 101 436.611 101C436.595 101 436.578 101 436.561 101C436.544 101 436.528 101 436.511 101C436.494 101 436.478 101 436.461 101C436.444 101 436.428 101 436.411 101C436.394 101 436.378 101 436.361 101C436.344 101 436.328 101 436.311 101C436.294 101 436.278 101 436.261 101C436.244 101 436.228 101 436.211 101C436.194 101 436.178 101 436.161 101C436.144 101 436.128 101 436.111 101C436.094 101 436.077 101 436.061 101C436.044 101 436.027 101 436.011 101C435.994 101 435.977 101 435.961 101C435.944 101 435.927 101 435.911 101C435.894 101 435.877 101 435.861 101C435.844 101 435.827 101 435.811 101C435.794 101 435.777 101 435.761 101C435.744 101 435.727 101 435.711 101C435.694 101 435.677 101 435.66 101C435.644 101 435.627 101 435.61 101C435.594 101 435.577 101 435.56 101C435.544 101 435.527 101 435.51 101C435.494 101 435.477 101 435.46 101C435.444 101 435.427 101 435.41 101C435.394 101 435.377 101 435.36 101C435.344 101 435.327 101 435.31 101C435.294 101 435.277 101 435.26 101C435.243 101 435.227 101 435.21 101C435.193 101 435.177 101 435.16 101C435.143 101 435.127 101 435.11 101C435.093 101 435.077 101 435.06 101C435.043 101 435.027 101 435.01 101C434.993 101 434.977 101 434.96 101C434.943 101 434.927 101 434.91 101C434.893 101 434.877 101 434.86 101C434.843 101 434.827 101 434.81 101C434.793 101 434.776 101 434.76 101C434.743 101 434.726 101 434.71 101C434.693 101 434.676 101 434.66 101C434.643 101 434.626 101 434.61 101C434.593 101 434.576 101 434.56 101C434.543 101 434.526 101 434.51 101C434.493 101 434.476 101 434.46 101C434.443 101 434.426 101 434.41 101C434.393 101 434.376 101 434.359 101C434.343 101 434.326 101 434.309 101C434.293 101 434.276 101 434.259 101C434.243 101 434.226 101 434.209 101C434.193 101 434.176 101 434.159 101C434.143 101 434.126 101 434.109 101C434.093 101 434.076 101 434.059 101C434.043 101 434.026 101 434.009 101C433.993 101 433.976 101 433.959 101C433.942 101 433.926 101 433.909 101C433.892 101 433.876 101 433.859 101C433.842 101 433.826 101 433.809 101C433.792 101 433.776 101 433.759 101C433.742 101 433.726 101 433.709 101C433.692 101 433.676 101 433.659 101C433.642 101 433.626 101 433.609 101C433.592 101 433.576 101 433.559 101C433.542 101 433.525 101 433.509 101C433.492 101 433.475 101 433.459 101C433.442 101 433.425 101 433.409 101C433.392 101 433.375 101 433.359 101C433.342 101 433.325 101 433.309 101C433.292 101 433.275 101 433.259 101C433.242 101 433.225 101 433.209 101C433.192 101 433.175 101 433.159 101C433.142 101 433.125 101 433.108 101C433.092 101 433.075 101 433.058 101C433.042 101 433.025 101 433.008 101C432.992 101 432.975 101 432.958 101C432.942 101 432.925 101 432.908 101C432.892 101 432.875 101 432.858 101C432.842 101 432.825 101 432.808 101C432.792 101 432.775 101 432.758 101C432.742 101 432.725 101 432.708 101C432.691 101 432.675 101 432.658 101C432.641 101 432.625 101 432.608 101C432.591 101 432.575 101 432.558 101C432.541 101 432.525 101 432.508 101C432.491 101 432.475 101 432.458 101C432.441 101 432.425 101 432.408 101C432.391 101 432.375 101 432.358 101C432.341 101 432.325 101 432.308 101C432.291 101 432.275 101 432.258 101C432.241 101 432.224 101 432.208 101C432.191 101 432.174 101 432.158 101C432.141 101 432.124 101 432.108 101C432.091 101 432.074 101 432.058 101V105C432.074 105 432.091 105 432.108 105C432.124 105 432.141 105 432.158 105C432.174 105 432.191 105 432.208 105C432.224 105 432.241 105 432.258 105C432.275 105 432.291 105 432.308 105C432.325 105 432.341 105 432.358 105C432.375 105 432.391 105 432.408 105C432.425 105 432.441 105 432.458 105C432.475 105 432.491 105 432.508 105C432.525 105 432.541 105 432.558 105C432.575 105 432.591 105 432.608 105C432.625 105 432.641 105 432.658 105C432.675 105 432.691 105 432.708 105C432.725 105 432.742 105 432.758 105C432.775 105 432.792 105 432.808 105C432.825 105 432.842 105 432.858 105C432.875 105 432.892 105 432.908 105C432.925 105 432.942 105 432.958 105C432.975 105 432.992 105 433.008 105C433.025 105 433.042 105 433.058 105C433.075 105 433.092 105 433.108 105C433.125 105 433.142 105 433.159 105C433.175 105 433.192 105 433.209 105C433.225 105 433.242 105 433.259 105C433.275 105 433.292 105 433.309 105C433.325 105 433.342 105 433.359 105C433.375 105 433.392 105 433.409 105C433.425 105 433.442 105 433.459 105C433.475 105 433.492 105 433.509 105C433.525 105 433.542 105 433.559 105C433.576 105 433.592 105 433.609 105C433.626 105 433.642 105 433.659 105C433.676 105 433.692 105 433.709 105C433.726 105 433.742 105 433.759 105C433.776 105 433.792 105 433.809 105C433.826 105 433.842 105 433.859 105C433.876 105 433.892 105 433.909 105C433.926 105 433.942 105 433.959 105C433.976 105 433.993 105 434.009 105C434.026 105 434.043 105 434.059 105C434.076 105 434.093 105 434.109 105C434.126 105 434.143 105 434.159 105C434.176 105 434.193 105 434.209 105C434.226 105 434.243 105 434.259 105C434.276 105 434.293 105 434.309 105C434.326 105 434.343 105 434.359 105C434.376 105 434.393 105 434.41 105C434.426 105 434.443 105 434.46 105C434.476 105 434.493 105 434.51 105C434.526 105 434.543 105 434.56 105C434.576 105 434.593 105 434.61 105C434.626 105 434.643 105 434.66 105C434.676 105 434.693 105 434.71 105C434.726 105 434.743 105 434.76 105C434.776 105 434.793 105 434.81 105C434.827 105 434.843 105 434.86 105C434.877 105 434.893 105 434.91 105C434.927 105 434.943 105 434.96 105C434.977 105 434.993 105 435.01 105C435.027 105 435.043 105 435.06 105C435.077 105 435.093 105 435.11 105C435.127 105 435.143 105 435.16 105C435.177 105 435.193 105 435.21 105C435.227 105 435.243 105 435.26 105C435.277 105 435.294 105 435.31 105C435.327 105 435.344 105 435.36 105C435.377 105 435.394 105 435.41 105C435.427 105 435.444 105 435.46 105C435.477 105 435.494 105 435.51 105C435.527 105 435.544 105 435.56 105C435.577 105 435.594 105 435.61 105C435.627 105 435.644 105 435.66 105C435.677 105 435.694 105 435.711 105C435.727 105 435.744 105 435.761 105C435.777 105 435.794 105 435.811 105C435.827 105 435.844 105 435.861 105C435.877 105 435.894 105 435.911 105C435.927 105 435.944 105 435.961 105C435.977 105 435.994 105 436.011 105C436.027 105 436.044 105 436.061 105C436.077 105 436.094 105 436.111 105C436.128 105 436.144 105 436.161 105C436.178 105 436.194 105 436.211 105C436.228 105 436.244 105 436.261 105C436.278 105 436.294 105 436.311 105C436.328 105 436.344 105 436.361 105C436.378 105 436.394 105 436.411 105C436.428 105 436.444 105 436.461 105C436.478 105 436.494 105 436.511 105C436.528 105 436.544 105 436.561 105C436.578 105 436.595 105 436.611 105C436.628 105 436.645 105 436.661 105C436.678 105 436.695 105 436.711 105C436.728 105 436.745 105 436.761 105C436.778 105 436.795 105 436.811 105C436.828 105 436.845 105 436.861 105C436.878 105 436.895 105 436.911 105C436.928 105 436.945 105 436.961 105C436.978 105 436.995 105 437.012 105C437.028 105 437.045 105 437.062 105C437.078 105 437.095 105 437.112 105C437.128 105 437.145 105 437.162 105C437.178 105 437.195 105 437.212 105C437.228 105 437.245 105 437.262 105C437.278 105 437.295 105 437.312 105C437.328 105 437.345 105 437.362 105C437.378 105 437.395 105 437.412 105C437.429 105 437.445 105 437.462 105C437.479 105 437.495 105 437.512 105C437.529 105 437.545 105 437.562 105C437.579 105 437.595 105 437.612 105C437.629 105 437.645 105 437.662 105C437.679 105 437.695 105 437.712 105C437.729 105 437.745 105 437.762 105C437.779 105 437.795 105 437.812 105C437.829 105 437.846 105 437.862 105C437.879 105 437.896 105 437.912 105C437.929 105 437.946 105 437.962 105C437.979 105 437.996 105 438.012 105C438.029 105 438.046 105 438.062 105C438.079 105 438.096 105 438.112 105C438.129 105 438.146 105 438.162 105C438.179 105 438.196 105 438.212 105C438.229 105 438.246 105 438.263 105C438.279 105 438.296 105 438.313 105C438.329 105 438.346 105 438.363 105C438.379 105 438.396 105 438.413 105C438.429 105 438.446 105 438.463 105C438.479 105 438.496 105 438.513 105C438.529 105 438.546 105 438.563 105C438.579 105 438.596 105 438.613 105C438.629 105 438.646 105 438.663 105C438.68 105 438.696 105 438.713 105C438.73 105 438.746 105 438.763 105C438.78 105 438.796 105 438.813 105C438.83 105 438.846 105 438.863 105C438.88 105 438.896 105 438.913 105C438.93 105 438.946 105 438.963 105C438.98 105 438.996 105 439.013 105C439.03 105 439.046 105 439.063 105C439.08 105 439.096 105 439.113 105C439.13 105 439.147 105 439.163 105C439.18 105 439.197 105 439.213 105C439.23 105 439.247 105 439.263 105C439.28 105 439.297 105 439.313 105C439.33 105 439.347 105 439.363 105C439.38 105 439.397 105 439.413 105C439.43 105 439.447 105 439.463 105C439.48 105 439.497 105 439.513 105C439.53 105 439.547 105 439.564 105C439.58 105 439.597 105 439.614 105C439.63 105 439.647 105 439.664 105C439.68 105 439.697 105 439.714 105C439.73 105 439.747 105 439.764 105C439.78 105 439.797 105 439.814 105C439.83 105 439.847 105 439.864 105C439.88 105 439.897 105 439.914 105C439.93 105 439.947 105 439.964 105C439.981 105 439.997 105 440.014 105C440.031 105 440.047 105 440.064 105C440.081 105 440.097 105 440.114 105C440.131 105 440.147 105 440.164 105C440.181 105 440.197 105 440.214 105C440.231 105 440.247 105 440.264 105C440.281 105 440.297 105 440.314 105C440.331 105 440.347 105 440.364 105C440.381 105 440.398 105 440.414 105C440.431 105 440.448 105 440.464 105C440.481 105 440.498 105 440.514 105C440.531 105 440.548 105 440.564 105C440.581 105 440.598 105 440.614 105C440.631 105 440.648 105 440.664 105C440.681 105 440.698 105 440.714 105C440.731 105 440.748 105 440.764 105C440.781 105 440.798 105 440.815 105C440.831 105 440.848 105 440.865 105C440.881 105 440.898 105 440.915 105C440.931 105 440.948 105 440.965 105C440.981 105 440.998 105 441.015 105C441.031 105 441.048 105 441.065 105C441.081 105 441.098 105 441.115 105C441.131 105 441.148 105 441.165 105C441.181 105 441.198 105 441.215 105C441.232 105 441.248 105 441.265 105C441.282 105 441.298 105 441.315 105C441.332 105 441.348 105 441.365 105C441.382 105 441.398 105 441.415 105C441.432 105 441.448 105 441.465 105C441.482 105 441.498 105 441.515 105C441.532 105 441.548 105 441.565 105C441.582 105 441.598 105 441.615 105C441.632 105 441.648 105 441.665 105C441.682 105 441.699 105 441.715 105C441.732 105 441.749 105 441.765 105C441.782 105 441.799 105 441.815 105C441.832 105 441.849 105 441.865 105C441.882 105 441.899 105 441.915 105C441.932 105 441.949 105 441.965 105C441.982 105 441.999 105 442.015 105C442.032 105 442.049 105 442.065 105C442.082 105 442.099 105 442.116 105C442.132 105 442.149 105 442.166 105C442.182 105 442.199 105 442.216 105C442.232 105 442.249 105 442.266 105C442.282 105 442.299 105 442.316 105C442.332 105 442.349 105 442.366 105C442.382 105 442.399 105 442.416 105C442.432 105 442.449 105 442.466 105C442.482 105 442.499 105 442.516 105C442.533 105 442.549 105 442.566 105C442.583 105 442.599 105 442.616 105C442.633 105 442.649 105 442.666 105C442.683 105 442.699 105 442.716 105C442.733 105 442.749 105 442.766 105C442.783 105 442.799 105 442.816 105C442.833 105 442.849 105 442.866 105C442.883 105 442.899 105 442.916 105C442.933 105 442.949 105 442.966 105C442.983 105 443 105 443.016 105C443.033 105 443.05 105 443.066 105C443.083 105 443.1 105 443.116 105C443.133 105 443.15 105 443.166 105C443.183 105 443.2 105 443.216 105C443.233 105 443.25 105 443.266 105C443.283 105 443.3 105 443.316 105C443.333 105 443.35 105 443.366 105C443.383 105 443.4 105 443.417 105C443.433 105 443.45 105 443.467 105C443.483 105 443.5 105 443.517 105C443.533 105 443.55 105 443.567 105C443.583 105 443.6 105 443.617 105C443.633 105 443.65 105 443.667 105C443.683 105 443.7 105 443.717 105C443.733 105 443.75 105 443.767 105C443.783 105 443.8 105 443.817 105C443.834 105 443.85 105 443.867 105C443.884 105 443.9 105 443.917 105C443.934 105 443.95 105 443.967 105C443.984 105 444 105 444.017 105C444.034 105 444.05 105 444.067 105C444.084 105 444.1 105 444.117 105C444.134 105 444.15 105 444.167 105C444.184 105 444.2 105 444.217 105C444.234 105 444.251 105 444.267 105C444.284 105 444.301 105 444.317 105C444.334 105 444.351 105 444.367 105C444.384 105 444.401 105 444.417 105C444.434 105 444.451 105 444.467 105C444.484 105 444.501 105 444.517 105C444.534 105 444.551 105 444.567 105C444.584 105 444.601 105 444.617 105C444.634 105 444.651 105 444.668 105C444.684 105 444.701 105 444.718 105C444.734 105 444.751 105 444.768 105C444.784 105 444.801 105 444.818 105C444.834 105 444.851 105 444.868 105C444.884 105 444.901 105 444.918 105C444.934 105 444.951 105 444.968 105C444.984 105 445.001 105 445.018 105C445.034 105 445.051 105 445.068 105C445.085 105 445.101 105 445.118 105C445.135 105 445.151 105 445.168 105C445.185 105 445.201 105 445.218 105C445.235 105 445.251 105 445.268 105C445.285 105 445.301 105 445.318 105C445.335 105 445.351 105 445.368 105C445.385 105 445.401 105 445.418 105C445.435 105 445.451 105 445.468 105C445.485 105 445.501 105 445.518 105C445.535 105 445.552 105 445.568 105C445.585 105 445.602 105 445.618 105C445.635 105 445.652 105 445.668 105C445.685 105 445.702 105 445.718 105C445.735 105 445.752 105 445.768 105C445.785 105 445.802 105 445.818 105C445.835 105 445.852 105 445.868 105C445.885 105 445.902 105 445.918 105C445.935 105 445.952 105 445.969 105C445.985 105 446.002 105 446.019 105C446.035 105 446.052 105 446.069 105C446.085 105 446.102 105 446.119 105C446.135 105 446.152 105 446.169 105C446.185 105 446.202 105 446.219 105C446.235 105 446.252 105 446.269 105C446.285 105 446.302 105 446.319 105C446.335 105 446.352 105 446.369 105C446.386 105 446.402 105 446.419 105C446.436 105 446.452 105 446.469 105C446.486 105 446.502 105 446.519 105C446.536 105 446.552 105 446.569 105C446.586 105 446.602 105 446.619 105C446.636 105 446.652 105 446.669 105C446.686 105 446.702 105 446.719 105C446.736 105 446.752 105 446.769 105C446.786 105 446.803 105 446.819 105C446.836 105 446.853 105 446.869 105C446.886 105 446.903 105 446.919 105C446.936 105 446.953 105 446.969 105C446.986 105 447.003 105 447.019 105C447.036 105 447.053 105 447.069 105C447.086 105 447.103 105 447.119 105C447.136 105 447.153 105 447.169 105C447.186 105 447.203 105 447.22 105C447.236 105 447.253 105 447.27 105C447.286 105 447.303 105 447.32 105C447.336 105 447.353 105 447.37 105C447.386 105 447.403 105 447.42 105C447.436 105 447.453 105 447.47 105C447.486 105 447.503 105 447.52 105C447.536 105 447.553 105 447.57 105C447.586 105 447.603 105 447.62 105C447.637 105 447.653 105 447.67 105C447.687 105 447.703 105 447.72 105C447.737 105 447.753 105 447.77 105C447.787 105 447.803 105 447.82 105C447.837 105 447.853 105 447.87 105C447.887 105 447.903 105 447.92 105C447.937 105 447.953 105 447.97 105C447.987 105 448.003 105 448.02 105C448.037 105 448.053 105 448.07 105C448.087 105 448.104 105 448.12 105C448.137 105 448.154 105 448.17 105C448.187 105 448.204 105 448.22 105C448.237 105 448.254 105 448.27 105C448.287 105 448.304 105 448.32 105C448.337 105 448.354 105 448.37 105C448.387 105 448.404 105 448.42 105C448.437 105 448.454 105 448.47 105C448.487 105 448.504 105 448.521 105C448.537 105 448.554 105 448.571 105C448.587 105 448.604 105 448.621 105C448.637 105 448.654 105 448.671 105C448.687 105 448.704 105 448.721 105C448.737 105 448.754 105 448.771 105C448.787 105 448.804 105 448.821 105C448.837 105 448.854 105 448.871 105C448.887 105 448.904 105 448.921 105C448.938 105 448.954 105 448.971 105C448.988 105 449.004 105 449.021 105C449.038 105 449.054 105 449.071 105C449.088 105 449.104 105 449.121 105C449.138 105 449.154 105 449.171 105C449.188 105 449.204 105 449.221 105C449.238 105 449.254 105 449.271 105C449.288 105 449.304 105 449.321 105C449.338 105 449.354 105 449.371 105C449.388 105 449.405 105 449.421 105C449.438 105 449.455 105 449.471 105C449.488 105 449.505 105 449.521 105C449.538 105 449.555 105 449.571 105C449.588 105 449.605 105 449.621 105C449.638 105 449.655 105 449.671 105C449.688 105 449.705 105 449.721 105C449.738 105 449.755 105 449.771 105C449.788 105 449.805 105 449.822 105C449.838 105 449.855 105 449.872 105C449.888 105 449.905 105 449.922 105C449.938 105 449.955 105 449.972 105C449.988 105 450.005 105 450.022 105C450.038 105 450.055 105 450.072 105C450.088 105 450.105 105 450.122 105C450.138 105 450.155 105 450.172 105C450.188 105 450.205 105 450.222 105C450.239 105 450.255 105 450.272 105C450.289 105 450.305 105 450.322 105C450.339 105 450.355 105 450.372 105C450.389 105 450.405 105 450.422 105C450.439 105 450.455 105 450.472 105C450.489 105 450.505 105 450.522 105C450.539 105 450.555 105 450.572 105C450.589 105 450.605 105 450.622 105C450.639 105 450.656 105 450.672 105C450.689 105 450.706 105 450.722 105C450.739 105 450.756 105 450.772 105C450.789 105 450.806 105 450.822 105C450.839 105 450.856 105 450.872 105C450.889 105 450.906 105 450.922 105C450.939 105 450.956 105 450.972 105C450.989 105 451.006 105 451.022 105C451.039 105 451.056 105 451.073 105C451.089 105 451.106 105 451.123 105C451.139 105 451.156 105 451.173 105C451.189 105 451.206 105 451.223 105C451.239 105 451.256 105 451.273 105C451.289 105 451.306 105 451.323 105C451.339 105 451.356 105 451.373 105C451.389 105 451.406 105 451.423 105C451.439 105 451.456 105 451.473 105C451.49 105 451.506 105 451.523 105C451.54 105 451.556 105 451.573 105C451.59 105 451.606 105 451.623 105C451.64 105 451.656 105 451.673 105C451.69 105 451.706 105 451.723 105C451.74 105 451.756 105 451.773 105C451.79 105 451.806 105 451.823 105C451.84 105 451.856 105 451.873 105C451.89 105 451.906 105 451.923 105C451.94 105 451.957 105 451.973 105C451.99 105 452.007 105 452.023 105C452.04 105 452.057 105 452.073 105C452.09 105 452.107 105 452.123 105C452.14 105 452.157 105 452.173 105C452.19 105 452.207 105 452.223 105C452.24 105 452.257 105 452.273 105C452.29 105 452.307 105 452.323 105C452.34 105 452.357 105 452.374 105C452.39 105 452.407 105 452.424 105C452.44 105 452.457 105 452.474 105C452.49 105 452.507 105 452.524 105C452.54 105 452.557 105 452.574 105C452.59 105 452.607 105 452.624 105C452.64 105 452.657 105 452.674 105C452.69 105 452.707 105 452.724 105C452.74 105 452.757 105 452.774 105C452.791 105 452.807 105 452.824 105C452.841 105 452.857 105 452.874 105C452.891 105 452.907 105 452.924 105C452.941 105 452.957 105 452.974 105C452.991 105 453.007 105 453.024 105C453.041 105 453.057 105 453.074 105C453.091 105 453.107 105 453.124 105C453.141 105 453.157 105 453.174 105C453.191 105 453.208 105 453.224 105C453.241 105 453.258 105 453.274 105C453.291 105 453.308 105 453.324 105C453.341 105 453.358 105 453.374 105C453.391 105 453.408 105 453.424 105C453.441 105 453.458 105 453.474 105C453.491 105 453.508 105 453.524 105C453.541 105 453.558 105 453.574 105C453.591 105 453.608 105 453.625 105C453.641 105 453.658 105 453.675 105C453.691 105 453.708 105 453.725 105C453.741 105 453.758 105 453.775 105C453.791 105 453.808 105 453.825 105C453.841 105 453.858 105 453.875 105C453.891 105 453.908 105 453.925 105C453.941 105 453.958 105 453.975 105C453.991 105 454.008 105 454.025 105C454.042 105 454.058 105 454.075 105C454.092 105 454.108 105 454.125 105C454.142 105 454.158 105 454.175 105C454.192 105 454.208 105 454.225 105C454.242 105 454.258 105 454.275 105C454.292 105 454.308 105 454.325 105C454.342 105 454.358 105 454.375 105C454.392 105 454.408 105 454.425 105C454.442 105 454.458 105 454.475 105C454.492 105 454.509 105 454.525 105C454.542 105 454.559 105 454.575 105C454.592 105 454.609 105 454.625 105C454.642 105 454.659 105 454.675 105C454.692 105 454.709 105 454.725 105C454.742 105 454.759 105 454.775 105C454.792 105 454.809 105 454.825 105C454.842 105 454.859 105 454.875 105C454.892 105 454.909 105 454.926 105C454.942 105 454.959 105 454.976 105C454.992 105 455.009 105 455.026 105C455.042 105 455.059 105 455.076 105C455.092 105 455.109 105 455.126 105C455.142 105 455.159 105 455.176 105C455.192 105 455.209 105 455.226 105C455.242 105 455.259 105 455.276 105C455.292 105 455.309 105 455.326 105C455.342 105 455.359 105 455.376 105C455.393 105 455.409 105 455.426 105C455.443 105 455.459 105 455.476 105C455.493 105 455.509 105 455.526 105C455.543 105 455.559 105 455.576 105C455.593 105 455.609 105 455.626 105C455.643 105 455.659 105 455.676 105C455.693 105 455.709 105 455.726 105C455.743 105 455.759 105 455.776 105C455.793 105 455.81 105 455.826 105C455.843 105 455.86 105 455.876 105C455.893 105 455.91 105 455.926 105C455.943 105 455.96 105 455.976 105C455.993 105 456.01 105 456.026 105C456.043 105 456.06 105 456.076 105C456.093 105 456.11 105 456.126 105C456.143 105 456.16 105 456.176 105C456.193 105 456.21 105 456.227 105C456.243 105 456.26 105 456.277 105C456.293 105 456.31 105 456.327 105C456.343 105 456.36 105 456.377 105C456.393 105 456.41 105 456.427 105C456.443 105 456.46 105 456.477 105C456.493 105 456.51 105 456.527 105C456.543 105 456.56 105 456.577 105C456.593 105 456.61 105 456.627 105C456.644 105 456.66 105 456.677 105C456.694 105 456.71 105 456.727 105C456.744 105 456.76 105 456.777 105C456.794 105 456.81 105 456.827 105C456.844 105 456.86 105 456.877 105C456.894 105 456.91 105 456.927 105C456.944 105 456.96 105 456.977 105C456.994 105 457.01 105 457.027 105C457.044 105 457.061 105 457.077 105C457.094 105 457.111 105 457.127 105C457.144 105 457.161 105 457.177 105C457.194 105 457.211 105 457.227 105C457.244 105 457.261 105 457.277 105C457.294 105 457.311 105 457.327 105C457.344 105 457.361 105 457.377 105C457.394 105 457.411 105 457.427 105C457.444 105 457.461 105 457.478 105C457.494 105 457.511 105 457.528 105C457.544 105 457.561 105 457.578 105C457.594 105 457.611 105 457.628 105C457.644 105 457.661 105 457.678 105V101ZM434.058 103V28.1H430.058V103H434.058ZM432.058 26.1H401.818V30.1H432.058V26.1ZM399.818 28.1V103H403.818V28.1H399.818ZM401.818 101C401.801 101 401.784 101 401.768 101C401.751 101 401.734 101 401.718 101C401.701 101 401.684 101 401.668 101C401.651 101 401.634 101 401.618 101C401.601 101 401.584 101 401.567 101C401.551 101 401.534 101 401.517 101C401.501 101 401.484 101 401.467 101C401.451 101 401.434 101 401.417 101C401.401 101 401.384 101 401.367 101C401.351 101 401.334 101 401.317 101C401.301 101 401.284 101 401.267 101C401.251 101 401.234 101 401.217 101C401.201 101 401.184 101 401.167 101C401.15 101 401.134 101 401.117 101C401.1 101 401.084 101 401.067 101C401.05 101 401.034 101 401.017 101C401 101 400.984 101 400.967 101C400.95 101 400.934 101 400.917 101C400.9 101 400.884 101 400.867 101C400.85 101 400.834 101 400.817 101C400.8 101 400.784 101 400.767 101C400.75 101 400.733 101 400.717 101C400.7 101 400.683 101 400.667 101C400.65 101 400.633 101 400.617 101C400.6 101 400.583 101 400.567 101C400.55 101 400.533 101 400.517 101C400.5 101 400.483 101 400.467 101C400.45 101 400.433 101 400.417 101C400.4 101 400.383 101 400.367 101C400.35 101 400.333 101 400.316 101C400.3 101 400.283 101 400.266 101C400.25 101 400.233 101 400.216 101C400.2 101 400.183 101 400.166 101C400.15 101 400.133 101 400.116 101C400.1 101 400.083 101 400.066 101C400.05 101 400.033 101 400.016 101C400 101 399.983 101 399.966 101C399.95 101 399.933 101 399.916 101C399.9 101 399.883 101 399.866 101C399.849 101 399.833 101 399.816 101C399.799 101 399.783 101 399.766 101C399.749 101 399.733 101 399.716 101C399.699 101 399.683 101 399.666 101C399.649 101 399.633 101 399.616 101C399.599 101 399.583 101 399.566 101C399.549 101 399.533 101 399.516 101C399.499 101 399.483 101 399.466 101C399.449 101 399.432 101 399.416 101C399.399 101 399.382 101 399.366 101C399.349 101 399.332 101 399.316 101C399.299 101 399.282 101 399.266 101C399.249 101 399.232 101 399.216 101C399.199 101 399.182 101 399.166 101C399.149 101 399.132 101 399.116 101C399.099 101 399.082 101 399.066 101C399.049 101 399.032 101 399.015 101C398.999 101 398.982 101 398.965 101C398.949 101 398.932 101 398.915 101C398.899 101 398.882 101 398.865 101C398.849 101 398.832 101 398.815 101C398.799 101 398.782 101 398.765 101C398.749 101 398.732 101 398.715 101C398.699 101 398.682 101 398.665 101C398.649 101 398.632 101 398.615 101C398.598 101 398.582 101 398.565 101C398.548 101 398.532 101 398.515 101C398.498 101 398.482 101 398.465 101C398.448 101 398.432 101 398.415 101C398.398 101 398.382 101 398.365 101C398.348 101 398.332 101 398.315 101C398.298 101 398.282 101 398.265 101C398.248 101 398.232 101 398.215 101C398.198 101 398.181 101 398.165 101C398.148 101 398.131 101 398.115 101C398.098 101 398.081 101 398.065 101C398.048 101 398.031 101 398.015 101C397.998 101 397.981 101 397.965 101C397.948 101 397.931 101 397.915 101C397.898 101 397.881 101 397.865 101C397.848 101 397.831 101 397.815 101C397.798 101 397.781 101 397.764 101C397.748 101 397.731 101 397.714 101C397.698 101 397.681 101 397.664 101C397.648 101 397.631 101 397.614 101C397.598 101 397.581 101 397.564 101C397.548 101 397.531 101 397.514 101C397.498 101 397.481 101 397.464 101C397.448 101 397.431 101 397.414 101C397.398 101 397.381 101 397.364 101C397.348 101 397.331 101 397.314 101C397.297 101 397.281 101 397.264 101C397.247 101 397.231 101 397.214 101C397.197 101 397.181 101 397.164 101C397.147 101 397.131 101 397.114 101C397.097 101 397.081 101 397.064 101C397.047 101 397.031 101 397.014 101C396.997 101 396.981 101 396.964 101C396.947 101 396.931 101 396.914 101C396.897 101 396.88 101 396.864 101C396.847 101 396.83 101 396.814 101C396.797 101 396.78 101 396.764 101C396.747 101 396.73 101 396.714 101C396.697 101 396.68 101 396.664 101C396.647 101 396.63 101 396.614 101C396.597 101 396.58 101 396.564 101C396.547 101 396.53 101 396.514 101C396.497 101 396.48 101 396.463 101C396.447 101 396.43 101 396.413 101C396.397 101 396.38 101 396.363 101C396.347 101 396.33 101 396.313 101C396.297 101 396.28 101 396.263 101C396.247 101 396.23 101 396.213 101C396.197 101 396.18 101 396.163 101C396.147 101 396.13 101 396.113 101C396.097 101 396.08 101 396.063 101C396.046 101 396.03 101 396.013 101C395.996 101 395.98 101 395.963 101C395.946 101 395.93 101 395.913 101C395.896 101 395.88 101 395.863 101C395.846 101 395.83 101 395.813 101C395.796 101 395.78 101 395.763 101C395.746 101 395.73 101 395.713 101C395.696 101 395.68 101 395.663 101C395.646 101 395.629 101 395.613 101C395.596 101 395.579 101 395.563 101C395.546 101 395.529 101 395.513 101C395.496 101 395.479 101 395.463 101C395.446 101 395.429 101 395.413 101C395.396 101 395.379 101 395.363 101C395.346 101 395.329 101 395.313 101C395.296 101 395.279 101 395.263 101C395.246 101 395.229 101 395.212 101C395.196 101 395.179 101 395.162 101C395.146 101 395.129 101 395.112 101C395.096 101 395.079 101 395.062 101C395.046 101 395.029 101 395.012 101C394.996 101 394.979 101 394.962 101C394.946 101 394.929 101 394.912 101C394.896 101 394.879 101 394.862 101C394.846 101 394.829 101 394.812 101C394.796 101 394.779 101 394.762 101C394.745 101 394.729 101 394.712 101C394.695 101 394.679 101 394.662 101C394.645 101 394.629 101 394.612 101C394.595 101 394.579 101 394.562 101C394.545 101 394.529 101 394.512 101C394.495 101 394.479 101 394.462 101C394.445 101 394.429 101 394.412 101C394.395 101 394.379 101 394.362 101C394.345 101 394.328 101 394.312 101C394.295 101 394.278 101 394.262 101C394.245 101 394.228 101 394.212 101C394.195 101 394.178 101 394.162 101C394.145 101 394.128 101 394.112 101C394.095 101 394.078 101 394.062 101C394.045 101 394.028 101 394.012 101C393.995 101 393.978 101 393.962 101C393.945 101 393.928 101 393.911 101C393.895 101 393.878 101 393.861 101C393.845 101 393.828 101 393.811 101C393.795 101 393.778 101 393.761 101C393.745 101 393.728 101 393.711 101C393.695 101 393.678 101 393.661 101C393.645 101 393.628 101 393.611 101C393.595 101 393.578 101 393.561 101C393.545 101 393.528 101 393.511 101C393.495 101 393.478 101 393.461 101C393.444 101 393.428 101 393.411 101C393.394 101 393.378 101 393.361 101C393.344 101 393.328 101 393.311 101C393.294 101 393.278 101 393.261 101C393.244 101 393.228 101 393.211 101C393.194 101 393.178 101 393.161 101C393.144 101 393.128 101 393.111 101C393.094 101 393.078 101 393.061 101C393.044 101 393.027 101 393.011 101C392.994 101 392.977 101 392.961 101C392.944 101 392.927 101 392.911 101C392.894 101 392.877 101 392.861 101C392.844 101 392.827 101 392.811 101C392.794 101 392.777 101 392.761 101C392.744 101 392.727 101 392.711 101C392.694 101 392.677 101 392.661 101C392.644 101 392.627 101 392.61 101C392.594 101 392.577 101 392.56 101C392.544 101 392.527 101 392.51 101C392.494 101 392.477 101 392.46 101C392.444 101 392.427 101 392.41 101C392.394 101 392.377 101 392.36 101C392.344 101 392.327 101 392.31 101C392.294 101 392.277 101 392.26 101C392.244 101 392.227 101 392.21 101C392.193 101 392.177 101 392.16 101C392.143 101 392.127 101 392.11 101C392.093 101 392.077 101 392.06 101C392.043 101 392.027 101 392.01 101C391.993 101 391.977 101 391.96 101C391.943 101 391.927 101 391.91 101C391.893 101 391.877 101 391.86 101C391.843 101 391.827 101 391.81 101C391.793 101 391.776 101 391.76 101C391.743 101 391.726 101 391.71 101C391.693 101 391.676 101 391.66 101C391.643 101 391.626 101 391.61 101C391.593 101 391.576 101 391.56 101C391.543 101 391.526 101 391.51 101C391.493 101 391.476 101 391.46 101C391.443 101 391.426 101 391.41 101C391.393 101 391.376 101 391.359 101C391.343 101 391.326 101 391.309 101C391.293 101 391.276 101 391.259 101C391.243 101 391.226 101 391.209 101C391.193 101 391.176 101 391.159 101C391.143 101 391.126 101 391.109 101C391.093 101 391.076 101 391.059 101C391.043 101 391.026 101 391.009 101C390.993 101 390.976 101 390.959 101C390.943 101 390.926 101 390.909 101C390.892 101 390.876 101 390.859 101C390.842 101 390.826 101 390.809 101C390.792 101 390.776 101 390.759 101C390.742 101 390.726 101 390.709 101C390.692 101 390.676 101 390.659 101C390.642 101 390.626 101 390.609 101C390.592 101 390.576 101 390.559 101C390.542 101 390.526 101 390.509 101C390.492 101 390.475 101 390.459 101C390.442 101 390.425 101 390.409 101C390.392 101 390.375 101 390.359 101C390.342 101 390.325 101 390.309 101C390.292 101 390.275 101 390.259 101C390.242 101 390.225 101 390.209 101C390.192 101 390.175 101 390.159 101C390.142 101 390.125 101 390.109 101C390.092 101 390.075 101 390.058 101C390.042 101 390.025 101 390.008 101C389.992 101 389.975 101 389.958 101C389.942 101 389.925 101 389.908 101C389.892 101 389.875 101 389.858 101C389.842 101 389.825 101 389.808 101C389.792 101 389.775 101 389.758 101C389.742 101 389.725 101 389.708 101C389.692 101 389.675 101 389.658 101C389.641 101 389.625 101 389.608 101C389.591 101 389.575 101 389.558 101C389.541 101 389.525 101 389.508 101C389.491 101 389.475 101 389.458 101C389.441 101 389.425 101 389.408 101C389.391 101 389.375 101 389.358 101C389.341 101 389.325 101 389.308 101C389.291 101 389.275 101 389.258 101C389.241 101 389.224 101 389.208 101C389.191 101 389.174 101 389.158 101C389.141 101 389.124 101 389.108 101C389.091 101 389.074 101 389.058 101C389.041 101 389.024 101 389.008 101C388.991 101 388.974 101 388.958 101C388.941 101 388.924 101 388.908 101C388.891 101 388.874 101 388.858 101C388.841 101 388.824 101 388.807 101C388.791 101 388.774 101 388.757 101C388.741 101 388.724 101 388.707 101C388.691 101 388.674 101 388.657 101C388.641 101 388.624 101 388.607 101C388.591 101 388.574 101 388.557 101C388.541 101 388.524 101 388.507 101C388.491 101 388.474 101 388.457 101C388.441 101 388.424 101 388.407 101C388.391 101 388.374 101 388.357 101C388.34 101 388.324 101 388.307 101C388.29 101 388.274 101 388.257 101C388.24 101 388.224 101 388.207 101C388.19 101 388.174 101 388.157 101C388.14 101 388.124 101 388.107 101C388.09 101 388.074 101 388.057 101C388.04 101 388.024 101 388.007 101C387.99 101 387.974 101 387.957 101C387.94 101 387.923 101 387.907 101C387.89 101 387.873 101 387.857 101C387.84 101 387.823 101 387.807 101C387.79 101 387.773 101 387.757 101C387.74 101 387.723 101 387.707 101C387.69 101 387.673 101 387.657 101C387.64 101 387.623 101 387.607 101C387.59 101 387.573 101 387.557 101C387.54 101 387.523 101 387.507 101C387.49 101 387.473 101 387.456 101C387.44 101 387.423 101 387.406 101C387.39 101 387.373 101 387.356 101C387.34 101 387.323 101 387.306 101C387.29 101 387.273 101 387.256 101C387.24 101 387.223 101 387.206 101C387.19 101 387.173 101 387.156 101C387.14 101 387.123 101 387.106 101C387.09 101 387.073 101 387.056 101C387.039 101 387.023 101 387.006 101C386.989 101 386.973 101 386.956 101C386.939 101 386.923 101 386.906 101C386.889 101 386.873 101 386.856 101C386.839 101 386.823 101 386.806 101C386.789 101 386.773 101 386.756 101C386.739 101 386.723 101 386.706 101C386.689 101 386.673 101 386.656 101C386.639 101 386.622 101 386.606 101C386.589 101 386.572 101 386.556 101C386.539 101 386.522 101 386.506 101C386.489 101 386.472 101 386.456 101C386.439 101 386.422 101 386.406 101C386.389 101 386.372 101 386.356 101C386.339 101 386.322 101 386.306 101C386.289 101 386.272 101 386.256 101C386.239 101 386.222 101 386.205 101C386.189 101 386.172 101 386.155 101C386.139 101 386.122 101 386.105 101C386.089 101 386.072 101 386.055 101C386.039 101 386.022 101 386.005 101C385.989 101 385.972 101 385.955 101C385.939 101 385.922 101 385.905 101C385.889 101 385.872 101 385.855 101C385.839 101 385.822 101 385.805 101C385.788 101 385.772 101 385.755 101C385.738 101 385.722 101 385.705 101C385.688 101 385.672 101 385.655 101C385.638 101 385.622 101 385.605 101C385.588 101 385.572 101 385.555 101C385.538 101 385.522 101 385.505 101C385.488 101 385.472 101 385.455 101C385.438 101 385.422 101 385.405 101C385.388 101 385.371 101 385.355 101C385.338 101 385.321 101 385.305 101C385.288 101 385.271 101 385.255 101C385.238 101 385.221 101 385.205 101C385.188 101 385.171 101 385.155 101C385.138 101 385.121 101 385.105 101C385.088 101 385.071 101 385.055 101C385.038 101 385.021 101 385.005 101C384.988 101 384.971 101 384.954 101C384.938 101 384.921 101 384.904 101C384.888 101 384.871 101 384.854 101C384.838 101 384.821 101 384.804 101C384.788 101 384.771 101 384.754 101C384.738 101 384.721 101 384.704 101C384.688 101 384.671 101 384.654 101C384.638 101 384.621 101 384.604 101C384.588 101 384.571 101 384.554 101C384.538 101 384.521 101 384.504 101C384.487 101 384.471 101 384.454 101C384.437 101 384.421 101 384.404 101C384.387 101 384.371 101 384.354 101C384.337 101 384.321 101 384.304 101C384.287 101 384.271 101 384.254 101C384.237 101 384.221 101 384.204 101C384.187 101 384.171 101 384.154 101C384.137 101 384.121 101 384.104 101C384.087 101 384.07 101 384.054 101C384.037 101 384.02 101 384.004 101C383.987 101 383.97 101 383.954 101C383.937 101 383.92 101 383.904 101C383.887 101 383.87 101 383.854 101C383.837 101 383.82 101 383.804 101C383.787 101 383.77 101 383.754 101C383.737 101 383.72 101 383.704 101C383.687 101 383.67 101 383.653 101C383.637 101 383.62 101 383.603 101C383.587 101 383.57 101 383.553 101C383.537 101 383.52 101 383.503 101C383.487 101 383.47 101 383.453 101C383.437 101 383.42 101 383.403 101C383.387 101 383.37 101 383.353 101C383.337 101 383.32 101 383.303 101C383.287 101 383.27 101 383.253 101C383.236 101 383.22 101 383.203 101C383.186 101 383.17 101 383.153 101C383.136 101 383.12 101 383.103 101C383.086 101 383.07 101 383.053 101C383.036 101 383.02 101 383.003 101C382.986 101 382.97 101 382.953 101C382.936 101 382.92 101 382.903 101C382.886 101 382.87 101 382.853 101C382.836 101 382.819 101 382.803 101C382.786 101 382.769 101 382.753 101C382.736 101 382.719 101 382.703 101C382.686 101 382.669 101 382.653 101C382.636 101 382.619 101 382.603 101C382.586 101 382.569 101 382.553 101C382.536 101 382.519 101 382.503 101C382.486 101 382.469 101 382.453 101C382.436 101 382.419 101 382.402 101C382.386 101 382.369 101 382.352 101C382.336 101 382.319 101 382.302 101C382.286 101 382.269 101 382.252 101C382.236 101 382.219 101 382.202 101C382.186 101 382.169 101 382.152 101C382.136 101 382.119 101 382.102 101C382.086 101 382.069 101 382.052 101C382.036 101 382.019 101 382.002 101C381.986 101 381.969 101 381.952 101C381.935 101 381.919 101 381.902 101C381.885 101 381.869 101 381.852 101C381.835 101 381.819 101 381.802 101C381.785 101 381.769 101 381.752 101C381.735 101 381.719 101 381.702 101C381.685 101 381.669 101 381.652 101C381.635 101 381.619 101 381.602 101C381.585 101 381.569 101 381.552 101C381.535 101 381.518 101 381.502 101C381.485 101 381.468 101 381.452 101C381.435 101 381.418 101 381.402 101C381.385 101 381.368 101 381.352 101C381.335 101 381.318 101 381.302 101C381.285 101 381.268 101 381.252 101C381.235 101 381.218 101 381.202 101C381.185 101 381.168 101 381.152 101C381.135 101 381.118 101 381.102 101C381.085 101 381.068 101 381.051 101C381.035 101 381.018 101 381.001 101C380.985 101 380.968 101 380.951 101C380.935 101 380.918 101 380.901 101C380.885 101 380.868 101 380.851 101C380.835 101 380.818 101 380.801 101C380.785 101 380.768 101 380.751 101C380.735 101 380.718 101 380.701 101C380.685 101 380.668 101 380.651 101C380.634 101 380.618 101 380.601 101C380.584 101 380.568 101 380.551 101C380.534 101 380.518 101 380.501 101C380.484 101 380.468 101 380.451 101C380.434 101 380.418 101 380.401 101C380.384 101 380.368 101 380.351 101C380.334 101 380.318 101 380.301 101C380.284 101 380.268 101 380.251 101C380.234 101 380.217 101 380.201 101C380.184 101 380.167 101 380.151 101C380.134 101 380.117 101 380.101 101C380.084 101 380.067 101 380.051 101C380.034 101 380.017 101 380.001 101C379.984 101 379.967 101 379.951 101C379.934 101 379.917 101 379.901 101C379.884 101 379.867 101 379.851 101C379.834 101 379.817 101 379.8 101C379.784 101 379.767 101 379.75 101C379.734 101 379.717 101 379.7 101C379.684 101 379.667 101 379.65 101C379.634 101 379.617 101 379.6 101C379.584 101 379.567 101 379.55 101C379.534 101 379.517 101 379.5 101C379.484 101 379.467 101 379.45 101C379.434 101 379.417 101 379.4 101C379.383 101 379.367 101 379.35 101C379.333 101 379.317 101 379.3 101C379.283 101 379.267 101 379.25 101C379.233 101 379.217 101 379.2 101C379.183 101 379.167 101 379.15 101C379.133 101 379.117 101 379.1 101C379.083 101 379.067 101 379.05 101C379.033 101 379.017 101 379 101C378.983 101 378.966 101 378.95 101C378.933 101 378.916 101 378.9 101C378.883 101 378.866 101 378.85 101C378.833 101 378.816 101 378.8 101C378.783 101 378.766 101 378.75 101C378.733 101 378.716 101 378.7 101C378.683 101 378.666 101 378.65 101C378.633 101 378.616 101 378.6 101C378.583 101 378.566 101 378.549 101C378.533 101 378.516 101 378.499 101C378.483 101 378.466 101 378.449 101C378.433 101 378.416 101 378.399 101C378.383 101 378.366 101 378.349 101C378.333 101 378.316 101 378.299 101C378.283 101 378.266 101 378.249 101C378.233 101 378.216 101 378.199 101C378.183 101 378.166 101 378.149 101C378.133 101 378.116 101 378.099 101C378.082 101 378.066 101 378.049 101C378.032 101 378.016 101 377.999 101C377.982 101 377.966 101 377.949 101C377.932 101 377.916 101 377.899 101C377.882 101 377.866 101 377.849 101C377.832 101 377.816 101 377.799 101C377.782 101 377.766 101 377.749 101C377.732 101 377.716 101 377.699 101C377.682 101 377.665 101 377.649 101C377.632 101 377.615 101 377.599 101C377.582 101 377.565 101 377.549 101C377.532 101 377.515 101 377.499 101C377.482 101 377.465 101 377.449 101C377.432 101 377.415 101 377.399 101C377.382 101 377.365 101 377.349 101C377.332 101 377.315 101 377.299 101C377.282 101 377.265 101 377.248 101C377.232 101 377.215 101 377.198 101C377.182 101 377.165 101 377.148 101C377.132 101 377.115 101 377.098 101C377.082 101 377.065 101 377.048 101C377.032 101 377.015 101 376.998 101C376.982 101 376.965 101 376.948 101C376.932 101 376.915 101 376.898 101C376.882 101 376.865 101 376.848 101C376.831 101 376.815 101 376.798 101C376.781 101 376.765 101 376.748 101C376.731 101 376.715 101 376.698 101C376.681 101 376.665 101 376.648 101C376.631 101 376.615 101 376.598 101C376.581 101 376.565 101 376.548 101C376.531 101 376.515 101 376.498 101C376.481 101 376.465 101 376.448 101C376.431 101 376.414 101 376.398 101C376.381 101 376.364 101 376.348 101C376.331 101 376.314 101 376.298 101C376.281 101 376.264 101 376.248 101C376.231 101 376.214 101 376.198 101V105C376.214 105 376.231 105 376.248 105C376.264 105 376.281 105 376.298 105C376.314 105 376.331 105 376.348 105C376.364 105 376.381 105 376.398 105C376.414 105 376.431 105 376.448 105C376.465 105 376.481 105 376.498 105C376.515 105 376.531 105 376.548 105C376.565 105 376.581 105 376.598 105C376.615 105 376.631 105 376.648 105C376.665 105 376.681 105 376.698 105C376.715 105 376.731 105 376.748 105C376.765 105 376.781 105 376.798 105C376.815 105 376.831 105 376.848 105C376.865 105 376.882 105 376.898 105C376.915 105 376.932 105 376.948 105C376.965 105 376.982 105 376.998 105C377.015 105 377.032 105 377.048 105C377.065 105 377.082 105 377.098 105C377.115 105 377.132 105 377.148 105C377.165 105 377.182 105 377.198 105C377.215 105 377.232 105 377.248 105C377.265 105 377.282 105 377.299 105C377.315 105 377.332 105 377.349 105C377.365 105 377.382 105 377.399 105C377.415 105 377.432 105 377.449 105C377.465 105 377.482 105 377.499 105C377.515 105 377.532 105 377.549 105C377.565 105 377.582 105 377.599 105C377.615 105 377.632 105 377.649 105C377.665 105 377.682 105 377.699 105C377.716 105 377.732 105 377.749 105C377.766 105 377.782 105 377.799 105C377.816 105 377.832 105 377.849 105C377.866 105 377.882 105 377.899 105C377.916 105 377.932 105 377.949 105C377.966 105 377.982 105 377.999 105C378.016 105 378.032 105 378.049 105C378.066 105 378.082 105 378.099 105C378.116 105 378.133 105 378.149 105C378.166 105 378.183 105 378.199 105C378.216 105 378.233 105 378.249 105C378.266 105 378.283 105 378.299 105C378.316 105 378.333 105 378.349 105C378.366 105 378.383 105 378.399 105C378.416 105 378.433 105 378.449 105C378.466 105 378.483 105 378.499 105C378.516 105 378.533 105 378.549 105C378.566 105 378.583 105 378.6 105C378.616 105 378.633 105 378.65 105C378.666 105 378.683 105 378.7 105C378.716 105 378.733 105 378.75 105C378.766 105 378.783 105 378.8 105C378.816 105 378.833 105 378.85 105C378.866 105 378.883 105 378.9 105C378.916 105 378.933 105 378.95 105C378.966 105 378.983 105 379 105C379.017 105 379.033 105 379.05 105C379.067 105 379.083 105 379.1 105C379.117 105 379.133 105 379.15 105C379.167 105 379.183 105 379.2 105C379.217 105 379.233 105 379.25 105C379.267 105 379.283 105 379.3 105C379.317 105 379.333 105 379.35 105C379.367 105 379.383 105 379.4 105C379.417 105 379.434 105 379.45 105C379.467 105 379.484 105 379.5 105C379.517 105 379.534 105 379.55 105C379.567 105 379.584 105 379.6 105C379.617 105 379.634 105 379.65 105C379.667 105 379.684 105 379.7 105C379.717 105 379.734 105 379.75 105C379.767 105 379.784 105 379.8 105C379.817 105 379.834 105 379.851 105C379.867 105 379.884 105 379.901 105C379.917 105 379.934 105 379.951 105C379.967 105 379.984 105 380.001 105C380.017 105 380.034 105 380.051 105C380.067 105 380.084 105 380.101 105C380.117 105 380.134 105 380.151 105C380.167 105 380.184 105 380.201 105C380.217 105 380.234 105 380.251 105C380.268 105 380.284 105 380.301 105C380.318 105 380.334 105 380.351 105C380.368 105 380.384 105 380.401 105C380.418 105 380.434 105 380.451 105C380.468 105 380.484 105 380.501 105C380.518 105 380.534 105 380.551 105C380.568 105 380.584 105 380.601 105C380.618 105 380.634 105 380.651 105C380.668 105 380.685 105 380.701 105C380.718 105 380.735 105 380.751 105C380.768 105 380.785 105 380.801 105C380.818 105 380.835 105 380.851 105C380.868 105 380.885 105 380.901 105C380.918 105 380.935 105 380.951 105C380.968 105 380.985 105 381.001 105C381.018 105 381.035 105 381.051 105C381.068 105 381.085 105 381.102 105C381.118 105 381.135 105 381.152 105C381.168 105 381.185 105 381.202 105C381.218 105 381.235 105 381.252 105C381.268 105 381.285 105 381.302 105C381.318 105 381.335 105 381.352 105C381.368 105 381.385 105 381.402 105C381.418 105 381.435 105 381.452 105C381.468 105 381.485 105 381.502 105C381.518 105 381.535 105 381.552 105C381.569 105 381.585 105 381.602 105C381.619 105 381.635 105 381.652 105C381.669 105 381.685 105 381.702 105C381.719 105 381.735 105 381.752 105C381.769 105 381.785 105 381.802 105C381.819 105 381.835 105 381.852 105C381.869 105 381.885 105 381.902 105C381.919 105 381.935 105 381.952 105C381.969 105 381.986 105 382.002 105C382.019 105 382.036 105 382.052 105C382.069 105 382.086 105 382.102 105C382.119 105 382.136 105 382.152 105C382.169 105 382.186 105 382.202 105C382.219 105 382.236 105 382.252 105C382.269 105 382.286 105 382.302 105C382.319 105 382.336 105 382.352 105C382.369 105 382.386 105 382.402 105C382.419 105 382.436 105 382.453 105C382.469 105 382.486 105 382.503 105C382.519 105 382.536 105 382.553 105C382.569 105 382.586 105 382.603 105C382.619 105 382.636 105 382.653 105C382.669 105 382.686 105 382.703 105C382.719 105 382.736 105 382.753 105C382.769 105 382.786 105 382.803 105C382.819 105 382.836 105 382.853 105C382.87 105 382.886 105 382.903 105C382.92 105 382.936 105 382.953 105C382.97 105 382.986 105 383.003 105C383.02 105 383.036 105 383.053 105C383.07 105 383.086 105 383.103 105C383.12 105 383.136 105 383.153 105C383.17 105 383.186 105 383.203 105C383.22 105 383.236 105 383.253 105C383.27 105 383.287 105 383.303 105C383.32 105 383.337 105 383.353 105C383.37 105 383.387 105 383.403 105C383.42 105 383.437 105 383.453 105C383.47 105 383.487 105 383.503 105C383.52 105 383.537 105 383.553 105C383.57 105 383.587 105 383.603 105C383.62 105 383.637 105 383.653 105C383.67 105 383.687 105 383.704 105C383.72 105 383.737 105 383.754 105C383.77 105 383.787 105 383.804 105C383.82 105 383.837 105 383.854 105C383.87 105 383.887 105 383.904 105C383.92 105 383.937 105 383.954 105C383.97 105 383.987 105 384.004 105C384.02 105 384.037 105 384.054 105C384.07 105 384.087 105 384.104 105C384.121 105 384.137 105 384.154 105C384.171 105 384.187 105 384.204 105C384.221 105 384.237 105 384.254 105C384.271 105 384.287 105 384.304 105C384.321 105 384.337 105 384.354 105C384.371 105 384.387 105 384.404 105C384.421 105 384.437 105 384.454 105C384.471 105 384.487 105 384.504 105C384.521 105 384.538 105 384.554 105C384.571 105 384.588 105 384.604 105C384.621 105 384.638 105 384.654 105C384.671 105 384.688 105 384.704 105C384.721 105 384.738 105 384.754 105C384.771 105 384.788 105 384.804 105C384.821 105 384.838 105 384.854 105C384.871 105 384.888 105 384.904 105C384.921 105 384.938 105 384.954 105C384.971 105 384.988 105 385.005 105C385.021 105 385.038 105 385.055 105C385.071 105 385.088 105 385.105 105C385.121 105 385.138 105 385.155 105C385.171 105 385.188 105 385.205 105C385.221 105 385.238 105 385.255 105C385.271 105 385.288 105 385.305 105C385.321 105 385.338 105 385.355 105C385.371 105 385.388 105 385.405 105C385.422 105 385.438 105 385.455 105C385.472 105 385.488 105 385.505 105C385.522 105 385.538 105 385.555 105C385.572 105 385.588 105 385.605 105C385.622 105 385.638 105 385.655 105C385.672 105 385.688 105 385.705 105C385.722 105 385.738 105 385.755 105C385.772 105 385.788 105 385.805 105C385.822 105 385.839 105 385.855 105C385.872 105 385.889 105 385.905 105C385.922 105 385.939 105 385.955 105C385.972 105 385.989 105 386.005 105C386.022 105 386.039 105 386.055 105C386.072 105 386.089 105 386.105 105C386.122 105 386.139 105 386.155 105C386.172 105 386.189 105 386.205 105C386.222 105 386.239 105 386.256 105C386.272 105 386.289 105 386.306 105C386.322 105 386.339 105 386.356 105C386.372 105 386.389 105 386.406 105C386.422 105 386.439 105 386.456 105C386.472 105 386.489 105 386.506 105C386.522 105 386.539 105 386.556 105C386.572 105 386.589 105 386.606 105C386.622 105 386.639 105 386.656 105C386.673 105 386.689 105 386.706 105C386.723 105 386.739 105 386.756 105C386.773 105 386.789 105 386.806 105C386.823 105 386.839 105 386.856 105C386.873 105 386.889 105 386.906 105C386.923 105 386.939 105 386.956 105C386.973 105 386.989 105 387.006 105C387.023 105 387.039 105 387.056 105C387.073 105 387.09 105 387.106 105C387.123 105 387.14 105 387.156 105C387.173 105 387.19 105 387.206 105C387.223 105 387.24 105 387.256 105C387.273 105 387.29 105 387.306 105C387.323 105 387.34 105 387.356 105C387.373 105 387.39 105 387.406 105C387.423 105 387.44 105 387.456 105C387.473 105 387.49 105 387.507 105C387.523 105 387.54 105 387.557 105C387.573 105 387.59 105 387.607 105C387.623 105 387.64 105 387.657 105C387.673 105 387.69 105 387.707 105C387.723 105 387.74 105 387.757 105C387.773 105 387.79 105 387.807 105C387.823 105 387.84 105 387.857 105C387.873 105 387.89 105 387.907 105C387.923 105 387.94 105 387.957 105C387.974 105 387.99 105 388.007 105C388.024 105 388.04 105 388.057 105C388.074 105 388.09 105 388.107 105C388.124 105 388.14 105 388.157 105C388.174 105 388.19 105 388.207 105C388.224 105 388.24 105 388.257 105C388.274 105 388.29 105 388.307 105C388.324 105 388.34 105 388.357 105C388.374 105 388.391 105 388.407 105C388.424 105 388.441 105 388.457 105C388.474 105 388.491 105 388.507 105C388.524 105 388.541 105 388.557 105C388.574 105 388.591 105 388.607 105C388.624 105 388.641 105 388.657 105C388.674 105 388.691 105 388.707 105C388.724 105 388.741 105 388.757 105C388.774 105 388.791 105 388.807 105C388.824 105 388.841 105 388.858 105C388.874 105 388.891 105 388.908 105C388.924 105 388.941 105 388.958 105C388.974 105 388.991 105 389.008 105C389.024 105 389.041 105 389.058 105C389.074 105 389.091 105 389.108 105C389.124 105 389.141 105 389.158 105C389.174 105 389.191 105 389.208 105C389.224 105 389.241 105 389.258 105C389.275 105 389.291 105 389.308 105C389.325 105 389.341 105 389.358 105C389.375 105 389.391 105 389.408 105C389.425 105 389.441 105 389.458 105C389.475 105 389.491 105 389.508 105C389.525 105 389.541 105 389.558 105C389.575 105 389.591 105 389.608 105C389.625 105 389.641 105 389.658 105C389.675 105 389.692 105 389.708 105C389.725 105 389.742 105 389.758 105C389.775 105 389.792 105 389.808 105C389.825 105 389.842 105 389.858 105C389.875 105 389.892 105 389.908 105C389.925 105 389.942 105 389.958 105C389.975 105 389.992 105 390.008 105C390.025 105 390.042 105 390.058 105C390.075 105 390.092 105 390.109 105C390.125 105 390.142 105 390.159 105C390.175 105 390.192 105 390.209 105C390.225 105 390.242 105 390.259 105C390.275 105 390.292 105 390.309 105C390.325 105 390.342 105 390.359 105C390.375 105 390.392 105 390.409 105C390.425 105 390.442 105 390.459 105C390.475 105 390.492 105 390.509 105C390.526 105 390.542 105 390.559 105C390.576 105 390.592 105 390.609 105C390.626 105 390.642 105 390.659 105C390.676 105 390.692 105 390.709 105C390.726 105 390.742 105 390.759 105C390.776 105 390.792 105 390.809 105C390.826 105 390.842 105 390.859 105C390.876 105 390.892 105 390.909 105C390.926 105 390.943 105 390.959 105C390.976 105 390.993 105 391.009 105C391.026 105 391.043 105 391.059 105C391.076 105 391.093 105 391.109 105C391.126 105 391.143 105 391.159 105C391.176 105 391.193 105 391.209 105C391.226 105 391.243 105 391.259 105C391.276 105 391.293 105 391.309 105C391.326 105 391.343 105 391.359 105C391.376 105 391.393 105 391.41 105C391.426 105 391.443 105 391.46 105C391.476 105 391.493 105 391.51 105C391.526 105 391.543 105 391.56 105C391.576 105 391.593 105 391.61 105C391.626 105 391.643 105 391.66 105C391.676 105 391.693 105 391.71 105C391.726 105 391.743 105 391.76 105C391.776 105 391.793 105 391.81 105C391.827 105 391.843 105 391.86 105C391.877 105 391.893 105 391.91 105C391.927 105 391.943 105 391.96 105C391.977 105 391.993 105 392.01 105C392.027 105 392.043 105 392.06 105C392.077 105 392.093 105 392.11 105C392.127 105 392.143 105 392.16 105C392.177 105 392.193 105 392.21 105C392.227 105 392.244 105 392.26 105C392.277 105 392.294 105 392.31 105C392.327 105 392.344 105 392.36 105C392.377 105 392.394 105 392.41 105C392.427 105 392.444 105 392.46 105C392.477 105 392.494 105 392.51 105C392.527 105 392.544 105 392.56 105C392.577 105 392.594 105 392.61 105C392.627 105 392.644 105 392.661 105C392.677 105 392.694 105 392.711 105C392.727 105 392.744 105 392.761 105C392.777 105 392.794 105 392.811 105C392.827 105 392.844 105 392.861 105C392.877 105 392.894 105 392.911 105C392.927 105 392.944 105 392.961 105C392.977 105 392.994 105 393.011 105C393.027 105 393.044 105 393.061 105C393.078 105 393.094 105 393.111 105C393.128 105 393.144 105 393.161 105C393.178 105 393.194 105 393.211 105C393.228 105 393.244 105 393.261 105C393.278 105 393.294 105 393.311 105C393.328 105 393.344 105 393.361 105C393.378 105 393.394 105 393.411 105C393.428 105 393.444 105 393.461 105C393.478 105 393.495 105 393.511 105C393.528 105 393.545 105 393.561 105C393.578 105 393.595 105 393.611 105C393.628 105 393.645 105 393.661 105C393.678 105 393.695 105 393.711 105C393.728 105 393.745 105 393.761 105C393.778 105 393.795 105 393.811 105C393.828 105 393.845 105 393.861 105C393.878 105 393.895 105 393.911 105C393.928 105 393.945 105 393.962 105C393.978 105 393.995 105 394.012 105C394.028 105 394.045 105 394.062 105C394.078 105 394.095 105 394.112 105C394.128 105 394.145 105 394.162 105C394.178 105 394.195 105 394.212 105C394.228 105 394.245 105 394.262 105C394.278 105 394.295 105 394.312 105C394.328 105 394.345 105 394.362 105C394.379 105 394.395 105 394.412 105C394.429 105 394.445 105 394.462 105C394.479 105 394.495 105 394.512 105C394.529 105 394.545 105 394.562 105C394.579 105 394.595 105 394.612 105C394.629 105 394.645 105 394.662 105C394.679 105 394.695 105 394.712 105C394.729 105 394.745 105 394.762 105C394.779 105 394.796 105 394.812 105C394.829 105 394.846 105 394.862 105C394.879 105 394.896 105 394.912 105C394.929 105 394.946 105 394.962 105C394.979 105 394.996 105 395.012 105C395.029 105 395.046 105 395.062 105C395.079 105 395.096 105 395.112 105C395.129 105 395.146 105 395.162 105C395.179 105 395.196 105 395.212 105C395.229 105 395.246 105 395.263 105C395.279 105 395.296 105 395.313 105C395.329 105 395.346 105 395.363 105C395.379 105 395.396 105 395.413 105C395.429 105 395.446 105 395.463 105C395.479 105 395.496 105 395.513 105C395.529 105 395.546 105 395.563 105C395.579 105 395.596 105 395.613 105C395.629 105 395.646 105 395.663 105C395.68 105 395.696 105 395.713 105C395.73 105 395.746 105 395.763 105C395.78 105 395.796 105 395.813 105C395.83 105 395.846 105 395.863 105C395.88 105 395.896 105 395.913 105C395.93 105 395.946 105 395.963 105C395.98 105 395.996 105 396.013 105C396.03 105 396.046 105 396.063 105C396.08 105 396.097 105 396.113 105C396.13 105 396.147 105 396.163 105C396.18 105 396.197 105 396.213 105C396.23 105 396.247 105 396.263 105C396.28 105 396.297 105 396.313 105C396.33 105 396.347 105 396.363 105C396.38 105 396.397 105 396.413 105C396.43 105 396.447 105 396.463 105C396.48 105 396.497 105 396.514 105C396.53 105 396.547 105 396.564 105C396.58 105 396.597 105 396.614 105C396.63 105 396.647 105 396.664 105C396.68 105 396.697 105 396.714 105C396.73 105 396.747 105 396.764 105C396.78 105 396.797 105 396.814 105C396.83 105 396.847 105 396.864 105C396.88 105 396.897 105 396.914 105C396.931 105 396.947 105 396.964 105C396.981 105 396.997 105 397.014 105C397.031 105 397.047 105 397.064 105C397.081 105 397.097 105 397.114 105C397.131 105 397.147 105 397.164 105C397.181 105 397.197 105 397.214 105C397.231 105 397.247 105 397.264 105C397.281 105 397.297 105 397.314 105C397.331 105 397.348 105 397.364 105C397.381 105 397.398 105 397.414 105C397.431 105 397.448 105 397.464 105C397.481 105 397.498 105 397.514 105C397.531 105 397.548 105 397.564 105C397.581 105 397.598 105 397.614 105C397.631 105 397.648 105 397.664 105C397.681 105 397.698 105 397.714 105C397.731 105 397.748 105 397.764 105C397.781 105 397.798 105 397.815 105C397.831 105 397.848 105 397.865 105C397.881 105 397.898 105 397.915 105C397.931 105 397.948 105 397.965 105C397.981 105 397.998 105 398.015 105C398.031 105 398.048 105 398.065 105C398.081 105 398.098 105 398.115 105C398.131 105 398.148 105 398.165 105C398.181 105 398.198 105 398.215 105C398.232 105 398.248 105 398.265 105C398.282 105 398.298 105 398.315 105C398.332 105 398.348 105 398.365 105C398.382 105 398.398 105 398.415 105C398.432 105 398.448 105 398.465 105C398.482 105 398.498 105 398.515 105C398.532 105 398.548 105 398.565 105C398.582 105 398.598 105 398.615 105C398.632 105 398.649 105 398.665 105C398.682 105 398.699 105 398.715 105C398.732 105 398.749 105 398.765 105C398.782 105 398.799 105 398.815 105C398.832 105 398.849 105 398.865 105C398.882 105 398.899 105 398.915 105C398.932 105 398.949 105 398.965 105C398.982 105 398.999 105 399.015 105C399.032 105 399.049 105 399.066 105C399.082 105 399.099 105 399.116 105C399.132 105 399.149 105 399.166 105C399.182 105 399.199 105 399.216 105C399.232 105 399.249 105 399.266 105C399.282 105 399.299 105 399.316 105C399.332 105 399.349 105 399.366 105C399.382 105 399.399 105 399.416 105C399.432 105 399.449 105 399.466 105C399.483 105 399.499 105 399.516 105C399.533 105 399.549 105 399.566 105C399.583 105 399.599 105 399.616 105C399.633 105 399.649 105 399.666 105C399.683 105 399.699 105 399.716 105C399.733 105 399.749 105 399.766 105C399.783 105 399.799 105 399.816 105C399.833 105 399.849 105 399.866 105C399.883 105 399.9 105 399.916 105C399.933 105 399.95 105 399.966 105C399.983 105 400 105 400.016 105C400.033 105 400.05 105 400.066 105C400.083 105 400.1 105 400.116 105C400.133 105 400.15 105 400.166 105C400.183 105 400.2 105 400.216 105C400.233 105 400.25 105 400.266 105C400.283 105 400.3 105 400.316 105C400.333 105 400.35 105 400.367 105C400.383 105 400.4 105 400.417 105C400.433 105 400.45 105 400.467 105C400.483 105 400.5 105 400.517 105C400.533 105 400.55 105 400.567 105C400.583 105 400.6 105 400.617 105C400.633 105 400.65 105 400.667 105C400.683 105 400.7 105 400.717 105C400.733 105 400.75 105 400.767 105C400.784 105 400.8 105 400.817 105C400.834 105 400.85 105 400.867 105C400.884 105 400.9 105 400.917 105C400.934 105 400.95 105 400.967 105C400.984 105 401 105 401.017 105C401.034 105 401.05 105 401.067 105C401.084 105 401.1 105 401.117 105C401.134 105 401.15 105 401.167 105C401.184 105 401.201 105 401.217 105C401.234 105 401.251 105 401.267 105C401.284 105 401.301 105 401.317 105C401.334 105 401.351 105 401.367 105C401.384 105 401.401 105 401.417 105C401.434 105 401.451 105 401.467 105C401.484 105 401.501 105 401.517 105C401.534 105 401.551 105 401.567 105C401.584 105 401.601 105 401.618 105C401.634 105 401.651 105 401.668 105C401.684 105 401.701 105 401.718 105C401.734 105 401.751 105 401.768 105C401.784 105 401.801 105 401.818 105V101ZM378.198 103V4.99999H374.198V103H378.198ZM505.897 102.86V104.86H507.897V102.86H505.897ZM480.277 102.86H478.277V104.86H480.277V102.86ZM480.277 4.86V2.86H478.277V4.86H480.277ZM523.537 4.86L523.518 6.8599L523.527 6.86H523.537V4.86ZM558.677 41.68L556.677 41.6346L556.677 41.6573V41.68H558.677ZM505.897 77.52V75.52H503.897V77.52H505.897ZM505.477 55.26H503.477V57.26H505.477V55.26ZM505.477 27.12V25.12H503.477V27.12H505.477ZM505.897 100.86H480.277V104.86H505.897V100.86ZM482.277 102.86V4.86H478.277V102.86H482.277ZM480.277 6.86C494.864 6.86 508.969 6.72001 523.518 6.8599L523.556 2.86009C508.985 2.71998 494.809 2.86 480.277 2.86V6.86ZM523.537 6.86C534.73 6.86 543.058 11.2025 548.564 17.64C554.104 24.1163 556.877 32.8248 556.677 41.6346L560.676 41.7254C560.896 32.0552 557.86 22.3537 551.604 15.04C545.315 7.68749 535.864 2.86 523.537 2.86V6.86ZM556.677 41.68C556.677 50.2167 553.839 58.6911 548.317 65.003C542.827 71.2768 534.596 75.52 523.537 75.52V79.52C535.717 79.52 545.056 74.8032 551.327 67.637C557.564 60.5089 560.677 51.0633 560.677 41.68H556.677ZM523.537 75.52H505.897V79.52H523.537V75.52ZM503.897 77.52V102.86H507.897V77.52H503.897ZM505.477 57.26H523.537V53.26H505.477V57.26ZM523.537 57.26C527.702 57.26 530.927 55.0169 533.031 51.9218C535.111 48.861 536.177 44.8835 536.177 40.98H532.177C532.177 44.2165 531.282 47.379 529.723 49.6732C528.187 51.9331 526.091 53.26 523.537 53.26V57.26ZM536.177 40.98C536.177 37.1674 535.191 33.2828 533.128 30.29C531.028 27.2418 527.79 25.12 523.537 25.12V29.12C526.284 29.12 528.366 30.4282 529.835 32.5599C531.342 34.7472 532.177 37.7926 532.177 40.98H536.177ZM523.537 25.12H505.477V29.12H523.537V25.12ZM503.477 27.12V55.26H507.477V27.12H503.477ZM667.025 54C667.025 68.5078 662.016 80.6886 653.535 89.2363C645.056 97.783 632.983 102.82 618.625 102.82V106.82C633.947 106.82 647.075 101.427 656.375 92.0537C665.674 82.6814 671.025 69.4522 671.025 54H667.025ZM618.625 102.82C606.094 102.82 594.068 98.7558 585.198 90.688C576.361 82.6493 570.505 70.5006 570.505 54H566.505C566.505 71.5194 572.759 84.7806 582.507 93.647C592.222 102.484 605.257 106.82 618.625 106.82V102.82ZM570.505 54C570.505 37.5929 576.554 25.4051 585.558 17.3016C594.596 9.16723 606.736 5.03999 619.045 5.03999V1.03999C605.875 1.03999 592.744 5.45276 582.882 14.3284C572.986 23.2349 566.505 36.5271 566.505 54H570.505ZM619.045 5.03999C631.137 5.03999 643.135 9.16221 652.088 17.2954C661.008 25.3984 667.025 37.5888 667.025 54H671.025C671.025 36.5312 664.582 23.2416 654.777 14.3346C645.006 5.45778 632.014 1.03999 619.045 1.03999V5.03999ZM592.125 54C592.125 63.2337 595.315 70.4193 600.325 75.2957C605.315 80.1521 611.99 82.6 618.765 82.6V78.6C612.941 78.6 607.295 76.4979 603.115 72.4293C598.955 68.3807 596.125 62.2663 596.125 54H592.125ZM618.765 82.6C631.977 82.6 645.405 72.6764 645.405 54H641.405C641.405 70.3236 629.914 78.6 618.765 78.6V82.6ZM645.405 54C645.405 35.3518 632.286 25.4 619.045 25.4V29.4C630.165 29.4 641.405 37.6482 641.405 54H645.405ZM619.045 25.4C612.231 25.4 605.486 27.7225 600.429 32.5307C595.348 37.3627 592.125 44.5602 592.125 54H596.125C596.125 45.5198 598.992 39.4173 603.186 35.4293C607.405 31.4175 613.12 29.4 619.045 29.4V25.4ZM747.417 4.99999H749.417V2.99999H747.417V4.99999ZM747.417 27.26V29.26H749.417V27.26H747.417ZM711.857 27.26V25.26H709.857V27.26H711.857ZM711.857 41.26H709.857V43.26H711.857V41.26ZM744.617 41.26H746.617V39.26H744.617V41.26ZM744.617 63.66V65.66H746.617V63.66H744.617ZM711.857 63.66V61.66H709.857V63.66H711.857ZM711.857 79.62H709.857V81.62H711.857V79.62ZM748.677 79.62H750.677V77.62H748.677V79.62ZM748.677 103V105H750.677V103H748.677ZM686.237 103H684.237V105H686.237V103ZM686.237 4.99999V2.99999H684.237V4.99999H686.237ZM745.417 4.99999V27.26H749.417V4.99999H745.417ZM747.417 25.26H711.857V29.26H747.417V25.26ZM709.857 27.26V41.26H713.857V27.26H709.857ZM711.857 43.26H744.617V39.26H711.857V43.26ZM742.617 41.26V63.66H746.617V41.26H742.617ZM744.617 61.66H711.857V65.66H744.617V61.66ZM709.857 63.66V79.62H713.857V63.66H709.857ZM711.857 81.62H748.677V77.62H711.857V81.62ZM746.677 79.62V103H750.677V79.62H746.677ZM748.677 101H686.237V105H748.677V101ZM688.237 103V4.99999H684.237V103H688.237ZM686.237 6.99999H747.417V2.99999H686.237V6.99999ZM826.975 103L825.235 103.986L825.809 105H826.975V103ZM805.555 65.2L807.295 64.214L806.622 63.0272L805.272 63.2201L805.555 65.2ZM793.375 65.62V63.62H791.375V65.62H793.375ZM793.375 103V105H795.375V103H793.375ZM767.755 103H765.755V105H767.755V103ZM767.755 4.99999V2.99999H765.755V4.99999H767.755ZM793.375 4.99999H795.375V2.99999H793.375V4.99999ZM793.375 43.36H791.375V45.36H793.375V43.36ZM807.655 41.82L806.76 40.0311L806.746 40.0382L806.732 40.0456L807.655 41.82ZM816.475 21.94L814.533 21.4603L814.531 21.4685L814.529 21.4768L816.475 21.94ZM851.895 5.13999H853.895V3.5121L852.301 3.18163L851.895 5.13999ZM851.895 22.36L851.759 24.3554L853.895 24.501V22.36H851.895ZM839.995 29.36L841.924 29.8882L841.928 29.872L841.932 29.8557L839.995 29.36ZM827.955 55.4L826.473 54.0564L825.442 55.1931L826.273 56.4832L827.955 55.4ZM855.955 99.22H857.955V98.6242L857.629 98.1255L855.955 99.22ZM855.955 103V105H857.955V103H855.955ZM828.715 102.014L807.295 64.214L803.815 66.186L825.235 103.986L828.715 102.014ZM805.272 63.2201C802.509 63.6148 796.95 63.62 793.375 63.62V67.62C796.8 67.62 802.72 67.6252 805.838 67.1799L805.272 63.2201ZM791.375 65.62V103H795.375V65.62H791.375ZM793.375 101H767.755V105H793.375V101ZM769.755 103V4.99999H765.755V103H769.755ZM767.755 6.99999H793.375V2.99999H767.755V6.99999ZM791.375 4.99999V43.36H795.375V4.99999H791.375ZM793.375 45.36C795.334 45.36 798.14 45.4312 800.844 45.2689C803.497 45.1097 806.424 44.7143 808.577 43.5944L806.732 40.0456C805.386 40.7457 803.202 41.1203 800.605 41.2761C798.06 41.4288 795.475 41.36 793.375 41.36V45.36ZM808.549 43.6089C811.414 42.1764 813.171 39.6266 814.55 36.1963C815.913 32.8085 817.032 28.2357 818.42 22.4032L814.529 21.4768C813.118 27.4043 812.067 31.6515 810.839 34.7037C809.629 37.7134 808.375 39.2236 806.76 40.0311L808.549 43.6089ZM818.416 22.4197C819.797 16.8312 822.664 11.9765 827.692 9.01595C832.739 6.04415 840.305 4.77973 851.489 7.09835L852.301 3.18163C840.525 0.740252 831.85 1.92583 825.662 5.56904C819.456 9.2235 816.092 15.1487 814.533 21.4603L818.416 22.4197ZM849.895 5.13999V22.36H853.895V5.13999H849.895ZM852.031 20.3646C848.827 20.1462 845.79 20.3658 843.287 21.6718C840.669 23.0377 838.937 25.4261 838.057 28.8643L841.932 29.8557C842.593 27.2739 843.73 25.9523 845.137 25.2182C846.659 24.4242 848.802 24.1538 851.759 24.3554L852.031 20.3646ZM838.066 28.8318C834.861 40.5351 831.6 48.4043 826.473 54.0564L829.436 56.7436C835.23 50.3557 838.688 41.7048 841.924 29.8882L838.066 28.8318ZM826.273 56.4832C835.616 70.9853 844.767 85.7645 854.281 100.314L857.629 98.1255C848.102 83.5555 839.053 68.9347 829.636 54.3168L826.273 56.4832ZM853.955 99.22V103H857.955V99.22H853.955ZM855.955 101H826.975V105H855.955V101ZM886.567 27.4H888.567V25.4H886.567V27.4ZM862.487 27.4H860.487V29.4H862.487V27.4ZM862.487 4.99999V2.99999H860.487V4.99999H862.487ZM935.287 4.99999H937.287V2.99999H935.287V4.99999ZM935.287 27.4V29.4H937.287V27.4H935.287ZM911.347 27.4V25.4H909.347V27.4H911.347ZM911.347 103V105H913.347V103H911.347ZM886.567 103H884.567V105H886.567V103ZM886.567 25.4H862.487V29.4H886.567V25.4ZM864.487 27.4V4.99999H860.487V27.4H864.487ZM862.487 6.99999H935.287V2.99999H862.487V6.99999ZM933.287 4.99999V27.4H937.287V4.99999H933.287ZM935.287 25.4H911.347V29.4H935.287V25.4ZM909.347 27.4V103H913.347V27.4H909.347ZM911.347 101H886.567V105H911.347V101ZM888.567 103V27.4H884.567V103H888.567Z" fill="black" mask="url(#path-1-inside-1_3860_6452)"/>
</svg>
