<?xml version="1.0" encoding="utf-8"?>
<!-- Generator: Adobe Illustrator 23.0.2, SVG Export Plug-In . SVG Version: 6.00 Build 0)  -->
<svg version="1.1" id="Layer_1" xmlns="http://www.w3.org/2000/svg" xmlns:xlink="http://www.w3.org/1999/xlink" x="0px" y="0px"
	 viewBox="0 0 17.6 32.1" style="enable-background:new 0 0 17.6 32.1;" xml:space="preserve">
<style type="text/css">
	.st0{fill:#CCCCCD;}
	.st1{fill:#231F20;}
	.st2{fill:#A70000;}
</style>
<title>eyes0</title>
<g>
	<g id="Layer_1-2">
		<polygon class="st0" points="8.8,0 0,14.8 17.6,14.8 		"/>
		<path class="st1" d="M2.5,9.4l-1-0.8c0.1-0.2,3.2-4,7.1-4.1h0.1c4.2,0,7.1,3.9,7.2,4.1l-1,0.7c0,0-2.6-3.6-6.2-3.6l0,0
			C5.4,5.8,2.5,9.4,2.5,9.4z"/>
		<ellipse class="st2" cx="8.8" cy="8.3" rx="2.8" ry="2.7"/>
		<polygon class="st0" points="8.8,17.4 0,32.1 17.6,32.1 		"/>
		<path class="st1" d="M8.7,29.9L8.7,29.9c-3.9,0-7-3.9-7.1-4.1l1-0.8c0,0,2.9,3.6,6.1,3.6h0.1c3.6,0,6.2-3.6,6.2-3.6l1,0.7
			C15.8,26,12.9,29.9,8.7,29.9z"/>
		<rect x="8" y="29.5" class="st1" width="1.2" height="1.5"/>
		
			<rect x="4.8" y="28.8" transform="matrix(0.5807 -0.8141 0.8141 0.5807 -21.6178 16.8467)" class="st1" width="1.5" height="1.2"/>
		<rect x="11" y="28.7" transform="matrix(0.8142 -0.5806 0.5806 0.8142 -14.9194 12.1927)" class="st1" width="1.2" height="1.5"/>
	</g>
</g>
</svg>
