<?xml version="1.0" encoding="UTF-8"?>
<svg id="Layer_2" data-name="Layer 2" xmlns="http://www.w3.org/2000/svg" viewBox="0 0 62.9 12.29">
  <defs>
    <style>
      .cls-1 {
        fill: #1d1d1b;
        stroke-width: 0px;
      }
    </style>
  </defs>
  <g id="_Слой_1" data-name="Слой 1">
    <g>
      <path class="cls-1" d="m10.24,11.82v.45h-3.46l-2.08-3.56h-1.61v3.56H0V.16h5.31c4.76.02,5.62,5.74,2.56,7.82l2.37,3.84ZM5.31,2.92c-.73-.02-1.49,0-2.21,0v3.03h2.21c1.68,0,1.76-3.01,0-3.03Z"/>
      <path class="cls-1" d="m21.06,5.97c.99.5,1.45,1.4,1.45,2.47-.02,2.11-1.3,3.82-3.77,3.82h-5.68V.16h5.17c2.09,0,3.77,1.63,3.77,3.72,0,.73-.36,1.61-.95,2.09Zm-5-3.05v1.96h1.96c1.23,0,1.23-1.96-.02-1.96h-1.94Zm0,4.53v2.06h2.47c1.25,0,1.23-2.06-.02-2.06h-2.46Z"/>
      <path class="cls-1" d="m32.68,10.75h-4.78l-.71,1.52h-3.03v-.45L29.62,0h1.33l5.47,11.82v.45h-3.03l-.71-1.52Zm-2.41-5.85l-1.35,3.18h2.73l-1.38-3.18Z"/>
      <path class="cls-1" d="m42.12,6.32v5.95h-3.2V.1h1.12l6.13,5.99V.16h3.17v12.13h-1.11l-6.11-5.97Z"/>
      <path class="cls-1" d="m56.98,12.27h-4.57V.16h4.57c7.89.03,7.89,12.08,0,12.11Zm-1.47-2.82h1.47c3.86,0,3.86-6.47,0-6.47h-1.47v6.47Z"/>
    </g>
  </g>
</svg>