<svg width="846" height="111" viewBox="0 0 846 111" fill="none" xmlns="http://www.w3.org/2000/svg">
<mask id="path-1-inside-1_2922_1547" fill="white">
<path d="M0.182969 98.86V0.859995C7.46297 0.859995 14.6496 0.859995 21.743 0.859995C28.9296 0.766663 36.163 0.766663 43.443 0.859995C49.323 0.859995 54.4563 1.93333 58.843 4.08C63.323 6.13333 67.0096 8.88666 69.903 12.34C72.8896 15.7933 75.083 19.76 76.483 24.24C77.9763 28.6267 78.6763 33.1067 78.583 37.68C78.583 42.16 77.8363 46.5467 76.343 50.84C74.8496 55.1333 72.6096 58.96 69.623 62.32C66.7296 65.68 63.0896 68.3867 58.703 70.44C54.3163 72.4933 49.2296 73.52 43.443 73.52H25.803V98.86H0.182969ZM43.443 51.26C45.123 51.26 46.6163 50.84 47.923 50C49.2296 49.16 50.3496 48.0867 51.283 46.78C52.2163 45.4733 52.9163 43.98 53.383 42.3C53.8496 40.5267 54.083 38.7533 54.083 36.98C54.083 35.2067 53.8496 33.5267 53.383 31.94C52.9163 30.26 52.2163 28.7667 51.283 27.46C50.443 26.1533 49.3696 25.1267 48.063 24.38C46.7563 23.54 45.2163 23.12 43.443 23.12H25.383V51.26H43.443ZM156.171 23.26H120.611V37.26H153.371V59.66H120.611V75.62H157.431V99H94.9914V0.999993H156.171V23.26ZM259.389 0.999993V99H233.769V24.1H203.529V99H177.909V0.999993H259.389ZM307.188 64.7L273.448 4.21999V0.999993H301.588L320.208 38.66H321.048L337.568 0.999993H364.728V3.65999L329.308 75.9C326.881 81.5 324.221 86.2133 321.328 90.04C318.528 93.8667 315.261 96.7133 311.528 98.58C307.794 100.353 303.408 101.1 298.368 100.82C293.421 100.54 287.541 99.14 280.728 96.62L284.088 78.56C286.421 79.4 288.521 80.0067 290.388 80.38C292.254 80.7533 293.981 80.7533 295.568 80.38C297.248 79.9133 298.741 79.0267 300.048 77.72C301.354 76.32 302.614 74.3133 303.828 71.7L307.188 64.7ZM369.262 23.4V0.999993H442.062V23.4H418.122V99H393.342V23.4H369.262ZM470.336 86.82L464.736 99H437.996V95.5L482.936 0.0199976H494.696L539.216 95.5V99H512.756L507.016 86.82H470.336ZM478.596 65.4H498.896L488.676 41.74L478.596 65.4ZM551.003 99V0.999993H576.623V75.9H604.903V0.999993H630.663V77.3H640.603V110.06H620.023V99H551.003ZM668.14 99.28H660.58V0.999993H686.2V48.88L737.3 0.579999H745.28V99H719.66V48.46L668.14 99.28ZM781.524 64.14C776.671 60.8733 773.031 56.72 770.604 51.68C768.271 46.5467 767.057 41.18 766.964 35.58C766.964 31.2867 767.664 27.0867 769.064 22.98C770.557 18.78 772.751 15.0933 775.644 11.92C778.631 8.65333 782.317 6.04 786.704 4.08C791.184 2.02666 796.364 0.999993 802.244 0.999993H845.364V99H819.744V68.2H806.304L789.504 99H762.344V95.36L781.524 64.14ZM820.164 47.34V23.26H802.384C798.744 23.26 796.037 24.4733 794.264 26.9C792.584 29.2333 791.744 31.94 791.744 35.02C791.744 38.1 792.631 40.9467 794.404 43.56C796.177 46.08 798.837 47.34 802.384 47.34H820.164Z"/>
</mask>
<path d="M0.182969 98.86H-1.81703V100.86H0.182969V98.86ZM0.182969 0.859995V-1.14H-1.81703V0.859995H0.182969ZM21.743 0.859995V2.86H21.756L21.7689 2.85983L21.743 0.859995ZM43.443 0.859995L43.4173 2.85983L43.4302 2.86H43.443V0.859995ZM58.843 4.08L57.9639 5.87643L57.9866 5.88757L58.0097 5.89812L58.843 4.08ZM69.903 12.34L68.3699 13.6244L68.38 13.6364L68.3902 13.6483L69.903 12.34ZM76.483 24.24L74.574 24.8365L74.5815 24.8606L74.5897 24.8845L76.483 24.24ZM78.583 37.68L76.5834 37.6392L76.583 37.6596V37.68H78.583ZM76.343 50.84L74.454 50.183H74.454L76.343 50.84ZM69.623 62.32L68.1282 60.9913L68.1177 61.003L68.1074 61.0149L69.623 62.32ZM25.803 73.52V71.52H23.803V73.52H25.803ZM25.803 98.86V100.86H27.803V98.86H25.803ZM51.283 46.78L49.6555 45.6175H49.6555L51.283 46.78ZM53.383 42.3L55.31 42.8353L55.3137 42.8222L55.3171 42.809L53.383 42.3ZM53.383 31.94L51.4559 32.4753L51.46 32.4898L51.4642 32.5043L53.383 31.94ZM51.283 27.46L49.6006 28.5415L49.6271 28.5827L49.6555 28.6225L51.283 27.46ZM48.063 24.38L46.9815 26.0623L47.0254 26.0906L47.0707 26.1165L48.063 24.38ZM25.383 23.12V21.12H23.383V23.12H25.383ZM25.383 51.26H23.383V53.26H25.383V51.26ZM2.18297 98.86V0.859995H-1.81703V98.86H2.18297ZM0.182969 2.86C0.197188 2.86 0.211407 2.86 0.225625 2.86C0.239842 2.86 0.254061 2.86 0.268278 2.86C0.282495 2.86 0.296712 2.86 0.310928 2.86C0.325145 2.86 0.339361 2.86 0.353578 2.86C0.367793 2.86 0.382009 2.86 0.396224 2.86C0.410439 2.86 0.424654 2.86 0.438869 2.86C0.453083 2.86 0.467298 2.86 0.481511 2.86C0.495725 2.86 0.509938 2.86 0.524151 2.86C0.538364 2.86 0.552577 2.86 0.56679 2.86C0.581001 2.86 0.595214 2.86 0.609426 2.86C0.623637 2.86 0.637848 2.86 0.652059 2.86C0.66627 2.86 0.680481 2.86 0.694691 2.86C0.7089 2.86 0.723111 2.86 0.73732 2.86C0.75153 2.86 0.765738 2.86 0.779947 2.86C0.794156 2.86 0.808365 2.86 0.822573 2.86C0.836781 2.86 0.850988 2.86 0.865196 2.86C0.879403 2.86 0.89361 2.86 0.907817 2.86C0.922024 2.86 0.93623 2.86 0.950436 2.86C0.964642 2.86 0.978848 2.86 0.993052 2.86C1.00726 2.86 1.02146 2.86 1.03567 2.86C1.04987 2.86 1.06408 2.86 1.07828 2.86C1.09248 2.86 1.10669 2.86 1.12089 2.86C1.13509 2.86 1.1493 2.86 1.1635 2.86C1.1777 2.86 1.1919 2.86 1.2061 2.86C1.22031 2.86 1.23451 2.86 1.24871 2.86C1.26291 2.86 1.27711 2.86 1.29131 2.86C1.30551 2.86 1.31971 2.86 1.33391 2.86C1.34811 2.86 1.36231 2.86 1.37651 2.86C1.39071 2.86 1.4049 2.86 1.4191 2.86C1.4333 2.86 1.4475 2.86 1.4617 2.86C1.47589 2.86 1.49009 2.86 1.50429 2.86C1.51848 2.86 1.53268 2.86 1.54688 2.86C1.56107 2.86 1.57527 2.86 1.58946 2.86C1.60366 2.86 1.61785 2.86 1.63205 2.86C1.64624 2.86 1.66044 2.86 1.67463 2.86C1.68882 2.86 1.70302 2.86 1.71721 2.86C1.7314 2.86 1.7456 2.86 1.75979 2.86C1.77398 2.86 1.78817 2.86 1.80236 2.86C1.81656 2.86 1.83075 2.86 1.84494 2.86C1.85913 2.86 1.87332 2.86 1.88751 2.86C1.9017 2.86 1.91589 2.86 1.93008 2.86C1.94427 2.86 1.95846 2.86 1.97265 2.86C1.98684 2.86 2.00103 2.86 2.01521 2.86C2.0294 2.86 2.04359 2.86 2.05778 2.86C2.07196 2.86 2.08615 2.86 2.10034 2.86C2.11452 2.86 2.12871 2.86 2.1429 2.86C2.15708 2.86 2.17127 2.86 2.18545 2.86C2.19964 2.86 2.21382 2.86 2.22801 2.86C2.24219 2.86 2.25638 2.86 2.27056 2.86C2.28475 2.86 2.29893 2.86 2.31311 2.86C2.3273 2.86 2.34148 2.86 2.35566 2.86C2.36984 2.86 2.38402 2.86 2.39821 2.86C2.41239 2.86 2.42657 2.86 2.44075 2.86C2.45493 2.86 2.46911 2.86 2.48329 2.86C2.49747 2.86 2.51165 2.86 2.52583 2.86C2.54001 2.86 2.55419 2.86 2.56837 2.86C2.58255 2.86 2.59673 2.86 2.61091 2.86C2.62508 2.86 2.63926 2.86 2.65344 2.86C2.66762 2.86 2.68179 2.86 2.69597 2.86C2.71015 2.86 2.72432 2.86 2.7385 2.86C2.75268 2.86 2.76685 2.86 2.78103 2.86C2.7952 2.86 2.80938 2.86 2.82355 2.86C2.83773 2.86 2.8519 2.86 2.86607 2.86C2.88025 2.86 2.89442 2.86 2.9086 2.86C2.92277 2.86 2.93694 2.86 2.95111 2.86C2.96529 2.86 2.97946 2.86 2.99363 2.86C3.0078 2.86 3.02197 2.86 3.03614 2.86C3.05031 2.86 3.06449 2.86 3.07866 2.86C3.09283 2.86 3.107 2.86 3.12117 2.86C3.13533 2.86 3.1495 2.86 3.16367 2.86C3.17784 2.86 3.19201 2.86 3.20618 2.86C3.22035 2.86 3.23452 2.86 3.24868 2.86C3.26285 2.86 3.27702 2.86 3.29118 2.86C3.30535 2.86 3.31952 2.86 3.33368 2.86C3.34785 2.86 3.36201 2.86 3.37618 2.86C3.39035 2.86 3.40451 2.86 3.41868 2.86C3.43284 2.86 3.447 2.86 3.46117 2.86C3.47533 2.86 3.4895 2.86 3.50366 2.86C3.51782 2.86 3.53199 2.86 3.54615 2.86C3.56031 2.86 3.57447 2.86 3.58863 2.86C3.6028 2.86 3.61696 2.86 3.63112 2.86C3.64528 2.86 3.65944 2.86 3.6736 2.86C3.68776 2.86 3.70192 2.86 3.71608 2.86C3.73024 2.86 3.7444 2.86 3.75856 2.86C3.77272 2.86 3.78688 2.86 3.80103 2.86C3.81519 2.86 3.82935 2.86 3.84351 2.86C3.85767 2.86 3.87182 2.86 3.88598 2.86C3.90014 2.86 3.91429 2.86 3.92845 2.86C3.9426 2.86 3.95676 2.86 3.97092 2.86C3.98507 2.86 3.99923 2.86 4.01338 2.86C4.02754 2.86 4.04169 2.86 4.05584 2.86C4.07 2.86 4.08415 2.86 4.0983 2.86C4.11246 2.86 4.12661 2.86 4.14076 2.86C4.15492 2.86 4.16907 2.86 4.18322 2.86C4.19737 2.86 4.21152 2.86 4.22567 2.86C4.23983 2.86 4.25398 2.86 4.26813 2.86C4.28228 2.86 4.29643 2.86 4.31058 2.86C4.32473 2.86 4.33887 2.86 4.35302 2.86C4.36717 2.86 4.38132 2.86 4.39547 2.86C4.40962 2.86 4.42377 2.86 4.43791 2.86C4.45206 2.86 4.46621 2.86 4.48036 2.86C4.4945 2.86 4.50865 2.86 4.52279 2.86C4.53694 2.86 4.55109 2.86 4.56523 2.86C4.57938 2.86 4.59352 2.86 4.60767 2.86C4.62181 2.86 4.63596 2.86 4.6501 2.86C4.66424 2.86 4.67839 2.86 4.69253 2.86C4.70667 2.86 4.72082 2.86 4.73496 2.86C4.7491 2.86 4.76324 2.86 4.77739 2.86C4.79153 2.86 4.80567 2.86 4.81981 2.86C4.83395 2.86 4.84809 2.86 4.86223 2.86C4.87637 2.86 4.89051 2.86 4.90465 2.86C4.91879 2.86 4.93293 2.86 4.94707 2.86C4.96121 2.86 4.97535 2.86 4.98949 2.86C5.00363 2.86 5.01776 2.86 5.0319 2.86C5.04604 2.86 5.06018 2.86 5.07431 2.86C5.08845 2.86 5.10259 2.86 5.11672 2.86C5.13086 2.86 5.14499 2.86 5.15913 2.86C5.17327 2.86 5.1874 2.86 5.20154 2.86C5.21567 2.86 5.2298 2.86 5.24394 2.86C5.25807 2.86 5.27221 2.86 5.28634 2.86C5.30047 2.86 5.31461 2.86 5.32874 2.86C5.34287 2.86 5.357 2.86 5.37113 2.86C5.38527 2.86 5.3994 2.86 5.41353 2.86C5.42766 2.86 5.44179 2.86 5.45592 2.86C5.47005 2.86 5.48418 2.86 5.49831 2.86C5.51244 2.86 5.52657 2.86 5.5407 2.86C5.55483 2.86 5.56896 2.86 5.58309 2.86C5.59721 2.86 5.61134 2.86 5.62547 2.86C5.6396 2.86 5.65372 2.86 5.66785 2.86C5.68198 2.86 5.69611 2.86 5.71023 2.86C5.72436 2.86 5.73848 2.86 5.75261 2.86C5.76674 2.86 5.78086 2.86 5.79498 2.86C5.80911 2.86 5.82323 2.86 5.83736 2.86C5.85148 2.86 5.8656 2.86 5.87973 2.86C5.89385 2.86 5.90797 2.86 5.9221 2.86C5.93622 2.86 5.95034 2.86 5.96446 2.86C5.97859 2.86 5.99271 2.86 6.00683 2.86C6.02095 2.86 6.03507 2.86 6.04919 2.86C6.06331 2.86 6.07743 2.86 6.09155 2.86C6.10567 2.86 6.11979 2.86 6.13391 2.86C6.14803 2.86 6.16215 2.86 6.17627 2.86C6.19038 2.86 6.2045 2.86 6.21862 2.86C6.23274 2.86 6.24685 2.86 6.26097 2.86C6.27509 2.86 6.28921 2.86 6.30332 2.86C6.31744 2.86 6.33155 2.86 6.34567 2.86C6.35979 2.86 6.3739 2.86 6.38801 2.86C6.40213 2.86 6.41624 2.86 6.43036 2.86C6.44447 2.86 6.45859 2.86 6.4727 2.86C6.48681 2.86 6.50093 2.86 6.51504 2.86C6.52915 2.86 6.54326 2.86 6.55737 2.86C6.57149 2.86 6.5856 2.86 6.59971 2.86C6.61382 2.86 6.62793 2.86 6.64204 2.86C6.65615 2.86 6.67026 2.86 6.68437 2.86C6.69848 2.86 6.71259 2.86 6.7267 2.86C6.74081 2.86 6.75492 2.86 6.76903 2.86C6.78314 2.86 6.79724 2.86 6.81135 2.86C6.82546 2.86 6.83957 2.86 6.85367 2.86C6.86778 2.86 6.88189 2.86 6.89599 2.86C6.9101 2.86 6.92421 2.86 6.93831 2.86C6.95242 2.86 6.96652 2.86 6.98063 2.86C6.99473 2.86 7.00883 2.86 7.02294 2.86C7.03704 2.86 7.05115 2.86 7.06525 2.86C7.07935 2.86 7.09346 2.86 7.10756 2.86C7.12166 2.86 7.13577 2.86 7.14987 2.86C7.16397 2.86 7.17807 2.86 7.19217 2.86C7.20627 2.86 7.22037 2.86 7.23447 2.86C7.24858 2.86 7.26267 2.86 7.27678 2.86C7.29087 2.86 7.30497 2.86 7.31907 2.86C7.33317 2.86 7.34727 2.86 7.36137 2.86C7.37547 2.86 7.38957 2.86 7.40366 2.86C7.41776 2.86 7.43186 2.86 7.44596 2.86C7.46005 2.86 7.47415 2.86 7.48825 2.86C7.50234 2.86 7.51644 2.86 7.53053 2.86C7.54463 2.86 7.55872 2.86 7.57282 2.86C7.58691 2.86 7.60101 2.86 7.6151 2.86C7.6292 2.86 7.64329 2.86 7.65738 2.86C7.67148 2.86 7.68557 2.86 7.69966 2.86C7.71376 2.86 7.72785 2.86 7.74194 2.86C7.75603 2.86 7.77012 2.86 7.78422 2.86C7.79831 2.86 7.8124 2.86 7.82649 2.86C7.84058 2.86 7.85467 2.86 7.86876 2.86C7.88285 2.86 7.89694 2.86 7.91103 2.86C7.92512 2.86 7.93921 2.86 7.95329 2.86C7.96738 2.86 7.98147 2.86 7.99556 2.86C8.00965 2.86 8.02373 2.86 8.03782 2.86C8.05191 2.86 8.06599 2.86 8.08008 2.86C8.09417 2.86 8.10825 2.86 8.12234 2.86C8.13642 2.86 8.15051 2.86 8.16459 2.86C8.17868 2.86 8.19276 2.86 8.20685 2.86C8.22093 2.86 8.23502 2.86 8.2491 2.86C8.26318 2.86 8.27727 2.86 8.29135 2.86C8.30543 2.86 8.31951 2.86 8.3336 2.86C8.34768 2.86 8.36176 2.86 8.37584 2.86C8.38992 2.86 8.404 2.86 8.41808 2.86C8.43216 2.86 8.44624 2.86 8.46032 2.86C8.4744 2.86 8.48848 2.86 8.50256 2.86C8.51664 2.86 8.53072 2.86 8.5448 2.86C8.55888 2.86 8.57296 2.86 8.58703 2.86C8.60111 2.86 8.61519 2.86 8.62926 2.86C8.64334 2.86 8.65742 2.86 8.6715 2.86C8.68557 2.86 8.69965 2.86 8.71372 2.86C8.7278 2.86 8.74187 2.86 8.75595 2.86C8.77002 2.86 8.7841 2.86 8.79817 2.86C8.81225 2.86 8.82632 2.86 8.84039 2.86C8.85447 2.86 8.86854 2.86 8.88261 2.86C8.89669 2.86 8.91076 2.86 8.92483 2.86C8.9389 2.86 8.95297 2.86 8.96705 2.86C8.98112 2.86 8.99519 2.86 9.00926 2.86C9.02333 2.86 9.0374 2.86 9.05147 2.86C9.06554 2.86 9.07961 2.86 9.09368 2.86C9.10775 2.86 9.12182 2.86 9.13589 2.86C9.14995 2.86 9.16402 2.86 9.17809 2.86C9.19216 2.86 9.20622 2.86 9.22029 2.86C9.23436 2.86 9.24843 2.86 9.26249 2.86C9.27656 2.86 9.29062 2.86 9.30469 2.86C9.31876 2.86 9.33282 2.86 9.34689 2.86C9.36095 2.86 9.37502 2.86 9.38908 2.86C9.40314 2.86 9.41721 2.86 9.43127 2.86C9.44534 2.86 9.4594 2.86 9.47346 2.86C9.48752 2.86 9.50159 2.86 9.51565 2.86C9.52971 2.86 9.54377 2.86 9.55783 2.86C9.5719 2.86 9.58596 2.86 9.60002 2.86C9.61408 2.86 9.62814 2.86 9.6422 2.86C9.65626 2.86 9.67032 2.86 9.68438 2.86C9.69843 2.86 9.71249 2.86 9.72655 2.86C9.74061 2.86 9.75467 2.86 9.76873 2.86C9.78279 2.86 9.79684 2.86 9.8109 2.86C9.82496 2.86 9.83901 2.86 9.85307 2.86C9.86713 2.86 9.88118 2.86 9.89524 2.86C9.90929 2.86 9.92335 2.86 9.9374 2.86C9.95146 2.86 9.96551 2.86 9.97957 2.86C9.99362 2.86 10.0077 2.86 10.0217 2.86C10.0358 2.86 10.0498 2.86 10.0639 2.86C10.0779 2.86 10.092 2.86 10.106 2.86C10.1201 2.86 10.1342 2.86 10.1482 2.86C10.1623 2.86 10.1763 2.86 10.1904 2.86C10.2044 2.86 10.2185 2.86 10.2325 2.86C10.2466 2.86 10.2606 2.86 10.2747 2.86C10.2887 2.86 10.3028 2.86 10.3168 2.86C10.3309 2.86 10.3449 2.86 10.3589 2.86C10.373 2.86 10.387 2.86 10.4011 2.86C10.4151 2.86 10.4292 2.86 10.4432 2.86C10.4573 2.86 10.4713 2.86 10.4854 2.86C10.4994 2.86 10.5135 2.86 10.5275 2.86C10.5415 2.86 10.5556 2.86 10.5696 2.86C10.5837 2.86 10.5977 2.86 10.6118 2.86C10.6258 2.86 10.6399 2.86 10.6539 2.86C10.6679 2.86 10.682 2.86 10.696 2.86C10.7101 2.86 10.7241 2.86 10.7382 2.86C10.7522 2.86 10.7662 2.86 10.7803 2.86C10.7943 2.86 10.8084 2.86 10.8224 2.86C10.8364 2.86 10.8505 2.86 10.8645 2.86C10.8786 2.86 10.8926 2.86 10.9066 2.86C10.9207 2.86 10.9347 2.86 10.9487 2.86C10.9628 2.86 10.9768 2.86 10.9909 2.86C11.0049 2.86 11.0189 2.86 11.033 2.86C11.047 2.86 11.061 2.86 11.0751 2.86C11.0891 2.86 11.1031 2.86 11.1172 2.86C11.1312 2.86 11.1453 2.86 11.1593 2.86C11.1733 2.86 11.1874 2.86 11.2014 2.86C11.2154 2.86 11.2295 2.86 11.2435 2.86C11.2575 2.86 11.2716 2.86 11.2856 2.86C11.2996 2.86 11.3137 2.86 11.3277 2.86C11.3417 2.86 11.3557 2.86 11.3698 2.86C11.3838 2.86 11.3978 2.86 11.4119 2.86C11.4259 2.86 11.4399 2.86 11.454 2.86C11.468 2.86 11.482 2.86 11.496 2.86C11.5101 2.86 11.5241 2.86 11.5381 2.86C11.5522 2.86 11.5662 2.86 11.5802 2.86C11.5942 2.86 11.6083 2.86 11.6223 2.86C11.6363 2.86 11.6503 2.86 11.6644 2.86C11.6784 2.86 11.6924 2.86 11.7064 2.86C11.7205 2.86 11.7345 2.86 11.7485 2.86C11.7625 2.86 11.7766 2.86 11.7906 2.86C11.8046 2.86 11.8186 2.86 11.8327 2.86C11.8467 2.86 11.8607 2.86 11.8747 2.86C11.8888 2.86 11.9028 2.86 11.9168 2.86C11.9308 2.86 11.9448 2.86 11.9589 2.86C11.9729 2.86 11.9869 2.86 12.0009 2.86C12.0149 2.86 12.029 2.86 12.043 2.86C12.057 2.86 12.071 2.86 12.085 2.86C12.0991 2.86 12.1131 2.86 12.1271 2.86C12.1411 2.86 12.1551 2.86 12.1691 2.86C12.1832 2.86 12.1972 2.86 12.2112 2.86C12.2252 2.86 12.2392 2.86 12.2532 2.86C12.2673 2.86 12.2813 2.86 12.2953 2.86C12.3093 2.86 12.3233 2.86 12.3373 2.86C12.3513 2.86 12.3654 2.86 12.3794 2.86C12.3934 2.86 12.4074 2.86 12.4214 2.86C12.4354 2.86 12.4494 2.86 12.4635 2.86C12.4775 2.86 12.4915 2.86 12.5055 2.86C12.5195 2.86 12.5335 2.86 12.5475 2.86C12.5615 2.86 12.5755 2.86 12.5896 2.86C12.6036 2.86 12.6176 2.86 12.6316 2.86C12.6456 2.86 12.6596 2.86 12.6736 2.86C12.6876 2.86 12.7016 2.86 12.7156 2.86C12.7296 2.86 12.7437 2.86 12.7577 2.86C12.7717 2.86 12.7857 2.86 12.7997 2.86C12.8137 2.86 12.8277 2.86 12.8417 2.86C12.8557 2.86 12.8697 2.86 12.8837 2.86C12.8977 2.86 12.9117 2.86 12.9257 2.86C12.9397 2.86 12.9537 2.86 12.9677 2.86C12.9817 2.86 12.9957 2.86 13.0098 2.86C13.0238 2.86 13.0378 2.86 13.0518 2.86C13.0658 2.86 13.0798 2.86 13.0938 2.86C13.1078 2.86 13.1218 2.86 13.1358 2.86C13.1498 2.86 13.1638 2.86 13.1778 2.86C13.1918 2.86 13.2058 2.86 13.2198 2.86C13.2338 2.86 13.2478 2.86 13.2618 2.86C13.2758 2.86 13.2898 2.86 13.3038 2.86C13.3178 2.86 13.3318 2.86 13.3458 2.86C13.3598 2.86 13.3737 2.86 13.3877 2.86C13.4017 2.86 13.4157 2.86 13.4297 2.86C13.4437 2.86 13.4577 2.86 13.4717 2.86C13.4857 2.86 13.4997 2.86 13.5137 2.86C13.5277 2.86 13.5417 2.86 13.5557 2.86C13.5697 2.86 13.5837 2.86 13.5977 2.86C13.6117 2.86 13.6257 2.86 13.6396 2.86C13.6536 2.86 13.6676 2.86 13.6816 2.86C13.6956 2.86 13.7096 2.86 13.7236 2.86C13.7376 2.86 13.7516 2.86 13.7656 2.86C13.7796 2.86 13.7935 2.86 13.8075 2.86C13.8215 2.86 13.8355 2.86 13.8495 2.86C13.8635 2.86 13.8775 2.86 13.8915 2.86C13.9055 2.86 13.9194 2.86 13.9334 2.86C13.9474 2.86 13.9614 2.86 13.9754 2.86C13.9894 2.86 14.0034 2.86 14.0174 2.86C14.0313 2.86 14.0453 2.86 14.0593 2.86C14.0733 2.86 14.0873 2.86 14.1013 2.86C14.1152 2.86 14.1292 2.86 14.1432 2.86C14.1572 2.86 14.1712 2.86 14.1852 2.86C14.1991 2.86 14.2131 2.86 14.2271 2.86C14.2411 2.86 14.2551 2.86 14.2691 2.86C14.283 2.86 14.297 2.86 14.311 2.86C14.325 2.86 14.339 2.86 14.3529 2.86C14.3669 2.86 14.3809 2.86 14.3949 2.86C14.4089 2.86 14.4228 2.86 14.4368 2.86C14.4508 2.86 14.4648 2.86 14.4788 2.86C14.4927 2.86 14.5067 2.86 14.5207 2.86C14.5347 2.86 14.5486 2.86 14.5626 2.86C14.5766 2.86 14.5906 2.86 14.6045 2.86C14.6185 2.86 14.6325 2.86 14.6465 2.86C14.6605 2.86 14.6744 2.86 14.6884 2.86C14.7024 2.86 14.7164 2.86 14.7303 2.86C14.7443 2.86 14.7583 2.86 14.7722 2.86C14.7862 2.86 14.8002 2.86 14.8142 2.86C14.8281 2.86 14.8421 2.86 14.8561 2.86C14.8701 2.86 14.884 2.86 14.898 2.86C14.912 2.86 14.9259 2.86 14.9399 2.86C14.9539 2.86 14.9678 2.86 14.9818 2.86C14.9958 2.86 15.0098 2.86 15.0237 2.86C15.0377 2.86 15.0517 2.86 15.0656 2.86C15.0796 2.86 15.0936 2.86 15.1075 2.86C15.1215 2.86 15.1355 2.86 15.1494 2.86C15.1634 2.86 15.1774 2.86 15.1913 2.86C15.2053 2.86 15.2193 2.86 15.2332 2.86C15.2472 2.86 15.2612 2.86 15.2751 2.86C15.2891 2.86 15.303 2.86 15.317 2.86C15.331 2.86 15.3449 2.86 15.3589 2.86C15.3729 2.86 15.3868 2.86 15.4008 2.86C15.4148 2.86 15.4287 2.86 15.4427 2.86C15.4566 2.86 15.4706 2.86 15.4846 2.86C15.4985 2.86 15.5125 2.86 15.5264 2.86C15.5404 2.86 15.5544 2.86 15.5683 2.86C15.5823 2.86 15.5962 2.86 15.6102 2.86C15.6242 2.86 15.6381 2.86 15.6521 2.86C15.666 2.86 15.68 2.86 15.694 2.86C15.7079 2.86 15.7219 2.86 15.7358 2.86C15.7498 2.86 15.7637 2.86 15.7777 2.86C15.7916 2.86 15.8056 2.86 15.8196 2.86C15.8335 2.86 15.8475 2.86 15.8614 2.86C15.8754 2.86 15.8893 2.86 15.9033 2.86C15.9172 2.86 15.9312 2.86 15.9451 2.86C15.9591 2.86 15.9731 2.86 15.987 2.86C16.001 2.86 16.0149 2.86 16.0289 2.86C16.0428 2.86 16.0568 2.86 16.0707 2.86C16.0847 2.86 16.0986 2.86 16.1126 2.86C16.1265 2.86 16.1405 2.86 16.1544 2.86C16.1684 2.86 16.1823 2.86 16.1963 2.86C16.2102 2.86 16.2242 2.86 16.2381 2.86C16.2521 2.86 16.266 2.86 16.28 2.86C16.2939 2.86 16.3078 2.86 16.3218 2.86C16.3357 2.86 16.3497 2.86 16.3636 2.86C16.3776 2.86 16.3915 2.86 16.4055 2.86C16.4194 2.86 16.4334 2.86 16.4473 2.86C16.4612 2.86 16.4752 2.86 16.4891 2.86C16.5031 2.86 16.517 2.86 16.531 2.86C16.5449 2.86 16.5589 2.86 16.5728 2.86C16.5867 2.86 16.6007 2.86 16.6146 2.86C16.6286 2.86 16.6425 2.86 16.6564 2.86C16.6704 2.86 16.6843 2.86 16.6983 2.86C16.7122 2.86 16.7261 2.86 16.7401 2.86C16.754 2.86 16.768 2.86 16.7819 2.86C16.7958 2.86 16.8098 2.86 16.8237 2.86C16.8377 2.86 16.8516 2.86 16.8655 2.86C16.8795 2.86 16.8934 2.86 16.9073 2.86C16.9213 2.86 16.9352 2.86 16.9492 2.86C16.9631 2.86 16.977 2.86 16.991 2.86C17.0049 2.86 17.0188 2.86 17.0328 2.86C17.0467 2.86 17.0606 2.86 17.0746 2.86C17.0885 2.86 17.1024 2.86 17.1164 2.86C17.1303 2.86 17.1442 2.86 17.1582 2.86C17.1721 2.86 17.186 2.86 17.2 2.86C17.2139 2.86 17.2278 2.86 17.2418 2.86C17.2557 2.86 17.2696 2.86 17.2836 2.86C17.2975 2.86 17.3114 2.86 17.3253 2.86C17.3393 2.86 17.3532 2.86 17.3671 2.86C17.3811 2.86 17.395 2.86 17.4089 2.86C17.4228 2.86 17.4368 2.86 17.4507 2.86C17.4646 2.86 17.4786 2.86 17.4925 2.86C17.5064 2.86 17.5203 2.86 17.5343 2.86C17.5482 2.86 17.5621 2.86 17.576 2.86C17.59 2.86 17.6039 2.86 17.6178 2.86C17.6317 2.86 17.6457 2.86 17.6596 2.86C17.6735 2.86 17.6874 2.86 17.7014 2.86C17.7153 2.86 17.7292 2.86 17.7431 2.86C17.757 2.86 17.771 2.86 17.7849 2.86C17.7988 2.86 17.8127 2.86 17.8267 2.86C17.8406 2.86 17.8545 2.86 17.8684 2.86C17.8823 2.86 17.8963 2.86 17.9102 2.86C17.9241 2.86 17.938 2.86 17.9519 2.86C17.9659 2.86 17.9798 2.86 17.9937 2.86C18.0076 2.86 18.0215 2.86 18.0354 2.86C18.0494 2.86 18.0633 2.86 18.0772 2.86C18.0911 2.86 18.105 2.86 18.1189 2.86C18.1329 2.86 18.1468 2.86 18.1607 2.86C18.1746 2.86 18.1885 2.86 18.2024 2.86C18.2164 2.86 18.2303 2.86 18.2442 2.86C18.2581 2.86 18.272 2.86 18.2859 2.86C18.2998 2.86 18.3137 2.86 18.3277 2.86C18.3416 2.86 18.3555 2.86 18.3694 2.86C18.3833 2.86 18.3972 2.86 18.4111 2.86C18.425 2.86 18.439 2.86 18.4529 2.86C18.4668 2.86 18.4807 2.86 18.4946 2.86C18.5085 2.86 18.5224 2.86 18.5363 2.86C18.5502 2.86 18.5641 2.86 18.5781 2.86C18.592 2.86 18.6059 2.86 18.6198 2.86C18.6337 2.86 18.6476 2.86 18.6615 2.86C18.6754 2.86 18.6893 2.86 18.7032 2.86C18.7171 2.86 18.731 2.86 18.7449 2.86C18.7588 2.86 18.7727 2.86 18.7866 2.86C18.8006 2.86 18.8145 2.86 18.8284 2.86C18.8423 2.86 18.8562 2.86 18.8701 2.86C18.884 2.86 18.8979 2.86 18.9118 2.86C18.9257 2.86 18.9396 2.86 18.9535 2.86C18.9674 2.86 18.9813 2.86 18.9952 2.86C19.0091 2.86 19.023 2.86 19.0369 2.86C19.0508 2.86 19.0647 2.86 19.0786 2.86C19.0925 2.86 19.1064 2.86 19.1203 2.86C19.1342 2.86 19.1481 2.86 19.162 2.86C19.1759 2.86 19.1898 2.86 19.2037 2.86C19.2176 2.86 19.2315 2.86 19.2454 2.86C19.2593 2.86 19.2732 2.86 19.2871 2.86C19.301 2.86 19.3149 2.86 19.3288 2.86C19.3426 2.86 19.3565 2.86 19.3704 2.86C19.3843 2.86 19.3982 2.86 19.4121 2.86C19.426 2.86 19.4399 2.86 19.4538 2.86C19.4677 2.86 19.4816 2.86 19.4955 2.86C19.5094 2.86 19.5233 2.86 19.5372 2.86C19.551 2.86 19.5649 2.86 19.5788 2.86C19.5927 2.86 19.6066 2.86 19.6205 2.86C19.6344 2.86 19.6483 2.86 19.6622 2.86C19.6761 2.86 19.69 2.86 19.7038 2.86C19.7177 2.86 19.7316 2.86 19.7455 2.86C19.7594 2.86 19.7733 2.86 19.7872 2.86C19.8011 2.86 19.8149 2.86 19.8288 2.86C19.8427 2.86 19.8566 2.86 19.8705 2.86C19.8844 2.86 19.8983 2.86 19.9122 2.86C19.926 2.86 19.9399 2.86 19.9538 2.86C19.9677 2.86 19.9816 2.86 19.9955 2.86C20.0093 2.86 20.0232 2.86 20.0371 2.86C20.051 2.86 20.0649 2.86 20.0788 2.86C20.0926 2.86 20.1065 2.86 20.1204 2.86C20.1343 2.86 20.1482 2.86 20.1621 2.86C20.1759 2.86 20.1898 2.86 20.2037 2.86C20.2176 2.86 20.2315 2.86 20.2453 2.86C20.2592 2.86 20.2731 2.86 20.287 2.86C20.3009 2.86 20.3147 2.86 20.3286 2.86C20.3425 2.86 20.3564 2.86 20.3702 2.86C20.3841 2.86 20.398 2.86 20.4119 2.86C20.4258 2.86 20.4396 2.86 20.4535 2.86C20.4674 2.86 20.4813 2.86 20.4951 2.86C20.509 2.86 20.5229 2.86 20.5368 2.86C20.5506 2.86 20.5645 2.86 20.5784 2.86C20.5923 2.86 20.6061 2.86 20.62 2.86C20.6339 2.86 20.6477 2.86 20.6616 2.86C20.6755 2.86 20.6894 2.86 20.7032 2.86C20.7171 2.86 20.731 2.86 20.7449 2.86C20.7587 2.86 20.7726 2.86 20.7865 2.86C20.8003 2.86 20.8142 2.86 20.8281 2.86C20.8419 2.86 20.8558 2.86 20.8697 2.86C20.8836 2.86 20.8974 2.86 20.9113 2.86C20.9252 2.86 20.939 2.86 20.9529 2.86C20.9668 2.86 20.9806 2.86 20.9945 2.86C21.0084 2.86 21.0222 2.86 21.0361 2.86C21.05 2.86 21.0638 2.86 21.0777 2.86C21.0916 2.86 21.1054 2.86 21.1193 2.86C21.1332 2.86 21.147 2.86 21.1609 2.86C21.1747 2.86 21.1886 2.86 21.2025 2.86C21.2163 2.86 21.2302 2.86 21.2441 2.86C21.2579 2.86 21.2718 2.86 21.2857 2.86C21.2995 2.86 21.3134 2.86 21.3272 2.86C21.3411 2.86 21.355 2.86 21.3688 2.86C21.3827 2.86 21.3965 2.86 21.4104 2.86C21.4243 2.86 21.4381 2.86 21.452 2.86C21.4658 2.86 21.4797 2.86 21.4936 2.86C21.5074 2.86 21.5213 2.86 21.5351 2.86C21.549 2.86 21.5628 2.86 21.5767 2.86C21.5906 2.86 21.6044 2.86 21.6183 2.86C21.6321 2.86 21.646 2.86 21.6598 2.86C21.6737 2.86 21.6875 2.86 21.7014 2.86C21.7153 2.86 21.7291 2.86 21.743 2.86V-1.14C21.7291 -1.14 21.7153 -1.14 21.7014 -1.14C21.6875 -1.14 21.6737 -1.14 21.6598 -1.14C21.646 -1.14 21.6321 -1.14 21.6183 -1.14C21.6044 -1.14 21.5906 -1.14 21.5767 -1.14C21.5628 -1.14 21.549 -1.14 21.5351 -1.14C21.5213 -1.14 21.5074 -1.14 21.4936 -1.14C21.4797 -1.14 21.4658 -1.14 21.452 -1.14C21.4381 -1.14 21.4243 -1.14 21.4104 -1.14C21.3965 -1.14 21.3827 -1.14 21.3688 -1.14C21.355 -1.14 21.3411 -1.14 21.3272 -1.14C21.3134 -1.14 21.2995 -1.14 21.2857 -1.14C21.2718 -1.14 21.2579 -1.14 21.2441 -1.14C21.2302 -1.14 21.2163 -1.14 21.2025 -1.14C21.1886 -1.14 21.1747 -1.14 21.1609 -1.14C21.147 -1.14 21.1332 -1.14 21.1193 -1.14C21.1054 -1.14 21.0916 -1.14 21.0777 -1.14C21.0638 -1.14 21.05 -1.14 21.0361 -1.14C21.0222 -1.14 21.0084 -1.14 20.9945 -1.14C20.9806 -1.14 20.9668 -1.14 20.9529 -1.14C20.939 -1.14 20.9252 -1.14 20.9113 -1.14C20.8974 -1.14 20.8836 -1.14 20.8697 -1.14C20.8558 -1.14 20.8419 -1.14 20.8281 -1.14C20.8142 -1.14 20.8003 -1.14 20.7865 -1.14C20.7726 -1.14 20.7587 -1.14 20.7449 -1.14C20.731 -1.14 20.7171 -1.14 20.7032 -1.14C20.6894 -1.14 20.6755 -1.14 20.6616 -1.14C20.6477 -1.14 20.6339 -1.14 20.62 -1.14C20.6061 -1.14 20.5923 -1.14 20.5784 -1.14C20.5645 -1.14 20.5506 -1.14 20.5368 -1.14C20.5229 -1.14 20.509 -1.14 20.4951 -1.14C20.4813 -1.14 20.4674 -1.14 20.4535 -1.14C20.4396 -1.14 20.4258 -1.14 20.4119 -1.14C20.398 -1.14 20.3841 -1.14 20.3702 -1.14C20.3564 -1.14 20.3425 -1.14 20.3286 -1.14C20.3147 -1.14 20.3009 -1.14 20.287 -1.14C20.2731 -1.14 20.2592 -1.14 20.2453 -1.14C20.2315 -1.14 20.2176 -1.14 20.2037 -1.14C20.1898 -1.14 20.1759 -1.14 20.1621 -1.14C20.1482 -1.14 20.1343 -1.14 20.1204 -1.14C20.1065 -1.14 20.0926 -1.14 20.0788 -1.14C20.0649 -1.14 20.051 -1.14 20.0371 -1.14C20.0232 -1.14 20.0093 -1.14 19.9955 -1.14C19.9816 -1.14 19.9677 -1.14 19.9538 -1.14C19.9399 -1.14 19.926 -1.14 19.9122 -1.14C19.8983 -1.14 19.8844 -1.14 19.8705 -1.14C19.8566 -1.14 19.8427 -1.14 19.8288 -1.14C19.8149 -1.14 19.8011 -1.14 19.7872 -1.14C19.7733 -1.14 19.7594 -1.14 19.7455 -1.14C19.7316 -1.14 19.7177 -1.14 19.7038 -1.14C19.69 -1.14 19.6761 -1.14 19.6622 -1.14C19.6483 -1.14 19.6344 -1.14 19.6205 -1.14C19.6066 -1.14 19.5927 -1.14 19.5788 -1.14C19.5649 -1.14 19.551 -1.14 19.5372 -1.14C19.5233 -1.14 19.5094 -1.14 19.4955 -1.14C19.4816 -1.14 19.4677 -1.14 19.4538 -1.14C19.4399 -1.14 19.426 -1.14 19.4121 -1.14C19.3982 -1.14 19.3843 -1.14 19.3704 -1.14C19.3565 -1.14 19.3426 -1.14 19.3288 -1.14C19.3149 -1.14 19.301 -1.14 19.2871 -1.14C19.2732 -1.14 19.2593 -1.14 19.2454 -1.14C19.2315 -1.14 19.2176 -1.14 19.2037 -1.14C19.1898 -1.14 19.1759 -1.14 19.162 -1.14C19.1481 -1.14 19.1342 -1.14 19.1203 -1.14C19.1064 -1.14 19.0925 -1.14 19.0786 -1.14C19.0647 -1.14 19.0508 -1.14 19.0369 -1.14C19.023 -1.14 19.0091 -1.14 18.9952 -1.14C18.9813 -1.14 18.9674 -1.14 18.9535 -1.14C18.9396 -1.14 18.9257 -1.14 18.9118 -1.14C18.8979 -1.14 18.884 -1.14 18.8701 -1.14C18.8562 -1.14 18.8423 -1.14 18.8284 -1.14C18.8145 -1.14 18.8006 -1.14 18.7866 -1.14C18.7727 -1.14 18.7588 -1.14 18.7449 -1.14C18.731 -1.14 18.7171 -1.14 18.7032 -1.14C18.6893 -1.14 18.6754 -1.14 18.6615 -1.14C18.6476 -1.14 18.6337 -1.14 18.6198 -1.14C18.6059 -1.14 18.592 -1.14 18.5781 -1.14C18.5641 -1.14 18.5502 -1.14 18.5363 -1.14C18.5224 -1.14 18.5085 -1.14 18.4946 -1.14C18.4807 -1.14 18.4668 -1.14 18.4529 -1.14C18.439 -1.14 18.425 -1.14 18.4111 -1.14C18.3972 -1.14 18.3833 -1.14 18.3694 -1.14C18.3555 -1.14 18.3416 -1.14 18.3277 -1.14C18.3137 -1.14 18.2998 -1.14 18.2859 -1.14C18.272 -1.14 18.2581 -1.14 18.2442 -1.14C18.2303 -1.14 18.2164 -1.14 18.2024 -1.14C18.1885 -1.14 18.1746 -1.14 18.1607 -1.14C18.1468 -1.14 18.1329 -1.14 18.1189 -1.14C18.105 -1.14 18.0911 -1.14 18.0772 -1.14C18.0633 -1.14 18.0494 -1.14 18.0354 -1.14C18.0215 -1.14 18.0076 -1.14 17.9937 -1.14C17.9798 -1.14 17.9659 -1.14 17.9519 -1.14C17.938 -1.14 17.9241 -1.14 17.9102 -1.14C17.8963 -1.14 17.8823 -1.14 17.8684 -1.14C17.8545 -1.14 17.8406 -1.14 17.8267 -1.14C17.8127 -1.14 17.7988 -1.14 17.7849 -1.14C17.771 -1.14 17.757 -1.14 17.7431 -1.14C17.7292 -1.14 17.7153 -1.14 17.7014 -1.14C17.6874 -1.14 17.6735 -1.14 17.6596 -1.14C17.6457 -1.14 17.6317 -1.14 17.6178 -1.14C17.6039 -1.14 17.59 -1.14 17.576 -1.14C17.5621 -1.14 17.5482 -1.14 17.5343 -1.14C17.5203 -1.14 17.5064 -1.14 17.4925 -1.14C17.4786 -1.14 17.4646 -1.14 17.4507 -1.14C17.4368 -1.14 17.4228 -1.14 17.4089 -1.14C17.395 -1.14 17.3811 -1.14 17.3671 -1.14C17.3532 -1.14 17.3393 -1.14 17.3253 -1.14C17.3114 -1.14 17.2975 -1.14 17.2836 -1.14C17.2696 -1.14 17.2557 -1.14 17.2418 -1.14C17.2278 -1.14 17.2139 -1.14 17.2 -1.14C17.186 -1.14 17.1721 -1.14 17.1582 -1.14C17.1442 -1.14 17.1303 -1.14 17.1164 -1.14C17.1024 -1.14 17.0885 -1.14 17.0746 -1.14C17.0606 -1.14 17.0467 -1.14 17.0328 -1.14C17.0188 -1.14 17.0049 -1.14 16.991 -1.14C16.977 -1.14 16.9631 -1.14 16.9492 -1.14C16.9352 -1.14 16.9213 -1.14 16.9073 -1.14C16.8934 -1.14 16.8795 -1.14 16.8655 -1.14C16.8516 -1.14 16.8377 -1.14 16.8237 -1.14C16.8098 -1.14 16.7958 -1.14 16.7819 -1.14C16.768 -1.14 16.754 -1.14 16.7401 -1.14C16.7261 -1.14 16.7122 -1.14 16.6983 -1.14C16.6843 -1.14 16.6704 -1.14 16.6564 -1.14C16.6425 -1.14 16.6286 -1.14 16.6146 -1.14C16.6007 -1.14 16.5867 -1.14 16.5728 -1.14C16.5589 -1.14 16.5449 -1.14 16.531 -1.14C16.517 -1.14 16.5031 -1.14 16.4891 -1.14C16.4752 -1.14 16.4612 -1.14 16.4473 -1.14C16.4334 -1.14 16.4194 -1.14 16.4055 -1.14C16.3915 -1.14 16.3776 -1.14 16.3636 -1.14C16.3497 -1.14 16.3357 -1.14 16.3218 -1.14C16.3078 -1.14 16.2939 -1.14 16.28 -1.14C16.266 -1.14 16.2521 -1.14 16.2381 -1.14C16.2242 -1.14 16.2102 -1.14 16.1963 -1.14C16.1823 -1.14 16.1684 -1.14 16.1544 -1.14C16.1405 -1.14 16.1265 -1.14 16.1126 -1.14C16.0986 -1.14 16.0847 -1.14 16.0707 -1.14C16.0568 -1.14 16.0428 -1.14 16.0289 -1.14C16.0149 -1.14 16.001 -1.14 15.987 -1.14C15.9731 -1.14 15.9591 -1.14 15.9451 -1.14C15.9312 -1.14 15.9172 -1.14 15.9033 -1.14C15.8893 -1.14 15.8754 -1.14 15.8614 -1.14C15.8475 -1.14 15.8335 -1.14 15.8196 -1.14C15.8056 -1.14 15.7916 -1.14 15.7777 -1.14C15.7637 -1.14 15.7498 -1.14 15.7358 -1.14C15.7219 -1.14 15.7079 -1.14 15.694 -1.14C15.68 -1.14 15.666 -1.14 15.6521 -1.14C15.6381 -1.14 15.6242 -1.14 15.6102 -1.14C15.5962 -1.14 15.5823 -1.14 15.5683 -1.14C15.5544 -1.14 15.5404 -1.14 15.5264 -1.14C15.5125 -1.14 15.4985 -1.14 15.4846 -1.14C15.4706 -1.14 15.4566 -1.14 15.4427 -1.14C15.4287 -1.14 15.4148 -1.14 15.4008 -1.14C15.3868 -1.14 15.3729 -1.14 15.3589 -1.14C15.3449 -1.14 15.331 -1.14 15.317 -1.14C15.303 -1.14 15.2891 -1.14 15.2751 -1.14C15.2612 -1.14 15.2472 -1.14 15.2332 -1.14C15.2193 -1.14 15.2053 -1.14 15.1913 -1.14C15.1774 -1.14 15.1634 -1.14 15.1494 -1.14C15.1355 -1.14 15.1215 -1.14 15.1075 -1.14C15.0936 -1.14 15.0796 -1.14 15.0656 -1.14C15.0517 -1.14 15.0377 -1.14 15.0237 -1.14C15.0098 -1.14 14.9958 -1.14 14.9818 -1.14C14.9678 -1.14 14.9539 -1.14 14.9399 -1.14C14.9259 -1.14 14.912 -1.14 14.898 -1.14C14.884 -1.14 14.8701 -1.14 14.8561 -1.14C14.8421 -1.14 14.8281 -1.14 14.8142 -1.14C14.8002 -1.14 14.7862 -1.14 14.7722 -1.14C14.7583 -1.14 14.7443 -1.14 14.7303 -1.14C14.7164 -1.14 14.7024 -1.14 14.6884 -1.14C14.6744 -1.14 14.6605 -1.14 14.6465 -1.14C14.6325 -1.14 14.6185 -1.14 14.6045 -1.14C14.5906 -1.14 14.5766 -1.14 14.5626 -1.14C14.5486 -1.14 14.5347 -1.14 14.5207 -1.14C14.5067 -1.14 14.4927 -1.14 14.4788 -1.14C14.4648 -1.14 14.4508 -1.14 14.4368 -1.14C14.4228 -1.14 14.4089 -1.14 14.3949 -1.14C14.3809 -1.14 14.3669 -1.14 14.3529 -1.14C14.339 -1.14 14.325 -1.14 14.311 -1.14C14.297 -1.14 14.283 -1.14 14.2691 -1.14C14.2551 -1.14 14.2411 -1.14 14.2271 -1.14C14.2131 -1.14 14.1991 -1.14 14.1852 -1.14C14.1712 -1.14 14.1572 -1.14 14.1432 -1.14C14.1292 -1.14 14.1152 -1.14 14.1013 -1.14C14.0873 -1.14 14.0733 -1.14 14.0593 -1.14C14.0453 -1.14 14.0313 -1.14 14.0174 -1.14C14.0034 -1.14 13.9894 -1.14 13.9754 -1.14C13.9614 -1.14 13.9474 -1.14 13.9334 -1.14C13.9194 -1.14 13.9055 -1.14 13.8915 -1.14C13.8775 -1.14 13.8635 -1.14 13.8495 -1.14C13.8355 -1.14 13.8215 -1.14 13.8075 -1.14C13.7935 -1.14 13.7796 -1.14 13.7656 -1.14C13.7516 -1.14 13.7376 -1.14 13.7236 -1.14C13.7096 -1.14 13.6956 -1.14 13.6816 -1.14C13.6676 -1.14 13.6536 -1.14 13.6396 -1.14C13.6257 -1.14 13.6117 -1.14 13.5977 -1.14C13.5837 -1.14 13.5697 -1.14 13.5557 -1.14C13.5417 -1.14 13.5277 -1.14 13.5137 -1.14C13.4997 -1.14 13.4857 -1.14 13.4717 -1.14C13.4577 -1.14 13.4437 -1.14 13.4297 -1.14C13.4157 -1.14 13.4017 -1.14 13.3877 -1.14C13.3737 -1.14 13.3598 -1.14 13.3458 -1.14C13.3318 -1.14 13.3178 -1.14 13.3038 -1.14C13.2898 -1.14 13.2758 -1.14 13.2618 -1.14C13.2478 -1.14 13.2338 -1.14 13.2198 -1.14C13.2058 -1.14 13.1918 -1.14 13.1778 -1.14C13.1638 -1.14 13.1498 -1.14 13.1358 -1.14C13.1218 -1.14 13.1078 -1.14 13.0938 -1.14C13.0798 -1.14 13.0658 -1.14 13.0518 -1.14C13.0378 -1.14 13.0238 -1.14 13.0098 -1.14C12.9957 -1.14 12.9817 -1.14 12.9677 -1.14C12.9537 -1.14 12.9397 -1.14 12.9257 -1.14C12.9117 -1.14 12.8977 -1.14 12.8837 -1.14C12.8697 -1.14 12.8557 -1.14 12.8417 -1.14C12.8277 -1.14 12.8137 -1.14 12.7997 -1.14C12.7857 -1.14 12.7717 -1.14 12.7577 -1.14C12.7437 -1.14 12.7296 -1.14 12.7156 -1.14C12.7016 -1.14 12.6876 -1.14 12.6736 -1.14C12.6596 -1.14 12.6456 -1.14 12.6316 -1.14C12.6176 -1.14 12.6036 -1.14 12.5896 -1.14C12.5755 -1.14 12.5615 -1.14 12.5475 -1.14C12.5335 -1.14 12.5195 -1.14 12.5055 -1.14C12.4915 -1.14 12.4775 -1.14 12.4635 -1.14C12.4494 -1.14 12.4354 -1.14 12.4214 -1.14C12.4074 -1.14 12.3934 -1.14 12.3794 -1.14C12.3654 -1.14 12.3513 -1.14 12.3373 -1.14C12.3233 -1.14 12.3093 -1.14 12.2953 -1.14C12.2813 -1.14 12.2673 -1.14 12.2532 -1.14C12.2392 -1.14 12.2252 -1.14 12.2112 -1.14C12.1972 -1.14 12.1832 -1.14 12.1691 -1.14C12.1551 -1.14 12.1411 -1.14 12.1271 -1.14C12.1131 -1.14 12.0991 -1.14 12.085 -1.14C12.071 -1.14 12.057 -1.14 12.043 -1.14C12.029 -1.14 12.0149 -1.14 12.0009 -1.14C11.9869 -1.14 11.9729 -1.14 11.9589 -1.14C11.9448 -1.14 11.9308 -1.14 11.9168 -1.14C11.9028 -1.14 11.8888 -1.14 11.8747 -1.14C11.8607 -1.14 11.8467 -1.14 11.8327 -1.14C11.8186 -1.14 11.8046 -1.14 11.7906 -1.14C11.7766 -1.14 11.7625 -1.14 11.7485 -1.14C11.7345 -1.14 11.7205 -1.14 11.7064 -1.14C11.6924 -1.14 11.6784 -1.14 11.6644 -1.14C11.6503 -1.14 11.6363 -1.14 11.6223 -1.14C11.6083 -1.14 11.5942 -1.14 11.5802 -1.14C11.5662 -1.14 11.5522 -1.14 11.5381 -1.14C11.5241 -1.14 11.5101 -1.14 11.496 -1.14C11.482 -1.14 11.468 -1.14 11.454 -1.14C11.4399 -1.14 11.4259 -1.14 11.4119 -1.14C11.3978 -1.14 11.3838 -1.14 11.3698 -1.14C11.3557 -1.14 11.3417 -1.14 11.3277 -1.14C11.3137 -1.14 11.2996 -1.14 11.2856 -1.14C11.2716 -1.14 11.2575 -1.14 11.2435 -1.14C11.2295 -1.14 11.2154 -1.14 11.2014 -1.14C11.1874 -1.14 11.1733 -1.14 11.1593 -1.14C11.1453 -1.14 11.1312 -1.14 11.1172 -1.14C11.1031 -1.14 11.0891 -1.14 11.0751 -1.14C11.061 -1.14 11.047 -1.14 11.033 -1.14C11.0189 -1.14 11.0049 -1.14 10.9909 -1.14C10.9768 -1.14 10.9628 -1.14 10.9487 -1.14C10.9347 -1.14 10.9207 -1.14 10.9066 -1.14C10.8926 -1.14 10.8786 -1.14 10.8645 -1.14C10.8505 -1.14 10.8364 -1.14 10.8224 -1.14C10.8084 -1.14 10.7943 -1.14 10.7803 -1.14C10.7662 -1.14 10.7522 -1.14 10.7382 -1.14C10.7241 -1.14 10.7101 -1.14 10.696 -1.14C10.682 -1.14 10.6679 -1.14 10.6539 -1.14C10.6399 -1.14 10.6258 -1.14 10.6118 -1.14C10.5977 -1.14 10.5837 -1.14 10.5696 -1.14C10.5556 -1.14 10.5415 -1.14 10.5275 -1.14C10.5135 -1.14 10.4994 -1.14 10.4854 -1.14C10.4713 -1.14 10.4573 -1.14 10.4432 -1.14C10.4292 -1.14 10.4151 -1.14 10.4011 -1.14C10.387 -1.14 10.373 -1.14 10.3589 -1.14C10.3449 -1.14 10.3309 -1.14 10.3168 -1.14C10.3028 -1.14 10.2887 -1.14 10.2747 -1.14C10.2606 -1.14 10.2466 -1.14 10.2325 -1.14C10.2185 -1.14 10.2044 -1.14 10.1904 -1.14C10.1763 -1.14 10.1623 -1.14 10.1482 -1.14C10.1342 -1.14 10.1201 -1.14 10.106 -1.14C10.092 -1.14 10.0779 -1.14 10.0639 -1.14C10.0498 -1.14 10.0358 -1.14 10.0217 -1.14C10.0077 -1.14 9.99362 -1.14 9.97957 -1.14C9.96551 -1.14 9.95146 -1.14 9.9374 -1.14C9.92335 -1.14 9.90929 -1.14 9.89524 -1.14C9.88118 -1.14 9.86713 -1.14 9.85307 -1.14C9.83901 -1.14 9.82496 -1.14 9.8109 -1.14C9.79684 -1.14 9.78279 -1.14 9.76873 -1.14C9.75467 -1.14 9.74061 -1.14 9.72655 -1.14C9.71249 -1.14 9.69843 -1.14 9.68438 -1.14C9.67032 -1.14 9.65626 -1.14 9.6422 -1.14C9.62814 -1.14 9.61408 -1.14 9.60002 -1.14C9.58596 -1.14 9.5719 -1.14 9.55783 -1.14C9.54377 -1.14 9.52971 -1.14 9.51565 -1.14C9.50159 -1.14 9.48752 -1.14 9.47346 -1.14C9.4594 -1.14 9.44534 -1.14 9.43127 -1.14C9.41721 -1.14 9.40314 -1.14 9.38908 -1.14C9.37502 -1.14 9.36095 -1.14 9.34689 -1.14C9.33282 -1.14 9.31876 -1.14 9.30469 -1.14C9.29062 -1.14 9.27656 -1.14 9.26249 -1.14C9.24843 -1.14 9.23436 -1.14 9.22029 -1.14C9.20622 -1.14 9.19216 -1.14 9.17809 -1.14C9.16402 -1.14 9.14995 -1.14 9.13589 -1.14C9.12182 -1.14 9.10775 -1.14 9.09368 -1.14C9.07961 -1.14 9.06554 -1.14 9.05147 -1.14C9.0374 -1.14 9.02333 -1.14 9.00926 -1.14C8.99519 -1.14 8.98112 -1.14 8.96705 -1.14C8.95297 -1.14 8.9389 -1.14 8.92483 -1.14C8.91076 -1.14 8.89669 -1.14 8.88261 -1.14C8.86854 -1.14 8.85447 -1.14 8.84039 -1.14C8.82632 -1.14 8.81225 -1.14 8.79817 -1.14C8.7841 -1.14 8.77002 -1.14 8.75595 -1.14C8.74187 -1.14 8.7278 -1.14 8.71372 -1.14C8.69965 -1.14 8.68557 -1.14 8.6715 -1.14C8.65742 -1.14 8.64334 -1.14 8.62926 -1.14C8.61519 -1.14 8.60111 -1.14 8.58703 -1.14C8.57296 -1.14 8.55888 -1.14 8.5448 -1.14C8.53072 -1.14 8.51664 -1.14 8.50256 -1.14C8.48848 -1.14 8.4744 -1.14 8.46032 -1.14C8.44624 -1.14 8.43216 -1.14 8.41808 -1.14C8.404 -1.14 8.38992 -1.14 8.37584 -1.14C8.36176 -1.14 8.34768 -1.14 8.3336 -1.14C8.31951 -1.14 8.30543 -1.14 8.29135 -1.14C8.27727 -1.14 8.26318 -1.14 8.2491 -1.14C8.23502 -1.14 8.22093 -1.14 8.20685 -1.14C8.19276 -1.14 8.17868 -1.14 8.16459 -1.14C8.15051 -1.14 8.13642 -1.14 8.12234 -1.14C8.10825 -1.14 8.09417 -1.14 8.08008 -1.14C8.06599 -1.14 8.05191 -1.14 8.03782 -1.14C8.02373 -1.14 8.00965 -1.14 7.99556 -1.14C7.98147 -1.14 7.96738 -1.14 7.95329 -1.14C7.93921 -1.14 7.92512 -1.14 7.91103 -1.14C7.89694 -1.14 7.88285 -1.14 7.86876 -1.14C7.85467 -1.14 7.84058 -1.14 7.82649 -1.14C7.8124 -1.14 7.79831 -1.14 7.78422 -1.14C7.77012 -1.14 7.75603 -1.14 7.74194 -1.14C7.72785 -1.14 7.71376 -1.14 7.69966 -1.14C7.68557 -1.14 7.67148 -1.14 7.65738 -1.14C7.64329 -1.14 7.6292 -1.14 7.6151 -1.14C7.60101 -1.14 7.58691 -1.14 7.57282 -1.14C7.55872 -1.14 7.54463 -1.14 7.53053 -1.14C7.51644 -1.14 7.50234 -1.14 7.48825 -1.14C7.47415 -1.14 7.46005 -1.14 7.44596 -1.14C7.43186 -1.14 7.41776 -1.14 7.40366 -1.14C7.38957 -1.14 7.37547 -1.14 7.36137 -1.14C7.34727 -1.14 7.33317 -1.14 7.31907 -1.14C7.30497 -1.14 7.29087 -1.14 7.27678 -1.14C7.26267 -1.14 7.24858 -1.14 7.23447 -1.14C7.22037 -1.14 7.20627 -1.14 7.19217 -1.14C7.17807 -1.14 7.16397 -1.14 7.14987 -1.14C7.13577 -1.14 7.12166 -1.14 7.10756 -1.14C7.09346 -1.14 7.07935 -1.14 7.06525 -1.14C7.05115 -1.14 7.03704 -1.14 7.02294 -1.14C7.00883 -1.14 6.99473 -1.14 6.98063 -1.14C6.96652 -1.14 6.95242 -1.14 6.93831 -1.14C6.92421 -1.14 6.9101 -1.14 6.89599 -1.14C6.88189 -1.14 6.86778 -1.14 6.85367 -1.14C6.83957 -1.14 6.82546 -1.14 6.81135 -1.14C6.79724 -1.14 6.78314 -1.14 6.76903 -1.14C6.75492 -1.14 6.74081 -1.14 6.7267 -1.14C6.71259 -1.14 6.69848 -1.14 6.68437 -1.14C6.67026 -1.14 6.65615 -1.14 6.64204 -1.14C6.62793 -1.14 6.61382 -1.14 6.59971 -1.14C6.5856 -1.14 6.57149 -1.14 6.55737 -1.14C6.54326 -1.14 6.52915 -1.14 6.51504 -1.14C6.50093 -1.14 6.48681 -1.14 6.4727 -1.14C6.45859 -1.14 6.44447 -1.14 6.43036 -1.14C6.41624 -1.14 6.40213 -1.14 6.38801 -1.14C6.3739 -1.14 6.35979 -1.14 6.34567 -1.14C6.33155 -1.14 6.31744 -1.14 6.30332 -1.14C6.28921 -1.14 6.27509 -1.14 6.26097 -1.14C6.24685 -1.14 6.23274 -1.14 6.21862 -1.14C6.2045 -1.14 6.19038 -1.14 6.17627 -1.14C6.16215 -1.14 6.14803 -1.14 6.13391 -1.14C6.11979 -1.14 6.10567 -1.14 6.09155 -1.14C6.07743 -1.14 6.06331 -1.14 6.04919 -1.14C6.03507 -1.14 6.02095 -1.14 6.00683 -1.14C5.99271 -1.14 5.97859 -1.14 5.96446 -1.14C5.95034 -1.14 5.93622 -1.14 5.9221 -1.14C5.90797 -1.14 5.89385 -1.14 5.87973 -1.14C5.8656 -1.14 5.85148 -1.14 5.83736 -1.14C5.82323 -1.14 5.80911 -1.14 5.79498 -1.14C5.78086 -1.14 5.76674 -1.14 5.75261 -1.14C5.73848 -1.14 5.72436 -1.14 5.71023 -1.14C5.69611 -1.14 5.68198 -1.14 5.66785 -1.14C5.65372 -1.14 5.6396 -1.14 5.62547 -1.14C5.61134 -1.14 5.59721 -1.14 5.58309 -1.14C5.56896 -1.14 5.55483 -1.14 5.5407 -1.14C5.52657 -1.14 5.51244 -1.14 5.49831 -1.14C5.48418 -1.14 5.47005 -1.14 5.45592 -1.14C5.44179 -1.14 5.42766 -1.14 5.41353 -1.14C5.3994 -1.14 5.38527 -1.14 5.37113 -1.14C5.357 -1.14 5.34287 -1.14 5.32874 -1.14C5.31461 -1.14 5.30047 -1.14 5.28634 -1.14C5.27221 -1.14 5.25807 -1.14 5.24394 -1.14C5.2298 -1.14 5.21567 -1.14 5.20154 -1.14C5.1874 -1.14 5.17327 -1.14 5.15913 -1.14C5.14499 -1.14 5.13086 -1.14 5.11672 -1.14C5.10259 -1.14 5.08845 -1.14 5.07431 -1.14C5.06018 -1.14 5.04604 -1.14 5.0319 -1.14C5.01776 -1.14 5.00363 -1.14 4.98949 -1.14C4.97535 -1.14 4.96121 -1.14 4.94707 -1.14C4.93293 -1.14 4.91879 -1.14 4.90465 -1.14C4.89051 -1.14 4.87637 -1.14 4.86223 -1.14C4.84809 -1.14 4.83395 -1.14 4.81981 -1.14C4.80567 -1.14 4.79153 -1.14 4.77739 -1.14C4.76324 -1.14 4.7491 -1.14 4.73496 -1.14C4.72082 -1.14 4.70667 -1.14 4.69253 -1.14C4.67839 -1.14 4.66424 -1.14 4.6501 -1.14C4.63596 -1.14 4.62181 -1.14 4.60767 -1.14C4.59352 -1.14 4.57938 -1.14 4.56523 -1.14C4.55109 -1.14 4.53694 -1.14 4.52279 -1.14C4.50865 -1.14 4.4945 -1.14 4.48036 -1.14C4.46621 -1.14 4.45206 -1.14 4.43791 -1.14C4.42377 -1.14 4.40962 -1.14 4.39547 -1.14C4.38132 -1.14 4.36717 -1.14 4.35302 -1.14C4.33887 -1.14 4.32473 -1.14 4.31058 -1.14C4.29643 -1.14 4.28228 -1.14 4.26813 -1.14C4.25398 -1.14 4.23983 -1.14 4.22567 -1.14C4.21152 -1.14 4.19737 -1.14 4.18322 -1.14C4.16907 -1.14 4.15492 -1.14 4.14076 -1.14C4.12661 -1.14 4.11246 -1.14 4.0983 -1.14C4.08415 -1.14 4.07 -1.14 4.05584 -1.14C4.04169 -1.14 4.02754 -1.14 4.01338 -1.14C3.99923 -1.14 3.98507 -1.14 3.97092 -1.14C3.95676 -1.14 3.9426 -1.14 3.92845 -1.14C3.91429 -1.14 3.90014 -1.14 3.88598 -1.14C3.87182 -1.14 3.85767 -1.14 3.84351 -1.14C3.82935 -1.14 3.81519 -1.14 3.80103 -1.14C3.78688 -1.14 3.77272 -1.14 3.75856 -1.14C3.7444 -1.14 3.73024 -1.14 3.71608 -1.14C3.70192 -1.14 3.68776 -1.14 3.6736 -1.14C3.65944 -1.14 3.64528 -1.14 3.63112 -1.14C3.61696 -1.14 3.6028 -1.14 3.58863 -1.14C3.57447 -1.14 3.56031 -1.14 3.54615 -1.14C3.53199 -1.14 3.51782 -1.14 3.50366 -1.14C3.4895 -1.14 3.47533 -1.14 3.46117 -1.14C3.447 -1.14 3.43284 -1.14 3.41868 -1.14C3.40451 -1.14 3.39035 -1.14 3.37618 -1.14C3.36201 -1.14 3.34785 -1.14 3.33368 -1.14C3.31952 -1.14 3.30535 -1.14 3.29118 -1.14C3.27702 -1.14 3.26285 -1.14 3.24868 -1.14C3.23452 -1.14 3.22035 -1.14 3.20618 -1.14C3.19201 -1.14 3.17784 -1.14 3.16367 -1.14C3.1495 -1.14 3.13533 -1.14 3.12117 -1.14C3.107 -1.14 3.09283 -1.14 3.07866 -1.14C3.06449 -1.14 3.05031 -1.14 3.03614 -1.14C3.02197 -1.14 3.0078 -1.14 2.99363 -1.14C2.97946 -1.14 2.96529 -1.14 2.95111 -1.14C2.93694 -1.14 2.92277 -1.14 2.9086 -1.14C2.89442 -1.14 2.88025 -1.14 2.86607 -1.14C2.8519 -1.14 2.83773 -1.14 2.82355 -1.14C2.80938 -1.14 2.7952 -1.14 2.78103 -1.14C2.76685 -1.14 2.75268 -1.14 2.7385 -1.14C2.72432 -1.14 2.71015 -1.14 2.69597 -1.14C2.68179 -1.14 2.66762 -1.14 2.65344 -1.14C2.63926 -1.14 2.62508 -1.14 2.61091 -1.14C2.59673 -1.14 2.58255 -1.14 2.56837 -1.14C2.55419 -1.14 2.54001 -1.14 2.52583 -1.14C2.51165 -1.14 2.49747 -1.14 2.48329 -1.14C2.46911 -1.14 2.45493 -1.14 2.44075 -1.14C2.42657 -1.14 2.41239 -1.14 2.39821 -1.14C2.38402 -1.14 2.36984 -1.14 2.35566 -1.14C2.34148 -1.14 2.3273 -1.14 2.31311 -1.14C2.29893 -1.14 2.28475 -1.14 2.27056 -1.14C2.25638 -1.14 2.24219 -1.14 2.22801 -1.14C2.21382 -1.14 2.19964 -1.14 2.18545 -1.14C2.17127 -1.14 2.15708 -1.14 2.1429 -1.14C2.12871 -1.14 2.11452 -1.14 2.10034 -1.14C2.08615 -1.14 2.07196 -1.14 2.05778 -1.14C2.04359 -1.14 2.0294 -1.14 2.01521 -1.14C2.00103 -1.14 1.98684 -1.14 1.97265 -1.14C1.95846 -1.14 1.94427 -1.14 1.93008 -1.14C1.91589 -1.14 1.9017 -1.14 1.88751 -1.14C1.87332 -1.14 1.85913 -1.14 1.84494 -1.14C1.83075 -1.14 1.81656 -1.14 1.80236 -1.14C1.78817 -1.14 1.77398 -1.14 1.75979 -1.14C1.7456 -1.14 1.7314 -1.14 1.71721 -1.14C1.70302 -1.14 1.68882 -1.14 1.67463 -1.14C1.66044 -1.14 1.64624 -1.14 1.63205 -1.14C1.61785 -1.14 1.60366 -1.14 1.58946 -1.14C1.57527 -1.14 1.56107 -1.14 1.54688 -1.14C1.53268 -1.14 1.51848 -1.14 1.50429 -1.14C1.49009 -1.14 1.47589 -1.14 1.4617 -1.14C1.4475 -1.14 1.4333 -1.14 1.4191 -1.14C1.4049 -1.14 1.39071 -1.14 1.37651 -1.14C1.36231 -1.14 1.34811 -1.14 1.33391 -1.14C1.31971 -1.14 1.30551 -1.14 1.29131 -1.14C1.27711 -1.14 1.26291 -1.14 1.24871 -1.14C1.23451 -1.14 1.22031 -1.14 1.2061 -1.14C1.1919 -1.14 1.1777 -1.14 1.1635 -1.14C1.1493 -1.14 1.13509 -1.14 1.12089 -1.14C1.10669 -1.14 1.09248 -1.14 1.07828 -1.14C1.06408 -1.14 1.04987 -1.14 1.03567 -1.14C1.02146 -1.14 1.00726 -1.14 0.993052 -1.14C0.978848 -1.14 0.964642 -1.14 0.950436 -1.14C0.93623 -1.14 0.922024 -1.14 0.907817 -1.14C0.89361 -1.14 0.879403 -1.14 0.865196 -1.14C0.850988 -1.14 0.836781 -1.14 0.822573 -1.14C0.808365 -1.14 0.794156 -1.14 0.779947 -1.14C0.765738 -1.14 0.75153 -1.14 0.73732 -1.14C0.723111 -1.14 0.7089 -1.14 0.694691 -1.14C0.680481 -1.14 0.66627 -1.14 0.652059 -1.14C0.637848 -1.14 0.623637 -1.14 0.609426 -1.14C0.595214 -1.14 0.581001 -1.14 0.56679 -1.14C0.552577 -1.14 0.538364 -1.14 0.524151 -1.14C0.509938 -1.14 0.495725 -1.14 0.481511 -1.14C0.467298 -1.14 0.453083 -1.14 0.438869 -1.14C0.424654 -1.14 0.410439 -1.14 0.396224 -1.14C0.382009 -1.14 0.367793 -1.14 0.353578 -1.14C0.339361 -1.14 0.325145 -1.14 0.310928 -1.14C0.296712 -1.14 0.282495 -1.14 0.268278 -1.14C0.254061 -1.14 0.239842 -1.14 0.225625 -1.14C0.211407 -1.14 0.197188 -1.14 0.182969 -1.14V2.86ZM21.7689 2.85983C28.9382 2.76672 36.1543 2.76672 43.4173 2.85983L43.4686 -1.13984C36.1716 -1.23339 28.9211 -1.23339 21.717 -1.13984L21.7689 2.85983ZM43.443 2.86C49.0796 2.86 53.9011 3.88829 57.9639 5.87643L59.7221 2.28356C55.0115 -0.0216315 49.5663 -1.14 43.443 -1.14V2.86ZM58.0097 5.89812C62.2454 7.8395 65.6847 10.4195 68.3699 13.6244L71.436 11.0556C68.3346 7.35387 64.4006 4.42716 59.6763 2.26187L58.0097 5.89812ZM68.3902 13.6483C71.1923 16.8882 73.2535 20.6109 74.574 24.8365L78.3919 23.6434C76.9124 18.909 74.587 14.6985 71.4157 11.0317L68.3902 13.6483ZM74.5897 24.8845C76.0089 29.0536 76.6719 33.3018 76.5834 37.6392L80.5826 37.7208C80.6807 32.9115 79.9437 28.1997 78.3763 23.5955L74.5897 24.8845ZM76.583 37.68C76.583 41.933 75.8749 46.0977 74.454 50.183L78.232 51.497C79.7977 46.9956 80.583 42.387 80.583 37.68H76.583ZM74.454 50.183C73.0458 54.2316 70.9387 57.8294 68.1282 60.9913L71.1178 63.6487C74.2806 60.0906 76.6535 56.0351 78.232 51.497L74.454 50.183ZM68.1074 61.0149C65.4149 64.1418 62.0098 66.6839 57.8551 68.6286L59.5508 72.2514C64.1695 70.0895 68.0444 67.2182 71.1385 63.625L68.1074 61.0149ZM57.8551 68.6286C53.7805 70.5359 48.9929 71.52 43.443 71.52V75.52C49.4664 75.52 54.8521 74.4508 59.5508 72.2514L57.8551 68.6286ZM43.443 71.52H25.803V75.52H43.443V71.52ZM23.803 73.52V98.86H27.803V73.52H23.803ZM25.803 96.86H0.182969V100.86H25.803V96.86ZM43.443 53.26C45.4739 53.26 47.3489 52.7467 49.0045 51.6824L46.8415 48.3176C45.8837 48.9333 44.7721 49.26 43.443 49.26V53.26ZM49.0045 51.6824C50.5317 50.7006 51.8348 49.4484 52.9104 47.9425L49.6555 45.6175C48.8645 46.7249 47.9276 47.6194 46.8415 48.3176L49.0045 51.6824ZM52.9104 47.9425C53.9907 46.4302 54.7862 44.7209 55.31 42.8353L51.4559 41.7647C51.0464 43.2391 50.4419 44.5165 49.6555 45.6175L52.9104 47.9425ZM55.3171 42.809C55.826 40.8752 56.083 38.9309 56.083 36.98H52.083C52.083 38.5758 51.8733 40.1781 51.4488 41.791L55.3171 42.809ZM56.083 36.98C56.083 35.0294 55.826 33.1583 55.3017 31.3757L51.4642 32.5043C51.8733 33.895 52.083 35.3839 52.083 36.98H56.083ZM55.31 31.4047C54.7862 29.5191 53.9907 27.8098 52.9104 26.2975L49.6555 28.6225C50.4419 29.7235 51.0464 31.0009 51.4559 32.4753L55.31 31.4047ZM52.9653 26.3785C51.9571 24.8102 50.6504 23.555 49.0552 22.6435L47.0707 26.1165C48.0888 26.6983 48.9288 27.4965 49.6006 28.5415L52.9653 26.3785ZM49.1445 22.6976C47.4713 21.622 45.5441 21.12 43.443 21.12V25.12C44.8885 25.12 46.0413 25.4579 46.9815 26.0623L49.1445 22.6976ZM43.443 21.12H25.383V25.12H43.443V21.12ZM23.383 23.12V51.26H27.383V23.12H23.383ZM25.383 53.26H43.443V49.26H25.383V53.26ZM156.171 23.26V25.26H158.171V23.26H156.171ZM120.611 23.26V21.26H118.611V23.26H120.611ZM120.611 37.26H118.611V39.26H120.611V37.26ZM153.371 37.26H155.371V35.26H153.371V37.26ZM153.371 59.66V61.66H155.371V59.66H153.371ZM120.611 59.66V57.66H118.611V59.66H120.611ZM120.611 75.62H118.611V77.62H120.611V75.62ZM157.431 75.62H159.431V73.62H157.431V75.62ZM157.431 99V101H159.431V99H157.431ZM94.9914 99H92.9914V101H94.9914V99ZM94.9914 0.999993V-1.00001H92.9914V0.999993H94.9914ZM156.171 0.999993H158.171V-1.00001H156.171V0.999993ZM156.171 21.26H120.611V25.26H156.171V21.26ZM118.611 23.26V37.26H122.611V23.26H118.611ZM120.611 39.26H153.371V35.26H120.611V39.26ZM151.371 37.26V59.66H155.371V37.26H151.371ZM153.371 57.66H120.611V61.66H153.371V57.66ZM118.611 59.66V75.62H122.611V59.66H118.611ZM120.611 77.62H157.431V73.62H120.611V77.62ZM155.431 75.62V99H159.431V75.62H155.431ZM157.431 97H94.9914V101H157.431V97ZM96.9914 99V0.999993H92.9914V99H96.9914ZM94.9914 2.99999H156.171V-1.00001H94.9914V2.99999ZM154.171 0.999993V23.26H158.171V0.999993H154.171ZM259.389 0.999993H261.389V-1.00001H259.389V0.999993ZM259.389 99V101H261.389V99H259.389ZM233.769 99H231.769V101H233.769V99ZM233.769 24.1H235.769V22.1H233.769V24.1ZM203.529 24.1V22.1H201.529V24.1H203.529ZM203.529 99V101H205.529V99H203.529ZM177.909 99H175.909V101H177.909V99ZM177.909 0.999993V-1.00001H175.909V0.999993H177.909ZM257.389 0.999993V99H261.389V0.999993H257.389ZM259.389 97H233.769V101H259.389V97ZM235.769 99V24.1H231.769V99H235.769ZM233.769 22.1H203.529V26.1H233.769V22.1ZM201.529 24.1V99H205.529V24.1H201.529ZM203.529 97H177.909V101H203.529V97ZM179.909 99V0.999993H175.909V99H179.909ZM177.909 2.99999H259.389V-1.00001H177.909V2.99999ZM307.188 64.7L308.991 65.5655L309.439 64.6309L308.934 63.7256L307.188 64.7ZM273.448 4.21999H271.448V4.74013L271.701 5.19437L273.448 4.21999ZM273.448 0.999993V-1.00001H271.448V0.999993H273.448ZM301.588 0.999993L303.38 0.113573L302.83 -1.00001H301.588V0.999993ZM320.208 38.66L318.415 39.5464L318.965 40.66H320.208V38.66ZM321.048 38.66V40.66H322.354L322.879 39.4634L321.048 38.66ZM337.568 0.999993V-1.00001H336.261L335.736 0.19657L337.568 0.999993ZM364.728 0.999993H366.728V-1.00001H364.728V0.999993ZM364.728 3.65999L366.523 4.54047L366.728 4.12392V3.65999H364.728ZM329.308 75.9L327.512 75.0195L327.491 75.0617L327.473 75.1048L329.308 75.9ZM321.328 90.04L319.732 88.8338L319.723 88.8463L319.714 88.859L321.328 90.04ZM311.528 98.58L312.386 100.387L312.404 100.378L312.422 100.369L311.528 98.58ZM298.368 100.82L298.255 102.817L298.257 102.817L298.368 100.82ZM280.728 96.62L278.761 96.2542L278.453 97.9111L280.034 98.4958L280.728 96.62ZM284.088 78.56L284.765 76.6782L282.552 75.8814L282.121 78.1942L284.088 78.56ZM290.388 80.38L289.995 82.3412L290.388 80.38ZM295.568 80.38L296.026 82.3268L296.065 82.3177L296.103 82.307L295.568 80.38ZM300.048 77.72L301.462 79.1342L301.486 79.1098L301.51 79.0846L300.048 77.72ZM303.828 71.7L302.025 70.8345L302.019 70.8461L302.014 70.8578L303.828 71.7ZM308.934 63.7256L275.194 3.24562L271.701 5.19437L305.441 65.6744L308.934 63.7256ZM275.448 4.21999V0.999993H271.448V4.21999H275.448ZM273.448 2.99999H301.588V-1.00001H273.448V2.99999ZM299.795 1.88641L318.415 39.5464L322 37.7736L303.38 0.113573L299.795 1.88641ZM320.208 40.66H321.048V36.66H320.208V40.66ZM322.879 39.4634L339.399 1.80342L335.736 0.19657L319.216 37.8566L322.879 39.4634ZM337.568 2.99999H364.728V-1.00001H337.568V2.99999ZM362.728 0.999993V3.65999H366.728V0.999993H362.728ZM362.932 2.77951L327.512 75.0195L331.103 76.7805L366.523 4.54047L362.932 2.77951ZM327.473 75.1048C325.093 80.5962 322.508 85.163 319.732 88.8338L322.923 91.2462C325.934 87.2637 328.669 82.4038 331.143 76.6952L327.473 75.1048ZM319.714 88.859C317.076 92.4639 314.045 95.0852 310.633 96.7911L312.422 100.369C316.477 98.3414 319.979 95.2695 322.942 91.221L319.714 88.859ZM310.67 96.7734C307.298 98.3748 303.258 99.0886 298.479 98.8231L298.257 102.817C303.557 103.111 308.29 102.332 312.386 100.387L310.67 96.7734ZM298.481 98.8232C293.802 98.5583 288.127 97.2242 281.421 94.7442L280.034 98.4958C286.955 101.056 293.04 102.522 298.255 102.817L298.481 98.8232ZM282.694 96.9858L286.054 78.9258L282.121 78.1942L278.761 96.2542L282.694 96.9858ZM283.41 80.4418C285.81 81.3058 288.008 81.9437 289.995 82.3412L290.78 78.4188C289.034 78.0697 287.032 77.4942 284.765 76.6782L283.41 80.4418ZM289.995 82.3412C292.096 82.7614 294.117 82.776 296.026 82.3268L295.11 78.4332C293.845 78.7307 292.412 78.7453 290.78 78.4188L289.995 82.3412ZM296.103 82.307C298.135 81.7425 299.926 80.6696 301.462 79.1342L298.633 76.3058C297.556 77.3837 296.36 78.0842 295.032 78.453L296.103 82.307ZM301.51 79.0846C303.014 77.4732 304.38 75.2606 305.642 72.5422L302.014 70.8578C300.849 73.366 299.695 75.1668 298.586 76.3554L301.51 79.0846ZM305.631 72.5655L308.991 65.5655L305.385 63.8345L302.025 70.8345L305.631 72.5655ZM369.262 23.4H367.262V25.4H369.262V23.4ZM369.262 0.999993V-1.00001H367.262V0.999993H369.262ZM442.062 0.999993H444.062V-1.00001H442.062V0.999993ZM442.062 23.4V25.4H444.062V23.4H442.062ZM418.122 23.4V21.4H416.122V23.4H418.122ZM418.122 99V101H420.122V99H418.122ZM393.342 99H391.342V101H393.342V99ZM393.342 23.4H395.342V21.4H393.342V23.4ZM371.262 23.4V0.999993H367.262V23.4H371.262ZM369.262 2.99999H442.062V-1.00001H369.262V2.99999ZM440.062 0.999993V23.4H444.062V0.999993H440.062ZM442.062 21.4H418.122V25.4H442.062V21.4ZM416.122 23.4V99H420.122V23.4H416.122ZM418.122 97H393.342V101H418.122V97ZM395.342 99V23.4H391.342V99H395.342ZM393.342 21.4H369.262V25.4H393.342V21.4ZM470.336 86.82V84.82H469.054L468.519 85.9845L470.336 86.82ZM464.736 99V101H466.018L466.553 99.8355L464.736 99ZM437.996 99H435.996V101H437.996V99ZM437.996 95.5L436.186 94.6483L435.996 95.0528V95.5H437.996ZM482.936 0.0199976V-1.98H481.667L481.126 -0.831724L482.936 0.0199976ZM494.696 0.0199976L496.508 -0.825191L495.97 -1.98H494.696V0.0199976ZM539.216 95.5H541.216V95.0566L541.028 94.6548L539.216 95.5ZM539.216 99V101H541.216V99H539.216ZM512.756 99L510.947 99.8526L511.487 101H512.756V99ZM507.016 86.82L508.825 85.9674L508.284 84.82H507.016V86.82ZM478.596 65.4L476.756 64.6161L475.57 67.4H478.596V65.4ZM498.896 65.4V67.4H501.938L500.732 64.6069L498.896 65.4ZM488.676 41.74L490.512 40.9469L488.663 36.667L486.836 40.9561L488.676 41.74ZM468.519 85.9845L462.919 98.1645L466.553 99.8355L472.153 87.6555L468.519 85.9845ZM464.736 97H437.996V101H464.736V97ZM439.996 99V95.5H435.996V99H439.996ZM439.805 96.3517L484.745 0.871719L481.126 -0.831724L436.186 94.6483L439.805 96.3517ZM482.936 2.02H494.696V-1.98H482.936V2.02ZM492.883 0.865186L537.403 96.3452L541.028 94.6548L496.508 -0.825191L492.883 0.865186ZM537.216 95.5V99H541.216V95.5H537.216ZM539.216 97H512.756V101H539.216V97ZM514.565 98.1474L508.825 85.9674L505.207 87.6726L510.947 99.8526L514.565 98.1474ZM507.016 84.82H470.336V88.82H507.016V84.82ZM478.596 67.4H498.896V63.4H478.596V67.4ZM500.732 64.6069L490.512 40.9469L486.84 42.5331L497.06 66.1931L500.732 64.6069ZM486.836 40.9561L476.756 64.6161L480.436 66.1839L490.516 42.5239L486.836 40.9561ZM551.003 99H549.003V101H551.003V99ZM551.003 0.999993V-1.00001H549.003V0.999993H551.003ZM576.623 0.999993H578.623V-1.00001H576.623V0.999993ZM576.623 75.9H574.623V77.9H576.623V75.9ZM604.903 75.9V77.9H606.903V75.9H604.903ZM604.903 0.999993V-1.00001H602.903V0.999993H604.903ZM630.663 0.999993H632.663V-1.00001H630.663V0.999993ZM630.663 77.3H628.663V79.3H630.663V77.3ZM640.603 77.3H642.603V75.3H640.603V77.3ZM640.603 110.06V112.06H642.603V110.06H640.603ZM620.023 110.06H618.023V112.06H620.023V110.06ZM620.023 99H622.023V97H620.023V99ZM553.003 99V0.999993H549.003V99H553.003ZM551.003 2.99999H576.623V-1.00001H551.003V2.99999ZM574.623 0.999993V75.9H578.623V0.999993H574.623ZM576.623 77.9H604.903V73.9H576.623V77.9ZM606.903 75.9V0.999993H602.903V75.9H606.903ZM604.903 2.99999H630.663V-1.00001H604.903V2.99999ZM628.663 0.999993V77.3H632.663V0.999993H628.663ZM630.663 79.3H640.603V75.3H630.663V79.3ZM638.603 77.3V110.06H642.603V77.3H638.603ZM640.603 108.06H620.023V112.06H640.603V108.06ZM622.023 110.06V99H618.023V110.06H622.023ZM620.023 97H551.003V101H620.023V97ZM668.14 99.28V101.28H668.961L669.545 100.704L668.14 99.28ZM660.58 99.28H658.58V101.28H660.58V99.28ZM660.58 0.999993V-1.00001H658.58V0.999993H660.58ZM686.2 0.999993H688.2V-1.00001H686.2V0.999993ZM686.2 48.88H684.2V53.5224L687.574 50.3335L686.2 48.88ZM737.3 0.579999V-1.42H736.505L735.927 -0.873475L737.3 0.579999ZM745.28 0.579999H747.28V-1.42H745.28V0.579999ZM745.28 99V101H747.28V99H745.28ZM719.66 99H717.66V101H719.66V99ZM719.66 48.46H721.66V43.6779L718.256 47.0361L719.66 48.46ZM668.14 97.28H660.58V101.28H668.14V97.28ZM662.58 99.28V0.999993H658.58V99.28H662.58ZM660.58 2.99999H686.2V-1.00001H660.58V2.99999ZM684.2 0.999993V48.88H688.2V0.999993H684.2ZM687.574 50.3335L738.674 2.03347L735.927 -0.873475L684.827 47.4265L687.574 50.3335ZM737.3 2.58H745.28V-1.42H737.3V2.58ZM743.28 0.579999V99H747.28V0.579999H743.28ZM745.28 97H719.66V101H745.28V97ZM721.66 99V48.46H717.66V99H721.66ZM718.256 47.0361L666.736 97.8561L669.545 100.704L721.065 49.8839L718.256 47.0361ZM781.524 64.14L783.228 65.1869L784.232 63.5521L782.641 62.4808L781.524 64.14ZM770.604 51.68L768.783 52.5076L768.792 52.5277L768.802 52.5476L770.604 51.68ZM766.964 35.58H764.964V35.5967L764.964 35.6133L766.964 35.58ZM769.064 22.98L767.18 22.31L767.175 22.3223L767.171 22.3346L769.064 22.98ZM775.644 11.92L774.168 10.5705L774.166 10.5725L775.644 11.92ZM786.704 4.08L787.52 5.90601L787.529 5.90211L787.537 5.89812L786.704 4.08ZM845.364 0.999993H847.364V-1.00001H845.364V0.999993ZM845.364 99V101H847.364V99H845.364ZM819.744 99H817.744V101H819.744V99ZM819.744 68.2H821.744V66.2H819.744V68.2ZM806.304 68.2V66.2H805.117L804.548 67.2423L806.304 68.2ZM789.504 99V101H790.691L791.26 99.9577L789.504 99ZM762.344 99H760.344V101H762.344V99ZM762.344 95.36L760.64 94.3131L760.344 94.7947V95.36H762.344ZM820.164 47.34V49.34H822.164V47.34H820.164ZM820.164 23.26H822.164V21.26H820.164V23.26ZM794.264 26.9L792.649 25.7199L792.641 25.7314L794.264 26.9ZM794.404 43.56L792.749 44.683L792.759 44.6971L792.768 44.711L794.404 43.56ZM782.641 62.4808C778.068 59.403 774.671 55.5174 772.406 50.8124L768.802 52.5476C771.39 57.9226 775.273 62.3437 780.407 65.7992L782.641 62.4808ZM772.425 50.8524C770.204 45.967 769.053 40.8705 768.964 35.5467L764.964 35.6133C765.062 41.4895 766.337 47.1263 768.783 52.5076L772.425 50.8524ZM768.964 35.58C768.964 31.5085 769.627 27.5265 770.957 23.6253L767.171 22.3346C765.701 26.6469 764.964 31.0648 764.964 35.58H768.964ZM770.948 23.65C772.356 19.6909 774.415 16.2368 777.122 13.2675L774.166 10.5725C771.087 13.9499 768.759 17.8691 767.18 22.31L770.948 23.65ZM777.12 13.2695C779.906 10.2221 783.362 7.7638 787.52 5.90601L785.888 2.25398C781.273 4.3162 777.355 7.0846 774.168 10.5705L777.12 13.2695ZM787.537 5.89812C791.71 3.98552 796.597 2.99999 802.244 2.99999V-1.00001C796.131 -1.00001 790.658 0.0678021 785.871 2.26187L787.537 5.89812ZM802.244 2.99999H845.364V-1.00001H802.244V2.99999ZM843.364 0.999993V99H847.364V0.999993H843.364ZM845.364 97H819.744V101H845.364V97ZM821.744 99V68.2H817.744V99H821.744ZM819.744 66.2H806.304V70.2H819.744V66.2ZM804.548 67.2423L787.748 98.0423L791.26 99.9577L808.06 69.1577L804.548 67.2423ZM789.504 97H762.344V101H789.504V97ZM764.344 99V95.36H760.344V99H764.344ZM764.048 96.4069L783.228 65.1869L779.82 63.0931L760.64 94.3131L764.048 96.4069ZM822.164 47.34V23.26H818.164V47.34H822.164ZM820.164 21.26H802.384V25.26H820.164V21.26ZM802.384 21.26C798.258 21.26 794.881 22.6666 792.649 25.72L795.879 28.08C797.194 26.28 799.231 25.26 802.384 25.26V21.26ZM792.641 25.7314C790.698 28.4299 789.744 31.5522 789.744 35.02H793.744C793.744 32.3278 794.47 30.0368 795.887 28.0686L792.641 25.7314ZM789.744 35.02C789.744 38.5111 790.757 41.7473 792.749 44.683L796.059 42.437C794.504 40.1461 793.744 37.6889 793.744 35.02H789.744ZM792.768 44.711C794.977 47.8496 798.3 49.34 802.384 49.34V45.34C799.375 45.34 797.378 44.3104 796.04 42.409L792.768 44.711ZM802.384 49.34H820.164V45.34H802.384V49.34Z" fill="black" mask="url(#path-1-inside-1_2922_1547)"/>
</svg>
