<svg width="25" height="25" viewBox="0 0 25 25" fill="none" xmlns="http://www.w3.org/2000/svg">
<g clip-path="url(#clip0_4545_387)">
<path d="M8.70901 0.822266C6.21112 1.68881 4.05695 3.33353 2.5629 5.51485C1.06885 7.69617 0.313682 10.2991 0.408313 12.9413C0.502944 15.5836 1.44239 18.1258 3.08865 20.1947C4.73492 22.2635 7.00124 23.7499 9.55471 24.4355C11.6249 24.9697 13.7938 24.9932 15.875 24.5039C17.7604 24.0804 19.5035 23.1745 20.9336 21.875C22.4221 20.4811 23.5024 18.708 24.0586 16.7461C24.6632 14.6126 24.7707 12.369 24.3731 10.1875H12.7481V15.0098H19.4805C19.3459 15.7789 19.0576 16.513 18.6327 17.168C18.2079 17.8231 17.6552 18.3858 17.0078 18.8223C16.1857 19.3661 15.259 19.732 14.2871 19.8965C13.3124 20.0777 12.3126 20.0777 11.3379 19.8965C10.35 19.6922 9.41545 19.2845 8.59378 18.6992C7.27375 17.7648 6.2826 16.4374 5.76175 14.9063C5.23209 13.3465 5.23209 11.6555 5.76175 10.0957C6.1325 9.00238 6.74541 8.00691 7.55471 7.18359C8.48087 6.22412 9.65341 5.53828 10.9437 5.20132C12.234 4.86437 13.5921 4.88932 14.8692 5.27344C15.8668 5.57967 16.779 6.11472 17.5332 6.83594C18.2923 6.08073 19.0502 5.32357 19.8067 4.56445C20.1973 4.15625 20.6231 3.76758 21.0078 3.34961C19.8566 2.27827 18.5053 1.44464 17.0313 0.896485C14.3471 -0.0781447 11.4101 -0.104337 8.70901 0.822266Z" fill="white"/>
<path d="M8.70898 0.822265C11.4099 -0.104967 14.3469 -0.0794646 17.0312 0.894531C18.5055 1.44641 19.8562 2.28406 21.0059 3.35937C20.6152 3.77734 20.2031 4.16797 19.8047 4.57422C19.0469 5.33073 18.2897 6.08463 17.5332 6.83594C16.779 6.11472 15.8667 5.57967 14.8691 5.27344C13.5925 4.88797 12.2344 4.86158 10.9438 5.19715C9.65316 5.53273 8.47991 6.21731 7.55273 7.17578C6.74342 7.99909 6.13052 8.99456 5.75977 10.0879L1.71094 6.95312C3.16017 4.07922 5.66943 1.88091 8.70898 0.822265Z" fill="#E33629"/>
<path d="M0.636713 10.0586C0.854333 8.98007 1.21563 7.9356 1.71093 6.95312L5.75976 10.0957C5.2301 11.6555 5.2301 13.3465 5.75976 14.9062C4.4108 15.9479 3.06119 16.9948 1.71093 18.0469C0.470992 15.5787 0.0928316 12.7666 0.636713 10.0586Z" fill="#F8BD00"/>
<path d="M12.7481 10.1855H24.3731C24.7707 12.3671 24.6631 14.6107 24.0586 16.7441C23.5024 18.706 22.422 20.4792 20.9336 21.873C19.627 20.8535 18.3145 19.8418 17.0078 18.8223C17.6556 18.3853 18.2085 17.8221 18.6334 17.1663C19.0583 16.5105 19.3464 15.7757 19.4805 15.0059H12.7481C12.7461 13.4004 12.7481 11.793 12.7481 10.1855Z" fill="#587DBD"/>
<path d="M1.70898 18.0469C3.05924 17.0052 4.40885 15.9583 5.75781 14.9062C6.2797 16.4379 7.27228 17.7654 8.59375 18.6992C9.41798 19.2818 10.3546 19.6862 11.3438 19.8867C12.3185 20.068 13.3182 20.068 14.293 19.8867C15.2648 19.7222 16.1916 19.3563 17.0137 18.8125C18.3203 19.832 19.6328 20.8438 20.9395 21.8633C19.5096 23.1635 17.7664 24.0701 15.8809 24.4941C13.7996 24.9834 11.6307 24.96 9.56055 24.4258C7.92325 23.9886 6.3939 23.218 5.06836 22.1621C3.66535 21.0482 2.51944 19.6445 1.70898 18.0469Z" fill="#319F43"/>
</g>
<defs>
<clipPath id="clip0_4545_387">
<rect width="25" height="25" fill="white"/>
</clipPath>
</defs>
</svg>
