<svg width="29" height="23" viewBox="0 0 29 23" fill="none" xmlns="http://www.w3.org/2000/svg">
<path fill-rule="evenodd" clip-rule="evenodd" d="M11.6359 0H7.82236C4.07688 0 0.899635 2.60515 0.899635 7.66545C0.899635 10.7024 2.44024 12.938 5.17732 14.043L0.0673076 22.5097C-0.100759 22.7841 0.0673075 23 0.335413 23H2.70835C2.90842 23 3.04448 22.9378 3.1085 22.7841L7.75433 14.4747H9.42699V22.7841C9.42699 22.8756 9.52703 23 9.65908 23H11.7319C11.932 23 12 22.9085 12 22.7549V0.30735C12 0.0914731 11.8679 0 11.6319 0H11.6359ZM9.43099 12.5135H8.02644C5.82157 12.5135 3.68073 11.0426 3.68073 7.36176C3.68073 3.68088 5.68552 1.96484 7.72632 1.96484H9.43099V12.5135Z" fill="#EA4940"/>
<g clip-path="url(#clip0_4545_381)">
<path d="M11.0514 22.1993C10.4922 22.484 9.85755 21.9851 9.97056 21.3483L11.1731 14.549L6.06877 9.7247C5.59209 9.27333 5.83985 8.4482 6.4788 8.35908L13.5753 7.35858L16.7397 1.13852C17.0251 0.577892 17.7973 0.577892 18.0827 1.13852L21.2471 7.35858L28.3436 8.35908C28.9825 8.4482 29.2303 9.27333 28.7522 9.7247L23.6493 14.549L24.8518 21.3483C24.9648 21.9851 24.3302 22.484 23.771 22.1993L17.409 18.9563L11.0514 22.1993Z" fill="#FADD6B"/>
</g>
<defs>
<clipPath id="clip0_4545_381">
<rect width="15" height="23" fill="white" transform="translate(14)"/>
</clipPath>
</defs>
</svg>
