<?xml version="1.0" encoding="utf-8"?>
<!-- Generator: Adobe Illustrator 26.1.0, SVG Export Plug-In . SVG Version: 6.00 Build 0)  -->
<svg version="1.1" id="Слой_1" xmlns="http://www.w3.org/2000/svg" xmlns:xlink="http://www.w3.org/1999/xlink" x="0px" y="0px"
	 viewBox="0 0 170.1 141.7" style="enable-background:new 0 0 170.1 141.7;" xml:space="preserve">
<style type="text/css">
	.st0{fill:none;stroke:#000000;stroke-width:2;stroke-linecap:round;stroke-miterlimit:10;}
	.st1{opacity:0.1;}
</style>
<path class="st0" d="M-51,51.7"/>
<g class="st1">
	<ellipse cx="145.4" cy="22.8" rx="9.1" ry="9.2"/>
	<path d="M18.8,72.2h48l-2,1.9c-0.8,0.8-0.8,2,0,2.8c0.4,0.4,0.9,0.6,1.4,0.6c0.5,0,1-0.2,1.4-0.6l7.6-7.6l-7.6-7.6
		c-0.8-0.8-2-0.8-2.8,0c-0.8,0.8-0.8,2,0,2.8l2.8,2.8H18.8c-1.1,0-2,0.9-2,2v0.8C16.8,71.3,17.7,72.2,18.8,72.2z"/>
	<path d="M161.2,40.9H47c-4.8,0-8.7,3.6-8.7,8l3.2,13.8h4.8l-3.3-14c0.1-1.7,1.9-3,4-3h114.2c2.1,0,3.8,1.3,4,3L146.3,119
		c-1.4,2.3-3.6,3.7-9.8,3.7h-15.9l18.8-64.2c0.3-1.1-0.3-2.2-1.3-2.5l-0.8-0.2c-0.5-0.2-1-0.1-1.5,0.2c-0.5,0.3-0.8,0.7-1,1.2
		l-19.2,65.5h-49c-2.7,0-6.3-2.5-7.9-7.2l-7.5-32.8c-0.2-0.9-0.9-1.7-1.9-1.7H2.1c-1.1,0-1.9,0.9-1.9,2v0.8c0,1.1,0.9,2,1.9,2h44.8
		l7.2,30.8l0.1,0.2c2.5,7.2,8.2,10.5,12.4,10.5h69.9c7.4,0,11.4-1.8,14-6.3l0.2-0.3l19.1-71.3l0.1-0.2l0-0.4
		C169.9,44.5,166,40.9,161.2,40.9z"/>
</g>
</svg>
