<?xml version="1.0" encoding="utf-8"?>
<!-- Generator: Adobe Illustrator 26.1.0, SVG Export Plug-In . SVG Version: 6.00 Build 0)  -->
<svg version="1.1" id="Слой_1" xmlns="http://www.w3.org/2000/svg" xmlns:xlink="http://www.w3.org/1999/xlink" x="0px" y="0px"
	 viewBox="0 0 170.1 141.7" style="enable-background:new 0 0 170.1 141.7;" xml:space="preserve">
<style type="text/css">
	.st0{fill:none;stroke:#000000;stroke-width:2;stroke-linecap:round;stroke-miterlimit:10;}
	.st1{opacity:0.1;}
</style>
<path class="st0" d="M150.9,112.7"/>
<g class="st1">
	<path d="M156.6,33.2h-9.8l0,0h-0.2c-1.6,0-3,1.3-3,3c0,1.6,1.3,3,3,3h0.1l0,0h10c2.6,0,4.8,1.6,5,3.8L138,130.9
		c-1.8,2.9-4.5,4.7-12.3,4.7H38.1c-3.4,0-7.8-3.1-9.9-9L12,56.9l0,0l-3.3-14c0.2-2.1,2.3-3.8,5-3.8h81.9v0h0.7c1.6,0,3-1.3,3-3
		c0-1.6-1.3-3-3-3h-0.6l0,0h-82c-6,0-10.9,4.5-10.9,10l4,17.3h0l15.8,67.6l0.1,0.3c3.1,9,10.2,13.2,15.5,13.2h87.5
		c9.2,0,14.3-2.3,17.6-7.9l0.2-0.3l23.9-89.3l0.1-0.3l0-0.5C167.5,37.7,162.6,33.2,156.6,33.2z"/>
	<path d="M94.6,81.6l-2.3-4.3c-0.5-1-1.7-1.3-2.7-0.8c-1,0.5-1.3,1.7-0.8,2.7l6.1,11.4l11.4-6c1-0.5,1.3-1.7,0.8-2.7
		c-0.5-1-1.7-1.3-2.7-0.8l-4.4,2.3l22.8-77.9c0-0.1,0-0.2,0.1-0.3l0.4-1.4c0.4-1.5-0.5-3.1-2-3.5c-1.5-0.4-3.1,0.5-3.5,2l-1.1,3.7
		c0,0,0,0,0,0.1L94.6,81.6z"/>
	<path d="M123,55.6l-2.3-4.3c-0.5-1-1.7-1.3-2.7-0.8c-1,0.5-1.3,1.7-0.8,2.7l6.1,11.4l11.4-6c1-0.5,1.3-1.7,0.8-2.7
		c-0.5-1-1.7-1.3-2.7-0.8l-4.3,2.3l10.1-34.7c0,0,0-0.1,0.1-0.1l0.5-1.8l0.3-0.9c0,0,0,0,0-0.1l0.3-1c0.4-1.5-0.5-3.1-2-3.5
		c-1.5-0.4-3.1,0.5-3.5,2l-0.4,1.6L123,55.6z"/>
	<ellipse cx="90.2" cy="111.9" rx="11.4" ry="11.5"/>
</g>
</svg>
