<?xml version="1.0" encoding="utf-8"?>
<!-- Generator: Adobe Illustrator 26.1.0, SVG Export Plug-In . SVG Version: 6.00 Build 0)  -->
<svg version="1.1" id="Слой_1" xmlns="http://www.w3.org/2000/svg" xmlns:xlink="http://www.w3.org/1999/xlink" x="0px" y="0px"
	 viewBox="0 0 170.1 141.7" style="enable-background:new 0 0 170.1 141.7;" xml:space="preserve">
<style type="text/css">
	.st0{fill:none;stroke:#000000;stroke-width:2;stroke-linecap:round;stroke-miterlimit:10;}
	.st1{opacity:0.1;}
</style>
<path class="st0" d="M-51,51.7"/>
<g class="st1">
	<path d="M151.9,64.8c-4.5,0-8.2,3.7-8.2,8.3c0,4.6,3.7,8.3,8.2,8.3s8.2-3.7,8.2-8.3C160,68.6,156.4,64.8,151.9,64.8z"/>
	<path d="M152.7,91.1c-1.1,0-2,0.9-2,2.1v8.6v8.8v4.2l-64.4,21.6V95.8l43.3-14.6l-1.9,3.7c-0.5,1-0.1,2.2,0.9,2.7
		c0.3,0.1,0.6,0.2,0.9,0.2c0.7,0,1.4-0.4,1.8-1.1l4.9-9.6l-9.6-4.9c-1-0.5-2.2-0.1-2.7,0.9c-0.5,1-0.1,2.2,0.9,2.7l3.4,1.7
		L86.3,91.4V26.7c0-1.2-0.9-2.1-2-2.1c-1.1,0-2,0.9-2,2.1v64.7L17.8,69.8V26.9L84.3,4.7l66.4,22.3v8.8v3.7V53c0,1.2,0.9,2.1,2,2.1
		s2-0.9,2-2.1V39.4v-3.7V25.4c0-0.9-0.6-1.7-1.4-2L84.9,0.5c-0.4-0.1-0.9-0.1-1.3,0L15.2,23.4c-0.8,0.3-1.4,1.1-1.4,2v45.9
		c0,0.9,0.6,1.7,1.4,2l67.1,22.5v40.5l-58.8-19.7l25-5.8c1.1-0.3,1.8-1.4,1.5-2.5c-0.2-1.1-1.3-1.8-2.4-1.6l-32.2,7.4
		c-0.9,0.2-1.5,1-1.6,1.9c0,0.9,0.5,1.8,1.4,2.1l68.5,22.9c0,0,0,0,0.1,0c0.2,0.1,0.4,0.1,0.6,0.1c0,0,0,0,0,0l0,0h0
		c0.2,0,0.4,0,0.6-0.1c0,0,0,0,0.1,0l68.5-22.9c0.8-0.3,1.4-1.1,1.4-2v-5.7v-8.8v-8.6C154.8,92,153.9,91.1,152.7,91.1z"/>
</g>
</svg>
