<?xml version="1.0" encoding="utf-8"?>
<!-- Generator: Adobe Illustrator 26.1.0, SVG Export Plug-In . SVG Version: 6.00 Build 0)  -->
<svg version="1.1" id="Слой_1" xmlns="http://www.w3.org/2000/svg" xmlns:xlink="http://www.w3.org/1999/xlink" x="0px" y="0px"
	 viewBox="0 0 170.1 141.7" style="enable-background:new 0 0 170.1 141.7;" xml:space="preserve">
<style type="text/css">
	.st0{fill:none;stroke:#000000;stroke-width:2;stroke-linecap:round;stroke-miterlimit:10;}
	.st1{opacity:0.1;}
</style>
<path class="st0" d="M-51,51.7"/>
<g class="st1">
	<path d="M153.5,19.1h-16.7l0-16.7c0-0.6-0.2-1.1-0.6-1.5c-0.4-0.4-0.9-0.6-1.5-0.6l-118.4,0c-1.2,0-2.1,1-2.1,2.1v118.1
		c0,1.2,1,2.1,2.1,2.1l16.7,0v16.7c0,1.2,1,2.1,2.1,2.1l118.4,0c0.6,0,1.1-0.2,1.5-0.6c0.4-0.4,0.6-0.9,0.6-1.5V21.3
		C155.6,20.1,154.7,19.1,153.5,19.1z M151.3,137.3l-114.1,0V23.4l67.5,0l-2.8,2.8c-0.8,0.8-0.8,2,0,2.8c0.4,0.4,0.9,0.6,1.4,0.6
		c0.5,0,1-0.2,1.4-0.6l7.6-7.6l-7.6-7.6c-0.8-0.8-2-0.8-2.8,0c-0.8,0.8-0.8,2,0,2.8l2.5,2.5H35.1c-1.2,0-2.1,1-2.1,2.1v97.1H18.4
		V4.6l114.1,0l0,113.8h-79c-1.2,0-2.1,1-2.1,2.1c0,1.2,1,2.1,2.1,2.1l81.1,0c0.6,0,1.1-0.2,1.5-0.6c0.4-0.4,0.6-0.9,0.6-1.5l0-97.1
		h14.6V137.3z"/>
	<circle cx="82.2" cy="71.1" r="9.7"/>
</g>
</svg>
