<?xml version="1.0" encoding="utf-8"?>
<!-- Generator: Adobe Illustrator 26.1.0, SVG Export Plug-In . SVG Version: 6.00 Build 0)  -->
<svg version="1.1" id="Слой_1" xmlns="http://www.w3.org/2000/svg" xmlns:xlink="http://www.w3.org/1999/xlink" x="0px" y="0px"
	 viewBox="0 0 170.1 141.7" style="enable-background:new 0 0 170.1 141.7;" xml:space="preserve">
<style type="text/css">
	.st0{fill:none;stroke:#000000;stroke-width:2;stroke-linecap:round;stroke-miterlimit:10;}
	.st1{opacity:0.1;}
</style>
<path class="st0" d="M-51,51.7"/>
<g class="st1">
	<path d="M80.5,23.1c3.7,0,6.7-3.1,6.7-6.9c0-3.8-3-6.9-6.7-6.9c-3.7,0-6.7,3.1-6.7,6.9C73.7,20,76.7,23.1,80.5,23.1z"/>
	<path d="M169.2,80.8L169.2,80.8c-0.5-0.5-11.5-12.6-26.9-24.2c-16.1-12.2-31-19.4-44.4-21.7c-10.1-2-19-1.9-26.4-0.9
		c-2.5,0.3-5.1,0.8-7.7,1.5c-9,2.3-14.3,5.4-14.3,5.4l0.4-0.1c-7.5,3.7-15.5,8.9-23.7,15.6C11.8,68,1.2,80.3,0.8,80.8
		c-0.7,0.8-0.7,2.1,0,2.9c0.1,0.1,10.8,11.9,25.5,23.4c16.4,12.8,31.4,20.4,44.6,22.8c7.5,1.5,17.1,2.2,27.4,0
		c12.6-2.3,27.4-10,44.2-22.8c15.2-11.6,26.4-23.2,26.5-23.4C169.9,82.9,170,81.6,169.2,80.8z M85.1,126
		c-21-2.6-37.6-20.3-38.9-41.3h27.7c0.6,3.1,3.4,5.5,6.6,5.5c3.7,0,6.7-3.1,6.7-6.9c0-3-1.8-5.5-4.4-6.5l0-21.2l2.6,2.6
		c0.4,0.4,0.9,0.6,1.4,0.6c0.5,0,1-0.2,1.4-0.6c0.8-0.8,0.8-2,0-2.8l-7.6-7.6l-7.6,7.6c-0.8,0.8-0.8,2,0,2.8c0.8,0.8,2,0.8,2.8,0
		l2.3-2.3v20.9c-1.6,0.6-2.9,1.7-3.7,3.2H44c-1.2,0-2.2,1-2.2,2.2c0,17.4,9.7,33.6,25.1,42.2c-14.2-3.9-28.3-13.3-37.9-20.8
		C17.6,94.8,8.8,85.9,5.3,82.2c7.6-8.5,43.5-46.3,74.1-44c22.4,1.7,45.5,18.6,45.5,44.1C125,104,107.4,123.2,85.1,126z M105.2,123.5
		c14.8-8.9,24.1-24.6,24.1-41.3c0-17.3-10.2-33-26.9-41.8c28.2,7.5,55.9,35.2,62.1,41.8C158.2,88.5,130.6,114.9,105.2,123.5z"/>
</g>
</svg>
