<?xml version="1.0" encoding="utf-8"?>
<!-- Generator: Adobe Illustrator 27.5.0, SVG Export Plug-In . SVG Version: 6.00 Build 0)  -->
<svg version="1.1" id="Слой_1" xmlns="http://www.w3.org/2000/svg" xmlns:xlink="http://www.w3.org/1999/xlink" x="0px" y="0px"
	 viewBox="0 0 170.1 141.7" style="enable-background:new 0 0 170.1 141.7;" xml:space="preserve">
<style type="text/css">
	.st0{opacity:0.1;enable-background:new    ;}
</style>
<g>
	<path class="st0" d="M69.4,19.6c4.7,0,8.6-3.9,8.6-8.8C78,6,74.1,2,69.4,2s-8.6,3.9-8.6,8.8S64.6,19.6,69.4,19.6z"/>
	<path class="st0" d="M169.3,45.7L145.5,7.6c-0.4-0.6-1.1-1-1.8-1H96.1V11h46.4l22.2,35.6L121.3,94L37.5,7.2
		c-0.5-0.5-1.1-0.7-1.8-0.6c-0.1,0-0.3,0-0.4,0H24c-0.8,0-1.5,0.4-1.9,1.1L0.8,45.8c-0.5,0.8-0.3,1.9,0.3,2.6l82.7,89.7
		c0.4,0.4,1,0.7,1.6,0.7l0,0c0.6,0,1.2-0.3,1.6-0.7l82.1-89.7C169.7,47.6,169.8,46.5,169.3,45.7z M85.4,133.4L5.3,46.5l20-35.6h9.8
		l83.3,86.3L85.4,133.4z"/>
</g>
</svg>
