<?xml version="1.0" encoding="utf-8"?>
<!-- Generator: Adobe Illustrator 26.1.0, SVG Export Plug-In . SVG Version: 6.00 Build 0)  -->
<svg version="1.1" id="Слой_1" xmlns="http://www.w3.org/2000/svg" xmlns:xlink="http://www.w3.org/1999/xlink" x="0px" y="0px"
	 viewBox="0 0 170.1 141.7" style="enable-background:new 0 0 170.1 141.7;" xml:space="preserve">
<style type="text/css">
	.st0{fill:none;stroke:#000000;stroke-width:2;stroke-linecap:round;stroke-miterlimit:10;}
	.st1{opacity:0.1;}
</style>
<path class="st0" d="M-51,51.7"/>
<g class="st1">
	<path d="M128.2,14.2c-4.7,0-8.5,3.9-8.5,8.6c0,4.8,3.8,8.6,8.5,8.6c4.7,0,8.4-3.9,8.4-8.6C136.7,18,132.9,14.2,128.2,14.2z"/>
	<path d="M145.5,48.9c-0.7-0.4-1.6-0.4-2.3-0.1l-0.3,0.1c-1.7,0.8-1.8,2.2-0.8,5.9l0,0.2c0,0.1,0,0.1,0,0.2l0,0l0.1,0.4
		c3.3,13.8,1.9,28.5-3.9,41.5c-7,15.8-19.8,27.9-36,34.1C86.3,137.4,68.8,137,53,130C20.5,115.5,5.9,77.1,20.5,44.4
		c12.8-28.6,44-44,74.3-36.7c1.5,0.4,3.1-0.6,3.5-2.1c0.4-1.5-0.6-3.1-2.1-3.5c-33-8-67,8.8-80.9,39.9C7.5,59.3,7,78.5,13.8,96.2
		c6.7,17.6,19.8,31.4,36.9,39c9.3,4.1,18.9,6.1,28.5,6.1c27,0,52.8-15.6,64.5-41.9c6.9-15.4,8-32.7,3.3-48.7
		C146.8,49.9,146.2,49.3,145.5,48.9z"/>
	<path d="M100.7,77.5c-5.2,0-10.4,0-15.6,0h-7.8c-0.2,0-0.5,0-0.7,0l-0.7,0l-0.1-0.6c0-0.1,0-0.2,0-0.4l0-22.1l0-3.3
		c0-3.6,0-7.1,0-10.7l4.4,4.4c0.4,0.4,0.9,0.6,1.4,0.6c0.5,0,1-0.2,1.4-0.6c0.8-0.8,0.8-2.1,0-2.9l-10-10.1l-10.1,10
		c-0.8,0.8-0.8,2.1,0,2.9c0.8,0.8,2.1,0.8,2.9,0l4.3-4.3c0,0.1,0,0.1,0,0.2c0,13,0,25.9,0,38.9c0,2.6,1,3.6,3.7,3.6c9,0,18,0,27,0v0
		h1.3c0.3,0,0.6,0,0.9,0l0.2,0c0.3,0,0.6,0,1,0c0.3,0,0.5,0,0.8,0h6l-4.7,4.7c-0.8,0.8-0.8,2.1,0,2.9c0.4,0.4,0.9,0.6,1.4,0.6
		c0.5,0,1-0.2,1.4-0.6l10.1-10l-10-10.1c-0.8-0.8-2.1-0.8-2.9,0c-0.8,0.8-0.8,2.1,0,2.9l3.9,3.9L100.7,77.5L100.7,77.5z"/>
	<path d="M161.1,21.6c-3.3-3.7-7-6.9-11.1-9.7c-4.6-3.2-9.6-5.8-15.2-7.1c-3.9-0.9-7.7-1.1-11.7-0.5c-4.7,0.7-9,2.4-13.1,4.6
		c-6,3.4-11.3,7.7-16,12.8c-1.2,1.3-1.2,2.5,0,3.9c2.7,3,5.7,5.7,8.9,8.1c4.4,3.3,9.1,6.1,14.4,7.9c5.3,1.8,10.7,2.2,16.3,1.1
		c1.6-0.3,3.2-0.8,4.7-1.3l0,0c0,0,8.7-2.4,18-11.1c1.7-1.5,3.3-3.1,4.8-4.8C162.3,24.1,162.3,22.9,161.1,21.6z M129.6,38.2
		c-4.5,0.4-8.7-0.5-12.9-2.1c-3.5-1.4-6.7-3.2-9.7-5.4c-2.9-2.1-5.6-4.5-8.2-7.2c0.7-0.7,1.4-1.4,2.2-2.1
		c4.9-4.6,10.3-8.4,16.7-10.8c3.1-1.1,6.2-1.8,9.5-1.8c5-0.1,9.6,1.3,14.1,3.5c4.8,2.4,9,5.5,12.9,9.2c0.7,0.7,1.4,1.3,2.1,2
		c-0.1,0.2-0.2,0.2-0.3,0.3c-0.8,0.8-1.7,1.6-2.5,2.4c-0.3,0.3-0.6,0.6-0.9,0.9c-2.4,2.1-7.2,6-13.4,8.7
		C136.1,37.1,132.9,37.9,129.6,38.2z"/>
</g>
</svg>
