<?xml version="1.0" encoding="utf-8"?>
<!-- Generator: Adobe Illustrator 26.1.0, SVG Export Plug-In . SVG Version: 6.00 Build 0)  -->
<svg version="1.1" id="Слой_1" xmlns="http://www.w3.org/2000/svg" xmlns:xlink="http://www.w3.org/1999/xlink" x="0px" y="0px"
	 viewBox="0 0 206 203" style="enable-background:new 0 0 206 203;" xml:space="preserve">
<style type="text/css">
	.st0{opacity:0.1;}
</style>
<g>
	<path class="st0" d="M88.9,53c4.7,0,8.6-3.9,8.6-8.8c0-4.8-3.9-8.8-8.6-8.8s-8.6,3.9-8.6,8.8C80.3,49.1,84.1,53,88.9,53z"/>
	<path class="st0" d="M188.8,79.1L165,41c-0.4-0.6-1.1-1-1.8-1h-47.6v4.4H162L184.2,80l-43.4,47.4L57,40.6c-0.5-0.5-1.1-0.7-1.8-0.6
		c-0.1,0-0.3,0-0.4,0H43.5c-0.8,0-1.5,0.4-1.9,1.1L20.3,79.2c-0.5,0.8-0.3,1.9,0.3,2.6l82.7,89.7c0.4,0.4,1,0.7,1.6,0.7c0,0,0,0,0,0
		c0.6,0,1.2-0.3,1.6-0.7l82.1-89.7C189.2,81,189.3,79.9,188.8,79.1z M104.9,166.8L24.8,79.9l20-35.6h9.8l83.3,86.3L104.9,166.8z"/>
</g>
</svg>
