<svg width="206" height="203" viewBox="0 0 206 203" fill="none" xmlns="http://www.w3.org/2000/svg">
<g opacity="0.1">
<path d="M0 33.9619L52.1403 50.327L35.9588 0L0 33.9619Z" fill="black"/>
<path d="M106.102 183.172C150.736 183.172 186.919 146.465 186.919 101.185C186.919 55.9056 150.736 19.1991 106.102 19.1991C61.4681 19.1991 25.2852 55.9056 25.2852 101.185C25.2852 146.465 61.4681 183.172 106.102 183.172Z" fill="black"/>
<path d="M105.015 163.029C138.34 163.029 165.356 135.622 165.356 101.815C165.356 68.0068 138.34 40.6002 105.015 40.6002C71.6895 40.6002 44.6738 68.0068 44.6738 101.815C44.6738 135.622 71.6895 163.029 105.015 163.029Z" fill="#EAE9E9"/>
<path d="M197.278 2.9277L110.39 98.8914L115.417 103.575L202.305 7.61179L197.278 2.9277Z" fill="black"/>
<path d="M105.015 40.6002C71.8196 40.6002 44.6738 67.824 44.6738 101.815C44.6738 135.805 71.5093 163.029 105.015 163.029V40.6002Z" fill="#CBCACA"/>
<path d="M122.388 110.784L105.79 91.9009L101.137 113.145L122.388 110.784Z" fill="black"/>
</g>
</svg>
