<?xml version="1.0" encoding="utf-8"?>
<!-- Generator: Adobe Illustrator 26.1.0, SVG Export Plug-In . SVG Version: 6.00 Build 0)  -->
<svg version="1.1" id="Слой_1" xmlns="http://www.w3.org/2000/svg" xmlns:xlink="http://www.w3.org/1999/xlink" x="0px" y="0px"
	 viewBox="0 0 206 203" style="enable-background:new 0 0 206 203;" xml:space="preserve">
<style type="text/css">
	.st0{opacity:0.1;}
</style>
<g class="st0">
	<path d="M174.7,93.2c-4.8,0-8.7,4-8.7,8.9c0,4.9,3.9,8.9,8.7,8.9s8.7-4,8.7-8.9C183.4,97.2,179.5,93.2,174.7,93.2z"/>
	<path d="M175.6,121.1c-1.2,0-2.2,1-2.2,2.2v9.1v9.3v4.4l-68.4,22.9v-43l44.7-15c-0.8,1.6-1.6,3.2-2.4,4.8c-0.5,0.9-0.1,2.1,0.8,2.5
		c0.9,0.5,2,0.1,2.4-0.9c0.4-0.9,0.9-1.8,1.4-2.8c1.1-2.2,2.1-4.4,3.2-6.5c0.5-1,0.1-2.1-0.8-2.6c-3.1-1.6-6.1-3.2-9.2-4.8
		c-0.9-0.5-2-0.1-2.4,0.8c-0.5,0.9-0.1,2,0.8,2.5c1.6,0.9,3.2,1.7,4.9,2.6c0,0,0.1,0.1,0.2,0.1l-43.6,14.6V52.7c0-1.2-1-2.2-2.2-2.2
		c-1.2,0-2.2,1-2.2,2.2v68.7L32.3,98.5V52.9l70.6-23.6l70.6,23.6v9.3v3.9v14.5c0,1.2,1,2.2,2.2,2.2s2.2-1,2.2-2.2V66.1v-3.9V51.3
		c0-1-0.6-1.8-1.5-2.1l-72.7-24.4c-0.4-0.1-0.9-0.1-1.3,0L29.5,49.2c-0.9,0.3-1.5,1.1-1.5,2.1v48.7c0,1,0.6,1.8,1.5,2.1l71.2,23.9
		v43l-62.4-20.9l26.6-6.1c1.2-0.3,1.9-1.5,1.6-2.6c-0.3-1.2-1.4-1.9-2.6-1.7l-34.2,7.9c-1,0.2-1.6,1.1-1.7,2.1c0,1,0.6,1.9,1.5,2.2
		l72.7,24.4c0,0,0,0,0.1,0c0.2,0.1,0.4,0.1,0.6,0.1c0.2,0,0.4,0,0.6-0.1c0,0,0,0,0.1,0l72.7-24.4c0.9-0.3,1.5-1.1,1.5-2.1v-6v-9.3
		v-9.1C177.8,122.1,176.8,121.1,175.6,121.1z"/>
</g>
</svg>
