<?xml version="1.0" encoding="utf-8"?>
<!-- Generator: Adobe Illustrator 26.1.0, SVG Export Plug-In . SVG Version: 6.00 Build 0)  -->
<svg version="1.1" id="Слой_1" xmlns="http://www.w3.org/2000/svg" xmlns:xlink="http://www.w3.org/1999/xlink" x="0px" y="0px"
	 viewBox="0 0 170.1 141.7" style="enable-background:new 0 0 170.1 141.7;" xml:space="preserve">
<style type="text/css">
	.st0{fill:none;stroke:#000000;stroke-width:2;stroke-linecap:round;stroke-miterlimit:10;}
	.st1{opacity:0.1;}
</style>
<path class="st0" d="M-51,51.7"/>
<g class="st1">
	<path d="M70.3,20.9c4.8,0,8.6-4,8.6-8.8c0-4.9-3.9-8.8-8.6-8.8s-8.6,4-8.6,8.8C61.7,17,65.5,20.9,70.3,20.9z"/>
	<path d="M169.6,47.1L145.7,8.9c-0.4-0.6-1.1-1-1.8-1H99.2l2.3-2.2c0.8-0.8,0.8-2.1,0-2.8c-0.8-0.8-2.1-0.8-2.8,0L91,10.4l7.6,7.6
		c0.4,0.4,0.9,0.6,1.4,0.6c0.5,0,1-0.2,1.4-0.6c0.8-0.8,0.8-2.1,0-2.8l-2.9-2.9h44.1L165,48l-43.5,47.6L37.4,8.5
		c-0.5-0.5-1.2-0.7-1.9-0.6c-0.1,0-0.2,0-0.3,0H23.9c-0.8,0-1.5,0.4-1.9,1.1L0.5,47.2C0,48,0.2,49.1,0.8,49.8l83,90
		c0.4,0.4,1,0.7,1.6,0.7c0,0,0,0,0,0c0.6,0,1.2-0.3,1.6-0.7l82.3-90C170,49,170.1,47.9,169.6,47.1z M85.4,135.1L5,48l20.1-35.7h9.8
		l83.6,86.6L85.4,135.1z"/>
</g>
</svg>
