<?xml version="1.0" encoding="utf-8"?>
<!-- Generator: Adobe Illustrator 26.1.0, SVG Export Plug-In . SVG Version: 6.00 Build 0)  -->
<svg version="1.1" id="Слой_1" xmlns="http://www.w3.org/2000/svg" xmlns:xlink="http://www.w3.org/1999/xlink" x="0px" y="0px"
	 viewBox="0 0 206 203" style="enable-background:new 0 0 206 203;" xml:space="preserve">
<style type="text/css">
	.st0{opacity:0.1;}
	.st1{opacity:0.1;fill:#AB2624;}
</style>
<path class="st0" d="M205.2,93.9c-0.1-0.1-13.6-15.1-32.6-29.4C146.9,45.1,123.8,36,104,37.4c-0.3,0-0.6,0.1-0.9,0.3
	c-2.2-0.4-4.3-0.7-6.5-0.8C78,35.5,56.2,44.7,31.8,64.3C13.8,78.8,0.9,93.8,0.8,94c-0.7,0.8-0.7,2,0,2.8c0.1,0.1,13,14.4,31,28.4
	c24.4,19,46.1,28.6,64.6,28.6c2.2,0,4.4-0.1,6.6-0.4c2.1,0.2,4.3,0.4,6.5,0.4c17.1,0,38.4-9.6,63.3-28.6
	c18.4-14,32.1-28.3,32.3-28.4C205.9,96,205.9,94.8,205.2,93.9z M34.4,121.9C19.9,110.6,8.8,99.2,5.1,95.3c8-8.9,53-57.1,91.2-54.3
	c27.5,2,56,22.9,56,54.3c0,27.2-21.9,50.6-49.2,53.9c-25.8-3.2-46.7-25.2-48-51.5h42.6c1.1,0,2-0.9,2-2.1V73.5l0,0V55.9
	c0,0,0,0.1,0.1,0.1c1.3,1.3,2.7,2.7,4,4c0.7,0.7,1.9,0.7,2.7,0c0.7-0.7,0.7-1.9,0-2.6c-0.7-0.7-1.5-1.5-2.2-2.2
	c-1.7-1.7-3.5-3.5-5.2-5.2c-0.8-0.8-1.9-0.8-2.7,0c-2.5,2.4-5.1,4.8-7.6,7.2C88,57.9,88,59,88.7,59.8c0.7,0.7,1.9,0.8,2.7,0.1
	c1.3-1.2,2.7-2.5,4-3.7v37.2H53c-1.1,0-2.1,0.9-2.1,2.1c0,23.2,14.4,43.8,34.6,53.1C66.9,144.7,47.9,132.5,34.4,121.9z M122.4,147.9
	c19.9-9.6,34-29.8,34-52.5c0-24.9-16.5-43.7-37-52.7c36.7,7.1,73.9,44.7,81.4,52.7C193.1,103,155.3,139.4,122.4,147.9z"/>
<path class="st1" d="M124,100.3c4.5,0,8.2-3.8,8.2-8.4s-3.7-8.4-8.2-8.4s-8.2,3.8-8.2,8.4C115.8,96.6,119.4,100.3,124,100.3z"/>
</svg>
