<svg width="878" height="102" viewBox="0 0 878 102" fill="none" xmlns="http://www.w3.org/2000/svg">
<mask id="path-1-inside-1_2918_1152" fill="white">
<path d="M81.98 1.99999V100H56.36V25.1H26.12V100H0.5V1.99999H81.98ZM199.779 51C199.779 58.4667 198.519 65.3267 195.999 71.58C193.572 77.8333 190.119 83.2 185.639 87.68C181.252 92.16 175.932 95.66 169.679 98.18C163.519 100.607 156.752 101.82 149.379 101.82C142.939 101.82 136.686 100.793 130.619 98.74C124.552 96.5933 119.186 93.42 114.519 89.22C109.946 84.9267 106.259 79.6067 103.459 73.26C100.659 66.9133 99.2591 59.4933 99.2591 51C99.2591 42.5067 100.706 35.0867 103.599 28.74C106.492 22.3933 110.272 17.12 114.939 12.92C119.699 8.62666 125.112 5.40666 131.179 3.25999C137.246 1.11333 143.452 0.0399935 149.799 0.0399935C156.052 0.0399935 162.166 1.11333 168.139 3.25999C174.112 5.40666 179.432 8.62666 184.099 12.92C188.859 17.12 192.639 22.3933 195.439 28.74C198.332 35.0867 199.779 42.5067 199.779 51ZM124.879 51C124.879 55.3867 125.579 59.26 126.979 62.62C128.379 65.8867 130.199 68.64 132.439 70.88C134.772 73.12 137.386 74.8 140.279 75.92C143.266 77.04 146.346 77.6 149.519 77.6C152.599 77.6 155.586 77.04 158.479 75.92C161.466 74.8 164.079 73.12 166.319 70.88C168.652 68.64 170.519 65.8867 171.919 62.62C173.412 59.26 174.159 55.3867 174.159 51C174.159 46.6133 173.459 42.7867 172.059 39.52C170.659 36.16 168.792 33.36 166.459 31.12C164.219 28.88 161.652 27.2 158.759 26.08C155.866 24.96 152.879 24.4 149.799 24.4C146.626 24.4 143.546 24.96 140.559 26.08C137.572 27.1067 134.912 28.74 132.579 30.98C130.246 33.22 128.379 36.02 126.979 39.38C125.579 42.6467 124.879 46.52 124.879 51ZM258.011 23.7C252.691 23.7 248.165 24.8667 244.431 27.2C240.791 29.44 238.085 33.08 236.311 38.12H211.671C212.605 31.5867 214.565 25.9867 217.551 21.32C220.631 16.56 224.318 12.6867 228.611 9.69999C232.905 6.62 237.571 4.38 242.611 2.98C247.745 1.48666 252.878 0.739993 258.011 0.739993C264.265 0.739993 270.331 1.81333 276.211 3.95999C282.185 6.01333 287.458 9.14 292.031 13.34C296.698 17.54 300.431 22.7667 303.231 29.02C306.031 35.2733 307.431 42.6 307.431 51C307.431 59.4 305.985 66.7267 303.091 72.98C300.198 79.2333 296.371 84.46 291.611 88.66C286.851 92.86 281.438 95.9867 275.371 98.04C269.398 100.093 263.285 101.12 257.031 101.12C251.805 101.12 246.578 100.42 241.351 99.02C236.218 97.5267 231.505 95.24 227.211 92.16C222.918 89.08 219.278 85.1133 216.291 80.26C213.305 75.3133 211.345 69.3867 210.411 62.48H235.191C236.498 67.8 239.111 71.7667 243.031 74.38C247.045 76.9933 251.711 78.2533 257.031 78.16C262.445 78.16 267.251 76.76 271.451 73.96C275.745 71.16 278.638 67.1 280.131 61.78H248.211V40.64H280.551C279.431 35.1333 276.771 30.9333 272.571 28.04C268.371 25.1467 263.518 23.7 258.011 23.7ZM315.278 24.4V1.99999H388.078V24.4H364.138V100H339.358V24.4H315.278ZM414.951 87.82L409.351 100H382.611V96.5L427.551 1.02H439.311L483.831 96.5V100H457.371L451.631 87.82H414.951ZM423.211 66.4H443.511L433.291 42.74L423.211 66.4ZM575.699 1.99999V100H550.079V25.1H519.839V100H494.219V1.99999H575.699ZM654.158 100V60.8H623.778V100H598.158V1.99999H623.778V37.42H654.158V1.99999H679.778V100H654.158ZM722.394 87.82L716.794 100H690.054V96.5L734.994 1.02H746.754L791.274 96.5V100H764.814L759.074 87.82H722.394ZM730.654 66.4H750.954L740.734 42.74L730.654 66.4ZM814.121 65.14C809.268 61.8733 805.628 57.72 803.201 52.68C800.868 47.5467 799.654 42.18 799.561 36.58C799.561 32.2867 800.261 28.0867 801.661 23.98C803.154 19.78 805.348 16.0933 808.241 12.92C811.228 9.65333 814.914 7.04 819.301 5.08C823.781 3.02666 828.961 1.99999 834.841 1.99999H877.961V100H852.341V69.2H838.901L822.101 100H794.941V96.36L814.121 65.14ZM852.761 48.34V24.26H834.981C831.341 24.26 828.634 25.4733 826.861 27.9C825.181 30.2333 824.341 32.94 824.341 36.02C824.341 39.1 825.228 41.9467 827.001 44.56C828.774 47.08 831.434 48.34 834.981 48.34H852.761Z"/>
</mask>
<path d="M81.98 1.99999H83.98V-6.67572e-06H81.98V1.99999ZM81.98 100V102H83.98V100H81.98ZM56.36 100H54.36V102H56.36V100ZM56.36 25.1H58.36V23.1H56.36V25.1ZM26.12 25.1V23.1H24.12V25.1H26.12ZM26.12 100V102H28.12V100H26.12ZM0.5 100H-1.5V102H0.5V100ZM0.5 1.99999V-6.67572e-06H-1.5V1.99999H0.5ZM79.98 1.99999V100H83.98V1.99999H79.98ZM81.98 98H56.36V102H81.98V98ZM58.36 100V25.1H54.36V100H58.36ZM56.36 23.1H26.12V27.1H56.36V23.1ZM24.12 25.1V100H28.12V25.1H24.12ZM26.12 98H0.5V102H26.12V98ZM2.5 100V1.99999H-1.5V100H2.5ZM0.5 3.99999H81.98V-6.67572e-06H0.5V3.99999ZM195.999 71.58L194.144 70.8324L194.139 70.8444L194.135 70.8564L195.999 71.58ZM185.639 87.68L184.225 86.2658L184.217 86.2732L184.21 86.2807L185.639 87.68ZM169.679 98.18L170.412 100.041L170.419 100.038L170.427 100.035L169.679 98.18ZM130.619 98.74L129.952 100.625L129.965 100.63L129.978 100.634L130.619 98.74ZM114.519 89.22L113.15 90.6781L113.166 90.6925L113.181 90.7066L114.519 89.22ZM103.459 73.26L105.289 72.4527L103.459 73.26ZM103.599 28.74L105.419 29.5696V29.5696L103.599 28.74ZM114.939 12.92L116.277 14.4066L116.279 14.4051L114.939 12.92ZM131.179 3.25999L130.512 1.37455V1.37455L131.179 3.25999ZM184.099 12.92L182.745 14.3919L182.76 14.4059L182.776 14.4197L184.099 12.92ZM195.439 28.74L193.609 29.5473L193.614 29.5585L193.619 29.5696L195.439 28.74ZM126.979 62.62L125.133 63.3892L125.137 63.3986L125.141 63.4078L126.979 62.62ZM132.439 70.88L131.025 72.2942L131.039 72.3086L131.054 72.3228L132.439 70.88ZM140.279 75.92L139.557 77.7851L139.567 77.7889L139.577 77.7927L140.279 75.92ZM158.479 75.92L157.777 74.0473L157.767 74.051L157.757 74.0549L158.479 75.92ZM166.319 70.88L164.934 69.4372L164.919 69.4514L164.905 69.4658L166.319 70.88ZM171.919 62.62L170.091 61.8077L170.086 61.8199L170.081 61.8322L171.919 62.62ZM172.059 39.52L170.213 40.2892L170.217 40.2986L170.221 40.3078L172.059 39.52ZM166.459 31.12L165.045 32.5342L165.059 32.5486L165.074 32.5628L166.459 31.12ZM158.759 26.08L158.037 27.9451L158.759 26.08ZM140.559 26.08L141.209 27.9714L141.235 27.9624L141.261 27.9527L140.559 26.08ZM132.579 30.98L131.194 29.5372V29.5372L132.579 30.98ZM126.979 39.38L128.817 40.1678L128.821 40.1586L128.825 40.1492L126.979 39.38ZM197.779 51C197.779 58.238 196.559 64.841 194.144 70.8324L197.854 72.3276C200.48 65.8123 201.779 58.6953 201.779 51H197.779ZM194.135 70.8564C191.802 76.8663 188.497 81.9936 184.225 86.2658L187.053 89.0942C191.741 84.4064 195.342 78.8004 197.864 72.3036L194.135 70.8564ZM184.21 86.2807C180.031 90.5489 174.948 93.9003 168.932 96.325L170.427 100.035C176.917 97.4197 182.474 93.7711 187.068 89.0792L184.21 86.2807ZM168.946 96.3192C163.045 98.644 156.53 99.82 149.379 99.82V103.82C156.975 103.82 163.994 102.569 170.412 100.041L168.946 96.3192ZM149.379 99.82C143.156 99.82 137.119 98.8286 131.26 96.8456L129.978 100.634C136.252 102.758 142.722 103.82 149.379 103.82V99.82ZM131.286 96.8546C125.461 94.7933 120.324 91.7533 115.857 87.7334L113.181 90.7066C118.048 95.0867 123.644 98.3934 129.952 100.625L131.286 96.8546ZM115.888 87.7619C111.53 83.6709 107.992 78.5798 105.289 72.4527L101.629 74.0673C104.526 80.6335 108.361 86.1824 113.15 90.6781L115.888 87.7619ZM105.289 72.4527C102.623 66.4107 101.259 59.2762 101.259 51H97.2591C97.2591 59.7105 98.6948 67.4159 101.629 74.0673L105.289 72.4527ZM101.259 51C101.259 42.7319 102.667 35.6055 105.419 29.5696L101.779 27.9104C98.7442 34.5678 97.2591 42.2814 97.2591 51H101.259ZM105.419 29.5696C108.211 23.4449 111.836 18.4036 116.277 14.4066L113.601 11.4334C108.709 15.8364 104.774 21.3418 101.779 27.9104L105.419 29.5696ZM116.279 14.4051C120.842 10.2889 126.027 7.2046 131.846 5.14544L130.512 1.37455C124.198 3.60872 118.556 6.96441 113.6 11.4349L116.279 14.4051ZM131.846 5.14544C137.702 3.07351 143.683 2.03999 149.799 2.03999V-1.96001C143.222 -1.96001 136.79 -0.846855 130.512 1.37455L131.846 5.14544ZM149.799 2.03999C155.818 2.03999 161.703 3.07226 167.463 5.14214L168.815 1.37784C162.628 -0.845608 156.286 -1.96001 149.799 -1.96001V2.03999ZM167.463 5.14214C173.185 7.1987 178.275 10.2793 182.745 14.3919L185.453 11.4481C180.59 6.97403 175.04 3.61462 168.815 1.37784L167.463 5.14214ZM182.776 14.4197C187.299 18.411 190.915 23.4405 193.609 29.5473L197.269 27.9327C194.363 21.3462 190.419 15.8289 185.422 11.4203L182.776 14.4197ZM193.619 29.5696C196.371 35.6055 197.779 42.7319 197.779 51H201.779C201.779 42.2814 200.294 34.5678 197.259 27.9104L193.619 29.5696ZM122.879 51C122.879 55.5978 123.613 59.741 125.133 63.3892L128.825 61.8508C127.545 58.779 126.879 55.1756 126.879 51H122.879ZM125.141 63.4078C126.629 66.88 128.584 69.8537 131.025 72.2942L133.853 69.4658C131.814 67.4263 130.129 64.8934 128.817 61.8322L125.141 63.4078ZM131.054 72.3228C133.57 74.7381 136.406 76.5655 139.557 77.7851L141.001 74.0549C138.365 73.0344 135.975 71.5019 133.824 69.4372L131.054 72.3228ZM139.577 77.7927C142.787 78.9964 146.105 79.6 149.519 79.6V75.6C146.587 75.6 143.745 75.0836 140.981 74.0473L139.577 77.7927ZM149.519 79.6C152.848 79.6 156.079 78.9936 159.201 77.7851L157.757 74.0549C155.092 75.0864 152.35 75.6 149.519 75.6V79.6ZM159.181 77.7927C162.433 76.5731 165.29 74.7375 167.733 72.2942L164.905 69.4658C162.868 71.5025 160.498 73.0269 157.777 74.0473L159.181 77.7927ZM167.704 72.3228C170.249 69.8795 172.262 66.8965 173.757 63.4078L170.081 61.8322C168.776 64.8768 167.056 67.4005 164.934 69.4372L167.704 72.3228ZM173.747 63.4323C175.373 59.7721 176.159 55.6133 176.159 51H172.159C172.159 55.16 171.451 58.7479 170.091 61.8077L173.747 63.4323ZM176.159 51C176.159 46.4041 175.426 42.2988 173.897 38.7322L170.221 40.3078C171.492 43.2745 172.159 46.8225 172.159 51H176.159ZM173.905 38.7508C172.413 35.1688 170.399 32.1302 167.844 29.6772L165.074 32.5628C167.186 34.5898 168.905 37.1512 170.213 40.2892L173.905 38.7508ZM167.873 29.7058C165.441 27.2732 162.64 25.4375 159.481 24.2149L158.037 27.9451C160.665 28.9625 162.997 30.4868 165.045 32.5342L167.873 29.7058ZM159.481 24.2149C156.359 23.0064 153.128 22.4 149.799 22.4V26.4C152.63 26.4 155.372 26.9136 158.037 27.9451L159.481 24.2149ZM149.799 22.4C146.385 22.4 143.067 23.0036 139.857 24.2073L141.261 27.9527C144.025 26.9164 146.867 26.4 149.799 26.4V22.4ZM139.909 24.1886C136.641 25.312 133.732 27.1011 131.194 29.5372L133.964 32.4228C136.093 30.3789 138.504 28.9013 141.209 27.9714L139.909 24.1886ZM131.194 29.5372C128.639 31.9902 126.625 35.0288 125.133 38.6108L128.825 40.1492C130.133 37.0112 131.853 34.4498 133.964 32.4228L131.194 29.5372ZM125.141 38.5922C123.61 42.1635 122.879 46.3172 122.879 51H126.879C126.879 46.7228 127.548 43.1298 128.817 40.1678L125.141 38.5922ZM244.431 27.2L245.48 28.9034L245.491 28.896L244.431 27.2ZM236.311 38.12V40.12H237.728L238.198 38.7838L236.311 38.12ZM211.671 38.12L209.692 37.8372L209.365 40.12H211.671V38.12ZM217.551 21.32L215.872 20.2335L215.867 20.2419L217.551 21.32ZM228.611 9.69999L229.754 11.3418L229.765 11.3335L229.777 11.3251L228.611 9.69999ZM242.611 2.98L243.147 4.90703L243.158 4.90378L243.17 4.90039L242.611 2.98ZM276.211 3.95999L275.526 5.83871L275.543 5.84521L275.561 5.85137L276.211 3.95999ZM292.031 13.34L290.679 14.8131L290.686 14.8199L290.693 14.8266L292.031 13.34ZM303.231 29.02L305.057 28.2027V28.2027L303.231 29.02ZM303.091 72.98L304.907 73.8198L303.091 72.98ZM291.611 88.66L292.935 90.1597L291.611 88.66ZM275.371 98.04L274.73 96.1455L274.721 96.1486L275.371 98.04ZM241.351 99.02L240.793 100.94L240.813 100.946L240.834 100.952L241.351 99.02ZM227.211 92.16L226.046 93.7851L227.211 92.16ZM216.291 80.26L214.579 81.2937L214.584 81.301L214.588 81.3082L216.291 80.26ZM210.411 62.48V60.48H208.123L208.429 62.7478L210.411 62.48ZM235.191 62.48L237.134 62.0029L236.76 60.48H235.191V62.48ZM243.031 74.38L241.922 76.0441L241.931 76.0501L241.94 76.056L243.031 74.38ZM257.031 78.16V76.16H257.014L256.996 76.1603L257.031 78.16ZM271.451 73.96L270.359 72.2848L270.35 72.2903L270.342 72.2959L271.451 73.96ZM280.131 61.78L282.057 62.3205L282.77 59.78H280.131V61.78ZM248.211 61.78H246.211V63.78H248.211V61.78ZM248.211 40.64V38.64H246.211V40.64H248.211ZM280.551 40.64V42.64H282.999L282.511 40.2414L280.551 40.64ZM272.571 28.04L271.437 29.687L272.571 28.04ZM258.011 21.7C252.395 21.7 247.483 22.9341 243.371 25.504L245.491 28.896C248.846 26.7992 252.988 25.7 258.011 25.7V21.7ZM243.383 25.4967C239.263 28.032 236.311 32.0947 234.425 37.4562L238.198 38.7838C239.858 34.0653 242.319 30.848 245.48 28.9033L243.383 25.4967ZM236.311 36.12H211.671V40.12H236.311V36.12ZM213.651 38.4028C214.552 32.0993 216.43 26.7822 219.236 22.3981L215.867 20.2419C212.699 25.1911 210.658 31.074 209.692 37.8372L213.651 38.4028ZM219.231 22.4065C222.181 17.8463 225.691 14.168 229.754 11.3418L227.469 8.05818C222.945 11.2054 219.082 15.2737 215.872 20.2335L219.231 22.4065ZM229.777 11.3251C233.882 8.38055 238.335 6.24353 243.147 4.90703L242.076 1.05296C236.808 2.51646 231.928 4.85944 227.446 8.07492L229.777 11.3251ZM243.17 4.90039C248.129 3.45766 253.075 2.73999 258.011 2.73999V-1.26001C252.681 -1.26001 247.36 -0.484336 242.053 1.05961L243.17 4.90039ZM258.011 2.73999C264.031 2.73999 269.865 3.77219 275.526 5.83871L276.897 2.08128C270.798 -0.145541 264.499 -1.26001 258.011 -1.26001V2.73999ZM275.561 5.85137C281.279 7.81673 286.312 10.8027 290.679 14.8131L293.384 11.8669C288.604 7.47732 283.091 4.20992 276.862 2.06862L275.561 5.85137ZM290.693 14.8266C295.134 18.8235 298.71 23.8152 301.406 29.8373L305.057 28.2027C302.153 21.7182 298.262 16.2565 293.369 11.8534L290.693 14.8266ZM301.406 29.8373C304.068 35.7823 305.431 42.8196 305.431 51H309.431C309.431 42.3804 307.995 34.7643 305.057 28.2027L301.406 29.8373ZM305.431 51C305.431 59.1722 304.024 66.2012 301.276 72.1402L304.907 73.8198C307.945 67.2521 309.431 59.6278 309.431 51H305.431ZM301.276 72.1402C298.489 78.1636 294.823 83.159 290.288 87.1603L292.935 90.1597C297.92 85.761 301.907 80.3031 304.907 73.8198L301.276 72.1402ZM290.288 87.1603C285.729 91.1832 280.548 94.1765 274.73 96.1456L276.013 99.9344C282.328 97.7968 287.974 94.5368 292.935 90.1597L290.288 87.1603ZM274.721 96.1486C268.955 98.1308 263.061 99.12 257.031 99.12V103.12C263.508 103.12 269.841 102.056 276.022 99.9314L274.721 96.1486ZM257.031 99.12C251.986 99.12 246.933 98.4445 241.869 97.0881L240.834 100.952C246.223 102.396 251.624 103.12 257.031 103.12V99.12ZM241.91 97.0996C236.992 95.6688 232.484 93.4812 228.377 90.5349L226.046 93.7851C230.525 96.9988 235.444 99.3845 240.793 100.94L241.91 97.0996ZM228.377 90.5349C224.316 87.6215 220.853 83.857 217.995 79.2118L214.588 81.3082C217.703 86.3697 221.52 90.5385 226.046 93.7851L228.377 90.5349ZM218.004 79.2263C215.184 74.5568 213.297 68.9025 212.393 62.2122L208.429 62.7478C209.392 69.8709 211.425 76.0699 214.579 81.2937L218.004 79.2263ZM210.411 64.48H235.191V60.48H210.411V64.48ZM233.249 62.9571C234.654 68.6786 237.519 73.1085 241.922 76.0441L244.141 72.7159C240.704 70.4248 238.342 66.9214 237.134 62.0029L233.249 62.9571ZM241.94 76.056C246.325 78.9112 251.393 80.2592 257.066 80.1597L256.996 76.1603C252.03 76.2474 247.765 75.0755 244.123 72.704L241.94 76.056ZM257.031 80.16C262.81 80.16 268.008 78.6592 272.561 75.6241L270.342 72.2959C266.495 74.8608 262.08 76.16 257.031 76.16V80.16ZM272.544 75.6352C277.276 72.5489 280.444 68.0678 282.057 62.3205L278.206 61.2395C276.832 66.1322 274.213 69.7711 270.359 72.2848L272.544 75.6352ZM280.131 59.78H248.211V63.78H280.131V59.78ZM250.211 61.78V40.64H246.211V61.78H250.211ZM248.211 42.64H280.551V38.64H248.211V42.64ZM282.511 40.2414C281.3 34.2839 278.377 29.6111 273.706 26.393L271.437 29.687C275.165 32.2556 277.563 35.9828 278.592 41.0386L282.511 40.2414ZM273.706 26.393C269.145 23.2512 263.889 21.7 258.011 21.7V25.7C263.147 25.7 267.597 27.0421 271.437 29.687L273.706 26.393ZM315.278 24.4H313.278V26.4H315.278V24.4ZM315.278 1.99999V-6.67572e-06H313.278V1.99999H315.278ZM388.078 1.99999H390.078V-6.67572e-06H388.078V1.99999ZM388.078 24.4V26.4H390.078V24.4H388.078ZM364.138 24.4V22.4H362.138V24.4H364.138ZM364.138 100V102H366.138V100H364.138ZM339.358 100H337.358V102H339.358V100ZM339.358 24.4H341.358V22.4H339.358V24.4ZM317.278 24.4V1.99999H313.278V24.4H317.278ZM315.278 3.99999H388.078V-6.67572e-06H315.278V3.99999ZM386.078 1.99999V24.4H390.078V1.99999H386.078ZM388.078 22.4H364.138V26.4H388.078V22.4ZM362.138 24.4V100H366.138V24.4H362.138ZM364.138 98H339.358V102H364.138V98ZM341.358 100V24.4H337.358V100H341.358ZM339.358 22.4H315.278V26.4H339.358V22.4ZM414.951 87.82V85.82H413.67L413.134 86.9845L414.951 87.82ZM409.351 100V102H410.633L411.169 100.835L409.351 100ZM382.611 100H380.611V102H382.611V100ZM382.611 96.5L380.802 95.6483L380.611 96.0528V96.5H382.611ZM427.551 1.02V-0.980002H426.282L425.742 0.168276L427.551 1.02ZM439.311 1.02L441.124 0.174809L440.586 -0.980002H439.311V1.02ZM483.831 96.5H485.831V96.0566L485.644 95.6548L483.831 96.5ZM483.831 100V102H485.831V100H483.831ZM457.371 100L455.562 100.853L456.103 102H457.371V100ZM451.631 87.82L453.441 86.9674L452.9 85.82H451.631V87.82ZM423.211 66.4L421.371 65.6161L420.185 68.4H423.211V66.4ZM443.511 66.4V68.4H446.554L445.347 65.6069L443.511 66.4ZM433.291 42.74L435.127 41.9469L433.279 37.667L431.451 41.9561L433.291 42.74ZM413.134 86.9845L407.534 99.1645L411.169 100.835L416.769 88.6555L413.134 86.9845ZM409.351 98H382.611V102H409.351V98ZM384.611 100V96.5H380.611V100H384.611ZM384.421 97.3517L429.361 1.87172L425.742 0.168276L380.802 95.6483L384.421 97.3517ZM427.551 3.02H439.311V-0.980002H427.551V3.02ZM437.499 1.86519L482.019 97.3452L485.644 95.6548L441.124 0.174809L437.499 1.86519ZM481.831 96.5V100H485.831V96.5H481.831ZM483.831 98H457.371V102H483.831V98ZM459.181 99.1474L453.441 86.9674L449.822 88.6726L455.562 100.853L459.181 99.1474ZM451.631 85.82H414.951V89.82H451.631V85.82ZM423.211 68.4H443.511V64.4H423.211V68.4ZM445.347 65.6069L435.127 41.9469L431.455 43.5331L441.675 67.1931L445.347 65.6069ZM431.451 41.9561L421.371 65.6161L425.051 67.1839L435.131 43.5239L431.451 41.9561ZM575.699 1.99999H577.699V-6.67572e-06H575.699V1.99999ZM575.699 100V102H577.699V100H575.699ZM550.079 100H548.079V102H550.079V100ZM550.079 25.1H552.079V23.1H550.079V25.1ZM519.839 25.1V23.1H517.839V25.1H519.839ZM519.839 100V102H521.839V100H519.839ZM494.219 100H492.219V102H494.219V100ZM494.219 1.99999V-6.67572e-06H492.219V1.99999H494.219ZM573.699 1.99999V100H577.699V1.99999H573.699ZM575.699 98H550.079V102H575.699V98ZM552.079 100V25.1H548.079V100H552.079ZM550.079 23.1H519.839V27.1H550.079V23.1ZM517.839 25.1V100H521.839V25.1H517.839ZM519.839 98H494.219V102H519.839V98ZM496.219 100V1.99999H492.219V100H496.219ZM494.219 3.99999H575.699V-6.67572e-06H494.219V3.99999ZM654.158 100H652.158V102H654.158V100ZM654.158 60.8H656.158V58.8H654.158V60.8ZM623.778 60.8V58.8H621.778V60.8H623.778ZM623.778 100V102H625.778V100H623.778ZM598.158 100H596.158V102H598.158V100ZM598.158 1.99999V-6.67572e-06H596.158V1.99999H598.158ZM623.778 1.99999H625.778V-6.67572e-06H623.778V1.99999ZM623.778 37.42H621.778V39.42H623.778V37.42ZM654.158 37.42V39.42H656.158V37.42H654.158ZM654.158 1.99999V-6.67572e-06H652.158V1.99999H654.158ZM679.778 1.99999H681.778V-6.67572e-06H679.778V1.99999ZM679.778 100V102H681.778V100H679.778ZM656.158 100V60.8H652.158V100H656.158ZM654.158 58.8H623.778V62.8H654.158V58.8ZM621.778 60.8V100H625.778V60.8H621.778ZM623.778 98H598.158V102H623.778V98ZM600.158 100V1.99999H596.158V100H600.158ZM598.158 3.99999H623.778V-6.67572e-06H598.158V3.99999ZM621.778 1.99999V37.42H625.778V1.99999H621.778ZM623.778 39.42H654.158V35.42H623.778V39.42ZM656.158 37.42V1.99999H652.158V37.42H656.158ZM654.158 3.99999H679.778V-6.67572e-06H654.158V3.99999ZM677.778 1.99999V100H681.778V1.99999H677.778ZM679.778 98H654.158V102H679.778V98ZM722.394 87.82V85.82H721.112L720.576 86.9845L722.394 87.82ZM716.794 100V102H718.075L718.611 100.835L716.794 100ZM690.054 100H688.054V102H690.054V100ZM690.054 96.5L688.244 95.6483L688.054 96.0528V96.5H690.054ZM734.994 1.02V-0.980002H733.724L733.184 0.168276L734.994 1.02ZM746.754 1.02L748.566 0.174809L748.028 -0.980002H746.754V1.02ZM791.274 96.5H793.274V96.0566L793.086 95.6548L791.274 96.5ZM791.274 100V102H793.274V100H791.274ZM764.814 100L763.004 100.853L763.545 102H764.814V100ZM759.074 87.82L760.883 86.9674L760.342 85.82H759.074V87.82ZM730.654 66.4L728.814 65.6161L727.628 68.4H730.654V66.4ZM750.954 66.4V68.4H753.996L752.79 65.6069L750.954 66.4ZM740.734 42.74L742.57 41.9469L740.721 37.667L738.894 41.9561L740.734 42.74ZM720.576 86.9845L714.976 99.1645L718.611 100.835L724.211 88.6555L720.576 86.9845ZM716.794 98H690.054V102H716.794V98ZM692.054 100V96.5H688.054V100H692.054ZM691.863 97.3517L736.803 1.87172L733.184 0.168276L688.244 95.6483L691.863 97.3517ZM734.994 3.02H746.754V-0.980002H734.994V3.02ZM744.941 1.86519L789.461 97.3452L793.086 95.6548L748.566 0.174809L744.941 1.86519ZM789.274 96.5V100H793.274V96.5H789.274ZM791.274 98H764.814V102H791.274V98ZM766.623 99.1474L760.883 86.9674L757.264 88.6726L763.004 100.853L766.623 99.1474ZM759.074 85.82H722.394V89.82H759.074V85.82ZM730.654 68.4H750.954V64.4H730.654V68.4ZM752.79 65.6069L742.57 41.9469L738.898 43.5331L749.118 67.1931L752.79 65.6069ZM738.894 41.9561L728.814 65.6161L732.494 67.1839L742.574 43.5239L738.894 41.9561ZM814.121 65.14L815.825 66.1869L816.829 64.5521L815.238 63.4808L814.121 65.14ZM803.201 52.68L801.38 53.5076L801.389 53.5277L801.399 53.5476L803.201 52.68ZM799.561 36.58H797.561V36.5967L797.561 36.6133L799.561 36.58ZM801.661 23.98L799.777 23.31L799.772 23.3223L799.768 23.3346L801.661 23.98ZM808.241 12.92L806.765 11.5705L806.763 11.5725L808.241 12.92ZM819.301 5.08L820.117 6.90601L820.126 6.90211L820.134 6.89812L819.301 5.08ZM877.961 1.99999H879.961V-6.67572e-06H877.961V1.99999ZM877.961 100V102H879.961V100H877.961ZM852.341 100H850.341V102H852.341V100ZM852.341 69.2H854.341V67.2H852.341V69.2ZM838.901 69.2V67.2H837.714L837.145 68.2423L838.901 69.2ZM822.101 100V102H823.288L823.857 100.958L822.101 100ZM794.941 100H792.941V102H794.941V100ZM794.941 96.36L793.237 95.3131L792.941 95.7947V96.36H794.941ZM852.761 48.34V50.34H854.761V48.34H852.761ZM852.761 24.26H854.761V22.26H852.761V24.26ZM826.861 27.9L825.246 26.7199L825.238 26.7314L826.861 27.9ZM827.001 44.56L825.346 45.683L825.356 45.6971L825.365 45.711L827.001 44.56ZM815.238 63.4808C810.665 60.403 807.268 56.5174 805.003 51.8124L801.399 53.5476C803.987 58.9226 807.87 63.3437 813.004 66.7992L815.238 63.4808ZM805.022 51.8524C802.801 46.967 801.649 41.8705 801.561 36.5467L797.561 36.6133C797.659 42.4895 798.934 48.1263 801.38 53.5076L805.022 51.8524ZM801.561 36.58C801.561 32.5085 802.224 28.5265 803.554 24.6253L799.768 23.3346C798.298 27.6469 797.561 32.0648 797.561 36.58H801.561ZM803.545 24.65C804.953 20.6909 807.012 17.2368 809.719 14.2675L806.763 11.5725C803.684 14.9499 801.356 18.8691 799.777 23.31L803.545 24.65ZM809.717 14.2695C812.503 11.2221 815.959 8.7638 820.117 6.90601L818.485 3.25398C813.87 5.3162 809.952 8.0846 806.765 11.5705L809.717 14.2695ZM820.134 6.89812C824.307 4.98552 829.194 3.99999 834.841 3.99999V-6.67572e-06C828.728 -6.67572e-06 823.255 1.0678 818.468 3.26187L820.134 6.89812ZM834.841 3.99999H877.961V-6.67572e-06H834.841V3.99999ZM875.961 1.99999V100H879.961V1.99999H875.961ZM877.961 98H852.341V102H877.961V98ZM854.341 100V69.2H850.341V100H854.341ZM852.341 67.2H838.901V71.2H852.341V67.2ZM837.145 68.2423L820.345 99.0423L823.857 100.958L840.657 70.1577L837.145 68.2423ZM822.101 98H794.941V102H822.101V98ZM796.941 100V96.36H792.941V100H796.941ZM796.645 97.4069L815.825 66.1869L812.417 64.0931L793.237 95.3131L796.645 97.4069ZM854.761 48.34V24.26H850.761V48.34H854.761ZM852.761 22.26H834.981V26.26H852.761V22.26ZM834.981 22.26C830.854 22.26 827.477 23.6666 825.246 26.72L828.476 29.08C829.791 27.28 831.828 26.26 834.981 26.26V22.26ZM825.238 26.7314C823.295 29.4299 822.341 32.5522 822.341 36.02H826.341C826.341 33.3278 827.067 31.0368 828.484 29.0686L825.238 26.7314ZM822.341 36.02C822.341 39.5111 823.354 42.7473 825.346 45.683L828.656 43.437C827.101 41.1461 826.341 38.6889 826.341 36.02H822.341ZM825.365 45.711C827.574 48.8496 830.897 50.34 834.981 50.34V46.34C831.972 46.34 829.975 45.3104 828.637 43.409L825.365 45.711ZM834.981 50.34H852.761V46.34H834.981V50.34Z" fill="black" mask="url(#path-1-inside-1_2918_1152)"/>
</svg>
