<?xml version="1.0" encoding="utf-8"?>
<!-- Generator: Adobe Illustrator 26.1.0, SVG Export Plug-In . SVG Version: 6.00 Build 0)  -->
<svg version="1.1" id="Слой_1" xmlns="http://www.w3.org/2000/svg" xmlns:xlink="http://www.w3.org/1999/xlink" x="0px" y="0px"
	 viewBox="0 0 303.9 254.6" style="enable-background:new 0 0 303.9 254.6;" xml:space="preserve">
<style type="text/css">
	.st0{fill:none;stroke:#6D6D6D;stroke-width:2;stroke-miterlimit:10;}
	.st1{stroke:#000000;stroke-miterlimit:10;}
	.st2{fill:#AE2524;}
	.st3{fill:#FFFFFF;}
	.st4{fill:#6D6D6D;}
</style>
<path class="st0" d="M266.3,220.2h-226c-7.7,0-14-6.3-14-14V55.8c0-7.7,6.3-14,14-14h226c7.7,0,14,6.3,14,14v150.4
	C280.3,213.9,274,220.2,266.3,220.2z"/>
<g>
	<g>
		<path class="st1" d="M151.4,78.8c23.3,0,46.7,1.9,69.6,6.5c9.7,1.9,19.3,4.4,28.7,7.5c10.1,3.4,20,7.5,29,13.1
			c8.2,5.1,16.9,12.2,19.7,21.9c2.9,10.2-2.8,19.6-10.1,26.3c-7.6,6.9-17,11.7-26.4,15.7c-9.8,4.1-19.9,7.2-30.2,9.6
			c-22.4,5.1-45.4,7.6-68.4,8.1c-23.8,0.5-47.6-0.9-71.1-4.9c-20.2-3.5-40.6-8.7-58.9-18.3c-8.9-4.6-18-10.6-23.4-19.3
			c-2.5-4-4-8.6-3.7-13.4c0.3-4.9,2.4-9.4,5.3-13.2c6.1-8.2,15.3-13.9,24.4-18.3c9.5-4.7,19.5-8.2,29.7-11
			c21.9-6.1,44.9-8.8,67.6-9.8C139.4,78.9,145.4,78.8,151.4,78.8c1,0,1.9-0.8,2.9-0.8c-24,0-48.1,2-71.6,6.9c-9.5,2-18.9,4.4-28,7.3
			c-10.3,3.3-20.5,7.4-29.7,13c-8.6,5.2-17.7,12.5-20.6,22.5c-3.1,10.5,3.1,20.2,10.8,26.9c8.1,7.1,18,12,28,16
			c9.4,3.8,19.1,6.7,29,9c22.9,5.4,46.5,7.9,69.9,8.5c24.5,0.6,49.1-1,73.3-5.3c20-3.6,40.3-8.8,58.5-18
			c9.2-4.7,18.7-10.7,24.4-19.6c2.6-4.1,4.2-8.8,3.9-13.7c-0.3-5.1-2.6-9.8-5.7-13.8c-6.6-8.4-16.3-14.1-25.8-18.6
			s-19.4-7.9-29.6-10.6c-22.2-6-45.2-9-68.2-10.1c-6.2-0.3-12.4-0.4-18.6-0.4C153.4,78,152.4,78.8,151.4,78.8z"/>
	</g>
</g>
<g>
	<g>
		<path class="st1" d="M202.5,130.3c0,18.6-1.9,37.3-6.5,55.3c-4,15.7-10,31.9-20.4,44.6c-2.6,3.2-5.6,6.1-9,8.5
			c-1.8,1.3-3.7,2.4-5.7,3.3c-0.4,0.2-0.8,0.4-1.3,0.5c-0.3,0.1-0.7,0.2-1.1,0.4c-0.6,0.3,0.7-0.2,0.8-0.2c-1.2,0.1-2.3,0.4-3.5,0.5
			c-8.6,0.6-16.4-3.8-22.3-9.6c-6.1-5.9-10.6-13.3-14.2-20.9c-3.5-7.1-6.1-14.6-8.3-22.2c-5-17.5-7.4-35.7-7.9-53.9
			c-0.5-18.8,0.9-37.8,4.9-56.3c3.5-16,8.9-32.3,18.2-45.9c4.7-6.8,10.6-13.3,18.3-16.6c0.5-0.2,1-0.4,1.5-0.6
			c0.3-0.1,0.6-0.2,0.9-0.3c0.8-0.3-1.4,0.3-0.6,0.1c1.2-0.2,2.3-0.4,3.5-0.5c2-0.1,3.9,0,5.9,0.4c4.2,0.8,8,2.7,11.4,5.2
			c6.8,4.9,11.9,11.8,16,19.1c4,7.1,7.1,14.6,9.6,22.4c5.5,16.9,8.3,34.7,9.3,52.4C202.3,120.8,202.5,125.6,202.5,130.3
			c0-0.2,2.9-0.5,2.9-0.8c0-19-2-38.2-6.8-56.6c-2-7.8-4.5-15.4-7.7-22.8c-3.5-8-8-15.9-13.9-22.4c-5.7-6.3-13.3-11.6-22-11.9
			c-3.7-0.1-7.4,0.8-10.9,1.9c-4.2,1.4-8,3.8-11.3,6.7c-6.5,5.6-11.3,13-15.2,20.5c-3.8,7.3-6.7,15-9.1,22.9
			c-5.3,17.8-7.8,36.4-8.4,54.9c-0.6,19.4,0.9,39,5.2,57.9c3.7,16.5,9.3,33.3,19.4,47c5,6.7,11.6,13.1,19.9,15.4
			c3.9,1.1,8,1.2,11.9,0.3c3.7-0.8,7.2-2,10.5-3.9c7.4-4.3,13-11.3,17.4-18.6c4.4-7.2,7.8-15.1,10.6-23.1
			c5.9-17.2,8.9-35.4,9.9-53.5c0.3-4.9,0.4-9.9,0.4-14.8C205.4,129.8,202.5,130.1,202.5,130.3z"/>
	</g>
</g>
<circle class="st2" cx="192.5" cy="58.6" r="12.2"/>
<circle class="st2" cx="68.8" cy="177.8" r="12.2"/>
<g>
	<path class="st3" d="M189.9,60.6v-5.3c0.6,0,1.3,0,1.9,0v5.3c0,1.7-1.5,2.7-3.1,2.7s-3.1-1-3.1-2.7v-5.3c0.6,0,1.3,0,1.9,0v5.2
		c0,0.6,0.6,1,1.2,1C189.2,61.5,189.9,61.2,189.9,60.6z"/>
	<path class="st3" d="M196.5,60.8l-1.5,2.5h-2.1V63l2.6-3.9l-2.3-3.4v-0.4h2.1l1.3,2.1h0.1l1.3-2.1h2v0.3l-2.3,3.4l2.6,3.9v0.3h-2.1
		L196.5,60.8L196.5,60.8z"/>
</g>
<g>
	<path class="st3" d="M67.1,179.6v-5.3c0.6,0,1.3,0,1.9,0v5.3c0,1.7-1.5,2.8-3.1,2.8s-3.2-1-3.2-2.8v-5.3c0.6,0,1.3,0,1.9,0v5.3
		c0,0.6,0.6,1,1.2,1C66.5,180.5,67.1,180.2,67.1,179.6z"/>
	<path class="st3" d="M74.4,180.5v1.8h-4v-1.8h1v-4.4h-0.9v-1.8h3.9v1.8h-0.9v4.4H74.4z"/>
</g>
<rect x="117.1" y="40.8" class="st4" width="7" height="2"/>
<rect x="117.5" y="219.2" class="st4" width="8.9" height="2"/>
<rect x="279.3" y="158.2" class="st4" width="2" height="5.5"/>
</svg>
