<?xml version="1.0" encoding="utf-8"?>
<!-- Generator: Adobe Illustrator 26.1.0, SVG Export Plug-In . SVG Version: 6.00 Build 0)  -->
<svg version="1.1" id="Слой_1" xmlns="http://www.w3.org/2000/svg" xmlns:xlink="http://www.w3.org/1999/xlink" x="0px" y="0px"
	 viewBox="0 0 303.9 254.6" style="enable-background:new 0 0 303.9 254.6;" xml:space="preserve">
<style type="text/css">
	.st0{fill:none;stroke:#6D6D6D;stroke-width:2;stroke-miterlimit:10;}
	.st1{fill:#6D6D6D;}
	.st2{fill:none;stroke:#000000;stroke-width:1.5;stroke-miterlimit:10;stroke-dasharray:14;}
	.st3{fill:#AE2524;}
</style>
<circle class="st0" cx="155.1" cy="126.5" r="114.3"/>
<g>
	<g>
		<path class="st1" d="M205.9,126.2c0,18.6-1.9,37.3-6.5,55.3c-4,15.7-10,31.9-20.4,44.6c-2.6,3.2-5.6,6.1-9,8.5
			c-1.8,1.3-3.7,2.4-5.7,3.3c-0.4,0.2-0.8,0.4-1.3,0.5c-0.3,0.1-0.7,0.2-1.1,0.4c-0.6,0.3,0.7-0.2,0.8-0.2c-1.2,0.1-2.3,0.4-3.5,0.5
			c-8.6,0.6-16.4-3.8-22.3-9.6c-6.1-5.9-10.6-13.3-14.2-20.9c-3.5-7.1-6.1-14.6-8.3-22.2c-5-17.5-7.4-35.7-7.9-53.9
			c-0.5-18.8,0.9-37.8,4.9-56.3c3.5-16,8.9-32.3,18.2-45.9c4.7-6.8,10.6-13.3,18.3-16.6c0.5-0.2,1-0.4,1.5-0.6
			c0.3-0.1,0.6-0.2,0.9-0.3c0.8-0.3-1.4,0.3-0.6,0.1c1.2-0.2,2.3-0.4,3.5-0.5c2-0.1,3.9,0,5.9,0.4c4.2,0.8,8,2.7,11.4,5.2
			c6.8,4.9,11.9,11.8,16,19.1c4,7.1,7.1,14.6,9.6,22.4c5.5,16.9,8.3,34.7,9.3,52.4C205.7,116.7,205.9,121.5,205.9,126.2
			c0-0.2,2.9-0.5,2.9-0.8c0-19-2-38.2-6.8-56.6c-2-7.8-4.5-15.4-7.7-22.8c-3.5-8-8-15.9-13.9-22.4c-5.7-6.3-13.3-11.6-22-11.9
			c-3.7-0.1-7.4,0.8-10.9,1.9c-4.2,1.4-8,3.8-11.3,6.7c-6.5,5.6-11.3,13-15.2,20.5c-3.8,7.3-6.7,15-9.1,22.9
			c-5.3,17.8-7.8,36.4-8.4,54.9c-0.6,19.4,0.9,39,5.2,57.9c3.7,16.5,9.3,33.3,19.4,47c5,6.7,11.6,13.1,19.9,15.4
			c3.9,1.1,8,1.2,11.9,0.3c3.7-0.8,7.2-2,10.5-3.9c7.4-4.3,13-11.3,17.4-18.6c4.4-7.2,7.8-15.1,10.6-23.1
			c5.9-17.2,8.9-35.4,9.9-53.5c0.3-4.9,0.4-9.9,0.4-14.8C208.8,125.7,205.9,126,205.9,126.2z"/>
	</g>
</g>
<g>
	<g>
		<path class="st1" d="M154.6,178.4c-18.6,0-37.3-1.9-55.3-6.5c-15.7-4-31.9-10-44.6-20.4c-3.2-2.6-6.1-5.6-8.5-9
			c-1.3-1.8-2.4-3.7-3.3-5.7c-0.2-0.4-0.4-0.8-0.5-1.3c-0.1-0.3-0.2-0.7-0.4-1.1c-0.3-0.6,0.2,0.7,0.2,0.8c-0.1-1.2-0.4-2.3-0.5-3.5
			c-0.6-8.6,3.8-16.4,9.6-22.3c5.9-6.1,13.3-10.6,20.9-14.2c7.1-3.5,14.6-6.1,22.2-8.3c17.5-5,35.7-7.4,53.9-7.9
			c18.8-0.5,37.8,0.9,56.3,4.9c16,3.5,32.3,8.9,45.9,18.2c6.8,4.7,13.3,10.6,16.6,18.3c0.2,0.5,0.4,1,0.6,1.5
			c0.1,0.3,0.2,0.6,0.3,0.9c0.3,0.8-0.3-1.4-0.1-0.6c0.2,1.2,0.4,2.3,0.5,3.5c0.1,2,0,3.9-0.4,5.9c-0.8,4.2-2.7,8-5.2,11.4
			c-4.9,6.8-11.8,11.9-19.1,16c-7.1,4-14.6,7.1-22.4,9.6c-16.9,5.5-34.7,8.3-52.4,9.3C164.1,178.2,159.3,178.4,154.6,178.4
			c0.2,0,0.5,2.9,0.8,2.9c19,0,38.2-2,56.6-6.8c7.8-2,15.4-4.5,22.8-7.7c8-3.5,15.9-8,22.4-13.9c6.3-5.7,11.6-13.3,11.9-22
			c0.1-3.7-0.8-7.4-1.9-10.9c-1.4-4.2-3.8-8-6.7-11.3c-5.6-6.5-13-11.3-20.5-15.2c-7.3-3.8-15-6.7-22.9-9.1
			c-17.8-5.3-36.4-7.8-54.9-8.4c-19.4-0.6-39,0.9-57.9,5.2c-16.5,3.7-33.3,9.3-47,19.4c-6.7,5-13.1,11.6-15.4,19.9
			c-1.1,3.9-1.2,8-0.3,11.9c0.8,3.7,2,7.2,3.9,10.5c4.3,7.4,11.3,13,18.6,17.4c7.2,4.4,15.1,7.8,23.1,10.6
			c17.2,5.9,35.4,8.9,53.5,9.9c4.9,0.3,9.9,0.4,14.8,0.4C155.1,181.3,154.8,178.4,154.6,178.4z"/>
	</g>
</g>
<polyline points="242.8,122.3 251.8,126.6 242.7,130.7 "/>
<line class="st2" x1="245.5" y1="126.5" x2="157.1" y2="125.4"/>
<polyline points="70,129 61,124.7 70.1,120.6 "/>
<line class="st2" x1="67.2" y1="124.8" x2="155.6" y2="125.9"/>
<polyline points="152.4,43.5 156.7,34.5 160.8,43.7 "/>
<line class="st2" x1="156.6" y1="40.8" x2="155.5" y2="129.2"/>
<polyline points="159.8,208.8 155.5,217.8 151.4,208.6 "/>
<line class="st2" x1="155.6" y1="211.5" x2="156.7" y2="123.1"/>
<circle class="st3" cx="155.8" cy="125.9" r="13.7"/>
</svg>
