<?xml version="1.0" encoding="utf-8"?>
<!-- Generator: Adobe Illustrator 26.1.0, SVG Export Plug-In . SVG Version: 6.00 Build 0)  -->
<svg version="1.1" id="Слой_1" xmlns="http://www.w3.org/2000/svg" xmlns:xlink="http://www.w3.org/1999/xlink" x="0px" y="0px"
	 viewBox="0 0 303.9 254.6" style="enable-background:new 0 0 303.9 254.6;" xml:space="preserve">
<style type="text/css">
	.st0{fill:none;stroke:#6D6D6D;stroke-width:2;stroke-miterlimit:10;}
	.st1{fill:#AE2524;}
	.st2{fill:none;stroke:#AE2524;stroke-width:2;stroke-miterlimit:10;}
	.st3{fill:none;stroke:#000000;stroke-width:2;stroke-miterlimit:10;}
	.st4{fill:#6D6D6D;}
	.st5{fill:none;stroke:#6D6D6D;stroke-width:2;stroke-miterlimit:10;stroke-dasharray:10;}
</style>
<path class="st0" d="M270.5,197.8h-226c-7.7,0-14-5.7-14-12.8V47.8c0-7,6.3-12.8,14-12.8h226c7.7,0,14,5.7,14,12.8V185
	C284.5,192,278.2,197.8,270.5,197.8z"/>
<polyline class="st1" points="56.4,87.4 60.5,78.7 64.5,87.5 "/>
<line class="st2" x1="60.5" y1="85.1" x2="60.1" y2="150.7"/>
<polyline points="108.3,63.2 112.3,54.5 116.3,63.3 "/>
<line class="st3" x1="112.2" y1="63" x2="111.9" y2="109.6"/>
<polyline points="164.3,89.1 168.4,80.5 172.4,89.2 "/>
<line class="st3" x1="168.5" y1="88.6" x2="168" y2="168.6"/>
<polyline class="st4" points="259.1,61.8 267.8,57.1 265.9,66.6 "/>
<line class="st5" x1="262.9" y1="63.5" x2="169.2" y2="175.9"/>
<circle class="st3" cx="111.8" cy="115.7" r="5.7"/>
<rect x="156.8" y="196.9" class="st4" width="2.4" height="35.1"/>
<rect x="134.2" y="227.3" class="st4" width="47.4" height="5.2"/>
<line class="st3" x1="62.4" y1="151" x2="107.8" y2="118.3"/>
<line class="st3" x1="116.9" y1="118.8" x2="168.6" y2="174.6"/>
<circle class="st1" cx="60.2" cy="151.5" r="10.4"/>
<circle cx="168.4" cy="170.2" r="7.3"/>
</svg>
