<svg width="974" height="112" viewBox="0 0 974 112" fill="none" xmlns="http://www.w3.org/2000/svg">
<mask id="path-1-inside-1_2918_1507" fill="white">
<path d="M0.640001 99.86V1.86C7.92 1.86 15.1067 1.86 22.2 1.86C29.3867 1.76666 36.62 1.76666 43.9 1.86C49.78 1.86 54.9133 2.93333 59.3 5.08C63.78 7.13333 67.4667 9.88666 70.36 13.34C73.3467 16.7933 75.54 20.76 76.94 25.24C78.4333 29.6267 79.1333 34.1067 79.04 38.68C79.04 43.16 78.2933 47.5467 76.8 51.84C75.3067 56.1333 73.0667 59.96 70.08 63.32C67.1867 66.68 63.5467 69.3867 59.16 71.44C54.7733 73.4933 49.6867 74.52 43.9 74.52H26.26V99.86H0.640001ZM43.9 52.26C45.58 52.26 47.0733 51.84 48.38 51C49.6867 50.16 50.8067 49.0867 51.74 47.78C52.6733 46.4733 53.3733 44.98 53.84 43.3C54.3067 41.5267 54.54 39.7533 54.54 37.98C54.54 36.2067 54.3067 34.5267 53.84 32.94C53.3733 31.26 52.6733 29.7667 51.74 28.46C50.9 27.1533 49.8267 26.1267 48.52 25.38C47.2133 24.54 45.6733 24.12 43.9 24.12H25.84V52.26H43.9ZM156.628 24.26H121.068V38.26H153.828V60.66H121.068V76.62H157.888V100H95.4484V1.99999H156.628V24.26ZM198.526 87.82L192.926 100H166.186V96.5L211.126 1.02H222.886L267.406 96.5V100H240.946L235.206 87.82H198.526ZM206.786 66.4H227.086L216.866 42.74L206.786 66.4ZM310.693 69.76C310.04 76.8533 308.92 82.5933 307.333 86.98C305.746 91.2733 303.413 94.54 300.333 96.78C297.253 98.9267 293.286 100.14 288.433 100.42C283.58 100.793 277.653 100.467 270.653 99.44L271.073 81.1C273.873 81.38 276.113 81.38 277.793 81.1C279.566 80.82 280.92 80.2133 281.853 79.28C282.88 78.3467 283.626 77.04 284.093 75.36C284.56 73.68 284.933 71.5333 285.213 68.92L292.073 1.99999H361.233V100H335.753V24.82H314.473L310.693 69.76ZM392.639 100.28H385.079V1.99999H410.699V49.88L461.799 1.58H469.779V100H444.159V49.46L392.639 100.28ZM490.623 26.78C490.436 22.2067 491.136 18.2867 492.723 15.02C494.403 11.66 496.689 8.90667 499.583 6.76C502.569 4.51999 506.023 2.88666 509.943 1.86C513.863 0.739993 518.016 0.179992 522.403 0.179992C527.816 0.179992 532.529 1.01999 536.543 2.69999C540.649 4.28666 544.056 6.43333 546.763 9.13999C549.563 11.7533 551.663 14.7867 553.062 18.24C554.463 21.6 555.163 25.0533 555.163 28.6C555.163 31.8667 554.416 35.18 552.923 38.54C551.523 41.9 549.376 44.6533 546.483 46.8C551.523 49.5067 555.163 52.82 557.403 56.74C559.643 60.66 560.763 65.42 560.763 71.02C560.763 75.4067 559.969 79.4667 558.383 83.2C556.796 86.9333 554.416 90.2 551.243 93C548.069 95.7067 544.103 97.8533 539.343 99.44C534.583 101.027 528.983 101.82 522.543 101.82C517.129 101.82 512.229 101.12 507.843 99.72C503.549 98.2267 499.863 96.08 496.783 93.28C493.703 90.3867 491.323 86.84 489.643 82.64C487.963 78.44 487.123 73.5867 487.123 68.08H509.383C509.383 72 510.643 75.08 513.163 77.32C515.776 79.56 518.903 80.68 522.543 80.68C526.836 80.68 530.009 79.5133 532.063 77.18C534.209 74.8467 535.283 72.28 535.283 69.48C535.283 68.08 535.003 66.7267 534.443 65.42C533.976 64.1133 533.183 62.9467 532.063 61.92C531.036 60.8933 529.729 60.0533 528.143 59.4C526.556 58.7467 524.689 58.42 522.543 58.42H514.983V37.98H522.263C525.436 37.98 527.816 37.0467 529.403 35.18C530.989 33.3133 531.783 31.3067 531.783 29.16C531.783 26.4533 530.849 24.3067 528.983 22.72C527.116 21.1333 524.923 20.34 522.403 20.34C520.069 20.34 517.923 20.9 515.963 22.02C514.096 23.14 513.163 24.7267 513.163 26.78H490.623ZM598.554 87.82L592.954 100H566.214V96.5L611.154 1.02H622.914L667.434 96.5V100H640.974L635.234 87.82H598.554ZM606.814 66.4H627.114L616.894 42.74L606.814 66.4ZM679.221 100V1.99999H704.841V76.9H733.121V1.99999H758.881V78.3H768.821V111.06H748.241V100H679.221ZM796.358 100.28H788.798V1.99999H814.418V49.88L865.518 1.58H873.498V100H847.878V49.46L796.358 100.28ZM909.742 65.14C904.889 61.8733 901.249 57.72 898.822 52.68C896.489 47.5467 895.275 42.18 895.182 36.58C895.182 32.2867 895.882 28.0867 897.282 23.98C898.775 19.78 900.969 16.0933 903.862 12.92C906.849 9.65333 910.535 7.04 914.922 5.08C919.402 3.02666 924.582 1.99999 930.462 1.99999H973.582V100H947.962V69.2H934.522L917.722 100H890.562V96.36L909.742 65.14ZM948.382 48.34V24.26H930.602C926.962 24.26 924.255 25.4733 922.482 27.9C920.802 30.2333 919.962 32.94 919.962 36.02C919.962 39.1 920.849 41.9467 922.622 44.56C924.395 47.08 927.055 48.34 930.602 48.34H948.382Z"/>
</mask>
<path d="M0.64 99.86H-1.36V101.86H0.64V99.86ZM0.64 1.86V-0.140005H-1.36V1.86H0.64ZM22.2 1.86V3.86H22.213L22.226 3.85983L22.2 1.86ZM43.9 1.86L43.8744 3.85983L43.8872 3.86H43.9V1.86ZM59.3 5.08L58.4209 6.87643L58.4437 6.88757L58.4667 6.89812L59.3 5.08ZM70.36 13.34L68.827 14.6244L68.837 14.6364L68.8473 14.6483L70.36 13.34ZM76.94 25.24L75.0311 25.8365L75.0386 25.8606L75.0467 25.8845L76.94 25.24ZM79.04 38.68L77.0404 38.6392L77.04 38.6596V38.68H79.04ZM76.8 51.84L74.911 51.183H74.911L76.8 51.84ZM70.08 63.32L68.5852 61.9913L68.5747 62.003L68.5645 62.0149L70.08 63.32ZM26.26 74.52V72.52H24.26V74.52H26.26ZM26.26 99.86V101.86H28.26V99.86H26.26ZM51.74 47.78L50.1125 46.6175H50.1125L51.74 47.78ZM53.84 43.3L55.767 43.8353L55.7707 43.8222L55.7742 43.809L53.84 43.3ZM53.84 32.94L51.913 33.4753L51.917 33.4898L51.9213 33.5043L53.84 32.94ZM51.74 28.46L50.0576 29.5415L50.0841 29.5827L50.1125 29.6225L51.74 28.46ZM48.52 25.38L47.4385 27.0623L47.4824 27.0906L47.5277 27.1165L48.52 25.38ZM25.84 24.12V22.12H23.84V24.12H25.84ZM25.84 52.26H23.84V54.26H25.84V52.26ZM2.64 99.86V1.86H-1.36V99.86H2.64ZM0.64 3.86C0.65422 3.86 0.668438 3.86 0.682656 3.86C0.696874 3.86 0.711092 3.86 0.725309 3.86C0.739526 3.86 0.753743 3.86 0.76796 3.86C0.782176 3.86 0.796392 3.86 0.810609 3.86C0.824824 3.86 0.83904 3.86 0.853255 3.86C0.867471 3.86 0.881685 3.86 0.8959 3.86C0.910114 3.86 0.924329 3.86 0.938542 3.86C0.952756 3.86 0.966969 3.86 0.981182 3.86C0.995396 3.86 1.00961 3.86 1.02382 3.86C1.03803 3.86 1.05225 3.86 1.06646 3.86C1.08067 3.86 1.09488 3.86 1.10909 3.86C1.1233 3.86 1.13751 3.86 1.15172 3.86C1.16593 3.86 1.18014 3.86 1.19435 3.86C1.20856 3.86 1.22277 3.86 1.23698 3.86C1.25119 3.86 1.2654 3.86 1.2796 3.86C1.29381 3.86 1.30802 3.86 1.32223 3.86C1.33643 3.86 1.35064 3.86 1.36485 3.86C1.37906 3.86 1.39326 3.86 1.40747 3.86C1.42167 3.86 1.43588 3.86 1.45008 3.86C1.46429 3.86 1.47849 3.86 1.4927 3.86C1.5069 3.86 1.52111 3.86 1.53531 3.86C1.54951 3.86 1.56372 3.86 1.57792 3.86C1.59212 3.86 1.60633 3.86 1.62053 3.86C1.63473 3.86 1.64893 3.86 1.66314 3.86C1.67734 3.86 1.69154 3.86 1.70574 3.86C1.71994 3.86 1.73414 3.86 1.74834 3.86C1.76254 3.86 1.77674 3.86 1.79094 3.86C1.80514 3.86 1.81934 3.86 1.83354 3.86C1.84774 3.86 1.86194 3.86 1.87613 3.86C1.89033 3.86 1.90453 3.86 1.91873 3.86C1.93292 3.86 1.94712 3.86 1.96132 3.86C1.97551 3.86 1.98971 3.86 2.00391 3.86C2.0181 3.86 2.0323 3.86 2.04649 3.86C2.06069 3.86 2.07488 3.86 2.08908 3.86C2.10327 3.86 2.11747 3.86 2.13166 3.86C2.14585 3.86 2.16005 3.86 2.17424 3.86C2.18843 3.86 2.20263 3.86 2.21682 3.86C2.23101 3.86 2.2452 3.86 2.2594 3.86C2.27359 3.86 2.28778 3.86 2.30197 3.86C2.31616 3.86 2.33035 3.86 2.34454 3.86C2.35873 3.86 2.37292 3.86 2.38711 3.86C2.4013 3.86 2.41549 3.86 2.42968 3.86C2.44387 3.86 2.45806 3.86 2.47224 3.86C2.48643 3.86 2.50062 3.86 2.51481 3.86C2.529 3.86 2.54318 3.86 2.55737 3.86C2.57156 3.86 2.58574 3.86 2.59993 3.86C2.61411 3.86 2.6283 3.86 2.64249 3.86C2.65667 3.86 2.67086 3.86 2.68504 3.86C2.69922 3.86 2.71341 3.86 2.72759 3.86C2.74178 3.86 2.75596 3.86 2.77014 3.86C2.78433 3.86 2.79851 3.86 2.81269 3.86C2.82687 3.86 2.84106 3.86 2.85524 3.86C2.86942 3.86 2.8836 3.86 2.89778 3.86C2.91196 3.86 2.92614 3.86 2.94032 3.86C2.9545 3.86 2.96868 3.86 2.98286 3.86C2.99704 3.86 3.01122 3.86 3.0254 3.86C3.03958 3.86 3.05376 3.86 3.06794 3.86C3.08212 3.86 3.09629 3.86 3.11047 3.86C3.12465 3.86 3.13882 3.86 3.153 3.86C3.16718 3.86 3.18135 3.86 3.19553 3.86C3.20971 3.86 3.22388 3.86 3.23806 3.86C3.25223 3.86 3.26641 3.86 3.28058 3.86C3.29476 3.86 3.30893 3.86 3.32311 3.86C3.33728 3.86 3.35145 3.86 3.36563 3.86C3.3798 3.86 3.39397 3.86 3.40814 3.86C3.42232 3.86 3.43649 3.86 3.45066 3.86C3.46483 3.86 3.479 3.86 3.49317 3.86C3.50735 3.86 3.52152 3.86 3.53569 3.86C3.54986 3.86 3.56403 3.86 3.5782 3.86C3.59237 3.86 3.60654 3.86 3.6207 3.86C3.63487 3.86 3.64904 3.86 3.66321 3.86C3.67738 3.86 3.69155 3.86 3.70571 3.86C3.71988 3.86 3.73405 3.86 3.74822 3.86C3.76238 3.86 3.77655 3.86 3.79071 3.86C3.80488 3.86 3.81905 3.86 3.83321 3.86C3.84738 3.86 3.86154 3.86 3.87571 3.86C3.88987 3.86 3.90404 3.86 3.9182 3.86C3.93236 3.86 3.94653 3.86 3.96069 3.86C3.97485 3.86 3.98902 3.86 4.00318 3.86C4.01734 3.86 4.0315 3.86 4.04566 3.86C4.05983 3.86 4.07399 3.86 4.08815 3.86C4.10231 3.86 4.11647 3.86 4.13063 3.86C4.14479 3.86 4.15895 3.86 4.17311 3.86C4.18727 3.86 4.20143 3.86 4.21559 3.86C4.22975 3.86 4.24391 3.86 4.25807 3.86C4.27222 3.86 4.28638 3.86 4.30054 3.86C4.3147 3.86 4.32885 3.86 4.34301 3.86C4.35717 3.86 4.37132 3.86 4.38548 3.86C4.39964 3.86 4.41379 3.86 4.42795 3.86C4.4421 3.86 4.45626 3.86 4.47041 3.86C4.48457 3.86 4.49872 3.86 4.51287 3.86C4.52703 3.86 4.54118 3.86 4.55534 3.86C4.56949 3.86 4.58364 3.86 4.59779 3.86C4.61195 3.86 4.6261 3.86 4.64025 3.86C4.6544 3.86 4.66855 3.86 4.6827 3.86C4.69686 3.86 4.71101 3.86 4.72516 3.86C4.73931 3.86 4.75346 3.86 4.76761 3.86C4.78176 3.86 4.79591 3.86 4.81006 3.86C4.8242 3.86 4.83835 3.86 4.8525 3.86C4.86665 3.86 4.8808 3.86 4.89495 3.86C4.90909 3.86 4.92324 3.86 4.93739 3.86C4.95153 3.86 4.96568 3.86 4.97983 3.86C4.99397 3.86 5.00812 3.86 5.02226 3.86C5.03641 3.86 5.05055 3.86 5.0647 3.86C5.07884 3.86 5.09299 3.86 5.10713 3.86C5.12127 3.86 5.13542 3.86 5.14956 3.86C5.16371 3.86 5.17785 3.86 5.19199 3.86C5.20613 3.86 5.22028 3.86 5.23442 3.86C5.24856 3.86 5.2627 3.86 5.27684 3.86C5.29098 3.86 5.30512 3.86 5.31926 3.86C5.3334 3.86 5.34754 3.86 5.36168 3.86C5.37582 3.86 5.38996 3.86 5.4041 3.86C5.41824 3.86 5.43238 3.86 5.44652 3.86C5.46066 3.86 5.47479 3.86 5.48893 3.86C5.50307 3.86 5.51721 3.86 5.53134 3.86C5.54548 3.86 5.55962 3.86 5.57375 3.86C5.58789 3.86 5.60203 3.86 5.61616 3.86C5.6303 3.86 5.64443 3.86 5.65857 3.86C5.6727 3.86 5.68684 3.86 5.70097 3.86C5.7151 3.86 5.72924 3.86 5.74337 3.86C5.7575 3.86 5.77164 3.86 5.78577 3.86C5.7999 3.86 5.81403 3.86 5.82817 3.86C5.8423 3.86 5.85643 3.86 5.87056 3.86C5.88469 3.86 5.89882 3.86 5.91295 3.86C5.92708 3.86 5.94121 3.86 5.95534 3.86C5.96947 3.86 5.9836 3.86 5.99773 3.86C6.01186 3.86 6.02599 3.86 6.04012 3.86C6.05424 3.86 6.06837 3.86 6.0825 3.86C6.09663 3.86 6.11076 3.86 6.12488 3.86C6.13901 3.86 6.15314 3.86 6.16726 3.86C6.18139 3.86 6.19551 3.86 6.20964 3.86C6.22377 3.86 6.23789 3.86 6.25202 3.86C6.26614 3.86 6.28026 3.86 6.29439 3.86C6.30851 3.86 6.32264 3.86 6.33676 3.86C6.35088 3.86 6.36501 3.86 6.37913 3.86C6.39325 3.86 6.40737 3.86 6.4215 3.86C6.43562 3.86 6.44974 3.86 6.46386 3.86C6.47798 3.86 6.4921 3.86 6.50622 3.86C6.52034 3.86 6.53446 3.86 6.54858 3.86C6.5627 3.86 6.57682 3.86 6.59094 3.86C6.60506 3.86 6.61918 3.86 6.6333 3.86C6.64742 3.86 6.66153 3.86 6.67565 3.86C6.68977 3.86 6.70389 3.86 6.718 3.86C6.73212 3.86 6.74624 3.86 6.76035 3.86C6.77447 3.86 6.78859 3.86 6.8027 3.86C6.81682 3.86 6.83093 3.86 6.84505 3.86C6.85916 3.86 6.87328 3.86 6.88739 3.86C6.9015 3.86 6.91562 3.86 6.92973 3.86C6.94384 3.86 6.95796 3.86 6.97207 3.86C6.98618 3.86 7.00029 3.86 7.01441 3.86C7.02852 3.86 7.04263 3.86 7.05674 3.86C7.07085 3.86 7.08496 3.86 7.09907 3.86C7.11318 3.86 7.12729 3.86 7.1414 3.86C7.15551 3.86 7.16962 3.86 7.18373 3.86C7.19784 3.86 7.21195 3.86 7.22606 3.86C7.24017 3.86 7.25427 3.86 7.26838 3.86C7.28249 3.86 7.2966 3.86 7.31071 3.86C7.32481 3.86 7.33892 3.86 7.35302 3.86C7.36713 3.86 7.38124 3.86 7.39534 3.86C7.40945 3.86 7.42355 3.86 7.43766 3.86C7.45176 3.86 7.46587 3.86 7.47997 3.86C7.49408 3.86 7.50818 3.86 7.52228 3.86C7.53638 3.86 7.55049 3.86 7.56459 3.86C7.57869 3.86 7.5928 3.86 7.6069 3.86C7.621 3.86 7.6351 3.86 7.6492 3.86C7.6633 3.86 7.6774 3.86 7.69151 3.86C7.70561 3.86 7.71971 3.86 7.73381 3.86C7.74791 3.86 7.762 3.86 7.7761 3.86C7.7902 3.86 7.8043 3.86 7.8184 3.86C7.8325 3.86 7.8466 3.86 7.86069 3.86C7.87479 3.86 7.88889 3.86 7.90299 3.86C7.91708 3.86 7.93118 3.86 7.94528 3.86C7.95937 3.86 7.97347 3.86 7.98756 3.86C8.00166 3.86 8.01575 3.86 8.02985 3.86C8.04395 3.86 8.05804 3.86 8.07213 3.86C8.08623 3.86 8.10032 3.86 8.11442 3.86C8.12851 3.86 8.1426 3.86 8.15669 3.86C8.17079 3.86 8.18488 3.86 8.19897 3.86C8.21306 3.86 8.22716 3.86 8.24125 3.86C8.25534 3.86 8.26943 3.86 8.28352 3.86C8.29761 3.86 8.3117 3.86 8.32579 3.86C8.33988 3.86 8.35397 3.86 8.36806 3.86C8.38215 3.86 8.39624 3.86 8.41032 3.86C8.42441 3.86 8.4385 3.86 8.45259 3.86C8.46668 3.86 8.48076 3.86 8.49485 3.86C8.50894 3.86 8.52303 3.86 8.53711 3.86C8.5512 3.86 8.56528 3.86 8.57937 3.86C8.59345 3.86 8.60754 3.86 8.62162 3.86C8.63571 3.86 8.64979 3.86 8.66388 3.86C8.67796 3.86 8.69205 3.86 8.70613 3.86C8.72021 3.86 8.7343 3.86 8.74838 3.86C8.76246 3.86 8.77654 3.86 8.79063 3.86C8.80471 3.86 8.81879 3.86 8.83287 3.86C8.84695 3.86 8.86103 3.86 8.87511 3.86C8.88919 3.86 8.90327 3.86 8.91735 3.86C8.93143 3.86 8.94551 3.86 8.95959 3.86C8.97367 3.86 8.98775 3.86 9.00183 3.86C9.01591 3.86 9.02999 3.86 9.04406 3.86C9.05814 3.86 9.07222 3.86 9.0863 3.86C9.10037 3.86 9.11445 3.86 9.12853 3.86C9.1426 3.86 9.15668 3.86 9.17076 3.86C9.18483 3.86 9.19891 3.86 9.21298 3.86C9.22705 3.86 9.24113 3.86 9.2552 3.86C9.26928 3.86 9.28335 3.86 9.29743 3.86C9.3115 3.86 9.32557 3.86 9.33965 3.86C9.35372 3.86 9.36779 3.86 9.38186 3.86C9.39594 3.86 9.41001 3.86 9.42408 3.86C9.43815 3.86 9.45222 3.86 9.46629 3.86C9.48036 3.86 9.49443 3.86 9.5085 3.86C9.52257 3.86 9.53664 3.86 9.55071 3.86C9.56478 3.86 9.57885 3.86 9.59292 3.86C9.60699 3.86 9.62105 3.86 9.63512 3.86C9.64919 3.86 9.66326 3.86 9.67732 3.86C9.69139 3.86 9.70546 3.86 9.71952 3.86C9.73359 3.86 9.74766 3.86 9.76172 3.86C9.77579 3.86 9.78985 3.86 9.80392 3.86C9.81798 3.86 9.83205 3.86 9.84611 3.86C9.86018 3.86 9.87424 3.86 9.8883 3.86C9.90237 3.86 9.91643 3.86 9.93049 3.86C9.94456 3.86 9.95862 3.86 9.97268 3.86C9.98674 3.86 10.0008 3.86 10.0149 3.86C10.0289 3.86 10.043 3.86 10.057 3.86C10.0711 3.86 10.0852 3.86 10.0992 3.86C10.1133 3.86 10.1273 3.86 10.1414 3.86C10.1555 3.86 10.1695 3.86 10.1836 3.86C10.1976 3.86 10.2117 3.86 10.2258 3.86C10.2398 3.86 10.2539 3.86 10.2679 3.86C10.282 3.86 10.296 3.86 10.3101 3.86C10.3242 3.86 10.3382 3.86 10.3523 3.86C10.3663 3.86 10.3804 3.86 10.3944 3.86C10.4085 3.86 10.4225 3.86 10.4366 3.86C10.4507 3.86 10.4647 3.86 10.4788 3.86C10.4928 3.86 10.5069 3.86 10.5209 3.86C10.535 3.86 10.549 3.86 10.5631 3.86C10.5771 3.86 10.5912 3.86 10.6052 3.86C10.6193 3.86 10.6333 3.86 10.6474 3.86C10.6614 3.86 10.6755 3.86 10.6895 3.86C10.7036 3.86 10.7176 3.86 10.7317 3.86C10.7457 3.86 10.7598 3.86 10.7738 3.86C10.7879 3.86 10.8019 3.86 10.816 3.86C10.83 3.86 10.8441 3.86 10.8581 3.86C10.8722 3.86 10.8862 3.86 10.9003 3.86C10.9143 3.86 10.9284 3.86 10.9424 3.86C10.9564 3.86 10.9705 3.86 10.9845 3.86C10.9986 3.86 11.0126 3.86 11.0267 3.86C11.0407 3.86 11.0548 3.86 11.0688 3.86C11.0828 3.86 11.0969 3.86 11.1109 3.86C11.125 3.86 11.139 3.86 11.1531 3.86C11.1671 3.86 11.1811 3.86 11.1952 3.86C11.2092 3.86 11.2233 3.86 11.2373 3.86C11.2513 3.86 11.2654 3.86 11.2794 3.86C11.2935 3.86 11.3075 3.86 11.3215 3.86C11.3356 3.86 11.3496 3.86 11.3637 3.86C11.3777 3.86 11.3917 3.86 11.4058 3.86C11.4198 3.86 11.4339 3.86 11.4479 3.86C11.4619 3.86 11.476 3.86 11.49 3.86C11.504 3.86 11.5181 3.86 11.5321 3.86C11.5461 3.86 11.5602 3.86 11.5742 3.86C11.5883 3.86 11.6023 3.86 11.6163 3.86C11.6304 3.86 11.6444 3.86 11.6584 3.86C11.6725 3.86 11.6865 3.86 11.7005 3.86C11.7146 3.86 11.7286 3.86 11.7426 3.86C11.7567 3.86 11.7707 3.86 11.7847 3.86C11.7987 3.86 11.8128 3.86 11.8268 3.86C11.8408 3.86 11.8549 3.86 11.8689 3.86C11.8829 3.86 11.897 3.86 11.911 3.86C11.925 3.86 11.939 3.86 11.9531 3.86C11.9671 3.86 11.9811 3.86 11.9952 3.86C12.0092 3.86 12.0232 3.86 12.0372 3.86C12.0513 3.86 12.0653 3.86 12.0793 3.86C12.0933 3.86 12.1074 3.86 12.1214 3.86C12.1354 3.86 12.1495 3.86 12.1635 3.86C12.1775 3.86 12.1915 3.86 12.2056 3.86C12.2196 3.86 12.2336 3.86 12.2476 3.86C12.2616 3.86 12.2757 3.86 12.2897 3.86C12.3037 3.86 12.3177 3.86 12.3318 3.86C12.3458 3.86 12.3598 3.86 12.3738 3.86C12.3878 3.86 12.4019 3.86 12.4159 3.86C12.4299 3.86 12.4439 3.86 12.458 3.86C12.472 3.86 12.486 3.86 12.5 3.86C12.514 3.86 12.528 3.86 12.5421 3.86C12.5561 3.86 12.5701 3.86 12.5841 3.86C12.5981 3.86 12.6122 3.86 12.6262 3.86C12.6402 3.86 12.6542 3.86 12.6682 3.86C12.6822 3.86 12.6963 3.86 12.7103 3.86C12.7243 3.86 12.7383 3.86 12.7523 3.86C12.7663 3.86 12.7804 3.86 12.7944 3.86C12.8084 3.86 12.8224 3.86 12.8364 3.86C12.8504 3.86 12.8644 3.86 12.8784 3.86C12.8925 3.86 12.9065 3.86 12.9205 3.86C12.9345 3.86 12.9485 3.86 12.9625 3.86C12.9765 3.86 12.9905 3.86 13.0046 3.86C13.0186 3.86 13.0326 3.86 13.0466 3.86C13.0606 3.86 13.0746 3.86 13.0886 3.86C13.1026 3.86 13.1166 3.86 13.1306 3.86C13.1447 3.86 13.1587 3.86 13.1727 3.86C13.1867 3.86 13.2007 3.86 13.2147 3.86C13.2287 3.86 13.2427 3.86 13.2567 3.86C13.2707 3.86 13.2847 3.86 13.2987 3.86C13.3127 3.86 13.3267 3.86 13.3407 3.86C13.3548 3.86 13.3688 3.86 13.3828 3.86C13.3968 3.86 13.4108 3.86 13.4248 3.86C13.4388 3.86 13.4528 3.86 13.4668 3.86C13.4808 3.86 13.4948 3.86 13.5088 3.86C13.5228 3.86 13.5368 3.86 13.5508 3.86C13.5648 3.86 13.5788 3.86 13.5928 3.86C13.6068 3.86 13.6208 3.86 13.6348 3.86C13.6488 3.86 13.6628 3.86 13.6768 3.86C13.6908 3.86 13.7048 3.86 13.7188 3.86C13.7328 3.86 13.7468 3.86 13.7608 3.86C13.7748 3.86 13.7888 3.86 13.8028 3.86C13.8168 3.86 13.8308 3.86 13.8448 3.86C13.8588 3.86 13.8728 3.86 13.8868 3.86C13.9008 3.86 13.9148 3.86 13.9288 3.86C13.9427 3.86 13.9567 3.86 13.9707 3.86C13.9847 3.86 13.9987 3.86 14.0127 3.86C14.0267 3.86 14.0407 3.86 14.0547 3.86C14.0687 3.86 14.0827 3.86 14.0967 3.86C14.1107 3.86 14.1247 3.86 14.1387 3.86C14.1526 3.86 14.1666 3.86 14.1806 3.86C14.1946 3.86 14.2086 3.86 14.2226 3.86C14.2366 3.86 14.2506 3.86 14.2646 3.86C14.2786 3.86 14.2925 3.86 14.3065 3.86C14.3205 3.86 14.3345 3.86 14.3485 3.86C14.3625 3.86 14.3765 3.86 14.3905 3.86C14.4044 3.86 14.4184 3.86 14.4324 3.86C14.4464 3.86 14.4604 3.86 14.4744 3.86C14.4884 3.86 14.5024 3.86 14.5163 3.86C14.5303 3.86 14.5443 3.86 14.5583 3.86C14.5723 3.86 14.5863 3.86 14.6002 3.86C14.6142 3.86 14.6282 3.86 14.6422 3.86C14.6562 3.86 14.6702 3.86 14.6841 3.86C14.6981 3.86 14.7121 3.86 14.7261 3.86C14.7401 3.86 14.7541 3.86 14.768 3.86C14.782 3.86 14.796 3.86 14.81 3.86C14.824 3.86 14.8379 3.86 14.8519 3.86C14.8659 3.86 14.8799 3.86 14.8939 3.86C14.9078 3.86 14.9218 3.86 14.9358 3.86C14.9498 3.86 14.9637 3.86 14.9777 3.86C14.9917 3.86 15.0057 3.86 15.0197 3.86C15.0336 3.86 15.0476 3.86 15.0616 3.86C15.0756 3.86 15.0895 3.86 15.1035 3.86C15.1175 3.86 15.1315 3.86 15.1454 3.86C15.1594 3.86 15.1734 3.86 15.1874 3.86C15.2013 3.86 15.2153 3.86 15.2293 3.86C15.2432 3.86 15.2572 3.86 15.2712 3.86C15.2852 3.86 15.2991 3.86 15.3131 3.86C15.3271 3.86 15.3411 3.86 15.355 3.86C15.369 3.86 15.383 3.86 15.3969 3.86C15.4109 3.86 15.4249 3.86 15.4388 3.86C15.4528 3.86 15.4668 3.86 15.4808 3.86C15.4947 3.86 15.5087 3.86 15.5227 3.86C15.5366 3.86 15.5506 3.86 15.5646 3.86C15.5785 3.86 15.5925 3.86 15.6065 3.86C15.6204 3.86 15.6344 3.86 15.6484 3.86C15.6623 3.86 15.6763 3.86 15.6903 3.86C15.7042 3.86 15.7182 3.86 15.7322 3.86C15.7461 3.86 15.7601 3.86 15.774 3.86C15.788 3.86 15.802 3.86 15.8159 3.86C15.8299 3.86 15.8439 3.86 15.8578 3.86C15.8718 3.86 15.8857 3.86 15.8997 3.86C15.9137 3.86 15.9276 3.86 15.9416 3.86C15.9556 3.86 15.9695 3.86 15.9835 3.86C15.9974 3.86 16.0114 3.86 16.0254 3.86C16.0393 3.86 16.0533 3.86 16.0672 3.86C16.0812 3.86 16.0951 3.86 16.1091 3.86C16.1231 3.86 16.137 3.86 16.151 3.86C16.1649 3.86 16.1789 3.86 16.1929 3.86C16.2068 3.86 16.2208 3.86 16.2347 3.86C16.2487 3.86 16.2626 3.86 16.2766 3.86C16.2905 3.86 16.3045 3.86 16.3185 3.86C16.3324 3.86 16.3464 3.86 16.3603 3.86C16.3743 3.86 16.3882 3.86 16.4022 3.86C16.4161 3.86 16.4301 3.86 16.444 3.86C16.458 3.86 16.4719 3.86 16.4859 3.86C16.4998 3.86 16.5138 3.86 16.5277 3.86C16.5417 3.86 16.5556 3.86 16.5696 3.86C16.5835 3.86 16.5975 3.86 16.6114 3.86C16.6254 3.86 16.6393 3.86 16.6533 3.86C16.6672 3.86 16.6812 3.86 16.6951 3.86C16.7091 3.86 16.723 3.86 16.737 3.86C16.7509 3.86 16.7649 3.86 16.7788 3.86C16.7928 3.86 16.8067 3.86 16.8207 3.86C16.8346 3.86 16.8486 3.86 16.8625 3.86C16.8764 3.86 16.8904 3.86 16.9043 3.86C16.9183 3.86 16.9322 3.86 16.9462 3.86C16.9601 3.86 16.9741 3.86 16.988 3.86C17.0019 3.86 17.0159 3.86 17.0298 3.86C17.0438 3.86 17.0577 3.86 17.0717 3.86C17.0856 3.86 17.0995 3.86 17.1135 3.86C17.1274 3.86 17.1414 3.86 17.1553 3.86C17.1692 3.86 17.1832 3.86 17.1971 3.86C17.2111 3.86 17.225 3.86 17.2389 3.86C17.2529 3.86 17.2668 3.86 17.2808 3.86C17.2947 3.86 17.3086 3.86 17.3226 3.86C17.3365 3.86 17.3504 3.86 17.3644 3.86C17.3783 3.86 17.3923 3.86 17.4062 3.86C17.4201 3.86 17.4341 3.86 17.448 3.86C17.4619 3.86 17.4759 3.86 17.4898 3.86C17.5037 3.86 17.5177 3.86 17.5316 3.86C17.5455 3.86 17.5595 3.86 17.5734 3.86C17.5873 3.86 17.6013 3.86 17.6152 3.86C17.6291 3.86 17.6431 3.86 17.657 3.86C17.6709 3.86 17.6849 3.86 17.6988 3.86C17.7127 3.86 17.7267 3.86 17.7406 3.86C17.7545 3.86 17.7684 3.86 17.7824 3.86C17.7963 3.86 17.8102 3.86 17.8242 3.86C17.8381 3.86 17.852 3.86 17.8659 3.86C17.8799 3.86 17.8938 3.86 17.9077 3.86C17.9217 3.86 17.9356 3.86 17.9495 3.86C17.9634 3.86 17.9774 3.86 17.9913 3.86C18.0052 3.86 18.0191 3.86 18.0331 3.86C18.047 3.86 18.0609 3.86 18.0748 3.86C18.0888 3.86 18.1027 3.86 18.1166 3.86C18.1305 3.86 18.1445 3.86 18.1584 3.86C18.1723 3.86 18.1862 3.86 18.2002 3.86C18.2141 3.86 18.228 3.86 18.2419 3.86C18.2558 3.86 18.2698 3.86 18.2837 3.86C18.2976 3.86 18.3115 3.86 18.3255 3.86C18.3394 3.86 18.3533 3.86 18.3672 3.86C18.3811 3.86 18.3951 3.86 18.409 3.86C18.4229 3.86 18.4368 3.86 18.4507 3.86C18.4646 3.86 18.4786 3.86 18.4925 3.86C18.5064 3.86 18.5203 3.86 18.5342 3.86C18.5481 3.86 18.5621 3.86 18.576 3.86C18.5899 3.86 18.6038 3.86 18.6177 3.86C18.6316 3.86 18.6456 3.86 18.6595 3.86C18.6734 3.86 18.6873 3.86 18.7012 3.86C18.7151 3.86 18.729 3.86 18.743 3.86C18.7569 3.86 18.7708 3.86 18.7847 3.86C18.7986 3.86 18.8125 3.86 18.8264 3.86C18.8403 3.86 18.8543 3.86 18.8682 3.86C18.8821 3.86 18.896 3.86 18.9099 3.86C18.9238 3.86 18.9377 3.86 18.9516 3.86C18.9655 3.86 18.9794 3.86 18.9934 3.86C19.0073 3.86 19.0212 3.86 19.0351 3.86C19.049 3.86 19.0629 3.86 19.0768 3.86C19.0907 3.86 19.1046 3.86 19.1185 3.86C19.1324 3.86 19.1463 3.86 19.1602 3.86C19.1742 3.86 19.1881 3.86 19.202 3.86C19.2159 3.86 19.2298 3.86 19.2437 3.86C19.2576 3.86 19.2715 3.86 19.2854 3.86C19.2993 3.86 19.3132 3.86 19.3271 3.86C19.341 3.86 19.3549 3.86 19.3688 3.86C19.3827 3.86 19.3966 3.86 19.4105 3.86C19.4244 3.86 19.4383 3.86 19.4522 3.86C19.4661 3.86 19.48 3.86 19.4939 3.86C19.5078 3.86 19.5217 3.86 19.5356 3.86C19.5495 3.86 19.5634 3.86 19.5773 3.86C19.5912 3.86 19.6051 3.86 19.619 3.86C19.6329 3.86 19.6468 3.86 19.6607 3.86C19.6746 3.86 19.6885 3.86 19.7024 3.86C19.7163 3.86 19.7302 3.86 19.7441 3.86C19.758 3.86 19.7719 3.86 19.7858 3.86C19.7997 3.86 19.8136 3.86 19.8275 3.86C19.8414 3.86 19.8553 3.86 19.8692 3.86C19.883 3.86 19.8969 3.86 19.9108 3.86C19.9247 3.86 19.9386 3.86 19.9525 3.86C19.9664 3.86 19.9803 3.86 19.9942 3.86C20.0081 3.86 20.022 3.86 20.0359 3.86C20.0498 3.86 20.0636 3.86 20.0775 3.86C20.0914 3.86 20.1053 3.86 20.1192 3.86C20.1331 3.86 20.147 3.86 20.1609 3.86C20.1748 3.86 20.1887 3.86 20.2025 3.86C20.2164 3.86 20.2303 3.86 20.2442 3.86C20.2581 3.86 20.272 3.86 20.2859 3.86C20.2998 3.86 20.3136 3.86 20.3275 3.86C20.3414 3.86 20.3553 3.86 20.3692 3.86C20.3831 3.86 20.397 3.86 20.4108 3.86C20.4247 3.86 20.4386 3.86 20.4525 3.86C20.4664 3.86 20.4803 3.86 20.4941 3.86C20.508 3.86 20.5219 3.86 20.5358 3.86C20.5497 3.86 20.5636 3.86 20.5774 3.86C20.5913 3.86 20.6052 3.86 20.6191 3.86C20.633 3.86 20.6468 3.86 20.6607 3.86C20.6746 3.86 20.6885 3.86 20.7024 3.86C20.7162 3.86 20.7301 3.86 20.744 3.86C20.7579 3.86 20.7718 3.86 20.7856 3.86C20.7995 3.86 20.8134 3.86 20.8273 3.86C20.8412 3.86 20.855 3.86 20.8689 3.86C20.8828 3.86 20.8967 3.86 20.9105 3.86C20.9244 3.86 20.9383 3.86 20.9522 3.86C20.966 3.86 20.9799 3.86 20.9938 3.86C21.0077 3.86 21.0215 3.86 21.0354 3.86C21.0493 3.86 21.0632 3.86 21.077 3.86C21.0909 3.86 21.1048 3.86 21.1187 3.86C21.1325 3.86 21.1464 3.86 21.1603 3.86C21.1741 3.86 21.188 3.86 21.2019 3.86C21.2158 3.86 21.2296 3.86 21.2435 3.86C21.2574 3.86 21.2712 3.86 21.2851 3.86C21.299 3.86 21.3128 3.86 21.3267 3.86C21.3406 3.86 21.3545 3.86 21.3683 3.86C21.3822 3.86 21.3961 3.86 21.4099 3.86C21.4238 3.86 21.4377 3.86 21.4515 3.86C21.4654 3.86 21.4793 3.86 21.4931 3.86C21.507 3.86 21.5209 3.86 21.5347 3.86C21.5486 3.86 21.5625 3.86 21.5763 3.86C21.5902 3.86 21.6041 3.86 21.6179 3.86C21.6318 3.86 21.6456 3.86 21.6595 3.86C21.6734 3.86 21.6872 3.86 21.7011 3.86C21.715 3.86 21.7288 3.86 21.7427 3.86C21.7565 3.86 21.7704 3.86 21.7843 3.86C21.7981 3.86 21.812 3.86 21.8259 3.86C21.8397 3.86 21.8536 3.86 21.8674 3.86C21.8813 3.86 21.8952 3.86 21.909 3.86C21.9229 3.86 21.9367 3.86 21.9506 3.86C21.9644 3.86 21.9783 3.86 21.9922 3.86C22.006 3.86 22.0199 3.86 22.0337 3.86C22.0476 3.86 22.0614 3.86 22.0753 3.86C22.0892 3.86 22.103 3.86 22.1169 3.86C22.1307 3.86 22.1446 3.86 22.1584 3.86C22.1723 3.86 22.1861 3.86 22.2 3.86V-0.140005C22.1861 -0.140005 22.1723 -0.140005 22.1584 -0.140005C22.1446 -0.140005 22.1307 -0.140005 22.1169 -0.140005C22.103 -0.140005 22.0892 -0.140005 22.0753 -0.140005C22.0614 -0.140005 22.0476 -0.140005 22.0337 -0.140005C22.0199 -0.140005 22.006 -0.140005 21.9922 -0.140005C21.9783 -0.140005 21.9644 -0.140005 21.9506 -0.140005C21.9367 -0.140005 21.9229 -0.140005 21.909 -0.140005C21.8952 -0.140005 21.8813 -0.140005 21.8674 -0.140005C21.8536 -0.140005 21.8397 -0.140005 21.8259 -0.140005C21.812 -0.140005 21.7981 -0.140005 21.7843 -0.140005C21.7704 -0.140005 21.7565 -0.140005 21.7427 -0.140005C21.7288 -0.140005 21.715 -0.140005 21.7011 -0.140005C21.6872 -0.140005 21.6734 -0.140005 21.6595 -0.140005C21.6456 -0.140005 21.6318 -0.140005 21.6179 -0.140005C21.6041 -0.140005 21.5902 -0.140005 21.5763 -0.140005C21.5625 -0.140005 21.5486 -0.140005 21.5347 -0.140005C21.5209 -0.140005 21.507 -0.140005 21.4931 -0.140005C21.4793 -0.140005 21.4654 -0.140005 21.4515 -0.140005C21.4377 -0.140005 21.4238 -0.140005 21.4099 -0.140005C21.3961 -0.140005 21.3822 -0.140005 21.3683 -0.140005C21.3545 -0.140005 21.3406 -0.140005 21.3267 -0.140005C21.3128 -0.140005 21.299 -0.140005 21.2851 -0.140005C21.2712 -0.140005 21.2574 -0.140005 21.2435 -0.140005C21.2296 -0.140005 21.2158 -0.140005 21.2019 -0.140005C21.188 -0.140005 21.1741 -0.140005 21.1603 -0.140005C21.1464 -0.140005 21.1325 -0.140005 21.1187 -0.140005C21.1048 -0.140005 21.0909 -0.140005 21.077 -0.140005C21.0632 -0.140005 21.0493 -0.140005 21.0354 -0.140005C21.0215 -0.140005 21.0077 -0.140005 20.9938 -0.140005C20.9799 -0.140005 20.966 -0.140005 20.9522 -0.140005C20.9383 -0.140005 20.9244 -0.140005 20.9105 -0.140005C20.8967 -0.140005 20.8828 -0.140005 20.8689 -0.140005C20.855 -0.140005 20.8412 -0.140005 20.8273 -0.140005C20.8134 -0.140005 20.7995 -0.140005 20.7856 -0.140005C20.7718 -0.140005 20.7579 -0.140005 20.744 -0.140005C20.7301 -0.140005 20.7162 -0.140005 20.7024 -0.140005C20.6885 -0.140005 20.6746 -0.140005 20.6607 -0.140005C20.6468 -0.140005 20.633 -0.140005 20.6191 -0.140005C20.6052 -0.140005 20.5913 -0.140005 20.5774 -0.140005C20.5636 -0.140005 20.5497 -0.140005 20.5358 -0.140005C20.5219 -0.140005 20.508 -0.140005 20.4941 -0.140005C20.4803 -0.140005 20.4664 -0.140005 20.4525 -0.140005C20.4386 -0.140005 20.4247 -0.140005 20.4108 -0.140005C20.397 -0.140005 20.3831 -0.140005 20.3692 -0.140005C20.3553 -0.140005 20.3414 -0.140005 20.3275 -0.140005C20.3136 -0.140005 20.2998 -0.140005 20.2859 -0.140005C20.272 -0.140005 20.2581 -0.140005 20.2442 -0.140005C20.2303 -0.140005 20.2164 -0.140005 20.2025 -0.140005C20.1887 -0.140005 20.1748 -0.140005 20.1609 -0.140005C20.147 -0.140005 20.1331 -0.140005 20.1192 -0.140005C20.1053 -0.140005 20.0914 -0.140005 20.0775 -0.140005C20.0636 -0.140005 20.0498 -0.140005 20.0359 -0.140005C20.022 -0.140005 20.0081 -0.140005 19.9942 -0.140005C19.9803 -0.140005 19.9664 -0.140005 19.9525 -0.140005C19.9386 -0.140005 19.9247 -0.140005 19.9108 -0.140005C19.8969 -0.140005 19.883 -0.140005 19.8692 -0.140005C19.8553 -0.140005 19.8414 -0.140005 19.8275 -0.140005C19.8136 -0.140005 19.7997 -0.140005 19.7858 -0.140005C19.7719 -0.140005 19.758 -0.140005 19.7441 -0.140005C19.7302 -0.140005 19.7163 -0.140005 19.7024 -0.140005C19.6885 -0.140005 19.6746 -0.140005 19.6607 -0.140005C19.6468 -0.140005 19.6329 -0.140005 19.619 -0.140005C19.6051 -0.140005 19.5912 -0.140005 19.5773 -0.140005C19.5634 -0.140005 19.5495 -0.140005 19.5356 -0.140005C19.5217 -0.140005 19.5078 -0.140005 19.4939 -0.140005C19.48 -0.140005 19.4661 -0.140005 19.4522 -0.140005C19.4383 -0.140005 19.4244 -0.140005 19.4105 -0.140005C19.3966 -0.140005 19.3827 -0.140005 19.3688 -0.140005C19.3549 -0.140005 19.341 -0.140005 19.3271 -0.140005C19.3132 -0.140005 19.2993 -0.140005 19.2854 -0.140005C19.2715 -0.140005 19.2576 -0.140005 19.2437 -0.140005C19.2298 -0.140005 19.2159 -0.140005 19.202 -0.140005C19.1881 -0.140005 19.1742 -0.140005 19.1602 -0.140005C19.1463 -0.140005 19.1324 -0.140005 19.1185 -0.140005C19.1046 -0.140005 19.0907 -0.140005 19.0768 -0.140005C19.0629 -0.140005 19.049 -0.140005 19.0351 -0.140005C19.0212 -0.140005 19.0073 -0.140005 18.9934 -0.140005C18.9794 -0.140005 18.9655 -0.140005 18.9516 -0.140005C18.9377 -0.140005 18.9238 -0.140005 18.9099 -0.140005C18.896 -0.140005 18.8821 -0.140005 18.8682 -0.140005C18.8543 -0.140005 18.8403 -0.140005 18.8264 -0.140005C18.8125 -0.140005 18.7986 -0.140005 18.7847 -0.140005C18.7708 -0.140005 18.7569 -0.140005 18.743 -0.140005C18.729 -0.140005 18.7151 -0.140005 18.7012 -0.140005C18.6873 -0.140005 18.6734 -0.140005 18.6595 -0.140005C18.6456 -0.140005 18.6316 -0.140005 18.6177 -0.140005C18.6038 -0.140005 18.5899 -0.140005 18.576 -0.140005C18.5621 -0.140005 18.5481 -0.140005 18.5342 -0.140005C18.5203 -0.140005 18.5064 -0.140005 18.4925 -0.140005C18.4786 -0.140005 18.4646 -0.140005 18.4507 -0.140005C18.4368 -0.140005 18.4229 -0.140005 18.409 -0.140005C18.3951 -0.140005 18.3811 -0.140005 18.3672 -0.140005C18.3533 -0.140005 18.3394 -0.140005 18.3255 -0.140005C18.3115 -0.140005 18.2976 -0.140005 18.2837 -0.140005C18.2698 -0.140005 18.2558 -0.140005 18.2419 -0.140005C18.228 -0.140005 18.2141 -0.140005 18.2002 -0.140005C18.1862 -0.140005 18.1723 -0.140005 18.1584 -0.140005C18.1445 -0.140005 18.1305 -0.140005 18.1166 -0.140005C18.1027 -0.140005 18.0888 -0.140005 18.0748 -0.140005C18.0609 -0.140005 18.047 -0.140005 18.0331 -0.140005C18.0191 -0.140005 18.0052 -0.140005 17.9913 -0.140005C17.9774 -0.140005 17.9634 -0.140005 17.9495 -0.140005C17.9356 -0.140005 17.9217 -0.140005 17.9077 -0.140005C17.8938 -0.140005 17.8799 -0.140005 17.8659 -0.140005C17.852 -0.140005 17.8381 -0.140005 17.8242 -0.140005C17.8102 -0.140005 17.7963 -0.140005 17.7824 -0.140005C17.7684 -0.140005 17.7545 -0.140005 17.7406 -0.140005C17.7267 -0.140005 17.7127 -0.140005 17.6988 -0.140005C17.6849 -0.140005 17.6709 -0.140005 17.657 -0.140005C17.6431 -0.140005 17.6291 -0.140005 17.6152 -0.140005C17.6013 -0.140005 17.5873 -0.140005 17.5734 -0.140005C17.5595 -0.140005 17.5455 -0.140005 17.5316 -0.140005C17.5177 -0.140005 17.5037 -0.140005 17.4898 -0.140005C17.4759 -0.140005 17.4619 -0.140005 17.448 -0.140005C17.4341 -0.140005 17.4201 -0.140005 17.4062 -0.140005C17.3923 -0.140005 17.3783 -0.140005 17.3644 -0.140005C17.3504 -0.140005 17.3365 -0.140005 17.3226 -0.140005C17.3086 -0.140005 17.2947 -0.140005 17.2808 -0.140005C17.2668 -0.140005 17.2529 -0.140005 17.2389 -0.140005C17.225 -0.140005 17.2111 -0.140005 17.1971 -0.140005C17.1832 -0.140005 17.1692 -0.140005 17.1553 -0.140005C17.1414 -0.140005 17.1274 -0.140005 17.1135 -0.140005C17.0995 -0.140005 17.0856 -0.140005 17.0717 -0.140005C17.0577 -0.140005 17.0438 -0.140005 17.0298 -0.140005C17.0159 -0.140005 17.0019 -0.140005 16.988 -0.140005C16.9741 -0.140005 16.9601 -0.140005 16.9462 -0.140005C16.9322 -0.140005 16.9183 -0.140005 16.9043 -0.140005C16.8904 -0.140005 16.8764 -0.140005 16.8625 -0.140005C16.8486 -0.140005 16.8346 -0.140005 16.8207 -0.140005C16.8067 -0.140005 16.7928 -0.140005 16.7788 -0.140005C16.7649 -0.140005 16.7509 -0.140005 16.737 -0.140005C16.723 -0.140005 16.7091 -0.140005 16.6951 -0.140005C16.6812 -0.140005 16.6672 -0.140005 16.6533 -0.140005C16.6393 -0.140005 16.6254 -0.140005 16.6114 -0.140005C16.5975 -0.140005 16.5835 -0.140005 16.5696 -0.140005C16.5556 -0.140005 16.5417 -0.140005 16.5277 -0.140005C16.5138 -0.140005 16.4998 -0.140005 16.4859 -0.140005C16.4719 -0.140005 16.458 -0.140005 16.444 -0.140005C16.4301 -0.140005 16.4161 -0.140005 16.4022 -0.140005C16.3882 -0.140005 16.3743 -0.140005 16.3603 -0.140005C16.3464 -0.140005 16.3324 -0.140005 16.3185 -0.140005C16.3045 -0.140005 16.2905 -0.140005 16.2766 -0.140005C16.2626 -0.140005 16.2487 -0.140005 16.2347 -0.140005C16.2208 -0.140005 16.2068 -0.140005 16.1929 -0.140005C16.1789 -0.140005 16.1649 -0.140005 16.151 -0.140005C16.137 -0.140005 16.1231 -0.140005 16.1091 -0.140005C16.0951 -0.140005 16.0812 -0.140005 16.0672 -0.140005C16.0533 -0.140005 16.0393 -0.140005 16.0254 -0.140005C16.0114 -0.140005 15.9974 -0.140005 15.9835 -0.140005C15.9695 -0.140005 15.9556 -0.140005 15.9416 -0.140005C15.9276 -0.140005 15.9137 -0.140005 15.8997 -0.140005C15.8857 -0.140005 15.8718 -0.140005 15.8578 -0.140005C15.8439 -0.140005 15.8299 -0.140005 15.8159 -0.140005C15.802 -0.140005 15.788 -0.140005 15.774 -0.140005C15.7601 -0.140005 15.7461 -0.140005 15.7322 -0.140005C15.7182 -0.140005 15.7042 -0.140005 15.6903 -0.140005C15.6763 -0.140005 15.6623 -0.140005 15.6484 -0.140005C15.6344 -0.140005 15.6204 -0.140005 15.6065 -0.140005C15.5925 -0.140005 15.5785 -0.140005 15.5646 -0.140005C15.5506 -0.140005 15.5366 -0.140005 15.5227 -0.140005C15.5087 -0.140005 15.4947 -0.140005 15.4808 -0.140005C15.4668 -0.140005 15.4528 -0.140005 15.4388 -0.140005C15.4249 -0.140005 15.4109 -0.140005 15.3969 -0.140005C15.383 -0.140005 15.369 -0.140005 15.355 -0.140005C15.3411 -0.140005 15.3271 -0.140005 15.3131 -0.140005C15.2991 -0.140005 15.2852 -0.140005 15.2712 -0.140005C15.2572 -0.140005 15.2432 -0.140005 15.2293 -0.140005C15.2153 -0.140005 15.2013 -0.140005 15.1874 -0.140005C15.1734 -0.140005 15.1594 -0.140005 15.1454 -0.140005C15.1315 -0.140005 15.1175 -0.140005 15.1035 -0.140005C15.0895 -0.140005 15.0756 -0.140005 15.0616 -0.140005C15.0476 -0.140005 15.0336 -0.140005 15.0197 -0.140005C15.0057 -0.140005 14.9917 -0.140005 14.9777 -0.140005C14.9637 -0.140005 14.9498 -0.140005 14.9358 -0.140005C14.9218 -0.140005 14.9078 -0.140005 14.8939 -0.140005C14.8799 -0.140005 14.8659 -0.140005 14.8519 -0.140005C14.8379 -0.140005 14.824 -0.140005 14.81 -0.140005C14.796 -0.140005 14.782 -0.140005 14.768 -0.140005C14.7541 -0.140005 14.7401 -0.140005 14.7261 -0.140005C14.7121 -0.140005 14.6981 -0.140005 14.6841 -0.140005C14.6702 -0.140005 14.6562 -0.140005 14.6422 -0.140005C14.6282 -0.140005 14.6142 -0.140005 14.6002 -0.140005C14.5863 -0.140005 14.5723 -0.140005 14.5583 -0.140005C14.5443 -0.140005 14.5303 -0.140005 14.5163 -0.140005C14.5024 -0.140005 14.4884 -0.140005 14.4744 -0.140005C14.4604 -0.140005 14.4464 -0.140005 14.4324 -0.140005C14.4184 -0.140005 14.4044 -0.140005 14.3905 -0.140005C14.3765 -0.140005 14.3625 -0.140005 14.3485 -0.140005C14.3345 -0.140005 14.3205 -0.140005 14.3065 -0.140005C14.2925 -0.140005 14.2786 -0.140005 14.2646 -0.140005C14.2506 -0.140005 14.2366 -0.140005 14.2226 -0.140005C14.2086 -0.140005 14.1946 -0.140005 14.1806 -0.140005C14.1666 -0.140005 14.1526 -0.140005 14.1387 -0.140005C14.1247 -0.140005 14.1107 -0.140005 14.0967 -0.140005C14.0827 -0.140005 14.0687 -0.140005 14.0547 -0.140005C14.0407 -0.140005 14.0267 -0.140005 14.0127 -0.140005C13.9987 -0.140005 13.9847 -0.140005 13.9707 -0.140005C13.9567 -0.140005 13.9427 -0.140005 13.9288 -0.140005C13.9148 -0.140005 13.9008 -0.140005 13.8868 -0.140005C13.8728 -0.140005 13.8588 -0.140005 13.8448 -0.140005C13.8308 -0.140005 13.8168 -0.140005 13.8028 -0.140005C13.7888 -0.140005 13.7748 -0.140005 13.7608 -0.140005C13.7468 -0.140005 13.7328 -0.140005 13.7188 -0.140005C13.7048 -0.140005 13.6908 -0.140005 13.6768 -0.140005C13.6628 -0.140005 13.6488 -0.140005 13.6348 -0.140005C13.6208 -0.140005 13.6068 -0.140005 13.5928 -0.140005C13.5788 -0.140005 13.5648 -0.140005 13.5508 -0.140005C13.5368 -0.140005 13.5228 -0.140005 13.5088 -0.140005C13.4948 -0.140005 13.4808 -0.140005 13.4668 -0.140005C13.4528 -0.140005 13.4388 -0.140005 13.4248 -0.140005C13.4108 -0.140005 13.3968 -0.140005 13.3828 -0.140005C13.3688 -0.140005 13.3548 -0.140005 13.3407 -0.140005C13.3267 -0.140005 13.3127 -0.140005 13.2987 -0.140005C13.2847 -0.140005 13.2707 -0.140005 13.2567 -0.140005C13.2427 -0.140005 13.2287 -0.140005 13.2147 -0.140005C13.2007 -0.140005 13.1867 -0.140005 13.1727 -0.140005C13.1587 -0.140005 13.1447 -0.140005 13.1306 -0.140005C13.1166 -0.140005 13.1026 -0.140005 13.0886 -0.140005C13.0746 -0.140005 13.0606 -0.140005 13.0466 -0.140005C13.0326 -0.140005 13.0186 -0.140005 13.0046 -0.140005C12.9905 -0.140005 12.9765 -0.140005 12.9625 -0.140005C12.9485 -0.140005 12.9345 -0.140005 12.9205 -0.140005C12.9065 -0.140005 12.8925 -0.140005 12.8784 -0.140005C12.8644 -0.140005 12.8504 -0.140005 12.8364 -0.140005C12.8224 -0.140005 12.8084 -0.140005 12.7944 -0.140005C12.7804 -0.140005 12.7663 -0.140005 12.7523 -0.140005C12.7383 -0.140005 12.7243 -0.140005 12.7103 -0.140005C12.6963 -0.140005 12.6822 -0.140005 12.6682 -0.140005C12.6542 -0.140005 12.6402 -0.140005 12.6262 -0.140005C12.6122 -0.140005 12.5981 -0.140005 12.5841 -0.140005C12.5701 -0.140005 12.5561 -0.140005 12.5421 -0.140005C12.528 -0.140005 12.514 -0.140005 12.5 -0.140005C12.486 -0.140005 12.472 -0.140005 12.458 -0.140005C12.4439 -0.140005 12.4299 -0.140005 12.4159 -0.140005C12.4019 -0.140005 12.3878 -0.140005 12.3738 -0.140005C12.3598 -0.140005 12.3458 -0.140005 12.3318 -0.140005C12.3177 -0.140005 12.3037 -0.140005 12.2897 -0.140005C12.2757 -0.140005 12.2616 -0.140005 12.2476 -0.140005C12.2336 -0.140005 12.2196 -0.140005 12.2056 -0.140005C12.1915 -0.140005 12.1775 -0.140005 12.1635 -0.140005C12.1495 -0.140005 12.1354 -0.140005 12.1214 -0.140005C12.1074 -0.140005 12.0933 -0.140005 12.0793 -0.140005C12.0653 -0.140005 12.0513 -0.140005 12.0372 -0.140005C12.0232 -0.140005 12.0092 -0.140005 11.9952 -0.140005C11.9811 -0.140005 11.9671 -0.140005 11.9531 -0.140005C11.939 -0.140005 11.925 -0.140005 11.911 -0.140005C11.897 -0.140005 11.8829 -0.140005 11.8689 -0.140005C11.8549 -0.140005 11.8408 -0.140005 11.8268 -0.140005C11.8128 -0.140005 11.7987 -0.140005 11.7847 -0.140005C11.7707 -0.140005 11.7567 -0.140005 11.7426 -0.140005C11.7286 -0.140005 11.7146 -0.140005 11.7005 -0.140005C11.6865 -0.140005 11.6725 -0.140005 11.6584 -0.140005C11.6444 -0.140005 11.6304 -0.140005 11.6163 -0.140005C11.6023 -0.140005 11.5883 -0.140005 11.5742 -0.140005C11.5602 -0.140005 11.5461 -0.140005 11.5321 -0.140005C11.5181 -0.140005 11.504 -0.140005 11.49 -0.140005C11.476 -0.140005 11.4619 -0.140005 11.4479 -0.140005C11.4339 -0.140005 11.4198 -0.140005 11.4058 -0.140005C11.3917 -0.140005 11.3777 -0.140005 11.3637 -0.140005C11.3496 -0.140005 11.3356 -0.140005 11.3215 -0.140005C11.3075 -0.140005 11.2935 -0.140005 11.2794 -0.140005C11.2654 -0.140005 11.2513 -0.140005 11.2373 -0.140005C11.2233 -0.140005 11.2092 -0.140005 11.1952 -0.140005C11.1811 -0.140005 11.1671 -0.140005 11.1531 -0.140005C11.139 -0.140005 11.125 -0.140005 11.1109 -0.140005C11.0969 -0.140005 11.0828 -0.140005 11.0688 -0.140005C11.0548 -0.140005 11.0407 -0.140005 11.0267 -0.140005C11.0126 -0.140005 10.9986 -0.140005 10.9845 -0.140005C10.9705 -0.140005 10.9564 -0.140005 10.9424 -0.140005C10.9284 -0.140005 10.9143 -0.140005 10.9003 -0.140005C10.8862 -0.140005 10.8722 -0.140005 10.8581 -0.140005C10.8441 -0.140005 10.83 -0.140005 10.816 -0.140005C10.8019 -0.140005 10.7879 -0.140005 10.7738 -0.140005C10.7598 -0.140005 10.7457 -0.140005 10.7317 -0.140005C10.7176 -0.140005 10.7036 -0.140005 10.6895 -0.140005C10.6755 -0.140005 10.6614 -0.140005 10.6474 -0.140005C10.6333 -0.140005 10.6193 -0.140005 10.6052 -0.140005C10.5912 -0.140005 10.5771 -0.140005 10.5631 -0.140005C10.549 -0.140005 10.535 -0.140005 10.5209 -0.140005C10.5069 -0.140005 10.4928 -0.140005 10.4788 -0.140005C10.4647 -0.140005 10.4507 -0.140005 10.4366 -0.140005C10.4225 -0.140005 10.4085 -0.140005 10.3944 -0.140005C10.3804 -0.140005 10.3663 -0.140005 10.3523 -0.140005C10.3382 -0.140005 10.3242 -0.140005 10.3101 -0.140005C10.296 -0.140005 10.282 -0.140005 10.2679 -0.140005C10.2539 -0.140005 10.2398 -0.140005 10.2258 -0.140005C10.2117 -0.140005 10.1976 -0.140005 10.1836 -0.140005C10.1695 -0.140005 10.1555 -0.140005 10.1414 -0.140005C10.1273 -0.140005 10.1133 -0.140005 10.0992 -0.140005C10.0852 -0.140005 10.0711 -0.140005 10.057 -0.140005C10.043 -0.140005 10.0289 -0.140005 10.0149 -0.140005C10.0008 -0.140005 9.98674 -0.140005 9.97268 -0.140005C9.95862 -0.140005 9.94456 -0.140005 9.93049 -0.140005C9.91643 -0.140005 9.90237 -0.140005 9.8883 -0.140005C9.87424 -0.140005 9.86018 -0.140005 9.84611 -0.140005C9.83205 -0.140005 9.81798 -0.140005 9.80392 -0.140005C9.78985 -0.140005 9.77579 -0.140005 9.76172 -0.140005C9.74766 -0.140005 9.73359 -0.140005 9.71952 -0.140005C9.70546 -0.140005 9.69139 -0.140005 9.67732 -0.140005C9.66326 -0.140005 9.64919 -0.140005 9.63512 -0.140005C9.62105 -0.140005 9.60699 -0.140005 9.59292 -0.140005C9.57885 -0.140005 9.56478 -0.140005 9.55071 -0.140005C9.53664 -0.140005 9.52257 -0.140005 9.5085 -0.140005C9.49443 -0.140005 9.48036 -0.140005 9.46629 -0.140005C9.45222 -0.140005 9.43815 -0.140005 9.42408 -0.140005C9.41001 -0.140005 9.39594 -0.140005 9.38186 -0.140005C9.36779 -0.140005 9.35372 -0.140005 9.33965 -0.140005C9.32557 -0.140005 9.3115 -0.140005 9.29743 -0.140005C9.28335 -0.140005 9.26928 -0.140005 9.2552 -0.140005C9.24113 -0.140005 9.22705 -0.140005 9.21298 -0.140005C9.19891 -0.140005 9.18483 -0.140005 9.17076 -0.140005C9.15668 -0.140005 9.1426 -0.140005 9.12853 -0.140005C9.11445 -0.140005 9.10037 -0.140005 9.0863 -0.140005C9.07222 -0.140005 9.05814 -0.140005 9.04406 -0.140005C9.02999 -0.140005 9.01591 -0.140005 9.00183 -0.140005C8.98775 -0.140005 8.97367 -0.140005 8.95959 -0.140005C8.94551 -0.140005 8.93143 -0.140005 8.91735 -0.140005C8.90327 -0.140005 8.88919 -0.140005 8.87511 -0.140005C8.86103 -0.140005 8.84695 -0.140005 8.83287 -0.140005C8.81879 -0.140005 8.80471 -0.140005 8.79063 -0.140005C8.77654 -0.140005 8.76246 -0.140005 8.74838 -0.140005C8.7343 -0.140005 8.72021 -0.140005 8.70613 -0.140005C8.69205 -0.140005 8.67796 -0.140005 8.66388 -0.140005C8.64979 -0.140005 8.63571 -0.140005 8.62162 -0.140005C8.60754 -0.140005 8.59345 -0.140005 8.57937 -0.140005C8.56528 -0.140005 8.5512 -0.140005 8.53711 -0.140005C8.52303 -0.140005 8.50894 -0.140005 8.49485 -0.140005C8.48076 -0.140005 8.46668 -0.140005 8.45259 -0.140005C8.4385 -0.140005 8.42441 -0.140005 8.41032 -0.140005C8.39624 -0.140005 8.38215 -0.140005 8.36806 -0.140005C8.35397 -0.140005 8.33988 -0.140005 8.32579 -0.140005C8.3117 -0.140005 8.29761 -0.140005 8.28352 -0.140005C8.26943 -0.140005 8.25534 -0.140005 8.24125 -0.140005C8.22716 -0.140005 8.21306 -0.140005 8.19897 -0.140005C8.18488 -0.140005 8.17079 -0.140005 8.15669 -0.140005C8.1426 -0.140005 8.12851 -0.140005 8.11442 -0.140005C8.10032 -0.140005 8.08623 -0.140005 8.07213 -0.140005C8.05804 -0.140005 8.04395 -0.140005 8.02985 -0.140005C8.01575 -0.140005 8.00166 -0.140005 7.98756 -0.140005C7.97347 -0.140005 7.95937 -0.140005 7.94528 -0.140005C7.93118 -0.140005 7.91708 -0.140005 7.90299 -0.140005C7.88889 -0.140005 7.87479 -0.140005 7.86069 -0.140005C7.8466 -0.140005 7.8325 -0.140005 7.8184 -0.140005C7.8043 -0.140005 7.7902 -0.140005 7.7761 -0.140005C7.762 -0.140005 7.74791 -0.140005 7.73381 -0.140005C7.71971 -0.140005 7.70561 -0.140005 7.69151 -0.140005C7.6774 -0.140005 7.6633 -0.140005 7.6492 -0.140005C7.6351 -0.140005 7.621 -0.140005 7.6069 -0.140005C7.5928 -0.140005 7.57869 -0.140005 7.56459 -0.140005C7.55049 -0.140005 7.53638 -0.140005 7.52228 -0.140005C7.50818 -0.140005 7.49408 -0.140005 7.47997 -0.140005C7.46587 -0.140005 7.45176 -0.140005 7.43766 -0.140005C7.42355 -0.140005 7.40945 -0.140005 7.39534 -0.140005C7.38124 -0.140005 7.36713 -0.140005 7.35302 -0.140005C7.33892 -0.140005 7.32481 -0.140005 7.31071 -0.140005C7.2966 -0.140005 7.28249 -0.140005 7.26838 -0.140005C7.25427 -0.140005 7.24017 -0.140005 7.22606 -0.140005C7.21195 -0.140005 7.19784 -0.140005 7.18373 -0.140005C7.16962 -0.140005 7.15551 -0.140005 7.1414 -0.140005C7.12729 -0.140005 7.11318 -0.140005 7.09907 -0.140005C7.08496 -0.140005 7.07085 -0.140005 7.05674 -0.140005C7.04263 -0.140005 7.02852 -0.140005 7.01441 -0.140005C7.00029 -0.140005 6.98618 -0.140005 6.97207 -0.140005C6.95796 -0.140005 6.94384 -0.140005 6.92973 -0.140005C6.91562 -0.140005 6.9015 -0.140005 6.88739 -0.140005C6.87328 -0.140005 6.85916 -0.140005 6.84505 -0.140005C6.83093 -0.140005 6.81682 -0.140005 6.8027 -0.140005C6.78859 -0.140005 6.77447 -0.140005 6.76035 -0.140005C6.74624 -0.140005 6.73212 -0.140005 6.718 -0.140005C6.70389 -0.140005 6.68977 -0.140005 6.67565 -0.140005C6.66153 -0.140005 6.64742 -0.140005 6.6333 -0.140005C6.61918 -0.140005 6.60506 -0.140005 6.59094 -0.140005C6.57682 -0.140005 6.5627 -0.140005 6.54858 -0.140005C6.53446 -0.140005 6.52034 -0.140005 6.50622 -0.140005C6.4921 -0.140005 6.47798 -0.140005 6.46386 -0.140005C6.44974 -0.140005 6.43562 -0.140005 6.4215 -0.140005C6.40737 -0.140005 6.39325 -0.140005 6.37913 -0.140005C6.36501 -0.140005 6.35088 -0.140005 6.33676 -0.140005C6.32264 -0.140005 6.30851 -0.140005 6.29439 -0.140005C6.28026 -0.140005 6.26614 -0.140005 6.25202 -0.140005C6.23789 -0.140005 6.22377 -0.140005 6.20964 -0.140005C6.19551 -0.140005 6.18139 -0.140005 6.16726 -0.140005C6.15314 -0.140005 6.13901 -0.140005 6.12488 -0.140005C6.11076 -0.140005 6.09663 -0.140005 6.0825 -0.140005C6.06837 -0.140005 6.05424 -0.140005 6.04012 -0.140005C6.02599 -0.140005 6.01186 -0.140005 5.99773 -0.140005C5.9836 -0.140005 5.96947 -0.140005 5.95534 -0.140005C5.94121 -0.140005 5.92708 -0.140005 5.91295 -0.140005C5.89882 -0.140005 5.88469 -0.140005 5.87056 -0.140005C5.85643 -0.140005 5.8423 -0.140005 5.82817 -0.140005C5.81403 -0.140005 5.7999 -0.140005 5.78577 -0.140005C5.77164 -0.140005 5.7575 -0.140005 5.74337 -0.140005C5.72924 -0.140005 5.7151 -0.140005 5.70097 -0.140005C5.68684 -0.140005 5.6727 -0.140005 5.65857 -0.140005C5.64443 -0.140005 5.6303 -0.140005 5.61616 -0.140005C5.60203 -0.140005 5.58789 -0.140005 5.57375 -0.140005C5.55962 -0.140005 5.54548 -0.140005 5.53134 -0.140005C5.51721 -0.140005 5.50307 -0.140005 5.48893 -0.140005C5.47479 -0.140005 5.46066 -0.140005 5.44652 -0.140005C5.43238 -0.140005 5.41824 -0.140005 5.4041 -0.140005C5.38996 -0.140005 5.37582 -0.140005 5.36168 -0.140005C5.34754 -0.140005 5.3334 -0.140005 5.31926 -0.140005C5.30512 -0.140005 5.29098 -0.140005 5.27684 -0.140005C5.2627 -0.140005 5.24856 -0.140005 5.23442 -0.140005C5.22028 -0.140005 5.20613 -0.140005 5.19199 -0.140005C5.17785 -0.140005 5.16371 -0.140005 5.14956 -0.140005C5.13542 -0.140005 5.12127 -0.140005 5.10713 -0.140005C5.09299 -0.140005 5.07884 -0.140005 5.0647 -0.140005C5.05055 -0.140005 5.03641 -0.140005 5.02226 -0.140005C5.00812 -0.140005 4.99397 -0.140005 4.97983 -0.140005C4.96568 -0.140005 4.95153 -0.140005 4.93739 -0.140005C4.92324 -0.140005 4.90909 -0.140005 4.89495 -0.140005C4.8808 -0.140005 4.86665 -0.140005 4.8525 -0.140005C4.83835 -0.140005 4.8242 -0.140005 4.81006 -0.140005C4.79591 -0.140005 4.78176 -0.140005 4.76761 -0.140005C4.75346 -0.140005 4.73931 -0.140005 4.72516 -0.140005C4.71101 -0.140005 4.69686 -0.140005 4.6827 -0.140005C4.66855 -0.140005 4.6544 -0.140005 4.64025 -0.140005C4.6261 -0.140005 4.61195 -0.140005 4.59779 -0.140005C4.58364 -0.140005 4.56949 -0.140005 4.55534 -0.140005C4.54118 -0.140005 4.52703 -0.140005 4.51287 -0.140005C4.49872 -0.140005 4.48457 -0.140005 4.47041 -0.140005C4.45626 -0.140005 4.4421 -0.140005 4.42795 -0.140005C4.41379 -0.140005 4.39964 -0.140005 4.38548 -0.140005C4.37132 -0.140005 4.35717 -0.140005 4.34301 -0.140005C4.32885 -0.140005 4.3147 -0.140005 4.30054 -0.140005C4.28638 -0.140005 4.27222 -0.140005 4.25807 -0.140005C4.24391 -0.140005 4.22975 -0.140005 4.21559 -0.140005C4.20143 -0.140005 4.18727 -0.140005 4.17311 -0.140005C4.15895 -0.140005 4.14479 -0.140005 4.13063 -0.140005C4.11647 -0.140005 4.10231 -0.140005 4.08815 -0.140005C4.07399 -0.140005 4.05983 -0.140005 4.04566 -0.140005C4.0315 -0.140005 4.01734 -0.140005 4.00318 -0.140005C3.98902 -0.140005 3.97485 -0.140005 3.96069 -0.140005C3.94653 -0.140005 3.93236 -0.140005 3.9182 -0.140005C3.90404 -0.140005 3.88987 -0.140005 3.87571 -0.140005C3.86154 -0.140005 3.84738 -0.140005 3.83321 -0.140005C3.81905 -0.140005 3.80488 -0.140005 3.79071 -0.140005C3.77655 -0.140005 3.76238 -0.140005 3.74822 -0.140005C3.73405 -0.140005 3.71988 -0.140005 3.70571 -0.140005C3.69155 -0.140005 3.67738 -0.140005 3.66321 -0.140005C3.64904 -0.140005 3.63487 -0.140005 3.6207 -0.140005C3.60654 -0.140005 3.59237 -0.140005 3.5782 -0.140005C3.56403 -0.140005 3.54986 -0.140005 3.53569 -0.140005C3.52152 -0.140005 3.50735 -0.140005 3.49317 -0.140005C3.479 -0.140005 3.46483 -0.140005 3.45066 -0.140005C3.43649 -0.140005 3.42232 -0.140005 3.40814 -0.140005C3.39397 -0.140005 3.3798 -0.140005 3.36563 -0.140005C3.35145 -0.140005 3.33728 -0.140005 3.32311 -0.140005C3.30893 -0.140005 3.29476 -0.140005 3.28058 -0.140005C3.26641 -0.140005 3.25223 -0.140005 3.23806 -0.140005C3.22388 -0.140005 3.20971 -0.140005 3.19553 -0.140005C3.18135 -0.140005 3.16718 -0.140005 3.153 -0.140005C3.13882 -0.140005 3.12465 -0.140005 3.11047 -0.140005C3.09629 -0.140005 3.08212 -0.140005 3.06794 -0.140005C3.05376 -0.140005 3.03958 -0.140005 3.0254 -0.140005C3.01122 -0.140005 2.99704 -0.140005 2.98286 -0.140005C2.96868 -0.140005 2.9545 -0.140005 2.94032 -0.140005C2.92614 -0.140005 2.91196 -0.140005 2.89778 -0.140005C2.8836 -0.140005 2.86942 -0.140005 2.85524 -0.140005C2.84106 -0.140005 2.82687 -0.140005 2.81269 -0.140005C2.79851 -0.140005 2.78433 -0.140005 2.77014 -0.140005C2.75596 -0.140005 2.74178 -0.140005 2.72759 -0.140005C2.71341 -0.140005 2.69922 -0.140005 2.68504 -0.140005C2.67086 -0.140005 2.65667 -0.140005 2.64249 -0.140005C2.6283 -0.140005 2.61411 -0.140005 2.59993 -0.140005C2.58574 -0.140005 2.57156 -0.140005 2.55737 -0.140005C2.54318 -0.140005 2.529 -0.140005 2.51481 -0.140005C2.50062 -0.140005 2.48643 -0.140005 2.47224 -0.140005C2.45806 -0.140005 2.44387 -0.140005 2.42968 -0.140005C2.41549 -0.140005 2.4013 -0.140005 2.38711 -0.140005C2.37292 -0.140005 2.35873 -0.140005 2.34454 -0.140005C2.33035 -0.140005 2.31616 -0.140005 2.30197 -0.140005C2.28778 -0.140005 2.27359 -0.140005 2.2594 -0.140005C2.2452 -0.140005 2.23101 -0.140005 2.21682 -0.140005C2.20263 -0.140005 2.18843 -0.140005 2.17424 -0.140005C2.16005 -0.140005 2.14585 -0.140005 2.13166 -0.140005C2.11747 -0.140005 2.10327 -0.140005 2.08908 -0.140005C2.07488 -0.140005 2.06069 -0.140005 2.04649 -0.140005C2.0323 -0.140005 2.0181 -0.140005 2.00391 -0.140005C1.98971 -0.140005 1.97551 -0.140005 1.96132 -0.140005C1.94712 -0.140005 1.93292 -0.140005 1.91873 -0.140005C1.90453 -0.140005 1.89033 -0.140005 1.87613 -0.140005C1.86194 -0.140005 1.84774 -0.140005 1.83354 -0.140005C1.81934 -0.140005 1.80514 -0.140005 1.79094 -0.140005C1.77674 -0.140005 1.76254 -0.140005 1.74834 -0.140005C1.73414 -0.140005 1.71994 -0.140005 1.70574 -0.140005C1.69154 -0.140005 1.67734 -0.140005 1.66314 -0.140005C1.64893 -0.140005 1.63473 -0.140005 1.62053 -0.140005C1.60633 -0.140005 1.59212 -0.140005 1.57792 -0.140005C1.56372 -0.140005 1.54951 -0.140005 1.53531 -0.140005C1.52111 -0.140005 1.5069 -0.140005 1.4927 -0.140005C1.47849 -0.140005 1.46429 -0.140005 1.45008 -0.140005C1.43588 -0.140005 1.42167 -0.140005 1.40747 -0.140005C1.39326 -0.140005 1.37906 -0.140005 1.36485 -0.140005C1.35064 -0.140005 1.33643 -0.140005 1.32223 -0.140005C1.30802 -0.140005 1.29381 -0.140005 1.2796 -0.140005C1.2654 -0.140005 1.25119 -0.140005 1.23698 -0.140005C1.22277 -0.140005 1.20856 -0.140005 1.19435 -0.140005C1.18014 -0.140005 1.16593 -0.140005 1.15172 -0.140005C1.13751 -0.140005 1.1233 -0.140005 1.10909 -0.140005C1.09488 -0.140005 1.08067 -0.140005 1.06646 -0.140005C1.05225 -0.140005 1.03803 -0.140005 1.02382 -0.140005C1.00961 -0.140005 0.995396 -0.140005 0.981182 -0.140005C0.966969 -0.140005 0.952756 -0.140005 0.938542 -0.140005C0.924329 -0.140005 0.910114 -0.140005 0.8959 -0.140005C0.881685 -0.140005 0.867471 -0.140005 0.853255 -0.140005C0.83904 -0.140005 0.824824 -0.140005 0.810609 -0.140005C0.796392 -0.140005 0.782176 -0.140005 0.76796 -0.140005C0.753743 -0.140005 0.739526 -0.140005 0.725309 -0.140005C0.711092 -0.140005 0.696874 -0.140005 0.682656 -0.140005C0.668438 -0.140005 0.65422 -0.140005 0.64 -0.140005V3.86ZM22.226 3.85983C29.3952 3.76672 36.6113 3.76672 43.8744 3.85983L43.9256 -0.139841C36.6287 -0.23339 29.3781 -0.233395 22.174 -0.139836L22.226 3.85983ZM43.9 3.86C49.5367 3.86 54.3582 4.88829 58.4209 6.87643L60.1791 3.28356C55.4685 0.978369 50.0234 -0.140005 43.9 -0.140005V3.86ZM58.4667 6.89812C62.7024 8.8395 66.1417 11.4195 68.827 14.6244L71.893 12.0556C68.7916 8.35387 64.8576 5.42716 60.1333 3.26187L58.4667 6.89812ZM68.8473 14.6483C71.6493 17.8882 73.7105 21.6109 75.0311 25.8365L78.849 24.6434C77.3695 19.909 75.044 15.6985 71.8727 12.0317L68.8473 14.6483ZM75.0467 25.8845C76.466 30.0536 77.1289 34.3018 77.0404 38.6392L81.0396 38.7208C81.1377 33.9115 80.4007 29.1997 78.8333 24.5955L75.0467 25.8845ZM77.04 38.68C77.04 42.933 76.332 47.0977 74.911 51.183L78.689 52.497C80.2547 47.9956 81.04 43.387 81.04 38.68H77.04ZM74.911 51.183C73.5028 55.2316 71.3957 58.8294 68.5852 61.9913L71.5748 64.6487C74.7376 61.0906 77.1105 57.0351 78.689 52.497L74.911 51.183ZM68.5645 62.0149C65.8719 65.1418 62.4668 67.6839 58.3121 69.6286L60.0079 73.2514C64.6265 71.0895 68.5014 68.2182 71.5955 64.625L68.5645 62.0149ZM58.3121 69.6286C54.2375 71.5359 49.4499 72.52 43.9 72.52V76.52C49.9234 76.52 55.3092 75.4508 60.0079 73.2514L58.3121 69.6286ZM43.9 72.52H26.26V76.52H43.9V72.52ZM24.26 74.52V99.86H28.26V74.52H24.26ZM26.26 97.86H0.64V101.86H26.26V97.86ZM43.9 54.26C45.9309 54.26 47.8059 53.7467 49.4615 52.6824L47.2985 49.3176C46.3408 49.9333 45.2291 50.26 43.9 50.26V54.26ZM49.4615 52.6824C50.9887 51.7006 52.2918 50.4484 53.3675 48.9425L50.1125 46.6175C49.3215 47.7249 48.3847 48.6194 47.2985 49.3176L49.4615 52.6824ZM53.3675 48.9425C54.4477 47.4302 55.2433 45.7209 55.767 43.8353L51.913 42.7647C51.5034 44.2391 50.899 45.5165 50.1125 46.6175L53.3675 48.9425ZM55.7742 43.809C56.283 41.8752 56.54 39.9309 56.54 37.98H52.54C52.54 39.5758 52.3303 41.1781 51.9059 42.791L55.7742 43.809ZM56.54 37.98C56.54 36.0294 56.2831 34.1583 55.7587 32.3757L51.9213 33.5043C52.3303 34.895 52.54 36.3839 52.54 37.98H56.54ZM55.767 32.4047C55.2433 30.5191 54.4477 28.8098 53.3675 27.2975L50.1125 29.6225C50.899 30.7235 51.5034 32.0009 51.913 33.4753L55.767 32.4047ZM53.4224 27.3785C52.4142 25.8102 51.1075 24.555 49.5123 23.6435L47.5277 27.1165C48.5459 27.6983 49.3858 28.4965 50.0576 29.5415L53.4224 27.3785ZM49.6015 23.6976C47.9284 22.622 46.0011 22.12 43.9 22.12V26.12C45.3456 26.12 46.4983 26.4579 47.4385 27.0623L49.6015 23.6976ZM43.9 22.12H25.84V26.12H43.9V22.12ZM23.84 24.12V52.26H27.84V24.12H23.84ZM25.84 54.26H43.9V50.26H25.84V54.26ZM156.628 24.26V26.26H158.628V24.26H156.628ZM121.068 24.26V22.26H119.068V24.26H121.068ZM121.068 38.26H119.068V40.26H121.068V38.26ZM153.828 38.26H155.828V36.26H153.828V38.26ZM153.828 60.66V62.66H155.828V60.66H153.828ZM121.068 60.66V58.66H119.068V60.66H121.068ZM121.068 76.62H119.068V78.62H121.068V76.62ZM157.888 76.62H159.888V74.62H157.888V76.62ZM157.888 100V102H159.888V100H157.888ZM95.4484 100H93.4484V102H95.4484V100ZM95.4484 1.99999V-6.67572e-06H93.4484V1.99999H95.4484ZM156.628 1.99999H158.628V-6.67572e-06H156.628V1.99999ZM156.628 22.26H121.068V26.26H156.628V22.26ZM119.068 24.26V38.26H123.068V24.26H119.068ZM121.068 40.26H153.828V36.26H121.068V40.26ZM151.828 38.26V60.66H155.828V38.26H151.828ZM153.828 58.66H121.068V62.66H153.828V58.66ZM119.068 60.66V76.62H123.068V60.66H119.068ZM121.068 78.62H157.888V74.62H121.068V78.62ZM155.888 76.62V100H159.888V76.62H155.888ZM157.888 98H95.4484V102H157.888V98ZM97.4484 100V1.99999H93.4484V100H97.4484ZM95.4484 3.99999H156.628V-6.67572e-06H95.4484V3.99999ZM154.628 1.99999V24.26H158.628V1.99999H154.628ZM198.526 87.82V85.82H197.244L196.708 86.9845L198.526 87.82ZM192.926 100V102H194.207L194.743 100.835L192.926 100ZM166.186 100H164.186V102H166.186V100ZM166.186 96.5L164.376 95.6483L164.186 96.0528V96.5H166.186ZM211.126 1.02V-0.980002H209.857L209.316 0.168276L211.126 1.02ZM222.886 1.02L224.698 0.174809L224.16 -0.980002H222.886V1.02ZM267.406 96.5H269.406V96.0566L269.218 95.6548L267.406 96.5ZM267.406 100V102H269.406V100H267.406ZM240.946 100L239.136 100.853L239.677 102H240.946V100ZM235.206 87.82L237.015 86.9674L236.474 85.82H235.206V87.82ZM206.786 66.4L204.946 65.6161L203.76 68.4H206.786V66.4ZM227.086 66.4V68.4H230.128L228.922 65.6069L227.086 66.4ZM216.866 42.74L218.702 41.9469L216.853 37.667L215.026 41.9561L216.866 42.74ZM196.708 86.9845L191.108 99.1645L194.743 100.835L200.343 88.6555L196.708 86.9845ZM192.926 98H166.186V102H192.926V98ZM168.186 100V96.5H164.186V100H168.186ZM167.995 97.3517L212.935 1.87172L209.316 0.168276L164.376 95.6483L167.995 97.3517ZM211.126 3.02H222.886V-0.980002H211.126V3.02ZM221.073 1.86519L265.593 97.3452L269.218 95.6548L224.698 0.174809L221.073 1.86519ZM265.406 96.5V100H269.406V96.5H265.406ZM267.406 98H240.946V102H267.406V98ZM242.755 99.1474L237.015 86.9674L233.396 88.6726L239.136 100.853L242.755 99.1474ZM235.206 85.82H198.526V89.82H235.206V85.82ZM206.786 68.4H227.086V64.4H206.786V68.4ZM228.922 65.6069L218.702 41.9469L215.03 43.5331L225.25 67.1931L228.922 65.6069ZM215.026 41.9561L204.946 65.6161L208.626 67.1839L218.706 43.5239L215.026 41.9561ZM310.693 69.76L312.685 69.9434L312.685 69.9355L312.686 69.9276L310.693 69.76ZM307.333 86.98L309.209 87.6733L309.214 87.6603L307.333 86.98ZM300.333 96.78L301.477 98.4208L301.493 98.4093L301.509 98.3975L300.333 96.78ZM288.433 100.42L288.318 98.4233L288.299 98.4244L288.28 98.4259L288.433 100.42ZM270.653 99.44L268.653 99.3942L268.613 101.162L270.363 101.419L270.653 99.44ZM271.073 81.1L271.272 79.1099L269.123 78.895L269.073 81.0542L271.073 81.1ZM277.793 81.1L277.481 79.1245L277.473 79.1258L277.464 79.1272L277.793 81.1ZM281.853 79.28L280.508 77.8001L280.472 77.8321L280.439 77.8658L281.853 79.28ZM284.093 75.36L286.02 75.8953L284.093 75.36ZM285.213 68.92L287.202 69.1331L287.203 69.1239L285.213 68.92ZM292.073 1.99999V-6.67572e-06H290.268L290.083 1.79604L292.073 1.99999ZM361.233 1.99999H363.233V-6.67572e-06H361.233V1.99999ZM361.233 100V102H363.233V100H361.233ZM335.753 100H333.753V102H335.753V100ZM335.753 24.82H337.753V22.82H335.753V24.82ZM314.473 24.82V22.82H312.634L312.48 24.6524L314.473 24.82ZM308.701 69.5766C308.056 76.5793 306.959 82.1339 305.452 86.2997L309.214 87.6603C310.88 83.0528 312.023 77.1273 312.685 69.9434L308.701 69.5766ZM305.457 86.2867C303.979 90.2855 301.858 93.1982 299.157 95.1625L301.509 98.3975C304.968 95.8818 307.513 92.2612 309.209 87.6733L305.457 86.2867ZM299.189 95.1392C296.49 97.0206 292.909 98.1584 288.318 98.4233L288.548 102.417C293.664 102.122 298.016 100.833 301.477 98.4208L299.189 95.1392ZM288.28 98.4259C283.624 98.784 277.856 98.4751 270.943 97.4612L270.363 101.419C277.45 102.458 283.535 102.803 288.586 102.414L288.28 98.4259ZM272.652 99.4858L273.072 81.1458L269.073 81.0542L268.653 99.3942L272.652 99.4858ZM270.874 83.0901C273.751 83.3778 276.191 83.3946 278.122 83.0728L277.464 79.1272C276.035 79.3654 273.994 79.3822 271.272 79.1099L270.874 83.0901ZM278.105 83.0755C280.148 82.7529 281.944 82.0172 283.267 80.6942L280.439 77.8658C279.895 78.4095 278.985 78.8871 277.481 79.1245L278.105 83.0755ZM283.198 80.7599C284.568 79.5151 285.478 77.846 286.02 75.8953L282.166 74.8247C281.774 76.234 281.192 77.1783 280.508 77.8001L283.198 80.7599ZM286.02 75.8953C286.527 74.0712 286.915 71.8065 287.202 69.1331L283.224 68.7069C282.951 71.2601 282.593 73.2888 282.166 74.8247L286.02 75.8953ZM287.203 69.1239L294.063 2.20395L290.083 1.79604L283.223 68.716L287.203 69.1239ZM292.073 3.99999H361.233V-6.67572e-06H292.073V3.99999ZM359.233 1.99999V100H363.233V1.99999H359.233ZM361.233 98H335.753V102H361.233V98ZM337.753 100V24.82H333.753V100H337.753ZM335.753 22.82H314.473V26.82H335.753V22.82ZM312.48 24.6524L308.7 69.5924L312.686 69.9276L316.466 24.9876L312.48 24.6524ZM392.639 100.28V102.28H393.459L394.043 101.704L392.639 100.28ZM385.079 100.28H383.079V102.28H385.079V100.28ZM385.079 1.99999V-6.67572e-06H383.079V1.99999H385.079ZM410.699 1.99999H412.699V-6.67572e-06H410.699V1.99999ZM410.699 49.88H408.699V54.5224L412.073 51.3335L410.699 49.88ZM461.799 1.58V-0.420001H461.003L460.425 0.126525L461.799 1.58ZM469.779 1.58H471.779V-0.420001H469.779V1.58ZM469.779 100V102H471.779V100H469.779ZM444.159 100H442.159V102H444.159V100ZM444.159 49.46H446.159V44.6779L442.754 48.0361L444.159 49.46ZM392.639 98.28H385.079V102.28H392.639V98.28ZM387.079 100.28V1.99999H383.079V100.28H387.079ZM385.079 3.99999H410.699V-6.67572e-06H385.079V3.99999ZM408.699 1.99999V49.88H412.699V1.99999H408.699ZM412.073 51.3335L463.173 3.03347L460.425 0.126525L409.325 48.4265L412.073 51.3335ZM461.799 3.58H469.779V-0.420001H461.799V3.58ZM467.779 1.58V100H471.779V1.58H467.779ZM469.779 98H444.159V102H469.779V98ZM446.159 100V49.46H442.159V100H446.159ZM442.754 48.0361L391.234 98.8561L394.043 101.704L445.563 50.8839L442.754 48.0361ZM490.622 26.78L488.624 26.8616L488.702 28.78H490.622V26.78ZM492.723 15.02L490.934 14.1256L490.928 14.1358L490.923 14.1462L492.723 15.02ZM499.582 6.76L500.774 8.36622L500.783 8.36L499.582 6.76ZM509.943 1.86L510.449 3.79474L510.471 3.78913L510.492 3.78304L509.943 1.86ZM536.542 2.69999L535.77 4.54487L535.796 4.55559L535.822 4.56559L536.542 2.69999ZM546.763 9.13999L545.348 10.5542L545.373 10.5786L545.398 10.6021L546.763 9.13999ZM553.062 18.24L551.209 18.9914L551.213 19.0003L551.216 19.0092L553.062 18.24ZM552.922 38.54L551.095 37.7277L551.085 37.7491L551.076 37.7708L552.922 38.54ZM546.482 46.8L545.291 45.1938L542.76 47.0712L545.536 48.562L546.482 46.8ZM558.383 83.2L560.223 83.9823V83.9823L558.383 83.2ZM551.242 93L552.54 94.5217L552.553 94.5108L552.566 94.4997L551.242 93ZM539.343 99.44L539.975 101.337L539.343 99.44ZM507.843 99.72L507.185 101.609L507.21 101.617L507.234 101.625L507.843 99.72ZM496.783 93.28L495.413 94.7377L495.425 94.7489L495.437 94.7599L496.783 93.28ZM489.642 82.64L487.786 83.3828L489.642 82.64ZM487.122 68.08V66.08H485.122V68.08H487.122ZM509.383 68.08H511.383V66.08H509.383V68.08ZM513.162 77.32L511.834 78.8148L511.847 78.8268L511.861 78.8385L513.162 77.32ZM532.062 77.18L530.591 75.8259L530.576 75.8421L530.561 75.8587L532.062 77.18ZM534.443 65.42L532.559 66.0927L532.58 66.151L532.604 66.2078L534.443 65.42ZM532.062 61.92L530.648 63.3342L530.679 63.3649L530.711 63.3943L532.062 61.92ZM528.143 59.4L528.904 57.5506L528.143 59.4ZM514.982 58.42H512.982V60.42H514.982V58.42ZM514.982 37.98V35.98H512.982V37.98H514.982ZM529.403 35.18L530.926 36.4753L529.403 35.18ZM528.982 22.72L530.278 21.1961V21.1961L528.982 22.72ZM515.963 22.02L514.97 20.2835L514.952 20.2941L514.934 20.305L515.963 22.02ZM513.162 26.78V28.78H515.162V26.78H513.162ZM492.621 26.6984C492.444 22.371 493.112 18.7958 494.522 15.8938L490.923 14.1462C489.16 17.7775 488.427 22.0424 488.624 26.8616L492.621 26.6984ZM494.511 15.9144C496.057 12.8229 498.144 10.3177 500.774 8.36619L498.391 5.1538C495.234 7.49563 492.748 10.4971 490.934 14.1256L494.511 15.9144ZM500.783 8.36C503.545 6.28825 506.758 4.76142 510.449 3.79474L509.436 -0.0747495C505.287 1.0119 501.594 2.75174 498.383 5.16L500.783 8.36ZM510.492 3.78304C514.22 2.71782 518.188 2.17999 522.403 2.17999V-1.82001C517.844 -1.82001 513.505 -1.23783 509.393 -0.0630524L510.492 3.78304ZM522.403 2.17999C527.613 2.17999 532.053 2.98897 535.77 4.54487L537.315 0.855111C533.005 -0.948982 528.018 -1.82001 522.403 -1.82001V2.17999ZM535.822 4.56559C539.707 6.06678 542.866 8.07215 545.348 10.5542L548.177 7.72578C545.245 4.79451 541.591 2.50654 537.263 0.834397L535.822 4.56559ZM545.398 10.6021C547.991 13.0226 549.921 15.8153 551.209 18.9914L554.916 17.4886C553.404 13.758 551.134 10.484 548.127 7.67788L545.398 10.6021ZM551.216 19.0092C552.518 22.132 553.163 25.3244 553.163 28.6H557.163C557.163 24.7823 556.407 21.0679 554.909 17.4708L551.216 19.0092ZM553.163 28.6C553.163 31.5537 552.489 34.5913 551.095 37.7277L554.75 39.3523C556.343 35.7687 557.163 32.1797 557.163 28.6H553.163ZM551.076 37.7708C549.814 40.8015 547.891 43.2643 545.291 45.1938L547.674 48.4062C550.86 46.0423 553.231 42.9985 554.769 39.3092L551.076 37.7708ZM545.536 48.562C550.333 51.1382 553.656 54.2144 555.666 57.7323L559.139 55.7477C556.669 51.4256 552.712 47.8751 547.429 45.038L545.536 48.562ZM555.666 57.7323C557.696 61.2855 558.763 65.6853 558.763 71.02H562.763C562.763 65.1547 561.589 60.0345 559.139 55.7477L555.666 57.7323ZM558.763 71.02C558.763 75.1599 558.015 78.9513 556.542 82.4177L560.223 83.9823C561.923 79.982 562.763 75.6534 562.763 71.02H558.763ZM556.542 82.4177C555.077 85.8643 552.879 88.8891 549.919 91.5003L552.566 94.4997C555.953 91.5109 558.515 88.0023 560.223 83.9823L556.542 82.4177ZM549.945 91.4783C547.002 93.988 543.274 96.0212 538.71 97.5426L539.975 101.337C544.931 99.6855 549.136 97.4253 552.54 94.5217L549.945 91.4783ZM538.71 97.5426C534.202 99.0452 528.825 99.82 522.542 99.82V103.82C529.14 103.82 534.963 103.008 539.975 101.337L538.71 97.5426ZM522.542 99.82C517.3 99.82 512.61 99.142 508.451 97.8147L507.234 101.625C511.849 103.098 516.958 103.82 522.542 103.82V99.82ZM508.5 97.831C504.437 96.418 500.991 94.4026 498.128 91.8001L495.437 94.7599C498.734 97.7573 502.661 100.035 507.185 101.609L508.5 97.831ZM498.152 91.8223C495.299 89.1427 493.079 85.8456 491.499 81.8972L487.786 83.3828C489.566 87.8344 492.106 91.6306 495.413 94.7377L498.152 91.8223ZM491.499 81.8972C489.932 77.9787 489.122 73.386 489.122 68.08H485.122C485.122 73.7873 485.993 78.9013 487.786 83.3828L491.499 81.8972ZM487.122 70.08H509.383V66.08H487.122V70.08ZM507.383 68.08C507.383 72.4689 508.816 76.1322 511.834 78.8148L514.491 75.8252C512.469 74.0278 511.383 71.5311 511.383 68.08H507.383ZM511.861 78.8385C514.859 81.4081 518.455 82.68 522.542 82.68V78.68C519.35 78.68 516.693 77.7119 514.464 75.8015L511.861 78.8385ZM522.542 82.68C527.182 82.68 531.003 81.412 533.564 78.5013L530.561 75.8587C529.016 77.6147 526.489 78.68 522.542 78.68V82.68ZM533.534 78.5341C535.972 75.8842 537.283 72.8488 537.283 69.48H533.283C533.283 71.7112 532.446 73.8092 530.591 75.8259L533.534 78.5341ZM537.283 69.48C537.283 67.8049 536.946 66.1838 536.281 64.6322L532.604 66.2078C533.059 67.2695 533.283 68.3551 533.283 69.48H537.283ZM536.326 64.7473C535.74 63.1057 534.751 61.671 533.414 60.4457L530.711 63.3943C531.614 64.2224 532.212 65.1209 532.559 66.0927L536.326 64.7473ZM533.477 60.5058C532.233 59.2617 530.691 58.2865 528.904 57.5506L527.381 61.2494C528.767 61.8201 529.839 62.525 530.648 63.3342L533.477 60.5058ZM528.904 57.5506C527.023 56.7763 524.887 56.42 522.542 56.42V60.42C524.491 60.42 526.088 60.717 527.381 61.2494L528.904 57.5506ZM522.542 56.42H514.982V60.42H522.542V56.42ZM516.982 58.42V37.98H512.982V58.42H516.982ZM514.982 39.98H522.263V35.98H514.982V39.98ZM522.263 39.98C525.837 39.98 528.854 38.9134 530.926 36.4753L527.879 33.8847C526.778 35.1799 525.035 35.98 522.263 35.98V39.98ZM530.926 36.4753C532.774 34.3012 533.783 31.8478 533.783 29.16H529.783C529.783 30.7655 529.204 32.3254 527.879 33.8847L530.926 36.4753ZM533.783 29.16C533.783 25.9359 532.642 23.2055 530.278 21.1961L527.687 24.2439C529.057 25.4078 529.783 26.9707 529.783 29.16H533.783ZM530.278 21.1961C528.038 19.2926 525.382 18.34 522.403 18.34V22.34C524.463 22.34 526.193 22.974 527.687 24.2439L530.278 21.1961ZM522.403 18.34C519.733 18.34 517.243 18.9849 514.97 20.2835L516.955 23.7565C518.602 22.8151 520.405 22.34 522.403 22.34V18.34ZM514.934 20.305C512.509 21.76 511.162 23.9742 511.162 26.78H515.162C515.162 25.4791 515.683 24.52 516.992 23.735L514.934 20.305ZM513.162 24.78H490.622V28.78H513.162V24.78ZM598.554 87.82V85.82H597.272L596.737 86.9845L598.554 87.82ZM592.954 100V102H594.235L594.771 100.835L592.954 100ZM566.214 100H564.214V102H566.214V100ZM566.214 96.5L564.404 95.6483L564.214 96.0528V96.5H566.214ZM611.154 1.02V-0.980002H609.885L609.344 0.168276L611.154 1.02ZM622.914 1.02L624.726 0.174809L624.188 -0.980002H622.914V1.02ZM667.434 96.5H669.434V96.0566L669.246 95.6548L667.434 96.5ZM667.434 100V102H669.434V100H667.434ZM640.974 100L639.165 100.853L639.705 102H640.974V100ZM635.234 87.82L637.043 86.9674L636.502 85.82H635.234V87.82ZM606.814 66.4L604.974 65.6161L603.788 68.4H606.814V66.4ZM627.114 66.4V68.4H630.156L628.95 65.6069L627.114 66.4ZM616.894 42.74L618.73 41.9469L616.881 37.667L615.054 41.9561L616.894 42.74ZM596.737 86.9845L591.137 99.1645L594.771 100.835L600.371 88.6555L596.737 86.9845ZM592.954 98H566.214V102H592.954V98ZM568.214 100V96.5H564.214V100H568.214ZM568.023 97.3517L612.963 1.87172L609.344 0.168276L564.404 95.6483L568.023 97.3517ZM611.154 3.02H622.914V-0.980002H611.154V3.02ZM621.101 1.86519L665.621 97.3452L669.246 95.6548L624.726 0.174809L621.101 1.86519ZM665.434 96.5V100H669.434V96.5H665.434ZM667.434 98H640.974V102H667.434V98ZM642.783 99.1474L637.043 86.9674L633.425 88.6726L639.165 100.853L642.783 99.1474ZM635.234 85.82H598.554V89.82H635.234V85.82ZM606.814 68.4H627.114V64.4H606.814V68.4ZM628.95 65.6069L618.73 41.9469L615.058 43.5331L625.278 67.1931L628.95 65.6069ZM615.054 41.9561L604.974 65.6161L608.654 67.1839L618.734 43.5239L615.054 41.9561ZM679.221 100H677.221V102H679.221V100ZM679.221 1.99999V-6.67572e-06H677.221V1.99999H679.221ZM704.841 1.99999H706.841V-6.67572e-06H704.841V1.99999ZM704.841 76.9H702.841V78.9H704.841V76.9ZM733.121 76.9V78.9H735.121V76.9H733.121ZM733.121 1.99999V-6.67572e-06H731.121V1.99999H733.121ZM758.881 1.99999H760.881V-6.67572e-06H758.881V1.99999ZM758.881 78.3H756.881V80.3H758.881V78.3ZM768.821 78.3H770.821V76.3H768.821V78.3ZM768.821 111.06V113.06H770.821V111.06H768.821ZM748.241 111.06H746.241V113.06H748.241V111.06ZM748.241 100H750.241V98H748.241V100ZM681.221 100V1.99999H677.221V100H681.221ZM679.221 3.99999H704.841V-6.67572e-06H679.221V3.99999ZM702.841 1.99999V76.9H706.841V1.99999H702.841ZM704.841 78.9H733.121V74.9H704.841V78.9ZM735.121 76.9V1.99999H731.121V76.9H735.121ZM733.121 3.99999H758.881V-6.67572e-06H733.121V3.99999ZM756.881 1.99999V78.3H760.881V1.99999H756.881ZM758.881 80.3H768.821V76.3H758.881V80.3ZM766.821 78.3V111.06H770.821V78.3H766.821ZM768.821 109.06H748.241V113.06H768.821V109.06ZM750.241 111.06V100H746.241V111.06H750.241ZM748.241 98H679.221V102H748.241V98ZM796.358 100.28V102.28H797.179L797.763 101.704L796.358 100.28ZM788.798 100.28H786.798V102.28H788.798V100.28ZM788.798 1.99999V-6.67572e-06H786.798V1.99999H788.798ZM814.418 1.99999H816.418V-6.67572e-06H814.418V1.99999ZM814.418 49.88H812.418V54.5224L815.792 51.3335L814.418 49.88ZM865.518 1.58V-0.420001H864.723L864.145 0.126525L865.518 1.58ZM873.498 1.58H875.498V-0.420001H873.498V1.58ZM873.498 100V102H875.498V100H873.498ZM847.878 100H845.878V102H847.878V100ZM847.878 49.46H849.878V44.6779L846.474 48.0361L847.878 49.46ZM796.358 98.28H788.798V102.28H796.358V98.28ZM790.798 100.28V1.99999H786.798V100.28H790.798ZM788.798 3.99999H814.418V-6.67572e-06H788.798V3.99999ZM812.418 1.99999V49.88H816.418V1.99999H812.418ZM815.792 51.3335L866.892 3.03347L864.145 0.126525L813.045 48.4265L815.792 51.3335ZM865.518 3.58H873.498V-0.420001H865.518V3.58ZM871.498 1.58V100H875.498V1.58H871.498ZM873.498 98H847.878V102H873.498V98ZM849.878 100V49.46H845.878V100H849.878ZM846.474 48.0361L794.954 98.8561L797.763 101.704L849.283 50.8839L846.474 48.0361ZM909.742 65.14L911.446 66.1869L912.45 64.5521L910.859 63.4808L909.742 65.14ZM898.822 52.68L897.001 53.5076L897.01 53.5277L897.02 53.5476L898.822 52.68ZM895.182 36.58H893.182V36.5967L893.182 36.6133L895.182 36.58ZM897.282 23.98L895.398 23.31L895.393 23.3223L895.389 23.3346L897.282 23.98ZM903.862 12.92L902.386 11.5705L902.384 11.5725L903.862 12.92ZM914.922 5.08L915.738 6.90601L915.747 6.90211L915.755 6.89812L914.922 5.08ZM973.582 1.99999H975.582V-6.67572e-06H973.582V1.99999ZM973.582 100V102H975.582V100H973.582ZM947.962 100H945.962V102H947.962V100ZM947.962 69.2H949.962V67.2H947.962V69.2ZM934.522 69.2V67.2H933.335L932.766 68.2423L934.522 69.2ZM917.722 100V102H918.909L919.478 100.958L917.722 100ZM890.562 100H888.562V102H890.562V100ZM890.562 96.36L888.858 95.3131L888.562 95.7947V96.36H890.562ZM948.382 48.34V50.34H950.382V48.34H948.382ZM948.382 24.26H950.382V22.26H948.382V24.26ZM922.482 27.9L920.867 26.7199L920.859 26.7314L922.482 27.9ZM922.622 44.56L920.967 45.683L920.977 45.6971L920.986 45.711L922.622 44.56ZM910.859 63.4808C906.286 60.403 902.889 56.5174 900.624 51.8124L897.02 53.5476C899.608 58.9226 903.491 63.3437 908.625 66.7992L910.859 63.4808ZM900.643 51.8524C898.422 46.967 897.271 41.8705 897.182 36.5467L893.182 36.6133C893.28 42.4895 894.555 48.1263 897.001 53.5076L900.643 51.8524ZM897.182 36.58C897.182 32.5085 897.845 28.5265 899.175 24.6253L895.389 23.3346C893.919 27.6469 893.182 32.0648 893.182 36.58H897.182ZM899.166 24.65C900.574 20.6909 902.633 17.2368 905.34 14.2675L902.384 11.5725C899.305 14.9499 896.977 18.8691 895.398 23.31L899.166 24.65ZM905.338 14.2695C908.124 11.2221 911.58 8.7638 915.738 6.90601L914.106 3.25398C909.491 5.3162 905.573 8.0846 902.386 11.5705L905.338 14.2695ZM915.755 6.89812C919.928 4.98552 924.815 3.99999 930.462 3.99999V-6.67572e-06C924.349 -6.67572e-06 918.876 1.0678 914.089 3.26187L915.755 6.89812ZM930.462 3.99999H973.582V-6.67572e-06H930.462V3.99999ZM971.582 1.99999V100H975.582V1.99999H971.582ZM973.582 98H947.962V102H973.582V98ZM949.962 100V69.2H945.962V100H949.962ZM947.962 67.2H934.522V71.2H947.962V67.2ZM932.766 68.2423L915.966 99.0423L919.478 100.958L936.278 70.1577L932.766 68.2423ZM917.722 98H890.562V102H917.722V98ZM892.562 100V96.36H888.562V100H892.562ZM892.266 97.4069L911.446 66.1869L908.038 64.0931L888.858 95.3131L892.266 97.4069ZM950.382 48.34V24.26H946.382V48.34H950.382ZM948.382 22.26H930.602V26.26H948.382V22.26ZM930.602 22.26C926.476 22.26 923.099 23.6666 920.867 26.72L924.097 29.08C925.412 27.28 927.449 26.26 930.602 26.26V22.26ZM920.859 26.7314C918.916 29.4299 917.962 32.5522 917.962 36.02H921.962C921.962 33.3278 922.688 31.0368 924.105 29.0686L920.859 26.7314ZM917.962 36.02C917.962 39.5111 918.975 42.7473 920.967 45.683L924.277 43.437C922.722 41.1461 921.962 38.6889 921.962 36.02H917.962ZM920.986 45.711C923.195 48.8496 926.518 50.34 930.602 50.34V46.34C927.593 46.34 925.596 45.3104 924.258 43.409L920.986 45.711ZM930.602 50.34H948.382V46.34H930.602V50.34Z" fill="black" mask="url(#path-1-inside-1_2918_1507)"/>
</svg>
