<svg width="12" height="12" viewBox="0 0 12 12" fill="none" xmlns="http://www.w3.org/2000/svg">
<path d="M0.292893 9.84239C-0.0976311 10.2329 -0.0976311 10.8661 0.292893 11.2566C0.683418 11.6471 1.31658 11.6471 1.70711 11.2566L0.292893 9.84239ZM11.5495 1C11.5495 0.447715 11.1018 0 10.5495 4.21438e-07L1.5495 2.10704e-07C0.997215 2.10704e-07 0.549499 0.447715 0.549499 1C0.549499 1.55229 0.997215 2 1.5495 2L9.5495 2L9.5495 10C9.5495 10.5523 9.99721 11 10.5495 11C11.1018 11 11.5495 10.5523 11.5495 10L11.5495 1ZM1.70711 11.2566L11.2566 1.70711L9.84239 0.292893L0.292893 9.84239L1.70711 11.2566Z" fill="white"/>
</svg>
