<svg width="107" height="87" viewBox="0 0 107 87" fill="none" xmlns="http://www.w3.org/2000/svg">
<g clip-path="url(#clip0_4569_23162)">
<path d="M54.9289 1.36579C54.7284 1.30248 38.2882 1.96727 32.7061 13.2159C28.9706 20.7395 27.2823 25.9417 26.5648 28.5587C26.2587 29.6983 26.607 30.9118 27.4406 31.7454C28.7279 33.0222 30.3846 35.006 29.741 36.2512C28.7279 38.2033 21.9324 48.2384 21.9324 48.2384C21.9324 48.2384 19.3049 50.7287 22.8715 52.7547C26.4381 54.7702 26.8497 56.1947 25.7628 58.1469C24.6865 60.099 24.8237 61.4497 26.3643 62.3889C27.9049 63.328 24.4754 65.4173 27.7149 67.1057C30.9439 68.794 28.3903 71.2105 28.8651 74.2495C29.34 77.2779 31.1549 79.6416 36.6104 77.89C42.0659 76.1383 55.541 71.5587 55.541 71.5587C55.541 71.5587 60.3949 69.7437 61.1969 65.7022" stroke="black" stroke-width="2" stroke-miterlimit="10" stroke-linecap="round"/>
<path d="M68.4357 57.9358C70.8542 57.9358 72.8148 55.9752 72.8148 53.5567C72.8148 51.1382 70.8542 49.1776 68.4357 49.1776C66.0171 49.1776 64.0565 51.1382 64.0565 53.5567C64.0565 55.9752 66.0171 57.9358 68.4357 57.9358Z" stroke="black" stroke-width="2" stroke-miterlimit="10" stroke-linecap="round"/>
<path d="M65.576 12.0235C67.9946 12.0235 69.9552 10.0629 69.9552 7.64434C69.9552 5.22581 67.9946 3.2652 65.576 3.2652C63.1575 3.2652 61.1969 5.22581 61.1969 7.64434C61.1969 10.0629 63.1575 12.0235 65.576 12.0235Z" stroke="black" stroke-width="2" stroke-miterlimit="10" stroke-linecap="round"/>
<path d="M100.229 59.2021C103.219 59.2021 105.643 56.7785 105.643 53.7889C105.643 50.7992 103.219 48.3756 100.229 48.3756C97.2396 48.3756 94.816 50.7992 94.816 53.7889C94.816 56.7785 97.2396 59.2021 100.229 59.2021Z" stroke="black" stroke-width="2" stroke-miterlimit="10" stroke-linecap="round"/>
<path d="M94.8266 17.5844C98.5331 17.5844 101.538 14.5798 101.538 10.8733C101.538 7.1668 98.5331 4.16211 94.8266 4.16211C91.1201 4.16211 88.1154 7.1668 88.1154 10.8733C88.1154 14.5798 91.1201 17.5844 94.8266 17.5844Z" stroke="black" stroke-width="2" stroke-miterlimit="10" stroke-linecap="round"/>
<path d="M47.3103 47.4787C51.3082 47.4787 54.5491 44.2378 54.5491 40.2399C54.5491 36.2421 51.3082 33.0012 47.3103 33.0012C43.3124 33.0012 40.0715 36.2421 40.0715 40.2399C40.0715 44.2378 43.3124 47.4787 47.3103 47.4787Z" stroke="black" stroke-width="2" stroke-miterlimit="10" stroke-linecap="round"/>
<path d="M48.0806 74.1967C48.0806 74.1967 53.8631 78.9452 53.9159 85.2554" stroke="black" stroke-width="2" stroke-miterlimit="10" stroke-linecap="round"/>
<path d="M87.6617 52.7653C87.6617 52.7653 83.2826 60.1096 84.8337 70.0075C86.3849 79.9054 90.152 85.2659 90.152 85.2659" stroke="black" stroke-width="2" stroke-miterlimit="10" stroke-linecap="round"/>
<path d="M67.0533 11.7702L69.6914 18.397" stroke="black" stroke-width="2" stroke-miterlimit="10" stroke-linecap="round"/>
<path d="M54.0004 37.5069L63.3496 33.0012" stroke="black" stroke-width="2" stroke-miterlimit="10" stroke-linecap="round"/>
<path d="M89.7721 15.2841L82.5544 21.742" stroke="black" stroke-width="2" stroke-miterlimit="10" stroke-linecap="round"/>
<path d="M71.5697 39.6068L69.6914 49.1775" stroke="black" stroke-width="2" stroke-miterlimit="10" stroke-linecap="round"/>
<path d="M82.5544 35.7658L96.4938 49.874" stroke="black" stroke-width="2" stroke-miterlimit="10" stroke-linecap="round"/>
<path d="M73.8595 39.9233C80.0253 39.9233 85.0237 34.9249 85.0237 28.7591C85.0237 22.5933 80.0253 17.595 73.8595 17.595C67.6937 17.595 62.6953 22.5933 62.6953 28.7591C62.6953 34.9249 67.6937 39.9233 73.8595 39.9233Z" fill="#A61E22"/>
</g>
<defs>
<clipPath id="clip0_4569_23162">
<rect width="106.643" height="85.9037" fill="white" transform="translate(0 0.362244)"/>
</clipPath>
</defs>
</svg>
