<svg width="108" height="88" viewBox="0 0 108 88" fill="none" xmlns="http://www.w3.org/2000/svg">
<g clip-path="url(#clip0_4492_10641)">
<path d="M64.6607 50.333C68.1613 50.333 70.9991 47.4952 70.9991 43.9946C70.9991 40.494 68.1613 37.6562 64.6607 37.6562C61.1601 37.6562 58.3223 40.494 58.3223 43.9946C58.3223 47.4952 61.1601 50.333 64.6607 50.333Z" fill="#A61E22"/>
<path d="M8.01501 60.5546L13.4124 63.1181L10.8489 68.5155" stroke="black" stroke-width="2" stroke-miterlimit="10" stroke-linecap="round"/>
<path d="M14.7537 58.2398L20.1511 60.8033L17.5876 66.2007" stroke="black" stroke-width="2" stroke-miterlimit="10" stroke-linecap="round"/>
<path d="M1.08167 68.3208L64.3579 44.2433" stroke="black" stroke-width="2" stroke-miterlimit="10" stroke-linecap="round"/>
<path d="M64.6607 86.0922C87.9106 86.0922 106.758 67.2444 106.758 43.9946C106.758 20.7447 87.9106 1.89697 64.6607 1.89697C41.4109 1.89697 22.5631 20.7447 22.5631 43.9946C22.5631 67.2444 41.4109 86.0922 64.6607 86.0922Z" stroke="black" stroke-width="2" stroke-miterlimit="10"/>
<path d="M64.6607 73.4802C80.9452 73.4802 94.1464 60.279 94.1464 43.9946C94.1464 27.7101 80.9452 14.5089 64.6607 14.5089C48.3763 14.5089 35.1751 27.7101 35.1751 43.9946C35.1751 60.279 48.3763 73.4802 64.6607 73.4802Z" stroke="black" stroke-width="2" stroke-miterlimit="10"/>
<path d="M64.6607 59.3539C73.1435 59.3539 80.0201 52.4773 80.0201 43.9946C80.0201 35.5118 73.1435 28.6352 64.6607 28.6352C56.178 28.6352 49.3014 35.5118 49.3014 43.9946C49.3014 52.4773 56.178 59.3539 64.6607 59.3539Z" stroke="black" stroke-width="2" stroke-miterlimit="10"/>
</g>
<defs>
<clipPath id="clip0_4492_10641">
<rect width="107.84" height="86.3693" fill="white" transform="translate(0 0.815338)"/>
</clipPath>
</defs>
</svg>
