<svg width="493" height="100" viewBox="0 0 493 100" fill="none" xmlns="http://www.w3.org/2000/svg">
<mask id="path-1-inside-1_4492_10588" fill="white">
<path d="M63.9909 64.14L83.1709 95.22V98.86H56.0109L39.2109 68.2H25.7709V98.86H0.150926V0.859995C14.7109 0.859995 28.8509 0.719997 43.2709 0.859995C66.9309 0.859995 78.5509 18.36 78.5509 35.58C78.4109 46.78 73.6509 57.56 63.9909 64.14ZM25.3509 47.34H43.1309C50.2709 47.34 53.7709 41.18 53.7709 35.02C53.7709 28.86 50.4109 23.12 43.1309 23.12H25.3509V47.34ZM174.631 30.68C174.631 36.7 171.411 43.7 166.511 47.62C174.491 51.68 178.691 59.66 178.691 68.62C178.691 85.42 167.771 98.44 147.611 98.44H100.431V0.579999H143.691C161.891 0.579999 174.631 12.48 174.631 30.68ZM141.871 22.84H126.051V39.22H141.871C146.771 39.22 149.291 35.44 149.431 31.52C149.571 27.18 147.051 22.84 141.871 22.84ZM145.651 59.94H126.051V76.18H145.791C150.691 76.18 152.931 72.54 153.351 68.62C153.491 65.68 152.231 62.6 149.851 60.92C148.591 60.36 147.331 59.94 145.651 59.94ZM253.31 86.82H216.63L211.03 99H184.29V95.5L229.23 0.0199976H240.99L285.51 95.5V99H259.05L253.31 86.82ZM234.97 41.74L224.89 65.4H245.19L234.97 41.74ZM374.438 99.28L322.918 48.46V99H297.298V0.579999H305.278L356.378 48.88V0.999993H381.998V99.28H374.438ZM405.921 1.13999H443.301C475.221 1.13999 491.601 25.5 491.601 49.58C492.021 74.22 475.781 99 443.301 99H405.921V1.13999ZM431.541 75.9H443.021C458.561 75.9 465.981 62.88 465.981 49.86C465.981 36.98 458.141 24.1 443.021 24.1H431.541V75.9Z"/>
</mask>
<path d="M63.9909 64.14L62.865 62.487L61.2849 63.5633L62.2889 65.1903L63.9909 64.14ZM83.1709 95.22H85.1709V94.6526L84.8729 94.1697L83.1709 95.22ZM83.1709 98.86V100.86H85.1709V98.86H83.1709ZM56.0109 98.86L54.257 99.8211L54.8263 100.86H56.0109V98.86ZM39.2109 68.2L40.9649 67.2389L40.3956 66.2H39.2109V68.2ZM25.7709 68.2V66.2H23.7709V68.2H25.7709ZM25.7709 98.86V100.86H27.7709V98.86H25.7709ZM0.150926 98.86H-1.84907V100.86H0.150926V98.86ZM0.150926 0.859995V-1.14H-1.84907V0.859995H0.150926ZM43.2709 0.859995L43.2515 2.8599L43.2612 2.86H43.2709V0.859995ZM78.5509 35.58L80.5508 35.605L80.5509 35.5925V35.58H78.5509ZM25.3509 47.34H23.3509V49.34H25.3509V47.34ZM25.3509 23.12V21.12H23.3509V23.12H25.3509ZM62.2889 65.1903L81.4689 96.2703L84.8729 94.1697L65.6929 63.0897L62.2889 65.1903ZM81.1709 95.22V98.86H85.1709V95.22H81.1709ZM83.1709 96.86H56.0109V100.86H83.1709V96.86ZM57.7649 97.8989L40.9649 67.2389L37.457 69.1611L54.257 99.8211L57.7649 97.8989ZM39.2109 66.2H25.7709V70.2H39.2109V66.2ZM23.7709 68.2V98.86H27.7709V68.2H23.7709ZM25.7709 96.86H0.150926V100.86H25.7709V96.86ZM2.15093 98.86V0.859995H-1.84907V98.86H2.15093ZM0.150926 2.86C14.7386 2.86 28.8428 2.72001 43.2515 2.8599L43.2903 -1.13991C28.859 -1.28002 14.6833 -1.14 0.150926 -1.14V2.86ZM43.2709 2.86C54.5669 2.86 62.8342 7.01818 68.2955 13.0989C73.7892 19.2158 76.5509 27.4016 76.5509 35.58H80.5509C80.5509 26.5384 77.5026 17.3642 71.2714 10.4261C65.0076 3.45181 55.6349 -1.14 43.2709 -1.14V2.86ZM76.5511 35.555C76.4178 46.2147 71.8988 56.3336 62.865 62.487L65.1169 65.793C75.4031 58.7864 80.404 47.3453 80.5508 35.605L76.5511 35.555ZM25.3509 49.34H43.1309V45.34H25.3509V49.34ZM43.1309 49.34C47.3514 49.34 50.588 47.4875 52.7168 44.7053C54.8018 41.9804 55.7709 38.4482 55.7709 35.02H51.7709C51.7709 37.7518 50.9901 40.3796 49.5401 42.2747C48.1338 44.1125 46.0505 45.34 43.1309 45.34V49.34ZM55.7709 35.02C55.7709 31.6052 54.843 28.157 52.7475 25.5167C50.6045 22.8165 47.359 21.12 43.1309 21.12V25.12C46.1829 25.12 48.2574 26.2935 49.6143 28.0033C51.0189 29.773 51.7709 32.2748 51.7709 35.02H55.7709ZM43.1309 21.12H25.3509V25.12H43.1309V21.12ZM23.3509 23.12V47.34H27.3509V23.12H23.3509ZM166.511 47.62L165.262 46.0583L162.84 47.996L165.604 49.4026L166.511 47.62ZM100.431 98.44H98.4314V100.44H100.431V98.44ZM100.431 0.579999V-1.42H98.4314V0.579999H100.431ZM126.051 22.84V20.84H124.051V22.84H126.051ZM126.051 39.22H124.051V41.22H126.051V39.22ZM149.431 31.52L151.43 31.5914L151.43 31.5845L149.431 31.52ZM126.051 59.94V57.94H124.051V59.94H126.051ZM126.051 76.18H124.051V78.18H126.051V76.18ZM153.351 68.62L155.34 68.8331L155.346 68.7742L155.349 68.7151L153.351 68.62ZM149.851 60.92L151.005 59.2861L150.844 59.1724L150.664 59.0924L149.851 60.92ZM172.631 30.68C172.631 36.1093 169.675 42.5282 165.262 46.0583L167.761 49.1817C173.148 44.8718 176.631 37.2907 176.631 30.68H172.631ZM165.604 49.4026C172.817 53.0723 176.691 60.2978 176.691 68.62H180.691C180.691 59.0221 176.165 50.2877 167.418 45.8374L165.604 49.4026ZM176.691 68.62C176.691 76.5866 174.108 83.5085 169.283 88.4299C164.469 93.3401 157.246 96.44 147.611 96.44V100.44C158.137 100.44 166.454 97.0299 172.14 91.2301C177.815 85.4415 180.691 77.4534 180.691 68.62H176.691ZM147.611 96.44H100.431V100.44H147.611V96.44ZM102.431 98.44V0.579999H98.4314V98.44H102.431ZM100.431 2.58H143.691V-1.42H100.431V2.58ZM143.691 2.58C152.351 2.58 159.565 5.40487 164.6 10.2467C169.627 15.0805 172.631 22.0649 172.631 30.68H176.631C176.631 21.0951 173.265 13.0295 167.373 7.36333C161.488 1.70512 153.231 -1.42 143.691 -1.42V2.58ZM141.871 20.84H126.051V24.84H141.871V20.84ZM124.051 22.84V39.22H128.051V22.84H124.051ZM126.051 41.22H141.871V37.22H126.051V41.22ZM141.871 41.22C144.886 41.22 147.292 40.0355 148.939 38.1596C150.551 36.3243 151.346 33.9352 151.43 31.5914L147.433 31.4486C147.376 33.0248 146.842 34.4857 145.934 35.5204C145.061 36.5145 143.757 37.22 141.871 37.22V41.22ZM151.43 31.5845C151.513 29.034 150.821 26.3854 149.228 24.3281C147.593 22.2165 145.087 20.84 141.871 20.84V24.84C143.836 24.84 145.18 25.6335 146.065 26.7768C146.992 27.9746 147.49 29.666 147.432 31.4555L151.43 31.5845ZM145.651 57.94H126.051V61.94H145.651V57.94ZM124.051 59.94V76.18H128.051V59.94H124.051ZM126.051 78.18H145.791V74.18H126.051V78.18ZM145.791 78.18C148.795 78.18 151.137 77.038 152.757 75.187C154.327 73.3926 155.1 71.0733 155.34 68.8331L151.363 68.4069C151.183 70.0866 150.626 71.5474 149.746 72.553C148.916 73.502 147.688 74.18 145.791 74.18V78.18ZM155.349 68.7151C155.516 65.2133 154.035 61.4253 151.005 59.2861L148.698 62.5539C150.427 63.7747 151.467 66.1467 151.354 68.5249L155.349 68.7151ZM150.664 59.0924C149.263 58.4697 147.714 57.94 145.651 57.94V61.94C146.949 61.94 147.92 62.2503 149.039 62.7476L150.664 59.0924ZM253.31 86.82L255.119 85.9674L254.579 84.82H253.31V86.82ZM216.63 86.82V84.82H215.349L214.813 85.9845L216.63 86.82ZM211.03 99V101H212.312L212.847 99.8355L211.03 99ZM184.29 99H182.29V101H184.29V99ZM184.29 95.5L182.481 94.6483L182.29 95.0528V95.5H184.29ZM229.23 0.0199976V-1.98H227.961L227.421 -0.831724L229.23 0.0199976ZM240.99 0.0199976L242.803 -0.825191L242.264 -1.98H240.99V0.0199976ZM285.51 95.5H287.51V95.0566L287.323 94.6548L285.51 95.5ZM285.51 99V101H287.51V99H285.51ZM259.05 99L257.241 99.8526L257.782 101H259.05V99ZM234.97 41.74L236.806 40.9469L234.958 36.667L233.13 40.9561L234.97 41.74ZM224.89 65.4L223.05 64.6161L221.864 67.4H224.89V65.4ZM245.19 65.4V67.4H248.233L247.026 64.6069L245.19 65.4ZM253.31 84.82H216.63V88.82H253.31V84.82ZM214.813 85.9845L209.213 98.1645L212.847 99.8355L218.447 87.6555L214.813 85.9845ZM211.03 97H184.29V101H211.03V97ZM186.29 99V95.5H182.29V99H186.29ZM186.1 96.3517L231.04 0.871719L227.421 -0.831724L182.481 94.6483L186.1 96.3517ZM229.23 2.02H240.99V-1.98H229.23V2.02ZM239.178 0.865186L283.698 96.3452L287.323 94.6548L242.803 -0.825191L239.178 0.865186ZM283.51 95.5V99H287.51V95.5H283.51ZM285.51 97H259.05V101H285.51V97ZM260.859 98.1474L255.119 85.9674L251.501 87.6726L257.241 99.8526L260.859 98.1474ZM233.13 40.9561L223.05 64.6161L226.73 66.1839L236.81 42.5239L233.13 40.9561ZM224.89 67.4H245.19V63.4H224.89V67.4ZM247.026 64.6069L236.806 40.9469L233.134 42.5331L243.354 66.1931L247.026 64.6069ZM374.438 99.28L373.033 100.704L373.617 101.28H374.438V99.28ZM322.918 48.46L324.322 47.0361L320.918 43.6779V48.46H322.918ZM322.918 99V101H324.918V99H322.918ZM297.298 99H295.298V101H297.298V99ZM297.298 0.579999V-1.42H295.298V0.579999H297.298ZM305.278 0.579999L306.651 -0.873475L306.073 -1.42H305.278V0.579999ZM356.378 48.88L355.004 50.3335L358.378 53.5224V48.88H356.378ZM356.378 0.999993V-1.00001H354.378V0.999993H356.378ZM381.998 0.999993H383.998V-1.00001H381.998V0.999993ZM381.998 99.28V101.28H383.998V99.28H381.998ZM375.842 97.8561L324.322 47.0361L321.513 49.8839L373.033 100.704L375.842 97.8561ZM320.918 48.46V99H324.918V48.46H320.918ZM322.918 97H297.298V101H322.918V97ZM299.298 99V0.579999H295.298V99H299.298ZM297.298 2.58H305.278V-1.42H297.298V2.58ZM303.904 2.03347L355.004 50.3335L357.751 47.4265L306.651 -0.873475L303.904 2.03347ZM358.378 48.88V0.999993H354.378V48.88H358.378ZM356.378 2.99999H381.998V-1.00001H356.378V2.99999ZM379.998 0.999993V99.28H383.998V0.999993H379.998ZM381.998 97.28H374.438V101.28H381.998V97.28ZM405.921 1.13999V-0.860008H403.921V1.13999H405.921ZM491.601 49.58H489.601V49.597L489.602 49.6141L491.601 49.58ZM405.921 99H403.921V101H405.921V99ZM431.541 75.9H429.541V77.9H431.541V75.9ZM431.541 24.1V22.1H429.541V24.1H431.541ZM405.921 3.13999H443.301V-0.860008H405.921V3.13999ZM443.301 3.13999C458.709 3.13999 470.233 8.99944 477.926 17.6584C485.651 26.3534 489.601 37.975 489.601 49.58H493.601C493.601 37.105 489.361 24.5066 480.916 15.0016C472.44 5.46054 459.814 -0.860008 443.301 -0.860008V3.13999ZM489.602 49.6141C489.804 61.5023 485.984 73.3597 478.28 82.2174C470.609 91.0368 458.988 97 443.301 97V101C460.095 101 472.834 94.5732 481.298 84.8426C489.728 75.1503 493.818 62.2977 493.601 49.5459L489.602 49.6141ZM443.301 97H405.921V101H443.301V97ZM407.921 99V1.13999H403.921V99H407.921ZM431.541 77.9H443.021V73.9H431.541V77.9ZM443.021 77.9C451.421 77.9 457.739 74.3502 461.907 68.9904C466.031 63.6886 467.981 56.7198 467.981 49.86H463.981C463.981 56.0202 462.221 62.0714 458.75 66.5346C455.324 70.9398 450.162 73.9 443.021 73.9V77.9ZM467.981 49.86C467.981 43.0408 465.91 36.1412 461.735 30.9034C457.522 25.6174 451.215 22.1 443.021 22.1V26.1C449.947 26.1 455.121 29.0226 458.607 33.3966C462.132 37.8188 463.981 43.7992 463.981 49.86H467.981ZM443.021 22.1H431.541V26.1H443.021V22.1ZM429.541 24.1V75.9H433.541V24.1H429.541Z" fill="black" mask="url(#path-1-inside-1_4492_10588)"/>
</svg>
