<svg width="260" height="130" viewBox="0 0 260 130" fill="none" xmlns="http://www.w3.org/2000/svg">
<rect width="260" height="130" fill="white"/>
<path d="M71.1486 53.2825H77.525V70.4613H84.3567V75.8863H71.1486V53.2825Z" fill="#231F20"/>
<path d="M86.9226 66.7487V53.2856H93.2991V66.6223C93.2991 68.0126 93.5601 71.109 96.941 71.109C100.322 71.109 100.586 68.0094 100.586 66.6223V53.2856H106.962V66.7519C106.962 69.1753 106.44 76.534 96.941 76.534C87.4415 76.534 86.9226 69.1722 86.9226 66.7519" fill="#231F20"/>
<path d="M111.12 53.2825H117.496V62.7739L124.363 53.2825H131.847L123.192 64.2273L132.074 75.8863H124.102L117.496 66.1642V75.8863H111.12V53.2825Z" fill="#231F20"/>
<path d="M161.014 53.2825H167.391V75.8863H161.014V53.2825Z" fill="#231F20"/>
<path d="M172.064 53.2825H178.441V70.4613H185.276V75.8863H172.064V53.2825Z" fill="#231F20"/>
<path d="M150.617 64.6035C150.617 60.1422 147.854 57.9305 144.823 57.9305C141.793 57.9305 139.029 60.1422 139.029 64.6035C139.029 69.0649 141.796 71.2766 144.823 71.2766C147.851 71.2766 150.617 69.0649 150.617 64.6035ZM132.306 64.6035C132.306 58.4234 136.301 52.379 144.823 52.379C153.345 52.379 157.341 58.4265 157.341 64.6035C157.341 70.7806 153.349 76.8312 144.823 76.8312C136.298 76.8312 132.306 70.7837 132.306 64.6035Z" fill="#231F20"/>
<path d="M36 50.0725H66.0168V79.9276H36V50.0725Z" fill="#C83D40"/>
<path d="M62.6965 55.7408L59.3252 61.15C58.9559 61.7567 59.0132 62.2338 59.182 62.6951L64.301 75.6905H43.1023C41.2018 75.6905 39.7278 74.1739 39.7278 72.3666L39.7087 55.0678C39.7597 52.8339 43.0418 52.796 43.1023 55.0583V71.2734C43.0959 71.7884 43.5512 72.3666 44.1529 72.3508H59.6786L55.6579 62.9605C55.5528 62.6003 55.4796 62.2432 55.4796 61.8862C55.4796 61.4881 55.6579 60.853 55.9189 60.3348L59.6086 54.3063C59.8823 53.766 60.4331 53.3995 61.0857 53.3742C62.0057 53.3331 62.7888 53.9619 62.8302 54.9319C62.8334 55.1246 62.7856 55.548 62.6901 55.7376" fill="white"/>
<path d="M51.0037 66.6667V55.0615C51.0037 52.796 54.3304 52.7802 54.3686 55.0615V66.7931C54.3686 69.4756 52.3471 71.2513 49.8736 71.2513C47.4 71.2513 45.3754 69.4313 45.3754 66.7931V55.0615C45.3754 52.796 48.7403 52.796 48.7403 55.0615V66.6667C48.7403 68.2244 51.0037 68.316 51.0037 66.6667Z" fill="white"/>
</svg>
