<svg width="260" height="130" viewBox="0 0 260 130" fill="none" xmlns="http://www.w3.org/2000/svg">
<path d="M57.5129 57.6342C57.5415 57.3749 57.6616 57.1344 57.8514 56.9558C58.5428 56.0682 59.1121 55.0916 59.5443 54.0523C59.9732 52.8965 60.1778 51.6692 60.147 50.4365C60.1868 48.1582 59.6112 45.9115 58.4812 43.934C57.4424 42.1402 55.9377 40.662 54.1272 39.6567H39.643C38.1628 40.5156 36.9127 41.7215 36 43.1708V47.9841C36.6443 47.1462 37.4726 46.4683 38.4208 46.0031C40.7344 44.7979 43.6111 44.1952 47.051 44.1952C50.4909 44.1952 53.3823 44.7718 55.7252 45.9251C58.0433 47.0784 59.2035 48.849 59.2057 51.237C59.2078 52.0721 59.0586 52.9007 58.7656 53.6826C58.4781 54.4409 58.0404 55.1332 57.479 55.7178C56.8576 56.5276 56.0277 57.1527 55.0785 57.5257C53.7803 57.9624 52.4365 58.2492 51.0732 58.3805V59.1946C55.1835 59.1946 58.0377 59.2409 59.6357 59.3336V58.5196C58.2205 58.3816 57.5129 58.0865 57.5129 57.6342ZM39.1623 57.6071C38.1714 57.2682 37.3094 56.6309 36.6941 55.7822C36.4304 55.5228 36.1975 55.2337 36 54.9207V56.3453C36.1253 56.542 36.2607 56.7422 36.4029 56.9423C36.5621 57.1607 36.6623 57.4166 36.6941 57.6851C36.6941 57.9158 36.5349 58.0989 36.2201 58.2312C36.1483 58.2626 36.0748 58.2897 36 58.3126V59.2929C37.7448 59.2387 40.2491 59.2115 43.5129 59.2115V58.3974C42.0383 58.2834 40.5799 58.0128 39.1623 57.5902V57.6071Z" fill="#202C56"/>
<path d="M79.5981 39.6565H76.165L68.5945 59.1095C67.73 61.3708 66.7143 62.6146 65.5474 62.8407V63.5361H72.6337V62.8271C71.814 62.8365 71.0055 62.6369 70.284 62.2471C69.7558 61.9079 69.4917 61.2973 69.4917 60.4222C69.4917 59.5471 69.8303 58.1869 70.4736 56.4807L71.3911 54.0419H79.1072L81.23 59.8524C81.4665 60.3889 81.6063 60.963 81.6431 61.5483C81.6577 61.7439 81.6115 61.9393 81.5109 62.1075C81.4103 62.2757 81.2601 62.4086 81.0811 62.4879C80.4708 62.7136 79.8254 62.8285 79.1749 62.8271V63.5361H86.5862V57.7188L79.5981 39.6565ZM71.6823 53.333L75.3592 43.7676L78.8465 53.333H71.6823Z" fill="#202C56"/>
<path d="M56.4802 90.3393C56.2383 90.203 56.0113 90.0415 55.8031 89.8577C55.3768 89.4719 55.0044 89.0304 54.696 88.545L46.4619 75.6961L50.8972 70.4216C52.4275 68.599 54.1362 67.4683 56.0232 67.0296V66.3512H47.4471V67.0296C48.1314 67.0324 48.8012 67.2275 49.3804 67.5927C49.5982 67.7434 49.7745 67.9468 49.8929 68.184C50.0113 68.4212 50.0679 68.6845 50.0575 68.9495C50.0575 69.8857 49.5158 70.9847 48.4358 72.2363L46.3468 74.743C45.5739 75.6838 44.6828 76.5207 43.6957 77.2327C42.9308 77.7495 42.0376 78.043 41.1158 78.0807V70.0926C41.0941 69.4384 41.1624 68.7844 41.319 68.149C41.3687 67.9668 41.4601 67.7987 41.5858 67.658C41.7116 67.5173 41.8683 67.4079 42.0435 67.3383C42.6015 67.1564 43.1835 67.0592 43.7702 67.05V66.3376H36V90.3393H41.881C41.6053 90.178 41.4036 89.915 41.319 89.6066C41.1667 88.9706 41.1029 88.3166 41.1294 87.663V78.8066C41.5951 78.8257 42.0439 78.9866 42.4159 79.2679C42.8838 79.7159 43.2821 80.2315 43.5976 80.7977L48.7235 89.1148C48.9269 89.3715 49.0641 89.6744 49.1231 89.9967C49.125 90.0608 49.1126 90.1245 49.0868 90.1832C49.0611 90.2419 49.0225 90.2941 48.9741 90.3359L56.4802 90.3393Z" fill="#202C56"/>
<path d="M84.2094 84.2242C81.8981 85.4295 79.0203 86.031 75.5758 86.0287C72.1314 86.0265 69.24 85.4498 66.9016 84.2988C64.5835 83.1501 63.4245 81.3851 63.4245 79.0039C63.4208 78.1686 63.57 77.3397 63.8646 76.5583C64.1501 75.7989 64.5879 75.1062 65.1512 74.5231C65.7726 73.7132 66.6025 73.0882 67.5517 72.7152C68.8469 72.27 70.1883 71.973 71.5502 71.8299V71.0192C67.44 71.0192 64.5858 70.9728 62.9877 70.8801V71.6942C64.403 71.8299 65.1106 72.1386 65.1106 72.61C65.0819 72.8693 64.9619 73.1099 64.772 73.2884C64.08 74.1756 63.5105 75.1523 63.0791 76.192C62.6486 77.3474 62.444 78.575 62.4765 79.8078C62.4367 82.0861 63.0122 84.3328 64.1423 86.3103C65.1025 87.9629 66.4595 89.3492 68.09 90.3433H83.3258C84.6273 89.5238 85.7315 88.4256 86.5591 87.1277V82.3009C85.9263 83.107 85.1241 83.7636 84.2094 84.2242ZM86.4102 72.013C86.4672 71.9881 86.526 71.9677 86.5862 71.952V70.9378C84.846 70.9921 82.3563 71.0192 79.1173 71.0192V71.8299C80.5912 71.9416 82.0487 72.2122 83.4646 72.6372C84.4555 72.9759 85.3183 73.6118 85.9362 74.4587C86.1778 74.6919 86.3955 74.9487 86.5862 75.2253V73.8142C86.4745 73.6378 86.3526 73.475 86.2273 73.285C86.066 73.0666 85.9655 72.809 85.9362 72.5388C85.9362 72.3115 86.1088 72.1284 86.4102 71.9961V72.013Z" fill="#202C56"/>
<path d="M98.7132 47.2179C99.8388 47.2179 100.851 46.8689 101.544 46.1816L101.18 45.8326C100.498 46.4565 99.6682 46.7209 98.736 46.7209C96.7009 46.7209 95.166 45.325 95.166 43.4638C95.166 41.6026 96.7009 40.2067 98.736 40.2067C99.6682 40.2067 100.498 40.4605 101.18 41.0845L101.544 40.7355C100.851 40.0481 99.8388 39.7097 98.7132 39.7097C96.3484 39.7097 94.5862 41.3065 94.5862 43.4638C94.5862 45.6211 96.3484 47.2179 98.7132 47.2179Z" fill="#202C56"/>
<path d="M108.31 39.7626H102V40.249H104.865V47.165H105.445V40.249H108.31V39.7626Z" fill="#202C56"/>
<path d="M115.518 47.165H116.144L112.483 39.7626H111.903L108.242 47.165H108.867L109.879 45.0818H114.495L115.518 47.165ZM110.107 44.6271L112.187 40.3548L114.279 44.6271H110.107Z" fill="#202C56"/>
<path d="M117.797 47.165H120.912C122.867 47.165 123.925 46.4036 123.925 44.9866C123.925 43.6224 122.936 42.9033 121.071 42.9033H118.376V40.2385H123.47V39.7626H117.797V47.165ZM118.376 46.7103V43.3475H120.923C122.538 43.3475 123.345 43.8974 123.345 45.0078C123.345 46.1393 122.515 46.7103 120.923 46.7103H118.376Z" fill="#202C56"/>
<path d="M126.013 47.165H126.524L131.947 40.6826V47.165H132.527V39.7626H132.016L126.593 46.2556V39.7626H126.013V47.165Z" fill="#202C56"/>
<path d="M136.046 39.7626L135.932 42.9774C135.819 45.6423 135.398 46.7103 134.363 46.7103C134.238 46.7103 134.136 46.6997 133.988 46.668L133.92 47.165C134.136 47.2179 134.307 47.2285 134.488 47.2285C135.83 47.2285 136.342 45.9489 136.467 42.9668L136.569 40.249H140.685V47.165H141.265V39.7626H136.046Z" fill="#202C56"/>
<path d="M147.327 42.4698H144.712V39.7626H144.132V47.165H147.179C149.135 47.165 150.204 46.3402 150.204 44.7751C150.204 43.2523 149.203 42.4698 147.327 42.4698ZM147.191 46.7103H144.712V42.9245H147.191C148.794 42.9245 149.612 43.5273 149.612 44.7857C149.612 46.0547 148.782 46.7103 147.191 46.7103Z" fill="#202C56"/>
<path d="M158.083 39.7626V43.1677H152.762V39.7626H152.182V47.165H152.762V43.6436H158.083V47.165H158.662V39.7626H158.083Z" fill="#202C56"/>
<path d="M164.941 47.2179C167.306 47.2179 169.08 45.6211 169.08 43.4638C169.08 41.3065 167.306 39.7097 164.941 39.7097C162.565 39.7097 160.803 41.3171 160.803 43.4638C160.803 45.6105 162.565 47.2179 164.941 47.2179ZM164.941 46.7209C162.906 46.7209 161.383 45.3356 161.383 43.4638C161.383 41.5921 162.906 40.2067 164.941 40.2067C166.965 40.2067 168.488 41.5921 168.488 43.4638C168.488 45.3356 166.965 46.7209 164.941 46.7209Z" fill="#202C56"/>
<path d="M174.634 47.2179C175.76 47.2179 176.771 46.8689 177.465 46.1816L177.101 45.8326C176.419 46.4565 175.589 46.7209 174.657 46.7209C172.622 46.7209 171.087 45.325 171.087 43.4638C171.087 41.6026 172.622 40.2067 174.657 40.2067C175.589 40.2067 176.419 40.4605 177.101 41.0845L177.465 40.7355C176.771 40.0481 175.76 39.7097 174.634 39.7097C172.269 39.7097 170.507 41.3065 170.507 43.4638C170.507 45.6211 172.269 47.2179 174.634 47.2179Z" fill="#202C56"/>
<path d="M184.231 39.7626H177.921V40.249H180.786V47.165H181.365V40.249H184.231V39.7626Z" fill="#202C56"/>
<path d="M188.974 42.4698H186.359V39.7626H185.779V47.165H188.826C190.781 47.165 191.85 46.3402 191.85 44.7751C191.85 43.2523 190.85 42.4698 188.974 42.4698ZM188.837 46.7103H186.359V42.9245H188.837C190.44 42.9245 191.259 43.5273 191.259 44.7857C191.259 46.0547 190.429 46.7103 188.837 46.7103Z" fill="#202C56"/>
<path d="M101.852 61.4439H102.476L98.8207 53.3799H98.2417L94.5862 61.4439H95.2106L96.221 59.1745H100.83L101.852 61.4439ZM96.448 58.6791L98.5256 54.025L100.614 58.6791H96.448Z" fill="#202C56"/>
<path d="M106.976 53.3799H104.127V61.4439H104.706V58.8058H106.976C108.975 58.8058 110.178 57.7921 110.178 56.0986C110.178 54.3937 108.975 53.3799 106.976 53.3799ZM106.976 58.2759H104.706V53.9098H106.976C108.679 53.9098 109.588 54.7047 109.588 56.0986C109.588 57.481 108.679 58.2759 106.976 58.2759Z" fill="#202C56"/>
<path d="M110.935 53.3799L113.659 57.2737L110.73 61.4439H111.412L114.011 57.7575L116.634 61.4439H117.326L114.375 57.2622L117.111 53.3799H116.418L114.011 56.7783L111.616 53.3799H110.935Z" fill="#202C56"/>
<path d="M118.783 61.4439H119.294L124.71 54.3821V61.4439H125.289V53.3799H124.778L119.362 60.4532V53.3799H118.783V61.4439Z" fill="#202C56"/>
<path d="M133.135 53.3799H126.835V53.9098H129.696V61.4439H130.275V53.9098H133.135V53.3799Z" fill="#202C56"/>
<path d="M135.261 60.914V57.6078H139.495V57.0893H135.261V53.9098H139.995V53.3799H134.682V61.4439H140.165V60.914H135.261Z" fill="#202C56"/>
<path d="M147.616 61.4439H148.297L145.05 57.3082L148.093 53.3799H147.446L144.596 57.0893H142.678V53.3799H142.099V61.4439H142.678V57.6193H144.585L147.616 61.4439Z" fill="#202C56"/>
<path d="M154.632 53.3799H148.332V53.9098H151.192V61.4439H151.771V53.9098H154.632V53.3799Z" fill="#202C56"/>
<path d="M161.25 53.3799L158.253 59.1169L155.313 53.3799H154.677L157.935 59.6698L157.663 60.1422C157.277 60.7988 156.823 61.0523 156.323 61.0523C156.085 61.0523 155.846 60.9947 155.596 60.891L155.415 61.3748C155.71 61.5015 156.016 61.5822 156.323 61.5822C157.027 61.5822 157.697 61.1905 158.185 60.2689L161.852 53.3799H161.25Z" fill="#202C56"/>
<path d="M166.135 53.3799H163.285V61.4439H163.864V58.8058H166.135C168.133 58.8058 169.336 57.7921 169.336 56.0986C169.336 54.3937 168.133 53.3799 166.135 53.3799ZM166.135 58.2759H163.864V53.9098H166.135C167.837 53.9098 168.746 54.7047 168.746 56.0986C168.746 57.481 167.837 58.2759 166.135 58.2759Z" fill="#202C56"/>
<path d="M176.842 61.4439H177.466L173.81 53.3799H173.231L169.576 61.4439H170.2L171.211 59.1745H175.82L176.842 61.4439ZM171.438 58.6791L173.515 54.025L175.604 58.6791H171.438Z" fill="#202C56"/>
<path d="M100.795 75.8789H101.477L98.2264 71.7316L101.272 67.7921H100.625L97.7717 71.5121H95.8509V67.7921H95.2712V75.8789H95.8509V72.0435H97.7604L100.795 75.8789Z" fill="#202C56"/>
<path d="M108.877 75.8789H109.502L105.842 67.7921H105.263L101.603 75.8789H102.228L103.239 73.6031H107.854L108.877 75.8789ZM103.467 73.1063L105.547 68.4391L107.638 73.1063H103.467Z" fill="#202C56"/>
<path d="M115.474 67.7921V71.8702C114.576 72.2745 113.667 72.494 112.871 72.494C111.405 72.494 110.541 71.7316 110.541 70.4377V67.7921H109.962V70.4954C109.962 72.0897 111.019 73.0254 112.826 73.0254C113.644 73.0254 114.565 72.8175 115.474 72.4132V75.8789H116.054V67.7921H115.474Z" fill="#202C56"/>
<path d="M119.493 75.3475V72.0319H123.732V71.5121H119.493V68.3236H124.233V67.7921H118.913V75.8789H124.403V75.3475H119.493Z" fill="#202C56"/>
<path d="M129.704 75.9367C130.829 75.9367 131.841 75.5554 132.534 74.8045L132.171 74.4233C131.489 75.1049 130.659 75.3937 129.727 75.3937C127.692 75.3937 126.158 73.8688 126.158 71.8355C126.158 69.8023 127.692 68.2773 129.727 68.2773C130.659 68.2773 131.489 68.5546 132.171 69.2362L132.534 68.855C131.841 68.1041 130.829 67.7344 129.704 67.7344C127.34 67.7344 125.578 69.4788 125.578 71.8355C125.578 74.1922 127.34 75.9367 129.704 75.9367Z" fill="#202C56"/>
<path d="M139.298 67.7921H132.99V68.3236H135.854V75.8789H136.434V68.3236H139.298V67.7921Z" fill="#202C56"/>
<path d="M145.324 71.72C146.165 71.4427 146.699 70.8189 146.699 69.8485C146.699 68.4968 145.688 67.7921 144.051 67.7921H140.846V75.8789H144.267C146.165 75.8789 147.109 75.1049 147.109 73.7301C147.109 72.6095 146.506 71.9279 145.324 71.72ZM141.426 68.2889H144.04C145.358 68.2889 146.108 68.8434 146.108 69.9178C146.108 70.9806 145.358 71.5352 144.04 71.5352H141.426V68.2889ZM144.278 75.3822H141.426V72.0204H144.278C145.745 72.0204 146.529 72.5287 146.529 73.6955C146.529 74.8507 145.745 75.3822 144.278 75.3822Z" fill="#202C56"/>
<path d="M152.78 75.9367C155.144 75.9367 156.917 74.1922 156.917 71.8355C156.917 69.4788 155.144 67.7344 152.78 67.7344C150.405 67.7344 148.643 69.4904 148.643 71.8355C148.643 74.1807 150.405 75.9367 152.78 75.9367ZM152.78 75.3937C150.746 75.3937 149.223 73.8803 149.223 71.8355C149.223 69.7907 150.746 68.2773 152.78 68.2773C154.803 68.2773 156.326 69.7907 156.326 71.8355C156.326 73.8803 154.803 75.3937 152.78 75.3937Z" fill="#202C56"/>
<path d="M98.7409 90.2787C99.874 90.2787 100.893 89.898 101.591 89.1481L101.225 88.7674C100.538 89.448 99.7023 89.7364 98.7638 89.7364C96.715 89.7364 95.1699 88.2137 95.1699 86.1833C95.1699 84.1529 96.715 82.6301 98.7638 82.6301C99.7023 82.6301 100.538 82.907 101.225 83.5876L101.591 83.2069C100.893 82.4571 99.874 82.0879 98.7409 82.0879C96.3602 82.0879 94.5862 83.8299 94.5862 86.1833C94.5862 88.5367 96.3602 90.2787 98.7409 90.2787Z" fill="#202C56"/>
<path d="M108.402 82.1456H102.05V82.6762H104.934V90.221H105.518V82.6762H108.402V82.1456Z" fill="#202C56"/>
<path d="M109.961 90.221H110.476L115.935 83.1492V90.221H116.519V82.1456H116.004L110.544 89.2289V82.1456H109.961V90.221Z" fill="#202C56"/>
<path d="M120.061 82.1456L119.947 85.6526C119.832 88.5597 119.409 89.7249 118.367 89.7249C118.241 89.7249 118.138 89.7134 117.99 89.6788L117.921 90.221C118.138 90.2787 118.31 90.2902 118.493 90.2902C119.844 90.2902 120.359 88.8943 120.485 85.6411L120.588 82.6762H124.731V90.221H125.315V82.1456H120.061Z" fill="#202C56"/>
<path d="M131.418 85.0989H128.786V82.1456H128.202V90.221H131.269C133.238 90.221 134.314 89.3211 134.314 87.6138C134.314 85.9525 133.307 85.0989 131.418 85.0989ZM131.281 89.7249H128.786V85.5949H131.281C132.894 85.5949 133.719 86.2525 133.719 87.6253C133.719 89.0097 132.883 89.7249 131.281 89.7249Z" fill="#202C56"/>
</svg>
