<svg width="260" height="130" viewBox="0 0 260 130" fill="none" xmlns="http://www.w3.org/2000/svg">
<path d="M184.695 75.9927V74.6016H186.99V75.9927H184.695ZM182.457 75.9927V74.6016H184.752V75.9927H182.457ZM180.218 75.9927V74.6016H182.513V75.9927H180.218ZM177.979 75.9927V74.6016H180.274V75.9927H177.979ZM175.74 75.9927V74.6016H178.035V75.9927H175.74ZM173.503 75.9927V74.6016H175.797V75.9927H173.503ZM171.263 75.9927V74.6016H173.558V75.9927H171.263ZM169.024 75.9927V74.6016H171.319V75.9927H169.024ZM166.787 75.9927V74.6016H169.081V75.9927H166.787ZM164.548 75.9927V74.6016H166.842V75.9927H164.548ZM162.309 75.9927V74.6016H164.603V75.9927H162.309ZM160.07 75.9927V74.6016H162.364V75.9927H160.07ZM157.832 75.9927V74.6016H160.126V75.9927H157.832ZM155.593 75.9927V74.6016H157.887V75.9927H155.593ZM153.354 75.9927V74.6016H155.648V75.9927H153.354ZM151.116 75.9927V74.6016H153.41V75.9927H151.116ZM148.877 75.9927V74.6016H151.171V75.9927H148.877ZM146.638 75.9927V74.6016H148.932V75.9927H146.638ZM144.399 75.9927V74.6016H146.693V75.9927H144.399ZM142.161 75.9927V74.6016H144.455V75.9927H142.161ZM139.922 75.9927V74.6016H142.216V75.9927H139.922ZM137.683 75.9927V74.6016H139.977V75.9927H137.683ZM135.445 75.9927V74.6016H137.74V75.9927H135.445ZM133.206 75.9927V74.6016H135.501V75.9927H133.206ZM130.967 75.9927V74.6016H133.261V75.9927H130.967ZM128.728 75.9927V74.6016H131.022V75.9927H128.728ZM126.49 75.9927V74.6016H128.785V75.9927H126.49ZM124.251 75.9927V74.6016H126.546V75.9927H124.251ZM122.012 75.9927V74.6016H124.307V75.9927H122.012ZM119.774 75.9927V74.6016H122.069V75.9927H119.774ZM117.535 75.9927V74.6016H119.83V75.9927H117.535ZM115.296 75.9927V74.6016H117.591V75.9927H115.296ZM113.059 75.9927V74.6016H115.353V75.9927H113.059ZM110.82 75.9927V74.6016H113.114V75.9927H110.82ZM108.58 75.9927V74.6016H110.875V75.9927H108.58ZM106.341 75.9927V74.6016H108.636V75.9927H106.341ZM104.104 75.9927V74.6016H106.398V75.9927H104.104ZM101.865 75.9927V74.6016H104.159V75.9927H101.865ZM99.6255 75.9927V74.6016H101.92V75.9927H99.6255ZM97.3878 75.9927V74.6016H99.6822V75.9927H97.3878ZM95.1487 75.9927V74.6016H97.4431V75.9927H95.1487ZM92.9097 75.9927V74.6016H95.2041V75.9927H92.9097ZM90.6706 75.9927V74.6016H92.965V75.9927H90.6706ZM88.4329 75.9927V74.6016H90.7273V75.9927H88.4329ZM86.1938 75.9927V74.6016H88.4882V75.9927H86.1938ZM83.9548 75.9927V74.6016H86.2492V75.9927H83.9548ZM81.717 75.9927V74.6016H84.0114V75.9927H81.717Z" fill="#449DDA"/>
<path d="M187.001 71.4478H181.417L176.437 61.6405V71.4478H171.692V52.3159H177.309L182.263 62.1246V52.3159H187.007L187.001 71.4478ZM164.954 59.9714V57.048H159.476V59.9714H164.954ZM169.856 71.4478H164.954V63.7991H159.476V71.4478H154.574V57.048C154.574 55.2763 154.95 54.0447 155.701 53.3532C156.452 52.6617 157.712 52.3159 159.48 52.3159H169.86L169.856 71.4478ZM153.184 71.4478H148.309L147.364 62.8893C147.305 62.262 147.279 61.6319 147.286 61.0019H147.233L145.163 71.4423H141.046L138.979 61.0073H138.926C138.925 61.6379 138.889 62.2679 138.821 62.8947L137.899 71.4478H133.025L135.254 52.3159H141.152L142.758 59.9714C142.962 60.8615 143.076 61.7701 143.098 62.6832H143.125C143.147 61.7701 143.261 60.8615 143.465 59.9714L145.052 52.3159H150.95L153.184 71.4478ZM131.112 71.4478H125.528L120.547 61.6405V71.4478H115.803V52.3159H121.412L126.366 62.1246V52.3159H131.112V71.4478ZM109.17 66.2709V57.2596H103.691V66.2709H109.17ZM114.072 66.2709C114.072 68.2117 113.727 69.5613 113.037 70.3197C112.347 71.0781 111.058 71.4541 109.17 71.4478H103.691C101.821 71.4478 100.537 71.0654 99.8376 70.3007C99.1385 69.5359 98.7889 68.1909 98.7889 66.2655V57.2596C98.7889 55.4345 99.156 54.1545 99.8902 53.4196C100.624 52.6847 101.891 52.3168 103.691 52.3159H109.17C110.987 52.3159 112.258 52.6775 112.985 53.4006C113.711 54.1238 114.073 55.4083 114.072 57.2541V66.2709ZM97.0587 71.4478H92.0785V63.7991H86.7298V71.4478H81.7537V52.3159H86.7339V59.7585H92.0785V52.3159H97.0587V71.4478Z" fill="#373735"/>
<path d="M185.407 81.579C185.521 81.5806 185.633 81.5417 185.722 81.4691C185.813 81.4009 185.879 81.3061 185.913 81.198V80.6556H185.523C185.46 80.6505 185.398 80.6613 185.341 80.6869C185.284 80.7124 185.234 80.7521 185.196 80.802C185.124 80.911 185.088 81.0401 185.094 81.1708C185.089 81.2744 185.119 81.3766 185.179 81.461C185.205 81.4966 185.239 81.5253 185.279 81.5444C185.319 81.5636 185.363 81.5726 185.407 81.5708M186.06 82.1688C186.026 82.0885 185.998 82.0055 185.978 81.9207C185.955 81.8315 185.938 81.7409 185.928 81.6495C185.859 81.8098 185.758 81.9536 185.629 82.0712C185.504 82.1822 185.342 82.2417 185.175 82.2379C185.042 82.2469 184.91 82.2273 184.786 82.1806C184.662 82.1338 184.55 82.0609 184.456 81.9668C184.279 81.7576 184.188 81.4875 184.204 81.2129C184.196 81.066 184.222 80.9192 184.279 80.7838C184.337 80.6485 184.424 80.5281 184.535 80.4319C184.755 80.2511 185.085 80.1607 185.523 80.1607H185.913V79.8732C185.921 79.7346 185.888 79.5967 185.817 79.4773C185.786 79.4324 185.743 79.3963 185.694 79.3725C185.645 79.3488 185.591 79.3382 185.536 79.3417C185.489 79.3386 185.441 79.3469 185.398 79.366C185.355 79.3851 185.316 79.4145 185.287 79.4515C185.224 79.5454 185.194 79.6574 185.201 79.7702H184.34L184.334 79.7526C184.326 79.6092 184.353 79.466 184.41 79.3346C184.468 79.2033 184.555 79.0873 184.666 78.996C184.925 78.7792 185.256 78.668 185.593 78.6841C185.914 78.6702 186.228 78.782 186.469 78.996C186.585 79.1117 186.675 79.2508 186.732 79.4042C186.79 79.5576 186.815 79.7217 186.805 79.8854V81.2969C186.804 81.4504 186.815 81.6036 186.839 81.7552C186.863 81.9016 186.899 82.0458 186.947 82.1864L186.06 82.1688ZM182.302 80.8834H182.033V82.1769H181.143V78.7383H182.033V80.0509H182.248L182.811 78.7383H183.944L183.016 80.2868L183.029 80.3017L184.018 82.1796H182.826L182.302 80.8834ZM179.621 78.7383H180.513V82.1769H179.621V80.2515H179.602L178.773 82.1796H177.881V78.7383H178.773V80.6678H178.792L179.621 78.7383ZM176.53 80.4766C176.539 80.2067 176.499 79.9373 176.411 79.6821C176.33 79.4814 176.206 79.381 176.037 79.381C175.944 79.3787 175.852 79.4057 175.774 79.4583C175.697 79.5138 175.636 79.5886 175.597 79.6753V81.2956C175.638 81.3727 175.699 81.4367 175.774 81.48C175.857 81.526 175.95 81.5485 176.044 81.5451C176.127 81.5459 176.209 81.5201 176.276 81.4713C176.344 81.4225 176.394 81.3534 176.419 81.2739C176.506 81.0385 176.545 80.7883 176.534 80.5376L176.53 80.4766ZM177.422 80.5431C177.422 81.0569 177.322 81.4678 177.12 81.7783C177.032 81.924 176.908 82.0439 176.76 82.1258C176.612 82.2077 176.444 82.2488 176.275 82.2447C176.143 82.2483 176.012 82.2187 175.894 82.1586C175.776 82.0984 175.675 82.0096 175.6 81.9003V83.4989H174.711V78.7383H175.52L175.558 79.0909C175.634 78.9668 175.737 78.8616 175.859 78.7831C175.981 78.7093 176.122 78.6717 176.264 78.6746C176.438 78.6706 176.609 78.7146 176.759 78.8019C176.909 78.8892 177.033 79.0164 177.116 79.1695C177.318 79.5004 177.418 79.937 177.418 80.4766L177.422 80.5431ZM172.817 79.377C172.729 79.3756 172.643 79.4032 172.572 79.4556C172.5 79.508 172.448 79.5823 172.423 79.6671C172.336 79.9104 172.295 80.1681 172.304 80.4264V80.4983C172.295 80.7581 172.335 81.0173 172.423 81.2617C172.452 81.3443 172.506 81.4159 172.577 81.4665C172.649 81.5171 172.734 81.5442 172.821 81.5442C172.908 81.5442 172.994 81.5171 173.065 81.4665C173.136 81.4159 173.19 81.3443 173.219 81.2617C173.309 81.0175 173.349 80.7582 173.339 80.4983V80.4264C173.349 80.167 173.308 79.9083 173.219 79.6644C173.192 79.5801 173.139 79.5066 173.067 79.4549C172.996 79.4032 172.909 79.3759 172.821 79.377H172.817ZM172.89 78.6746C173.082 78.6667 173.272 78.7072 173.445 78.7925C173.617 78.8778 173.765 79.0051 173.875 79.1627C174.125 79.5349 174.249 79.978 174.229 80.4264V80.4983C174.249 80.9485 174.119 81.3926 173.858 81.7593C173.731 81.9119 173.573 82.0347 173.393 82.1189C173.214 82.2032 173.019 82.2468 172.821 82.2468C172.623 82.2468 172.428 82.2032 172.249 82.1189C172.07 82.0347 171.911 81.9119 171.785 81.7593C171.523 81.393 171.392 80.9488 171.412 80.4983V79.6061C171.412 78.9001 171.521 78.3935 171.739 78.0862C171.957 77.7788 172.301 77.6179 172.773 77.6034C172.946 77.6111 173.12 77.5796 173.28 77.5112C173.332 77.4857 173.376 77.4451 173.405 77.3946C173.434 77.3441 173.447 77.2861 173.443 77.2279H174.133V77.2482C174.141 77.6482 174.04 77.9262 173.829 78.0794C173.619 78.2326 173.29 78.3126 172.839 78.3221C172.627 78.3109 172.418 78.3812 172.256 78.5187C172.191 78.5846 172.142 78.6643 172.113 78.7519C172.083 78.8395 172.074 78.9327 172.086 79.0244L172.096 79.0394C172.194 78.9292 172.313 78.8398 172.446 78.7763C172.585 78.7071 172.739 78.6723 172.894 78.6746H172.89ZM169.559 81.579C169.674 81.5806 169.786 81.5417 169.875 81.4691C169.965 81.4009 170.032 81.3061 170.065 81.198V80.6556H169.675C169.613 80.6505 169.55 80.6613 169.493 80.6869C169.436 80.7124 169.386 80.7521 169.349 80.802C169.277 80.911 169.241 81.0401 169.246 81.1708C169.242 81.2743 169.272 81.3764 169.331 81.461C169.357 81.4987 169.391 81.5293 169.432 81.5499C169.473 81.5706 169.518 81.5805 169.563 81.579H169.559ZM170.214 82.1769C170.178 82.0969 170.15 82.0139 170.13 81.9288C170.107 81.8396 170.091 81.749 170.08 81.6576C170.012 81.8183 169.911 81.9622 169.782 82.0793C169.657 82.1901 169.495 82.2496 169.328 82.2461C169.196 82.2552 169.063 82.2356 168.939 82.1889C168.815 82.1421 168.703 82.0691 168.609 81.9749C168.43 81.7624 168.341 81.4879 168.361 81.2102C168.353 81.0633 168.378 80.9165 168.436 80.7811C168.493 80.6458 168.58 80.5254 168.691 80.4292C168.912 80.2484 169.241 80.158 169.679 80.158H170.069V79.8705C170.077 79.7321 170.044 79.5944 169.975 79.4746C169.943 79.4297 169.901 79.3937 169.851 79.37C169.802 79.3463 169.747 79.3356 169.693 79.339C169.645 79.3361 169.598 79.3445 169.555 79.3636C169.511 79.3827 169.473 79.4119 169.443 79.4488C169.381 79.5429 169.351 79.6548 169.358 79.7675H168.497L168.49 79.7498C168.483 79.6064 168.509 79.4633 168.567 79.3319C168.624 79.2005 168.712 79.0846 168.822 78.9933C169.082 78.7765 169.412 78.6653 169.749 78.6814C170.071 78.6675 170.385 78.7793 170.625 78.9933C170.741 79.1088 170.831 79.248 170.889 79.4014C170.947 79.5548 170.972 79.719 170.961 79.8827V81.2942C170.961 81.4476 170.973 81.6008 170.995 81.7525C171.02 81.8989 171.056 82.043 171.103 82.1837L170.214 82.1769ZM164.371 80.5498C164.361 80.8003 164.399 81.0505 164.484 81.2861C164.51 81.3659 164.561 81.4353 164.629 81.4841C164.697 81.5329 164.779 81.5585 164.862 81.5573C164.951 81.559 165.039 81.538 165.117 81.4963C165.192 81.4539 165.254 81.3926 165.298 81.3186V79.6536C165.257 79.5713 165.196 79.5005 165.121 79.4475C165.046 79.3987 164.958 79.3737 164.869 79.3756C164.782 79.3776 164.698 79.4084 164.629 79.4633C164.561 79.5182 164.513 79.5942 164.492 79.6793C164.406 79.9353 164.366 80.205 164.375 80.4753L164.371 80.5498ZM167.124 80.4834C167.133 80.2128 167.092 79.943 167.003 79.6875C166.923 79.4854 166.798 79.3838 166.628 79.3838C166.54 79.3799 166.452 79.402 166.377 79.4475C166.3 79.5028 166.24 79.5771 166.201 79.6631V81.2902C166.239 81.3701 166.3 81.4367 166.377 81.4813C166.46 81.5254 166.553 81.5469 166.647 81.5437C166.73 81.5446 166.811 81.5188 166.878 81.47C166.946 81.4212 166.996 81.352 167.022 81.2725C167.109 81.0377 167.148 80.7879 167.138 80.5376L167.124 80.4834ZM163.48 80.4834C163.459 80.0282 163.564 79.5761 163.781 79.1763C163.864 79.0234 163.987 78.8963 164.137 78.809C164.287 78.7218 164.458 78.6776 164.632 78.6814C164.761 78.6796 164.888 78.7099 165.003 78.7695C165.116 78.8344 165.215 78.9226 165.293 79.0285V77.2197H166.185V79.0285C166.26 78.9204 166.359 78.8309 166.474 78.7668C166.59 78.7043 166.72 78.6726 166.852 78.6746C167.026 78.6709 167.197 78.715 167.348 78.8022C167.499 78.8895 167.623 79.0165 167.707 79.1695C167.909 79.4995 168.01 79.9352 168.01 80.4766V80.5431C168.03 80.9755 167.925 81.4047 167.707 81.7783C167.619 81.9243 167.494 82.0444 167.345 82.1263C167.196 82.2082 167.028 82.2491 166.858 82.2447C166.727 82.2479 166.597 82.2192 166.48 82.1608C166.362 82.1025 166.261 82.0163 166.184 81.9098V83.4989H165.297V81.9139C165.217 82.0157 165.117 82.0994 165.003 82.1593C164.887 82.2174 164.758 82.2467 164.629 82.2447C164.46 82.2488 164.293 82.2078 164.144 82.1259C163.996 82.0439 163.872 81.924 163.785 81.7783C163.584 81.4678 163.484 81.0569 163.484 80.5431L163.48 80.4834ZM159.789 79.918C159.787 80.0346 159.826 80.1482 159.898 80.2393C159.935 80.2846 159.983 80.3204 160.036 80.344C160.09 80.3675 160.148 80.3781 160.206 80.3749H160.643V79.4421H160.203C160.145 79.4392 160.086 79.4509 160.033 79.4759C159.98 79.501 159.934 79.5387 159.898 79.5858C159.831 79.6804 159.795 79.7947 159.798 79.9112L159.789 79.918ZM161.529 78.7451V82.1837H160.643V80.9797H160.303L159.724 82.1837H158.829L159.485 80.8197C159.311 80.7368 159.163 80.6048 159.062 80.4398C158.96 80.2747 158.908 80.0836 158.912 79.8895C158.907 79.7346 158.937 79.5805 158.998 79.4383C159.059 79.2961 159.151 79.1691 159.267 79.0665C159.53 78.8432 159.867 78.7284 160.211 78.7451H161.529ZM157.014 81.5925C157.129 81.5941 157.241 81.5553 157.331 81.4827C157.421 81.4143 157.487 81.3195 157.52 81.2115V80.6692H157.132C157.069 80.664 157.006 80.6747 156.949 80.7002C156.892 80.7258 156.842 80.7655 156.804 80.8156C156.732 80.9249 156.696 81.0538 156.701 81.1844C156.697 81.2879 156.727 81.3899 156.786 81.4746C156.814 81.5101 156.85 81.5382 156.892 81.5564C156.933 81.5746 156.978 81.5824 157.024 81.579L157.014 81.5925ZM157.669 82.1905C157.633 82.1105 157.605 82.0274 157.585 81.9423C157.563 81.853 157.547 81.7625 157.536 81.6712C157.468 81.8315 157.366 81.9753 157.238 82.0929C157.113 82.2039 156.95 82.2634 156.783 82.2596C156.651 82.2685 156.519 82.2489 156.394 82.2022C156.27 82.1554 156.158 82.0825 156.064 81.9885C155.975 81.881 155.907 81.757 155.866 81.6235C155.825 81.4899 155.81 81.3495 155.822 81.2102C155.814 81.0632 155.84 80.9164 155.897 80.781C155.954 80.6455 156.042 80.5252 156.153 80.4292C156.373 80.2484 156.702 80.158 157.141 80.158H157.53V79.8705C157.538 79.7321 157.505 79.5944 157.435 79.4746C157.404 79.4296 157.361 79.3936 157.312 79.3698C157.262 79.3461 157.208 79.3355 157.153 79.339C157.106 79.3361 157.058 79.3445 157.015 79.3636C156.972 79.3827 156.933 79.4119 156.903 79.4488C156.841 79.5429 156.811 79.6548 156.818 79.7675H155.959V79.7498C155.951 79.6065 155.977 79.4635 156.034 79.3321C156.092 79.2007 156.179 79.0846 156.289 78.9933C156.549 78.7762 156.88 78.6649 157.218 78.6814C157.539 78.6672 157.852 78.779 158.092 78.9933C158.208 79.1088 158.299 79.248 158.356 79.4014C158.414 79.5548 158.439 79.719 158.429 79.8827V81.2942C158.428 81.4477 158.44 81.6009 158.464 81.7525C158.488 81.899 158.524 82.0432 158.572 82.1837L157.669 82.1905ZM155.374 82.1905H154.5V80.8427H153.664V82.1905H152.774V78.7383H153.664V80.1336H154.5V78.7383H155.396L155.374 82.1905ZM150.533 80.5634V81.4813H151.024C151.085 81.4854 151.146 81.4753 151.202 81.4517C151.258 81.4282 151.307 81.3919 151.347 81.3458C151.422 81.2482 151.46 81.1272 151.455 81.0041C151.459 80.884 151.421 80.7664 151.347 80.6719C151.307 80.6257 151.258 80.5894 151.202 80.5659C151.146 80.5423 151.085 80.5322 151.024 80.5363L150.533 80.5634ZM150.533 79.8637H151.024C151.375 79.8449 151.72 79.9602 151.989 80.1865C152.101 80.2961 152.19 80.4271 152.251 80.5719C152.312 80.7166 152.343 80.8721 152.343 81.0291C152.343 81.1862 152.312 81.3417 152.251 81.4864C152.19 81.6311 152.101 81.7622 151.989 81.8718C151.72 82.0978 151.375 82.2126 151.024 82.1932H149.653V78.7383H150.548L150.533 79.8637ZM149.021 78.7546V82.1932H148.131V79.4475H147.536V80.219C147.536 80.8997 147.442 81.3968 147.256 81.7105C147.07 82.0242 146.75 82.1814 146.295 82.1823H146.17L146.153 81.4705H146.236C146.313 81.4773 146.39 81.4557 146.452 81.4098C146.514 81.3639 146.558 81.2968 146.575 81.221C146.634 80.8901 146.657 80.5536 146.643 80.2176V78.7383L149.021 78.7546ZM144.703 79.3932C144.636 79.3917 144.571 79.4086 144.513 79.4421C144.456 79.4756 144.409 79.5244 144.377 79.5831C144.296 79.7528 144.25 79.9373 144.242 80.1254H145.09V80.0468C145.098 79.8792 145.068 79.712 145.004 79.5573C144.979 79.5014 144.938 79.4543 144.886 79.4221C144.834 79.3899 144.774 79.3742 144.713 79.377L144.703 79.3932ZM144.755 82.261C144.556 82.271 144.357 82.2335 144.175 82.1515C143.992 82.0695 143.832 81.9453 143.707 81.7891C143.446 81.4418 143.314 81.0142 143.333 80.5797V80.4441C143.313 79.9934 143.438 79.5482 143.69 79.1749C143.806 79.0158 143.959 78.8878 144.135 78.8024C144.312 78.717 144.507 78.6768 144.703 78.6855C144.879 78.6752 145.055 78.7077 145.217 78.7801C145.378 78.8526 145.52 78.9629 145.63 79.1017C145.845 79.3792 145.952 79.7562 145.952 80.2326V80.722H144.242C144.245 80.9364 144.305 81.1462 144.415 81.3295C144.466 81.4045 144.535 81.4648 144.617 81.5045C144.698 81.5443 144.788 81.562 144.878 81.5559C145.029 81.5552 145.179 81.53 145.322 81.4813C145.457 81.4324 145.586 81.3669 145.705 81.2861L145.936 81.8447C145.791 81.9706 145.623 82.0669 145.441 82.1281C145.224 82.2063 144.996 82.2457 144.766 82.2447L144.755 82.261ZM141.555 79.3932C141.467 79.3919 141.381 79.4195 141.31 79.4719C141.239 79.5242 141.186 79.5985 141.161 79.6834C141.074 79.9266 141.034 80.1843 141.042 80.4427V80.5146C141.033 80.7743 141.073 81.0335 141.161 81.278C141.19 81.3606 141.244 81.4321 141.316 81.4827C141.387 81.5333 141.472 81.5605 141.559 81.5605C141.647 81.5605 141.732 81.5333 141.803 81.4827C141.874 81.4321 141.928 81.3606 141.957 81.278C142.047 81.0338 142.087 80.7745 142.078 80.5146V80.4427C142.087 80.1833 142.046 79.9246 141.957 79.6807C141.934 79.5944 141.883 79.5182 141.812 79.4635C141.741 79.4087 141.655 79.3784 141.566 79.377L141.555 79.3932ZM141.628 78.6909C141.82 78.683 142.011 78.7235 142.183 78.8088C142.355 78.894 142.503 79.0213 142.613 79.179C142.863 79.5512 142.987 79.9943 142.967 80.4427V80.5146C142.987 80.9648 142.857 81.4089 142.596 81.7756C142.475 81.9341 142.318 82.0611 142.138 82.1456C141.958 82.2301 141.76 82.2697 141.562 82.261C141.363 82.2697 141.164 82.2301 140.983 82.1456C140.802 82.0612 140.644 81.9343 140.521 81.7756C140.261 81.4089 140.13 80.9648 140.15 80.5146V79.6224C140.15 78.9164 140.259 78.4098 140.477 78.1024C140.695 77.7951 141.039 77.6342 141.511 77.6197C141.685 77.6273 141.858 77.5958 142.018 77.5275C142.07 77.502 142.114 77.4614 142.143 77.4109C142.172 77.3604 142.185 77.3023 142.181 77.2441H142.871L142.878 77.2645C142.886 77.6645 142.785 77.9424 142.574 78.0956C142.364 78.2489 142.034 78.3289 141.584 78.3384C141.371 78.3272 141.163 78.3974 141.001 78.535C140.936 78.6007 140.887 78.6804 140.857 78.7681C140.828 78.8557 140.819 78.949 140.83 79.0407L140.84 79.0556C140.939 78.9457 141.058 78.8564 141.191 78.7926C141.329 78.7177 141.482 78.6773 141.639 78.6746L141.628 78.6909ZM138.574 79.377C138.505 79.3745 138.437 79.392 138.377 79.4273C138.318 79.4627 138.27 79.5144 138.239 79.5763C138.158 79.7461 138.112 79.9306 138.104 80.1187H138.952V80.04C138.959 79.8724 138.93 79.7053 138.865 79.5505C138.84 79.4957 138.798 79.4498 138.746 79.4189C138.694 79.3879 138.634 79.3733 138.574 79.377ZM138.626 82.2447C138.427 82.2547 138.228 82.2172 138.046 82.1352C137.864 82.0532 137.703 81.929 137.578 81.7729C137.317 81.4255 137.185 80.9979 137.204 80.5634V80.4278C137.184 79.9769 137.31 79.5315 137.563 79.1587C137.679 79.0004 137.831 78.8734 138.008 78.7889C138.184 78.7045 138.379 78.6652 138.574 78.6746C138.75 78.6644 138.927 78.6968 139.088 78.7693C139.249 78.8417 139.391 78.952 139.501 79.0909C139.716 79.3684 139.824 79.7453 139.824 80.2217V80.7112H138.096C138.099 80.9255 138.158 81.1353 138.269 81.3186C138.32 81.3936 138.389 81.454 138.47 81.4937C138.552 81.5334 138.642 81.5511 138.732 81.5451C138.883 81.5484 139.033 81.5274 139.177 81.4827C139.312 81.4338 139.441 81.3682 139.56 81.2874L139.791 81.8461C139.646 81.972 139.478 82.0683 139.296 82.1295C139.081 82.2065 138.855 82.2455 138.626 82.2447ZM134.826 81.118H134.845L135.52 78.7383H136.638V82.1769H135.74V80.3207H135.719L135.128 82.1769H134.533L133.972 80.3966H133.951V82.1769H133.061V78.7383H134.162L134.826 81.118Z" fill="#373735"/>
<g opacity="0.31">
<mask id="mask0_3945_8757" style="mask-type:luminance" maskUnits="userSpaceOnUse" x="47" y="51" width="20" height="20">
<path d="M66.7185 51.0576H47.05V70.8173H66.7185V51.0576Z" fill="white"/>
</mask>
<g mask="url(#mask0_3945_8757)">
<path d="M56.9557 51.4645L47.4563 60.833L56.8127 70.4084L66.3121 61.0399L56.9557 51.4645Z" stroke="#00AEEF" stroke-width="0.5" stroke-miterlimit="22.93"/>
</g>
</g>
<path opacity="0.23" d="M69.0454 56.5368L62.3564 63.1335L68.9445 69.8758L75.6335 63.279L69.0454 56.5368Z" fill="#BCBDC0"/>
<path d="M47.4533 46.5009L36.3674 57.5994L47.4147 68.7367L58.5006 57.6382L47.4533 46.5009Z" fill="#373735"/>
<path d="M46.9975 52.127L36 63.6562L47.4761 74.7047L58.4736 63.1754L46.9975 52.127Z" fill="#449DDA"/>
<path d="M63.6108 53.7997L57.0237 60.3052L63.4991 66.9229L70.0863 60.4174L63.6108 53.7997Z" fill="#373735"/>
<path d="M63.398 59.5211L56.4246 66.5269L63.398 73.5326L70.3714 66.5269L63.398 59.5211Z" fill="#449DDA"/>
</svg>
