<svg width="260" height="130" viewBox="0 0 260 130" fill="none" xmlns="http://www.w3.org/2000/svg">
<path d="M60.5368 70.576C60.5368 70.1242 60.475 69.7648 60.3513 69.4978C60.2276 69.2308 60.0627 69.0049 59.8463 68.8406C59.6299 68.6763 59.3723 68.5428 59.0631 68.4606C58.754 68.3682 58.4139 68.3066 58.0223 68.2552V67.6802C59.465 67.7726 60.9284 67.8239 62.3917 67.8239C63.8551 67.8239 65.3597 67.7726 66.8539 67.6802V68.2552C66.4829 68.3066 66.1119 68.3682 65.741 68.4606C65.37 68.553 65.0402 68.6763 64.7516 68.8406C64.4631 69.0049 64.2261 69.2308 64.0406 69.4978C63.8551 69.7648 63.7623 70.1344 63.7623 70.576V82.4468C63.9891 82.5084 64.2982 82.5597 64.7001 82.5803C65.102 82.6008 65.5349 82.6214 65.9986 82.6214C66.8848 82.6214 67.668 82.5289 68.3482 82.3544C69.0283 82.1798 69.6467 81.9025 70.1928 81.5226C70.739 81.1426 71.2337 80.6703 71.6665 80.1055C72.0993 79.5407 72.5218 78.863 72.9237 78.1031L73.5318 78.3701C73.1092 79.2018 72.7486 80.0439 72.4291 80.9065C72.1199 81.769 71.8417 82.6419 71.6253 83.5353C70.5123 83.5045 69.3993 83.4737 68.2864 83.4634C67.1734 83.4429 66.0501 83.4429 64.9475 83.4429C63.8448 83.4429 62.6288 83.4429 61.4643 83.4634C60.2998 83.4839 59.1353 83.5045 57.9811 83.5353V82.9602C58.3005 82.9602 58.62 82.9397 58.9189 82.9089C59.228 82.8781 59.496 82.7959 59.7433 82.683C59.9906 82.57 60.1761 82.3954 60.3204 82.1695C60.4647 81.9436 60.5368 81.6458 60.5368 81.2556V70.5863V70.576Z" fill="#2A316D"/>
<path d="M87.0316 82.9602C87.7839 82.8473 88.3816 82.724 88.8144 82.6008C89.2473 82.4776 89.577 82.2722 89.8038 82.0155C90.0305 81.7485 90.1747 81.3994 90.2366 80.9681C90.2984 80.5368 90.3293 79.9617 90.3293 79.2326L90.4221 69.888C90.216 69.6518 89.9789 69.4361 89.711 69.2616C89.4431 69.087 89.1648 68.933 88.8763 68.82C88.5877 68.7071 88.2889 68.5941 87.9797 68.512C87.6706 68.4195 87.3717 68.3374 87.0625 68.2552V67.6802C87.4851 67.711 87.9076 67.7418 88.3301 67.7726C88.7526 67.8034 89.1751 67.8239 89.5976 67.8239C90.69 67.8239 91.7824 67.7726 92.8747 67.6802C94.4823 69.6621 96.1106 71.6029 97.7594 73.4923C99.4083 75.3818 100.995 77.3432 102.52 79.3764H102.572V77.4253C102.572 76.6449 102.562 75.8234 102.531 74.9813C102.51 74.1393 102.469 73.3178 102.417 72.5271C102.366 71.7364 102.294 71.0689 102.201 70.5246C102.139 70.1242 102.026 69.7853 101.871 69.5183C101.717 69.241 101.521 69.0254 101.284 68.8611C101.047 68.6968 100.769 68.5633 100.449 68.4811C100.14 68.3887 99.7896 68.3168 99.398 68.2552V67.6802C99.9648 67.711 100.532 67.7418 101.098 67.7726C101.665 67.8034 102.232 67.8239 102.799 67.8239C103.922 67.8239 105.045 67.7726 106.148 67.6802V68.2552C105.519 68.286 105.025 68.3785 104.654 68.5325C104.283 68.6865 104.004 68.933 103.819 69.2616C103.633 69.6005 103.51 70.042 103.458 70.6068C103.407 71.1716 103.376 71.8904 103.376 72.7735V83.8023H101.954C101.469 83.0629 100.923 82.2825 100.315 81.461C99.7071 80.6395 99.0682 79.8077 98.3984 78.9656C97.7285 78.1236 97.0587 77.2918 96.3682 76.4703C95.6881 75.6488 95.0285 74.8684 94.3999 74.1496C93.7713 73.4307 93.1942 72.7735 92.6583 72.1779C92.1327 71.5823 91.6793 71.0894 91.3083 70.6889V78.8322C91.3083 79.6537 91.3392 80.3006 91.4011 80.7935C91.4629 81.2864 91.6072 81.6664 91.8236 81.9642C92.04 82.2517 92.3595 82.4673 92.7717 82.6008C93.1942 82.7343 93.7507 82.8575 94.4617 82.9705V83.5456C93.864 83.5148 93.2766 83.4839 92.6995 83.4737C92.1224 83.4531 91.535 83.4531 90.9373 83.4531C90.2572 83.4531 89.5976 83.4531 88.9587 83.4737C88.3198 83.4942 87.6603 83.5148 86.9801 83.5456V82.9705L87.0316 82.9602Z" fill="#2A316D"/>
<path d="M111.826 70.6479C111.826 70.3398 111.785 70.042 111.703 69.7442C111.62 69.4464 111.486 69.1897 111.29 68.9741C111.095 68.7584 110.837 68.5839 110.517 68.4504C110.198 68.3169 109.796 68.245 109.312 68.245V67.6699C110.631 67.7624 111.95 67.8137 113.269 67.8137C113.99 67.8137 114.722 67.7932 115.454 67.7624C116.185 67.7316 116.917 67.7007 117.638 67.6699V68.245C117.123 68.245 116.701 68.3169 116.371 68.4504C116.041 68.5839 115.783 68.7584 115.588 68.9741C115.392 69.1897 115.258 69.4464 115.175 69.7442C115.093 70.042 115.052 70.3398 115.052 70.6479V75.5051C115.175 75.4127 115.412 75.2175 115.742 74.9403C116.072 74.663 116.443 74.3344 116.866 73.9545C117.288 73.5745 117.721 73.174 118.185 72.753C118.648 72.332 119.061 71.911 119.442 71.5002C119.823 71.0895 120.132 70.7198 120.38 70.3706C120.627 70.0215 120.751 69.7545 120.751 69.5389C120.751 69.3438 120.699 69.1795 120.586 69.0254C120.472 68.8714 120.328 68.7379 120.163 68.6249C119.998 68.512 119.813 68.4298 119.617 68.358C119.421 68.2963 119.246 68.2553 119.091 68.2347V67.6597C119.72 67.7418 120.349 67.7829 120.977 67.7932C121.606 67.7932 122.235 67.8034 122.884 67.8034C123.564 67.8034 124.213 67.8034 124.842 67.7829C125.47 67.7624 126.12 67.7315 126.8 67.6597V68.2347C125.975 68.3271 125.223 68.5633 124.522 68.9227C123.822 69.2821 123.162 69.7032 122.533 70.1961C121.905 70.689 121.297 71.2024 120.709 71.7569C120.122 72.3115 119.524 72.8249 118.916 73.3075L123.863 80.3725C124.12 80.7422 124.368 81.0708 124.625 81.3686C124.873 81.6664 125.141 81.9231 125.429 82.1388C125.718 82.3544 126.037 82.529 126.398 82.6625C126.748 82.796 127.171 82.8884 127.655 82.9397V83.5148C126.934 83.484 126.202 83.4532 125.47 83.4429C124.739 83.4224 124.007 83.4224 123.286 83.4224C122.564 83.4224 121.843 83.4224 121.142 83.4429C120.441 83.4634 119.72 83.484 118.999 83.5148V83.0321C119.122 83.0013 119.308 82.9603 119.524 82.9089C119.751 82.8576 119.967 82.7857 120.184 82.6933C120.4 82.6009 120.586 82.4776 120.751 82.3441C120.916 82.2106 120.988 82.0361 120.988 81.8307C120.988 81.7177 120.895 81.5021 120.709 81.1735C120.524 80.8449 120.287 80.4649 119.998 80.0234C119.71 79.5818 119.39 79.1094 119.05 78.6063C118.7 78.1031 118.37 77.6205 118.04 77.1686C117.711 76.7168 117.422 76.306 117.164 75.9569C116.907 75.6078 116.721 75.351 116.608 75.1867L115.093 76.3882V80.4957C115.093 80.8757 115.114 81.2248 115.165 81.5124C115.217 81.8102 115.32 82.0566 115.495 82.262C115.66 82.4674 115.917 82.6214 116.258 82.7446C116.598 82.8678 117.051 82.9295 117.628 82.95V83.5251C116.886 83.4942 116.154 83.4634 115.433 83.4532C114.712 83.4429 113.99 83.4326 113.259 83.4326C112.599 83.4326 111.95 83.4326 111.301 83.4532C110.662 83.4737 110.002 83.4942 109.343 83.5251V82.95C109.92 82.9295 110.373 82.8678 110.703 82.7446C111.033 82.6214 111.28 82.4674 111.455 82.262C111.62 82.0669 111.734 81.8102 111.785 81.5124C111.837 81.2146 111.857 80.8757 111.857 80.4957V70.6376L111.826 70.6479Z" fill="#2A316D"/>
<path d="M129.974 82.9602C130.52 82.9397 130.963 82.8781 131.293 82.7651C131.623 82.6522 131.88 82.4879 132.056 82.2722C132.231 82.0566 132.344 81.7793 132.406 81.4405C132.457 81.1016 132.488 80.6908 132.488 80.2185V71.0895C132.488 70.6376 132.457 70.2474 132.406 69.9085C132.344 69.5697 132.231 69.2924 132.056 69.0665C131.88 68.8406 131.623 68.6763 131.293 68.5633C130.963 68.4504 130.52 68.3785 129.974 68.3477V67.6699C130.798 67.7007 131.623 67.7315 132.447 67.7623C133.272 67.7931 134.096 67.8137 134.92 67.8137C136.476 67.8137 138.033 67.7931 139.578 67.7623C141.124 67.7315 142.701 67.7007 144.308 67.6699C144.288 67.9574 144.288 68.245 144.288 68.5325V69.3746C144.288 69.8675 144.288 70.3604 144.308 70.843C144.329 71.3256 144.381 71.7672 144.473 72.1677L143.948 72.2601C143.567 71.0381 142.948 70.1242 142.103 69.508C141.258 68.8919 140.032 68.5838 138.424 68.5838H135.724V74.4268H136.981C137.404 74.4268 137.806 74.3755 138.208 74.2728C138.61 74.1701 138.981 73.9955 139.331 73.7696C139.681 73.5334 139.98 73.2254 140.238 72.8454C140.496 72.4655 140.691 71.9931 140.815 71.4283H141.299C141.279 71.9931 141.258 72.5579 141.238 73.133C141.217 73.708 141.196 74.2831 141.196 74.8376C141.196 75.3921 141.207 75.9877 141.238 76.5525C141.258 77.1173 141.279 77.6923 141.299 78.2674H140.815C140.681 77.6718 140.506 77.1789 140.259 76.7784C140.022 76.3779 139.733 76.0596 139.413 75.8131C139.094 75.5769 138.723 75.4024 138.311 75.2997C137.899 75.197 137.455 75.1456 136.971 75.1456H135.714V82.2825C136.095 82.3955 136.528 82.4776 137.002 82.5392C137.476 82.6008 138.002 82.6214 138.579 82.6214C140.155 82.6214 141.578 82.2517 142.845 81.5021C144.113 80.7524 145.195 79.6023 146.081 78.0312L146.534 78.3701C146.133 79.2224 145.751 80.0644 145.391 80.9167C145.03 81.7691 144.71 82.6419 144.442 83.5353C143.185 83.5045 141.938 83.4737 140.702 83.4634C139.465 83.4429 138.218 83.4429 136.961 83.4429H134.714C134.003 83.4429 133.354 83.4429 132.746 83.4532C132.138 83.4532 131.602 83.4737 131.128 83.4942C130.654 83.5148 130.262 83.525 129.953 83.5456V82.9705L129.974 82.9602Z" fill="#2A316D"/>
<path d="M149.677 67.7213C150.275 67.7521 150.852 67.7726 151.429 67.7931C151.996 67.8137 152.645 67.8137 153.367 67.8137C154.232 67.8137 155.108 67.7931 155.974 67.7418C156.84 67.6905 157.746 67.6699 158.705 67.6699C159.54 67.6699 160.292 67.7931 160.962 68.0293C161.632 68.2655 162.198 68.6044 162.662 69.0254C163.126 69.4464 163.486 69.9496 163.744 70.5144C164.002 71.0792 164.125 71.685 164.125 72.332C164.125 72.8968 164.033 73.3897 163.847 73.8107C163.662 74.2317 163.404 74.6014 163.085 74.9197C162.765 75.2278 162.384 75.4948 161.951 75.7002C161.518 75.9055 161.044 76.0698 160.529 76.1828C160.869 76.7271 161.281 77.374 161.786 78.1133C162.281 78.863 162.837 79.5818 163.435 80.2801C164.043 80.9784 164.682 81.5945 165.372 82.1182C166.063 82.6419 166.774 82.9705 167.495 83.104V83.5353C167.032 83.5045 166.578 83.4737 166.135 83.4634C165.692 83.4429 165.238 83.4429 164.775 83.4429C164.373 83.4429 163.971 83.4429 163.569 83.4634C163.167 83.484 162.765 83.5045 162.363 83.5353C161.353 82.4571 160.416 81.3378 159.55 80.1671C158.695 78.9965 157.901 77.7745 157.2 76.4909C156.922 76.4601 156.613 76.4087 156.273 76.3471C155.922 76.2855 155.665 76.1828 155.49 76.0596V80.2185C155.49 80.7627 155.51 81.2043 155.551 81.5431C155.593 81.882 155.696 82.149 155.861 82.3338C156.025 82.529 156.273 82.6625 156.592 82.7549C156.912 82.8473 157.355 82.9089 157.922 82.9602V83.5353C157.355 83.5045 156.747 83.4737 156.077 83.4634C155.407 83.4532 154.727 83.4429 154.037 83.4429C153.295 83.4429 152.563 83.4429 151.842 83.4634C151.12 83.484 150.399 83.5045 149.667 83.5353V82.9602C150.265 82.9089 150.729 82.8473 151.079 82.7549C151.429 82.6625 151.687 82.529 151.852 82.3338C152.017 82.1387 152.13 81.882 152.182 81.5431C152.233 81.2043 152.254 80.7627 152.254 80.2185V71.0895C152.254 70.6068 152.233 70.1961 152.182 69.8675C152.13 69.5286 152.027 69.2513 151.852 69.0254C151.687 68.7995 151.429 68.6249 151.079 68.512C150.729 68.399 150.265 68.3066 149.667 68.2552V67.7315L149.677 67.7213ZM155.49 75.1251C155.984 75.3613 156.53 75.4845 157.108 75.4845C158.169 75.4845 159.024 75.1867 159.674 74.5911C160.323 73.9955 160.653 73.133 160.653 71.9931C160.653 71.5105 160.58 71.0689 160.426 70.6479C160.271 70.2269 160.055 69.8675 159.766 69.5491C159.478 69.2308 159.127 68.9843 158.725 68.7995C158.324 68.6147 157.87 68.5222 157.375 68.5222C157.056 68.5222 156.737 68.5428 156.438 68.5736C156.129 68.6044 155.819 68.6763 155.5 68.7892V75.1148L155.49 75.1251Z" fill="#2A316D"/>
<path d="M181.974 72.4552C181.799 71.8596 181.531 71.3051 181.181 70.7917C180.83 70.2782 180.408 69.8264 179.934 69.4464C179.46 69.0665 178.945 68.7584 178.378 68.5325C177.811 68.3066 177.244 68.1936 176.667 68.1936C175.946 68.1936 175.327 68.3785 174.822 68.7584C174.317 69.1384 174.06 69.7032 174.06 70.4528C174.06 71.0278 174.287 71.5207 174.75 71.9212C175.204 72.3217 175.781 72.6914 176.471 73.02C177.162 73.3486 177.904 73.6772 178.708 74.0161C179.501 74.355 180.243 74.7554 180.944 75.2278C181.634 75.7002 182.211 76.265 182.665 76.9222C183.118 77.5794 183.355 78.4009 183.355 79.3764C183.355 80.0644 183.221 80.6908 182.943 81.2556C182.665 81.8204 182.283 82.2928 181.789 82.683C181.294 83.0732 180.686 83.3813 179.975 83.5969C179.264 83.8126 178.481 83.9255 177.615 83.9255C177.213 83.9255 176.811 83.8845 176.409 83.8126C176.008 83.7407 175.606 83.6585 175.214 83.5764C174.822 83.484 174.421 83.4121 174.019 83.3402C173.617 83.2683 173.215 83.2272 172.813 83.2272C172.751 83.2272 172.669 83.2375 172.555 83.2683C172.452 83.2889 172.339 83.3197 172.215 83.3505C172.092 83.3813 171.978 83.4121 171.865 83.4429C171.751 83.4737 171.659 83.5045 171.597 83.5353C171.463 82.6419 171.329 81.728 171.185 80.8141C171.04 79.9001 170.855 78.9759 170.628 78.0517H171.154C171.319 78.6576 171.597 79.2532 172.009 79.818C172.421 80.3828 172.895 80.8962 173.431 81.3583C173.967 81.8101 174.554 82.1798 175.183 82.4468C175.812 82.7241 176.43 82.8576 177.038 82.8576C177.564 82.8576 178.048 82.8165 178.481 82.7343C178.914 82.6522 179.285 82.5187 179.604 82.3339C179.913 82.149 180.161 81.9026 180.325 81.5842C180.49 81.2762 180.583 80.8757 180.583 80.393C180.583 79.7358 180.346 79.1916 179.882 78.75C179.419 78.3085 178.831 77.908 178.13 77.5486C177.43 77.1892 176.677 76.84 175.863 76.5011C175.049 76.1623 174.297 75.7823 173.596 75.351C172.895 74.9197 172.318 74.4063 171.844 73.821C171.37 73.2356 171.143 72.5066 171.143 71.6234C171.143 70.1139 171.597 69.0254 172.514 68.3477C173.431 67.6699 174.822 67.3311 176.688 67.3311C177.172 67.3311 177.636 67.3721 178.089 67.444C178.543 67.5159 178.965 67.598 179.367 67.7007C179.769 67.7932 180.15 67.8856 180.501 67.9575C180.851 68.0293 181.181 68.0704 181.49 68.0704H182.356C182.335 68.3477 182.325 68.5941 182.304 68.8406C182.283 69.0768 182.283 69.3335 182.283 69.5902C182.283 70.0523 182.304 70.5349 182.345 71.0278C182.386 71.5207 182.417 72.0034 182.459 72.4655H181.954L181.974 72.4552Z" fill="#2A316D"/>
<path d="M80.2199 92.1407C77.9425 92.1407 76.0875 90.2923 76.0875 88.0228C76.0875 85.7534 77.9425 83.905 80.2199 83.905C82.4974 83.905 84.3524 85.7534 84.3524 88.0228C84.3524 90.2923 82.4974 92.1407 80.2199 92.1407ZM80.2199 85.8253C79.0039 85.8253 78.0043 86.8111 78.0043 88.0228C78.0043 89.2346 78.9936 90.2204 80.2199 90.2204C81.4463 90.2204 82.4253 89.2346 82.4253 88.0228C82.4253 86.8111 81.436 85.8253 80.2199 85.8253Z" fill="#526598"/>
<path d="M80.2612 46.095C77.9837 46.095 76.1288 44.2466 76.1288 41.9772C76.1288 39.7078 77.9837 37.8594 80.2612 37.8594C82.5387 37.8594 84.3936 39.7078 84.3936 41.9772C84.3936 44.2466 82.5387 46.095 80.2612 46.095ZM80.2612 39.7797C79.0452 39.7797 78.0559 40.7655 78.0559 41.9772C78.0559 43.1889 79.0452 44.185 80.2612 44.185C81.4772 44.185 82.4768 43.1992 82.4768 41.9772C82.4768 40.7552 81.4875 39.7797 80.2612 39.7797Z" fill="#526598"/>
<path d="M81.2298 44.2878H79.3027V85.7843H81.2298V44.2878Z" fill="#526598"/>
<path d="M50.3346 50.521C50.1595 49.6379 49.9224 48.9396 49.6236 48.4056C49.3247 47.8819 48.964 47.4814 48.5209 47.2042C48.0778 46.9269 47.5831 46.7523 47.0267 46.6804C46.4599 46.5983 45.8209 46.5572 45.0996 46.5572V58.0481C45.0996 58.5923 45.1202 59.0339 45.1717 59.383C45.2232 59.7322 45.3366 59.9992 45.5118 60.2148C45.687 60.4202 45.9549 60.5742 46.3053 60.6666C46.6557 60.759 47.14 60.8309 47.748 60.8823V61.3649C47.0679 61.3341 46.398 61.3033 45.7076 61.293C45.0171 61.2828 44.337 61.2725 43.6465 61.2725C42.9045 61.2725 42.1729 61.2725 41.4515 61.293C40.7301 61.3136 39.9778 61.3341 39.2049 61.3649V60.8823C39.813 60.8309 40.2973 60.759 40.6477 60.6666C40.9981 60.5742 41.266 60.4202 41.4412 60.2148C41.6164 60.0094 41.7297 59.7322 41.7813 59.383C41.8328 59.0339 41.8534 58.5923 41.8534 58.0481V46.5572C41.132 46.5572 40.4828 46.5983 39.9263 46.6804C39.3595 46.7626 38.8649 46.9372 38.432 47.2042C37.9992 47.4814 37.6282 47.8819 37.3397 48.4056C37.0408 48.9293 36.8038 49.6379 36.6286 50.521H36C36.0309 50.2129 36.0618 49.9049 36.0824 49.5968C36.1031 49.2887 36.134 48.9396 36.1546 48.5494C36.1752 48.1592 36.1958 47.7279 36.2164 47.2247C36.237 46.7215 36.237 46.1465 36.237 45.4893C37.4427 45.5201 38.6278 45.5509 39.8026 45.5817C40.9775 45.6125 42.1626 45.633 43.3477 45.633C44.5328 45.633 45.7591 45.6125 46.9648 45.5817C48.1705 45.5509 49.3866 45.5201 50.6026 45.4893C50.6026 46.1465 50.6026 46.7215 50.6232 47.2247C50.6438 47.7279 50.6644 48.1592 50.685 48.5494C50.7056 48.9293 50.7366 49.2785 50.7572 49.5968C50.7778 49.9151 50.8087 50.2129 50.8396 50.521H50.314H50.3346Z" fill="#2A316D"/>
<path d="M54.0033 60.7796C54.4876 60.7591 54.8896 60.7283 55.209 60.6564C55.5285 60.5948 55.7861 60.4715 55.9819 60.3072C56.1777 60.1429 56.3117 59.9067 56.3941 59.609C56.4766 59.3112 56.5178 58.9209 56.5178 58.4178V49.0423C56.5178 48.4672 56.4972 48.0051 56.456 47.6457C56.4147 47.2966 56.3117 47.0091 56.1468 46.8037C55.9819 46.5983 55.7243 46.4443 55.3945 46.3313C55.0647 46.2184 54.6216 46.1362 54.0548 46.0541V45.479C55.4254 45.5714 56.8166 45.6228 58.2285 45.6228C59.6403 45.6228 60.9903 45.5714 62.3815 45.479V46.0541C61.7735 46.1362 61.2891 46.2286 60.9491 46.3313C60.5987 46.434 60.341 46.588 60.1659 46.8037C59.9907 47.0091 59.8773 47.2966 59.8258 47.6457C59.7743 47.9949 59.7536 48.4672 59.7536 49.0423V52.2154H67.7608V49.0423C67.7608 48.4672 67.7402 48.0051 67.6887 47.6457C67.6372 47.2966 67.5341 47.0091 67.3589 46.8037C67.1941 46.5983 66.9261 46.4443 66.5757 46.3313C66.2254 46.2184 65.7513 46.1362 65.1536 46.0541V45.479C66.5654 45.5714 67.9876 45.6228 69.3994 45.6228C70.8112 45.6228 72.1612 45.5714 73.5524 45.479V46.0541C72.9547 46.1362 72.491 46.2286 72.1509 46.3313C71.8108 46.434 71.5635 46.588 71.3883 46.8037C71.2234 47.0091 71.1101 47.2966 71.0585 47.6457C71.007 47.9949 70.9864 48.4672 70.9864 49.0423V58.4178C70.9864 58.9107 71.0276 59.3112 71.1101 59.609C71.1925 59.9067 71.3265 60.1327 71.5223 60.3072C71.7181 60.4715 71.9757 60.5948 72.3055 60.6564C72.6352 60.718 73.0475 60.7591 73.5524 60.7796V61.3547C72.862 61.3238 72.1612 61.293 71.4707 61.2828C70.77 61.2622 70.0795 61.2622 69.3891 61.2622C68.6986 61.2622 68.0082 61.2622 67.3177 61.2828C66.6273 61.3033 65.9368 61.3238 65.2464 61.3547V60.7796C65.7307 60.7591 66.1326 60.7283 66.4521 60.6564C66.7715 60.5948 67.0395 60.4715 67.2353 60.3072C67.4311 60.1429 67.5754 59.9067 67.6578 59.609C67.7402 59.3112 67.7815 58.9209 67.7815 58.4178V53.2217H59.7743V58.4178C59.7743 58.9107 59.8155 59.3112 59.8979 59.609C59.9804 59.9067 60.1143 60.1327 60.3204 60.3072C60.5162 60.4715 60.7842 60.5948 61.1139 60.6564C61.4437 60.718 61.8456 60.7591 62.33 60.7796V61.3547C61.6189 61.3238 60.9181 61.293 60.2174 61.2828C59.5166 61.2622 58.8159 61.2622 58.1048 61.2622C57.3937 61.2622 56.7548 61.2622 56.0644 61.2828C55.3842 61.3033 54.7041 61.3238 54.0239 61.3547V60.7796H54.0033Z" fill="#2A316D"/>
<path d="M87.0318 60.7796C87.784 60.6666 88.3817 60.5434 88.8146 60.4202C89.2474 60.2969 89.5772 60.0916 89.8039 59.8348C90.0306 59.5678 90.1749 59.2187 90.2367 58.7874C90.2985 58.3561 90.3294 57.7811 90.3294 57.052L90.4222 47.7073C90.2161 47.4711 89.9791 47.2555 89.7111 47.0809C89.4432 46.9063 89.1649 46.7523 88.8764 46.6394C88.5878 46.5264 88.289 46.4134 87.9798 46.3313C87.6707 46.2389 87.3718 46.1567 87.0627 46.0746V45.4995C87.4852 45.5303 87.9077 45.5611 88.3302 45.5919C88.7527 45.6227 89.1753 45.6433 89.5978 45.6433C90.6901 45.6433 91.7825 45.5919 92.8748 45.4995C94.4825 47.4814 96.1107 49.4222 97.7595 51.3117C99.4084 53.2012 100.995 55.1625 102.521 57.1957H102.572V55.2447C102.572 54.4642 102.562 53.6427 102.531 52.8007C102.51 51.9586 102.469 51.1371 102.418 50.3464C102.366 49.5557 102.294 48.8882 102.201 48.344C102.139 47.9435 102.026 47.6046 101.871 47.3376C101.717 47.0604 101.521 46.8447 101.284 46.6804C101.047 46.5161 100.769 46.3826 100.449 46.3005C100.14 46.2081 99.7897 46.1362 99.3981 46.0746V45.4995C99.9649 45.5303 100.532 45.5611 101.098 45.5919C101.665 45.6227 102.232 45.6433 102.799 45.6433C103.922 45.6433 105.045 45.5919 106.148 45.4995V46.0746C105.519 46.1054 105.025 46.1978 104.654 46.3518C104.283 46.5059 104.005 46.7523 103.819 47.0809C103.634 47.4198 103.51 47.8613 103.458 48.4261C103.407 48.9909 103.376 49.7097 103.376 50.5929V61.6216H101.954C101.469 60.8823 100.923 60.1018 100.315 59.2803C99.7073 58.4588 99.0683 57.627 98.3985 56.785C97.7286 55.9429 97.0588 55.1112 96.3683 54.2897C95.6882 53.4681 95.0287 52.6877 94.4 51.9689C93.7714 51.2501 93.1943 50.5929 92.6584 49.9973C92.1329 49.4017 91.6794 48.9088 91.3084 48.5083V56.6515C91.3084 57.473 91.3394 58.1199 91.4012 58.6128C91.463 59.1057 91.6073 59.4857 91.8237 59.7835C92.0401 60.071 92.3596 60.2867 92.7718 60.4202C93.1943 60.5537 93.7508 60.6769 94.4619 60.7898V61.3649C93.8642 61.3341 93.2768 61.3033 92.6997 61.293C92.1226 61.2725 91.5352 61.2725 90.9375 61.2725C90.2573 61.2725 89.5978 61.2725 88.9588 61.293C88.3199 61.3135 87.6604 61.3341 86.9802 61.3649V60.7898L87.0318 60.7796Z" fill="#2A316D"/>
<path d="M111.826 48.4777C111.826 48.1697 111.785 47.8719 111.703 47.5741C111.62 47.2763 111.486 47.0196 111.29 46.8039C111.095 46.5883 110.837 46.4137 110.517 46.2802C110.198 46.1467 109.796 46.0748 109.312 46.0748V45.4998C110.631 45.5922 111.95 45.6435 113.269 45.6435C113.99 45.6435 114.722 45.623 115.454 45.5922C116.185 45.5614 116.917 45.5306 117.638 45.4998V46.0748C117.123 46.0748 116.701 46.1467 116.371 46.2802C116.041 46.4137 115.783 46.5883 115.588 46.8039C115.392 47.0196 115.258 47.2763 115.175 47.5741C115.093 47.8719 115.052 48.1697 115.052 48.4777V53.3349C115.175 53.2425 115.412 53.0474 115.742 52.7701C116.072 52.4929 116.443 52.1643 116.866 51.7843C117.288 51.4044 117.721 51.0039 118.185 50.5829C118.648 50.1618 119.061 49.7408 119.442 49.3301C119.823 48.9193 120.132 48.5496 120.38 48.2005C120.627 47.8513 120.751 47.5843 120.751 47.3687C120.751 47.1736 120.699 47.0093 120.586 46.8553C120.472 46.7012 120.328 46.5677 120.163 46.4548C119.998 46.3418 119.813 46.2597 119.617 46.1878C119.421 46.1262 119.246 46.0851 119.091 46.0646V45.4895C119.72 45.5717 120.349 45.6127 120.977 45.623C121.606 45.623 122.235 45.6333 122.884 45.6333C123.564 45.6333 124.213 45.6333 124.842 45.6127C125.47 45.5922 126.12 45.5614 126.8 45.4895V46.0646C125.975 46.157 125.223 46.3932 124.522 46.7526C123.822 47.112 123.162 47.533 122.533 48.0259C121.905 48.5188 121.297 49.0323 120.709 49.5868C120.122 50.1413 119.524 50.6547 118.916 51.1374L123.863 58.2023C124.12 58.572 124.368 58.9006 124.625 59.1984C124.873 59.4962 125.141 59.7529 125.429 59.9686C125.718 60.1842 126.037 60.3588 126.398 60.4923C126.748 60.6258 127.171 60.7182 127.655 60.7696V61.3446C126.934 61.3138 126.202 61.283 125.47 61.2727C124.739 61.2522 124.007 61.2522 123.286 61.2522C122.564 61.2522 121.843 61.2522 121.142 61.2727C120.441 61.2933 119.72 61.3138 118.999 61.3446V60.862C119.122 60.8312 119.308 60.7901 119.524 60.7388C119.751 60.6874 119.967 60.6155 120.184 60.5231C120.4 60.4307 120.586 60.3075 120.751 60.174C120.916 60.0405 120.988 59.8659 120.988 59.6605C120.988 59.5476 120.895 59.3319 120.709 59.0033C120.524 58.6747 120.287 58.2948 119.998 57.8532C119.71 57.4116 119.39 56.9393 119.05 56.4361C118.7 55.9329 118.37 55.4503 118.04 54.9985C117.711 54.5466 117.422 54.1359 117.164 53.7867C116.907 53.4376 116.721 53.1809 116.608 53.0166L115.093 54.218V58.3256C115.093 58.7055 115.114 59.0547 115.165 59.3422C115.217 59.64 115.32 59.8864 115.495 60.0918C115.66 60.2972 115.917 60.4512 116.258 60.5745C116.598 60.6977 117.051 60.7593 117.628 60.7798V61.3549C116.886 61.3241 116.154 61.2933 115.433 61.283C114.712 61.2727 113.99 61.2625 113.259 61.2625C112.599 61.2625 111.95 61.2625 111.301 61.283C110.662 61.3035 110.002 61.3241 109.343 61.3549V60.7798C109.92 60.7593 110.373 60.6977 110.703 60.5745C111.033 60.4512 111.28 60.2972 111.455 60.0918C111.62 59.8967 111.734 59.64 111.785 59.3422C111.837 59.0444 111.857 58.7055 111.857 58.3256V48.4675L111.826 48.4777Z" fill="#2A316D"/>
</svg>
