<svg width="260" height="130" viewBox="0 0 260 130" fill="none" xmlns="http://www.w3.org/2000/svg">
<g clip-path="url(#clip0_3944_8693)">
<path d="M62.1247 33.0261H62.8933L64.4383 36.7691L66.0506 33.0261H66.8192L67.7741 38.858H66.6484L66.136 35.3287L64.5755 38.9362H64.2675L62.7743 35.3287L62.1946 38.858H61.0688L62.1247 33.0261Z" fill="#2F3031"/>
<path d="M73.175 37.6546H70.8795L70.3774 38.858H69.1741L71.6378 33.0078H72.4737L74.8701 38.8554H73.6744L73.1724 37.652L73.175 37.6546ZM72.8515 36.7456L72.0492 34.6852L71.2289 36.7456H72.8489H72.8515Z" fill="#2F3031"/>
<path d="M78.0456 33.1277C78.8401 33.1277 79.5311 33.2136 80.1625 33.6851C80.8535 34.2086 81.2546 35.0421 81.2546 35.9955C81.2546 36.9488 80.8613 37.7719 80.1108 38.3058C79.4457 38.7773 78.822 38.8554 78.0301 38.8554H76.5627V33.1277H78.0482H78.0456ZM77.6704 37.8943H78.012C78.2941 37.8943 78.9074 37.876 79.4017 37.5166C79.8546 37.191 80.1108 36.6076 80.1108 35.9955C80.1108 35.3834 79.8623 34.8103 79.412 34.4665C78.9514 34.1227 78.3872 34.0888 78.012 34.0888H77.6704V37.8943Z" fill="#2F3031"/>
<path d="M86.4588 34.0914H84.4117V35.3703H86.3734V36.3315H84.4117V37.8943H86.4588V38.8554H83.3015V33.1277H86.4588V34.0888V34.0914Z" fill="#2F3031"/>
<path d="M92.6776 33.1277V38.8554H91.5674V33.1277H92.6776Z" fill="#2F3031"/>
<path d="M94.999 38.858V33H95.7676L99.2328 36.9852V33.1276H100.343V38.9674H99.5744L96.1092 34.9822V38.8554H94.999V38.858Z" fill="#2F3031"/>
<path d="M45.5001 55.7077C45.5001 55.7884 45.5001 55.8718 45.482 55.9499C45.4354 56.1687 45.438 56.8225 47.1693 56.7235L50.2696 56.6063C50.3576 56.6037 50.443 56.6141 50.5284 56.6402C50.7743 56.7131 51.3772 56.7495 51.3358 55.3144C51.3358 55.2518 51.3358 55.1867 51.3436 55.1242C51.4471 54.3663 51.561 48.6958 49.4829 46.2057C48.1372 44.5934 44.0535 42.9811 39.8714 45.1925C39.8714 45.1925 35.5962 46.6277 36.1448 54.111C36.6935 61.5943 42.9821 66.0744 42.9821 66.0744C42.9821 66.0744 44.5762 67.098 45.2931 69.8199C46.0125 72.5418 46.1963 76.6651 43.2202 76.428C43.2202 76.428 41.3724 76.5843 41.9831 70.8097C41.9831 70.8097 42.216 68.989 41.4138 68.989H36.74C36.74 68.989 36.1552 68.6035 36.2276 70.9035C36.3001 73.2034 36.0853 76.7953 37.2835 78.4024C38.7275 80.3403 42.9225 85.284 49.1982 80.2074C49.338 80.1033 55.3342 72.5418 48.1501 63.5087C46.1755 61.3182 45.3552 60.219 45.2957 60.1487C44.408 59.1068 42.1928 56.5776 42.1332 55.6243C41.978 53.1811 41.0023 49.9383 43.9396 49.8523C46.3153 49.782 45.5001 55.7129 45.5001 55.7129V55.7077Z" fill="#CD2F24"/>
<path d="M63.6232 44.833L55.5489 44.6872C55.5489 44.6872 54.7984 44.3955 54.7984 45.6952V80.8612C54.7984 80.8612 54.3999 82.0542 55.3212 82.1036C56.2399 82.1531 60.1243 82.1948 60.1243 82.1948C60.1243 82.1948 60.7273 82.4579 60.5384 80.5955C60.3495 78.7332 60.6419 68.7676 60.6419 68.7676C60.6419 68.7676 68.5091 70.0126 69.6892 62.2689V53.478C69.6892 53.478 69.8988 44.9294 63.6258 44.833H63.6232ZM63.9182 61.5682C63.649 63.1831 61.1776 62.9122 60.7713 63.2222C60.365 63.5322 60.4814 61.6542 60.4814 61.6542L60.5047 50.4774V49.9304L61.5399 49.821C63.7836 49.4616 63.7629 51.1312 63.7629 51.1312C63.7629 51.1312 64.1873 59.9507 63.9182 61.5656V61.5682Z" fill="#CD2F24"/>
<path d="M104.24 45.8854L104.189 81.2155C104.189 81.2155 104.334 82.0308 104.691 81.9396L109.471 82.0542C109.471 82.0542 110.045 81.5854 110.045 80.8821C110.045 80.1789 109.993 61.5605 109.993 61.5605L115.746 81.2129C115.746 81.2129 115.64 81.6896 116.688 81.7417C117.734 81.7938 120.454 81.6896 120.454 81.6896C120.454 81.6896 121.29 82.1662 121.186 80.6842C121.083 79.2021 121.028 45.1691 121.028 45.1691C121.028 45.1691 120.521 44.8227 120.296 44.7237C120.071 44.6247 115.485 44.6664 115.485 44.6664C115.485 44.6664 115.226 44.9243 115.231 45.104C115.237 45.2837 115.433 65.4102 115.433 65.4102L109.68 45.3541C109.68 45.3541 109.577 44.8774 108.79 44.8774C108.003 44.8774 105.338 44.7185 105.338 44.7185C105.338 44.7185 104.202 44.5674 104.24 45.8828V45.8854Z" fill="#CD2F24"/>
<path d="M88.2757 72.8831C87.9703 74.6934 86.7876 75.9775 85.1676 76.8006C84.3757 77.2017 83.5165 77.5299 82.6211 77.7852L83.1335 81.3927C83.1335 81.3927 83.2681 82.2574 84.2592 82.1506C85.2478 82.0439 89.5774 82.0439 89.5774 82.0439C89.5774 82.0439 90.1131 82.0074 89.8129 80.5462L88.387 72.8701C88.3533 72.8936 88.3119 72.8962 88.2757 72.8831Z" fill="#CD2F24"/>
<path d="M70.3078 75.6208L69.1096 81.781C69.1096 81.781 69.635 82.2342 70.1603 82.1404C70.6857 82.0466 75.6027 82.0701 75.6027 82.0701C75.6027 82.0701 76.1591 81.9034 76.1591 81.122C76.1591 80.9657 76.304 79.9238 76.5343 78.361C75.9728 78.3089 75.4215 78.2308 74.8884 78.1161C73.2244 77.7619 71.2395 77.0013 70.3078 75.6235V75.6208Z" fill="#CD2F24"/>
<path d="M77.4428 72.3311C78.4728 65.6214 79.7434 57.5286 79.7434 57.5286L81.8345 72.2556C82.4995 72.2452 83.1646 72.2321 83.8323 72.2217C84.8442 72.2035 85.8561 72.1879 86.8653 72.1696C87.1164 72.1644 87.4347 72.2113 87.6805 72.1566C87.6935 72.154 87.709 72.1566 87.7271 72.1566C87.7737 72.1149 87.8229 72.068 87.8772 72.0186C87.9807 71.9222 88.0713 71.7763 88.1541 71.6226L83.3303 45.6825C83.3303 45.6825 83.3199 44.8985 82.1554 44.8985H78.4443C78.4443 44.8985 75.8771 44.3619 76.1566 45.534L70.9238 72.4405C72.4533 72.4145 73.9853 72.3884 75.5148 72.3624C76.1566 72.352 76.7984 72.3415 77.4428 72.3285V72.3311Z" fill="#CD2F24"/>
<path d="M98.5574 50.548C98.9767 49.6832 99.5589 48.7611 100.271 47.9745C100.276 46.9847 100.281 46.3283 100.289 46.1174C100.343 44.3462 99.3571 44.7082 99.3571 44.7082H94.0027C93.0917 44.5467 93.2729 45.8439 93.2729 45.8439C93.2729 45.8439 93.2703 54.6243 93.2522 63.4178C94.3314 61.4147 95.2578 59.3102 96.1532 57.2264C97.0901 55.0489 97.5274 52.6786 98.56 50.548H98.5574Z" fill="#E6C154"/>
<path d="M94.3209 63.8866C93.969 64.5118 93.6118 65.1395 93.2469 65.7646C93.2288 73.4745 93.1978 80.5827 93.1486 81.0464C93.0373 82.0804 94.3908 82.057 94.3908 82.057L99.1758 82.0049C100.568 81.7705 100.232 80.6765 100.232 80.6765C100.232 80.6765 100.232 65.7282 100.25 55.4761C99.2121 56.7576 98.1484 58.0157 97.1573 59.3336C96.0729 60.7792 95.206 62.3212 94.3209 63.8892V63.8866Z" fill="#E6C154"/>
<path d="M97.8275 72.3248C97.9285 72.4395 98.0139 72.5775 98.0889 72.7442C98.164 72.9083 98.208 73.1063 98.2261 73.3381C98.2442 73.5699 98.2209 73.8408 98.1614 74.1533C98.1019 74.4659 97.9932 74.8201 97.8327 75.2187C97.6102 75.7683 97.3281 76.2267 96.9813 76.5913C96.6345 76.956 96.2256 77.2816 95.7546 77.5733C95.6511 77.6332 95.5554 77.6723 95.4622 77.6931C95.3794 77.714 95.3043 77.7088 95.2345 77.6827C95.1646 77.6567 95.1128 77.5863 95.0844 77.4717C95.0455 77.3493 95.0404 77.2399 95.0662 77.1487C95.0921 77.0576 95.1284 76.9742 95.1698 76.9039C95.2112 76.8232 95.2681 76.7502 95.3406 76.6903C95.7546 76.2658 96.1506 75.7422 96.531 75.1223C96.9114 74.5024 97.1832 73.7939 97.3462 72.9969C97.3695 72.8223 97.3384 72.7182 97.2504 72.6817C97.165 72.6452 97.0848 72.6322 97.0149 72.64C96.7199 72.6973 96.3007 72.8197 95.7572 73.0073C95.2138 73.1948 94.6056 73.51 93.9276 73.9502C93.2495 74.393 92.5353 74.9973 91.7874 75.7657C91.0395 76.534 90.3097 77.529 89.6006 78.748C88.819 80.0686 88.273 81.2355 87.965 82.2461C87.6545 83.2568 87.5458 84.1033 87.6312 84.7857C87.7192 85.4681 87.9935 85.9813 88.4567 86.3277C88.92 86.6715 89.5436 86.846 90.3278 86.846C90.7548 86.8408 91.2103 86.7002 91.6942 86.4189C91.8986 86.299 92.1212 86.1428 92.3567 85.9526C92.5948 85.7599 92.8381 85.5176 93.0917 85.2259C93.3453 84.9316 93.6093 84.5825 93.8862 84.1762C94.1605 83.7699 94.4348 83.2984 94.7065 82.7567C94.8333 82.4519 94.9576 82.1628 95.0766 81.8945C95.1982 81.6236 95.3095 81.3788 95.4156 81.1548C95.4363 81.1131 95.4544 81.0766 95.47 81.0402C95.4855 81.0037 95.5036 80.9672 95.5243 80.9256L95.5398 80.9099C95.5502 80.8891 95.5605 80.8656 95.5709 80.8422C95.5812 80.8162 95.5916 80.7927 95.6019 80.7745C95.5709 80.7641 95.5269 80.7589 95.4648 80.7562C95.3432 80.7432 95.162 80.7458 94.9213 80.7641C94.6806 80.7823 94.4012 80.8136 94.0803 80.8604C93.7593 80.9073 93.4152 80.9724 93.0477 81.0532C92.6802 81.1339 92.3153 81.2303 91.9504 81.3371C91.5881 81.4439 91.2361 81.5715 90.8997 81.7148C90.5607 81.858 90.2631 82.0169 90.0069 82.1862C89.9862 82.2071 89.9603 82.2305 89.9292 82.2539C89.8982 82.28 89.862 82.306 89.8206 82.3373C89.7688 82.3868 89.7067 82.4441 89.6342 82.504C89.5618 82.5639 89.4945 82.6004 89.435 82.6082C89.3521 82.6082 89.2771 82.5769 89.2072 82.5196C89.1373 82.4623 89.1011 82.3764 89.1037 82.2644C89.0959 82.1003 89.1296 81.931 89.202 81.7591C89.2538 81.6158 89.3547 81.4673 89.4971 81.3084C89.642 81.1522 89.8464 81.0089 90.113 80.8787C90.4934 80.6989 90.9282 80.5401 91.4173 80.3968C91.909 80.2561 92.4111 80.1363 92.926 80.04C93.441 79.9436 93.9509 79.8759 94.4555 79.8316C94.9601 79.7873 95.4104 79.7743 95.809 79.7899C95.8788 79.8003 95.9694 79.8238 96.0755 79.855C96.1816 79.8863 96.2748 79.941 96.355 80.0139C96.4352 80.0868 96.4999 80.1858 96.5491 80.3082C96.5983 80.4333 96.606 80.5922 96.5724 80.7849C96.5517 80.8656 96.5284 80.9516 96.5077 81.0376C96.487 81.1235 96.4534 81.2199 96.412 81.3215C95.8142 82.6447 95.4078 83.7438 95.1982 84.6164C94.9886 85.489 94.8799 86.1896 94.8799 86.7184C94.8799 87.2472 94.9368 87.6274 95.0559 87.8671C95.1749 88.1041 95.2681 88.2552 95.3406 88.3177C95.4518 88.4323 95.4984 88.5339 95.4803 88.6276C95.4648 88.7188 95.413 88.7969 95.3328 88.8569C95.25 88.9063 95.1672 88.9428 95.0792 88.961C94.9912 88.9793 94.9084 88.9949 94.8256 89.0027C94.735 89.0105 94.6418 89.0105 94.5513 89.0001C94.2562 88.9558 94.0259 88.836 93.8603 88.6459C93.6947 88.4531 93.5834 88.2109 93.5264 87.9192C93.4695 87.6274 93.4592 87.2966 93.4954 86.9268C93.5316 86.5569 93.5963 86.1688 93.6947 85.7599C93.4566 86.0334 93.2055 86.286 92.9442 86.5178C92.6802 86.7497 92.4033 86.9502 92.1109 87.1221C91.8184 87.2914 91.5105 87.4243 91.1896 87.518C90.8687 87.6118 90.5322 87.6509 90.188 87.6353C89.2512 87.6118 88.5085 87.4607 87.9573 87.182C87.406 86.9033 86.9946 86.5439 86.7202 86.1037C86.4459 85.6635 86.2906 85.1712 86.2518 84.6216C86.213 84.072 86.2441 83.512 86.3424 82.939C86.5753 81.6106 87.1498 80.0999 88.0685 78.412C88.819 77.1201 89.6601 75.9792 90.5892 74.9868C90.9825 74.5623 91.4147 74.1533 91.8883 73.76C92.3619 73.3667 92.8691 73.0229 93.4074 72.7286C93.9457 72.4342 94.515 72.2102 95.1128 72.0592C95.7106 71.9081 96.3291 71.8638 96.9709 71.9237C97.0615 71.9341 97.1599 71.9576 97.2608 71.9888C97.341 72.0097 97.4342 72.0514 97.5351 72.1087C97.636 72.166 97.7318 72.2415 97.8224 72.3353L97.8275 72.3248ZM94.8152 72.528C94.7738 72.5384 94.735 72.5462 94.7014 72.5567C94.6651 72.5671 94.6263 72.5775 94.5875 72.5853C94.5668 72.5957 94.5487 72.6035 94.5331 72.6088C94.5176 72.614 94.4995 72.6218 94.4788 72.6322C94.4581 72.6426 94.44 72.6504 94.4244 72.6556C94.4089 72.6609 94.3908 72.6687 94.3701 72.6791C94.2976 72.7077 94.2252 72.739 94.1553 72.7676C94.0828 72.7963 94.0104 72.8328 93.9405 72.8718C93.6843 72.9916 93.4177 73.1401 93.1408 73.3224C92.8639 73.4944 92.6103 73.6637 92.3852 73.8356C92.3541 73.8668 92.2972 73.9111 92.2144 73.971C92.1937 73.9919 92.1781 74.0049 92.1678 74.0101C92.1574 74.0153 92.1419 74.0283 92.1212 74.0492C92.1005 74.0596 92.0876 74.07 92.0824 74.0804C92.0772 74.0908 92.0643 74.1065 92.0436 74.1247C91.9815 74.1742 91.9219 74.2211 91.865 74.2601C91.8081 74.2992 91.7537 74.3461 91.702 74.3956L91.6554 74.4399L91.6243 74.4711C91.5829 74.5128 91.5519 74.5362 91.5312 74.5467L91.3759 74.6977L91.2206 74.8488L91.143 74.9243L91.0964 74.9556L91.0653 75.0025L90.9101 75.1535C90.8894 75.1744 90.8661 75.1978 90.8402 75.2291C90.8143 75.2603 90.791 75.2838 90.7703 75.3046C90.7496 75.3255 90.7263 75.3489 90.7004 75.3802C90.6746 75.4114 90.6461 75.4349 90.615 75.4557C90.5943 75.487 90.571 75.513 90.5452 75.539C90.5193 75.5651 90.496 75.5911 90.4753 75.6224C90.4132 75.6823 90.3666 75.7344 90.3355 75.7735C90.3252 75.7943 90.3045 75.8204 90.2734 75.849L90.2424 75.8959L90.2113 75.9271C90.1596 75.9766 90.113 76.0313 90.0716 76.086C90.0302 76.1407 89.9888 76.1954 89.9474 76.2449C89.8956 76.2944 89.8516 76.3491 89.8154 76.4038C89.7791 76.4585 89.7403 76.5132 89.6989 76.5627C89.6782 76.5835 89.6653 76.5992 89.6601 76.607C89.6549 76.6174 89.6472 76.6278 89.6368 76.6382C89.6265 76.6591 89.6161 76.6747 89.6058 76.6851C89.5954 76.6955 89.5851 76.7112 89.5747 76.732C89.5333 76.7919 89.4919 76.844 89.4505 76.8831C89.4298 76.9143 89.4117 76.9404 89.3961 76.9664C89.3806 76.9925 89.3625 77.0185 89.3418 77.0498C89.3211 77.0706 89.303 77.094 89.2874 77.1253C89.2719 77.1566 89.2538 77.18 89.2331 77.2008C89.1813 77.2607 89.1451 77.3181 89.1244 77.3675C89.0934 77.3988 89.0726 77.4222 89.0623 77.4431C89.0416 77.4848 89.0261 77.5082 89.0157 77.5186C88.9743 77.5707 88.9381 77.6228 88.907 77.6775C88.876 77.7322 88.8397 77.7869 88.7983 77.8364C88.7776 77.8781 88.7621 77.9015 88.7517 77.9119L88.7052 78.0031C88.6845 78.0239 88.6689 78.05 88.6586 78.0786C88.6482 78.1099 88.6327 78.1359 88.612 78.1542C88.5913 78.1854 88.5732 78.2141 88.5577 78.2375C88.5421 78.2636 88.524 78.2896 88.5033 78.3209C88.493 78.3313 88.4774 78.3573 88.4567 78.3964C88.4464 78.4068 88.4308 78.4329 88.4101 78.4719C88.3687 78.5735 88.3092 78.6751 88.2368 78.7767C88.2161 78.8079 88.2005 78.834 88.1902 78.86C88.1798 78.8861 88.1643 78.9147 88.1436 78.9434C88.1022 79.0033 88.0763 79.0554 88.066 79.0971C88.0349 79.1492 88.0064 79.1986 87.9806 79.2507C87.9547 79.3028 87.9262 79.3523 87.8951 79.4044C87.7916 79.6076 87.6933 79.8107 87.6053 80.0165C87.5147 80.2197 87.4293 80.4229 87.3439 80.6286C87.2585 80.8318 87.1861 81.0297 87.1214 81.2173C87.0567 81.4048 86.9997 81.5924 86.9454 81.7747C86.8289 82.1524 86.7409 82.5118 86.6866 82.8556C86.6297 83.1995 86.596 83.5172 86.5831 83.8142C86.5676 84.1215 86.5805 84.4028 86.6167 84.6607C86.653 84.9186 86.7073 85.1478 86.7746 85.3535C86.8419 85.5593 86.9169 85.7286 86.9971 85.8641C87.0178 85.8849 87.036 85.9162 87.0567 85.9578C87.067 85.9578 87.0722 85.963 87.0722 85.9735C87.0722 85.9839 87.0722 85.9891 87.08 85.9891C87.0877 85.9891 87.0877 85.9943 87.0877 86.0047C87.0981 86.0151 87.1032 86.0229 87.1032 86.0282C87.1032 86.0334 87.1084 86.0412 87.1188 86.0516C87.1498 86.0829 87.1835 86.1297 87.2249 86.1922C87.2352 86.2131 87.2508 86.2339 87.2689 86.2548L87.3129 86.3017L87.3879 86.3798C87.3983 86.4006 87.406 86.411 87.4112 86.411C87.4164 86.411 87.4242 86.4163 87.4345 86.4267L87.45 86.4423C87.1602 86.1089 86.9609 85.7234 86.8548 85.2806C86.7875 85.0436 86.7487 84.817 86.7409 84.6034C86.7332 84.4914 86.728 84.3742 86.7306 84.257L86.7358 83.9105C86.7461 83.7985 86.7591 83.6839 86.772 83.5641C86.7823 83.4469 86.8005 83.3271 86.8238 83.2047C86.8574 82.9807 86.9066 82.7488 86.9713 82.5144C87.0256 82.28 87.0929 82.0482 87.1731 81.819C87.2533 81.5898 87.3336 81.3631 87.419 81.1391C87.5044 80.9047 87.5924 80.6781 87.6881 80.4593C87.7839 80.2405 87.8874 80.0243 88.0038 79.8107C88.0556 79.6987 88.1099 79.5919 88.1695 79.4904C88.2264 79.3888 88.2807 79.282 88.3351 79.17L88.3817 79.0945L88.4283 79.0189C88.449 78.9694 88.4748 78.9173 88.5059 78.8652C88.537 78.8158 88.568 78.7637 88.5991 78.7142C88.6301 78.6647 88.6612 78.6126 88.6922 78.5605C88.7336 78.4589 88.7906 78.3573 88.863 78.2557C88.8941 78.2036 88.9251 78.1542 88.9562 78.1021C88.9872 78.0526 89.0183 78.0005 89.0494 77.9484C89.0804 77.8989 89.1115 77.8494 89.1425 77.8025C89.1736 77.7556 89.2046 77.7088 89.2357 77.6567C89.246 77.6358 89.2538 77.6228 89.259 77.6176C89.2642 77.6124 89.2719 77.5994 89.2823 77.5785C89.2926 77.5681 89.3004 77.5577 89.3056 77.5473C89.3107 77.5368 89.3185 77.5264 89.3289 77.516C89.3496 77.4952 89.3651 77.4691 89.3754 77.4405C89.3858 77.4118 89.4013 77.3858 89.422 77.3649L89.5152 77.2269C89.5152 77.2269 89.5411 77.1904 89.5618 77.1514L89.6239 77.0914L89.8102 76.8179L89.9034 76.6799C89.9241 76.6591 89.9422 76.6408 89.9577 76.62C89.9732 76.5992 89.9914 76.5809 90.0121 76.5601C90.0431 76.5106 90.0742 76.4637 90.1052 76.422C90.1363 76.383 90.1673 76.3413 90.1984 76.2996C90.2812 76.198 90.3485 76.1121 90.4002 76.0418C90.4417 76.0027 90.4779 75.961 90.5089 75.9193C90.54 75.8803 90.571 75.8386 90.6021 75.7969C90.6228 75.7761 90.6409 75.7578 90.6564 75.737C90.672 75.7162 90.6901 75.6979 90.7108 75.6771C90.7315 75.6563 90.747 75.638 90.7574 75.625C90.7677 75.6094 90.7833 75.5911 90.804 75.5729C90.8247 75.5521 90.8428 75.5338 90.8583 75.513C90.8738 75.4922 90.8919 75.4713 90.9127 75.4531C90.9334 75.4322 90.9489 75.414 90.9592 75.401C90.9696 75.388 90.9851 75.3671 91.0058 75.3489C91.0472 75.3098 91.0835 75.2708 91.1145 75.2343C91.1456 75.1978 91.1766 75.1614 91.2077 75.1197C91.2284 75.0988 91.2465 75.0806 91.262 75.0676C91.2775 75.052 91.2957 75.0337 91.3164 75.0155L91.4095 74.9243C91.4302 74.9035 91.4484 74.8853 91.4639 74.8722L91.5182 74.8201C91.5389 74.7993 91.5545 74.7811 91.5648 74.7681C91.5752 74.7524 91.5907 74.7342 91.6114 74.716C91.6321 74.6977 91.6502 74.6795 91.6657 74.6717C91.6813 74.6613 91.6994 74.6456 91.7201 74.6274L91.8132 74.5362C92.0824 74.2836 92.3386 74.057 92.587 73.8564C92.8329 73.6558 93.071 73.4787 93.2961 73.3277C93.5213 73.1766 93.7283 73.0516 93.912 72.9526C94.0958 72.8536 94.2562 72.7676 94.3882 72.6973C94.5202 72.6374 94.6289 72.5931 94.7117 72.5645C94.7324 72.5541 94.7479 72.5489 94.7583 72.5489C94.7686 72.5489 94.779 72.5436 94.7893 72.5332H94.8204L94.8152 72.528ZM95.2629 80.0374C95.2836 80.0374 95.2992 80.0374 95.3095 80.0295C95.3199 80.0243 95.3302 80.0217 95.3406 80.0217H95.3716C95.0766 80.0191 94.7712 80.0295 94.4555 80.0556C94.3727 80.066 94.295 80.0712 94.2174 80.0764C94.1398 80.0816 94.0621 80.0868 93.9793 80.0973C93.8965 80.1077 93.8189 80.1155 93.7412 80.1259C93.6636 80.1363 93.586 80.1494 93.5031 80.1676C93.1667 80.2145 92.851 80.2718 92.5534 80.3395C92.3903 80.3786 92.2377 80.415 92.0927 80.4489C91.9504 80.4828 91.8055 80.5244 91.6631 80.5739C91.3862 80.6625 91.1352 80.7563 90.9101 80.8552C90.6849 80.9542 90.4908 81.048 90.3252 81.1391C90.1518 81.2381 90.0328 81.3137 89.9707 81.3657L89.8775 81.4257C89.8775 81.4257 89.8568 81.4413 89.8464 81.4413C89.8361 81.4413 89.8309 81.4465 89.8309 81.4569C89.8827 81.4257 89.9292 81.3996 89.9707 81.3736C90.0121 81.3475 90.0586 81.3215 90.1104 81.2902L90.3873 81.1548L90.9411 80.9308C91.0343 80.9021 91.1223 80.8709 91.2103 80.8422C91.2982 80.8136 91.3862 80.7823 91.4794 80.7536C91.5622 80.725 91.645 80.6963 91.733 80.6729C91.821 80.6495 91.9038 80.626 91.9866 80.6078C92.3231 80.5192 92.6466 80.4489 92.9519 80.3916C92.9726 80.3812 92.9907 80.376 93.0063 80.376C93.0218 80.376 93.0399 80.3708 93.0606 80.3603H93.1072C93.1072 80.3603 93.1383 80.3473 93.1693 80.3473C93.2107 80.3369 93.2806 80.3239 93.3841 80.303C93.4152 80.2926 93.4462 80.2874 93.4747 80.29C93.5031 80.2926 93.542 80.2848 93.5808 80.277C93.6015 80.2666 93.6325 80.2614 93.6714 80.264C93.6921 80.2535 93.7076 80.2483 93.7179 80.2483C93.7283 80.2483 93.7438 80.2431 93.7645 80.2327C93.837 80.2223 93.8991 80.2171 93.956 80.2119C94.013 80.2067 94.0699 80.2014 94.132 80.191C94.1941 80.1702 94.2433 80.1624 94.2847 80.1624C94.3158 80.152 94.3442 80.1467 94.3701 80.1494C94.396 80.152 94.4193 80.1441 94.44 80.1337C94.5098 80.1337 94.5616 80.1311 94.5927 80.1207C94.6237 80.1207 94.6444 80.1155 94.6548 80.1051H94.7169C94.7686 80.0973 94.81 80.0894 94.8463 80.0842C94.8825 80.079 94.9161 80.0764 94.9446 80.079C94.986 80.0686 95.0222 80.066 95.0507 80.066C95.0792 80.066 95.1076 80.0608 95.1284 80.053C95.1594 80.053 95.1853 80.053 95.206 80.0452C95.2267 80.04 95.2474 80.0374 95.2681 80.0374H95.2629ZM94.6392 88.7006C94.5978 88.6902 94.5616 88.6745 94.5254 88.6537C94.4891 88.6329 94.4529 88.612 94.4115 88.5912C94.3701 88.5703 94.3339 88.5469 94.2976 88.5208C94.2614 88.4948 94.2304 88.4609 94.1993 88.4193C94.1682 88.388 94.1424 88.3541 94.1165 88.3177C94.0906 88.2812 94.0699 88.2421 94.0492 88.2005C94.0104 88.138 93.9741 88.0546 93.9457 87.953C93.8965 87.8176 93.8629 87.6847 93.8448 87.5519C93.8344 87.5102 93.8318 87.4686 93.8318 87.4295V87.3826H93.8163C93.8059 87.4451 93.7982 87.505 93.7982 87.5675V87.7525C93.7956 87.7837 93.7982 87.8124 93.8008 87.8358C93.8059 87.8619 93.8137 87.8905 93.8215 87.9218C93.8215 87.953 93.8215 87.9817 93.8266 88.0051C93.8318 88.0312 93.8396 88.0598 93.8473 88.0911C93.868 88.1432 93.8887 88.1927 93.9146 88.2369C93.9379 88.2838 93.9612 88.3281 93.9819 88.3672C94.0414 88.4505 94.101 88.513 94.1631 88.5547C94.1838 88.5755 94.2019 88.5886 94.2148 88.5938C94.2278 88.599 94.2485 88.6068 94.2692 88.6172L94.3597 88.6641C94.3597 88.6641 94.3779 88.6667 94.383 88.6719C94.3882 88.6771 94.396 88.6797 94.4063 88.6797H94.4374C94.4374 88.6797 94.4633 88.6954 94.484 88.6954H94.515C94.515 88.6954 94.5331 88.698 94.5383 88.7032C94.5435 88.7084 94.5512 88.711 94.5616 88.711H94.6082H94.6392V88.6954V88.7006ZM97.8457 74.3695C97.825 74.4216 97.8043 74.4659 97.7836 74.5076C97.7628 74.5493 97.7421 74.5935 97.7214 74.6456C97.7007 74.6977 97.68 74.742 97.6593 74.7837C97.6386 74.8254 97.6179 74.8644 97.5972 74.9061C97.5558 74.9868 97.5144 75.0676 97.473 75.1431C97.4316 75.2187 97.3902 75.2942 97.3488 75.3645C97.1728 75.6589 97.0149 75.9037 96.8804 76.0964C96.7976 76.198 96.7277 76.284 96.6707 76.3543C96.6138 76.4246 96.5646 76.4872 96.5232 76.5366L96.4611 76.5965C96.4404 76.6278 96.4249 76.6408 96.4145 76.6408C96.4042 76.6512 96.399 76.6617 96.399 76.6721C96.399 76.6825 96.3938 76.6877 96.3835 76.6877C96.4352 76.6486 96.4922 76.6044 96.5543 76.5601C96.6164 76.5158 96.6733 76.4663 96.7251 76.4168C96.7769 76.3673 96.8312 76.31 96.8881 76.2501C96.9451 76.1902 96.9994 76.1277 97.0512 76.0678C97.2479 75.8047 97.4057 75.5495 97.5196 75.3046C97.5817 75.1718 97.636 75.0494 97.6774 74.9374C97.7189 74.8254 97.7525 74.729 97.7732 74.6456C97.7939 74.5935 97.8068 74.5545 97.812 74.5232C97.8172 74.492 97.825 74.4659 97.8353 74.4477V74.3852L97.8508 74.3695H97.8457Z" fill="#2F3031"/>
<path d="M100.661 77.3155C101.14 77.352 101.5 77.4926 101.74 77.7375C101.981 77.9823 102.142 78.2714 102.217 78.6048C102.294 78.9382 102.307 79.2872 102.255 79.6519C102.204 80.014 102.131 80.3395 102.035 80.6261C101.823 81.2694 101.564 81.793 101.256 82.1993C100.951 82.6056 100.641 82.9182 100.327 83.1396C100.014 83.361 99.7167 83.5069 99.4346 83.5798C99.1525 83.6527 98.9274 83.6892 98.754 83.6866C98.4486 83.6736 98.1743 83.5902 97.9336 83.4365C97.6903 83.2855 97.5325 83.0484 97.4548 82.7307C97.3669 82.4025 97.341 82.0378 97.3694 81.6367C97.4005 81.2382 97.4807 80.8475 97.6075 80.4646C97.7343 80.0817 97.9026 79.7274 98.1122 79.4045C98.3192 79.0789 98.5469 78.8158 98.7954 78.6152C98.9118 78.2271 99.1292 77.9042 99.4424 77.6489C99.7555 77.391 100.162 77.2816 100.661 77.3207V77.3155ZM98.3063 79.6493C98.1303 79.9332 97.9931 80.238 97.8974 80.5583C97.8016 80.8787 97.7369 81.1861 97.7007 81.4778C97.6645 81.7695 97.6541 82.03 97.6671 82.2618C97.68 82.4936 97.7085 82.6655 97.7602 82.7775C97.7292 82.1524 97.7757 81.5585 97.9077 80.9959C97.9621 80.7615 98.0397 80.5219 98.1381 80.277C98.239 80.0322 98.3658 79.8004 98.5211 79.5816C98.6763 79.3628 98.8627 79.1622 99.0801 78.9747C99.2974 78.7871 99.5588 78.6361 99.8642 78.5163C99.7012 78.5345 99.5278 78.584 99.344 78.6621C99.1913 78.7429 99.0231 78.8549 98.842 79.0007C98.6608 79.1466 98.4822 79.3628 98.3063 79.6467V79.6493ZM101.293 80.2432C101.432 79.7743 101.492 79.4019 101.476 79.131C101.461 78.8601 101.412 78.6517 101.332 78.5058C101.231 78.3417 101.101 78.2271 100.938 78.162C100.563 78.0656 100.283 78.1125 100.097 78.3053C100.32 78.3496 100.501 78.4173 100.635 78.5137C100.773 78.6074 100.868 78.709 100.928 78.8184C100.987 78.9278 101.011 79.0242 101 79.1101C100.99 79.1961 100.946 79.256 100.876 79.2846C100.762 79.3237 100.669 79.3159 100.594 79.2586C100.519 79.2013 100.441 79.1518 100.358 79.1101C100.278 79.0789 100.154 79.0867 99.991 79.1362C99.828 79.1857 99.6365 79.3576 99.4191 79.6519C99.3259 79.7952 99.1758 80.0192 99.0438 80.2927C98.8653 80.6391 98.7359 80.9673 98.6556 81.2798C98.5754 81.5924 98.5288 81.8711 98.5133 82.1159C98.5004 82.3608 98.5133 82.5587 98.5573 82.7072C98.6013 82.8557 98.6582 82.9416 98.7307 82.9625C98.9532 83.0276 99.1939 82.9859 99.4501 82.8427C99.7063 82.6968 99.9548 82.491 100.193 82.2227C100.431 81.9545 100.646 81.6445 100.84 81.2929C101.034 80.9412 101.184 80.5922 101.29 80.2458L101.293 80.2432Z" fill="#2F3031"/>
<path d="M106.368 79.9931C106.399 79.9228 106.432 79.8368 106.471 79.7405C106.507 79.6441 106.544 79.5503 106.575 79.4566C106.616 79.3446 106.66 79.2378 106.701 79.1362C106.722 79.0763 106.766 79.0059 106.833 78.9304C106.901 78.8549 106.991 78.8288 107.103 78.8497C107.165 78.8705 107.242 78.907 107.338 78.9617C107.434 79.0138 107.524 79.0945 107.61 79.2039C107.695 79.3133 107.752 79.4461 107.781 79.605C107.809 79.7639 107.786 79.9567 107.711 80.1807C107.68 80.2718 107.633 80.3942 107.576 80.5479C107.519 80.7016 107.46 80.8579 107.403 81.022C107.343 81.1861 107.286 81.3371 107.229 81.4804C107.172 81.6237 107.126 81.7409 107.095 81.832C106.872 82.4337 106.735 82.8974 106.678 83.2256C106.624 83.5537 106.634 83.7439 106.717 83.796C106.727 83.8064 106.743 83.8168 106.763 83.8272C106.774 83.8377 106.784 83.8507 106.795 83.8663C106.805 83.8819 106.815 83.895 106.826 83.9054C106.864 83.9783 106.864 84.0591 106.823 84.1502C106.761 84.2518 106.624 84.3221 106.414 84.3586C106.205 84.3977 106.021 84.3534 105.858 84.2284C105.806 84.1971 105.767 84.1554 105.736 84.1033C105.705 84.0512 105.682 83.9992 105.661 83.9497C105.63 83.8976 105.607 83.8403 105.586 83.7804C105.558 83.697 105.534 83.6189 105.521 83.5407C105.508 83.4626 105.495 83.3949 105.485 83.3323C105.475 83.2594 105.477 83.1943 105.488 83.1318C105.488 82.9989 105.519 82.8036 105.573 82.5483C105.325 82.9026 105.05 83.1969 104.75 83.4287C104.452 83.6605 104.15 83.7491 103.844 83.6918C103.549 83.6371 103.329 83.5199 103.184 83.3454C103.039 83.1683 102.939 82.9781 102.879 82.7723C102.812 82.5353 102.783 82.28 102.799 82.0013C102.812 81.8268 102.835 81.6471 102.866 81.4648C102.897 81.2825 102.931 81.1184 102.964 80.9751C103.008 80.8006 103.05 80.6339 103.094 80.4698C103.2 80.1442 103.316 79.8134 103.443 79.4826C103.57 79.1518 103.707 78.8549 103.852 78.5892C103.966 78.3756 104.103 78.1568 104.258 77.9328C104.414 77.7088 104.626 77.5525 104.892 77.464C105.055 77.4041 105.224 77.4015 105.397 77.4562C105.57 77.5109 105.679 77.5942 105.728 77.7062C105.749 77.7583 105.746 77.8182 105.728 77.8911C105.718 77.9224 105.702 77.9432 105.682 77.951C105.568 78.063 105.444 78.2297 105.309 78.4538C105.195 78.6465 105.058 78.9122 104.9 79.2482C104.742 79.5842 104.574 80.0114 104.393 80.5323C104.318 80.7146 104.256 80.8996 104.201 81.0819C104.147 81.2356 104.098 81.3971 104.049 81.5716C104 81.7461 103.966 81.9024 103.943 82.0456C103.899 82.2905 103.883 82.478 103.896 82.6056C103.909 82.7333 103.938 82.8296 103.976 82.8922C104.015 82.9651 104.067 83.0015 104.126 83.0015C104.269 82.9937 104.416 82.9286 104.572 82.8088C104.727 82.689 104.882 82.5301 105.037 82.3374C105.193 82.1446 105.34 81.931 105.482 81.6966C105.622 81.4622 105.754 81.233 105.873 81.009C105.992 80.785 106.096 80.5818 106.179 80.3995C106.261 80.2171 106.326 80.0791 106.368 79.9879V79.9931ZM103.648 83.4001C103.508 83.223 103.41 82.9963 103.353 82.7202C103.306 82.4832 103.285 82.1811 103.296 81.8112C103.306 81.4413 103.402 80.9881 103.583 80.4463C103.85 79.6415 104.08 79.0242 104.282 78.597C104.388 78.3522 104.486 78.149 104.579 77.9849C104.445 78.1151 104.31 78.3053 104.176 78.5475C104.062 78.7507 103.927 79.0242 103.774 79.3654C103.622 79.7066 103.472 80.1364 103.322 80.6573C103.171 81.1783 103.099 81.6132 103.104 81.9623C103.109 82.3113 103.148 82.59 103.223 82.801C103.296 83.012 103.379 83.1656 103.469 83.2568C103.56 83.3506 103.619 83.3975 103.65 83.3975L103.648 83.4001ZM106.481 82.8557C106.567 82.478 106.663 82.129 106.763 81.806C106.864 81.4856 106.963 81.2069 107.059 80.9725C107.175 80.6964 107.284 80.4489 107.39 80.2249C107.183 80.4984 107.02 80.7876 106.903 81.0949C106.787 81.3997 106.696 81.6862 106.632 81.9519C106.556 82.2592 106.507 82.5588 106.481 82.8557Z" fill="#2F3031"/>
<path d="M110.568 77.6228C110.638 77.6333 110.705 77.6385 110.767 77.6333C110.829 77.628 110.878 77.6228 110.92 77.6124C110.961 77.602 111.003 77.5994 111.041 77.5994C111.062 77.589 111.111 77.5786 111.186 77.5629C111.261 77.5473 111.342 77.5525 111.422 77.5733C111.492 77.5942 111.562 77.6254 111.626 77.6697C111.691 77.7114 111.748 77.7843 111.8 77.8885C111.87 78.0135 111.903 78.1412 111.901 78.274C111.898 78.4068 111.883 78.5345 111.849 78.6569C111.818 78.7793 111.779 78.8887 111.738 78.9851C111.696 79.0815 111.67 79.1466 111.657 79.1752C111.479 79.5529 111.267 79.9645 111.021 80.4125C110.775 80.8605 110.558 81.2929 110.369 81.7096C110.18 82.1264 110.055 82.4988 109.993 82.827C109.934 83.1552 110.004 83.387 110.206 83.5225C110.216 83.5329 110.231 83.5433 110.252 83.5537C110.283 83.585 110.296 83.6215 110.296 83.6631C110.286 83.7048 110.257 83.7465 110.211 83.7934C110.164 83.8402 110.094 83.8715 110.004 83.8897C109.841 83.9184 109.672 83.8897 109.502 83.7986C109.331 83.71 109.189 83.5668 109.08 83.3688C108.971 83.1734 108.906 82.9234 108.891 82.6212C108.875 82.3191 108.945 81.9675 109.103 81.5716C109.24 81.2147 109.401 80.8657 109.584 80.5245C109.768 80.1833 109.944 79.8733 110.118 79.5946C110.288 79.3159 110.444 79.0763 110.578 78.8783C110.713 78.6803 110.801 78.5397 110.845 78.4589C110.907 78.3469 110.912 78.2584 110.855 78.1907C110.801 78.1229 110.687 78.0943 110.514 78.1021C110.413 78.1099 110.325 78.0995 110.255 78.0682C110.017 78.3938 109.776 78.696 109.533 78.9799C109.289 79.2638 109.064 79.5217 108.857 79.7535C108.837 79.7743 108.806 79.7899 108.764 79.8056C108.723 79.8212 108.705 79.7613 108.705 79.6285C108.705 79.5164 108.733 79.381 108.787 79.2221C108.839 79.0632 108.883 78.9434 108.914 78.8627C108.914 78.8523 108.919 78.8418 108.93 78.8314L108.961 78.7715C109.075 78.6595 109.194 78.5345 109.318 78.3912C109.442 78.2506 109.577 78.0917 109.722 77.9198C109.509 77.8156 109.385 77.6541 109.346 77.4379C109.308 77.2217 109.326 76.9873 109.396 76.732C109.465 76.4768 109.577 76.2215 109.727 75.9689C109.877 75.7136 110.043 75.5 110.224 75.3229C110.405 75.1458 110.583 75.026 110.765 74.9608C110.943 74.8957 111.093 74.9322 111.215 75.0676C111.336 75.2031 111.401 75.3646 111.414 75.5547C111.427 75.7448 111.399 75.9506 111.329 76.1772C111.259 76.4012 111.158 76.6357 111.021 76.8805C110.884 77.1253 110.734 77.3728 110.568 77.628V77.6228ZM109.882 80.7485C109.999 80.4932 110.123 80.2406 110.26 79.9853C110.394 79.73 110.537 79.467 110.684 79.1909C110.436 79.506 110.206 79.8394 109.999 80.1963C109.82 80.501 109.652 80.8474 109.489 81.2355C109.326 81.6236 109.214 82.017 109.16 82.4155C109.225 82.2514 109.292 82.0795 109.365 81.8945C109.427 81.7409 109.504 81.5663 109.592 81.3684C109.68 81.1704 109.779 80.9647 109.882 80.7485ZM110.206 77.2946C110.35 77.0915 110.477 76.8935 110.589 76.7008C110.697 76.508 110.775 76.3283 110.816 76.1668C110.871 75.9636 110.863 75.8751 110.798 75.9063C110.731 75.935 110.651 76.0236 110.558 76.172C110.464 76.3205 110.374 76.5002 110.291 76.7138C110.206 76.9274 110.18 77.1227 110.206 77.2972V77.2946Z" fill="#2F3031"/>
<path d="M112.726 83.9549C112.716 83.9757 112.706 84.0018 112.695 84.0304C112.674 84.0825 112.649 84.1216 112.618 84.1528C112.576 84.2023 112.532 84.2362 112.486 84.2518C112.439 84.2675 112.395 84.2779 112.356 84.2883C112.315 84.2987 112.268 84.3013 112.219 84.3013C112.077 84.2883 111.965 84.2466 111.885 84.1737C111.805 84.1007 111.74 84.0122 111.691 83.9106C111.642 83.8064 111.608 83.6944 111.588 83.572C111.569 83.4496 111.559 83.3298 111.562 83.2178C111.577 82.8401 111.66 82.3634 111.81 81.7904C111.864 81.5872 111.934 81.3528 112.017 81.0949C112.103 80.8345 112.201 80.5636 112.312 80.2849C112.423 80.0036 112.548 79.7197 112.682 79.4279C112.819 79.1388 112.964 78.8549 113.122 78.5814C113.246 78.347 113.402 78.1152 113.583 77.8807C113.764 77.6463 113.994 77.4822 114.269 77.3832C114.442 77.3025 114.615 77.2895 114.789 77.3442C114.962 77.3989 115.071 77.4874 115.12 77.6098C115.149 77.6932 115.143 77.7583 115.102 77.8104C115.081 77.8417 115.061 77.8625 115.04 77.8703C114.864 78.0631 114.683 78.3157 114.494 78.6309C114.328 78.894 114.139 79.2352 113.93 79.6519C113.72 80.0687 113.505 80.5792 113.283 81.1809C113.303 81.1288 113.324 81.0845 113.345 81.0428C113.365 81.0012 113.386 80.9569 113.407 80.9048C113.699 80.3135 113.974 79.8343 114.23 79.4644C114.483 79.0945 114.714 78.8028 114.921 78.5892C115.128 78.3756 115.304 78.2272 115.454 78.1438C115.601 78.0579 115.723 78.0058 115.816 77.9875C115.858 77.9771 115.904 77.9719 115.961 77.9667C116.018 77.9615 116.085 77.9719 116.168 77.9927C116.22 78.0032 116.269 78.024 116.321 78.0553C116.362 78.0761 116.404 78.1099 116.45 78.1568C116.497 78.2037 116.533 78.2636 116.562 78.334C116.691 78.6127 116.681 78.9955 116.53 79.4878C116.833 79.0112 117.108 78.6517 117.356 78.4147C117.604 78.1777 117.814 78.0084 117.99 77.9094C118.194 77.8 118.378 77.7505 118.541 77.7635C118.725 77.7974 118.86 77.8859 118.95 78.0292C119.03 78.1646 119.064 78.3652 119.056 78.6309C119.048 78.8966 118.942 79.2847 118.743 79.7952C118.637 80.0504 118.528 80.3187 118.412 80.5974C118.295 80.8787 118.184 81.1444 118.081 81.3997C117.899 81.8894 117.778 82.2905 117.713 82.6004C117.648 82.913 117.625 83.1292 117.643 83.2516L117.672 83.3897C117.682 83.4522 117.685 83.5225 117.685 83.6059C117.685 83.6892 117.669 83.7647 117.643 83.8351C117.617 83.9054 117.576 83.9627 117.519 84.0018C117.462 84.0408 117.379 84.0513 117.265 84.0278C117.175 83.9966 117.087 83.9523 117.007 83.9002C116.926 83.8481 116.862 83.7856 116.81 83.7127C116.73 83.6085 116.678 83.4834 116.655 83.335C116.631 83.1865 116.621 83.0458 116.621 82.913C116.621 82.7593 116.637 82.6004 116.657 82.4363C116.737 81.8633 116.862 81.332 117.03 80.8423C117.201 80.3526 117.353 79.9593 117.488 79.665C117.625 79.3706 117.726 79.1466 117.796 78.9929C117.863 78.8393 117.863 78.7429 117.793 78.7012C117.762 78.6908 117.723 78.6986 117.679 78.7221C117.633 78.7481 117.563 78.821 117.47 78.9408C117.377 79.0633 117.245 79.2482 117.074 79.4956C116.903 79.7457 116.67 80.0817 116.38 80.5089C116.088 80.9465 115.858 81.3502 115.684 81.7227C115.511 82.0951 115.376 82.4181 115.28 82.6942C115.164 83.0198 115.084 83.3167 115.04 83.5824C115.027 83.684 114.993 83.7569 114.939 83.796C114.882 83.8351 114.817 83.8611 114.747 83.8689C114.665 83.8898 114.574 83.8872 114.473 83.8663C114.32 83.8325 114.204 83.7726 114.124 83.684C114.043 83.5954 113.987 83.4965 113.953 83.3897C113.919 83.2803 113.904 83.1735 113.911 83.0667C113.917 82.9599 113.927 82.8687 113.937 82.7984C114.002 82.4598 114.121 82.0847 114.289 81.6654C114.458 81.2486 114.628 80.8553 114.802 80.488C114.975 80.1208 115.13 79.8082 115.265 79.5477C115.4 79.2873 115.475 79.1388 115.485 79.0971C115.506 79.045 115.503 79.0164 115.48 79.006C115.454 78.9955 115.394 79.0346 115.301 79.1258C115.208 79.2169 115.079 79.3732 114.913 79.5972C114.747 79.8212 114.533 80.1364 114.274 80.5427C114.056 80.8787 113.862 81.2147 113.694 81.5482C113.526 81.8842 113.378 82.2019 113.254 82.5041C113.127 82.8036 113.021 83.0797 112.938 83.3298C112.853 83.5798 112.783 83.7856 112.731 83.9497L112.726 83.9549ZM112.015 82.3139C112.216 81.7227 112.429 81.147 112.649 80.5844C112.744 80.35 112.845 80.1051 112.957 79.8499C113.068 79.5946 113.179 79.3472 113.296 79.1102C113.412 78.8705 113.528 78.6439 113.648 78.4303C113.767 78.2167 113.891 78.024 114.015 77.8521C113.756 78.1256 113.508 78.4694 113.267 78.8862C113.057 79.243 112.84 79.7014 112.615 80.2692C112.387 80.8345 112.188 81.5169 112.015 82.3139ZM114.52 82.2723C114.646 81.9363 114.778 81.6002 114.916 81.2642C115.032 80.9699 115.159 80.6547 115.296 80.3239C115.433 79.9931 115.57 79.691 115.705 79.4149C115.495 79.7405 115.309 80.0713 115.141 80.4073C114.993 80.6912 114.861 81.0012 114.74 81.332C114.618 81.6628 114.546 81.9779 114.52 82.2749V82.2723ZM118.295 79.803C118.21 80.0062 118.145 80.1885 118.096 80.3474C118.047 80.5063 118.013 80.6417 117.99 80.7537C117.959 80.8866 117.936 81.0038 117.925 81.1053C118.011 80.8293 118.122 80.5427 118.257 80.2406C118.394 79.9411 118.521 79.6129 118.637 79.2534C118.691 79.0789 118.72 78.9382 118.728 78.8314C118.735 78.7247 118.728 78.6335 118.709 78.5632C118.689 78.4798 118.66 78.4199 118.621 78.3782C118.65 78.6153 118.632 78.8315 118.575 79.032C118.515 79.23 118.422 79.4878 118.298 79.8056L118.295 79.803Z" fill="#2F3031"/>
<path d="M123.456 81.4152C123.567 81.4282 123.629 81.5272 123.642 81.7173C123.655 81.9074 123.624 82.108 123.549 82.3242C123.463 82.5482 123.347 82.7696 123.197 82.9884C123.047 83.2072 122.86 83.3999 122.638 83.564C122.415 83.7307 122.159 83.8584 121.869 83.9443C121.577 84.0329 121.253 84.0589 120.899 84.0225C120.562 83.986 120.27 83.8818 120.016 83.7021C119.804 83.5562 119.618 83.3348 119.452 83.0405C119.289 82.7462 119.235 82.3268 119.294 81.785C119.33 81.436 119.416 81.0844 119.553 80.7275C119.669 80.4228 119.845 80.0946 120.078 79.7429C120.311 79.3913 120.635 79.0605 121.046 78.7506C121.24 78.6099 121.442 78.4901 121.647 78.3911C121.82 78.3104 122.009 78.2505 122.213 78.2062C122.418 78.1619 122.607 78.1827 122.778 78.2687C123.08 78.4067 123.261 78.6099 123.318 78.8756C123.375 79.1439 123.357 79.3835 123.261 79.5971C123.21 79.7091 123.137 79.8445 123.049 80.0008C122.961 80.1597 122.827 80.3238 122.646 80.4957C122.464 80.6676 122.221 80.8395 121.913 81.0088C121.605 81.1781 121.212 81.3266 120.73 81.4542C120.604 81.7798 120.523 82.0768 120.49 82.3424C120.467 82.5769 120.482 82.8009 120.534 83.0118C120.586 83.2228 120.741 83.3713 120.994 83.4572C121.238 83.5432 121.468 83.5458 121.691 83.4677C121.911 83.3895 122.11 83.2697 122.291 83.1082C122.472 82.9467 122.627 82.7592 122.757 82.5456C122.886 82.332 122.985 82.1341 123.047 81.9491C123.067 81.9074 123.091 81.858 123.117 81.7954C123.142 81.7355 123.173 81.673 123.21 81.6131C123.246 81.5532 123.285 81.5037 123.326 81.4699C123.368 81.436 123.409 81.4178 123.45 81.4178L123.456 81.4152ZM119.633 81.6991C119.729 81.4021 119.856 81.1078 120.011 80.8135C120.146 80.5582 120.316 80.2899 120.518 80.006C120.72 79.7221 120.966 79.4642 121.253 79.2324C121.644 78.9199 121.965 78.7297 122.216 78.662C122.467 78.5943 122.658 78.5865 122.788 78.6386C122.746 78.5969 122.702 78.5552 122.653 78.5135C122.542 78.4406 122.389 78.4172 122.195 78.4458C122.074 78.464 121.895 78.5448 121.665 78.6854C121.434 78.8261 121.189 79.0267 120.93 79.2897C120.671 79.5528 120.425 79.8862 120.19 80.2873C119.954 80.6885 119.768 81.1599 119.628 81.7017L119.633 81.6991ZM122.423 79.9227C122.485 79.8419 122.524 79.7612 122.542 79.6778C122.558 79.5971 122.55 79.5294 122.514 79.4773C122.477 79.4252 122.415 79.3991 122.325 79.3991C122.234 79.3991 122.12 79.4382 121.988 79.5163C121.854 79.5971 121.724 79.7039 121.595 79.8419C121.465 79.9774 121.354 80.1128 121.261 80.2457C121.168 80.3785 121.093 80.4931 121.036 80.5895C120.979 80.6858 120.961 80.7353 120.982 80.7353C121.062 80.7353 121.173 80.7119 121.31 80.6624C121.447 80.6129 121.587 80.5452 121.724 80.4618C121.864 80.3759 121.996 80.2873 122.125 80.191C122.255 80.0946 122.353 80.006 122.426 79.9253L122.423 79.9227Z" fill="#2F3031"/>
<path d="M128.846 74.8175C128.805 74.8696 128.763 74.9243 128.722 74.9842C128.691 75.0363 128.657 75.0936 128.621 75.1587C128.585 75.2238 128.551 75.2942 128.52 75.3645C129.03 75.341 129.607 75.3541 130.254 75.4036C130.901 75.453 131.644 75.5833 132.487 75.7891C132.588 75.8099 132.679 75.8437 132.762 75.8854C132.832 75.9167 132.894 75.9557 132.943 76.0026C132.992 76.0495 133.013 76.099 133.002 76.1485C132.992 76.1902 132.964 76.224 132.917 76.2553C132.87 76.2865 132.798 76.2892 132.694 76.2683C132.267 76.2214 131.804 76.1902 131.305 76.1719C130.878 76.1563 130.378 76.1563 129.809 76.1719C129.237 76.1902 128.626 76.2501 127.974 76.3543C127.544 77.2086 127.164 78.0603 126.833 78.9069C126.501 79.7534 126.222 80.527 125.999 81.2329C125.777 81.9361 125.606 82.53 125.495 83.0093C125.381 83.4885 125.324 83.7907 125.321 83.9131C125.319 84.1293 125.283 84.2673 125.215 84.3351C125.148 84.4002 125.073 84.4236 124.993 84.4002C124.913 84.3793 124.825 84.3272 124.734 84.2439C124.643 84.1605 124.568 84.0772 124.509 83.9938C124.46 83.9313 124.429 83.8506 124.421 83.7464C124.413 83.6448 124.413 83.5354 124.426 83.4234C124.439 83.301 124.46 83.1682 124.493 83.0249C124.592 82.5248 124.718 81.996 124.874 81.4386C125.029 80.8812 125.202 80.3264 125.394 79.769C125.585 79.2142 125.782 78.6672 125.989 78.1333C126.196 77.5993 126.393 77.0966 126.582 76.6278C126.509 76.6486 126.439 76.6668 126.367 76.6851C126.294 76.7059 126.219 76.7241 126.137 76.7424C125.943 76.7919 125.774 76.8205 125.632 76.8283C125.51 76.8361 125.404 76.8231 125.319 76.7867C125.233 76.7502 125.205 76.6642 125.239 76.5314C125.321 76.3595 125.443 76.1954 125.596 76.0443C125.73 75.9141 125.904 75.7891 126.121 75.6744C126.336 75.5598 126.608 75.4895 126.934 75.4635C126.965 75.4635 126.993 75.4635 127.019 75.4557C127.045 75.4504 127.068 75.4478 127.089 75.4478C127.247 75.091 127.381 74.7941 127.49 74.5544C127.601 74.3148 127.682 74.1403 127.733 74.0283C127.827 73.8251 127.946 73.6688 128.09 73.5646C128.235 73.4578 128.383 73.3901 128.536 73.3563C128.688 73.3224 128.836 73.312 128.978 73.325C129.12 73.338 129.242 73.3589 129.343 73.3927C129.465 73.4448 129.542 73.5256 129.576 73.635C129.61 73.7418 129.612 73.8381 129.579 73.9189C129.547 73.9892 129.506 74.0517 129.454 74.1012C129.423 74.1325 129.397 74.1507 129.377 74.1611C129.159 74.3825 128.983 74.6013 128.849 74.8149L128.846 74.8175ZM125.497 80.5817C125.614 80.2248 125.725 79.8888 125.831 79.5711C125.937 79.2559 126.046 78.9433 126.157 78.6386C126.269 78.3338 126.377 78.0265 126.483 77.7217C126.589 77.4144 126.701 77.094 126.817 76.758C126.481 77.5212 126.175 78.2817 125.901 79.0371C125.785 79.3627 125.668 79.7039 125.552 80.0555C125.435 80.4072 125.327 80.7588 125.223 81.113C125.122 81.4647 125.034 81.8137 124.964 82.1549C124.894 82.4961 124.84 82.8165 124.806 83.1135C124.861 82.879 124.925 82.6238 125.001 82.3477C125.055 82.1133 125.125 81.8424 125.21 81.535C125.296 81.2277 125.391 80.9125 125.497 80.5869V80.5817ZM128.709 73.5855C128.536 73.5725 128.398 73.6037 128.295 73.6792C128.191 73.7548 128.114 73.8329 128.062 73.9137C128 74.0257 127.953 74.1429 127.92 74.2653C127.992 74.1533 128.072 74.0569 128.16 73.9762C128.248 73.8954 128.334 73.8251 128.414 73.7652C128.507 73.6949 128.605 73.635 128.706 73.5855H128.709Z" fill="#2F3031"/>
</g>
<defs>
<clipPath id="clip0_3944_8693">
<rect width="97" height="64" fill="white" transform="translate(36 33)"/>
</clipPath>
</defs>
</svg>
