<svg width="108" height="84" viewBox="0 0 108 84" fill="none" xmlns="http://www.w3.org/2000/svg">
<g clip-path="url(#clip0_3953_9070)">
<path d="M101.261 32.2554C104.895 32.2554 107.84 29.31 107.84 25.6768C107.84 22.0435 104.895 19.0981 101.261 19.0981C97.6281 19.0981 94.6827 22.0435 94.6827 25.6768C94.6827 29.31 97.6281 32.2554 101.261 32.2554Z" fill="#A61E22"/>
<path d="M81.4806 28.9885L87.0825 31.6379L84.4219 37.2399" stroke="black" stroke-width="2" stroke-miterlimit="10" stroke-linecap="round"/>
<path d="M36.5754 70.7954C48.2317 70.7954 57.6809 61.3462 57.6809 49.6899C57.6809 38.0337 48.2317 28.5845 36.5754 28.5845C24.9192 28.5845 15.47 38.0337 15.47 49.6899C15.47 61.3462 24.9192 70.7954 36.5754 70.7954Z" stroke="black" stroke-width="2" stroke-miterlimit="10" stroke-linecap="round"/>
<path d="M32.2645 15.0343C35.9845 15.0343 39.0003 12.0186 39.0003 8.29853C39.0003 4.57846 35.9845 1.56274 32.2645 1.56274C28.5444 1.56274 25.5287 4.57846 25.5287 8.29853C25.5287 12.0186 28.5444 15.0343 32.2645 15.0343Z" stroke="black" stroke-width="2" stroke-miterlimit="10" stroke-linecap="round"/>
<path d="M6.89301 80.3602C10.0737 80.3602 12.6521 77.7818 12.6521 74.6011C12.6521 71.4205 10.0737 68.842 6.89301 68.842C3.71235 68.842 1.13391 71.4205 1.13391 74.6011C1.13391 77.7818 3.71235 80.3602 6.89301 80.3602Z" stroke="black" stroke-width="2" stroke-miterlimit="10" stroke-linecap="round"/>
<path d="M48.8233 78.3618C53.7214 78.3618 57.692 74.3911 57.692 69.4931C57.692 64.595 53.7214 60.6243 48.8233 60.6243C43.9252 60.6243 39.9545 64.595 39.9545 69.4931C39.9545 74.3911 43.9252 78.3618 48.8233 78.3618Z" stroke="black" stroke-width="2" stroke-miterlimit="10" stroke-linecap="round"/>
<path d="M56.1429 80.349C54.1109 81.6737 51.6973 82.4371 49.0928 82.4371C46.2525 82.4371 43.6368 81.5277 41.5038 79.9785" stroke="black" stroke-width="2" stroke-miterlimit="10" stroke-linecap="round"/>
<path d="M56.4572 42.6061L86.5661 31.8738" stroke="black" stroke-width="2" stroke-miterlimit="10" stroke-linecap="round"/>
<path d="M33.1177 15.1465L34.1168 28.7303" stroke="black" stroke-width="2" stroke-miterlimit="10" stroke-linecap="round"/>
<path d="M11.7653 71.5363L21.1617 64.1157" stroke="black" stroke-width="2" stroke-miterlimit="10" stroke-linecap="round"/>
</g>
<defs>
<clipPath id="clip0_3953_9070">
<rect width="107.84" height="83.1196" fill="white" transform="translate(0 0.440186)"/>
</clipPath>
</defs>
</svg>
