<svg width="260" height="130" viewBox="0 0 260 130" fill="none" xmlns="http://www.w3.org/2000/svg">
<g clip-path="url(#clip0_3947_8968)">
<path d="M75.4999 55.1313V45H36V74.0002L36.0326 73.9807L36.0196 74.0002L48.5076 84.9935V85H48.5142H62.9857H62.9922V84.9935L75.4803 74.0002L75.4673 73.9807L75.4999 74.0002V73.9807V61.2696H56.2458L65.1062 69.0739L58.0401 74.8882H58.0205H53.4794H53.4598L46.1979 68.9118V55.1313H75.4999Z" fill="#B71F31"/>
<path d="M96.9724 63.9856H93.1033V62.6762H98.0098L98.61 61.0104H91.1133V68.9896H96.9724C97.5726 68.9896 98.0293 68.86 98.3425 68.6007C98.6231 68.3285 98.7666 67.9007 98.7666 67.3367V65.6385C98.7666 65.081 98.6231 64.6597 98.336 64.3875C98.0359 64.1217 97.5791 63.9921 96.9724 63.9921V63.9856ZM96.8092 66.896C96.8092 67.0126 96.7962 67.1617 96.7179 67.233C96.6722 67.2654 96.5417 67.3238 96.2351 67.3238H93.0968V65.6514H96.2351C96.5352 65.6514 96.6657 65.7033 96.7114 65.7357C96.7766 65.794 96.8092 65.9107 96.8092 66.0792V66.896Z" fill="#B71F31"/>
<path d="M106.655 61.0104H100.867V68.9896H102.851V66.0209H106.648C107.262 66.0209 107.718 65.8848 108.018 65.6125C108.305 65.3468 108.449 64.9255 108.449 64.3615V62.6633C108.449 62.0929 108.305 61.6651 108.012 61.3928C107.712 61.14 107.248 61.0104 106.648 61.0104H106.655ZM102.857 62.6762H105.924C106.263 62.6762 106.374 62.7411 106.407 62.767C106.466 62.8188 106.498 62.942 106.498 63.1105V63.9208C106.498 64.0893 106.466 64.2124 106.407 64.2578C106.374 64.2838 106.263 64.3486 105.924 64.3486H102.857V62.6762Z" fill="#B71F31"/>
<path d="M110.139 61.3993C109.852 61.6651 109.708 62.0929 109.708 62.6633V64.4523C109.708 65.0097 109.852 65.4311 110.139 65.7033C110.439 65.9691 110.902 66.0987 111.516 66.0987H111.979L108.651 68.9832H111.6L114.504 66.0987H115.372V68.9832H117.368V61.0039H111.509C110.902 61.0039 110.439 61.1335 110.126 61.3928L110.139 61.3993ZM115.378 62.6762V64.4588H112.259C111.933 64.4588 111.816 64.4004 111.777 64.3745C111.698 64.3032 111.679 64.1476 111.679 64.031V63.117C111.679 62.9485 111.711 62.8318 111.77 62.78C111.816 62.7475 111.94 62.6892 112.259 62.6892H115.378V62.6762Z" fill="#B71F31"/>
<path d="M125.831 63.9661H121.583V61.0104H119.567V68.9896H121.583V65.7098H125.831V68.9896H127.86V61.0104H125.831V63.9661Z" fill="#B71F31"/>
<path d="M147.668 61.0104H144.693L141.477 63.9661V61.0104H139.434V68.9896H141.477V65.8459L145.013 68.9896H148.262L143.225 64.7764L147.668 61.0104Z" fill="#B71F31"/>
<path d="M161.377 65.6644H164.678V64.0115H161.377V62.6568H166.629V61.0104H159.361V68.9896H166.701V67.2071H161.377V65.6644Z" fill="#B71F31"/>
<path d="M171.672 61.0104L167.947 68.9896H170.009L172.273 63.7328L174.68 68.9896H176.983L173.049 61.0104H171.672Z" fill="#B71F31"/>
<path d="M184.428 63.9856H180.578V61.0104H178.595V68.9896H184.428C185.028 68.9896 185.485 68.86 185.798 68.6007C186.085 68.3285 186.229 67.9007 186.229 67.3367V65.6385C186.229 65.081 186.085 64.6597 185.792 64.3875C185.491 64.1217 185.035 63.9921 184.428 63.9921V63.9856ZM184.265 66.896C184.265 67.0126 184.252 67.1617 184.173 67.2395C184.128 67.2719 184.004 67.3238 183.691 67.3238H180.578V65.6514H183.691C184.01 65.6514 184.134 65.7098 184.167 65.7357C184.232 65.794 184.265 65.9107 184.265 66.0792V66.896Z" fill="#B71F31"/>
<path d="M192.512 65.4764L189.465 61.0104H187.854V68.9896H189.543V64.0698C189.563 64.1023 189.589 64.1347 189.609 64.1606L192.127 68.0692H192.656L195.024 64.1865C195.024 64.1865 195.05 64.1476 195.07 64.1217V68.9896H196.962V61.0104H195.357L192.512 65.4764Z" fill="#B71F31"/>
<path d="M202.005 61.0104L198.051 68.9896H200.093L200.929 67.3173H204.752L205.613 68.9896H207.884L203.832 61.0104H202.005ZM203.917 65.5931H201.809L202.866 63.1105L203.917 65.5931Z" fill="#B71F31"/>
<path d="M217.984 61.0104V67.2071H215.524V61.0104H213.306V67.2071H210.709V61.0104H208.699V67.0127C208.699 67.7646 208.836 68.2702 209.117 68.5554C209.398 68.847 209.893 68.9896 210.637 68.9896H218.043C218.78 68.9896 219.282 68.847 219.582 68.5489C219.857 68.2572 219.987 67.7516 219.987 67.0062V61.0039H217.977L217.984 61.0104Z" fill="#B71F31"/>
<path d="M136.805 61.4511C136.511 61.153 136.009 61.0104 135.265 61.0104H131.527C130.783 61.0104 130.281 61.153 129.98 61.4511C129.706 61.7428 129.569 62.2484 129.569 62.9874V67.0062C129.569 67.7516 129.7 68.2507 129.98 68.5553C130.274 68.847 130.776 68.9896 131.52 68.9896H135.259C136.003 68.9896 136.505 68.847 136.805 68.5489C137.079 68.2572 137.216 67.7516 137.216 67.0062V66.1505H135.2V67.2071H131.592V62.7216H135.2V63.7782H137.216V62.9874C137.216 62.2484 137.079 61.7428 136.805 61.4447V61.4511Z" fill="#B71F31"/>
<path d="M157.005 61.4511C156.711 61.153 156.209 61.0104 155.465 61.0104H151.727C150.983 61.0104 150.48 61.153 150.18 61.4511C149.906 61.7428 149.769 62.2484 149.769 62.9874V67.0062C149.769 67.7516 149.9 68.2507 150.18 68.5553C150.474 68.847 150.976 68.9896 151.72 68.9896H155.459C156.203 68.9896 156.705 68.847 157.005 68.5489C157.279 68.2572 157.416 67.7516 157.416 67.0062V66.1505H155.4V67.2071H151.792V62.7216H155.4V63.7782H157.416V62.9874C157.416 62.2484 157.279 61.7428 157.005 61.4447V61.4511Z" fill="#B71F31"/>
</g>
<defs>
<clipPath id="clip0_3947_8968">
<rect width="184" height="40" fill="white" transform="translate(36 45)"/>
</clipPath>
</defs>
</svg>
