<svg width="260" height="130" viewBox="0 0 260 130" fill="none" xmlns="http://www.w3.org/2000/svg">
<path d="M202.559 54.1475H200.425V67.7133H202.559V61.7007H214.888V67.7133H217.022V54.1475H214.888V59.8729H202.559V54.1475ZM182.366 60.9363C182.366 67.2006 183.401 67.9127 190.464 67.9127C197.526 67.9127 198.496 67.2006 198.496 60.915C198.496 54.786 197.806 53.9386 190.464 53.9386C183.061 53.9386 182.366 54.786 182.366 60.9363ZM184.5 60.915C184.5 55.9159 184.75 55.764 190.464 55.764C196.08 55.764 196.363 56.0916 196.363 60.915C196.363 65.4915 196.08 66.0873 190.464 66.0873C184.687 66.0873 184.505 65.1449 184.505 60.915H184.5ZM167.663 55.9634H177.112C178.27 55.9634 179.113 56.6589 179.113 58.4154C179.113 60.21 178.283 60.9245 177.084 60.9245H167.663V55.9634ZM167.663 62.7522H177.112C179.589 62.7522 181.255 61.4657 181.255 58.4795C181.255 55.4483 179.671 54.1428 177.192 54.1428H165.529V67.7133H167.663V62.7522ZM157.937 55.9634H164.353V54.138H149.391V55.9634H155.803V67.7133H157.937V55.9634ZM132.539 60.9482C132.539 67.2124 133.575 67.9246 140.635 67.9246C147.695 67.9246 148.668 67.2124 148.668 60.9268C148.668 54.7979 147.977 53.9505 140.635 53.9505C133.23 53.9386 132.539 54.786 132.539 60.9363V60.9482ZM134.673 60.9268C134.673 55.9278 134.923 55.7759 140.635 55.7759C146.251 55.7759 146.534 56.1034 146.534 60.9268C146.534 65.5034 146.251 66.0992 140.635 66.0992C134.853 66.0873 134.673 65.1449 134.673 60.915V60.9268ZM108.165 54.138V67.7133H110.299V55.9634H110.705L118.71 67.7133H120.048L128.054 55.9634H128.459V67.7133H130.593V54.138H126.795L119.39 65.2945L111.983 54.138H108.165ZM92.9576 55.9634H102.411C103.57 55.9634 104.413 56.6589 104.413 58.4154C104.413 60.21 103.582 60.9245 102.384 60.9245H92.9576V55.9634ZM92.9576 62.7522H102.411C104.888 62.7522 106.554 61.4657 106.554 58.4795C106.564 55.4436 104.971 54.138 102.492 54.138H90.8236V67.7133H92.9576V62.7522ZM75.5083 54.138V67.7133H89.2075V65.8879H77.6422V61.7007H88.8022V59.8729H77.6422V55.9634H89.2075V54.138H75.5083ZM39.1662 56.8678H50.5263C49.8675 56.028 49.0109 55.346 48.0249 54.8762C47.0389 54.4064 45.9508 54.1617 44.8475 54.1617C43.7442 54.1617 42.6561 54.4064 41.6701 54.8762C40.6841 55.346 39.8275 56.028 39.1687 56.8678H39.1662ZM44.845 52.5001C47.1367 52.4954 49.3405 53.3364 50.9905 54.8454C52.6406 56.3543 53.6077 58.4129 53.6873 60.586C53.7668 62.7592 52.9527 64.8765 51.417 66.4905C49.8813 68.1045 47.7444 69.0886 45.4579 69.2349V59.4812H47.2091V67.2172C48.0954 66.9191 48.9104 66.4566 49.6063 65.8566C50.3022 65.2565 50.8653 64.531 51.2626 63.7222C51.6598 62.9135 51.8834 62.0378 51.9202 61.1463C51.957 60.2547 51.8064 59.3651 51.477 58.5294H38.218C37.8886 59.365 37.7378 60.2544 37.7744 61.1459C37.8111 62.0373 38.0344 62.9129 38.4315 63.7216C38.8285 64.5303 39.3913 65.2559 40.087 65.856C40.7826 66.4562 41.5973 66.9189 42.4834 67.2172V59.4812H44.2346V69.2349C41.9483 69.0886 39.8116 68.1046 38.2759 66.4909C36.7403 64.8772 35.926 62.7601 36.0053 60.5872C36.0845 58.4143 37.0511 56.3558 38.7007 54.8466C40.3502 53.3375 42.5536 52.4961 44.845 52.5001ZM67.9131 55.9634H74.325V54.138H59.3673V55.9634H65.7867V67.7133H67.9206L67.9131 55.9634Z" fill="#4C73B5"/>
<path d="M211.325 73.2653H207.703V74.407C207.681 75.0178 207.592 75.6248 207.438 76.2182H207.188V77.5H207.688V76.6763H211.098V77.5H211.598V76.2182H211.348L211.325 73.2653ZM210.79 76.2182H208.016C208.152 75.6228 208.228 75.0162 208.241 74.407V73.7234H210.79V76.2182Z" fill="#4D4D4D"/>
<path d="M188.798 73.676C190.091 73.676 190.211 73.7424 190.211 74.3074H190.749C190.749 73.3935 190.426 73.2155 188.82 73.2155C186.951 73.2155 186.896 73.5003 186.896 74.9506C186.896 76.6336 186.916 76.7262 188.82 76.7262C190.426 76.7262 190.749 76.6075 190.749 75.6723C190.749 74.6943 190.426 74.6231 188.82 74.6231C187.779 74.6231 187.544 74.7916 187.432 74.9317V74.3999C187.432 73.7709 187.712 73.676 188.798 73.676ZM188.82 75.0812C190.093 75.0812 190.211 75.169 190.211 75.6723C190.211 76.1755 190.093 76.2681 188.82 76.2681C187.547 76.2681 187.432 76.1802 187.432 75.6723C187.432 75.1643 187.539 75.0812 188.82 75.0812Z" fill="#4D4D4D"/>
<path d="M184.117 73.2155C182.511 73.2155 182.188 73.3365 182.188 74.2718C182.188 75.2474 182.511 75.3209 184.117 75.3209C185.158 75.3209 185.388 75.1667 185.505 75.0266V75.5441C185.505 76.1755 185.22 76.2562 184.117 76.2562C182.841 76.2562 182.724 76.185 182.724 75.6248H182.188C182.188 76.5363 182.511 76.7143 184.117 76.7143C185.986 76.7143 186.041 76.4295 186.041 74.9791C186.033 73.308 186.013 73.2155 184.117 73.2155ZM184.117 74.8604C182.841 74.8604 182.724 74.775 182.724 74.2718C182.724 73.7685 182.841 73.676 184.117 73.676C185.393 73.676 185.505 73.7614 185.505 74.2718C185.505 74.7821 185.39 74.8604 184.117 74.8604Z" fill="#4D4D4D"/>
<path d="M173.725 74.8889C173.859 74.8365 173.972 74.7439 174.046 74.6252C174.119 74.5065 174.15 74.3682 174.133 74.2314C174.133 73.6142 173.725 73.2653 172.99 73.2653H170.238V76.6763H173.11C173.845 76.6763 174.253 76.363 174.253 75.6793C174.269 75.5108 174.226 75.3421 174.13 75.1992C174.035 75.0563 173.893 74.9472 173.725 74.8889ZM170.766 73.7234H172.99C173.465 73.7234 173.598 73.9465 173.598 74.2314C173.598 74.5162 173.465 74.6919 172.99 74.6919H170.766V73.7234ZM173.11 76.2182H170.763V75.15H173.11C173.188 75.141 173.268 75.1483 173.343 75.1713C173.418 75.1943 173.487 75.2325 173.545 75.2833C173.603 75.3341 173.649 75.3962 173.679 75.4654C173.709 75.5346 173.723 75.6092 173.72 75.6841C173.724 75.7592 173.711 75.8341 173.681 75.9037C173.651 75.9733 173.605 76.0358 173.547 76.0868C173.489 76.1377 173.419 76.1759 173.344 76.1986C173.268 76.2213 173.188 76.228 173.11 76.2182Z" fill="#4D4D4D"/>
<path d="M159.528 73.2653L157.629 76.6763H158.237L158.66 75.9191H161.224L161.647 76.6763H162.255L160.363 73.2653H159.528ZM158.9 75.4704L159.878 73.6688H160.011L160.991 75.4704H158.9Z" fill="#4D4D4D"/>
<path d="M215.953 73.2676L214.593 75.5369L212.416 73.2676H211.683L214.297 75.9428C214.236 76.04 214.146 76.118 214.038 76.1669C213.931 76.2159 213.81 76.2337 213.692 76.2181H212.494V76.6762H213.667C214.262 76.6762 214.63 76.4792 214.875 76.0733L216.566 73.2676H215.953Z" fill="#4D4D4D"/>
<path d="M204.728 73.2155C202.867 73.2155 202.695 73.4291 202.695 74.9744C202.695 76.5197 202.945 76.7262 204.728 76.7262C206.512 76.7262 206.747 76.5482 206.747 74.9696C206.747 73.4291 206.575 73.2155 204.728 73.2155ZM204.728 76.2681C203.277 76.2681 203.227 76.0307 203.227 74.9696C203.227 73.7139 203.29 73.676 204.728 73.676C206.167 73.676 206.212 73.7567 206.212 74.9696C206.212 76.1185 206.132 76.2681 204.728 76.2681Z" fill="#4D4D4D"/>
<path d="M198.865 76.6763H199.4V73.7258H202.157V73.2653H198.865V76.6763Z" fill="#4D4D4D"/>
<path d="M193.538 74.3382C192.735 74.3382 192.233 74.3904 192.135 74.604V73.7234H195.375V73.2653H191.6V75.1049H192.135C192.223 74.8462 192.385 74.7916 193.538 74.7916C194.877 74.7916 194.989 74.8746 194.989 75.5227C194.989 76.1707 194.832 76.268 193.543 76.268C192.255 76.268 192.085 76.2158 192.085 75.6152H191.55C191.55 76.6003 191.865 76.7261 193.551 76.7261C195.052 76.7261 195.532 76.5956 195.532 75.5393C195.532 74.483 195.057 74.3382 193.538 74.3382Z" fill="#4D4D4D"/>
<path d="M156.821 74.8889C156.956 74.8366 157.068 74.744 157.142 74.6254C157.216 74.5067 157.248 74.3684 157.231 74.2314C157.231 73.6142 156.824 73.2653 156.088 73.2653H153.336V76.6763H156.223C156.959 76.6763 157.366 76.363 157.366 75.6793C157.381 75.5088 157.336 75.3384 157.237 75.1953C157.138 75.0521 156.992 74.9443 156.821 74.8889ZM153.862 73.7234H156.098C156.573 73.7234 156.703 73.9465 156.703 74.2314C156.703 74.5162 156.573 74.6919 156.098 74.6919H153.872L153.862 73.7234ZM156.208 76.2182H153.862V75.15H156.211C156.289 75.141 156.369 75.1483 156.444 75.1713C156.519 75.1943 156.588 75.2325 156.646 75.2833C156.704 75.3341 156.75 75.3962 156.78 75.4654C156.81 75.5346 156.824 75.6092 156.821 75.6841C156.826 75.7595 156.812 75.8349 156.782 75.9049C156.752 75.9749 156.706 76.0377 156.648 76.0888C156.589 76.1399 156.519 76.178 156.443 76.2004C156.367 76.2228 156.287 76.2288 156.208 76.2182Z" fill="#4D4D4D"/>
<path d="M178.118 74.445L178.446 74.7844L179.566 73.7258H179.664V76.6763H180.199V73.2653H179.369L178.118 74.445Z" fill="#4D4D4D"/>
<path d="M166.312 74.7061H163.218V73.2676H162.68V76.6762H163.218V75.1666H166.312V76.6762H166.85V73.2676H166.312V74.7061Z" fill="#4D4D4D"/>
<path d="M150.567 73.2155C148.706 73.2155 148.533 73.4291 148.533 74.9744C148.533 76.5197 148.783 76.7262 150.567 76.7262C152.351 76.7262 152.586 76.5482 152.586 74.9696C152.596 73.4291 152.411 73.2155 150.567 73.2155ZM150.567 76.2681C149.113 76.2681 149.066 76.0307 149.066 74.9696C149.066 73.7139 149.126 73.676 150.567 73.676C152.008 73.676 152.048 73.7567 152.048 74.9696C152.048 76.1185 151.978 76.2681 150.567 76.2681Z" fill="#4D4D4D"/>
<path d="M147.26 74.7061H144.165V73.2676H143.627V76.6762H144.165V75.1666H147.26V76.6762H147.798V73.2676H147.26V74.7061Z" fill="#4D4D4D"/>
<path d="M140.87 73.676C142.169 73.676 142.351 73.6997 142.351 74.4498H142.887C142.887 73.3555 142.597 73.2155 140.87 73.2155C139.094 73.2155 138.834 73.4291 138.834 74.9744C138.834 76.5197 139.084 76.7262 140.87 76.7262C142.597 76.7262 142.887 76.5861 142.887 75.4919H142.351C142.351 76.2443 142.169 76.2681 140.87 76.2681C139.432 76.2681 139.369 76.2253 139.369 74.9744C139.369 73.7234 139.432 73.676 140.87 73.676Z" fill="#4D4D4D"/>
<path d="M136.202 73.2155C134.341 73.2155 134.168 73.4291 134.168 74.9744C134.168 76.5197 134.418 76.7262 136.202 76.7262C137.986 76.7262 138.221 76.5482 138.221 74.9696C138.221 73.4291 138.046 73.2155 136.202 73.2155ZM136.202 76.2681C134.749 76.2681 134.701 76.0307 134.701 74.9696C134.701 73.7139 134.761 73.676 136.202 73.676C137.643 73.676 137.683 73.7567 137.683 74.9696C137.683 76.1185 137.613 76.2681 136.202 76.2681Z" fill="#4D4D4D"/>
<path d="M130.983 73.2653H127.361V74.407C127.339 75.0178 127.25 75.6248 127.096 76.2182H126.846V77.5H127.346V76.6763H130.756V77.5H131.256V76.2182H131.006L130.983 73.2653ZM130.446 76.2182H127.671C127.808 75.6228 127.883 75.0162 127.896 74.407V73.7234H130.446V76.2182Z" fill="#4D4D4D"/>
<path d="M124.387 73.2155C122.525 73.2155 122.353 73.4291 122.353 74.9744C122.353 76.5197 122.603 76.7262 124.387 76.7262C126.17 76.7262 126.406 76.5482 126.406 74.9696C126.406 73.4291 126.23 73.2155 124.387 73.2155ZM124.387 76.2681C122.933 76.2681 122.886 76.0307 122.886 74.9696C122.886 73.7139 122.946 73.676 124.387 73.676C125.828 73.676 125.868 73.7567 125.868 74.9696C125.868 76.1185 125.798 76.2681 124.387 76.2681Z" fill="#4D4D4D"/>
<path d="M121.232 74.8889C121.367 74.8369 121.48 74.7444 121.554 74.6257C121.628 74.5069 121.659 74.3684 121.642 74.2314C121.642 73.6142 121.234 73.2653 120.499 73.2653H117.747V76.6763H120.637C121.37 76.6763 121.78 76.363 121.78 75.6793C121.795 75.5084 121.749 75.3377 121.65 75.1944C121.55 75.0511 121.403 74.9435 121.232 74.8889ZM118.272 73.7234H120.499C120.974 73.7234 121.107 73.9465 121.107 74.2314C121.107 74.5162 120.974 74.6919 120.499 74.6919H118.272V73.7234ZM120.622 76.2182H118.272V75.15H120.622C120.7 75.141 120.779 75.1483 120.855 75.1713C120.93 75.1943 120.999 75.2325 121.057 75.2833C121.115 75.3341 121.16 75.3962 121.191 75.4654C121.221 75.5346 121.235 75.6092 121.232 75.6841C121.236 75.7593 121.223 75.8345 121.193 75.9043C121.164 75.974 121.118 76.0367 121.06 76.0878C121.001 76.1388 120.932 76.177 120.856 76.1995C120.78 76.2221 120.7 76.2284 120.622 76.2182Z" fill="#4D4D4D"/>
<path d="M114.583 73.2653L112.686 76.6763H113.294L113.717 75.9191H116.281L116.704 76.6763H117.322L115.421 73.2653H114.583ZM113.957 75.4704L114.935 73.6688H115.07L116.049 75.4704H113.957Z" fill="#4D4D4D"/>
<path d="M112.381 74.1982C112.381 73.2487 111.358 73.2155 110.347 73.2155C108.616 73.2155 108.328 73.3555 108.328 74.4498H108.866C108.866 73.6997 109.049 73.676 110.347 73.676C111.483 73.676 111.848 73.7377 111.848 74.1982C111.848 74.6587 111.503 74.7062 111.053 74.7062H109.399V75.1667H111.053C111.503 75.1667 111.848 75.2592 111.848 75.7197C111.848 76.1802 111.486 76.2681 110.347 76.2681C109.049 76.2681 108.866 76.2443 108.866 75.4919H108.328C108.328 76.5861 108.621 76.7262 110.347 76.7262C111.693 76.7262 112.381 76.6977 112.381 75.7197C112.401 75.5728 112.374 75.4236 112.305 75.2907C112.236 75.1578 112.128 75.047 111.993 74.972C112.244 74.8367 112.381 74.6634 112.381 74.1982Z" fill="#4D4D4D"/>
</svg>
