<svg width="260" height="130" viewBox="0 0 260 130" fill="none" xmlns="http://www.w3.org/2000/svg">
<path d="M84.2322 59.1769H83.1305V58.4019H85.8991V57.0403H81.6013V63.0155H84.2322C85.6599 63.0155 86.3774 62.1101 86.3774 61.0527C86.3774 59.9953 85.6744 59.1841 84.2322 59.1841V59.1769ZM84.2249 61.6394H83.1305V60.4733H84.2249C84.6453 60.4733 84.8555 60.7485 84.8555 61.0527C84.8555 61.3424 84.6525 61.6394 84.2249 61.6394Z" fill="#1E305A"/>
<path d="M95.321 59.271C95.3499 58.1412 94.6107 57.0258 93.1757 57.0258C92.2915 57.0186 91.429 57.0258 90.5376 57.0258V63.001H92.1031V61.4583H93.1757C94.5962 61.4583 95.321 60.3647 95.321 59.271ZM93.1757 60.0967H92.0741V58.3802H93.1757C93.6033 58.3802 93.828 58.8002 93.828 59.2276C93.828 59.6549 93.5888 60.0967 93.1757 60.0967Z" fill="#1E305A"/>
<path d="M102.481 61.1324V63.0082H104.04V57.0331H101.409C99.9665 57.0331 99.2563 58.0905 99.2563 59.1407C99.2635 59.8215 99.5534 60.4806 100.14 60.8789L98.9736 62.7837V63.0082H100.633L101.655 61.1324H102.474H102.481ZM100.771 59.1117C100.771 58.7351 100.974 58.3947 101.423 58.3947H102.51V59.8649H101.423C100.988 59.8649 100.771 59.4883 100.771 59.1117Z" fill="#1E305A"/>
<path d="M111.983 63.0082H113.548V57.0403H111.983V59.1986H110.128V57.0403H108.569V63.0082H110.128V60.6181H111.983V63.0082Z" fill="#1E305A"/>
<path d="M123.644 60.6978H122.144C121.985 61.3496 121.47 61.6466 120.818 61.6466C119.904 61.6466 119.325 60.8861 119.325 60.0242C119.325 59.032 119.912 58.3874 120.818 58.3874C121.455 58.3874 121.912 58.6264 122.122 59.242H123.622C123.391 57.6486 122.042 56.9823 120.81 56.9823C119.281 56.9823 117.752 57.9818 117.752 60.0387C117.752 62.0956 119.281 63.0733 120.81 63.0733C122.079 63.0733 123.405 62.3998 123.637 60.705L123.644 60.6978Z" fill="#1E305A"/>
<path d="M132.841 63.0082V62.7765C132.262 61.8929 131.704 60.9948 131.131 60.1039C131.464 59.7345 131.667 59.2348 131.863 58.5178C131.957 58.1484 132.211 58.0687 132.588 58.0905V57.0403C131.189 56.7506 130.609 57.3372 130.428 58.0615C130.254 58.7785 130.16 59.1334 129.892 59.271C129.682 59.3797 129.268 59.3652 129.022 59.3652V57.0258H127.457V63.001H129.022V60.7195C129.232 60.7195 129.587 60.7195 129.769 60.6906L131.073 62.9937H132.841V63.0082Z" fill="#1E305A"/>
<path d="M139.132 56.9751L136.393 62.7909V63.001H138.023L138.364 62.2622H140.603L140.951 63.001H142.567V62.7909L139.85 56.9751H139.132ZM138.864 60.9585L139.48 59.5173L140.103 60.9585H138.864Z" fill="#1E305A"/>
<path d="M146.735 59.1479C146.742 59.8287 147.032 60.4878 147.626 60.8861L146.452 62.7909V63.0155H148.112L149.134 61.1396H149.953V63.0155H151.518V57.0403H148.887C147.445 57.0403 146.735 58.0977 146.735 59.1479ZM149.982 58.3947V59.8649H148.895C148.46 59.8649 148.25 59.4883 148.25 59.1117C148.25 58.7351 148.452 58.3947 148.895 58.3947H149.982Z" fill="#1E305A"/>
<path d="M162.201 58.4019H164.368V57.0403H160.643V63.0155H162.194V58.4091L162.201 58.4019Z" fill="#1E305A"/>
<path d="M173.543 63.0082V57.0114H173.058L169.941 59.9519V57.0403H168.376V63.0227H168.84L171.978 59.9301V63.0082H173.543Z" fill="#1E305A"/>
<path d="M178.435 61.1179C178.37 61.7552 178.254 61.9218 177.573 61.8639L177.544 62.9792C179.262 63.2182 179.834 62.8996 179.986 61.1686L180.218 58.4309H181.516V63.0155H183.067V57.0403H178.849L178.428 61.1179H178.435Z" fill="#1E305A"/>
<path d="M190.046 58.822H188.944V57.0403H187.422V63.0155H190.046C192.909 63.001 192.909 58.8292 190.046 58.8292V58.822ZM190.046 61.6394C189.676 61.6538 189.299 61.6394 188.944 61.6394V60.1981H190.046C190.879 60.1981 190.923 61.6321 190.046 61.6394Z" fill="#1E305A"/>
<path d="M200.939 57.0403H196.815L196.366 60.9296C196.301 61.4873 196.206 61.6828 195.742 61.6901H195.518V63.7107H196.706V63.0082H200.272V63.7107H201.533V61.6901H200.932V57.0403H200.939ZM199.388 61.7263H197.627C197.815 61.5742 197.881 61.2193 197.902 60.9803L198.178 58.3802H199.388V61.7263Z" fill="#1E305A"/>
<path d="M210.825 63.0082V57.0114H210.339L207.223 59.9519V57.0403H205.657V63.0227H206.121L209.259 59.9301V63.0082H210.825Z" fill="#1E305A"/>
<path d="M217.376 57.0403C215.934 57.0403 215.224 58.0977 215.224 59.1479C215.231 59.8287 215.521 60.4878 216.108 60.8861L214.941 62.7909V63.0155H216.601L217.623 61.1396H218.442V63.0155H220V57.0403H217.369H217.376ZM218.471 59.8649H217.384C216.949 59.8649 216.731 59.4883 216.731 59.1117C216.731 58.7351 216.934 58.3947 217.384 58.3947H218.471V59.8649Z" fill="#1E305A"/>
<path d="M202.635 67.6362L202.207 67.8101C202.273 67.9766 202.374 68.107 202.519 68.2012C202.664 68.2953 202.845 68.3388 203.055 68.3388C203.265 68.3388 203.447 68.2953 203.592 68.2012C203.737 68.107 203.845 67.9766 203.91 67.8101L203.483 67.6362C203.454 67.7231 203.396 67.7883 203.331 67.839C203.258 67.8897 203.171 67.9115 203.062 67.9115C202.954 67.9115 202.86 67.8897 202.787 67.839C202.715 67.7883 202.664 67.7231 202.635 67.6362Z" fill="#1E305A"/>
<path d="M81.5144 71.8007H82.1304V69.1789H83.3988V71.8007H84.0148V68.6501H81.5144V71.8007Z" fill="#1E305A"/>
<path d="M87.1965 68.8892C87.0951 68.8022 86.9863 68.7443 86.8631 68.7081C86.7399 68.6719 86.5732 68.6501 86.3631 68.6501H85.4426V71.8079H86.0587V70.6419H86.4573C86.6312 70.6419 86.7907 70.6201 86.9211 70.5694C87.0516 70.5187 87.1675 70.4536 87.2545 70.3594C87.3415 70.2725 87.4067 70.1711 87.4502 70.048C87.4937 69.9248 87.5154 69.7945 87.5154 69.6569C87.5154 69.5048 87.4864 69.3672 87.4357 69.2368C87.385 69.1064 87.298 68.9905 87.1965 68.8964V68.8892ZM86.8341 69.8452C86.8052 69.9104 86.7617 69.9683 86.7109 70.0045C86.6675 70.0407 86.6167 70.0625 86.5587 70.0769C86.5008 70.0914 86.421 70.0987 86.3051 70.0987H86.0514V69.1716H86.2616C86.3703 69.1716 86.4573 69.1789 86.5298 69.2006C86.595 69.2151 86.653 69.244 86.6964 69.273C86.7472 69.3165 86.7907 69.3672 86.8269 69.4324C86.8631 69.4975 86.8776 69.5627 86.8776 69.6351C86.8776 69.7076 86.8559 69.78 86.8269 69.8452H86.8341Z" fill="#1E305A"/>
<path d="M90.2187 68.5778C89.7259 68.5778 89.32 68.7371 89.0011 69.0485C88.6895 69.36 88.53 69.7511 88.53 70.2291C88.53 70.7071 88.6895 71.1054 89.0011 71.4169C89.3128 71.7283 89.7186 71.8804 90.2187 71.8804C90.7188 71.8804 91.1174 71.7283 91.429 71.4169C91.7407 71.1054 91.9001 70.7143 91.9074 70.2291C91.9074 69.7511 91.7479 69.3527 91.4363 69.0413C91.1246 68.7299 90.7188 68.5778 90.2259 68.5778H90.2187ZM90.9724 71.0113C90.7768 71.2141 90.5231 71.3155 90.2187 71.3155C89.9143 71.3155 89.6534 71.2141 89.465 71.0113C89.2693 70.8085 89.1678 70.5478 89.1678 70.2291C89.1678 69.9104 89.262 69.6497 89.4577 69.4469C89.6534 69.2441 89.9071 69.1427 90.2187 69.1427C90.5303 69.1427 90.7768 69.2441 90.9724 69.4469C91.1681 69.6497 91.2696 69.9176 91.2696 70.2291C91.2696 70.5405 91.1681 70.8085 90.9724 71.0113Z" fill="#1E305A"/>
<path d="M95.7775 68.5923L94.8933 70.6564L94.0308 68.5923H93.6032L93.0234 71.8008H93.6467L93.9656 69.8597L94.7918 71.8442H94.9658L95.8355 69.838L96.1181 71.8008H96.7414L96.2123 68.5923H95.7775Z" fill="#1E305A"/>
<path d="M101.307 68.6501H100.691V71.8079H101.307V68.6501Z" fill="#1E305A"/>
<path d="M99.8941 70.1421C99.7999 70.0625 99.6912 69.9973 99.568 69.9538C99.4448 69.9104 99.2926 69.8886 99.1186 69.8886H98.6258V68.6501H98.0098V71.8079H99.1259C99.3433 71.8079 99.5317 71.779 99.6694 71.7138C99.8144 71.6486 99.9304 71.5544 100.017 71.4241C100.068 71.3516 100.112 71.2647 100.141 71.1633C100.17 71.0692 100.191 70.9605 100.191 70.8591C100.191 70.7143 100.162 70.5839 100.112 70.4608C100.061 70.3377 99.9883 70.2363 99.9014 70.1566L99.8941 70.1421ZM99.4158 71.1633C99.3216 71.2358 99.1766 71.272 98.9882 71.272H98.6258V70.4101H98.9954C99.1839 70.4101 99.3216 70.4463 99.4158 70.526C99.51 70.6057 99.5535 70.7071 99.5535 70.8447C99.5535 70.9823 99.51 71.0837 99.4158 71.1633Z" fill="#1E305A"/>
<path d="M105.765 71.272H104.757V68.6501H104.141V71.272H103.127V68.6501H102.51V71.8007H106.381V68.6501H105.765V71.272Z" fill="#1E305A"/>
<path d="M108.113 70.4536C108.113 70.7071 108.098 70.8809 108.069 70.975C108.04 71.0692 108.004 71.1344 107.953 71.1851C107.917 71.2213 107.874 71.2502 107.823 71.272C107.772 71.2937 107.721 71.3009 107.663 71.3009C107.634 71.3009 107.605 71.3009 107.576 71.3009C107.547 71.3009 107.518 71.2937 107.49 71.2792V71.8079C107.533 71.8079 107.576 71.8224 107.62 71.8297C107.663 71.8369 107.707 71.8369 107.75 71.8369C107.874 71.8369 107.99 71.8224 108.098 71.7862C108.207 71.75 108.301 71.6993 108.381 71.6269C108.49 71.5327 108.577 71.4168 108.635 71.272C108.693 71.1271 108.722 70.8954 108.722 70.5767V69.1789H109.642V71.8079H110.258V68.6501H108.106V70.4608L108.113 70.4536Z" fill="#1E305A"/>
<path d="M111.693 71.8007H113.447V71.272H112.309V70.4101H113.404V69.8814H112.309V69.1789H113.447V68.6501H111.693V71.8007Z" fill="#1E305A"/>
<path d="M116.708 69.8669H115.375V68.6501H114.759V71.8007H115.375V70.3956H116.708V71.8007H117.324V68.6501H116.708V69.8669Z" fill="#1E305A"/>
<path d="M120.702 69.8669H119.368V68.6501H118.752V71.8007H119.368V70.3956H120.702V71.8007H121.318V68.6501H120.702V69.8669Z" fill="#1E305A"/>
<path d="M123.362 70.7723V68.6502H122.746V71.8732H123.173L124.92 69.6786V71.8007H125.536V68.5778H125.108L123.362 70.7723Z" fill="#1E305A"/>
<path d="M129.515 68.6501H128.739L127.58 69.9828V68.6501H126.964V71.8007H127.58V70.4608L127.652 70.3884L128.768 71.8007H129.587L128.08 69.99L129.515 68.6501Z" fill="#1E305A"/>
<path d="M132.218 68.5778C131.725 68.5778 131.319 68.7371 131 69.0485C130.689 69.36 130.529 69.7511 130.529 70.2291C130.529 70.7071 130.689 71.1054 131 71.4169C131.312 71.7283 131.718 71.8804 132.218 71.8804C132.718 71.8804 133.117 71.7283 133.428 71.4169C133.74 71.1054 133.899 70.7143 133.907 70.2291C133.907 69.7511 133.747 69.3527 133.436 69.0413C133.124 68.7299 132.718 68.5778 132.225 68.5778H132.218ZM132.972 71.0113C132.776 71.2141 132.522 71.3155 132.218 71.3155C131.914 71.3155 131.653 71.2141 131.464 71.0113C131.269 70.8085 131.167 70.5478 131.167 70.2291C131.167 69.9104 131.261 69.6497 131.457 69.4469C131.653 69.2441 131.906 69.1427 132.218 69.1427C132.53 69.1427 132.776 69.2441 132.972 69.4469C133.167 69.6497 133.269 69.9176 133.269 70.2291C133.269 70.5405 133.167 70.8085 132.972 71.0113Z" fill="#1E305A"/>
<path d="M137.088 70.316C137.03 70.2653 136.973 70.2218 136.907 70.1929C136.842 70.1567 136.762 70.1349 136.683 70.1204C136.791 70.0625 136.878 69.9756 136.944 69.8742C137.009 69.7728 137.038 69.6424 137.038 69.4976C137.038 69.3672 137.009 69.2441 136.958 69.1282C136.907 69.0123 136.835 68.9182 136.741 68.8457C136.661 68.7878 136.559 68.7371 136.436 68.7009C136.32 68.6647 136.161 68.6429 135.965 68.6429H135.182V71.8007H136.241C136.414 71.8007 136.567 71.779 136.697 71.7428C136.828 71.6993 136.944 71.6342 137.045 71.5472C137.132 71.4676 137.197 71.3734 137.248 71.2648C137.291 71.1561 137.32 71.033 137.32 70.9099C137.32 70.794 137.299 70.6854 137.262 70.584C137.226 70.4826 137.168 70.3957 137.088 70.316ZM135.798 69.1499H135.98C136.132 69.1499 136.248 69.1861 136.327 69.2586C136.407 69.331 136.451 69.4251 136.451 69.5483C136.451 69.6714 136.407 69.78 136.327 69.8525C136.248 69.9249 136.125 69.9611 135.972 69.9611H135.798V69.1499ZM136.625 71.0692C136.588 71.1344 136.545 71.1851 136.48 71.2213C136.429 71.2503 136.371 71.2793 136.306 71.2865C136.241 71.301 136.161 71.3082 136.059 71.301H135.791V70.4319H136.016C136.125 70.4319 136.212 70.4319 136.27 70.4464C136.327 70.4536 136.385 70.4753 136.436 70.4971C136.509 70.5333 136.559 70.5767 136.603 70.6419C136.646 70.7071 136.668 70.7723 136.668 70.8592C136.668 70.9389 136.654 71.0113 136.617 71.0692H136.625Z" fill="#1E305A"/>
<path d="M141.024 70.7723V68.6502H140.408V71.8732H140.835L142.575 69.6786V71.8007H143.191V68.5778H142.763L141.024 70.7723Z" fill="#1E305A"/>
<path d="M146.438 71.8007H147.054V69.1789H148.322V71.8007H148.938V68.6501H146.438V71.8007Z" fill="#1E305A"/>
<path d="M152.12 68.8892C152.018 68.8022 151.909 68.7443 151.786 68.7081C151.663 68.6719 151.496 68.6501 151.286 68.6501H150.366V71.8079H150.982V70.6419H151.38C151.554 70.6419 151.714 70.6201 151.844 70.5694C151.975 70.5187 152.091 70.4536 152.178 70.3594C152.265 70.2725 152.33 70.1711 152.373 70.048C152.417 69.9248 152.439 69.7945 152.439 69.6569C152.439 69.5048 152.41 69.3672 152.359 69.2368C152.308 69.1064 152.221 68.9905 152.12 68.8964V68.8892ZM151.757 69.8452C151.728 69.9104 151.685 69.9683 151.634 70.0045C151.591 70.0407 151.54 70.0625 151.482 70.0769C151.424 70.0914 151.344 70.0987 151.228 70.0987H150.975V69.1716H151.185C151.293 69.1716 151.38 69.1789 151.453 69.2006C151.518 69.2151 151.576 69.244 151.627 69.273C151.678 69.3165 151.721 69.3672 151.757 69.4324C151.786 69.4975 151.801 69.5627 151.801 69.6351C151.801 69.7076 151.779 69.78 151.757 69.8452Z" fill="#1E305A"/>
<path d="M153.605 71.8007H155.352V71.272H154.222V70.4101H155.309V69.8814H154.222V69.1789H155.352V68.6501H153.605V71.8007Z" fill="#1E305A"/>
<path d="M159.099 68.6501H156.968V70.0262C156.968 70.2146 156.961 70.3739 156.939 70.5043C156.918 70.6346 156.889 70.7505 156.852 70.8519C156.794 70.9968 156.722 71.1054 156.628 71.1778C156.533 71.2502 156.447 71.2865 156.352 71.2792V72.5177H156.918V71.8079H158.86V72.5177H159.425V71.2792H159.092V68.6501H159.099ZM158.483 71.2792H157.208C157.258 71.2285 157.309 71.1706 157.352 71.1126C157.396 71.0547 157.425 70.9823 157.454 70.9098C157.49 70.8157 157.519 70.6926 157.534 70.5477C157.555 70.4029 157.563 70.229 157.563 70.0262V69.1861H158.483V71.2792Z" fill="#1E305A"/>
<path d="M160.549 71.8007H161.165V69.1789H162.433V71.8007H163.049V68.6501H160.549V71.8007Z" fill="#1E305A"/>
<path d="M166.231 68.8892C166.129 68.8022 166.021 68.7443 165.897 68.7081C165.774 68.6719 165.607 68.6501 165.397 68.6501H164.477V71.8079H165.093V70.6419H165.491C165.665 70.6419 165.825 70.6201 165.955 70.5694C166.086 70.5187 166.202 70.4536 166.289 70.3594C166.376 70.2725 166.441 70.1711 166.484 70.048C166.528 69.9248 166.55 69.7945 166.55 69.6569C166.55 69.5048 166.521 69.3672 166.463 69.2368C166.405 69.1064 166.325 68.9905 166.223 68.8964L166.231 68.8892ZM165.868 69.8452C165.839 69.9104 165.796 69.9683 165.745 70.0045C165.702 70.0407 165.651 70.0625 165.593 70.0769C165.535 70.0914 165.455 70.0987 165.339 70.0987H165.086V69.1716H165.296C165.404 69.1716 165.491 69.1789 165.564 69.2006C165.629 69.2151 165.687 69.244 165.738 69.273C165.789 69.3165 165.832 69.3672 165.868 69.4324C165.905 69.4975 165.919 69.5627 165.919 69.6351C165.919 69.7076 165.897 69.78 165.868 69.8452Z" fill="#1E305A"/>
<path d="M168.332 70.7723V68.6502H167.716V71.8732H168.144L169.883 69.6786V71.8007H170.499V68.5778H170.072L168.332 70.7723Z" fill="#1E305A"/>
<path d="M173.884 69.8669H172.543V68.6501H171.927V71.8007H172.543V70.3956H173.884V71.8007H174.5V68.6501H173.884V69.8669Z" fill="#1E305A"/>
<path d="M176.544 70.7723V68.6502H175.928V71.8732H176.355L178.095 69.6786V71.8007H178.711V68.5778H178.283L176.544 70.7723Z" fill="#1E305A"/>
<path d="M182.733 68.5923L181.849 70.6564L180.994 68.5923H180.566L179.979 71.8008H180.603L180.929 69.8597L181.755 71.8442H181.929L182.791 69.838L183.074 71.8008H183.704L183.175 68.5923H182.733Z" fill="#1E305A"/>
<path d="M185.987 68.5778L184.618 71.808H185.284L185.553 71.1416H186.857L187.118 71.808H187.778L186.444 68.5778H185.98H185.987ZM185.756 70.6419L186.212 69.4976L186.661 70.6419H185.756Z" fill="#1E305A"/>
<path d="M188.531 69.1789H189.242V71.8007H189.858V69.1789H190.568V68.6501H188.531V69.1789Z" fill="#1E305A"/>
<path d="M191.669 71.8007H193.416V71.272H192.285V70.4101H193.373V69.8814H192.285V69.1789H193.416V68.6501H191.669V71.8007Z" fill="#1E305A"/>
<path d="M195.032 70.4536C195.032 70.7071 195.018 70.8809 194.989 70.975C194.96 71.0692 194.924 71.1344 194.873 71.1851C194.837 71.2213 194.793 71.2502 194.742 71.272C194.692 71.2937 194.641 71.3009 194.583 71.3009C194.554 71.3009 194.525 71.3009 194.496 71.3009C194.467 71.3009 194.438 71.2937 194.409 71.2792V71.8079C194.452 71.8079 194.496 71.8224 194.539 71.8297C194.583 71.8297 194.626 71.8369 194.67 71.8369C194.793 71.8369 194.909 71.8224 195.018 71.7862C195.126 71.75 195.221 71.6993 195.3 71.6269C195.409 71.5327 195.496 71.4168 195.554 71.272C195.612 71.1271 195.641 70.8954 195.641 70.5767V69.1789H196.561V71.8079H197.177V68.6501H195.025V70.4608L195.032 70.4536Z" fill="#1E305A"/>
<path d="M198.613 71.8007H200.359V71.272H199.229V70.4101H200.316V69.8814H199.229V69.1789H200.359V68.6501H198.613V71.8007Z" fill="#1E305A"/>
<path d="M202.287 70.7723V68.6502H201.671V71.8732H202.098L203.838 69.6786V71.8007H204.454V68.5778H204.026L202.287 70.7723Z" fill="#1E305A"/>
<path d="M71.0417 72.0036V51.0942L55.1697 55.4615L57.6338 56.3668L69.3531 53.3321V70.2292L44.3491 59.4956V61.27L68.0848 71.4459L64.4175 72.909L46.6031 65.2752L37.6887 70.0119V53.4263L59.7211 62.3202V60.5748L36 51V71.895L53.4955 79L71.049 72.0036H71.0417ZM46.6828 67.0641L62.2867 73.7491L58.7717 75.1542L49.734 71.2794L47.8787 72.2426L56.6482 76.0016L53.4955 77.2545L38.7541 71.2721L46.6828 67.0641Z" fill="#1E305A"/>
</svg>
