<svg width="260" height="130" viewBox="0 0 260 130" fill="none" xmlns="http://www.w3.org/2000/svg">
<g clip-path="url(#clip0_4050_7241)">
<path d="M44.769 68.6496C43.4561 69.8699 42.1104 70.466 40.5349 70.2692C38.1115 69.9655 36.361 67.9804 36.0601 65.1631C35.9725 64.3308 35.978 63.4704 36.0765 62.6438C36.3227 60.5631 37.2089 58.8929 39.2329 58.1112C41.175 57.3577 43.0021 57.8188 45.0097 59.6071C44.8292 57.8469 45.9452 58.0775 46.9572 58.0831C49.594 58.1 49.594 58.0831 49.594 60.8105C49.594 63.8528 49.6049 66.8951 49.594 69.9374C49.5776 73.5196 48.1115 75.2853 44.6706 75.8195C42.7122 76.1232 40.7537 76.0445 38.8664 75.3922C37.3238 74.8579 36.3445 73.4296 36.3227 71.9169C36.3172 71.3376 36.4211 71.0452 37.0831 71.1464C38.1607 71.3095 39.2548 71.4107 40.3434 71.4951C40.7701 71.5288 40.9616 71.7819 41.1914 72.0912C41.7931 72.9122 42.6246 73.0247 43.5163 72.7435C44.4463 72.4567 44.7417 71.6975 44.7636 70.7865C44.78 70.1511 44.7636 69.51 44.7636 68.644L44.769 68.6496ZM44.8073 64.2858C44.7964 63.6335 44.7636 63.133 44.5393 62.655C44.1126 61.7609 43.4397 61.2885 42.4769 61.3953C41.4047 61.5134 40.9671 62.2895 40.8084 63.2961C40.6115 64.5839 40.5841 65.8491 41.7876 66.6702C42.548 67.1931 43.3631 67.0469 44.0415 66.4396C44.7089 65.8379 44.8456 65.0169 44.8019 64.2914L44.8073 64.2858Z" fill="#2087C7"/>
<path d="M111.925 66.6701C112.685 63.9653 113.363 61.6371 113.976 59.2978C114.184 58.4936 114.534 58.1337 115.382 58.2124C116.241 58.2912 117.116 58.2743 117.975 58.2181C118.954 58.1562 119.009 58.5217 118.697 59.3596C117.072 63.7234 115.535 68.1154 113.888 72.4736C112.619 75.8364 108.949 77.366 105.666 76.0051C104.84 75.6621 105.218 74.8748 105.108 74.3012C104.797 72.6704 104.846 72.6648 106.405 72.8335C107.132 72.9122 107.893 72.9628 108.511 72.4792C109.26 71.8944 109.578 71.2083 109.135 70.1736C107.614 66.6252 106.197 63.0318 104.698 59.4721C104.315 58.5667 104.293 58.2012 105.453 58.2012C109.31 58.2012 109.31 58.1562 110.453 61.9014C110.902 63.3692 111.361 64.8313 111.93 66.6645L111.925 66.6701Z" fill="#2087C7"/>
<path d="M72.2143 60.4111C73.6202 59.0053 75.0207 58.1842 76.8259 58.2517C79.1399 58.3417 80.7482 59.7363 80.8467 62.1263C80.9616 64.9268 80.885 67.7385 80.9178 70.5446C80.9233 71.1407 80.7045 71.3263 80.1301 71.3825C76.1038 71.7762 76.1093 71.793 76.1038 67.6879C76.1038 66.4226 76.1366 65.1573 76.0765 63.8977C76.0272 62.9305 75.6552 62.1544 74.5338 62.1375C73.4397 62.1207 72.8161 62.728 72.6738 63.7908C72.3949 65.8828 72.5207 67.9972 72.559 70.1004C72.5754 71.1126 72.2417 71.4106 71.3062 71.3319C70.1793 71.2363 68.6859 71.6862 68.0021 71.1014C67.2034 70.4153 67.7504 68.8295 67.734 67.6373C67.6903 64.8312 67.7559 62.0194 67.7012 59.2133C67.6848 58.3361 67.9583 58.0268 68.7843 58.1224C69.2329 58.173 69.6924 58.1336 70.152 58.1336C71.4612 58.1336 72.1505 58.8928 72.2198 60.4111H72.2143Z" fill="#2087C7"/>
<path d="M65.5513 67.8455C63.8992 71.0003 61.1148 71.3321 58.1498 71.2702C55.5458 71.214 53.4342 70.3142 52.269 67.7499C50.245 63.313 52.8762 58.6174 57.6082 58.2519C58.5983 58.1788 59.6213 58.1675 60.6005 58.3081C64.7253 58.8986 65.9123 62.0477 65.9397 65.2531C65.9452 66.0067 65.4528 65.8942 65.0043 65.8998C62.548 65.8998 60.0863 65.8998 57.6301 65.8998C56.443 65.8998 56.2789 66.2091 56.8751 67.2607C57.5152 68.3854 59.0469 68.9084 60.059 68.0536C61.0163 67.2494 61.9244 67.3001 62.9638 67.4856C63.7953 67.6318 64.6815 67.4519 65.5568 67.8455H65.5513ZM58.7242 63.6111V63.5998C59.222 63.5998 59.7198 63.5548 60.2121 63.6111C61.1804 63.7179 61.1202 63.2062 60.8741 62.5426C60.3106 60.9849 58.3522 60.5406 57.2253 61.7328C56.8095 62.1715 56.3992 62.7563 56.5962 63.3355C56.7931 63.9204 57.4605 63.5155 57.9091 63.5998C58.1716 63.6504 58.4506 63.6111 58.7187 63.6111H58.7242Z" fill="#2087C7"/>
<path d="M126.301 71.467C124.95 71.467 123.779 71.3376 122.63 71.0002C121.815 70.764 121.115 70.3423 120.584 69.6787C120.158 69.1388 119.534 68.5259 119.769 67.8511C119.977 67.2381 120.809 67.5811 121.356 67.463C121.974 67.3337 122.625 67.3393 123.254 67.2662C123.872 67.1931 124.337 67.2494 124.753 67.8904C125.442 68.9589 126.542 68.8689 127.587 68.5709C128.024 68.4472 128.44 68.1604 128.418 67.5868C128.396 67.0244 128.008 66.7882 127.532 66.6758C125.934 66.3046 124.321 66.0009 122.751 65.5567C121.071 65.0787 120.081 63.6672 120.119 62.0589C120.158 60.4956 121.109 59.1516 122.723 58.6511C124.994 57.9425 127.308 57.9425 129.6 58.5723C130.765 58.8929 131.542 59.7364 132.111 60.8049C132.428 61.4009 132.28 61.6371 131.624 61.6709C130.759 61.7215 129.901 61.8396 129.042 61.9352C128.44 62.0027 127.898 62.0195 127.494 61.3728C127.324 61.1029 126.897 60.8948 126.569 60.8498C125.781 60.7542 124.715 60.4899 124.539 61.6259C124.381 62.6606 125.464 62.6269 126.115 62.7393C127.411 62.9699 128.735 63.0599 129.999 63.4873C131.777 64.0833 132.767 65.2586 132.838 66.8445C132.915 68.5934 131.886 70.1792 130.163 70.8371C128.872 71.332 127.526 71.5626 126.306 71.4726L126.301 71.467Z" fill="#2087C7"/>
<path d="M97.5043 71.2364C96.0546 71.242 95.0097 71.2083 93.9868 70.9215C93.0896 70.6684 92.2854 70.2523 91.6673 69.5269C91.2187 68.9983 90.606 68.3516 90.8248 67.7161C90.9944 67.2212 91.8806 67.3956 92.455 67.3225C93.0404 67.2494 93.6476 67.2775 94.222 67.1594C94.9222 67.0132 95.4036 67.1088 95.792 67.8286C96.1476 68.4865 96.8587 68.6833 97.5754 68.6496C98.3631 68.6102 99.2822 68.5146 99.3697 67.5305C99.4572 66.6027 98.5436 66.5633 97.8981 66.4171C96.6126 66.1134 95.3106 65.8997 94.036 65.5567C92.2854 65.0843 91.2679 63.8247 91.2187 62.2164C91.164 60.4956 92.1049 59.1459 93.8719 58.5892C96.0108 57.92 98.1826 57.9481 100.349 58.4542C100.978 58.6005 101.547 58.9098 102.017 59.3653C102.575 59.9107 103.347 60.5518 103.155 61.3053C102.997 61.9296 102.034 61.6034 101.427 61.6765C100.267 61.8115 99.0524 62.3626 98.0951 61.0129C97.7668 60.5518 97.001 60.6699 96.4047 60.7711C95.9671 60.8442 95.606 61.0579 95.5458 61.5415C95.4747 62.132 95.8741 62.3907 96.3555 62.4807C97.5152 62.6943 98.6913 62.8349 99.8511 63.0824C102.45 63.6278 103.768 64.8931 103.823 66.8164C103.877 68.8577 102.466 70.3704 99.9605 71.0283C99.0141 71.2758 98.0622 71.2139 97.5097 71.2476L97.5043 71.2364Z" fill="#2087C7"/>
<path d="M143.757 69.6899C141.788 71.2588 139.802 71.63 137.794 70.3984C135.666 69.0938 134.994 66.9287 135.032 64.5107C135.097 60.3605 137.554 57.8468 141.049 58.2349C142.143 58.3586 142.969 58.9884 144.02 59.7869C143.664 58.2855 144.512 58.4373 145.294 58.4486C146.367 58.4654 145.929 59.2977 145.934 59.7813C145.967 63.2847 145.984 66.7938 145.929 70.3028C145.847 75.1334 141.914 77.6358 137.592 75.6564C136.678 75.2402 135.962 74.616 135.655 73.6151C135.508 73.1427 135.24 72.3723 135.71 72.2204C136.213 72.063 137.127 72.018 137.444 72.6028C137.893 73.4351 138.363 74.1099 139.304 74.2674C140.207 74.4192 141.115 74.4754 141.99 74.0874C143.845 73.2664 143.785 71.6018 143.757 69.6842V69.6899ZM137.215 64.6456C137.16 65.4048 137.302 66.1358 137.51 66.85C137.937 68.3234 139.08 69.2231 140.497 69.2569C141.936 69.2906 143.112 68.4808 143.609 67.0243C144.135 65.4835 144.135 63.9089 143.637 62.3625C143.15 60.8666 141.87 59.9331 140.469 59.9781C139.107 60.0231 137.959 60.9622 137.51 62.4468C137.297 63.161 137.16 63.8921 137.22 64.6512L137.215 64.6456Z" fill="#4A4A4B"/>
<path d="M187.127 59.7589C189.594 57.9538 191.673 57.6783 193.467 58.9716C195.918 60.7318 196.241 63.3748 195.874 66.1191C195.464 69.167 193.68 70.9834 191.126 71.3039C189.785 71.4726 188.631 71.0396 187.384 69.9037C187.384 71.765 187.335 73.3284 187.4 74.8805C187.439 75.7858 187.094 75.9489 186.29 75.9714C185.42 75.9939 185.234 75.6902 185.239 74.8523C185.272 69.8418 185.245 64.8369 185.272 59.8264C185.272 59.2978 184.84 58.4262 186.011 58.443C186.831 58.4543 187.537 58.4487 187.121 59.7589H187.127ZM193.806 64.9325C193.795 64.0103 193.779 63.3186 193.576 62.6325C193.09 60.9511 192.078 59.9726 190.688 59.9164C189.238 59.8602 188.024 60.7937 187.515 62.4638C187.028 64.0553 187.012 65.6917 187.532 67.2775C187.969 68.6047 188.855 69.4932 190.311 69.5606C191.673 69.6225 192.794 68.8465 193.363 67.4462C193.719 66.5746 193.834 65.6523 193.801 64.9325H193.806Z" fill="#4A4A4B"/>
<path d="M178.369 69.4707C176.602 71.3265 174.698 71.8101 172.504 70.9722C171.191 70.4717 170.409 69.5101 170.245 68.0818C169.889 65.0057 170.147 61.9184 170.086 58.8368C170.065 57.7683 170.901 58.2519 171.394 58.1563C172.012 58.0439 172.28 58.2913 172.269 58.9942C172.231 61.0524 172.247 63.105 172.258 65.1632C172.258 65.7199 172.275 66.2879 172.34 66.839C172.537 68.5316 173.259 69.3302 174.649 69.4539C176.159 69.5832 177.581 68.616 177.969 67.1426C178.467 65.2588 178.122 63.3299 178.21 61.4236C178.243 60.7712 178.254 60.1133 178.21 59.461C178.15 58.6118 178.215 58.1057 179.315 58.1057C180.426 58.1057 180.42 58.6399 180.415 59.4722C180.387 62.9756 180.404 66.4847 180.398 69.9881C180.398 70.6517 180.633 71.349 179.463 71.3546C178.352 71.3602 178.44 70.7698 178.467 70.05C178.467 69.9263 178.434 69.7969 178.385 69.4707H178.369Z" fill="#4A4A4B"/>
<path d="M156.306 64.6287C156.323 60.3605 158.653 58.0212 162.641 58.2405C164.889 58.3642 166.831 59.8825 167.499 62.0982C167.953 63.5996 167.997 65.1461 167.679 66.6701C167.023 69.8192 164.649 71.5962 161.525 71.3544C158.527 71.1238 156.509 68.9588 156.312 65.7534C156.29 65.3823 156.312 65.0055 156.312 64.6344L156.306 64.6287ZM165.644 64.6906C165.694 63.9877 165.595 63.1554 165.3 62.3568C164.698 60.7373 163.079 59.7419 161.52 60.0231C159.66 60.3549 158.571 61.862 158.467 64.2463C158.341 67.1593 159.271 68.9813 161.153 69.4705C161.328 69.5155 161.514 69.5268 161.695 69.5436C164.145 69.7517 165.633 67.9803 165.65 64.6906H165.644Z" fill="#4A4A4B"/>
<path d="M88.8228 64.8931C88.8228 66.7151 88.79 68.5371 88.8392 70.3535C88.8611 71.1014 88.615 71.287 87.9093 71.3151C83.9541 71.4895 83.9541 71.5063 83.9541 67.4293C83.9541 64.7694 83.9815 62.1095 83.9377 59.4496C83.9213 58.5892 84.1894 58.3474 85.0209 58.3305C88.8228 58.2574 88.8174 58.2293 88.8174 62.0926C88.8174 63.0261 88.8174 63.9596 88.8174 64.8931H88.8228Z" fill="#2087C7"/>
<path d="M151.35 60.0795C152.302 58.6962 153.27 58.1395 154.556 58.1226C155.437 58.1113 155.519 58.5725 155.464 59.2641C155.42 59.8321 155.666 60.4395 154.643 60.4451C152.532 60.4451 151.925 61.0749 151.651 63.2118C151.356 65.5399 151.531 67.8849 151.531 70.2187C151.531 71.0678 151.334 71.3659 150.469 71.3377C149.671 71.3096 149.249 71.2365 149.266 70.213C149.332 66.704 149.277 63.2006 149.304 59.6915C149.31 59.0617 148.877 58.1844 150.185 58.117C151.443 58.0495 151.29 58.8593 151.345 60.0852L151.35 60.0795Z" fill="#4A4A4B"/>
<path d="M86.5033 53.5H86.64C88.8665 53.5 89.2877 54.0792 88.8391 56.3455C88.7352 56.8797 88.4453 56.8741 88.0733 56.8741C87.0284 56.8741 85.9836 56.8291 84.9442 56.891C84.151 56.9416 83.954 56.6323 83.9431 55.8506C83.8993 53.5 83.8665 53.5 86.5033 53.5Z" fill="#2087C7"/>
</g>
<defs>
<clipPath id="clip0_4050_7241">
<rect width="160" height="23" fill="white" transform="translate(36 53.5)"/>
</clipPath>
</defs>
</svg>
