<svg width="958" height="105" viewBox="0 0 958 105" fill="none" xmlns="http://www.w3.org/2000/svg">
<mask id="path-1-inside-1_3860_6453" fill="white">
<path d="M82.12 103H56.5V63.8H26.12V103H0.5V4.99999H26.12V40.42H56.5V4.99999H82.12V103ZM162.816 90.82H126.136L120.536 103H93.7958V99.5L138.736 4.02H150.496L195.016 99.5V103H168.556L162.816 90.82ZM144.476 45.74L134.396 69.4H154.696L144.476 45.74ZM206.803 103V4.99999H232.423V79.9H256.083V4.99999H281.703V79.9H305.363V4.99999H330.983V103H206.803ZM391.095 4.99999H472.575V103C464.035 103 455.495 103 446.955 103V28.1H416.715V103C408.175 103 399.635 103 391.095 103V4.99999ZM522.194 102.86H496.574V4.86C511.134 4.86 525.274 4.72 539.834 4.86C563.354 4.86 575.394 23.2 574.974 41.68C574.974 59.6 563.074 77.52 539.834 77.52H522.194V102.86ZM521.774 55.26H539.834C546.554 55.26 550.474 48.12 550.474 40.98C550.474 33.98 546.834 27.12 539.834 27.12H521.774V55.26ZM686.722 54C686.722 83.96 666.002 104.82 636.322 104.82C610.422 104.82 586.202 88.02 586.202 54C586.202 20.12 611.262 3.03999 636.742 3.03999C661.802 3.03999 686.722 20.12 686.722 54ZM611.822 54C611.822 71.5 623.862 80.6 636.462 80.6C648.642 80.6 661.102 71.5 661.102 54C661.102 36.5 648.922 27.4 636.742 27.4C624.002 27.4 611.822 36.08 611.822 54ZM766.514 4.99999V27.26H730.954V41.26H763.714V63.66H730.954V79.62H767.774V103H705.334V4.99999H766.514ZM847.472 103L826.052 65.2C823.112 65.62 817.372 65.62 813.872 65.62V103H788.252V4.99999H813.872V43.36C817.932 43.36 824.652 43.64 828.152 41.82C832.632 39.58 834.172 33.7 836.972 21.94C839.912 10.04 849.432 0.379994 872.392 5.13999V22.36C866.232 21.94 862.032 23.34 860.492 29.36C857.272 41.12 853.912 49.38 848.452 55.4C857.832 69.96 866.932 84.66 876.452 99.22V103H847.472ZM908.463 27.4H884.383V4.99999H957.183V27.4H933.243V103H908.463V27.4Z"/>
</mask>
<path d="M82.12 103V105H84.12V103H82.12ZM56.5 103H54.5V105H56.5V103ZM56.5 63.8H58.5V61.8H56.5V63.8ZM26.12 63.8V61.8H24.12V63.8H26.12ZM26.12 103V105H28.12V103H26.12ZM0.5 103H-1.5V105H0.5V103ZM0.5 4.99999V2.99999H-1.5V4.99999H0.5ZM26.12 4.99999H28.12V2.99999H26.12V4.99999ZM26.12 40.42H24.12V42.42H26.12V40.42ZM56.5 40.42V42.42H58.5V40.42H56.5ZM56.5 4.99999V2.99999H54.5V4.99999H56.5ZM82.12 4.99999H84.12V2.99999H82.12V4.99999ZM82.12 101H56.5V105H82.12V101ZM58.5 103V63.8H54.5V103H58.5ZM56.5 61.8H26.12V65.8H56.5V61.8ZM24.12 63.8V103H28.12V63.8H24.12ZM26.12 101H0.5V105H26.12V101ZM2.5 103V4.99999H-1.5V103H2.5ZM0.5 6.99999H26.12V2.99999H0.5V6.99999ZM24.12 4.99999V40.42H28.12V4.99999H24.12ZM26.12 42.42H56.5V38.42H26.12V42.42ZM58.5 40.42V4.99999H54.5V40.42H58.5ZM56.5 6.99999H82.12V2.99999H56.5V6.99999ZM80.12 4.99999V103H84.12V4.99999H80.12ZM162.816 90.82L164.625 89.9674L164.084 88.82H162.816V90.82ZM126.136 90.82V88.82H124.854L124.319 89.9845L126.136 90.82ZM120.536 103V105H121.818L122.353 103.835L120.536 103ZM93.7958 103H91.7958V105H93.7958V103ZM93.7958 99.5L91.9862 98.6483L91.7958 99.0528V99.5H93.7958ZM138.736 4.02V2.02H137.467L136.926 3.16828L138.736 4.02ZM150.496 4.02L152.308 3.17481L151.77 2.02H150.496V4.02ZM195.016 99.5H197.016V99.0566L196.828 98.6548L195.016 99.5ZM195.016 103V105H197.016V103H195.016ZM168.556 103L166.747 103.853L167.287 105H168.556V103ZM144.476 45.74L146.312 44.9469L144.463 40.667L142.636 44.9561L144.476 45.74ZM134.396 69.4L132.556 68.6161L131.37 71.4H134.396V69.4ZM154.696 69.4V71.4H157.738L156.532 68.6069L154.696 69.4ZM162.816 88.82H126.136V92.82H162.816V88.82ZM124.319 89.9845L118.719 102.165L122.353 103.835L127.953 91.6555L124.319 89.9845ZM120.536 101H93.7958V105H120.536V101ZM95.7958 103V99.5H91.7958V103H95.7958ZM95.6054 100.352L140.545 4.87172L136.926 3.16828L91.9862 98.6483L95.6054 100.352ZM138.736 6.02H150.496V2.02H138.736V6.02ZM148.683 4.86519L193.203 100.345L196.828 98.6548L152.308 3.17481L148.683 4.86519ZM193.016 99.5V103H197.016V99.5H193.016ZM195.016 101H168.556V105H195.016V101ZM170.365 102.147L164.625 89.9674L161.007 91.6726L166.747 103.853L170.365 102.147ZM142.636 44.9561L132.556 68.6161L136.236 70.1839L146.316 46.5239L142.636 44.9561ZM134.396 71.4H154.696V67.4H134.396V71.4ZM156.532 68.6069L146.312 44.9469L142.64 46.5331L152.86 70.1931L156.532 68.6069ZM206.803 103H204.803V105H206.803V103ZM206.803 4.99999V2.99999H204.803V4.99999H206.803ZM232.423 4.99999H234.423V2.99999H232.423V4.99999ZM232.423 79.9H230.423V81.9H232.423V79.9ZM256.083 79.9V81.9H258.083V79.9H256.083ZM256.083 4.99999V2.99999H254.083V4.99999H256.083ZM281.703 4.99999H283.703V2.99999H281.703V4.99999ZM281.703 79.9H279.703V81.9H281.703V79.9ZM305.363 79.9V81.9H307.363V79.9H305.363ZM305.363 4.99999V2.99999H303.363V4.99999H305.363ZM330.983 4.99999H332.983V2.99999H330.983V4.99999ZM330.983 103V105H332.983V103H330.983ZM208.803 103V4.99999H204.803V103H208.803ZM206.803 6.99999H232.423V2.99999H206.803V6.99999ZM230.423 4.99999V79.9H234.423V4.99999H230.423ZM232.423 81.9H256.083V77.9H232.423V81.9ZM258.083 79.9V4.99999H254.083V79.9H258.083ZM256.083 6.99999H281.703V2.99999H256.083V6.99999ZM279.703 4.99999V79.9H283.703V4.99999H279.703ZM281.703 81.9H305.363V77.9H281.703V81.9ZM307.363 79.9V4.99999H303.363V79.9H307.363ZM305.363 6.99999H330.983V2.99999H305.363V6.99999ZM328.983 4.99999V103H332.983V4.99999H328.983ZM330.983 101H206.803V105H330.983V101ZM391.095 4.99999V2.99999H389.095V4.99999H391.095ZM472.575 4.99999H474.575V2.99999H472.575V4.99999ZM472.575 103V105H474.575V103H472.575ZM446.955 103H444.955V105H446.955V103ZM446.955 28.1H448.955V26.1H446.955V28.1ZM416.715 28.1V26.1H414.715V28.1H416.715ZM416.715 103V105H418.715V103H416.715ZM391.095 103H389.095V105H391.095V103ZM391.095 6.99999H472.575V2.99999H391.095V6.99999ZM470.575 4.99999V103H474.575V4.99999H470.575ZM472.575 101C472.558 101 472.541 101 472.525 101C472.508 101 472.491 101 472.474 101C472.458 101 472.441 101 472.424 101C472.408 101 472.391 101 472.374 101C472.358 101 472.341 101 472.324 101C472.308 101 472.291 101 472.274 101C472.258 101 472.241 101 472.224 101C472.208 101 472.191 101 472.174 101C472.158 101 472.141 101 472.124 101C472.108 101 472.091 101 472.074 101C472.057 101 472.041 101 472.024 101C472.007 101 471.991 101 471.974 101C471.957 101 471.941 101 471.924 101C471.907 101 471.891 101 471.874 101C471.857 101 471.841 101 471.824 101C471.807 101 471.791 101 471.774 101C471.757 101 471.741 101 471.724 101C471.707 101 471.691 101 471.674 101C471.657 101 471.64 101 471.624 101C471.607 101 471.59 101 471.574 101C471.557 101 471.54 101 471.524 101C471.507 101 471.49 101 471.474 101C471.457 101 471.44 101 471.424 101C471.407 101 471.39 101 471.374 101C471.357 101 471.34 101 471.324 101C471.307 101 471.29 101 471.274 101C471.257 101 471.24 101 471.223 101C471.207 101 471.19 101 471.173 101C471.157 101 471.14 101 471.123 101C471.107 101 471.09 101 471.073 101C471.057 101 471.04 101 471.023 101C471.007 101 470.99 101 470.973 101C470.957 101 470.94 101 470.923 101C470.907 101 470.89 101 470.873 101C470.857 101 470.84 101 470.823 101C470.806 101 470.79 101 470.773 101C470.756 101 470.74 101 470.723 101C470.706 101 470.69 101 470.673 101C470.656 101 470.64 101 470.623 101C470.606 101 470.59 101 470.573 101C470.556 101 470.54 101 470.523 101C470.506 101 470.49 101 470.473 101C470.456 101 470.44 101 470.423 101C470.406 101 470.389 101 470.373 101C470.356 101 470.339 101 470.323 101C470.306 101 470.289 101 470.273 101C470.256 101 470.239 101 470.223 101C470.206 101 470.189 101 470.173 101C470.156 101 470.139 101 470.123 101C470.106 101 470.089 101 470.073 101C470.056 101 470.039 101 470.023 101C470.006 101 469.989 101 469.973 101C469.956 101 469.939 101 469.922 101C469.906 101 469.889 101 469.872 101C469.856 101 469.839 101 469.822 101C469.806 101 469.789 101 469.772 101C469.756 101 469.739 101 469.722 101C469.706 101 469.689 101 469.672 101C469.656 101 469.639 101 469.622 101C469.606 101 469.589 101 469.572 101C469.556 101 469.539 101 469.522 101C469.505 101 469.489 101 469.472 101C469.455 101 469.439 101 469.422 101C469.405 101 469.389 101 469.372 101C469.355 101 469.339 101 469.322 101C469.305 101 469.289 101 469.272 101C469.255 101 469.239 101 469.222 101C469.205 101 469.189 101 469.172 101C469.155 101 469.139 101 469.122 101C469.105 101 469.089 101 469.072 101C469.055 101 469.038 101 469.022 101C469.005 101 468.988 101 468.972 101C468.955 101 468.938 101 468.922 101C468.905 101 468.888 101 468.872 101C468.855 101 468.838 101 468.822 101C468.805 101 468.788 101 468.772 101C468.755 101 468.738 101 468.722 101C468.705 101 468.688 101 468.672 101C468.655 101 468.638 101 468.621 101C468.605 101 468.588 101 468.571 101C468.555 101 468.538 101 468.521 101C468.505 101 468.488 101 468.471 101C468.455 101 468.438 101 468.421 101C468.405 101 468.388 101 468.371 101C468.355 101 468.338 101 468.321 101C468.305 101 468.288 101 468.271 101C468.255 101 468.238 101 468.221 101C468.204 101 468.188 101 468.171 101C468.154 101 468.138 101 468.121 101C468.104 101 468.088 101 468.071 101C468.054 101 468.038 101 468.021 101C468.004 101 467.988 101 467.971 101C467.954 101 467.938 101 467.921 101C467.904 101 467.888 101 467.871 101C467.854 101 467.838 101 467.821 101C467.804 101 467.787 101 467.771 101C467.754 101 467.737 101 467.721 101C467.704 101 467.687 101 467.671 101C467.654 101 467.637 101 467.621 101C467.604 101 467.587 101 467.571 101C467.554 101 467.537 101 467.521 101C467.504 101 467.487 101 467.471 101C467.454 101 467.437 101 467.421 101C467.404 101 467.387 101 467.37 101C467.354 101 467.337 101 467.32 101C467.304 101 467.287 101 467.27 101C467.254 101 467.237 101 467.22 101C467.204 101 467.187 101 467.17 101C467.154 101 467.137 101 467.12 101C467.104 101 467.087 101 467.07 101C467.054 101 467.037 101 467.02 101C467.004 101 466.987 101 466.97 101C466.953 101 466.937 101 466.92 101C466.903 101 466.887 101 466.87 101C466.853 101 466.837 101 466.82 101C466.803 101 466.787 101 466.77 101C466.753 101 466.737 101 466.72 101C466.703 101 466.687 101 466.67 101C466.653 101 466.637 101 466.62 101C466.603 101 466.587 101 466.57 101C466.553 101 466.536 101 466.52 101C466.503 101 466.486 101 466.47 101C466.453 101 466.436 101 466.42 101C466.403 101 466.386 101 466.37 101C466.353 101 466.336 101 466.32 101C466.303 101 466.286 101 466.27 101C466.253 101 466.236 101 466.22 101C466.203 101 466.186 101 466.17 101C466.153 101 466.136 101 466.12 101C466.103 101 466.086 101 466.069 101C466.053 101 466.036 101 466.019 101C466.003 101 465.986 101 465.969 101C465.953 101 465.936 101 465.919 101C465.903 101 465.886 101 465.869 101C465.853 101 465.836 101 465.819 101C465.803 101 465.786 101 465.769 101C465.753 101 465.736 101 465.719 101C465.703 101 465.686 101 465.669 101C465.652 101 465.636 101 465.619 101C465.602 101 465.586 101 465.569 101C465.552 101 465.536 101 465.519 101C465.502 101 465.486 101 465.469 101C465.452 101 465.436 101 465.419 101C465.402 101 465.386 101 465.369 101C465.352 101 465.336 101 465.319 101C465.302 101 465.286 101 465.269 101C465.252 101 465.235 101 465.219 101C465.202 101 465.185 101 465.169 101C465.152 101 465.135 101 465.119 101C465.102 101 465.085 101 465.069 101C465.052 101 465.035 101 465.019 101C465.002 101 464.985 101 464.969 101C464.952 101 464.935 101 464.919 101C464.902 101 464.885 101 464.869 101C464.852 101 464.835 101 464.818 101C464.802 101 464.785 101 464.768 101C464.752 101 464.735 101 464.718 101C464.702 101 464.685 101 464.668 101C464.652 101 464.635 101 464.618 101C464.602 101 464.585 101 464.568 101C464.552 101 464.535 101 464.518 101C464.502 101 464.485 101 464.468 101C464.452 101 464.435 101 464.418 101C464.401 101 464.385 101 464.368 101C464.351 101 464.335 101 464.318 101C464.301 101 464.285 101 464.268 101C464.251 101 464.235 101 464.218 101C464.201 101 464.185 101 464.168 101C464.151 101 464.135 101 464.118 101C464.101 101 464.085 101 464.068 101C464.051 101 464.035 101 464.018 101C464.001 101 463.984 101 463.968 101C463.951 101 463.934 101 463.918 101C463.901 101 463.884 101 463.868 101C463.851 101 463.834 101 463.818 101C463.801 101 463.784 101 463.768 101C463.751 101 463.734 101 463.718 101C463.701 101 463.684 101 463.668 101C463.651 101 463.634 101 463.618 101C463.601 101 463.584 101 463.568 101C463.551 101 463.534 101 463.517 101C463.501 101 463.484 101 463.467 101C463.451 101 463.434 101 463.417 101C463.401 101 463.384 101 463.367 101C463.351 101 463.334 101 463.317 101C463.301 101 463.284 101 463.267 101C463.251 101 463.234 101 463.217 101C463.201 101 463.184 101 463.167 101C463.151 101 463.134 101 463.117 101C463.1 101 463.084 101 463.067 101C463.05 101 463.034 101 463.017 101C463 101 462.984 101 462.967 101C462.95 101 462.934 101 462.917 101C462.9 101 462.884 101 462.867 101C462.85 101 462.834 101 462.817 101C462.8 101 462.784 101 462.767 101C462.75 101 462.734 101 462.717 101C462.7 101 462.684 101 462.667 101C462.65 101 462.633 101 462.617 101C462.6 101 462.583 101 462.567 101C462.55 101 462.533 101 462.517 101C462.5 101 462.483 101 462.467 101C462.45 101 462.433 101 462.417 101C462.4 101 462.383 101 462.367 101C462.35 101 462.333 101 462.317 101C462.3 101 462.283 101 462.267 101C462.25 101 462.233 101 462.216 101C462.2 101 462.183 101 462.166 101C462.15 101 462.133 101 462.116 101C462.1 101 462.083 101 462.066 101C462.05 101 462.033 101 462.016 101C462 101 461.983 101 461.966 101C461.95 101 461.933 101 461.916 101C461.9 101 461.883 101 461.866 101C461.85 101 461.833 101 461.816 101C461.799 101 461.783 101 461.766 101C461.749 101 461.733 101 461.716 101C461.699 101 461.683 101 461.666 101C461.649 101 461.633 101 461.616 101C461.599 101 461.583 101 461.566 101C461.549 101 461.533 101 461.516 101C461.499 101 461.483 101 461.466 101C461.449 101 461.433 101 461.416 101C461.399 101 461.382 101 461.366 101C461.349 101 461.332 101 461.316 101C461.299 101 461.282 101 461.266 101C461.249 101 461.232 101 461.216 101C461.199 101 461.182 101 461.166 101C461.149 101 461.132 101 461.116 101C461.099 101 461.082 101 461.066 101C461.049 101 461.032 101 461.016 101C460.999 101 460.982 101 460.965 101C460.949 101 460.932 101 460.915 101C460.899 101 460.882 101 460.865 101C460.849 101 460.832 101 460.815 101C460.799 101 460.782 101 460.765 101C460.749 101 460.732 101 460.715 101C460.699 101 460.682 101 460.665 101C460.649 101 460.632 101 460.615 101C460.599 101 460.582 101 460.565 101C460.548 101 460.532 101 460.515 101C460.498 101 460.482 101 460.465 101C460.448 101 460.432 101 460.415 101C460.398 101 460.382 101 460.365 101C460.348 101 460.332 101 460.315 101C460.298 101 460.282 101 460.265 101C460.248 101 460.232 101 460.215 101C460.198 101 460.182 101 460.165 101C460.148 101 460.132 101 460.115 101C460.098 101 460.081 101 460.065 101C460.048 101 460.031 101 460.015 101C459.998 101 459.981 101 459.965 101C459.948 101 459.931 101 459.915 101C459.898 101 459.881 101 459.865 101C459.848 101 459.831 101 459.815 101C459.798 101 459.781 101 459.765 101C459.748 101 459.731 101 459.715 101C459.698 101 459.681 101 459.664 101C459.648 101 459.631 101 459.614 101C459.598 101 459.581 101 459.564 101C459.548 101 459.531 101 459.514 101C459.498 101 459.481 101 459.464 101C459.448 101 459.431 101 459.414 101C459.398 101 459.381 101 459.364 101C459.348 101 459.331 101 459.314 101C459.298 101 459.281 101 459.264 101C459.247 101 459.231 101 459.214 101C459.197 101 459.181 101 459.164 101C459.147 101 459.131 101 459.114 101C459.097 101 459.081 101 459.064 101C459.047 101 459.031 101 459.014 101C458.997 101 458.981 101 458.964 101C458.947 101 458.931 101 458.914 101C458.897 101 458.881 101 458.864 101C458.847 101 458.83 101 458.814 101C458.797 101 458.78 101 458.764 101C458.747 101 458.73 101 458.714 101C458.697 101 458.68 101 458.664 101C458.647 101 458.63 101 458.614 101C458.597 101 458.58 101 458.564 101C458.547 101 458.53 101 458.514 101C458.497 101 458.48 101 458.464 101C458.447 101 458.43 101 458.413 101C458.397 101 458.38 101 458.363 101C458.347 101 458.33 101 458.313 101C458.297 101 458.28 101 458.263 101C458.247 101 458.23 101 458.213 101C458.197 101 458.18 101 458.163 101C458.147 101 458.13 101 458.113 101C458.097 101 458.08 101 458.063 101C458.047 101 458.03 101 458.013 101C457.996 101 457.98 101 457.963 101C457.946 101 457.93 101 457.913 101C457.896 101 457.88 101 457.863 101C457.846 101 457.83 101 457.813 101C457.796 101 457.78 101 457.763 101C457.746 101 457.73 101 457.713 101C457.696 101 457.68 101 457.663 101C457.646 101 457.63 101 457.613 101C457.596 101 457.579 101 457.563 101C457.546 101 457.529 101 457.513 101C457.496 101 457.479 101 457.463 101C457.446 101 457.429 101 457.413 101C457.396 101 457.379 101 457.363 101C457.346 101 457.329 101 457.313 101C457.296 101 457.279 101 457.263 101C457.246 101 457.229 101 457.213 101C457.196 101 457.179 101 457.163 101C457.146 101 457.129 101 457.112 101C457.096 101 457.079 101 457.062 101C457.046 101 457.029 101 457.012 101C456.996 101 456.979 101 456.962 101C456.946 101 456.929 101 456.912 101C456.896 101 456.879 101 456.862 101C456.846 101 456.829 101 456.812 101C456.796 101 456.779 101 456.762 101C456.746 101 456.729 101 456.712 101C456.695 101 456.679 101 456.662 101C456.645 101 456.629 101 456.612 101C456.595 101 456.579 101 456.562 101C456.545 101 456.529 101 456.512 101C456.495 101 456.479 101 456.462 101C456.445 101 456.429 101 456.412 101C456.395 101 456.379 101 456.362 101C456.345 101 456.329 101 456.312 101C456.295 101 456.279 101 456.262 101C456.245 101 456.228 101 456.212 101C456.195 101 456.178 101 456.162 101C456.145 101 456.128 101 456.112 101C456.095 101 456.078 101 456.062 101C456.045 101 456.028 101 456.012 101C455.995 101 455.978 101 455.962 101C455.945 101 455.928 101 455.912 101C455.895 101 455.878 101 455.862 101C455.845 101 455.828 101 455.811 101C455.795 101 455.778 101 455.761 101C455.745 101 455.728 101 455.711 101C455.695 101 455.678 101 455.661 101C455.645 101 455.628 101 455.611 101C455.595 101 455.578 101 455.561 101C455.545 101 455.528 101 455.511 101C455.495 101 455.478 101 455.461 101C455.445 101 455.428 101 455.411 101C455.394 101 455.378 101 455.361 101C455.344 101 455.328 101 455.311 101C455.294 101 455.278 101 455.261 101C455.244 101 455.228 101 455.211 101C455.194 101 455.178 101 455.161 101C455.144 101 455.128 101 455.111 101C455.094 101 455.078 101 455.061 101C455.044 101 455.028 101 455.011 101C454.994 101 454.977 101 454.961 101C454.944 101 454.927 101 454.911 101C454.894 101 454.877 101 454.861 101C454.844 101 454.827 101 454.811 101C454.794 101 454.777 101 454.761 101C454.744 101 454.727 101 454.711 101C454.694 101 454.677 101 454.661 101C454.644 101 454.627 101 454.611 101C454.594 101 454.577 101 454.56 101C454.544 101 454.527 101 454.51 101C454.494 101 454.477 101 454.46 101C454.444 101 454.427 101 454.41 101C454.394 101 454.377 101 454.36 101C454.344 101 454.327 101 454.31 101C454.294 101 454.277 101 454.26 101C454.244 101 454.227 101 454.21 101C454.194 101 454.177 101 454.16 101C454.143 101 454.127 101 454.11 101C454.093 101 454.077 101 454.06 101C454.043 101 454.027 101 454.01 101C453.993 101 453.977 101 453.96 101C453.943 101 453.927 101 453.91 101C453.893 101 453.877 101 453.86 101C453.843 101 453.827 101 453.81 101C453.793 101 453.777 101 453.76 101C453.743 101 453.727 101 453.71 101C453.693 101 453.676 101 453.66 101C453.643 101 453.626 101 453.61 101C453.593 101 453.576 101 453.56 101C453.543 101 453.526 101 453.51 101C453.493 101 453.476 101 453.46 101C453.443 101 453.426 101 453.41 101C453.393 101 453.376 101 453.36 101C453.343 101 453.326 101 453.31 101C453.293 101 453.276 101 453.259 101C453.243 101 453.226 101 453.209 101C453.193 101 453.176 101 453.159 101C453.143 101 453.126 101 453.109 101C453.093 101 453.076 101 453.059 101C453.043 101 453.026 101 453.009 101C452.993 101 452.976 101 452.959 101C452.943 101 452.926 101 452.909 101C452.893 101 452.876 101 452.859 101C452.842 101 452.826 101 452.809 101C452.792 101 452.776 101 452.759 101C452.742 101 452.726 101 452.709 101C452.692 101 452.676 101 452.659 101C452.642 101 452.626 101 452.609 101C452.592 101 452.576 101 452.559 101C452.542 101 452.526 101 452.509 101C452.492 101 452.476 101 452.459 101C452.442 101 452.425 101 452.409 101C452.392 101 452.375 101 452.359 101C452.342 101 452.325 101 452.309 101C452.292 101 452.275 101 452.259 101C452.242 101 452.225 101 452.209 101C452.192 101 452.175 101 452.159 101C452.142 101 452.125 101 452.109 101C452.092 101 452.075 101 452.059 101C452.042 101 452.025 101 452.008 101C451.992 101 451.975 101 451.958 101C451.942 101 451.925 101 451.908 101C451.892 101 451.875 101 451.858 101C451.842 101 451.825 101 451.808 101C451.792 101 451.775 101 451.758 101C451.742 101 451.725 101 451.708 101C451.692 101 451.675 101 451.658 101C451.642 101 451.625 101 451.608 101C451.591 101 451.575 101 451.558 101C451.541 101 451.525 101 451.508 101C451.491 101 451.475 101 451.458 101C451.441 101 451.425 101 451.408 101C451.391 101 451.375 101 451.358 101C451.341 101 451.325 101 451.308 101C451.291 101 451.275 101 451.258 101C451.241 101 451.225 101 451.208 101C451.191 101 451.174 101 451.158 101C451.141 101 451.124 101 451.108 101C451.091 101 451.074 101 451.058 101C451.041 101 451.024 101 451.008 101C450.991 101 450.974 101 450.958 101C450.941 101 450.924 101 450.908 101C450.891 101 450.874 101 450.858 101C450.841 101 450.824 101 450.808 101C450.791 101 450.774 101 450.758 101C450.741 101 450.724 101 450.707 101C450.691 101 450.674 101 450.657 101C450.641 101 450.624 101 450.607 101C450.591 101 450.574 101 450.557 101C450.541 101 450.524 101 450.507 101C450.491 101 450.474 101 450.457 101C450.441 101 450.424 101 450.407 101C450.391 101 450.374 101 450.357 101C450.341 101 450.324 101 450.307 101C450.29 101 450.274 101 450.257 101C450.24 101 450.224 101 450.207 101C450.19 101 450.174 101 450.157 101C450.14 101 450.124 101 450.107 101C450.09 101 450.074 101 450.057 101C450.04 101 450.024 101 450.007 101C449.99 101 449.974 101 449.957 101C449.94 101 449.924 101 449.907 101C449.89 101 449.874 101 449.857 101C449.84 101 449.823 101 449.807 101C449.79 101 449.773 101 449.757 101C449.74 101 449.723 101 449.707 101C449.69 101 449.673 101 449.657 101C449.64 101 449.623 101 449.607 101C449.59 101 449.573 101 449.557 101C449.54 101 449.523 101 449.507 101C449.49 101 449.473 101 449.457 101C449.44 101 449.423 101 449.406 101C449.39 101 449.373 101 449.356 101C449.34 101 449.323 101 449.306 101C449.29 101 449.273 101 449.256 101C449.24 101 449.223 101 449.206 101C449.19 101 449.173 101 449.156 101C449.14 101 449.123 101 449.106 101C449.09 101 449.073 101 449.056 101C449.04 101 449.023 101 449.006 101C448.989 101 448.973 101 448.956 101C448.939 101 448.923 101 448.906 101C448.889 101 448.873 101 448.856 101C448.839 101 448.823 101 448.806 101C448.789 101 448.773 101 448.756 101C448.739 101 448.723 101 448.706 101C448.689 101 448.673 101 448.656 101C448.639 101 448.623 101 448.606 101C448.589 101 448.572 101 448.556 101C448.539 101 448.522 101 448.506 101C448.489 101 448.472 101 448.456 101C448.439 101 448.422 101 448.406 101C448.389 101 448.372 101 448.356 101C448.339 101 448.322 101 448.306 101C448.289 101 448.272 101 448.256 101C448.239 101 448.222 101 448.206 101C448.189 101 448.172 101 448.155 101C448.139 101 448.122 101 448.105 101C448.089 101 448.072 101 448.055 101C448.039 101 448.022 101 448.005 101C447.989 101 447.972 101 447.955 101C447.939 101 447.922 101 447.905 101C447.889 101 447.872 101 447.855 101C447.839 101 447.822 101 447.805 101C447.789 101 447.772 101 447.755 101C447.738 101 447.722 101 447.705 101C447.688 101 447.672 101 447.655 101C447.638 101 447.622 101 447.605 101C447.588 101 447.572 101 447.555 101C447.538 101 447.522 101 447.505 101C447.488 101 447.472 101 447.455 101C447.438 101 447.422 101 447.405 101C447.388 101 447.372 101 447.355 101C447.338 101 447.322 101 447.305 101C447.288 101 447.271 101 447.255 101C447.238 101 447.221 101 447.205 101C447.188 101 447.171 101 447.155 101C447.138 101 447.121 101 447.105 101C447.088 101 447.071 101 447.055 101C447.038 101 447.021 101 447.005 101C446.988 101 446.971 101 446.955 101V105C446.971 105 446.988 105 447.005 105C447.021 105 447.038 105 447.055 105C447.071 105 447.088 105 447.105 105C447.121 105 447.138 105 447.155 105C447.171 105 447.188 105 447.205 105C447.221 105 447.238 105 447.255 105C447.271 105 447.288 105 447.305 105C447.322 105 447.338 105 447.355 105C447.372 105 447.388 105 447.405 105C447.422 105 447.438 105 447.455 105C447.472 105 447.488 105 447.505 105C447.522 105 447.538 105 447.555 105C447.572 105 447.588 105 447.605 105C447.622 105 447.638 105 447.655 105C447.672 105 447.688 105 447.705 105C447.722 105 447.738 105 447.755 105C447.772 105 447.789 105 447.805 105C447.822 105 447.839 105 447.855 105C447.872 105 447.889 105 447.905 105C447.922 105 447.939 105 447.955 105C447.972 105 447.989 105 448.005 105C448.022 105 448.039 105 448.055 105C448.072 105 448.089 105 448.105 105C448.122 105 448.139 105 448.155 105C448.172 105 448.189 105 448.206 105C448.222 105 448.239 105 448.256 105C448.272 105 448.289 105 448.306 105C448.322 105 448.339 105 448.356 105C448.372 105 448.389 105 448.406 105C448.422 105 448.439 105 448.456 105C448.472 105 448.489 105 448.506 105C448.522 105 448.539 105 448.556 105C448.572 105 448.589 105 448.606 105C448.623 105 448.639 105 448.656 105C448.673 105 448.689 105 448.706 105C448.723 105 448.739 105 448.756 105C448.773 105 448.789 105 448.806 105C448.823 105 448.839 105 448.856 105C448.873 105 448.889 105 448.906 105C448.923 105 448.939 105 448.956 105C448.973 105 448.989 105 449.006 105C449.023 105 449.04 105 449.056 105C449.073 105 449.09 105 449.106 105C449.123 105 449.14 105 449.156 105C449.173 105 449.19 105 449.206 105C449.223 105 449.24 105 449.256 105C449.273 105 449.29 105 449.306 105C449.323 105 449.34 105 449.356 105C449.373 105 449.39 105 449.406 105C449.423 105 449.44 105 449.457 105C449.473 105 449.49 105 449.507 105C449.523 105 449.54 105 449.557 105C449.573 105 449.59 105 449.607 105C449.623 105 449.64 105 449.657 105C449.673 105 449.69 105 449.707 105C449.723 105 449.74 105 449.757 105C449.773 105 449.79 105 449.807 105C449.823 105 449.84 105 449.857 105C449.874 105 449.89 105 449.907 105C449.924 105 449.94 105 449.957 105C449.974 105 449.99 105 450.007 105C450.024 105 450.04 105 450.057 105C450.074 105 450.09 105 450.107 105C450.124 105 450.14 105 450.157 105C450.174 105 450.19 105 450.207 105C450.224 105 450.24 105 450.257 105C450.274 105 450.29 105 450.307 105C450.324 105 450.341 105 450.357 105C450.374 105 450.391 105 450.407 105C450.424 105 450.441 105 450.457 105C450.474 105 450.491 105 450.507 105C450.524 105 450.541 105 450.557 105C450.574 105 450.591 105 450.607 105C450.624 105 450.641 105 450.657 105C450.674 105 450.691 105 450.707 105C450.724 105 450.741 105 450.758 105C450.774 105 450.791 105 450.808 105C450.824 105 450.841 105 450.858 105C450.874 105 450.891 105 450.908 105C450.924 105 450.941 105 450.958 105C450.974 105 450.991 105 451.008 105C451.024 105 451.041 105 451.058 105C451.074 105 451.091 105 451.108 105C451.124 105 451.141 105 451.158 105C451.174 105 451.191 105 451.208 105C451.225 105 451.241 105 451.258 105C451.275 105 451.291 105 451.308 105C451.325 105 451.341 105 451.358 105C451.375 105 451.391 105 451.408 105C451.425 105 451.441 105 451.458 105C451.475 105 451.491 105 451.508 105C451.525 105 451.541 105 451.558 105C451.575 105 451.591 105 451.608 105C451.625 105 451.642 105 451.658 105C451.675 105 451.692 105 451.708 105C451.725 105 451.742 105 451.758 105C451.775 105 451.792 105 451.808 105C451.825 105 451.842 105 451.858 105C451.875 105 451.892 105 451.908 105C451.925 105 451.942 105 451.958 105C451.975 105 451.992 105 452.008 105C452.025 105 452.042 105 452.059 105C452.075 105 452.092 105 452.109 105C452.125 105 452.142 105 452.159 105C452.175 105 452.192 105 452.209 105C452.225 105 452.242 105 452.259 105C452.275 105 452.292 105 452.309 105C452.325 105 452.342 105 452.359 105C452.375 105 452.392 105 452.409 105C452.425 105 452.442 105 452.459 105C452.476 105 452.492 105 452.509 105C452.526 105 452.542 105 452.559 105C452.576 105 452.592 105 452.609 105C452.626 105 452.642 105 452.659 105C452.676 105 452.692 105 452.709 105C452.726 105 452.742 105 452.759 105C452.776 105 452.792 105 452.809 105C452.826 105 452.842 105 452.859 105C452.876 105 452.893 105 452.909 105C452.926 105 452.943 105 452.959 105C452.976 105 452.993 105 453.009 105C453.026 105 453.043 105 453.059 105C453.076 105 453.093 105 453.109 105C453.126 105 453.143 105 453.159 105C453.176 105 453.193 105 453.209 105C453.226 105 453.243 105 453.259 105C453.276 105 453.293 105 453.31 105C453.326 105 453.343 105 453.36 105C453.376 105 453.393 105 453.41 105C453.426 105 453.443 105 453.46 105C453.476 105 453.493 105 453.51 105C453.526 105 453.543 105 453.56 105C453.576 105 453.593 105 453.61 105C453.626 105 453.643 105 453.66 105C453.676 105 453.693 105 453.71 105C453.727 105 453.743 105 453.76 105C453.777 105 453.793 105 453.81 105C453.827 105 453.843 105 453.86 105C453.877 105 453.893 105 453.91 105C453.927 105 453.943 105 453.96 105C453.977 105 453.993 105 454.01 105C454.027 105 454.043 105 454.06 105C454.077 105 454.093 105 454.11 105C454.127 105 454.143 105 454.16 105C454.177 105 454.194 105 454.21 105C454.227 105 454.244 105 454.26 105C454.277 105 454.294 105 454.31 105C454.327 105 454.344 105 454.36 105C454.377 105 454.394 105 454.41 105C454.427 105 454.444 105 454.46 105C454.477 105 454.494 105 454.51 105C454.527 105 454.544 105 454.56 105C454.577 105 454.594 105 454.611 105C454.627 105 454.644 105 454.661 105C454.677 105 454.694 105 454.711 105C454.727 105 454.744 105 454.761 105C454.777 105 454.794 105 454.811 105C454.827 105 454.844 105 454.861 105C454.877 105 454.894 105 454.911 105C454.927 105 454.944 105 454.961 105C454.977 105 454.994 105 455.011 105C455.028 105 455.044 105 455.061 105C455.078 105 455.094 105 455.111 105C455.128 105 455.144 105 455.161 105C455.178 105 455.194 105 455.211 105C455.228 105 455.244 105 455.261 105C455.278 105 455.294 105 455.311 105C455.328 105 455.344 105 455.361 105C455.378 105 455.394 105 455.411 105C455.428 105 455.445 105 455.461 105C455.478 105 455.495 105 455.511 105C455.528 105 455.545 105 455.561 105C455.578 105 455.595 105 455.611 105C455.628 105 455.645 105 455.661 105C455.678 105 455.695 105 455.711 105C455.728 105 455.745 105 455.761 105C455.778 105 455.795 105 455.811 105C455.828 105 455.845 105 455.862 105C455.878 105 455.895 105 455.912 105C455.928 105 455.945 105 455.962 105C455.978 105 455.995 105 456.012 105C456.028 105 456.045 105 456.062 105C456.078 105 456.095 105 456.112 105C456.128 105 456.145 105 456.162 105C456.178 105 456.195 105 456.212 105C456.228 105 456.245 105 456.262 105C456.279 105 456.295 105 456.312 105C456.329 105 456.345 105 456.362 105C456.379 105 456.395 105 456.412 105C456.429 105 456.445 105 456.462 105C456.479 105 456.495 105 456.512 105C456.529 105 456.545 105 456.562 105C456.579 105 456.595 105 456.612 105C456.629 105 456.645 105 456.662 105C456.679 105 456.695 105 456.712 105C456.729 105 456.746 105 456.762 105C456.779 105 456.796 105 456.812 105C456.829 105 456.846 105 456.862 105C456.879 105 456.896 105 456.912 105C456.929 105 456.946 105 456.962 105C456.979 105 456.996 105 457.012 105C457.029 105 457.046 105 457.062 105C457.079 105 457.096 105 457.112 105C457.129 105 457.146 105 457.163 105C457.179 105 457.196 105 457.213 105C457.229 105 457.246 105 457.263 105C457.279 105 457.296 105 457.313 105C457.329 105 457.346 105 457.363 105C457.379 105 457.396 105 457.413 105C457.429 105 457.446 105 457.463 105C457.479 105 457.496 105 457.513 105C457.529 105 457.546 105 457.563 105C457.579 105 457.596 105 457.613 105C457.63 105 457.646 105 457.663 105C457.68 105 457.696 105 457.713 105C457.73 105 457.746 105 457.763 105C457.78 105 457.796 105 457.813 105C457.83 105 457.846 105 457.863 105C457.88 105 457.896 105 457.913 105C457.93 105 457.946 105 457.963 105C457.98 105 457.996 105 458.013 105C458.03 105 458.047 105 458.063 105C458.08 105 458.097 105 458.113 105C458.13 105 458.147 105 458.163 105C458.18 105 458.197 105 458.213 105C458.23 105 458.247 105 458.263 105C458.28 105 458.297 105 458.313 105C458.33 105 458.347 105 458.363 105C458.38 105 458.397 105 458.413 105C458.43 105 458.447 105 458.464 105C458.48 105 458.497 105 458.514 105C458.53 105 458.547 105 458.564 105C458.58 105 458.597 105 458.614 105C458.63 105 458.647 105 458.664 105C458.68 105 458.697 105 458.714 105C458.73 105 458.747 105 458.764 105C458.78 105 458.797 105 458.814 105C458.83 105 458.847 105 458.864 105C458.881 105 458.897 105 458.914 105C458.931 105 458.947 105 458.964 105C458.981 105 458.997 105 459.014 105C459.031 105 459.047 105 459.064 105C459.081 105 459.097 105 459.114 105C459.131 105 459.147 105 459.164 105C459.181 105 459.197 105 459.214 105C459.231 105 459.247 105 459.264 105C459.281 105 459.298 105 459.314 105C459.331 105 459.348 105 459.364 105C459.381 105 459.398 105 459.414 105C459.431 105 459.448 105 459.464 105C459.481 105 459.498 105 459.514 105C459.531 105 459.548 105 459.564 105C459.581 105 459.598 105 459.614 105C459.631 105 459.648 105 459.664 105C459.681 105 459.698 105 459.715 105C459.731 105 459.748 105 459.765 105C459.781 105 459.798 105 459.815 105C459.831 105 459.848 105 459.865 105C459.881 105 459.898 105 459.915 105C459.931 105 459.948 105 459.965 105C459.981 105 459.998 105 460.015 105C460.031 105 460.048 105 460.065 105C460.081 105 460.098 105 460.115 105C460.132 105 460.148 105 460.165 105C460.182 105 460.198 105 460.215 105C460.232 105 460.248 105 460.265 105C460.282 105 460.298 105 460.315 105C460.332 105 460.348 105 460.365 105C460.382 105 460.398 105 460.415 105C460.432 105 460.448 105 460.465 105C460.482 105 460.498 105 460.515 105C460.532 105 460.548 105 460.565 105C460.582 105 460.599 105 460.615 105C460.632 105 460.649 105 460.665 105C460.682 105 460.699 105 460.715 105C460.732 105 460.749 105 460.765 105C460.782 105 460.799 105 460.815 105C460.832 105 460.849 105 460.865 105C460.882 105 460.899 105 460.915 105C460.932 105 460.949 105 460.965 105C460.982 105 460.999 105 461.016 105C461.032 105 461.049 105 461.066 105C461.082 105 461.099 105 461.116 105C461.132 105 461.149 105 461.166 105C461.182 105 461.199 105 461.216 105C461.232 105 461.249 105 461.266 105C461.282 105 461.299 105 461.316 105C461.332 105 461.349 105 461.366 105C461.382 105 461.399 105 461.416 105C461.433 105 461.449 105 461.466 105C461.483 105 461.499 105 461.516 105C461.533 105 461.549 105 461.566 105C461.583 105 461.599 105 461.616 105C461.633 105 461.649 105 461.666 105C461.683 105 461.699 105 461.716 105C461.733 105 461.749 105 461.766 105C461.783 105 461.799 105 461.816 105C461.833 105 461.85 105 461.866 105C461.883 105 461.9 105 461.916 105C461.933 105 461.95 105 461.966 105C461.983 105 462 105 462.016 105C462.033 105 462.05 105 462.066 105C462.083 105 462.1 105 462.116 105C462.133 105 462.15 105 462.166 105C462.183 105 462.2 105 462.216 105C462.233 105 462.25 105 462.267 105C462.283 105 462.3 105 462.317 105C462.333 105 462.35 105 462.367 105C462.383 105 462.4 105 462.417 105C462.433 105 462.45 105 462.467 105C462.483 105 462.5 105 462.517 105C462.533 105 462.55 105 462.567 105C462.583 105 462.6 105 462.617 105C462.633 105 462.65 105 462.667 105C462.684 105 462.7 105 462.717 105C462.734 105 462.75 105 462.767 105C462.784 105 462.8 105 462.817 105C462.834 105 462.85 105 462.867 105C462.884 105 462.9 105 462.917 105C462.934 105 462.95 105 462.967 105C462.984 105 463 105 463.017 105C463.034 105 463.05 105 463.067 105C463.084 105 463.1 105 463.117 105C463.134 105 463.151 105 463.167 105C463.184 105 463.201 105 463.217 105C463.234 105 463.251 105 463.267 105C463.284 105 463.301 105 463.317 105C463.334 105 463.351 105 463.367 105C463.384 105 463.401 105 463.417 105C463.434 105 463.451 105 463.467 105C463.484 105 463.501 105 463.517 105C463.534 105 463.551 105 463.568 105C463.584 105 463.601 105 463.618 105C463.634 105 463.651 105 463.668 105C463.684 105 463.701 105 463.718 105C463.734 105 463.751 105 463.768 105C463.784 105 463.801 105 463.818 105C463.834 105 463.851 105 463.868 105C463.884 105 463.901 105 463.918 105C463.934 105 463.951 105 463.968 105C463.984 105 464.001 105 464.018 105C464.035 105 464.051 105 464.068 105C464.085 105 464.101 105 464.118 105C464.135 105 464.151 105 464.168 105C464.185 105 464.201 105 464.218 105C464.235 105 464.251 105 464.268 105C464.285 105 464.301 105 464.318 105C464.335 105 464.351 105 464.368 105C464.385 105 464.401 105 464.418 105C464.435 105 464.452 105 464.468 105C464.485 105 464.502 105 464.518 105C464.535 105 464.552 105 464.568 105C464.585 105 464.602 105 464.618 105C464.635 105 464.652 105 464.668 105C464.685 105 464.702 105 464.718 105C464.735 105 464.752 105 464.768 105C464.785 105 464.802 105 464.818 105C464.835 105 464.852 105 464.869 105C464.885 105 464.902 105 464.919 105C464.935 105 464.952 105 464.969 105C464.985 105 465.002 105 465.019 105C465.035 105 465.052 105 465.069 105C465.085 105 465.102 105 465.119 105C465.135 105 465.152 105 465.169 105C465.185 105 465.202 105 465.219 105C465.235 105 465.252 105 465.269 105C465.286 105 465.302 105 465.319 105C465.336 105 465.352 105 465.369 105C465.386 105 465.402 105 465.419 105C465.436 105 465.452 105 465.469 105C465.486 105 465.502 105 465.519 105C465.536 105 465.552 105 465.569 105C465.586 105 465.602 105 465.619 105C465.636 105 465.652 105 465.669 105C465.686 105 465.703 105 465.719 105C465.736 105 465.753 105 465.769 105C465.786 105 465.803 105 465.819 105C465.836 105 465.853 105 465.869 105C465.886 105 465.903 105 465.919 105C465.936 105 465.953 105 465.969 105C465.986 105 466.003 105 466.019 105C466.036 105 466.053 105 466.069 105C466.086 105 466.103 105 466.12 105C466.136 105 466.153 105 466.17 105C466.186 105 466.203 105 466.22 105C466.236 105 466.253 105 466.27 105C466.286 105 466.303 105 466.32 105C466.336 105 466.353 105 466.37 105C466.386 105 466.403 105 466.42 105C466.436 105 466.453 105 466.47 105C466.486 105 466.503 105 466.52 105C466.536 105 466.553 105 466.57 105C466.587 105 466.603 105 466.62 105C466.637 105 466.653 105 466.67 105C466.687 105 466.703 105 466.72 105C466.737 105 466.753 105 466.77 105C466.787 105 466.803 105 466.82 105C466.837 105 466.853 105 466.87 105C466.887 105 466.903 105 466.92 105C466.937 105 466.953 105 466.97 105C466.987 105 467.004 105 467.02 105C467.037 105 467.054 105 467.07 105C467.087 105 467.104 105 467.12 105C467.137 105 467.154 105 467.17 105C467.187 105 467.204 105 467.22 105C467.237 105 467.254 105 467.27 105C467.287 105 467.304 105 467.32 105C467.337 105 467.354 105 467.37 105C467.387 105 467.404 105 467.421 105C467.437 105 467.454 105 467.471 105C467.487 105 467.504 105 467.521 105C467.537 105 467.554 105 467.571 105C467.587 105 467.604 105 467.621 105C467.637 105 467.654 105 467.671 105C467.687 105 467.704 105 467.721 105C467.737 105 467.754 105 467.771 105C467.787 105 467.804 105 467.821 105C467.838 105 467.854 105 467.871 105C467.888 105 467.904 105 467.921 105C467.938 105 467.954 105 467.971 105C467.988 105 468.004 105 468.021 105C468.038 105 468.054 105 468.071 105C468.088 105 468.104 105 468.121 105C468.138 105 468.154 105 468.171 105C468.188 105 468.204 105 468.221 105C468.238 105 468.255 105 468.271 105C468.288 105 468.305 105 468.321 105C468.338 105 468.355 105 468.371 105C468.388 105 468.405 105 468.421 105C468.438 105 468.455 105 468.471 105C468.488 105 468.505 105 468.521 105C468.538 105 468.555 105 468.571 105C468.588 105 468.605 105 468.621 105C468.638 105 468.655 105 468.672 105C468.688 105 468.705 105 468.722 105C468.738 105 468.755 105 468.772 105C468.788 105 468.805 105 468.822 105C468.838 105 468.855 105 468.872 105C468.888 105 468.905 105 468.922 105C468.938 105 468.955 105 468.972 105C468.988 105 469.005 105 469.022 105C469.038 105 469.055 105 469.072 105C469.089 105 469.105 105 469.122 105C469.139 105 469.155 105 469.172 105C469.189 105 469.205 105 469.222 105C469.239 105 469.255 105 469.272 105C469.289 105 469.305 105 469.322 105C469.339 105 469.355 105 469.372 105C469.389 105 469.405 105 469.422 105C469.439 105 469.455 105 469.472 105C469.489 105 469.505 105 469.522 105C469.539 105 469.556 105 469.572 105C469.589 105 469.606 105 469.622 105C469.639 105 469.656 105 469.672 105C469.689 105 469.706 105 469.722 105C469.739 105 469.756 105 469.772 105C469.789 105 469.806 105 469.822 105C469.839 105 469.856 105 469.872 105C469.889 105 469.906 105 469.922 105C469.939 105 469.956 105 469.973 105C469.989 105 470.006 105 470.023 105C470.039 105 470.056 105 470.073 105C470.089 105 470.106 105 470.123 105C470.139 105 470.156 105 470.173 105C470.189 105 470.206 105 470.223 105C470.239 105 470.256 105 470.273 105C470.289 105 470.306 105 470.323 105C470.339 105 470.356 105 470.373 105C470.389 105 470.406 105 470.423 105C470.44 105 470.456 105 470.473 105C470.49 105 470.506 105 470.523 105C470.54 105 470.556 105 470.573 105C470.59 105 470.606 105 470.623 105C470.64 105 470.656 105 470.673 105C470.69 105 470.706 105 470.723 105C470.74 105 470.756 105 470.773 105C470.79 105 470.806 105 470.823 105C470.84 105 470.857 105 470.873 105C470.89 105 470.907 105 470.923 105C470.94 105 470.957 105 470.973 105C470.99 105 471.007 105 471.023 105C471.04 105 471.057 105 471.073 105C471.09 105 471.107 105 471.123 105C471.14 105 471.157 105 471.173 105C471.19 105 471.207 105 471.223 105C471.24 105 471.257 105 471.274 105C471.29 105 471.307 105 471.324 105C471.34 105 471.357 105 471.374 105C471.39 105 471.407 105 471.424 105C471.44 105 471.457 105 471.474 105C471.49 105 471.507 105 471.524 105C471.54 105 471.557 105 471.574 105C471.59 105 471.607 105 471.624 105C471.64 105 471.657 105 471.674 105C471.691 105 471.707 105 471.724 105C471.741 105 471.757 105 471.774 105C471.791 105 471.807 105 471.824 105C471.841 105 471.857 105 471.874 105C471.891 105 471.907 105 471.924 105C471.941 105 471.957 105 471.974 105C471.991 105 472.007 105 472.024 105C472.041 105 472.057 105 472.074 105C472.091 105 472.108 105 472.124 105C472.141 105 472.158 105 472.174 105C472.191 105 472.208 105 472.224 105C472.241 105 472.258 105 472.274 105C472.291 105 472.308 105 472.324 105C472.341 105 472.358 105 472.374 105C472.391 105 472.408 105 472.424 105C472.441 105 472.458 105 472.474 105C472.491 105 472.508 105 472.525 105C472.541 105 472.558 105 472.575 105V101ZM448.955 103V28.1H444.955V103H448.955ZM446.955 26.1H416.715V30.1H446.955V26.1ZM414.715 28.1V103H418.715V28.1H414.715ZM416.715 101C416.698 101 416.681 101 416.665 101C416.648 101 416.631 101 416.614 101C416.598 101 416.581 101 416.564 101C416.548 101 416.531 101 416.514 101C416.498 101 416.481 101 416.464 101C416.448 101 416.431 101 416.414 101C416.398 101 416.381 101 416.364 101C416.348 101 416.331 101 416.314 101C416.298 101 416.281 101 416.264 101C416.248 101 416.231 101 416.214 101C416.197 101 416.181 101 416.164 101C416.147 101 416.131 101 416.114 101C416.097 101 416.081 101 416.064 101C416.047 101 416.031 101 416.014 101C415.997 101 415.981 101 415.964 101C415.947 101 415.931 101 415.914 101C415.897 101 415.881 101 415.864 101C415.847 101 415.831 101 415.814 101C415.797 101 415.78 101 415.764 101C415.747 101 415.73 101 415.714 101C415.697 101 415.68 101 415.664 101C415.647 101 415.63 101 415.614 101C415.597 101 415.58 101 415.564 101C415.547 101 415.53 101 415.514 101C415.497 101 415.48 101 415.464 101C415.447 101 415.43 101 415.414 101C415.397 101 415.38 101 415.363 101C415.347 101 415.33 101 415.313 101C415.297 101 415.28 101 415.263 101C415.247 101 415.23 101 415.213 101C415.197 101 415.18 101 415.163 101C415.147 101 415.13 101 415.113 101C415.097 101 415.08 101 415.063 101C415.047 101 415.03 101 415.013 101C414.997 101 414.98 101 414.963 101C414.947 101 414.93 101 414.913 101C414.896 101 414.88 101 414.863 101C414.846 101 414.83 101 414.813 101C414.796 101 414.78 101 414.763 101C414.746 101 414.73 101 414.713 101C414.696 101 414.68 101 414.663 101C414.646 101 414.63 101 414.613 101C414.596 101 414.58 101 414.563 101C414.546 101 414.53 101 414.513 101C414.496 101 414.479 101 414.463 101C414.446 101 414.429 101 414.413 101C414.396 101 414.379 101 414.363 101C414.346 101 414.329 101 414.313 101C414.296 101 414.279 101 414.263 101C414.246 101 414.229 101 414.213 101C414.196 101 414.179 101 414.163 101C414.146 101 414.129 101 414.113 101C414.096 101 414.079 101 414.062 101C414.046 101 414.029 101 414.012 101C413.996 101 413.979 101 413.962 101C413.946 101 413.929 101 413.912 101C413.896 101 413.879 101 413.862 101C413.846 101 413.829 101 413.812 101C413.796 101 413.779 101 413.762 101C413.746 101 413.729 101 413.712 101C413.696 101 413.679 101 413.662 101C413.645 101 413.629 101 413.612 101C413.595 101 413.579 101 413.562 101C413.545 101 413.529 101 413.512 101C413.495 101 413.479 101 413.462 101C413.445 101 413.429 101 413.412 101C413.395 101 413.379 101 413.362 101C413.345 101 413.329 101 413.312 101C413.295 101 413.279 101 413.262 101C413.245 101 413.228 101 413.212 101C413.195 101 413.178 101 413.162 101C413.145 101 413.128 101 413.112 101C413.095 101 413.078 101 413.062 101C413.045 101 413.028 101 413.012 101C412.995 101 412.978 101 412.962 101C412.945 101 412.928 101 412.912 101C412.895 101 412.878 101 412.862 101C412.845 101 412.828 101 412.811 101C412.795 101 412.778 101 412.761 101C412.745 101 412.728 101 412.711 101C412.695 101 412.678 101 412.661 101C412.645 101 412.628 101 412.611 101C412.595 101 412.578 101 412.561 101C412.545 101 412.528 101 412.511 101C412.495 101 412.478 101 412.461 101C412.445 101 412.428 101 412.411 101C412.395 101 412.378 101 412.361 101C412.344 101 412.328 101 412.311 101C412.294 101 412.278 101 412.261 101C412.244 101 412.228 101 412.211 101C412.194 101 412.178 101 412.161 101C412.144 101 412.128 101 412.111 101C412.094 101 412.078 101 412.061 101C412.044 101 412.028 101 412.011 101C411.994 101 411.978 101 411.961 101C411.944 101 411.927 101 411.911 101C411.894 101 411.877 101 411.861 101C411.844 101 411.827 101 411.811 101C411.794 101 411.777 101 411.761 101C411.744 101 411.727 101 411.711 101C411.694 101 411.677 101 411.661 101C411.644 101 411.627 101 411.611 101C411.594 101 411.577 101 411.561 101C411.544 101 411.527 101 411.51 101C411.494 101 411.477 101 411.46 101C411.444 101 411.427 101 411.41 101C411.394 101 411.377 101 411.36 101C411.344 101 411.327 101 411.31 101C411.294 101 411.277 101 411.26 101C411.244 101 411.227 101 411.21 101C411.194 101 411.177 101 411.16 101C411.144 101 411.127 101 411.11 101C411.094 101 411.077 101 411.06 101C411.043 101 411.027 101 411.01 101C410.993 101 410.977 101 410.96 101C410.943 101 410.927 101 410.91 101C410.893 101 410.877 101 410.86 101C410.843 101 410.827 101 410.81 101C410.793 101 410.777 101 410.76 101C410.743 101 410.727 101 410.71 101C410.693 101 410.677 101 410.66 101C410.643 101 410.626 101 410.61 101C410.593 101 410.576 101 410.56 101C410.543 101 410.526 101 410.51 101C410.493 101 410.476 101 410.46 101C410.443 101 410.426 101 410.41 101C410.393 101 410.376 101 410.36 101C410.343 101 410.326 101 410.31 101C410.293 101 410.276 101 410.259 101C410.243 101 410.226 101 410.209 101C410.193 101 410.176 101 410.159 101C410.143 101 410.126 101 410.109 101C410.093 101 410.076 101 410.059 101C410.043 101 410.026 101 410.009 101C409.993 101 409.976 101 409.959 101C409.943 101 409.926 101 409.909 101C409.893 101 409.876 101 409.859 101C409.842 101 409.826 101 409.809 101C409.792 101 409.776 101 409.759 101C409.742 101 409.726 101 409.709 101C409.692 101 409.676 101 409.659 101C409.642 101 409.626 101 409.609 101C409.592 101 409.576 101 409.559 101C409.542 101 409.526 101 409.509 101C409.492 101 409.476 101 409.459 101C409.442 101 409.426 101 409.409 101C409.392 101 409.375 101 409.359 101C409.342 101 409.325 101 409.309 101C409.292 101 409.275 101 409.259 101C409.242 101 409.225 101 409.209 101C409.192 101 409.175 101 409.159 101C409.142 101 409.125 101 409.109 101C409.092 101 409.075 101 409.059 101C409.042 101 409.025 101 409.009 101C408.992 101 408.975 101 408.958 101C408.942 101 408.925 101 408.908 101C408.892 101 408.875 101 408.858 101C408.842 101 408.825 101 408.808 101C408.792 101 408.775 101 408.758 101C408.742 101 408.725 101 408.708 101C408.692 101 408.675 101 408.658 101C408.642 101 408.625 101 408.608 101C408.592 101 408.575 101 408.558 101C408.542 101 408.525 101 408.508 101C408.491 101 408.475 101 408.458 101C408.441 101 408.425 101 408.408 101C408.391 101 408.375 101 408.358 101C408.341 101 408.325 101 408.308 101C408.291 101 408.275 101 408.258 101C408.241 101 408.225 101 408.208 101C408.191 101 408.175 101 408.158 101C408.141 101 408.125 101 408.108 101C408.091 101 408.074 101 408.058 101C408.041 101 408.024 101 408.008 101C407.991 101 407.974 101 407.958 101C407.941 101 407.924 101 407.908 101C407.891 101 407.874 101 407.858 101C407.841 101 407.824 101 407.808 101C407.791 101 407.774 101 407.758 101C407.741 101 407.724 101 407.708 101C407.691 101 407.674 101 407.657 101C407.641 101 407.624 101 407.607 101C407.591 101 407.574 101 407.557 101C407.541 101 407.524 101 407.507 101C407.491 101 407.474 101 407.457 101C407.441 101 407.424 101 407.407 101C407.391 101 407.374 101 407.357 101C407.341 101 407.324 101 407.307 101C407.291 101 407.274 101 407.257 101C407.24 101 407.224 101 407.207 101C407.19 101 407.174 101 407.157 101C407.14 101 407.124 101 407.107 101C407.09 101 407.074 101 407.057 101C407.04 101 407.024 101 407.007 101C406.99 101 406.974 101 406.957 101C406.94 101 406.924 101 406.907 101C406.89 101 406.874 101 406.857 101C406.84 101 406.823 101 406.807 101C406.79 101 406.773 101 406.757 101C406.74 101 406.723 101 406.707 101C406.69 101 406.673 101 406.657 101C406.64 101 406.623 101 406.607 101C406.59 101 406.573 101 406.557 101C406.54 101 406.523 101 406.507 101C406.49 101 406.473 101 406.457 101C406.44 101 406.423 101 406.406 101C406.39 101 406.373 101 406.356 101C406.34 101 406.323 101 406.306 101C406.29 101 406.273 101 406.256 101C406.24 101 406.223 101 406.206 101C406.19 101 406.173 101 406.156 101C406.14 101 406.123 101 406.106 101C406.09 101 406.073 101 406.056 101C406.04 101 406.023 101 406.006 101C405.99 101 405.973 101 405.956 101C405.939 101 405.923 101 405.906 101C405.889 101 405.873 101 405.856 101C405.839 101 405.823 101 405.806 101C405.789 101 405.773 101 405.756 101C405.739 101 405.723 101 405.706 101C405.689 101 405.673 101 405.656 101C405.639 101 405.623 101 405.606 101C405.589 101 405.573 101 405.556 101C405.539 101 405.522 101 405.506 101C405.489 101 405.472 101 405.456 101C405.439 101 405.422 101 405.406 101C405.389 101 405.372 101 405.356 101C405.339 101 405.322 101 405.306 101C405.289 101 405.272 101 405.256 101C405.239 101 405.222 101 405.206 101C405.189 101 405.172 101 405.156 101C405.139 101 405.122 101 405.105 101C405.089 101 405.072 101 405.055 101C405.039 101 405.022 101 405.005 101C404.989 101 404.972 101 404.955 101C404.939 101 404.922 101 404.905 101C404.889 101 404.872 101 404.855 101C404.839 101 404.822 101 404.805 101C404.789 101 404.772 101 404.755 101C404.739 101 404.722 101 404.705 101C404.688 101 404.672 101 404.655 101C404.638 101 404.622 101 404.605 101C404.588 101 404.572 101 404.555 101C404.538 101 404.522 101 404.505 101C404.488 101 404.472 101 404.455 101C404.438 101 404.422 101 404.405 101C404.388 101 404.372 101 404.355 101C404.338 101 404.322 101 404.305 101C404.288 101 404.271 101 404.255 101C404.238 101 404.221 101 404.205 101C404.188 101 404.171 101 404.155 101C404.138 101 404.121 101 404.105 101C404.088 101 404.071 101 404.055 101C404.038 101 404.021 101 404.005 101C403.988 101 403.971 101 403.955 101C403.938 101 403.921 101 403.905 101C403.888 101 403.871 101 403.854 101C403.838 101 403.821 101 403.804 101C403.788 101 403.771 101 403.754 101C403.738 101 403.721 101 403.704 101C403.688 101 403.671 101 403.654 101C403.638 101 403.621 101 403.604 101C403.588 101 403.571 101 403.554 101C403.538 101 403.521 101 403.504 101C403.488 101 403.471 101 403.454 101C403.438 101 403.421 101 403.404 101C403.387 101 403.371 101 403.354 101C403.337 101 403.321 101 403.304 101C403.287 101 403.271 101 403.254 101C403.237 101 403.221 101 403.204 101C403.187 101 403.171 101 403.154 101C403.137 101 403.121 101 403.104 101C403.087 101 403.071 101 403.054 101C403.037 101 403.021 101 403.004 101C402.987 101 402.97 101 402.954 101C402.937 101 402.92 101 402.904 101C402.887 101 402.87 101 402.854 101C402.837 101 402.82 101 402.804 101C402.787 101 402.77 101 402.754 101C402.737 101 402.72 101 402.704 101C402.687 101 402.67 101 402.654 101C402.637 101 402.62 101 402.604 101C402.587 101 402.57 101 402.553 101C402.537 101 402.52 101 402.503 101C402.487 101 402.47 101 402.453 101C402.437 101 402.42 101 402.403 101C402.387 101 402.37 101 402.353 101C402.337 101 402.32 101 402.303 101C402.287 101 402.27 101 402.253 101C402.237 101 402.22 101 402.203 101C402.187 101 402.17 101 402.153 101C402.137 101 402.12 101 402.103 101C402.086 101 402.07 101 402.053 101C402.036 101 402.02 101 402.003 101C401.986 101 401.97 101 401.953 101C401.936 101 401.92 101 401.903 101C401.886 101 401.87 101 401.853 101C401.836 101 401.82 101 401.803 101C401.786 101 401.77 101 401.753 101C401.736 101 401.72 101 401.703 101C401.686 101 401.669 101 401.653 101C401.636 101 401.619 101 401.603 101C401.586 101 401.569 101 401.553 101C401.536 101 401.519 101 401.503 101C401.486 101 401.469 101 401.453 101C401.436 101 401.419 101 401.403 101C401.386 101 401.369 101 401.353 101C401.336 101 401.319 101 401.303 101C401.286 101 401.269 101 401.252 101C401.236 101 401.219 101 401.202 101C401.186 101 401.169 101 401.152 101C401.136 101 401.119 101 401.102 101C401.086 101 401.069 101 401.052 101C401.036 101 401.019 101 401.002 101C400.986 101 400.969 101 400.952 101C400.936 101 400.919 101 400.902 101C400.886 101 400.869 101 400.852 101C400.835 101 400.819 101 400.802 101C400.785 101 400.769 101 400.752 101C400.735 101 400.719 101 400.702 101C400.685 101 400.669 101 400.652 101C400.635 101 400.619 101 400.602 101C400.585 101 400.569 101 400.552 101C400.535 101 400.519 101 400.502 101C400.485 101 400.469 101 400.452 101C400.435 101 400.418 101 400.402 101C400.385 101 400.368 101 400.352 101C400.335 101 400.318 101 400.302 101C400.285 101 400.268 101 400.252 101C400.235 101 400.218 101 400.202 101C400.185 101 400.168 101 400.152 101C400.135 101 400.118 101 400.102 101C400.085 101 400.068 101 400.052 101C400.035 101 400.018 101 400.001 101C399.985 101 399.968 101 399.951 101C399.935 101 399.918 101 399.901 101C399.885 101 399.868 101 399.851 101C399.835 101 399.818 101 399.801 101C399.785 101 399.768 101 399.751 101C399.735 101 399.718 101 399.701 101C399.685 101 399.668 101 399.651 101C399.635 101 399.618 101 399.601 101C399.585 101 399.568 101 399.551 101C399.534 101 399.518 101 399.501 101C399.484 101 399.468 101 399.451 101C399.434 101 399.418 101 399.401 101C399.384 101 399.368 101 399.351 101C399.334 101 399.318 101 399.301 101C399.284 101 399.268 101 399.251 101C399.234 101 399.218 101 399.201 101C399.184 101 399.168 101 399.151 101C399.134 101 399.117 101 399.101 101C399.084 101 399.067 101 399.051 101C399.034 101 399.017 101 399.001 101C398.984 101 398.967 101 398.951 101C398.934 101 398.917 101 398.901 101C398.884 101 398.867 101 398.851 101C398.834 101 398.817 101 398.801 101C398.784 101 398.767 101 398.751 101C398.734 101 398.717 101 398.7 101C398.684 101 398.667 101 398.65 101C398.634 101 398.617 101 398.6 101C398.584 101 398.567 101 398.55 101C398.534 101 398.517 101 398.5 101C398.484 101 398.467 101 398.45 101C398.434 101 398.417 101 398.4 101C398.384 101 398.367 101 398.35 101C398.334 101 398.317 101 398.3 101C398.283 101 398.267 101 398.25 101C398.233 101 398.217 101 398.2 101C398.183 101 398.167 101 398.15 101C398.133 101 398.117 101 398.1 101C398.083 101 398.067 101 398.05 101C398.033 101 398.017 101 398 101C397.983 101 397.967 101 397.95 101C397.933 101 397.917 101 397.9 101C397.883 101 397.866 101 397.85 101C397.833 101 397.816 101 397.8 101C397.783 101 397.766 101 397.75 101C397.733 101 397.716 101 397.7 101C397.683 101 397.666 101 397.65 101C397.633 101 397.616 101 397.6 101C397.583 101 397.566 101 397.55 101C397.533 101 397.516 101 397.5 101C397.483 101 397.466 101 397.449 101C397.433 101 397.416 101 397.399 101C397.383 101 397.366 101 397.349 101C397.333 101 397.316 101 397.299 101C397.283 101 397.266 101 397.249 101C397.233 101 397.216 101 397.199 101C397.183 101 397.166 101 397.149 101C397.133 101 397.116 101 397.099 101C397.083 101 397.066 101 397.049 101C397.033 101 397.016 101 396.999 101C396.982 101 396.966 101 396.949 101C396.932 101 396.916 101 396.899 101C396.882 101 396.866 101 396.849 101C396.832 101 396.816 101 396.799 101C396.782 101 396.766 101 396.749 101C396.732 101 396.716 101 396.699 101C396.682 101 396.666 101 396.649 101C396.632 101 396.616 101 396.599 101C396.582 101 396.565 101 396.549 101C396.532 101 396.515 101 396.499 101C396.482 101 396.465 101 396.449 101C396.432 101 396.415 101 396.399 101C396.382 101 396.365 101 396.349 101C396.332 101 396.315 101 396.299 101C396.282 101 396.265 101 396.249 101C396.232 101 396.215 101 396.199 101C396.182 101 396.165 101 396.148 101C396.132 101 396.115 101 396.098 101C396.082 101 396.065 101 396.048 101C396.032 101 396.015 101 395.998 101C395.982 101 395.965 101 395.948 101C395.932 101 395.915 101 395.898 101C395.882 101 395.865 101 395.848 101C395.832 101 395.815 101 395.798 101C395.782 101 395.765 101 395.748 101C395.732 101 395.715 101 395.698 101C395.681 101 395.665 101 395.648 101C395.631 101 395.615 101 395.598 101C395.581 101 395.565 101 395.548 101C395.531 101 395.515 101 395.498 101C395.481 101 395.465 101 395.448 101C395.431 101 395.415 101 395.398 101C395.381 101 395.365 101 395.348 101C395.331 101 395.315 101 395.298 101C395.281 101 395.264 101 395.248 101C395.231 101 395.214 101 395.198 101C395.181 101 395.164 101 395.148 101C395.131 101 395.114 101 395.098 101C395.081 101 395.064 101 395.048 101C395.031 101 395.014 101 394.998 101C394.981 101 394.964 101 394.948 101C394.931 101 394.914 101 394.898 101C394.881 101 394.864 101 394.847 101C394.831 101 394.814 101 394.797 101C394.781 101 394.764 101 394.747 101C394.731 101 394.714 101 394.697 101C394.681 101 394.664 101 394.647 101C394.631 101 394.614 101 394.597 101C394.581 101 394.564 101 394.547 101C394.531 101 394.514 101 394.497 101C394.481 101 394.464 101 394.447 101C394.43 101 394.414 101 394.397 101C394.38 101 394.364 101 394.347 101C394.33 101 394.314 101 394.297 101C394.28 101 394.264 101 394.247 101C394.23 101 394.214 101 394.197 101C394.18 101 394.164 101 394.147 101C394.13 101 394.114 101 394.097 101C394.08 101 394.064 101 394.047 101C394.03 101 394.013 101 393.997 101C393.98 101 393.963 101 393.947 101C393.93 101 393.913 101 393.897 101C393.88 101 393.863 101 393.847 101C393.83 101 393.813 101 393.797 101C393.78 101 393.763 101 393.747 101C393.73 101 393.713 101 393.697 101C393.68 101 393.663 101 393.647 101C393.63 101 393.613 101 393.596 101C393.58 101 393.563 101 393.546 101C393.53 101 393.513 101 393.496 101C393.48 101 393.463 101 393.446 101C393.43 101 393.413 101 393.396 101C393.38 101 393.363 101 393.346 101C393.33 101 393.313 101 393.296 101C393.28 101 393.263 101 393.246 101C393.23 101 393.213 101 393.196 101C393.18 101 393.163 101 393.146 101C393.129 101 393.113 101 393.096 101C393.079 101 393.063 101 393.046 101C393.029 101 393.013 101 392.996 101C392.979 101 392.963 101 392.946 101C392.929 101 392.913 101 392.896 101C392.879 101 392.863 101 392.846 101C392.829 101 392.813 101 392.796 101C392.779 101 392.763 101 392.746 101C392.729 101 392.712 101 392.696 101C392.679 101 392.662 101 392.646 101C392.629 101 392.612 101 392.596 101C392.579 101 392.562 101 392.546 101C392.529 101 392.512 101 392.496 101C392.479 101 392.462 101 392.446 101C392.429 101 392.412 101 392.396 101C392.379 101 392.362 101 392.346 101C392.329 101 392.312 101 392.295 101C392.279 101 392.262 101 392.245 101C392.229 101 392.212 101 392.195 101C392.179 101 392.162 101 392.145 101C392.129 101 392.112 101 392.095 101C392.079 101 392.062 101 392.045 101C392.029 101 392.012 101 391.995 101C391.979 101 391.962 101 391.945 101C391.929 101 391.912 101 391.895 101C391.878 101 391.862 101 391.845 101C391.828 101 391.812 101 391.795 101C391.778 101 391.762 101 391.745 101C391.728 101 391.712 101 391.695 101C391.678 101 391.662 101 391.645 101C391.628 101 391.612 101 391.595 101C391.578 101 391.562 101 391.545 101C391.528 101 391.512 101 391.495 101C391.478 101 391.461 101 391.445 101C391.428 101 391.411 101 391.395 101C391.378 101 391.361 101 391.345 101C391.328 101 391.311 101 391.295 101C391.278 101 391.261 101 391.245 101C391.228 101 391.211 101 391.195 101C391.178 101 391.161 101 391.145 101C391.128 101 391.111 101 391.095 101V105C391.111 105 391.128 105 391.145 105C391.161 105 391.178 105 391.195 105C391.211 105 391.228 105 391.245 105C391.261 105 391.278 105 391.295 105C391.311 105 391.328 105 391.345 105C391.361 105 391.378 105 391.395 105C391.411 105 391.428 105 391.445 105C391.461 105 391.478 105 391.495 105C391.512 105 391.528 105 391.545 105C391.562 105 391.578 105 391.595 105C391.612 105 391.628 105 391.645 105C391.662 105 391.678 105 391.695 105C391.712 105 391.728 105 391.745 105C391.762 105 391.778 105 391.795 105C391.812 105 391.828 105 391.845 105C391.862 105 391.878 105 391.895 105C391.912 105 391.929 105 391.945 105C391.962 105 391.979 105 391.995 105C392.012 105 392.029 105 392.045 105C392.062 105 392.079 105 392.095 105C392.112 105 392.129 105 392.145 105C392.162 105 392.179 105 392.195 105C392.212 105 392.229 105 392.245 105C392.262 105 392.279 105 392.295 105C392.312 105 392.329 105 392.346 105C392.362 105 392.379 105 392.396 105C392.412 105 392.429 105 392.446 105C392.462 105 392.479 105 392.496 105C392.512 105 392.529 105 392.546 105C392.562 105 392.579 105 392.596 105C392.612 105 392.629 105 392.646 105C392.662 105 392.679 105 392.696 105C392.712 105 392.729 105 392.746 105C392.763 105 392.779 105 392.796 105C392.813 105 392.829 105 392.846 105C392.863 105 392.879 105 392.896 105C392.913 105 392.929 105 392.946 105C392.963 105 392.979 105 392.996 105C393.013 105 393.029 105 393.046 105C393.063 105 393.079 105 393.096 105C393.113 105 393.129 105 393.146 105C393.163 105 393.18 105 393.196 105C393.213 105 393.23 105 393.246 105C393.263 105 393.28 105 393.296 105C393.313 105 393.33 105 393.346 105C393.363 105 393.38 105 393.396 105C393.413 105 393.43 105 393.446 105C393.463 105 393.48 105 393.496 105C393.513 105 393.53 105 393.546 105C393.563 105 393.58 105 393.596 105C393.613 105 393.63 105 393.647 105C393.663 105 393.68 105 393.697 105C393.713 105 393.73 105 393.747 105C393.763 105 393.78 105 393.797 105C393.813 105 393.83 105 393.847 105C393.863 105 393.88 105 393.897 105C393.913 105 393.93 105 393.947 105C393.963 105 393.98 105 393.997 105C394.013 105 394.03 105 394.047 105C394.064 105 394.08 105 394.097 105C394.114 105 394.13 105 394.147 105C394.164 105 394.18 105 394.197 105C394.214 105 394.23 105 394.247 105C394.264 105 394.28 105 394.297 105C394.314 105 394.33 105 394.347 105C394.364 105 394.38 105 394.397 105C394.414 105 394.43 105 394.447 105C394.464 105 394.481 105 394.497 105C394.514 105 394.531 105 394.547 105C394.564 105 394.581 105 394.597 105C394.614 105 394.631 105 394.647 105C394.664 105 394.681 105 394.697 105C394.714 105 394.731 105 394.747 105C394.764 105 394.781 105 394.797 105C394.814 105 394.831 105 394.847 105C394.864 105 394.881 105 394.898 105C394.914 105 394.931 105 394.948 105C394.964 105 394.981 105 394.998 105C395.014 105 395.031 105 395.048 105C395.064 105 395.081 105 395.098 105C395.114 105 395.131 105 395.148 105C395.164 105 395.181 105 395.198 105C395.214 105 395.231 105 395.248 105C395.264 105 395.281 105 395.298 105C395.315 105 395.331 105 395.348 105C395.365 105 395.381 105 395.398 105C395.415 105 395.431 105 395.448 105C395.465 105 395.481 105 395.498 105C395.515 105 395.531 105 395.548 105C395.565 105 395.581 105 395.598 105C395.615 105 395.631 105 395.648 105C395.665 105 395.681 105 395.698 105C395.715 105 395.732 105 395.748 105C395.765 105 395.782 105 395.798 105C395.815 105 395.832 105 395.848 105C395.865 105 395.882 105 395.898 105C395.915 105 395.932 105 395.948 105C395.965 105 395.982 105 395.998 105C396.015 105 396.032 105 396.048 105C396.065 105 396.082 105 396.098 105C396.115 105 396.132 105 396.148 105C396.165 105 396.182 105 396.199 105C396.215 105 396.232 105 396.249 105C396.265 105 396.282 105 396.299 105C396.315 105 396.332 105 396.349 105C396.365 105 396.382 105 396.399 105C396.415 105 396.432 105 396.449 105C396.465 105 396.482 105 396.499 105C396.515 105 396.532 105 396.549 105C396.565 105 396.582 105 396.599 105C396.616 105 396.632 105 396.649 105C396.666 105 396.682 105 396.699 105C396.716 105 396.732 105 396.749 105C396.766 105 396.782 105 396.799 105C396.816 105 396.832 105 396.849 105C396.866 105 396.882 105 396.899 105C396.916 105 396.932 105 396.949 105C396.966 105 396.982 105 396.999 105C397.016 105 397.033 105 397.049 105C397.066 105 397.083 105 397.099 105C397.116 105 397.133 105 397.149 105C397.166 105 397.183 105 397.199 105C397.216 105 397.233 105 397.249 105C397.266 105 397.283 105 397.299 105C397.316 105 397.333 105 397.349 105C397.366 105 397.383 105 397.399 105C397.416 105 397.433 105 397.449 105C397.466 105 397.483 105 397.5 105C397.516 105 397.533 105 397.55 105C397.566 105 397.583 105 397.6 105C397.616 105 397.633 105 397.65 105C397.666 105 397.683 105 397.7 105C397.716 105 397.733 105 397.75 105C397.766 105 397.783 105 397.8 105C397.816 105 397.833 105 397.85 105C397.866 105 397.883 105 397.9 105C397.917 105 397.933 105 397.95 105C397.967 105 397.983 105 398 105C398.017 105 398.033 105 398.05 105C398.067 105 398.083 105 398.1 105C398.117 105 398.133 105 398.15 105C398.167 105 398.183 105 398.2 105C398.217 105 398.233 105 398.25 105C398.267 105 398.283 105 398.3 105C398.317 105 398.334 105 398.35 105C398.367 105 398.384 105 398.4 105C398.417 105 398.434 105 398.45 105C398.467 105 398.484 105 398.5 105C398.517 105 398.534 105 398.55 105C398.567 105 398.584 105 398.6 105C398.617 105 398.634 105 398.65 105C398.667 105 398.684 105 398.7 105C398.717 105 398.734 105 398.751 105C398.767 105 398.784 105 398.801 105C398.817 105 398.834 105 398.851 105C398.867 105 398.884 105 398.901 105C398.917 105 398.934 105 398.951 105C398.967 105 398.984 105 399.001 105C399.017 105 399.034 105 399.051 105C399.067 105 399.084 105 399.101 105C399.117 105 399.134 105 399.151 105C399.168 105 399.184 105 399.201 105C399.218 105 399.234 105 399.251 105C399.268 105 399.284 105 399.301 105C399.318 105 399.334 105 399.351 105C399.368 105 399.384 105 399.401 105C399.418 105 399.434 105 399.451 105C399.468 105 399.484 105 399.501 105C399.518 105 399.534 105 399.551 105C399.568 105 399.585 105 399.601 105C399.618 105 399.635 105 399.651 105C399.668 105 399.685 105 399.701 105C399.718 105 399.735 105 399.751 105C399.768 105 399.785 105 399.801 105C399.818 105 399.835 105 399.851 105C399.868 105 399.885 105 399.901 105C399.918 105 399.935 105 399.951 105C399.968 105 399.985 105 400.001 105C400.018 105 400.035 105 400.052 105C400.068 105 400.085 105 400.102 105C400.118 105 400.135 105 400.152 105C400.168 105 400.185 105 400.202 105C400.218 105 400.235 105 400.252 105C400.268 105 400.285 105 400.302 105C400.318 105 400.335 105 400.352 105C400.368 105 400.385 105 400.402 105C400.418 105 400.435 105 400.452 105C400.469 105 400.485 105 400.502 105C400.519 105 400.535 105 400.552 105C400.569 105 400.585 105 400.602 105C400.619 105 400.635 105 400.652 105C400.669 105 400.685 105 400.702 105C400.719 105 400.735 105 400.752 105C400.769 105 400.785 105 400.802 105C400.819 105 400.835 105 400.852 105C400.869 105 400.886 105 400.902 105C400.919 105 400.936 105 400.952 105C400.969 105 400.986 105 401.002 105C401.019 105 401.036 105 401.052 105C401.069 105 401.086 105 401.102 105C401.119 105 401.136 105 401.152 105C401.169 105 401.186 105 401.202 105C401.219 105 401.236 105 401.252 105C401.269 105 401.286 105 401.303 105C401.319 105 401.336 105 401.353 105C401.369 105 401.386 105 401.403 105C401.419 105 401.436 105 401.453 105C401.469 105 401.486 105 401.503 105C401.519 105 401.536 105 401.553 105C401.569 105 401.586 105 401.603 105C401.619 105 401.636 105 401.653 105C401.669 105 401.686 105 401.703 105C401.72 105 401.736 105 401.753 105C401.77 105 401.786 105 401.803 105C401.82 105 401.836 105 401.853 105C401.87 105 401.886 105 401.903 105C401.92 105 401.936 105 401.953 105C401.97 105 401.986 105 402.003 105C402.02 105 402.036 105 402.053 105C402.07 105 402.086 105 402.103 105C402.12 105 402.137 105 402.153 105C402.17 105 402.187 105 402.203 105C402.22 105 402.237 105 402.253 105C402.27 105 402.287 105 402.303 105C402.32 105 402.337 105 402.353 105C402.37 105 402.387 105 402.403 105C402.42 105 402.437 105 402.453 105C402.47 105 402.487 105 402.503 105C402.52 105 402.537 105 402.553 105C402.57 105 402.587 105 402.604 105C402.62 105 402.637 105 402.654 105C402.67 105 402.687 105 402.704 105C402.72 105 402.737 105 402.754 105C402.77 105 402.787 105 402.804 105C402.82 105 402.837 105 402.854 105C402.87 105 402.887 105 402.904 105C402.92 105 402.937 105 402.954 105C402.97 105 402.987 105 403.004 105C403.021 105 403.037 105 403.054 105C403.071 105 403.087 105 403.104 105C403.121 105 403.137 105 403.154 105C403.171 105 403.187 105 403.204 105C403.221 105 403.237 105 403.254 105C403.271 105 403.287 105 403.304 105C403.321 105 403.337 105 403.354 105C403.371 105 403.387 105 403.404 105C403.421 105 403.438 105 403.454 105C403.471 105 403.488 105 403.504 105C403.521 105 403.538 105 403.554 105C403.571 105 403.588 105 403.604 105C403.621 105 403.638 105 403.654 105C403.671 105 403.688 105 403.704 105C403.721 105 403.738 105 403.754 105C403.771 105 403.788 105 403.804 105C403.821 105 403.838 105 403.854 105C403.871 105 403.888 105 403.905 105C403.921 105 403.938 105 403.955 105C403.971 105 403.988 105 404.005 105C404.021 105 404.038 105 404.055 105C404.071 105 404.088 105 404.105 105C404.121 105 404.138 105 404.155 105C404.171 105 404.188 105 404.205 105C404.221 105 404.238 105 404.255 105C404.271 105 404.288 105 404.305 105C404.322 105 404.338 105 404.355 105C404.372 105 404.388 105 404.405 105C404.422 105 404.438 105 404.455 105C404.472 105 404.488 105 404.505 105C404.522 105 404.538 105 404.555 105C404.572 105 404.588 105 404.605 105C404.622 105 404.638 105 404.655 105C404.672 105 404.688 105 404.705 105C404.722 105 404.739 105 404.755 105C404.772 105 404.789 105 404.805 105C404.822 105 404.839 105 404.855 105C404.872 105 404.889 105 404.905 105C404.922 105 404.939 105 404.955 105C404.972 105 404.989 105 405.005 105C405.022 105 405.039 105 405.055 105C405.072 105 405.089 105 405.105 105C405.122 105 405.139 105 405.156 105C405.172 105 405.189 105 405.206 105C405.222 105 405.239 105 405.256 105C405.272 105 405.289 105 405.306 105C405.322 105 405.339 105 405.356 105C405.372 105 405.389 105 405.406 105C405.422 105 405.439 105 405.456 105C405.472 105 405.489 105 405.506 105C405.522 105 405.539 105 405.556 105C405.573 105 405.589 105 405.606 105C405.623 105 405.639 105 405.656 105C405.673 105 405.689 105 405.706 105C405.723 105 405.739 105 405.756 105C405.773 105 405.789 105 405.806 105C405.823 105 405.839 105 405.856 105C405.873 105 405.889 105 405.906 105C405.923 105 405.939 105 405.956 105C405.973 105 405.99 105 406.006 105C406.023 105 406.04 105 406.056 105C406.073 105 406.09 105 406.106 105C406.123 105 406.14 105 406.156 105C406.173 105 406.19 105 406.206 105C406.223 105 406.24 105 406.256 105C406.273 105 406.29 105 406.306 105C406.323 105 406.34 105 406.356 105C406.373 105 406.39 105 406.406 105C406.423 105 406.44 105 406.457 105C406.473 105 406.49 105 406.507 105C406.523 105 406.54 105 406.557 105C406.573 105 406.59 105 406.607 105C406.623 105 406.64 105 406.657 105C406.673 105 406.69 105 406.707 105C406.723 105 406.74 105 406.757 105C406.773 105 406.79 105 406.807 105C406.823 105 406.84 105 406.857 105C406.874 105 406.89 105 406.907 105C406.924 105 406.94 105 406.957 105C406.974 105 406.99 105 407.007 105C407.024 105 407.04 105 407.057 105C407.074 105 407.09 105 407.107 105C407.124 105 407.14 105 407.157 105C407.174 105 407.19 105 407.207 105C407.224 105 407.24 105 407.257 105C407.274 105 407.291 105 407.307 105C407.324 105 407.341 105 407.357 105C407.374 105 407.391 105 407.407 105C407.424 105 407.441 105 407.457 105C407.474 105 407.491 105 407.507 105C407.524 105 407.541 105 407.557 105C407.574 105 407.591 105 407.607 105C407.624 105 407.641 105 407.657 105C407.674 105 407.691 105 407.708 105C407.724 105 407.741 105 407.758 105C407.774 105 407.791 105 407.808 105C407.824 105 407.841 105 407.858 105C407.874 105 407.891 105 407.908 105C407.924 105 407.941 105 407.958 105C407.974 105 407.991 105 408.008 105C408.024 105 408.041 105 408.058 105C408.074 105 408.091 105 408.108 105C408.125 105 408.141 105 408.158 105C408.175 105 408.191 105 408.208 105C408.225 105 408.241 105 408.258 105C408.275 105 408.291 105 408.308 105C408.325 105 408.341 105 408.358 105C408.375 105 408.391 105 408.408 105C408.425 105 408.441 105 408.458 105C408.475 105 408.491 105 408.508 105C408.525 105 408.542 105 408.558 105C408.575 105 408.592 105 408.608 105C408.625 105 408.642 105 408.658 105C408.675 105 408.692 105 408.708 105C408.725 105 408.742 105 408.758 105C408.775 105 408.792 105 408.808 105C408.825 105 408.842 105 408.858 105C408.875 105 408.892 105 408.908 105C408.925 105 408.942 105 408.958 105C408.975 105 408.992 105 409.009 105C409.025 105 409.042 105 409.059 105C409.075 105 409.092 105 409.109 105C409.125 105 409.142 105 409.159 105C409.175 105 409.192 105 409.209 105C409.225 105 409.242 105 409.259 105C409.275 105 409.292 105 409.309 105C409.325 105 409.342 105 409.359 105C409.375 105 409.392 105 409.409 105C409.426 105 409.442 105 409.459 105C409.476 105 409.492 105 409.509 105C409.526 105 409.542 105 409.559 105C409.576 105 409.592 105 409.609 105C409.626 105 409.642 105 409.659 105C409.676 105 409.692 105 409.709 105C409.726 105 409.742 105 409.759 105C409.776 105 409.792 105 409.809 105C409.826 105 409.842 105 409.859 105C409.876 105 409.893 105 409.909 105C409.926 105 409.943 105 409.959 105C409.976 105 409.993 105 410.009 105C410.026 105 410.043 105 410.059 105C410.076 105 410.093 105 410.109 105C410.126 105 410.143 105 410.159 105C410.176 105 410.193 105 410.209 105C410.226 105 410.243 105 410.259 105C410.276 105 410.293 105 410.31 105C410.326 105 410.343 105 410.36 105C410.376 105 410.393 105 410.41 105C410.426 105 410.443 105 410.46 105C410.476 105 410.493 105 410.51 105C410.526 105 410.543 105 410.56 105C410.576 105 410.593 105 410.61 105C410.626 105 410.643 105 410.66 105C410.677 105 410.693 105 410.71 105C410.727 105 410.743 105 410.76 105C410.777 105 410.793 105 410.81 105C410.827 105 410.843 105 410.86 105C410.877 105 410.893 105 410.91 105C410.927 105 410.943 105 410.96 105C410.977 105 410.993 105 411.01 105C411.027 105 411.043 105 411.06 105C411.077 105 411.094 105 411.11 105C411.127 105 411.144 105 411.16 105C411.177 105 411.194 105 411.21 105C411.227 105 411.244 105 411.26 105C411.277 105 411.294 105 411.31 105C411.327 105 411.344 105 411.36 105C411.377 105 411.394 105 411.41 105C411.427 105 411.444 105 411.46 105C411.477 105 411.494 105 411.51 105C411.527 105 411.544 105 411.561 105C411.577 105 411.594 105 411.611 105C411.627 105 411.644 105 411.661 105C411.677 105 411.694 105 411.711 105C411.727 105 411.744 105 411.761 105C411.777 105 411.794 105 411.811 105C411.827 105 411.844 105 411.861 105C411.877 105 411.894 105 411.911 105C411.927 105 411.944 105 411.961 105C411.978 105 411.994 105 412.011 105C412.028 105 412.044 105 412.061 105C412.078 105 412.094 105 412.111 105C412.128 105 412.144 105 412.161 105C412.178 105 412.194 105 412.211 105C412.228 105 412.244 105 412.261 105C412.278 105 412.294 105 412.311 105C412.328 105 412.344 105 412.361 105C412.378 105 412.395 105 412.411 105C412.428 105 412.445 105 412.461 105C412.478 105 412.495 105 412.511 105C412.528 105 412.545 105 412.561 105C412.578 105 412.595 105 412.611 105C412.628 105 412.645 105 412.661 105C412.678 105 412.695 105 412.711 105C412.728 105 412.745 105 412.761 105C412.778 105 412.795 105 412.811 105C412.828 105 412.845 105 412.862 105C412.878 105 412.895 105 412.912 105C412.928 105 412.945 105 412.962 105C412.978 105 412.995 105 413.012 105C413.028 105 413.045 105 413.062 105C413.078 105 413.095 105 413.112 105C413.128 105 413.145 105 413.162 105C413.178 105 413.195 105 413.212 105C413.228 105 413.245 105 413.262 105C413.279 105 413.295 105 413.312 105C413.329 105 413.345 105 413.362 105C413.379 105 413.395 105 413.412 105C413.429 105 413.445 105 413.462 105C413.479 105 413.495 105 413.512 105C413.529 105 413.545 105 413.562 105C413.579 105 413.595 105 413.612 105C413.629 105 413.645 105 413.662 105C413.679 105 413.696 105 413.712 105C413.729 105 413.746 105 413.762 105C413.779 105 413.796 105 413.812 105C413.829 105 413.846 105 413.862 105C413.879 105 413.896 105 413.912 105C413.929 105 413.946 105 413.962 105C413.979 105 413.996 105 414.012 105C414.029 105 414.046 105 414.062 105C414.079 105 414.096 105 414.113 105C414.129 105 414.146 105 414.163 105C414.179 105 414.196 105 414.213 105C414.229 105 414.246 105 414.263 105C414.279 105 414.296 105 414.313 105C414.329 105 414.346 105 414.363 105C414.379 105 414.396 105 414.413 105C414.429 105 414.446 105 414.463 105C414.479 105 414.496 105 414.513 105C414.53 105 414.546 105 414.563 105C414.58 105 414.596 105 414.613 105C414.63 105 414.646 105 414.663 105C414.68 105 414.696 105 414.713 105C414.73 105 414.746 105 414.763 105C414.78 105 414.796 105 414.813 105C414.83 105 414.846 105 414.863 105C414.88 105 414.896 105 414.913 105C414.93 105 414.947 105 414.963 105C414.98 105 414.997 105 415.013 105C415.03 105 415.047 105 415.063 105C415.08 105 415.097 105 415.113 105C415.13 105 415.147 105 415.163 105C415.18 105 415.197 105 415.213 105C415.23 105 415.247 105 415.263 105C415.28 105 415.297 105 415.313 105C415.33 105 415.347 105 415.363 105C415.38 105 415.397 105 415.414 105C415.43 105 415.447 105 415.464 105C415.48 105 415.497 105 415.514 105C415.53 105 415.547 105 415.564 105C415.58 105 415.597 105 415.614 105C415.63 105 415.647 105 415.664 105C415.68 105 415.697 105 415.714 105C415.73 105 415.747 105 415.764 105C415.78 105 415.797 105 415.814 105C415.831 105 415.847 105 415.864 105C415.881 105 415.897 105 415.914 105C415.931 105 415.947 105 415.964 105C415.981 105 415.997 105 416.014 105C416.031 105 416.047 105 416.064 105C416.081 105 416.097 105 416.114 105C416.131 105 416.147 105 416.164 105C416.181 105 416.197 105 416.214 105C416.231 105 416.248 105 416.264 105C416.281 105 416.298 105 416.314 105C416.331 105 416.348 105 416.364 105C416.381 105 416.398 105 416.414 105C416.431 105 416.448 105 416.464 105C416.481 105 416.498 105 416.514 105C416.531 105 416.548 105 416.564 105C416.581 105 416.598 105 416.614 105C416.631 105 416.648 105 416.665 105C416.681 105 416.698 105 416.715 105V101ZM393.095 103V4.99999H389.095V103H393.095ZM522.194 102.86V104.86H524.194V102.86H522.194ZM496.574 102.86H494.574V104.86H496.574V102.86ZM496.574 4.86V2.86H494.574V4.86H496.574ZM539.834 4.86L539.814 6.8599L539.824 6.86H539.834V4.86ZM574.974 41.68L572.974 41.6346L572.974 41.6573V41.68H574.974ZM522.194 77.52V75.52H520.194V77.52H522.194ZM521.774 55.26H519.774V57.26H521.774V55.26ZM521.774 27.12V25.12H519.774V27.12H521.774ZM522.194 100.86H496.574V104.86H522.194V100.86ZM498.574 102.86V4.86H494.574V102.86H498.574ZM496.574 6.86C511.161 6.86 525.266 6.72001 539.814 6.8599L539.853 2.86009C525.282 2.71998 511.106 2.86 496.574 2.86V6.86ZM539.834 6.86C551.027 6.86 559.355 11.2025 564.861 17.64C570.401 24.1163 573.174 32.8248 572.974 41.6346L576.973 41.7254C577.193 32.0552 574.157 22.3537 567.901 15.04C561.612 7.68749 552.16 2.86 539.834 2.86V6.86ZM572.974 41.68C572.974 50.2167 570.136 58.6911 564.613 65.003C559.124 71.2768 550.893 75.52 539.834 75.52V79.52C552.014 79.52 561.353 74.8032 567.624 67.637C573.861 60.5089 576.974 51.0633 576.974 41.68H572.974ZM539.834 75.52H522.194V79.52H539.834V75.52ZM520.194 77.52V102.86H524.194V77.52H520.194ZM521.774 57.26H539.834V53.26H521.774V57.26ZM539.834 57.26C543.999 57.26 547.224 55.0169 549.328 51.9218C551.408 48.861 552.474 44.8835 552.474 40.98H548.474C548.474 44.2165 547.579 47.379 546.02 49.6732C544.483 51.9331 542.388 53.26 539.834 53.26V57.26ZM552.474 40.98C552.474 37.1674 551.488 33.2828 549.425 30.29C547.325 27.2418 544.087 25.12 539.834 25.12V29.12C542.581 29.12 544.663 30.4282 546.132 32.5599C547.639 34.7472 548.474 37.7926 548.474 40.98H552.474ZM539.834 25.12H521.774V29.12H539.834V25.12ZM519.774 27.12V55.26H523.774V27.12H519.774ZM684.722 54C684.722 68.5078 679.713 80.6886 671.232 89.2363C662.752 97.783 650.68 102.82 636.322 102.82V106.82C651.644 106.82 664.772 101.427 674.072 92.0537C683.371 82.6814 688.722 69.4522 688.722 54H684.722ZM636.322 102.82C623.79 102.82 611.765 98.7558 602.895 90.688C594.058 82.6493 588.202 70.5006 588.202 54H584.202C584.202 71.5194 590.456 84.7806 600.204 93.647C609.919 102.484 622.954 106.82 636.322 106.82V102.82ZM588.202 54C588.202 37.5929 594.251 25.4051 603.255 17.3016C612.293 9.16723 624.433 5.03999 636.742 5.03999V1.03999C623.571 1.03999 610.441 5.45276 600.579 14.3284C590.683 23.2349 584.202 36.5271 584.202 54H588.202ZM636.742 5.03999C648.833 5.03999 660.832 9.16221 669.785 17.2954C678.705 25.3984 684.722 37.5888 684.722 54H688.722C688.722 36.5312 682.279 23.2416 672.474 14.3346C662.703 5.45778 649.711 1.03999 636.742 1.03999V5.03999ZM609.822 54C609.822 63.2337 613.012 70.4193 618.022 75.2957C623.012 80.1521 629.686 82.6 636.462 82.6V78.6C630.638 78.6 624.992 76.4979 620.812 72.4293C616.652 68.3807 613.822 62.2663 613.822 54H609.822ZM636.462 82.6C649.673 82.6 663.102 72.6764 663.102 54H659.102C659.102 70.3236 647.611 78.6 636.462 78.6V82.6ZM663.102 54C663.102 35.3518 649.982 25.4 636.742 25.4V29.4C647.862 29.4 659.102 37.6482 659.102 54H663.102ZM636.742 25.4C629.928 25.4 623.183 27.7225 618.126 32.5307C613.045 37.3627 609.822 44.5602 609.822 54H613.822C613.822 45.5198 616.689 39.4173 620.883 35.4293C625.102 31.4175 630.816 29.4 636.742 29.4V25.4ZM766.514 4.99999H768.514V2.99999H766.514V4.99999ZM766.514 27.26V29.26H768.514V27.26H766.514ZM730.954 27.26V25.26H728.954V27.26H730.954ZM730.954 41.26H728.954V43.26H730.954V41.26ZM763.714 41.26H765.714V39.26H763.714V41.26ZM763.714 63.66V65.66H765.714V63.66H763.714ZM730.954 63.66V61.66H728.954V63.66H730.954ZM730.954 79.62H728.954V81.62H730.954V79.62ZM767.774 79.62H769.774V77.62H767.774V79.62ZM767.774 103V105H769.774V103H767.774ZM705.334 103H703.334V105H705.334V103ZM705.334 4.99999V2.99999H703.334V4.99999H705.334ZM764.514 4.99999V27.26H768.514V4.99999H764.514ZM766.514 25.26H730.954V29.26H766.514V25.26ZM728.954 27.26V41.26H732.954V27.26H728.954ZM730.954 43.26H763.714V39.26H730.954V43.26ZM761.714 41.26V63.66H765.714V41.26H761.714ZM763.714 61.66H730.954V65.66H763.714V61.66ZM728.954 63.66V79.62H732.954V63.66H728.954ZM730.954 81.62H767.774V77.62H730.954V81.62ZM765.774 79.62V103H769.774V79.62H765.774ZM767.774 101H705.334V105H767.774V101ZM707.334 103V4.99999H703.334V103H707.334ZM705.334 6.99999H766.514V2.99999H705.334V6.99999ZM847.472 103L845.732 103.986L846.306 105H847.472V103ZM826.052 65.2L827.792 64.214L827.119 63.0272L825.769 63.2201L826.052 65.2ZM813.872 65.62V63.62H811.872V65.62H813.872ZM813.872 103V105H815.872V103H813.872ZM788.252 103H786.252V105H788.252V103ZM788.252 4.99999V2.99999H786.252V4.99999H788.252ZM813.872 4.99999H815.872V2.99999H813.872V4.99999ZM813.872 43.36H811.872V45.36H813.872V43.36ZM828.152 41.82L827.257 40.0311L827.243 40.0382L827.229 40.0456L828.152 41.82ZM836.972 21.94L835.03 21.4603L835.028 21.4685L835.026 21.4768L836.972 21.94ZM872.392 5.13999H874.392V3.5121L872.798 3.18163L872.392 5.13999ZM872.392 22.36L872.256 24.3554L874.392 24.501V22.36H872.392ZM860.492 29.36L862.421 29.8882L862.425 29.872L862.429 29.8557L860.492 29.36ZM848.452 55.4L846.97 54.0564L845.939 55.1931L846.77 56.4832L848.452 55.4ZM876.452 99.22H878.452V98.6242L878.126 98.1255L876.452 99.22ZM876.452 103V105H878.452V103H876.452ZM849.212 102.014L827.792 64.214L824.312 66.186L845.732 103.986L849.212 102.014ZM825.769 63.2201C823.006 63.6148 817.446 63.62 813.872 63.62V67.62C817.297 67.62 823.217 67.6252 826.334 67.1799L825.769 63.2201ZM811.872 65.62V103H815.872V65.62H811.872ZM813.872 101H788.252V105H813.872V101ZM790.252 103V4.99999H786.252V103H790.252ZM788.252 6.99999H813.872V2.99999H788.252V6.99999ZM811.872 4.99999V43.36H815.872V4.99999H811.872ZM813.872 45.36C815.831 45.36 818.637 45.4312 821.341 45.2689C823.994 45.1097 826.921 44.7143 829.074 43.5944L827.229 40.0456C825.883 40.7457 823.699 41.1203 821.102 41.2761C818.556 41.4288 815.972 41.36 813.872 41.36V45.36ZM829.046 43.6089C831.911 42.1764 833.668 39.6266 835.047 36.1963C836.41 32.8085 837.529 28.2357 838.917 22.4032L835.026 21.4768C833.615 27.4043 832.564 31.6515 831.336 34.7037C830.126 37.7134 828.872 39.2236 827.257 40.0311L829.046 43.6089ZM838.913 22.4197C840.294 16.8312 843.161 11.9765 848.189 9.01595C853.236 6.04415 860.802 4.77973 871.986 7.09835L872.798 3.18163C861.021 0.740252 852.347 1.92583 846.159 5.56904C839.953 9.2235 836.589 15.1487 835.03 21.4603L838.913 22.4197ZM870.392 5.13999V22.36H874.392V5.13999H870.392ZM872.528 20.3646C869.324 20.1462 866.287 20.3658 863.784 21.6718C861.166 23.0377 859.434 25.4261 858.554 28.8643L862.429 29.8557C863.09 27.2739 864.227 25.9523 865.634 25.2182C867.156 24.4242 869.299 24.1538 872.256 24.3554L872.528 20.3646ZM858.563 28.8318C855.358 40.5351 852.096 48.4043 846.97 54.0564L849.933 56.7436C855.727 50.3557 859.185 41.7048 862.421 29.8882L858.563 28.8318ZM846.77 56.4832C856.113 70.9853 865.264 85.7645 874.778 100.314L878.126 98.1255C868.599 83.5555 859.55 68.9347 850.133 54.3168L846.77 56.4832ZM874.452 99.22V103H878.452V99.22H874.452ZM876.452 101H847.472V105H876.452V101ZM908.463 27.4H910.463V25.4H908.463V27.4ZM884.383 27.4H882.383V29.4H884.383V27.4ZM884.383 4.99999V2.99999H882.383V4.99999H884.383ZM957.183 4.99999H959.183V2.99999H957.183V4.99999ZM957.183 27.4V29.4H959.183V27.4H957.183ZM933.243 27.4V25.4H931.243V27.4H933.243ZM933.243 103V105H935.243V103H933.243ZM908.463 103H906.463V105H908.463V103ZM908.463 25.4H884.383V29.4H908.463V25.4ZM886.383 27.4V4.99999H882.383V27.4H886.383ZM884.383 6.99999H957.183V2.99999H884.383V6.99999ZM955.183 4.99999V27.4H959.183V4.99999H955.183ZM957.183 25.4H933.243V29.4H957.183V25.4ZM931.243 27.4V103H935.243V27.4H931.243ZM933.243 101H908.463V105H933.243V101ZM910.463 103V27.4H906.463V103H910.463Z" fill="black" mask="url(#path-1-inside-1_3860_6453)"/>
</svg>
