<svg width="65" height="48" viewBox="0 0 65 48" fill="none" xmlns="http://www.w3.org/2000/svg">
<path d="M49.4799 21.5044C48.5974 20.919 46.2782 20.669 44.5921 21.1165C44.5012 19.4616 43.6353 18.0669 42.051 16.8501L41.4646 16.4622L41.0738 17.0439C40.3055 18.1931 39.9818 19.7242 40.0965 21.116C40.1869 21.9735 40.4897 22.9375 41.0738 23.6369C38.8793 24.8913 36.8566 24.6065 27.8988 24.6065H14.0683C14.0278 26.5997 14.353 30.434 16.8273 33.5554C17.1006 33.9001 17.4005 34.2337 17.7256 34.555C19.7373 36.5402 22.7767 37.9958 27.3218 38C34.2556 38.0061 40.1964 34.3129 43.81 25.3829C44.9991 25.4021 48.138 25.593 49.6741 22.6678C49.7117 22.6185 50.065 21.8919 50.065 21.8919L49.4794 21.504L49.4799 21.5044ZM23.0942 19.6816H19.2051V23.514H23.0942V19.6816ZM28.1187 19.6816H24.2296V23.514H28.1187V19.6816ZM33.1432 19.6816H29.254V23.514H33.1432V19.6816ZM38.1676 19.6816H34.2785V23.514H38.1676V19.6816ZM18.0698 19.6816H14.1806V23.514H18.0698V19.6816ZM23.0942 14.841H19.2051V18.6735H23.0942V14.841ZM28.1187 14.841H24.2296V18.6735H28.1187V14.841ZM33.1432 14.841H29.254V18.6735H33.1432V14.841ZM33.1432 10H29.254V13.8325H33.1432V10Z" fill="#AE2524"/>
</svg>
