<svg width="64" height="49" viewBox="0 0 64 49" fill="none" xmlns="http://www.w3.org/2000/svg">
<path d="M32.0008 8.8595H26.9998C25.6736 8.8595 24.4018 9.40094 23.4641 10.3647C22.5263 11.3285 21.9995 12.6357 21.9995 13.9986C21.9995 15.3616 22.5263 16.6688 23.4641 17.6326C24.4018 18.5963 25.6736 19.1378 26.9998 19.1378H32.0008V8.8595Z" fill="#F36C6B"/>
<path d="M32.0007 8.8595H37.0002C38.3264 8.8595 39.5982 9.40094 40.5359 10.3647C41.4737 11.3285 42.0005 12.6357 42.0005 13.9986C42.0005 15.3616 41.4737 16.6688 40.5359 17.6326C39.5982 18.5963 38.3264 19.1378 37.0002 19.1378H32.0007V8.8595Z" fill="#D95251"/>
<path d="M32 19.1385H26.999C25.6731 19.1385 24.4014 19.6799 23.4638 20.6435C22.5262 21.6072 21.9995 22.9141 21.9995 24.2769C21.9995 25.6397 22.5262 26.9467 23.4638 27.9103C24.4014 28.8739 25.6731 29.4153 26.999 29.4153H32V19.1385Z" fill="#F89A9A"/>
<path d="M42.0005 24.277C42.0005 25.6399 41.4737 26.9471 40.536 27.9109C39.5982 28.8747 38.3264 29.4161 37.0002 29.4161C35.6741 29.4161 34.4023 28.8747 33.4645 27.9109C32.5268 26.9471 32 25.6399 32 24.277C32 22.914 32.5268 21.6068 33.4645 20.643C34.4023 19.6793 35.6741 19.1378 37.0002 19.1378C38.3264 19.1378 39.5982 19.6793 40.536 20.643C41.4737 21.6068 42.0005 22.914 42.0005 24.277Z" fill="#AE2524"/>
<path d="M26.9975 29.4176H31.9985V34.556C31.9982 35.5721 31.7048 36.5654 31.1553 37.4101C30.6059 38.2549 29.825 38.9133 28.9115 39.302C27.9981 39.6907 26.993 39.7923 26.0233 39.594C25.0536 39.3957 24.1629 38.9064 23.4638 38.1878C22.7647 37.4693 22.2886 36.5539 22.0957 35.5573C21.9027 34.5607 22.0016 33.5276 22.3798 32.5888C22.758 31.6499 23.3986 30.8474 24.2205 30.2827C25.0424 29.718 26.0088 29.4179 26.9975 29.4176Z" fill="#FFC1C1"/>
</svg>
