<svg width="65" height="48" viewBox="0 0 65 48" fill="none" xmlns="http://www.w3.org/2000/svg">
<path fill-rule="evenodd" clip-rule="evenodd" d="M22.3457 11.1366C22.9524 9.56108 25.1371 9.64328 25.6312 11.2603L27.962 18.8869H36.168L38.4987 11.2603C38.9929 9.64329 41.1775 9.56107 41.7843 11.1366L45.1053 19.7612L46.3891 23.0952C46.8057 24.1767 46.5243 25.4121 45.6848 26.1883L32.96 37.953C32.4505 38.4242 31.6796 38.4242 31.1699 37.953L18.4452 26.1883C17.6057 25.4121 17.3244 24.1767 17.7409 23.0952L19.0247 19.7612L22.3457 11.1366ZM35.3202 21.6611H28.8098L32.0649 32.313L35.3202 21.6611ZM29.3101 32.511L25.9944 21.6611H21.1825L20.2354 24.1208L29.3101 32.511ZM22.2508 18.8869H25.1466L23.8652 14.6942L22.2508 18.8869ZM34.8199 32.511L38.1356 21.6611H42.9474L43.8946 24.1208L34.8199 32.511ZM41.8792 18.8869H38.9835L40.2647 14.6942L41.8792 18.8869Z" fill="#AE2524"/>
</svg>
