<svg width="65" height="49" viewBox="0 0 65 49" fill="none" xmlns="http://www.w3.org/2000/svg">
<path d="M47.5475 16.0773C47.559 16.1172 47.5649 16.1584 47.5649 16.1998V22.628C47.5649 22.7959 47.4692 22.951 47.314 23.0346L41.5646 26.1409V32.2978C41.5646 32.4653 41.4697 32.62 41.3149 32.7044L29.3136 39.1876C29.2861 39.2023 29.2561 39.2117 29.2262 39.2216C29.2149 39.2251 29.2043 39.2316 29.1924 39.2345C29.1086 39.2552 29.0204 39.2552 28.9365 39.2345C28.9227 39.231 28.9103 39.224 28.8971 39.2193C28.8697 39.2099 28.841 39.2017 28.8147 39.1876L16.8159 32.7044C16.6608 32.6207 16.5649 32.4657 16.5649 32.2978V13.0132C16.5649 12.971 16.5712 12.93 16.5824 12.8902C16.5862 12.8767 16.5949 12.8644 16.5999 12.8509C16.6093 12.8263 16.618 12.8011 16.6317 12.7783C16.6411 12.763 16.6548 12.7507 16.6661 12.7367C16.6804 12.7179 16.6936 12.6986 16.7104 12.6822C16.7248 12.6687 16.7435 12.6588 16.7597 12.647C16.7778 12.633 16.7941 12.6177 16.8147 12.6066H16.8153L22.815 9.36498C22.9696 9.2815 23.1599 9.2815 23.3145 9.36498L29.3142 12.6066H29.3154C29.3354 12.6183 29.3523 12.633 29.3704 12.6465C29.3866 12.6582 29.4047 12.6687 29.4191 12.6816C29.4366 12.6986 29.449 12.7179 29.464 12.7367C29.4746 12.7507 29.489 12.763 29.4977 12.7783C29.5121 12.8017 29.5202 12.8263 29.5302 12.8509C29.5352 12.8644 29.5439 12.8767 29.5477 12.8908C29.5592 12.9307 29.5651 12.9719 29.5652 13.0132V25.0582L34.5647 22.3567V16.1992C34.5647 16.1582 34.571 16.1166 34.5822 16.0773C34.5866 16.0633 34.5947 16.051 34.5997 16.0375C34.6097 16.0129 34.6184 15.9877 34.6321 15.9648C34.6415 15.9496 34.6552 15.9373 34.6659 15.9232C34.6808 15.9045 34.6933 15.8852 34.7108 15.8688C34.7252 15.8553 34.7433 15.8453 34.7595 15.8336C34.7782 15.8195 34.7945 15.8043 34.8144 15.7932H34.8151L40.8154 12.5515C40.97 12.4679 41.1603 12.4679 41.3149 12.5515L47.3146 15.7932C47.3358 15.8049 47.352 15.8195 47.3708 15.833C47.3864 15.8447 47.4045 15.8553 47.4189 15.8682C47.4363 15.8852 47.4488 15.9045 47.4638 15.9232C47.475 15.9373 47.4888 15.9496 47.4975 15.9648C47.5119 15.9877 47.52 16.0129 47.53 16.0375C47.5356 16.051 47.5437 16.0633 47.5475 16.0773ZM46.5648 22.3567V17.0112L44.4652 18.1455L41.5646 19.7127V25.0582L46.5654 22.3567H46.5648ZM40.5651 32.0265V26.6775L37.7119 28.2066L29.5645 32.5702V37.9696L40.5651 32.0265ZM17.5651 13.8246V32.0265L28.5644 37.969V32.5708L22.8181 29.519L22.8163 29.5178L22.8138 29.5166C22.7944 29.5061 22.7782 29.4909 22.7601 29.478C22.7445 29.4663 22.7264 29.4569 22.7126 29.444L22.7114 29.4422C22.6951 29.4276 22.6839 29.4094 22.6702 29.393C22.6577 29.3772 22.6427 29.3637 22.6327 29.3473L22.6321 29.3456C22.6208 29.328 22.614 29.3069 22.6059 29.287C22.5977 29.2694 22.5871 29.253 22.5821 29.2343V29.2337C22.5759 29.2114 22.5746 29.188 22.5722 29.1651C22.5697 29.1475 22.5647 29.13 22.5647 29.1124V29.1112V16.5261L19.6647 14.9583L17.5651 13.8252V13.8246ZM23.0654 10.3129L18.0664 13.0132L23.0641 15.7135L28.0624 13.0126L23.0641 10.3129H23.0654ZM25.665 27.165L28.565 25.5983V13.8246L26.4654 14.9589L23.5648 16.5261V28.2998L25.665 27.165ZM41.0651 13.4995L36.0668 16.1998L41.0651 18.9001L46.0628 16.1992L41.0651 13.4995ZM40.5651 19.7127L37.6645 18.1455L35.5649 17.0112V22.3567L38.4648 23.9233L40.5651 25.0582V19.7127ZM29.0638 31.7588L36.3952 27.8311L40.06 25.8684L35.0654 23.1699L29.3148 26.2768L24.0736 29.1083L29.0638 31.7588Z" fill="#AE2524"/>
</svg>
