<svg width="64" height="49" viewBox="0 0 64 49" fill="none" xmlns="http://www.w3.org/2000/svg">
<path d="M20.348 17.781H28.6708V18.4661H21.1109V23.6221H28.22V24.3071H21.1109V29.9679H28.7575V30.6529H20.348V17.781ZM29.4164 17.781H30.3007L34.2194 23.4418L38.2248 17.781L43.6727 10.5906L34.7222 24.0367L39.3345 30.6529H38.4155L34.2194 24.6316L30.006 30.6529H29.1043L33.7512 24.0367L29.4164 17.781ZM39.6639 18.4661V17.781H49.1485V18.4661H44.779V30.6529H44.0161V18.4661H39.6639ZM9.93579 17.781H10.8894L24.0398 38.1599L18.6054 30.6529L10.7334 18.7545L10.6987 30.6529H9.93579V17.781ZM49.0716 29.7612C48.9158 29.7612 48.7989 29.6361 48.7989 29.4745C48.7989 29.3128 48.9158 29.1877 49.0716 29.1877C49.2294 29.1877 49.3444 29.3128 49.3444 29.4745C49.3444 29.6361 49.2294 29.7612 49.0716 29.7612ZM49.8213 29.0069H50.2295C50.2351 29.2359 50.3965 29.3898 50.6341 29.3898C50.8994 29.3898 51.0497 29.2243 51.0497 28.9145V26.9519H51.4654V28.9164C51.4654 29.4745 51.1536 29.7958 50.6378 29.7958C50.1535 29.7958 49.8213 29.4841 49.8213 29.0069ZM52.0091 28.9819H52.421C52.4563 29.2455 52.7049 29.4129 53.0631 29.4129C53.3971 29.4129 53.642 29.2339 53.642 28.9876C53.642 28.776 53.4861 28.649 53.1317 28.5624L52.7866 28.4758C52.3023 28.3584 52.0814 28.116 52.0814 27.7081C52.0814 27.2135 52.4711 26.8845 53.0556 26.8845C53.5993 26.8845 53.9964 27.2135 54.0206 27.6811H53.616C53.5771 27.4252 53.3618 27.2655 53.0501 27.2655C52.7216 27.2655 52.5027 27.4291 52.5027 27.6792C52.5027 27.8774 52.6437 27.9909 52.9925 28.0756L53.2876 28.1506C53.8368 28.2834 54.0632 28.5143 54.0632 28.9318C54.0632 29.4629 53.6661 29.7958 53.0315 29.7958C52.4377 29.7958 52.0388 29.4783 52.0091 28.9819Z" fill="#AE2524"/>
</svg>
