<svg width="64" height="49" viewBox="0 0 64 49" fill="none" xmlns="http://www.w3.org/2000/svg">
<path d="M47.9329 19.665C47.9211 18.3251 45.4426 17.7169 39.0268 17.7169C23.973 17.7169 20.1538 17.0745 16.0669 12.7782C17.7863 15.3579 18.727 20.1965 34.6384 19.9557C51.2394 19.7002 41.1117 24.2318 38.165 29.3516C43.4792 24.6135 47.9169 21.4904 47.9329 19.6844V19.665ZM26.7791 33.4237C26.7785 34.6692 25.753 35.6938 24.506 35.6941C23.2466 35.6941 22.2281 34.6768 22.2281 33.4237V33.422C22.2281 32.1744 23.2555 31.1478 24.5048 31.1478H24.506C25.7613 31.1478 26.7791 32.1654 26.7791 33.4237ZM37.1459 33.4237C37.1453 34.6692 36.1197 35.6938 34.8728 35.6941C33.6145 35.6941 32.5955 34.6768 32.5955 33.4237V33.422C32.5955 32.1744 33.6229 31.1478 34.8716 31.1478H34.8728C36.1281 31.1478 37.1459 32.1654 37.1459 33.4237Z" fill="#AE2524"/>
</svg>
