<svg width="65" height="49" viewBox="0 0 65 49" fill="none" xmlns="http://www.w3.org/2000/svg">
<path d="M14.3672 18.7303H20.617C22.4514 18.7457 23.7806 19.2746 24.6047 20.3161C25.4288 21.3576 25.7007 22.7801 25.4209 24.5837C25.3122 25.4078 25.0711 26.2161 24.698 27.0089C24.3403 27.8018 23.8431 28.5168 23.2055 29.1544C22.428 29.9627 21.5964 30.4757 20.7103 30.6935C19.8241 30.9113 18.9067 31.02 17.9585 31.02H15.1601L14.274 35.4508H11.0325L14.3672 18.7303ZM17.0957 21.3888L15.6965 28.3848C15.7898 28.4002 15.883 28.4081 15.9763 28.4081C16.085 28.4081 16.1941 28.4081 16.3028 28.4081C17.7953 28.4235 19.0392 28.2761 20.034 27.9651C21.0288 27.6386 21.6976 26.5038 22.0395 24.5603C22.3194 22.9279 22.0395 21.9872 21.2 21.7386C20.3759 21.49 19.3423 21.3734 18.0984 21.3888C17.9119 21.4042 17.7332 21.4121 17.5621 21.4121C17.4068 21.4121 17.2435 21.4121 17.0724 21.4121L17.0957 21.3888Z" fill="#AE2524"/>
<path d="M29.1135 14.2762H32.3316L31.4221 18.7303H34.3138C35.8996 18.7615 37.081 19.088 37.8585 19.7097C38.6513 20.3315 38.8845 21.5133 38.5581 23.2544L36.9956 31.0199H33.7308L35.2233 23.6042C35.3786 22.8267 35.332 22.2749 35.0834 21.9485C34.8348 21.622 34.2984 21.4587 33.4743 21.4587L30.8858 21.4354L28.9735 31.0199H25.7554L29.1135 14.2762Z" fill="#AE2524"/>
<path d="M42.0137 18.7303H48.2635C50.0978 18.7457 51.4271 19.2746 52.2512 20.3161C53.0753 21.3576 53.3472 22.7801 53.0674 24.5837C52.9587 25.4078 52.7176 26.2161 52.3445 27.0089C51.9868 27.8018 51.4896 28.5168 50.852 29.1544C50.0745 29.9627 49.2429 30.4757 48.3568 30.6935C47.4706 30.9113 46.5532 31.02 45.605 31.02H42.8066L41.9204 35.4508H38.679L42.0137 18.7303ZM44.7422 21.3888L43.343 28.3848C43.4362 28.4002 43.5295 28.4081 43.6228 28.4081C43.7315 28.4081 43.8406 28.4081 43.9493 28.4081C45.4418 28.4235 46.6856 28.2761 47.6805 27.9651C48.6753 27.6386 49.3441 26.5038 49.686 24.5603C49.9658 22.9279 49.686 21.9872 48.8465 21.7386C48.0224 21.49 46.9888 21.3734 45.7449 21.3888C45.5584 21.4042 45.3797 21.4121 45.2086 21.4121C45.0532 21.4121 44.89 21.4121 44.7188 21.4121L44.7422 21.3888Z" fill="#AE2524"/>
</svg>
