<svg width="65" height="48" viewBox="0 0 65 48" fill="none" xmlns="http://www.w3.org/2000/svg">
<path d="M32.065 29.7468C40.5173 29.7468 47.3693 27.1739 47.3693 24C47.3693 20.8261 40.5173 18.2532 32.065 18.2532C23.6126 18.2532 16.7606 20.8261 16.7606 24C16.7606 27.1739 23.6126 29.7468 32.065 29.7468Z" stroke="#AE2524"/>
<path d="M27.0044 26.8734C31.2305 34.0723 36.9222 38.6217 39.7171 37.0347C42.512 35.4478 41.3517 28.3255 37.1256 21.1266C32.8994 13.9277 27.2077 9.37833 24.4128 10.9653C21.6179 12.5522 22.7782 19.6745 27.0044 26.8734Z" stroke="#AE2524"/>
<path d="M27.0043 21.1266C22.7782 28.3255 21.6179 35.4478 24.4128 37.0347C27.2077 38.6217 32.8994 34.0723 37.1255 26.8734C41.3517 19.6745 42.512 12.5522 39.7171 10.9653C36.9222 9.37833 31.2305 13.9277 27.0043 21.1266Z" stroke="#AE2524"/>
<path d="M34.2606 24C34.2606 25.2127 33.2775 26.1957 32.0649 26.1957C30.8522 26.1957 29.8691 25.2127 29.8691 24C29.8691 22.7873 30.8522 21.8043 32.0649 21.8043C33.2775 21.8043 34.2606 22.7873 34.2606 24Z" fill="#AE2524" stroke="#AE2524"/>
</svg>
