<svg width="64" height="49" viewBox="0 0 64 49" fill="none" xmlns="http://www.w3.org/2000/svg">
<path d="M32.0008 10.2762C24.2807 10.2762 18.0005 16.5561 18.0005 24.2756C18.0005 31.9957 24.281 38.2762 32.0005 38.2762C39.7197 38.2762 45.9996 31.9957 45.9996 24.2756C45.9999 16.5564 39.72 10.2762 32.0008 10.2762ZM19.4133 24.2756C19.4133 22.4511 19.8046 20.7183 20.5031 19.1533L26.5076 35.6042C22.309 33.5635 19.4133 29.2579 19.4133 24.2756ZM32.0008 36.8637C30.7652 36.8637 29.5726 36.6824 28.4449 36.3507L32.2213 25.3768L36.0911 35.9766C36.1161 36.0391 36.1467 36.0962 36.1807 36.15C34.8723 36.6103 33.4665 36.8637 32.0008 36.8637ZM33.7351 18.3742C34.4927 18.3343 35.1761 18.2543 35.1761 18.2543C35.854 18.174 35.7746 17.1776 35.0955 17.2174C35.0955 17.2174 33.0569 17.3771 31.7404 17.3771C30.5039 17.3771 28.4248 17.2174 28.4248 17.2174C27.7464 17.1776 27.6672 18.2145 28.3454 18.2543C28.3454 18.2543 28.9878 18.3343 29.6654 18.3742L31.6263 23.7475L28.8717 32.0088L24.2889 18.3745C25.0476 18.3349 25.7296 18.2546 25.7296 18.2546C26.4075 18.1746 26.3275 17.1776 25.6487 17.2183C25.6487 17.2183 23.611 17.378 22.2942 17.378C22.0576 17.378 21.7792 17.3719 21.4842 17.3629C23.7343 13.9452 27.6035 11.689 32.0008 11.689C35.2782 11.689 38.2615 12.9418 40.5006 14.9932C40.4462 14.9903 40.3935 14.983 40.3371 14.983C39.1012 14.983 38.2237 16.0601 38.2237 17.2171C38.2237 18.254 38.8216 19.1321 39.4596 20.169C39.9388 21.0075 40.4974 22.0848 40.4974 23.6405C40.4974 24.7181 40.0837 25.968 39.5393 27.7096L38.2839 31.9052L33.7351 18.3742ZM38.3284 35.1561L42.1732 24.0399C42.8921 22.2446 43.1304 20.8088 43.1304 19.5313C43.1304 19.0684 43.1001 18.6381 43.0454 18.2369C44.0288 20.0299 44.5883 22.0877 44.5877 24.2762C44.5874 28.9196 42.0702 32.9741 38.3284 35.1561Z" fill="#AE2524"/>
</svg>
