<svg width="20" height="21" viewBox="0 0 20 21" fill="none" xmlns="http://www.w3.org/2000/svg">
<path d="M4.29289 14.3124C3.90237 14.7029 3.90237 15.3361 4.29289 15.7266C4.68342 16.1171 5.31658 16.1171 5.70711 15.7266L4.29289 14.3124ZM15.5495 5.46997C15.5495 4.91769 15.1018 4.46997 14.5495 4.46997L5.5495 4.46997C4.99721 4.46997 4.5495 4.91769 4.5495 5.46997C4.5495 6.02226 4.99721 6.46997 5.5495 6.46997L13.5495 6.46997L13.5495 14.47C13.5495 15.0223 13.9972 15.47 14.5495 15.47C15.1018 15.47 15.5495 15.0223 15.5495 14.47L15.5495 5.46997ZM5.70711 15.7266L15.2566 6.17708L13.8424 4.76286L4.29289 14.3124L5.70711 15.7266Z" fill="#AE2524"/>
</svg>
